<?xml version="1.0" encoding="UTF-8" standalone="no"?>
<svg width="76px" height="98px" viewBox="0 0 76 98" version="1.1" xmlns="http://www.w3.org/2000/svg" xmlns:xlink="http://www.w3.org/1999/xlink" xmlns:sketch="http://www.bohemiancoding.com/sketch/ns">
    <!-- Generator: Sketch 3.4.4 (17249) - http://www.bohemiancoding.com/sketch -->
    <title>people-1</title>
    <desc>Created with Sketch.</desc>
    <defs></defs>
    <g id="Page-1" stroke="none" stroke-width="1" fill="none" fill-rule="evenodd" sketch:type="MSPage">
        <g id="Desktop-HD-Copy" sketch:type="MSArtboardGroup" transform="translate(-679.000000, -1147.000000)" fill="#42ACD7">
            <g id="people-1" sketch:type="MSLayerGroup" transform="translate(679.000000, 1147.000000)">
                <g id="Capa_1" sketch:type="MSShapeGroup">
                    <g id="Group">
                        <path d="M41.7544,77.1220163 C41.7544,73.7963902 39.3216,71.0420325 36.136,70.4938699 L36.1344,70.4771382 L34.8872,67.3028943 L36.244,65.5086179 L46.2616,36.9213008 C45.4664,36.6288943 44.664,36.358 43.8512,36.1572195 L39.0776,40.9440813 L34.4464,36.1062276 C34.4344,36.1110081 34.42,36.1102114 34.4008,36.1157886 C28.8152,37.7467317 21.9088,42.5798049 21.9088,42.5798049 C19.4096,44.3565528 17.0008,46.3117724 14.792,48.5785203 C8.4088,54.8194472 3.8936,61.9981463 0.9216,71.5575285 C0.1144,74.1485528 -0.0016,77.8127967 1.6872,79.9401138 C3.7864,82.5805366 4.9656,83.9597073 18.5624,83.9597073 C18.5624,83.9286341 34.9792,83.8664878 34.9792,83.8664878 C38.7176,83.8672846 41.7544,80.8412358 41.7544,77.1220163 L41.7544,77.1220163 Z M26.7632,81.8626667 C24.7096,81.8722276 22.6568,81.8825854 21.1168,81.8921463 C20.3424,81.8985203 19.7,81.9033008 19.2488,81.9080813 C19.0856,81.9096748 18.8408,81.9128618 18.564,81.943935 L18.564,81.9224228 C5.876,81.9224228 4.9592,80.7703252 3.296,78.6772683 C2.1448,77.224 2.2136,74.3015285 2.8792,72.1622602 C5.644,63.2697561 9.8856,56.2376585 16.2624,50.0007154 C18.1792,48.0319512 20.416,46.1508293 23.0744,44.2601463 L23.52,43.9533984 L34.1824,71.1065691 C34.4072,71.821252 35.0184,72.3718049 35.7872,72.504065 C38.0584,72.8952683 39.7072,74.8409268 39.7072,77.1244065 C39.7072,79.7210081 37.5872,81.8284065 34.9728,81.8284065 C34.9728,81.826813 30.868,81.842748 26.7632,81.8626667 L26.7632,81.8626667 Z" id="Shape"></path>
                        <path d="M63.7096,51.1783089 C60.3264,46.850374 55.3584,41.3998211 48.1448,37.745935 L42.6184,72.7263577 C42.6184,72.7263577 43.5256,75.4839024 43.5256,77.122813 C43.5256,81.8132683 39.6936,85.6304878 34.9816,85.6304878 L19.4704,85.6304878 L19.4704,94.8632033 C19.4704,96.027252 19.5256,97.0056585 19.6136,97.8350732 L58.552,97.8350732 C58.6352,97.0056585 58.6896,96.0264553 58.6896,94.8632033 L58.6896,71.05 C60.4416,76.8463415 61.8232,85.0377073 61.8232,96.4742276 C61.8232,96.9395285 61.8728,97.3944715 61.9616,97.8342764 L75.3448,97.8342764 C75.4328,97.3944715 75.4808,96.9395285 75.4808,96.4742276 C75.4808,70.348065 68.7944,57.3148618 63.7096,51.1783089 L63.7096,51.1783089 Z" id="Shape"></path>
                        <ellipse id="Oval" cx="39.12" cy="17.8463577" rx="17.9192" ry="17.8463577"></ellipse>
                    </g>
                </g>
            </g>
        </g>
    </g>
</svg>