<?xml version="1.0" encoding="UTF-8" standalone="no"?>
<svg width="219px" height="270px" viewBox="0 0 219 270" version="1.1" xmlns="http://www.w3.org/2000/svg" xmlns:xlink="http://www.w3.org/1999/xlink" xmlns:sketch="http://www.bohemiancoding.com/sketch/ns">
    <!-- Generator: Sketch 3.4.4 (17249) - http://www.bohemiancoding.com/sketch -->
    <title>Page 1</title>
    <desc>Created with Sketch.</desc>
    <defs>
        <path id="path-1" d="M-6.82121026e-13,0.661683877 L192.447433,0.661683877 L192.447433,291.834374 L-6.82121026e-13,291.834374"></path>
    </defs>
    <g id="Page-1" stroke="none" stroke-width="1" fill="none" fill-rule="evenodd" sketch:type="MSPage">
        <g id="Desktop-HD-Copy-9" sketch:type="MSArtboardGroup" transform="translate(-1193.000000, -237.000000)">
            <g id="Page-1" sketch:type="MSLayerGroup" transform="translate(1303.497295, 376.061711) rotate(-49.000000) translate(-1303.497295, -376.061711) translate(1206.997295, 230.061711)">
                <g id="Group-3" transform="translate(0.000000, 0.000000)">
                    <mask id="mask-2" sketch:name="Clip 2" fill="white">
                        <use xlink:href="#path-1"></use>
                    </mask>
                    <g id="Clip-2"></g>
                    <path d="M142.113516,7.68579052 C141.708993,3.75469482 138.363011,0.661539405 134.32934,0.661539405 C130.025505,0.661539405 126.503266,4.18377804 126.503266,8.48761269 L126.503266,18.8419541 C126.503266,23.1457887 130.025505,26.6665826 134.32934,26.6665826 C137.15811,26.6665826 139.640147,25.1409534 141.015525,22.8770699 C148.185694,25.4038933 195.228817,44.2286551 168.044878,94.8099089 C168.044878,94.8099089 153.496501,127.902771 127.955215,135.51358 C127.851194,135.536696 127.700943,135.578593 127.508795,135.637827 C126.03662,136.058242 124.526883,136.387639 122.983917,136.626018 C121.805022,136.727149 120.50188,136.740152 119.139505,136.604348 C117.871037,136.403531 116.619905,136.150704 115.400558,135.825641 C89.1831399,128.85051 74.2230165,94.8099089 74.2230165,94.8099089 C45.868851,42.0543446 98.2617895,23.8450354 101.944393,22.6415798 C103.286542,25.0369332 105.848038,26.6665826 108.775051,26.6665826 C113.08033,26.6665826 116.601124,23.1457887 116.601124,18.8419541 L116.601124,8.48761269 C116.601124,4.18377804 113.08033,0.661539405 108.775051,0.661539405 C104.832397,0.661539405 101.555762,3.62033543 101.031327,7.42574009 C42.527203,24.5110535 50.1437912,72.6579463 50.1437912,72.6579463 C63.2373304,132.966531 101.987734,148.651906 115.23008,152.305615 L115.231525,152.307059 C115.231525,152.307059 116.836614,152.892173 119.039819,153.204233 C119.487684,153.286583 119.731842,153.321256 119.731842,153.321256 L119.731842,153.288027 C121.777572,153.506181 124.210488,153.441168 126.335678,152.496318 C126.337123,152.494874 126.337123,152.494874 126.338568,152.494874 C138.858551,149.208125 178.79074,134.067411 192.122659,72.6579463 C192.122659,72.6579463 199.662677,24.9950362 142.113516,7.68579052" id="Fill-1" fill="#27607F" sketch:type="MSShapeGroup" mask="url(#mask-2)"></path>
                </g>
                <path d="M27.6303584,174.390253 L27.6303584,236.032319 C27.6303584,293.178401 121.132936,293.058489 121.132936,235.910962 L121.132936,146.161779" id="Stroke-4" stroke="#28607F" stroke-width="18" sketch:type="MSShapeGroup"></path>
                <path d="M27.6303584,167.889281 C21.048193,167.889281 15.7113803,162.552469 15.7113803,155.970303 C15.7113803,149.386693 21.048193,144.051325 27.6303584,144.051325 C34.2125238,144.051325 39.5493366,149.386693 39.5493366,155.970303 C39.5493366,162.552469 34.2125238,167.889281 27.6303584,167.889281 M27.6303584,128.339945 C12.3711769,128.339945 3.41060513e-13,140.709677 3.41060513e-13,155.970303 C3.41060513e-13,171.229485 12.3711769,183.600662 27.6303584,183.600662 C42.8895399,183.600662 55.2607168,171.229485 55.2607168,155.970303 C55.2607168,140.709677 42.8895399,128.339945 27.6303584,128.339945" id="Fill-6" fill="#27607F" sketch:type="MSShapeGroup"></path>
            </g>
        </g>
    </g>
</svg>