<?xml version="1.0" encoding="UTF-8" standalone="no"?>
<svg width="212px" height="209px" viewBox="0 0 212 209" version="1.1" xmlns="http://www.w3.org/2000/svg" xmlns:xlink="http://www.w3.org/1999/xlink" xmlns:sketch="http://www.bohemiancoding.com/sketch/ns">
    <!-- Generator: Sketch 3.4.4 (17249) - http://www.bohemiancoding.com/sketch -->
    <title>Page 1</title>
    <desc>Created with Sketch.</desc>
    <defs>
        <path id="path-1" d="M0,0.374217391 L212,0.374217391 L212,209 L0,209"></path>
    </defs>
    <g id="Page-1" stroke="none" stroke-width="1" fill="none" fill-rule="evenodd" sketch:type="MSPage">
        <g id="Desktop-HD-Copy-8" sketch:type="MSArtboardGroup" transform="translate(-1228.000000, -392.000000)">
            <g id="Page-1" sketch:type="MSLayerGroup" transform="translate(1228.000000, 392.000000)">
                <path d="M0,135.891304 C1.36640625,131.633652 3.80233594,128.303696 8.11189844,126.606087 C16.3264844,123.369891 24.7468594,128.32063 26.4387188,137.1515 C28.7968047,149.460609 34.132,160.307543 43.0848594,169.233 C50.9818594,177.106022 60.6763047,181.329804 71.5967891,182.982391 C85.2898359,185.05463 98.7116719,183.22237 111.853602,179.524804 C115.556977,178.482696 118.746086,175.621543 122.515711,173.391109 C121.308719,172.158174 120.461133,171.097065 119.426805,170.267674 C113.622477,165.611848 106.920461,162.542522 100.148469,159.621891 C99.4938359,159.33937 98.6595,159.378196 97.9146016,159.409587 C84.2753828,159.990739 70.6311953,160.489696 56.9998437,161.227391 C47.8031016,161.724696 40.6166328,153.768239 43.1246094,145.346696 C44.6529141,140.216283 48.2908672,136.905326 53.6326875,136.382413 C62.1350469,135.549717 70.6808828,134.841761 79.2167812,134.73313 C106.735375,134.383283 134.257695,134.319674 161.778773,134.17263 C168.426961,134.137109 174.698766,136.169283 180.905148,138.156848 C190.790891,141.322826 200.558211,144.858065 210.369008,148.255761 C210.942484,148.454435 211.457578,148.820391 212,149.108696 L212,192.065217 C210.722617,192.206065 209.447305,192.4415 208.167438,192.472065 C199.917242,192.669087 191.617359,192.318 183.426789,193.106087 C171.38668,194.264261 159.402055,196.080413 147.436891,197.897391 C140.175891,199.000217 132.977828,200.547065 125.783906,202.048891 C116.983836,203.885696 108.231383,205.949674 99.4292422,207.776152 C96.4198359,208.400674 93.3226484,208.604304 90.265625,209 L75.359375,209 C74.6939766,208.862043 74.0347891,208.65263 73.3623516,208.596457 C62.8989922,207.725348 52.8778516,205.188848 43.4707656,200.497913 C24.1005078,190.838891 11.5254297,175.235348 4.18948438,155.211 C2.47775,150.538239 1.38007031,145.641609 0,140.847826 L0,135.891304" id="Fill-1" fill="#71ADCE" sketch:type="MSShapeGroup"></path>
                <g id="Group-5">
                    <mask id="mask-2" sketch:name="Clip 4" fill="white">
                        <use xlink:href="#path-1"></use>
                    </mask>
                    <g id="Clip-4"></g>
                    <path d="M129.541358,23.8575978 C129.541358,36.827163 119.001397,47.3411848 105.999834,47.3411848 C92.9986859,47.3411848 82.458725,36.827163 82.458725,23.8575978 C82.458725,10.8880326 92.9986859,0.37401087 105.999834,0.37401087 C119.001397,0.37401087 129.541358,10.8880326 129.541358,23.8575978" id="Fill-3" fill="#71ADCE" sketch:type="MSShapeGroup" mask="url(#mask-2)"></path>
                </g>
                <path id="Fill-6" fill="#71ADCE" sketch:type="MSShapeGroup" d="M111.721184,52.3370696 L111.721184,52.3370696 C111.721184,52.2148087 111.721184,52.218113 111.721184,52.3370696"></path>
                <path d="M122.001901,52.3395891 L111.721143,52.3395891 L111.721143,52.3371109 L100.27894,52.3371109 C100.27894,52.2189804 100.27894,52.2222848 100.27894,52.3371109 L89.998182,52.3371109 C77.8023852,52.9058717 63.7412367,70.3160674 64.0795258,83.8068935 L64.0737289,128.800959 L80.4739164,128.800959 L80.4801273,85.6978065 L85.1656586,85.6978065 L85.1598617,128.800959 L100.272729,128.800959 L100.272729,128.803437 L126.828213,128.803437 L126.834424,85.7002848 L131.519955,85.7002848 L131.514159,128.803437 L147.914346,128.803437 L147.920557,83.8093717 C148.258846,70.3185457 134.197698,52.90835 122.001901,52.3395891" id="Fill-8" fill="#71ADCE" sketch:type="MSShapeGroup"></path>
            </g>
        </g>
    </g>
</svg>