<?xml version="1.0" encoding="UTF-8" standalone="no"?>
<svg width="21px" height="39px" viewBox="0 0 21 39" version="1.1" xmlns="http://www.w3.org/2000/svg" xmlns:xlink="http://www.w3.org/1999/xlink" xmlns:sketch="http://www.bohemiancoding.com/sketch/ns">
    <!-- Generator: Sketch 3.4.4 (17249) - http://www.bohemiancoding.com/sketch -->
    <title>Page 1 Copy 25</title>
    <desc>Created with Sketch.</desc>
    <defs>
        <path id="path-1" d="M0,0.057675853 L20.676925,0.057675853 L20.676925,38.4505687 L0,38.4505687"></path>
    </defs>
    <g id="Page-1" stroke="none" stroke-width="1" fill="none" fill-rule="evenodd" sketch:type="MSPage">
        <g id="Desktop-HD-Copy-8" sketch:type="MSArtboardGroup" transform="translate(-441.000000, -431.000000)">
            <g id="Page-1-Copy-25" sketch:type="MSLayerGroup" transform="translate(441.000000, 431.000000)">
                <mask id="mask-2" sketch:name="Clip 2" fill="white">
                    <use xlink:href="#path-1"></use>
                </mask>
                <g id="Clip-2"></g>
                <path d="M10.4332224,5.54034244 C11.3434489,5.54034244 12.254506,5.53188332 13.1647325,5.54572552 C13.438797,5.54957058 13.5675243,5.46882438 13.6347947,5.21505063 C13.8100299,4.55446986 13.7078786,3.91388339 13.3931196,3.3332798 C12.5991629,1.86985116 11.0129105,1.29924472 9.3286592,1.81678937 C7.94587894,2.24128365 6.95011105,3.85236248 7.26487004,5.12584531 C7.33961492,5.42883579 7.46335922,5.56110575 7.83043963,5.54957058 C8.69664972,5.52034815 9.56535132,5.54034244 10.4332224,5.54034244 M1.98705108,18.156743 C2.12906635,18.156743 2.21709921,18.1751993 2.29267459,18.153667 C3.05258086,17.9398818 3.81082613,17.7207136 4.56741041,17.5000073 C6.74497788,16.8632659 8.92005386,16.2196034 11.0992823,15.5890141 C13.6132018,14.8615293 16.1312737,14.1432727 18.6485151,13.424247 C18.8943427,13.354267 19.0106125,13.2419913 19.0039685,12.9774514 C18.9840366,12.135384 18.9989856,11.2925475 18.9964941,10.4504801 C18.9906806,8.63484421 17.3869877,7.13527203 15.4187058,7.12911994 C12.1183042,7.1198918 8.81790253,7.12066081 5.51750087,7.12911994 C3.54589706,7.13450302 1.9754241,8.59793166 1.9745936,10.4189506 C1.97376311,12.8282632 1.98289859,15.2375759 1.98705108,17.6468885 C1.98788158,17.814533 1.98705108,17.9821775 1.98705108,18.156743 M11.0901469,30.3686437 C11.5004132,32.3157805 10.6715755,34.582057 8.15267311,35.1034467 C6.92436559,35.3579894 5.65121115,35.4241244 4.40214118,35.5948449 C3.89885899,35.664056 3.38644132,35.7394191 2.90807409,35.8916833 C2.08421943,36.1539162 1.66149561,36.7137565 1.65069913,37.5412127 C1.64820763,37.7526909 1.58758123,37.9949294 1.46134543,38.16565 C1.25953426,38.440187 0.919860311,38.506322 0.58101686,38.4071195 C0.220580443,38.301765 0.0112947817,38.0410701 0.00298979516,37.696553 C-0.0426876309,35.9616634 0.506271981,34.6912566 2.68134796,34.2844496 C3.87560503,34.0614363 5.10391254,34.0037604 6.31228808,33.839192 C6.82719725,33.7684429 7.34708941,33.6584743 7.83459212,33.4908298 C8.96988378,33.1009411 9.44077652,32.2634877 9.52216539,31.1922548 C9.54209736,30.934636 9.58445279,30.6793242 9.62265573,30.3771028 L6.7956383,30.3771028 L6.7956383,28.4791827 C6.28155963,28.4576504 5.8056839,28.4384251 5.32980817,28.4184308 C3.67213286,28.3484508 2.37904645,27.6755658 1.31351667,26.4966714 C0.455611563,25.5492494 0.22888543,24.4557152 0.227224432,23.3014291 C0.22224144,19.0049626 0.239681912,14.708496 0.272901858,10.4120295 C0.292833826,7.80969501 2.43884235,5.73259529 5.2509108,5.5441875 C5.3754856,5.53572837 5.5000604,5.52496221 5.62629619,5.51496507 C5.13879348,2.57195854 7.22168411,0.534078399 9.49309794,0.149572712 C11.1922982,-0.138037542 12.7096192,0.246468145 13.9561977,1.39767817 C15.1878272,2.53427698 15.5374672,3.93772274 15.324029,5.44575404 C15.970157,5.58571411 16.564794,5.66338426 17.1203976,5.84333292 C19.311253,6.55543746 20.6433729,8.28494403 20.6558304,10.4358688 C20.6749318,13.5857394 20.6691183,16.73561 20.6716098,19.8854806 C20.6724403,21.2427857 20.6882198,22.5993217 20.6599829,23.9558578 C20.6184579,25.9706676 18.9126137,27.6970981 17.0008058,28.1761922 C16.245052,28.366138 15.4344853,28.3838253 14.6446811,28.4376561 C14.3274306,28.4591884 14.1779409,28.5130192 14.2028558,28.836773 C14.2302623,29.1912872 14.1887373,29.5496465 14.2144828,29.9033918 C14.2393978,30.2532919 14.1306024,30.391714 13.7195056,30.3778718 C12.8532955,30.3478803 11.9854244,30.3686437 11.0901469,30.3686437" id="Fill-1" fill="#71ADCE" sketch:type="MSShapeGroup" mask="url(#mask-2)"></path>
            </g>
        </g>
    </g>
</svg>