<?xml version="1.0" encoding="UTF-8" standalone="no"?>
<svg width="40px" height="40px" viewBox="0 0 40 40" version="1.1" xmlns="http://www.w3.org/2000/svg" xmlns:xlink="http://www.w3.org/1999/xlink" xmlns:sketch="http://www.bohemiancoding.com/sketch/ns">
    <!-- Generator: Sketch 3.4.4 (17249) - http://www.bohemiancoding.com/sketch -->
    <title>Apple Watch 42mm</title>
    <desc>Created with Sketch.</desc>
    <defs>
        <path id="path-1" d="M0,0.0517603809 L18.7076941,0.0517603809 L18.7076941,34.5069206 L0,34.5069206"></path>
    </defs>
    <g id="Page-1" stroke="none" stroke-width="1" fill="none" fill-rule="evenodd" sketch:type="MSPage">
        <g id="Apple-Watch-42mm" sketch:type="MSArtboardGroup">
            <g id="Page-1-Copy-25" sketch:type="MSLayerGroup" transform="translate(11.000000, 3.000000)">
                <mask id="mask-2" sketch:name="Clip 2" fill="white">
                    <use xlink:href="#path-1"></use>
                </mask>
                <g id="Clip-2"></g>
                <path d="M9.43958218,4.97210219 C10.2631205,4.97210219 11.0874102,4.96451067 11.9109484,4.97693316 C12.1589116,4.98038385 12.2753792,4.90791932 12.3362429,4.68017364 C12.494789,4.08734475 12.4023664,3.51245945 12.1175844,2.99140495 C11.3992426,1.67807155 9.96406186,1.16598885 8.44021547,1.630452 C7.18912856,2.0114084 6.28819571,3.45724838 6.57297766,4.60011759 C6.64060398,4.87203212 6.7525631,4.99073593 7.08468347,4.98038385 C7.86839737,4.95415859 8.65436548,4.97210219 9.43958218,4.97210219 M1.79780812,16.294513 C1.92629813,16.294513 2.00594691,16.3110763 2.07432463,16.2917524 C2.76185887,16.099894 3.44789031,15.9032045 4.13241894,15.7051348 C6.10259904,15.1337002 8.07052492,14.5560543 10.0422078,13.9901408 C12.3167064,13.3372699 14.5949619,12.6926806 16.8724661,12.0474012 C17.0948815,11.9845986 17.200078,11.8838384 17.1940668,11.6464308 C17.1760331,10.8907292 17.1895584,10.1343375 17.1873041,9.37863595 C17.1820443,7.74921916 15.7310841,6.40344926 13.9502577,6.39792815 C10.96418,6.38964649 7.97810229,6.39033663 4.9920246,6.39792815 C3.20819258,6.40275912 1.78728847,7.71609252 1.78653707,9.35034028 C1.78578567,11.5125439 1.79405111,13.6747476 1.79780812,15.8369512 C1.79855953,15.9874014 1.79780812,16.1378516 1.79780812,16.294513 M10.0339424,27.253911 C10.4051357,29.0013414 9.655235,31.0351793 7.37622805,31.5030932 C6.2649022,31.731529 5.11300057,31.7908809 3.98288963,31.9440916 C3.52753909,32.0062041 3.0639231,32.0738376 2.63111466,32.210485 C1.88572234,32.4458222 1.50325793,32.948243 1.49348969,33.6908319 C1.49123548,33.88062 1.43638302,34.0980136 1.32216968,34.2512243 C1.13957862,34.4976037 0.832254567,34.5569557 0.525681921,34.4679278 C0.199572782,34.3733788 0.0102190882,34.1394219 0.00270505277,33.8302399 C-0.0386221423,32.2732876 0.458055602,31.133179 2.42598149,30.7680958 C3.50649979,30.5679556 4.61782563,30.5161952 5.71111779,30.3685056 C6.17698799,30.3050129 6.64736661,30.2063231 7.08844049,30.0558729 C8.11560914,29.7059728 8.54165495,28.954412 8.61529249,27.9930492 C8.63332618,27.7618528 8.67164776,27.5327269 8.70621232,27.2615025 L6.14843465,27.2615025 L6.14843465,25.5582409 C5.68331586,25.538917 5.25276163,25.5216636 4.8222074,25.50372 C3.32240592,25.4409174 2.1524706,24.8370463 1.18841985,23.7790641 C0.412219985,22.9288135 0.207086817,21.9474367 0.20558401,20.911539 C0.201075589,17.0557357 0.216855063,13.1999323 0.246911205,9.34412903 C0.26494489,7.00870065 2.20657165,5.14463679 4.75082406,4.97555288 C4.86353459,4.96796136 4.97624512,4.95829942 5.09045846,4.94932762 C4.64938458,2.30816792 6.53390467,0.479301127 8.58899337,0.134231921 C10.126365,-0.123879845 11.4991793,0.221189361 12.627036,1.25432656 C13.7413675,2.27435114 14.0577084,3.53385374 13.8645977,4.88721517 C14.4491896,5.01282036 14.9871946,5.08252434 15.4898835,5.24401673 C17.4720861,5.8830849 18.6773374,7.43520619 18.6886084,9.36552332 C18.7058907,12.1923303 18.7006309,15.0191372 18.7028851,17.8459441 C18.7036365,19.0640384 18.7179132,20.2814426 18.6923654,21.4988468 C18.6547953,23.3070094 17.1114124,24.8563701 15.3816814,25.2863264 C14.6979042,25.4567905 13.9645343,25.4726637 13.2499496,25.5209734 C12.9629134,25.5402973 12.8276608,25.588607 12.8502029,25.8791553 C12.8749992,26.1973091 12.837429,26.5189136 12.8607225,26.8363772 C12.8832646,27.1503902 12.7848308,27.2746151 12.412886,27.2621926 C11.6291721,27.2352772 10.8439554,27.253911 10.0339424,27.253911" id="Fill-1" fill="#71ADCE" sketch:type="MSShapeGroup" mask="url(#mask-2)"></path>
            </g>
        </g>
    </g>
</svg>