<?xml version="1.0" encoding="UTF-8" standalone="no"?>
<svg width="31px" height="30px" viewBox="0 0 31 30" version="1.1" xmlns="http://www.w3.org/2000/svg" xmlns:xlink="http://www.w3.org/1999/xlink" xmlns:sketch="http://www.bohemiancoding.com/sketch/ns">
    <!-- Generator: Sketch 3.4.4 (17249) - http://www.bohemiancoding.com/sketch -->
    <title>Page 1 Copy 28</title>
    <desc>Created with Sketch.</desc>
    <defs></defs>
    <g id="Page-1" stroke="none" stroke-width="1" fill="none" fill-rule="evenodd" sketch:type="MSPage">
        <g id="Desktop-HD-Copy-8" sketch:type="MSArtboardGroup" transform="translate(-922.000000, -430.000000)" fill="#71ADCE">
            <g id="Page-1-Copy-28" sketch:type="MSLayerGroup" transform="translate(922.000000, 430.000000)">
                <path d="M30.535139,29.6932643 L4.0292749,29.6932643 C4.0292749,29.3736751 4.02569579,29.0690872 4.02985754,28.7645766 C4.04450691,27.7086872 3.97375713,26.6439826 4.09594616,25.5988416 C4.37769676,23.1869598 5.68731681,21.2687285 7.64949953,19.7198072 C9.65887653,18.1336147 12.0123472,17.2635402 14.6618016,16.8994884 C15.5105492,19.6162674 16.3602125,22.3358302 17.2097925,25.0553156 C17.2462494,25.0586407 17.2827896,25.0619657 17.3192466,25.0652907 C18.1674116,22.3507541 19.0155766,19.6361402 19.8704004,16.9001843 C22.3864291,17.2343882 24.6619917,18.035565 26.6316656,19.508088 C28.6826601,21.0413894 30.0924951,22.9616312 30.4288479,25.4257855 C30.579753,26.5309317 30.5081709,27.6624461 30.5341402,28.7820523 C30.5408823,29.0751959 30.535139,29.3685716 30.535139,29.6932643" id="Fill-1" sketch:type="MSShapeGroup"></path>
                <path d="M13.3776015,12.6803384 C13.6741679,13.1644005 13.9232904,13.5782504 14.1795711,13.9881566 C14.9579019,15.2329539 16.0828234,15.8117406 17.6654544,15.6766517 C18.5321808,15.6026505 19.2746373,15.3823481 19.7950228,14.7266992 C20.2206035,14.190442 20.5921647,13.6167588 20.9789579,13.0545199 C21.0626923,12.9328858 21.1092207,12.789291 21.1957019,12.6078064 L20.416622,12.6078064 L19.7356762,12.6078064 C19.5642952,13.5840498 19.4568388,13.8105383 18.8959179,14.05226 C17.848072,14.5038451 16.7770868,14.5202382 15.7225822,14.0680346 C15.2245869,13.8545369 14.9147029,13.491413 14.904465,12.9519854 C14.9028835,12.8662306 14.8774136,12.7809398 14.8604337,12.6803384 L13.3776015,12.6803384 Z M19.7513244,11.3902279 C20.2846945,11.3902279 20.8361266,11.3731388 21.3853946,11.3970326 C21.6811287,11.4099461 21.8012368,11.2985191 21.8798107,11.0544002 C22.1216085,10.3029441 22.3698986,9.55287988 22.645573,8.81186282 C22.695847,8.67669661 22.8703908,8.51879649 23.0163019,8.48763403 C23.6911715,8.34334332 24.0398431,7.93359174 24.0539931,7.19566772 C24.0683095,6.45225355 23.6588763,5.88011693 22.9974907,5.76706601 C22.3982817,5.66453145 21.7944115,5.58125113 21.1895425,5.51274011 C18.0297741,5.15510639 14.8814921,5.2345204 11.7448631,5.73922857 C11.1422414,5.83619564 10.7472911,6.16258957 10.6008807,6.71477603 C10.4277518,7.36748656 10.6206907,8.02978554 11.0908021,8.3261769 C11.2108271,8.40180193 11.3686407,8.45515702 11.5123876,8.46250301 C11.7988826,8.47711766 11.9068384,8.6141397 11.9826655,8.85524282 C12.2272933,9.63268053 12.493146,10.4045508 12.7665731,11.1737146 C12.8026139,11.2750892 12.9273832,11.4201532 13.0160285,11.4232462 C13.6330498,11.4450522 14.2514029,11.4347678 14.9063794,11.4347678 C14.8114915,10.5374745 15.2591295,9.98698922 16.0907307,9.79947316 C16.7100826,9.65982203 17.3790426,9.62425197 18.0167062,9.66531219 C18.6444649,9.70583113 19.2509986,9.94020687 19.5483973,10.524793 C19.6727505,10.7692985 19.6794925,11.0653805 19.7513244,11.3902279 L19.7513244,11.3902279 Z M24.5934393,3.33446079 C24.5934393,3.59211172 24.6052587,3.85038126 24.5910255,4.10733625 C24.5580644,4.70398528 24.6641059,5.22678778 25.0240142,5.77302013 C25.8567807,7.03676236 25.3131727,8.72463886 23.9594381,9.46534661 C23.827677,9.53733732 23.7352029,9.70776428 23.6752736,9.85089509 C23.1592997,11.0836295 22.6957637,12.3369327 22.1333446,13.5508769 C21.7271576,14.4276788 21.1258677,15.2075909 20.3753374,15.8770812 C19.7264371,16.4559452 18.944111,16.7074101 18.0621525,16.813347 C15.7075999,17.0962836 14.0507232,16.2000728 12.8970024,14.3266907 C12.0371013,12.930334 11.4408055,11.4414179 10.9588746,9.9069566 C10.8838798,9.66825059 10.7585279,9.5204802 10.524138,9.39296928 C9.17198486,8.65767436 8.80941305,6.83316245 9.71975463,5.54367059 C9.86000567,5.34509688 9.94840128,5.07832146 9.95431096,4.84085267 C9.97969765,3.82354907 9.97345502,2.80531754 9.95922183,1.7876273 C9.9558092,1.54327648 10.0440383,1.43409188 10.2870014,1.33805272 C14.5565426,-0.348431899 18.8771068,-0.332580026 23.2384562,0.985986493 C23.6849289,1.12099805 24.2734838,1.18401892 24.5131175,1.47886375 C24.7362706,1.75352645 24.5835343,2.29303141 24.5926902,2.71600577 C24.5971849,2.92208012 24.5935226,3.12830912 24.5934393,3.33446079 L24.5934393,3.33446079 Z" id="Fill-3" sketch:type="MSShapeGroup"></path>
                <path d="M0.00516057221,20.5223527 C0.00524380724,18.1127907 0.0128181955,15.7032287 8.32350366e-05,13.293744 C-0.00332940142,12.6616796 0.196767624,12.1775402 0.726891566,11.7335331 C0.931982694,11.5617916 0.968606109,10.9721793 0.811458362,10.7162295 C0.288326163,9.86409468 0.130845476,8.94259824 0.0744953569,8.00996683 C-0.0208919939,6.43313078 0.191024407,4.87377044 0.629423339,3.34634583 C0.706915157,3.07632271 0.83093536,2.8086967 0.985086646,2.56852149 C1.3624743,1.98045567 1.87794887,1.94442166 2.36079531,2.45693977 C2.4968846,2.60146246 2.62539949,2.75858932 2.72278448,2.92716045 C3.56745363,4.38932174 4.0211678,5.95788389 4.13736391,7.60817985 C4.18946905,8.34726376 3.8790856,8.96556413 3.27263513,9.45148203 C3.09409598,9.59453551 2.92346416,9.74663617 2.7396812,9.88342623 C2.13164926,10.3360939 2.16835591,10.9606577 2.22345751,11.5820511 C2.23119836,11.6691204 2.36662177,11.7573496 2.45976177,11.8250873 C2.87901665,12.1302939 3.10608182,12.5180075 3.10591535,13.0201639 C3.10433389,18.0197673 3.10666447,23.0193707 3.10333507,28.018974 C3.10291889,28.6869178 2.70463925,29.2060087 2.0668924,29.4132429 C1.44337875,29.6158376 0.724061575,29.4624997 0.359575354,28.9445688 C0.153485406,28.6516571 0.0241381603,28.2562882 0.0201428786,27.9054592 C-0.00824026852,25.4446299 0.00507733717,22.983414 0.00516057221,20.5223527" id="Fill-5" sketch:type="MSShapeGroup"></path>
            </g>
        </g>
    </g>
</svg>