<?xml version="1.0" encoding="UTF-8" standalone="no"?>
<svg width="40px" height="40px" viewBox="0 0 40 40" version="1.1" xmlns="http://www.w3.org/2000/svg" xmlns:xlink="http://www.w3.org/1999/xlink" xmlns:sketch="http://www.bohemiancoding.com/sketch/ns">
    <!-- Generator: Sketch 3.4.4 (17249) - http://www.bohemiancoding.com/sketch -->
    <title>Apple Watch 42mm</title>
    <desc>Created with Sketch.</desc>
    <defs></defs>
    <g id="Page-1" stroke="none" stroke-width="1" fill="none" fill-rule="evenodd" sketch:type="MSPage">
        <g id="Apple-Watch-42mm" sketch:type="MSArtboardGroup" fill="#71ADCE">
            <g id="Page-1-Copy-28" sketch:type="MSLayerGroup" transform="translate(8.000000, 8.000000)">
                <path d="M24.6251121,23.7546115 L3.24941524,23.7546115 C3.24941524,23.4989401 3.24652886,23.2552697 3.24988511,23.0116612 C3.26169912,22.1669497 3.20464285,21.3151861 3.30318239,20.4790732 C3.53040061,18.5495678 4.58654581,17.0149828 6.16895124,15.7758458 C7.78941656,14.5068917 9.68737674,13.8108321 11.8240335,13.5195907 C12.5085074,15.6930139 13.1937197,17.8686641 13.8788649,20.0442525 C13.9082657,20.0469125 13.9377336,20.0495725 13.9671343,20.0522326 C14.6511384,17.8806033 15.3351424,15.7089122 16.0245165,13.5201474 C18.0535718,13.7875105 19.888703,14.428452 21.4771497,15.6064704 C23.1311775,16.8331115 24.2681412,18.369305 24.5393935,20.3406284 C24.6610911,21.2247453 24.6033636,22.1299569 24.6243066,23.0256418 C24.6297438,23.2601568 24.6251121,23.4948573 24.6251121,23.7546115" id="Fill-1" sketch:type="MSShapeGroup"></path>
                <path d="M10.7883883,10.1442707 C11.0275548,10.5315204 11.22846,10.8626003 11.435138,11.1905253 C12.0628241,12.1863631 12.9700189,12.6493925 14.2463342,12.5413214 C14.9453071,12.4821204 15.5440623,12.3058785 15.963728,11.7813594 C16.3069383,11.3523536 16.6065844,10.893407 16.9185144,10.443616 C16.9860422,10.3463087 17.0235651,10.2314328 17.093308,10.0862451 L16.4650177,10.0862451 L15.9158679,10.0862451 C15.7776574,10.8672399 15.690999,11.0484306 15.2386435,11.241808 C14.3936065,11.6030761 13.5299087,11.6161906 12.6795017,11.2544277 C12.2778927,11.0836295 12.0279862,10.7931304 12.0197298,10.3615883 C12.0184545,10.2929845 11.9979142,10.2247518 11.9842207,10.1442707 L10.7883883,10.1442707 Z M15.9284874,9.11218235 C16.3586246,9.11218235 16.8033279,9.09851108 17.2462859,9.11762612 C17.4847812,9.1279569 17.5816426,9.03881524 17.6450086,8.84352017 C17.8400068,8.24235529 18.0402408,7.64230391 18.2625589,7.04949026 C18.3031024,6.94135729 18.4438636,6.81503719 18.5615338,6.79010722 C19.1057835,6.67467466 19.3869702,6.34687339 19.3983815,5.75653418 C19.409927,5.16180284 19.079739,4.70409354 18.5463635,4.61365281 C18.0631304,4.53162516 17.5761383,4.4650009 17.0883408,4.41019208 C14.5401404,4.12408511 12.0012033,4.18761632 9.47166375,4.59138286 C8.98567854,4.66895651 8.66717028,4.93007165 8.54909736,5.37182082 C8.4094773,5.89398925 8.56507311,6.42382843 8.94419527,6.66094152 C9.04098957,6.72144155 9.16825862,6.76412561 9.28418354,6.77000241 C9.51522789,6.78169413 9.60228906,6.89131176 9.66343996,7.08419426 C9.86072042,7.70614443 10.0751178,8.3236406 10.2956235,8.93897164 C10.3246886,9.02007137 10.425309,9.13612255 10.4967972,9.13859699 C10.994395,9.15604178 11.4930669,9.14781427 12.0212737,9.14781427 C11.9447512,8.4299796 12.3057496,7.98959138 12.9763957,7.83957853 C13.4758731,7.72785762 14.0153569,7.69940158 14.5296018,7.73224975 C15.0358588,7.7646649 15.5249988,7.95216549 15.7648366,8.41983441 C15.8651214,8.61543878 15.8705585,8.85230443 15.9284874,9.11218235 L15.9284874,9.11218235 Z M19.8334188,2.66756863 C19.8334188,2.87368938 19.8429506,3.08030501 19.8314722,3.285869 C19.8048907,3.76318823 19.890408,4.18143023 20.1806566,4.6184161 C20.8522425,5.62940989 20.4138489,6.97971109 19.3221275,7.57227729 C19.2158685,7.62986985 19.1412926,7.76621142 19.0929626,7.88071607 C18.6768546,8.86690362 18.3030353,9.86954618 17.8494715,10.8407015 C17.5219013,11.542143 17.0369901,12.1660727 16.4317237,12.701665 C15.908417,13.1647562 15.2775089,13.3659281 14.5662521,13.4506776 C12.6674192,13.6770269 11.3312284,12.9600582 10.4008084,11.4613526 C9.70733973,10.3442672 9.22645602,9.15313431 8.8378021,7.92556528 C8.77732245,7.73460047 8.67623216,7.61638416 8.48720808,7.51437543 C7.39676199,6.92613949 7.10436536,5.46652996 7.8385118,4.43493647 C7.95161748,4.27607751 8.02290426,4.06265717 8.02767013,3.87268214 C8.04814327,3.05883925 8.04310889,2.24425403 8.03163051,1.43010184 C8.02887838,1.23462119 8.10003091,1.1472735 8.29596887,1.07044218 C11.7391472,-0.278745519 15.2234732,-0.266064021 18.7406905,0.788789195 C19.1007491,0.896798444 19.5753902,0.947215132 19.7686432,1.183091 C19.9486054,1.40282116 19.8254309,1.83442513 19.8328147,2.17280462 C19.8364394,2.3376641 19.8334859,2.5026473 19.8334188,2.66756863 L19.8334188,2.66756863 Z" id="Fill-3" sketch:type="MSShapeGroup"></path>
                <path d="M0.00416175178,16.4178822 C0.00422887681,14.4902326 0.0103372544,12.562583 6.71250295e-05,10.6349952 C-0.00268500115,10.1293437 0.158683568,9.74203216 0.586202876,9.38682649 C0.751598946,9.24943328 0.781133959,8.7777434 0.654401905,8.5729836 C0.232521099,7.89127574 0.105520545,7.15407859 0.0600769007,6.40797347 C-0.0168483822,5.14650462 0.154051941,3.89901635 0.507599467,2.67707666 C0.570092869,2.46105817 0.670109162,2.24695736 0.794424715,2.05481719 C1.09876959,1.58436454 1.5144749,1.55553733 1.90386719,1.96555182 C2.01361661,2.08116997 2.11725766,2.20687145 2.19579394,2.34172836 C2.87697873,3.51145739 3.24287726,4.76630712 3.3365838,6.08654388 C3.37860407,6.67781101 3.12829484,7.1724513 2.63922188,7.56118562 C2.49523869,7.67562841 2.35763238,7.79730893 2.20942032,7.90674098 C1.71907199,8.26887509 1.74867412,8.76852612 1.79311089,9.26564085 C1.79935352,9.3352963 1.90856594,9.40587967 1.98367885,9.46006987 C2.32178762,9.70423511 2.5049047,10.014406 2.50477045,10.4161311 C2.50349507,14.4158138 2.50537457,18.4154965 2.50268957,22.4151792 C2.50235394,22.9495343 2.18116068,23.3648069 1.66684871,23.5305943 C1.16401512,23.6926701 0.583920625,23.5699998 0.289980124,23.155655 C0.123778553,22.9213257 0.0194662583,22.6050305 0.0162442569,22.3243673 C-0.00664537784,20.3557039 0.00409462675,18.3867312 0.00416175178,16.4178822" id="Fill-5" sketch:type="MSShapeGroup"></path>
            </g>
        </g>
    </g>
</svg>