<?xml version="1.0" encoding="UTF-8" standalone="no"?>
<svg width="18px" height="45px" viewBox="0 0 18 45" version="1.1" xmlns="http://www.w3.org/2000/svg" xmlns:xlink="http://www.w3.org/1999/xlink" xmlns:sketch="http://www.bohemiancoding.com/sketch/ns">
    <!-- Generator: Sketch 3.4.4 (17249) - http://www.bohemiancoding.com/sketch -->
    <title>Page 1 Copy 14</title>
    <desc>Created with Sketch.</desc>
    <defs>
        <path id="path-1" d="M0,0.100156681 L17.2980518,0.100156681 L17.2980518,44.3993534 L0,44.3993534"></path>
    </defs>
    <g id="Page-1" stroke="none" stroke-width="1" fill="none" fill-rule="evenodd" sketch:type="MSPage">
        <g id="Desktop-HD-Copy-8" sketch:type="MSArtboardGroup" transform="translate(-929.000000, -479.000000)">
            <g id="Page-1-Copy-14" sketch:type="MSLayerGroup" transform="translate(929.000000, 479.000000)">
                <g id="Group-3">
                    <mask id="mask-2" sketch:name="Clip 2" fill="white">
                        <use xlink:href="#path-1"></use>
                    </mask>
                    <g id="Clip-2"></g>
                    <path d="M13.7778305,14.4283443 C11.8255476,12.6213939 12.1647651,10.1262535 12.1647651,10.1262535 L12.1647651,1.52155552 C12.1647651,-0.285394914 10.8068766,0.144659289 10.8068766,0.144659289 L8.59941664,0.144659289 L8.3447489,0.144659289 L6.13779823,0.144659289 C6.13779823,0.144659289 4.77940048,-0.285394914 4.77940048,1.52155552 L4.77940048,10.1262535 C4.77940048,10.1262535 5.11912725,12.6213939 3.16684433,14.4283443 C1.21405207,16.2352947 1.55377884,18.7304351 1.55377884,18.7304351 C1.55377884,18.7304351 2.9941796,25.0547616 8.47208277,20.8388882 C13.0535555,25.5281827 15.390896,18.7304351 15.390896,18.7304351 C15.390896,18.7304351 15.7301135,16.2352947 13.7778305,14.4283443" id="Fill-1" fill="#71ADCE" sketch:type="MSShapeGroup" mask="url(#mask-2)"></path>
                </g>
                <path d="M15.3989945,22.7210593 C13.3295644,22.4954487 12.6399241,25.8723809 10.4721923,24.2373489 C9.85844304,23.7747696 9.41481183,23.509406 9.08832778,23.3607198 C9.07304771,23.3085764 8.9981754,23.1438857 8.64877125,23.2084197 C8.29987644,23.1438857 8.22500413,23.3085764 8.20972406,23.3607198 C7.88324001,23.509406 7.4396088,23.7747696 6.82585954,24.2373489 C4.6581277,25.8723809 3.96848745,22.4954487 1.89905737,22.7210593 C-0.170372721,22.94667 -1.05712581,26.0442993 1.89905737,28.7118744 C4.85524054,31.3794495 4.98970511,32.7558295 4.98970511,34.3046441 L4.98970511,43.6837494 L5.80922591,44.3993018 L8.20564938,44.3993018 L9.09240246,44.3993018 L11.4888259,44.3993018 L12.3083467,43.6837494 L12.3083467,34.3046441 C12.3083467,32.7558295 12.4428113,31.3794495 15.3989945,28.7118744 C18.3551776,26.0442993 17.4684246,22.94667 15.3989945,22.7210593" id="Fill-4" fill="#71ADCE" sketch:type="MSShapeGroup"></path>
            </g>
        </g>
    </g>
</svg>