<?xml version="1.0" encoding="UTF-8" standalone="no"?>
<svg width="40px" height="40px" viewBox="0 0 40 40" version="1.1" xmlns="http://www.w3.org/2000/svg" xmlns:xlink="http://www.w3.org/1999/xlink" xmlns:sketch="http://www.bohemiancoding.com/sketch/ns">
    <!-- Generator: Sketch 3.4.4 (17249) - http://www.bohemiancoding.com/sketch -->
    <title>Apple Watch 42mm</title>
    <desc>Created with Sketch.</desc>
    <defs>
        <path id="path-1" d="M0,0.0778996407 L13.4540403,0.0778996407 L13.4540403,34.5328304 L0,34.5328304"></path>
    </defs>
    <g id="Page-1" stroke="none" stroke-width="1" fill="none" fill-rule="evenodd" sketch:type="MSPage">
        <g id="Apple-Watch-42mm" sketch:type="MSArtboardGroup">
            <g id="Page-1-Copy-14" sketch:type="MSLayerGroup" transform="translate(14.000000, 3.000000)">
                <g id="Group-3">
                    <mask id="mask-2" sketch:name="Clip 2" fill="white">
                        <use xlink:href="#path-1"></use>
                    </mask>
                    <g id="Clip-2"></g>
                    <path d="M10.7160904,11.2220456 C9.19764815,9.81663968 9.46148393,7.87597492 9.46148393,7.87597492 L9.46148393,1.18343207 C9.46148393,-0.221973822 8.4053485,0.11251278 8.4053485,0.11251278 L6.68843517,0.11251278 L6.49036025,0.11251278 L4.77384307,0.11251278 C4.77384307,0.11251278 3.71731149,-0.221973822 3.71731149,1.18343207 L3.71731149,7.87597492 C3.71731149,7.87597492 3.98154342,9.81663968 2.46310115,11.2220456 C0.94426272,12.6274515 1.20849465,14.5681162 1.20849465,14.5681162 C1.20849465,14.5681162 2.32880635,19.4870368 6.58939771,16.2080241 C10.1527654,19.8552532 11.9706969,14.5681162 11.9706969,14.5681162 C11.9706969,14.5681162 12.2345327,12.6274515 10.7160904,11.2220456" id="Fill-1" fill="#71ADCE" sketch:type="MSShapeGroup" mask="url(#mask-2)"></path>
                </g>
                <path d="M11.9769957,17.671935 C10.367439,17.4964601 9.8310521,20.1229629 8.14503845,18.8512714 C7.66767792,18.4914875 7.32263142,18.2850936 7.06869938,18.1694487 C7.05681489,18.1288927 6.99858086,18.0008 6.72682208,18.0509931 C6.45545946,18.0008 6.39722543,18.1288927 6.38534094,18.1694487 C6.1314089,18.2850936 5.7863624,18.4914875 5.30900187,18.8512714 C3.62298821,20.1229629 3.08660135,17.4964601 1.47704462,17.671935 C-0.132512116,17.84741 -0.82220896,20.2566773 1.47704462,22.3314579 C3.7762982,24.4062385 3.88088175,25.4767563 3.88088175,26.6813899 L3.88088175,33.9762495 L4.51828682,34.5327903 L6.38217174,34.5327903 L7.07186858,34.5327903 L8.9357535,34.5327903 L9.57315857,33.9762495 L9.57315857,26.6813899 C9.57315857,25.4767563 9.67774212,24.4062385 11.9769957,22.3314579 C14.2762493,20.2566773 13.5865524,17.84741 11.9769957,17.671935" id="Fill-4" fill="#71ADCE" sketch:type="MSShapeGroup"></path>
            </g>
        </g>
    </g>
</svg>