<?xml version="1.0" encoding="UTF-8" standalone="no"?>
<svg width="34px" height="43px" viewBox="0 0 34 43" version="1.1" xmlns="http://www.w3.org/2000/svg" xmlns:xlink="http://www.w3.org/1999/xlink" xmlns:sketch="http://www.bohemiancoding.com/sketch/ns">
    <!-- Generator: Sketch 3.4.4 (17249) - http://www.bohemiancoding.com/sketch -->
    <title>Page 1 Copy 14</title>
    <desc>Created with Sketch.</desc>
    <defs>
        <path id="path-1" d="M0,0.398289692 L33.0540787,0.398289692 L33.0540787,42.8857172 L0,42.8857172"></path>
        <path id="path-3" d="M0,0.398289692 L33.0540787,0.398289692 L33.0540787,42.8857172 L0,42.8857172"></path>
    </defs>
    <g id="Page-1" stroke="none" stroke-width="1" fill="none" fill-rule="evenodd" sketch:type="MSPage">
        <g id="Desktop-HD-Copy-8" sketch:type="MSArtboardGroup" transform="translate(-193.000000, -325.000000)">
            <g id="Page-1-Copy-14" sketch:type="MSLayerGroup" transform="translate(193.000000, 325.000000)">
                <g id="Group-3">
                    <mask id="mask-2" sketch:name="Clip 2" fill="white">
                        <use xlink:href="#path-1"></use>
                    </mask>
                    <g id="Clip-2"></g>
                    <path d="M14.1828646,3.53579051 L16.4683893,3.53579051 L16.5855957,3.53579051 L18.8711204,3.53579051 C19.6526526,3.53579051 19.9648905,2.12923023 19.9648905,2.12923023 L18.0506756,2.12923023 L18.0506756,1.10271041 C18.0506756,0.342173275 17.5035562,0.399202154 17.5035562,0.399202154 L16.5855957,0.399202154 L16.4683893,0.399202154 L15.5504288,0.399202154 C15.5504288,0.399202154 15.0033093,0.342173275 15.0033093,1.10271041 L15.0033093,2.12923023 L13.0890945,2.12923023 C13.0890945,2.12923023 13.4013323,3.53579051 14.1828646,3.53579051" id="Fill-1" fill="#71AECF" sketch:type="MSShapeGroup" mask="url(#mask-2)"></path>
                </g>
                <path d="M14.1828646,7.26164687 L16.4683893,7.26164687 L16.5855957,7.26164687 L18.8711204,7.26164687 C19.6526526,7.26164687 19.9648905,5.85508659 19.9648905,5.85508659 L18.0506756,5.85508659 L18.0506756,4.82856677 C18.0506756,4.06802963 17.5035562,4.12505851 17.5035562,4.12505851 L16.5855957,4.12505851 L16.4683893,4.12505851 L15.5504288,4.12505851 C15.5504288,4.12505851 15.0033093,4.06802963 15.0033093,4.82856677 L15.0033093,5.85508659 L13.0890945,5.85508659 C13.0890945,5.85508659 13.4013323,7.26164687 14.1828646,7.26164687" id="Fill-4" fill="#71AECF" sketch:type="MSShapeGroup"></path>
                <path d="M14.1828646,10.6073715 L16.4683893,10.6073715 L16.5855957,10.6073715 L18.8711204,10.6073715 C19.6526526,10.6073715 19.9648905,9.20081126 19.9648905,9.20081126 L18.0506756,9.20081126 L18.0506756,8.17429143 C18.0506756,7.4137543 17.5035562,7.47078318 17.5035562,7.47078318 L16.5855957,7.47078318 L16.4683893,7.47078318 L15.5504288,7.47078318 C15.5504288,7.47078318 15.0033093,7.4137543 15.0033093,8.17429143 L15.0033093,9.20081126 L13.0890945,9.20081126 C13.0890945,9.20081126 13.4013323,10.6073715 14.1828646,10.6073715" id="Fill-6" fill="#71AECF" sketch:type="MSShapeGroup"></path>
                <path d="M14.1828646,14.4092816 L16.4683893,14.4092816 L16.5855957,14.4092816 L18.8711204,14.4092816 C19.6526526,14.4092816 19.9648905,13.0027213 19.9648905,13.0027213 L18.0506756,13.0027213 L18.0506756,11.9762015 C18.0506756,11.2156644 17.5035562,11.2726932 17.5035562,11.2726932 L16.5855957,11.2726932 L16.4683893,11.2726932 L15.5504288,11.2726932 C15.5504288,11.2726932 15.0033093,11.2156644 15.0033093,11.9762015 L15.0033093,13.0027213 L13.0890945,13.0027213 C13.0890945,13.0027213 13.4013323,14.4092816 14.1828646,14.4092816" id="Fill-8" fill="#71AECF" sketch:type="MSShapeGroup"></path>
                <path d="M13.7801903,18.0211258 L16.4684362,18.0211258 L16.5856426,18.0211258 L19.2738884,18.0211258 C20.186223,18.0211258 20.5509693,16.6145656 20.5509693,16.6145656 L18.315609,16.6145656 L18.315609,15.5880457 C18.315609,14.8275086 17.6770685,14.8845375 17.6770685,14.8845375 L16.5856426,14.8845375 L16.4684362,14.8845375 L15.3770102,14.8845375 C15.3770102,14.8845375 14.7380009,14.8275086 14.7380009,15.5880457 L14.7380009,16.6145656 L12.5031094,16.6145656 C12.5031094,16.6145656 12.8678557,18.0211258 13.7801903,18.0211258" id="Fill-10" fill="#71AECF" sketch:type="MSShapeGroup"></path>
                <path d="M18.3158434,19.465827 C18.3158434,18.7052899 17.6773029,18.7623188 17.6773029,18.7623188 L16.5854081,18.7623188 L16.4682018,18.7623188 L15.3767758,18.7623188 C15.3767758,18.7623188 14.7382354,18.7052899 14.7382354,19.465827 L14.7382354,20.4923468 L12.502875,20.4923468 C12.502875,22.6658315 15.9670272,22.737916 16.5080519,22.7360911 L16.526805,22.7360911 L16.5460268,22.7360911 C17.0870515,22.737916 20.5512037,22.6658315 20.5512037,20.4923468 L18.3158434,20.4923468 L18.3158434,19.465827 Z" id="Fill-12" fill="#71AECF" sketch:type="MSShapeGroup"></path>
                <g id="Group-16">
                    <mask id="mask-4" sketch:name="Clip 15" fill="white">
                        <use xlink:href="#path-3"></use>
                    </mask>
                    <g id="Clip-15"></g>
                    <path d="M22.914741,33.5900099 C22.0942963,36.0422517 18.5195012,37.4679736 18.5195012,37.4679736 L18.5195012,36.8976848 L16.5269925,36.8976848 L14.5344838,36.8976848 L14.5344838,37.4679736 C14.5344838,37.4679736 10.9596887,36.0422517 10.1392439,33.5900099 C9.31879918,31.137768 10.0220376,29.8261038 10.3736567,29.8261038 C10.7252759,29.8261038 13.0890945,31.6040362 13.0890945,31.6040362 L13.5968326,31.6040362 C13.5968326,31.6040362 13.714039,36.2133383 16.5269925,36.2703672 C19.339946,36.2133383 19.4571524,31.6040362 19.4571524,31.6040362 L19.9648905,31.6040362 C19.9648905,31.6040362 22.328709,29.8261038 22.6803282,29.8261038 C23.0319474,29.8261038 23.7351858,31.137768 22.914741,33.5900099 M21.8598835,40.7186198 C21.3324547,41.1748508 20.0431843,41.1178219 19.5743588,40.7186198 C19.1055332,40.3194176 18.8125172,39.0077534 19.9648905,38.0382624 C21.1177326,37.0687715 22.3873122,37.0117426 22.3873122,37.0117426 C23.0905506,39.3499267 22.3873122,40.2623887 21.8598835,40.7186198 M13.4796262,40.7186198 C13.0108006,41.1178219 11.7215303,41.1748508 11.1941015,40.7186198 C10.6666727,40.2623887 9.96343435,39.3499267 10.6666727,37.0117426 C10.6666727,37.0117426 11.9362524,37.0687715 13.0890945,38.0382624 C14.2414678,39.0077534 13.9484518,40.3194176 13.4796262,40.7186198 M29.4782991,20.7489312 C29.4782991,20.7489312 24.1454082,19.2187323 23.500773,21.9561185 C22.8561378,24.6935047 21.9770899,24.1802448 21.9770899,24.1802448 L19.339946,24.2372737 L19.2227396,25.7200245 L20.5509224,25.8911112 C20.5509224,25.8911112 20.9808355,27.2027754 19.339946,26.5184288 C17.6990564,25.8340823 18.8711204,24.066187 18.8711204,24.066187 L18.8711204,22.9256094 L16.8786117,22.9256094 L16.5269925,22.7362736 L16.1753733,22.9256094 L14.1828646,22.9256094 L14.1828646,24.066187 C14.1828646,24.066187 15.3549285,25.8340823 13.714039,26.5184288 C12.0731495,27.2027754 12.5030625,25.8911112 12.5030625,25.8911112 L13.8312454,25.7200245 L13.714039,24.2372737 L11.0768951,24.1802448 C11.0768951,24.1802448 10.1978471,24.6935047 9.55321197,21.9561185 C8.9085768,19.2187323 3.57568582,20.7489312 3.57568582,20.7489312 C3.57568582,20.7489312 -0.936760392,23.0360174 0.176700361,26.7159769 C1.29016112,30.3963926 3.04825704,29.1417573 3.92730501,29.5409594 C4.80635297,29.9401616 4.68914657,31.4229124 4.51333698,31.651028 C4.33752739,31.8791435 4.33752739,34.2743564 4.33752739,34.2743564 L6.15422651,34.2743564 L9.31879918,37.4109448 C9.31879918,37.4109448 9.84622796,37.8671758 8.49835442,38.6655801 C7.15048087,39.4639844 10.9596887,42.8857172 10.9596887,42.8857172 L13.0890945,42.8857172 L15.4233771,40.6141428 L16.5269925,40.6141428 L17.6306079,40.6141428 L19.9648905,42.8857172 L22.0942963,42.8857172 C22.0942963,42.8857172 25.9035041,39.4639844 24.5556305,38.6655801 C23.207757,37.8671758 23.7351858,37.4109448 23.7351858,37.4109448 L26.8997585,34.2743564 L28.7164576,34.2743564 C28.7164576,34.2743564 28.7164576,31.8791435 28.540648,31.651028 C28.3648384,31.4229124 28.247632,29.9401616 29.12668,29.5409594 C30.0057279,29.1417573 31.7638238,30.3963926 32.8772846,26.7159769 C33.9907454,23.0360174 29.4782991,20.7489312 29.4782991,20.7489312" id="Fill-14" fill="#71AECF" sketch:type="MSShapeGroup" mask="url(#mask-4)"></path>
                </g>
            </g>
        </g>
    </g>
</svg>