<?xml version="1.0" encoding="UTF-8" standalone="no"?>
<svg width="25px" height="31px" viewBox="0 0 25 31" version="1.1" xmlns="http://www.w3.org/2000/svg" xmlns:xlink="http://www.w3.org/1999/xlink" xmlns:sketch="http://www.bohemiancoding.com/sketch/ns">
    <!-- Generator: Sketch 3.4.4 (17249) - http://www.bohemiancoding.com/sketch -->
    <title>Page 1 Copy 14</title>
    <desc>Created with Sketch.</desc>
    <defs>
        <path id="path-1" d="M0,0.287139081 L24.3044697,0.287139081 L24.3044697,30.9176101 L0,30.9176101"></path>
        <path id="path-3" d="M0,0.287139081 L24.3044697,0.287139081 L24.3044697,30.9176101 L0,30.9176101"></path>
    </defs>
    <g id="Page-1" stroke="none" stroke-width="1" fill="none" fill-rule="evenodd" sketch:type="MSPage">
        <g id="Desktop-HD-Copy-8" sketch:type="MSArtboardGroup" transform="translate(-203.000000, -324.000000)">
            <g id="Page-1-Copy-14" sketch:type="MSLayerGroup" transform="translate(203.000000, 324.000000)">
                <g id="Group-3">
                    <mask id="mask-2" sketch:name="Clip 2" fill="white">
                        <use xlink:href="#path-1"></use>
                    </mask>
                    <g id="Clip-2"></g>
                    <path d="M10.4285769,2.54905828 L12.1091098,2.54905828 L12.1952909,2.54905828 L13.8758238,2.54905828 C14.4504799,2.54905828 14.6800665,1.53502645 14.6800665,1.53502645 L13.2725556,1.53502645 L13.2725556,0.794977271 C13.2725556,0.246683059 12.8702619,0.287796902 12.8702619,0.287796902 L12.1952909,0.287796902 L12.1091098,0.287796902 L11.4341388,0.287796902 C11.4341388,0.287796902 11.0318451,0.246683059 11.0318451,0.794977271 L11.0318451,1.53502645 L9.62433419,1.53502645 C9.62433419,1.53502645 9.85392084,2.54905828 10.4285769,2.54905828" id="Fill-1" fill="#71AECF" sketch:type="MSShapeGroup" mask="url(#mask-2)"></path>
                </g>
                <path d="M10.4285769,5.23514077 L12.1091098,5.23514077 L12.1952909,5.23514077 L13.8758238,5.23514077 C14.4504799,5.23514077 14.6800665,4.22110894 14.6800665,4.22110894 L13.2725556,4.22110894 L13.2725556,3.48105976 C13.2725556,2.93276555 12.8702619,2.97387939 12.8702619,2.97387939 L12.1952909,2.97387939 L12.1091098,2.97387939 L11.4341388,2.97387939 C11.4341388,2.97387939 11.0318451,2.93276555 11.0318451,3.48105976 L11.0318451,4.22110894 L9.62433419,4.22110894 C9.62433419,4.22110894 9.85392084,5.23514077 10.4285769,5.23514077" id="Fill-4" fill="#71AECF" sketch:type="MSShapeGroup"></path>
                <path d="M10.4285769,7.64717483 L12.1091098,7.64717483 L12.1952909,7.64717483 L13.8758238,7.64717483 C14.4504799,7.64717483 14.6800665,6.633143 14.6800665,6.633143 L13.2725556,6.633143 L13.2725556,5.89309382 C13.2725556,5.34479961 12.8702619,5.38591345 12.8702619,5.38591345 L12.1952909,5.38591345 L12.1091098,5.38591345 L11.4341388,5.38591345 C11.4341388,5.38591345 11.0318451,5.34479961 11.0318451,5.89309382 L11.0318451,6.633143 L9.62433419,6.633143 C9.62433419,6.633143 9.85392084,7.64717483 10.4285769,7.64717483" id="Fill-6" fill="#71AECF" sketch:type="MSShapeGroup"></path>
                <path d="M10.4285769,10.3880867 L12.1091098,10.3880867 L12.1952909,10.3880867 L13.8758238,10.3880867 C14.4504799,10.3880867 14.6800665,9.37405491 14.6800665,9.37405491 L13.2725556,9.37405491 L13.2725556,8.63400574 C13.2725556,8.08571152 12.8702619,8.12682537 12.8702619,8.12682537 L12.1952909,8.12682537 L12.1091098,8.12682537 L11.4341388,8.12682537 C11.4341388,8.12682537 11.0318451,8.08571152 11.0318451,8.63400574 L11.0318451,9.37405491 L9.62433419,9.37405491 C9.62433419,9.37405491 9.85392084,10.3880867 10.4285769,10.3880867" id="Fill-8" fill="#71AECF" sketch:type="MSShapeGroup"></path>
                <path d="M10.1324929,12.9919744 L12.1091442,12.9919744 L12.1953254,12.9919744 L14.1719768,12.9919744 C14.842811,12.9919744 15.1110069,11.9779426 15.1110069,11.9779426 L13.4673595,11.9779426 L13.4673595,11.2378934 C13.4673595,10.6895992 12.9978445,10.7307131 12.9978445,10.7307131 L12.1953254,10.7307131 L12.1091442,10.7307131 L11.3066252,10.7307131 C11.3066252,10.7307131 10.8367654,10.6895992 10.8367654,11.2378934 L10.8367654,11.9779426 L9.1934628,11.9779426 C9.1934628,11.9779426 9.46165861,12.9919744 10.1324929,12.9919744" id="Fill-10" fill="#71AECF" sketch:type="MSShapeGroup"></path>
                <path d="M13.4675319,14.0335032 C13.4675319,13.485209 12.9980169,13.5263228 12.9980169,13.5263228 L12.1951531,13.5263228 L12.1089719,13.5263228 L11.3064528,13.5263228 C11.3064528,13.5263228 10.8369378,13.485209 10.8369378,14.0335032 L10.8369378,14.7735524 L9.19329044,14.7735524 C9.19329044,16.3404832 11.7404612,16.3924511 12.1382735,16.3911354 L12.1520625,16.3911354 L12.1661962,16.3911354 C12.5640085,16.3924511 15.1111792,16.3404832 15.1111792,14.7735524 L13.4675319,14.7735524 L13.4675319,14.0335032 Z" id="Fill-12" fill="#71AECF" sketch:type="MSShapeGroup"></path>
                <g id="Group-16">
                    <mask id="mask-4" sketch:name="Clip 15" fill="white">
                        <use xlink:href="#path-3"></use>
                    </mask>
                    <g id="Clip-15"></g>
                    <path d="M16.8490743,24.2160536 C16.2458061,25.9839489 13.6172803,27.011795 13.6172803,27.011795 L13.6172803,26.6006565 L12.1522004,26.6006565 L10.6871204,26.6006565 L10.6871204,27.011795 C10.6871204,27.011795 8.05859464,25.9839489 7.45532643,24.2160536 C6.85205822,22.4481584 7.36914526,21.50254 7.62768878,21.50254 C7.8862323,21.50254 9.62433419,22.7843051 9.62433419,22.7843051 L9.99767103,22.7843051 C9.99767103,22.7843051 10.0838522,26.1072904 12.1522004,26.1484042 C14.2205485,26.1072904 14.3067297,22.7843051 14.3067297,22.7843051 L14.6800665,22.7843051 C14.6800665,22.7843051 16.4181684,21.50254 16.6767119,21.50254 C16.9352555,21.50254 17.4523425,22.4481584 16.8490743,24.2160536 M16.0734437,29.355284 C15.6856284,29.6841948 14.7376355,29.6430809 14.3929108,29.355284 C14.0481862,29.0674871 13.8327332,28.1218687 14.6800665,27.4229334 C15.5277445,26.723998 16.461259,26.6828842 16.461259,26.6828842 C16.978346,28.3685518 16.461259,29.0263733 16.0734437,29.355284 M9.91148986,29.355284 C9.56676517,29.6430809 8.61877227,29.6841948 8.23095699,29.355284 C7.84314171,29.0263733 7.32605467,28.3685518 7.84314171,26.6828842 C7.84314171,26.6828842 8.77665617,26.723998 9.62433419,27.4229334 C10.4716675,28.1218687 10.2562146,29.0674871 9.91148986,29.355284 M21.67522,14.9585318 C21.67522,14.9585318 17.7539766,13.8553651 17.2799801,15.8288296 C16.8059837,17.8022941 16.1596249,17.4322695 16.1596249,17.4322695 L14.2205485,17.4733833 L14.1343673,18.5423433 L15.1109724,18.6656848 C15.1109724,18.6656848 15.4270849,19.6113032 14.2205485,19.1179371 C13.0140121,18.6245709 13.8758238,17.3500418 13.8758238,17.3500418 L13.8758238,16.5277649 L12.4107439,16.5277649 L12.1522004,16.391267 L11.8936568,16.5277649 L10.4285769,16.5277649 L10.4285769,17.3500418 C10.4285769,17.3500418 11.2903886,18.6245709 10.0838522,19.1179371 C8.87731578,19.6113032 9.19342833,18.6656848 9.19342833,18.6656848 L10.1700334,18.5423433 L10.0838522,17.4733833 L8.14477582,17.4322695 C8.14477582,17.4322695 7.49841702,17.8022941 7.02442057,15.8288296 C6.55042412,13.8553651 2.62918075,14.9585318 2.62918075,14.9585318 C2.62918075,14.9585318 -0.688794406,16.6073613 0.129926736,19.2603554 C0.948647879,21.9136784 2.24136547,21.0091739 2.88772427,21.2969708 C3.53408307,21.5847677 3.44790189,22.6537276 3.31863013,22.8181829 C3.18935837,22.9826383 3.18935837,24.7094197 3.18935837,24.7094197 L4.52516655,24.7094197 L6.85205822,26.9706811 C6.85205822,26.9706811 7.2398735,27.2995919 6.24879001,27.8751857 C5.25770652,28.4507795 8.05859464,30.9176101 8.05859464,30.9176101 L9.62433419,30.9176101 L11.3407184,29.2799634 L12.1522004,29.2799634 L12.9636823,29.2799634 L14.6800665,30.9176101 L16.2458061,30.9176101 C16.2458061,30.9176101 19.0466942,28.4507795 18.0556107,27.8751857 C17.0645272,27.2995919 17.4523425,26.9706811 17.4523425,26.9706811 L19.7792342,24.7094197 L21.1150423,24.7094197 C21.1150423,24.7094197 21.1150423,22.9826383 20.9857706,22.8181829 C20.8564988,22.6537276 20.7703176,21.5847677 21.4166764,21.2969708 C22.0630352,21.0091739 23.3557528,21.9136784 24.174474,19.2603554 C24.9931951,16.6073613 21.67522,14.9585318 21.67522,14.9585318" id="Fill-14" fill="#71AECF" sketch:type="MSShapeGroup" mask="url(#mask-4)"></path>
                </g>
            </g>
        </g>
    </g>
</svg>