<?xml version="1.0" encoding="UTF-8" standalone="no"?>
<svg width="34px" height="34px" viewBox="0 0 34 34" version="1.1" xmlns="http://www.w3.org/2000/svg" xmlns:xlink="http://www.w3.org/1999/xlink" xmlns:sketch="http://www.bohemiancoding.com/sketch/ns">
    <!-- Generator: Sketch 3.4.4 (17249) - http://www.bohemiancoding.com/sketch -->
    <title>Page 1 Copy 26</title>
    <desc>Created with Sketch.</desc>
    <defs>
        <path id="path-1" d="M0,0.0132198945 L33.6139631,0.0132198945 L33.6139631,33.9940144 L0,33.9940144"></path>
        <path id="path-3" d="M0,0.0132198945 L33.6139631,0.0132198945 L33.6139631,33.9940144 L0,33.9940144"></path>
    </defs>
    <g id="Page-1" stroke="none" stroke-width="1" fill="none" fill-rule="evenodd" sketch:type="MSPage">
        <g id="Desktop-HD-Copy-8" sketch:type="MSArtboardGroup" transform="translate(-191.000000, -540.000000)">
            <g id="Page-1-Copy-26" sketch:type="MSLayerGroup" transform="translate(191.000000, 540.000000)">
                <g id="Group-3">
                    <mask id="mask-2" sketch:name="Clip 2" fill="white">
                        <use xlink:href="#path-1"></use>
                    </mask>
                    <g id="Clip-2"></g>
                    <path d="M6.5124516,15.8887835 C5.83797304,18.0075548 6.14297772,20.1140506 6.09217761,22.2016608 C6.08075268,22.6690785 5.98200869,22.9415972 5.4727835,23.1765336 C3.59542364,24.0430032 2.65409149,26.0766007 3.17106931,27.9662902 C3.68621098,29.8484255 5.49053294,31.1609721 7.58129406,31.174192 C9.72775169,31.1877896 11.5353379,29.9007385 12.0721053,27.9761107 C12.5919394,26.1126721 11.6928387,24.1094804 9.84852946,23.2201592 C9.3050295,22.9582165 9.1418163,22.6700228 9.15997377,22.1357502 C9.20954978,20.6974256 9.17017459,19.2562683 9.23484782,17.818888 C9.25586152,17.3493929 9.48864435,16.8882075 9.65920215,16.3044547 C11.8489113,17.8900866 14.1926529,18.6751595 16.7926392,18.6749706 C19.3930335,18.6745929 21.7463639,17.914449 23.8375331,16.3754644 C24.6468665,17.4679943 24.4063311,18.6239796 24.4165319,19.5355858 C23.1493854,20.0256661 21.9183498,20.3199032 20.9113244,20.9306624 C19.0472256,22.0617188 18.2995051,23.8125994 18.3192947,25.8575282 C18.3272513,26.670174 18.3515293,27.4422158 17.8010928,28.2087808 C17.2141373,29.0259592 17.6480804,30.1738237 18.533512,30.7755178 C19.398542,31.3632365 20.6261093,31.2897717 21.4174893,30.6029037 C22.2288629,29.8986611 22.3702464,28.8374813 21.8379673,27.9525037 C21.0578082,26.6552544 21.2112286,25.3073917 21.8914196,24.0552788 C22.4820474,22.9676592 23.8750721,22.4807894 25.0879502,22.7383885 C26.395696,23.0161951 27.3710989,24.0388484 27.4665786,25.2826516 C27.5135024,25.8934107 27.532884,26.5117241 27.4816758,27.1207835 C27.4582139,27.3985902 27.260522,27.6767745 27.0956766,27.9290856 C26.5156577,28.8174626 26.6853994,29.9311442 27.5288037,30.6316098 C28.3599669,31.322066 29.6287455,31.35606 30.4786783,30.7107403 C31.3467685,30.0516341 31.6711547,28.8601439 31.0360514,28.0429656 C30.5808905,27.4575131 30.5835428,26.8701721 30.5974159,26.2431714 C30.6247541,25.0224086 30.5256021,23.8044786 29.7884904,22.7693608 C29.2937504,22.0745609 28.5754083,21.5185699 27.9843725,20.8789159 C27.7903528,20.6690973 27.5738913,20.3990337 27.5526736,20.1435121 C27.4369962,18.7442807 27.3786475,17.3408944 27.297653,15.8836843 C28.2730559,16.0289143 29.1486947,16.5520444 29.955784,17.1964199 C31.6415723,18.542394 32.3778679,20.3748602 32.9113711,22.286457 C33.5077113,24.4237362 33.7074435,26.6067185 33.5748327,28.8119857 C33.4061111,31.6159254 31.4426563,33.5600053 28.4293325,33.9014563 C27.9247997,33.9584907 27.4135343,33.9890853 26.9051252,33.989463 C20.1731926,33.9951287 13.4412601,33.9951287 6.70912351,33.9915404 C5.45095374,33.990785 4.22073422,33.8514095 3.07579361,33.310527 C1.29697371,32.4703083 0.248532904,31.0977055 0.0889919987,29.300933 C-0.206831931,25.9691419 0.209565752,22.7040168 1.72418427,19.6217039 C2.52494905,17.9924464 3.80127629,16.7835815 5.59580545,16.0729177 C5.78248055,15.9988863 5.97854041,15.9441182 6.17378421,15.8918051 C6.24314982,15.8732973 6.32292027,15.8887835 6.5124516,15.8887835" id="Fill-1" fill="#71ADCE" sketch:type="MSShapeGroup" mask="url(#mask-2)"></path>
                </g>
                <g id="Group-6">
                    <mask id="mask-4" sketch:name="Clip 5" fill="white">
                        <use xlink:href="#path-3"></use>
                    </mask>
                    <g id="Clip-5"></g>
                    <path d="M7.64307026,8.49748378 C7.69897078,3.70168377 11.7923579,-0.0444566166 16.9127641,0.0137109191 C21.9844104,0.0715007436 25.998027,3.85409027 25.9721169,8.55149649 C25.9460028,13.2613672 21.8209931,17.0347028 16.7403702,16.9959874 C11.6781087,16.957272 7.58900589,13.137289 7.64307026,8.49748378" id="Fill-4" fill="#71ADCE" sketch:type="MSShapeGroup" mask="url(#mask-4)"></path>
                </g>
                <path d="M7.60598006,28.3205645 C6.80501127,28.3075335 6.1168636,27.6342631 6.13440902,26.8805403 C6.15175043,26.1290837 6.88661787,25.4843306 7.68473043,25.5198354 C8.47162208,25.5549626 9.11855842,26.1876289 9.1146821,26.9179337 C9.11080579,27.6771333 8.40470467,28.3334067 7.60598006,28.3205645" id="Fill-7" fill="#71ADCE" sketch:type="MSShapeGroup"></path>
            </g>
        </g>
    </g>
</svg>