<?xml version="1.0" encoding="UTF-8" standalone="no"?>
<svg width="40px" height="40px" viewBox="0 0 40 40" version="1.1" xmlns="http://www.w3.org/2000/svg" xmlns:xlink="http://www.w3.org/1999/xlink" xmlns:sketch="http://www.bohemiancoding.com/sketch/ns">
    <!-- Generator: Sketch 3.4.4 (17249) - http://www.bohemiancoding.com/sketch -->
    <title>Apple Watch 42mm</title>
    <desc>Created with Sketch.</desc>
    <defs>
        <path id="path-1" d="M0,0.00972051066 L24.7161493,0.00972051066 L24.7161493,24.9955988 L0,24.9955988"></path>
        <path id="path-3" d="M0,0.00972051066 L24.7161493,0.00972051066 L24.7161493,24.9955988 L0,24.9955988"></path>
    </defs>
    <g id="Page-1" stroke="none" stroke-width="1" fill="none" fill-rule="evenodd" sketch:type="MSPage">
        <g id="Apple-Watch-42mm" sketch:type="MSArtboardGroup">
            <g id="Page-1-Copy-26" sketch:type="MSLayerGroup" transform="translate(8.000000, 8.000000)">
                <g id="Group-3">
                    <mask id="mask-2" sketch:name="Clip 2" fill="white">
                        <use xlink:href="#path-1"></use>
                    </mask>
                    <g id="Clip-2"></g>
                    <path d="M4.78856736,11.682929 C4.29262724,13.2408491 4.51689538,14.7897431 4.47954236,16.3247506 C4.47114168,16.6684401 4.39853581,16.8688214 4.02410552,17.0415688 C2.64369385,17.6786788 1.95153786,19.1739711 2.33166861,20.5634487 C2.71044925,21.9473717 4.03715657,22.9124795 5.57448093,22.9222 C7.1527586,22.9321983 8.48186611,21.9858371 8.87654804,20.5706696 C9.25877896,19.2004942 8.59767548,17.7275591 7.24156578,17.0736465 C6.84193346,16.8810415 6.72192375,16.6691344 6.73527483,16.2762869 C6.77172778,15.2186953 6.74277543,14.1590208 6.79032928,13.1021236 C6.80578053,12.7569066 6.97694438,12.4177996 7.10235452,11.9885696 C8.71243476,13.1544755 10.4357742,13.7317349 12.3475288,13.7315961 C14.2595835,13.7313183 15.9899735,13.172389 17.5275978,12.0407827 C18.122696,12.8441134 17.9458317,13.6941027 17.9533323,14.3644013 C17.0216069,14.7247545 16.1164337,14.9411053 15.3759738,15.3901929 C14.0053129,16.221852 13.4555184,17.5092642 13.4700696,19.0128884 C13.4759201,19.610422 13.4937715,20.1780999 13.0890388,20.7417506 C12.6574539,21.342617 12.9765297,22.1866351 13.6275824,22.6290572 C14.2636338,23.0612033 15.1662568,23.0071851 15.7481539,22.5021351 C16.3447522,21.9843096 16.4487106,21.2040303 16.0573289,20.5533116 C15.4836825,19.5994518 15.5964916,18.6083763 16.0966321,17.687705 C16.5309172,16.8879847 17.5552001,16.5299922 18.4470222,16.7194033 C19.4086,16.9236729 20.125808,17.6756238 20.1960137,18.590185 C20.2305165,19.0392726 20.2447676,19.4939148 20.2071146,19.9417526 C20.1898632,20.1460222 20.0445014,20.3505695 19.9232916,20.5360924 C19.4968071,21.1893107 19.6216172,22.0081943 20.2417674,22.5232425 C20.8529168,23.0309309 21.7858423,23.0559265 22.4107928,22.5814267 C23.0490945,22.0967898 23.2876138,21.2206941 22.820626,20.6198276 C22.4859489,20.1893479 22.4878991,19.7574795 22.4980999,19.2964495 C22.5182015,18.3988298 22.4452956,17.5032931 21.9033018,16.7421771 C21.5395224,16.2312948 21.0113296,15.8224779 20.5767445,15.3521441 C20.4340829,15.1978657 20.2749201,14.9992895 20.2593188,14.8114059 C20.1742619,13.7825593 20.1313585,12.7506577 20.0718036,11.6791797 C20.7890117,11.7859664 21.4328637,12.1706209 22.0263117,12.6444264 C23.265862,13.6341132 23.8072558,14.9815149 24.1995375,16.3871007 C24.638023,17.9586296 24.7848849,19.5637636 24.687377,21.1852836 C24.563317,23.2470039 23.1196002,24.6764745 20.903921,24.9275414 C20.5329409,24.9694784 20.1570105,24.9919745 19.7831803,24.9922522 C14.8332299,24.9964181 9.88327948,24.9964181 4.93317905,24.9937797 C4.00805422,24.9932243 3.10348105,24.8907423 2.26161295,24.4930345 C0.953657143,23.8752267 0.182744783,22.8659599 0.0654352932,21.5448037 C-0.152082302,19.0949572 0.154092465,16.69413 1.26778255,14.4277235 C1.85658018,13.22974 2.7950561,12.3408687 4.11456283,11.8183218 C4.25182394,11.763887 4.3959856,11.7236163 4.53954721,11.6851508 C4.59055134,11.6715421 4.64920608,11.682929 4.78856736,11.682929" id="Fill-1" fill="#71ADCE" sketch:type="MSShapeGroup" mask="url(#mask-2)"></path>
                </g>
                <g id="Group-6">
                    <mask id="mask-4" sketch:name="Clip 5" fill="white">
                        <use xlink:href="#path-3"></use>
                    </mask>
                    <g id="Clip-5"></g>
                    <path d="M5.6199046,6.24814984 C5.66100793,2.7218263 8.6708514,-0.0326886887 12.435856,0.0100815582 C16.1650076,0.0525740762 19.1161963,2.8338899 19.0971448,6.28786507 C19.0779432,9.75100529 16.0448479,12.5255168 12.3090957,12.4970495 C8.5868446,12.4685823 5.58015139,9.65977135 5.6199046,6.24814984" id="Fill-4" fill="#71ADCE" sketch:type="MSShapeGroup" mask="url(#mask-4)"></path>
                </g>
                <path d="M5.5926324,20.8239445 C5.00368476,20.8143628 4.49769383,20.3193111 4.51059487,19.7651031 C4.5233459,19.2125615 5.06368961,18.7384783 5.65053708,18.7645849 C6.22913389,18.7904136 6.70482236,19.2556095 6.70197213,19.7925983 C6.6991219,20.3508333 6.17992991,20.8333873 5.5926324,20.8239445" id="Fill-7" fill="#71ADCE" sketch:type="MSShapeGroup"></path>
            </g>
        </g>
    </g>
</svg>