<?xml version="1.0" encoding="UTF-8" standalone="no"?>
<svg width="40px" height="40px" viewBox="0 0 40 40" version="1.1" xmlns="http://www.w3.org/2000/svg" xmlns:xlink="http://www.w3.org/1999/xlink" xmlns:sketch="http://www.bohemiancoding.com/sketch/ns">
    <!-- Generator: Sketch 3.4.4 (17249) - http://www.bohemiancoding.com/sketch -->
    <title>Apple Watch 42mm</title>
    <desc>Created with Sketch.</desc>
    <defs>
        <path id="path-1" d="M0,0 L24.8521937,0 L24.8521937,33.9283708 L0,33.9283708"></path>
    </defs>
    <g id="Page-1" stroke="none" stroke-width="1" fill="none" fill-rule="evenodd" sketch:type="MSPage">
        <g id="Apple-Watch-42mm" sketch:type="MSArtboardGroup">
            <g id="Page-1-Copy-15" sketch:type="MSLayerGroup" transform="translate(8.000000, 3.000000)">
                <path d="M19.9338492,33.6830952 L3.28994661,33.6830952 C3.26285444,33.6244105 3.2251794,33.5809485 3.22581437,33.5381484 C3.2755539,30.1214182 3.49948758,26.7305005 4.68159495,23.4937957 C4.90235377,22.8895196 5.16290421,22.2975982 5.45266338,21.7261944 C5.53330491,21.5673485 5.78433075,21.4089439 5.95788994,21.408282 C9.6959738,21.3904119 13.4342693,21.3996779 17.1723532,21.3871026 C17.4906861,21.3859995 17.6185273,21.5417567 17.7434052,21.7961307 C18.7430638,23.8324462 19.3213122,26.0006921 19.5554055,28.2640249 C19.7209217,29.8670443 19.8117228,31.4784472 19.9319442,33.0863202 C19.9454903,33.2650218 19.9338492,33.4457089 19.9338492,33.6830952" id="Fill-1" fill="#71ADCE" sketch:type="MSShapeGroup"></path>
                <g id="Group-5">
                    <mask id="mask-2" sketch:name="Clip 4" fill="white">
                        <use xlink:href="#path-1"></use>
                    </mask>
                    <g id="Clip-4"></g>
                    <path d="M21.2051307,11.9155511 L1.61283853,11.9155511 L1.61283853,18.9859564 L21.1795201,18.9859564 C21.1913729,18.87322 21.204284,18.8083579 21.204284,18.7437165 C21.2053423,16.4958271 21.2051307,14.2479377 21.2051307,11.9155511 M21.2070356,10.3416534 L21.2070356,7.40322581 L24.8522018,7.40322581 L24.8522018,23.4978405 L21.2301063,23.4978405 L21.2301063,20.5272024 C21.0017278,20.5272024 20.8182207,20.5269818 20.6347136,20.5272024 C14.4835221,20.5280849 8.33233055,20.529188 2.18113904,20.5298499 C0.737846252,20.5300705 0.005511153,19.7636392 0.00466452283,18.2568098 C0.00381789266,16.3916948 -0.000203600662,14.5265798 8.05688129e-06,12.6614647 C0.000219714424,11.1427219 0.727051717,10.3443009 2.2012465,10.3392266 C4.98073336,10.32974 7.76043187,10.3663628 10.5401304,10.3725401 C14.0229553,10.3802618 17.5059918,10.3769525 20.9890283,10.3771731 C21.0353813,10.3771731 21.0817343,10.3626123 21.2070356,10.3416534" id="Fill-3" fill="#71ADCE" sketch:type="MSShapeGroup" mask="url(#mask-2)"></path>
                </g>
                <path d="M16.7827022,5.00856485 C16.7702144,7.73784545 14.6058043,9.9815431 12.0178676,9.94778836 C9.38527105,9.91359238 7.21387631,7.65776067 7.25874771,4.93002441 C7.30827558,1.9035697 9.78551546,-0.0837684017 12.1939666,0.00271433966 C14.7266608,0.0933888466 16.79519,2.28104921 16.7827022,5.00856485" id="Fill-6" fill="#71ADCE" sketch:type="MSShapeGroup"></path>
                <path d="M4.03225806,25.1863807 L4.03225806,21.3870968 L5.41353519,21.3870968 C4.94556036,22.6741894 4.48478189,23.9414263 4.03225806,25.1863807" id="Fill-8" fill="#71ADCE" sketch:type="MSShapeGroup"></path>
                <path d="M19.9394005,25.1908952 C19.4773521,23.9293944 19.0269448,22.6992215 18.5483871,21.3922731 C18.9412235,21.3922731 19.3158573,21.374403 19.6864697,21.4050691 C19.7770591,21.4125701 19.9271243,21.5780345 19.9286059,21.6726802 C19.9453269,22.8346817 19.9394005,23.9969039 19.9394005,25.1908952" id="Fill-10" fill="#71ADCE" sketch:type="MSShapeGroup"></path>
                <path d="M14.4654864,18.1155936 C13.1544795,18.1065482 12.0881488,16.991318 12.0968268,15.6382602 C12.1059281,14.2238703 13.1731054,13.1507783 14.5598856,13.161368 C15.8234811,13.1712959 16.8887536,14.3026313 16.8900235,15.6358334 C16.8915051,17.011615 15.8029504,18.124639 14.4654864,18.1155936" id="Fill-12" fill="#71ADCE" sketch:type="MSShapeGroup"></path>
                <path d="M8.83403049,13.1613023 C10.1742461,13.1571105 11.219411,14.2575593 11.2124263,15.6653306 C11.2054416,17.0402297 10.160065,18.1164103 8.83085563,18.1172928 C7.50968925,18.1181753 6.45097822,17.0261101 6.45161319,15.663345 C6.45224816,14.2485139 7.48344371,13.165494 8.83403049,13.1613023" id="Fill-14" fill="#71ADCE" sketch:type="MSShapeGroup"></path>
            </g>
        </g>
    </g>
</svg>