<?xml version="1.0" encoding="UTF-8" standalone="no"?>
<svg width="24px" height="32px" viewBox="0 0 24 32" version="1.1" xmlns="http://www.w3.org/2000/svg" xmlns:xlink="http://www.w3.org/1999/xlink" xmlns:sketch="http://www.bohemiancoding.com/sketch/ns">
    <!-- Generator: Sketch 3.4.4 (17249) - http://www.bohemiancoding.com/sketch -->
    <title>Page 1 Copy 15</title>
    <desc>Created with Sketch.</desc>
    <defs>
        <path id="path-1" d="M0,0 L23.858106,0 L23.858106,31.9325843 L0,31.9325843"></path>
    </defs>
    <g id="Page-1" stroke="none" stroke-width="1" fill="none" fill-rule="evenodd" sketch:type="MSPage">
        <g id="Desktop-HD-Copy-8" sketch:type="MSArtboardGroup" transform="translate(-197.000000, -383.000000)">
            <g id="Page-1-Copy-15" sketch:type="MSLayerGroup" transform="translate(197.000000, 383.000000)">
                <path d="M19.1364952,31.7017367 L3.15834874,31.7017367 C3.13234027,31.646504 3.09617222,31.6055986 3.0967818,31.5653161 C3.14453174,28.3495701 3.35950807,25.1581182 4.49433116,22.1118077 C4.70625962,21.5430773 4.95638804,20.9859748 5.23455685,20.4481829 C5.31197271,20.298681 5.55295752,20.1495943 5.71957434,20.1489713 C9.30813485,20.1321524 12.8968986,20.1408733 16.4854591,20.1290377 C16.7910587,20.1279995 16.9137862,20.2745945 17.033669,20.5140053 C17.9933413,22.4305376 18.5484597,24.4712396 18.7731893,26.6014352 C18.9320848,28.1101593 19.0192538,29.6267738 19.1346665,31.140066 C19.1476707,31.3082558 19.1364952,31.4783143 19.1364952,31.7017367" id="Fill-1" fill="#71ADCE" sketch:type="MSShapeGroup"></path>
                <g id="Group-5">
                    <mask id="mask-2" sketch:name="Clip 4" fill="white">
                        <use xlink:href="#path-1"></use>
                    </mask>
                    <g id="Clip-4"></g>
                    <path d="M20.3569254,11.2146363 L1.54832499,11.2146363 L1.54832499,17.8691355 L20.3323393,17.8691355 C20.343718,17.7630306 20.3561127,17.7019839 20.3561127,17.6411449 C20.3571286,15.5254843 20.3569254,13.4098237 20.3569254,11.2146363 M20.3587542,9.73332088 L20.3587542,6.96774194 L23.8581137,6.96774194 L23.8581137,22.1156146 L20.380902,22.1156146 L20.380902,19.3197199 C20.1616587,19.3197199 19.9854918,19.3195123 19.809325,19.3197199 C13.9041812,19.3205505 7.99903733,19.3215887 2.09389348,19.3222116 C0.708332402,19.3224193 0.00529070688,18.6010722 0.00447794191,17.1828799 C0.00366517695,15.4274775 -0.000195456635,13.6720751 7.73460604e-06,11.9166727 C0.000210925847,10.4872677 0.697969648,9.73581258 2.11319664,9.73103683 C4.78150402,9.72210824 7.4500146,9.75657675 10.1185252,9.76239071 C13.462037,9.76965817 16.8057521,9.76654355 20.1494672,9.76675119 C20.1939661,9.76675119 20.2384649,9.75304684 20.3587542,9.73332088" id="Fill-3" fill="#71ADCE" sketch:type="MSShapeGroup" mask="url(#mask-2)"></path>
                </g>
                <path d="M16.1113941,4.71394339 C16.0994058,7.28267807 14.0215722,9.39439351 11.5371529,9.36262434 C9.0098602,9.33043988 6.92532126,7.20730416 6.9683978,4.64002297 C7.01594455,1.79159501 9.39409484,-0.0788408487 11.706208,0.00255467262 C14.1375944,0.087895385 16.1233824,2.14686985 16.1113941,4.71394339" id="Fill-6" fill="#71ADCE" sketch:type="MSShapeGroup"></path>
                <path d="M3.87096774,23.7048289 L3.87096774,20.1290323 L5.19699378,20.1290323 C4.74773795,21.3404136 4.30539062,22.5331071 3.87096774,23.7048289" id="Fill-8" fill="#71ADCE" sketch:type="MSShapeGroup"></path>
                <path d="M19.1418245,23.7090778 C18.698258,22.521783 18.265867,21.3639732 17.8064516,20.1339041 C18.1835746,20.1339041 18.5432231,20.1170852 18.8990109,20.1459474 C18.9859768,20.1530072 19.1300394,20.3087384 19.1314617,20.3978167 C19.1475138,21.4914652 19.1418245,22.5853213 19.1418245,23.7090778" id="Fill-10" fill="#71ADCE" sketch:type="MSShapeGroup"></path>
                <path d="M13.8868669,17.0499705 C12.6283003,17.0414572 11.6046229,15.9918287 11.6129537,14.7183625 C11.6216909,13.387172 12.6461812,12.3772031 13.9774902,12.3871699 C15.1905419,12.3965138 16.2132034,13.4613001 16.2144226,14.7160785 C16.2158449,16.0109317 15.1708324,17.0584838 13.8868669,17.0499705" id="Fill-12" fill="#71ADCE" sketch:type="MSShapeGroup"></path>
                <path d="M8.48066927,12.387108 C9.76727621,12.3831628 10.7706346,13.4188793 10.7639293,14.7438406 C10.7572239,16.0378633 9.7536624,17.0507392 8.4776214,17.0515697 C7.20930168,17.0524003 6.19293909,16.0245742 6.19354866,14.7419718 C6.19415823,13.410366 7.18410596,12.3910532 8.48066927,12.387108" id="Fill-14" fill="#71ADCE" sketch:type="MSShapeGroup"></path>
            </g>
        </g>
    </g>
</svg>