<?xml version="1.0" encoding="UTF-8" standalone="no"?>
<svg width="40px" height="40px" viewBox="0 0 40 40" version="1.1" xmlns="http://www.w3.org/2000/svg" xmlns:xlink="http://www.w3.org/1999/xlink" xmlns:sketch="http://www.bohemiancoding.com/sketch/ns">
    <!-- Generator: Sketch 3.4.4 (17249) - http://www.bohemiancoding.com/sketch -->
    <title>Apple Watch 42mm</title>
    <desc>Created with Sketch.</desc>
    <defs>
        <path id="path-1" d="M0,0.199037743 L18.6596449,0.199037743 L18.6596449,38.9207468 L0,38.9207468"></path>
        <path id="path-3" d="M0,0.199037743 L18.6596449,0.199037743 L18.6596449,38.9207468 L0,38.9207468"></path>
    </defs>
    <g id="Page-1" stroke="none" stroke-width="1" fill="none" fill-rule="evenodd" sketch:type="MSPage">
        <g id="Apple-Watch-42mm" sketch:type="MSArtboardGroup">
            <g id="Page-1-Copy-24" sketch:type="MSLayerGroup" transform="translate(11.000000, 1.000000)">
                <g id="Group-3">
                    <mask id="mask-2" sketch:name="Clip 2" fill="white">
                        <use xlink:href="#path-1"></use>
                    </mask>
                    <g id="Clip-2"></g>
                    <path d="M13.0051379,22.1306815 C13.0067679,22.1218135 13.0089411,22.1124528 13.0105711,22.1035848 C13.3142847,22.1035848 13.6196283,22.1252621 13.9206254,22.0996434 C14.958359,22.0109632 15.5369905,21.4015333 15.4772257,20.4827081 C15.4212642,19.6234957 14.8192701,19.1682707 13.7598038,19.1840361 C13.5647534,19.1864994 13.3691596,19.1943821 13.1741092,19.1904408 C10.735707,19.141174 9.33177839,18.1346539 8.8091084,15.9743061 C8.63905049,15.2712694 8.61514458,14.5357165 8.57059267,13.8124804 C8.51463112,12.8961185 7.96533864,12.355662 7.0069292,12.3389113 C6.04417324,12.3221606 5.38458761,12.8320717 5.34927207,13.7252782 C5.32101964,14.4485143 5.35416191,15.1830818 5.46282512,15.8999133 C5.96593574,19.2244348 7.78441441,21.1675162 11.016058,21.8523242 C11.6674939,21.9902712 12.3417491,22.0400306 13.0051379,22.1306815 M14.2308588,27.1012057 C14.5340292,28.722575 14.8306797,30.3084723 15.1403698,31.9653137 L9.91258321,31.9653137 L9.91258321,33.720196 C9.91203989,34.8030796 9.92453616,35.8864558 9.90715005,36.9693394 C9.89085056,37.9901468 8.9009288,38.8661099 7.7398625,38.9188254 C6.6401909,38.9680921 5.58507122,38.1478004 5.53562946,37.0979256 C5.48129786,35.9386786 5.53834604,34.7754902 5.54486583,33.6142725 C5.54758241,33.1038687 5.54486583,32.5929723 5.54486583,31.9825571 L2.80818311,31.9825571 L-0.000217326402,31.9825571 C0.174730428,30.9100196 0.330118805,29.9217282 0.498003451,28.9349148 C1.48086211,23.1588789 2.46915392,17.3833357 3.44983931,11.6068072 C3.71334758,10.0539186 4.5016991,9.42084066 6.23379053,9.41147997 C7.08082018,9.40655329 7.92784983,9.40113395 8.77487949,9.41295797 C10.1244764,9.43217201 10.8688194,9.97016512 11.1768796,11.1624209 C11.3148818,11.6969653 11.4056156,12.2413631 11.5164521,12.7754149 C13.6467941,12.8764118 14.705717,14.4603384 13.5500839,16.0861417 C15.1610158,16.4024344 16.4905101,17.1187732 17.4684789,18.3253163 C18.2226015,19.2554729 18.6556244,20.2994357 18.6594276,21.4557268 C18.6697506,24.2570352 17.0865278,26.0601989 14.2308588,27.1012057" id="Fill-1" fill="#71ADCE" sketch:type="MSShapeGroup" mask="url(#mask-2)"></path>
                </g>
                <g id="Group-6">
                    <mask id="mask-4" sketch:name="Clip 5" fill="white">
                        <use xlink:href="#path-3"></use>
                    </mask>
                    <g id="Clip-5"></g>
                    <path d="M7.30803494,8.38121332 C4.82399416,8.3708673 2.79796877,6.5125248 2.82078804,4.26645285 C2.84415063,2.02284423 4.91418461,0.174355092 7.37540612,0.198988476 C9.86596669,0.224114528 11.8588498,2.06373565 11.8468969,4.32754364 C11.8354872,6.58938096 9.81706825,8.39205201 7.30803494,8.38121332" id="Fill-4" fill="#71ADCE" sketch:type="MSShapeGroup" mask="url(#mask-4)"></path>
                </g>
            </g>
        </g>
    </g>
</svg>