<?xml version="1.0" encoding="UTF-8" standalone="no"?>
<svg width="16px" height="33px" viewBox="0 0 16 33" version="1.1" xmlns="http://www.w3.org/2000/svg" xmlns:xlink="http://www.w3.org/1999/xlink" xmlns:sketch="http://www.bohemiancoding.com/sketch/ns">
    <!-- Generator: Sketch 3.4.4 (17249) - http://www.bohemiancoding.com/sketch -->
    <title>Page 1 Copy 24</title>
    <desc>Created with Sketch.</desc>
    <defs>
        <path id="path-1" d="M0,0.168416552 L15.7133852,0.168416552 L15.7133852,32.9329396 L0,32.9329396"></path>
        <path id="path-3" d="M0,0.168416552 L15.7133852,0.168416552 L15.7133852,32.9329396 L0,32.9329396"></path>
    </defs>
    <g id="Page-1" stroke="none" stroke-width="1" fill="none" fill-rule="evenodd" sketch:type="MSPage">
        <g id="Desktop-HD-Copy-8" sketch:type="MSArtboardGroup" transform="translate(-444.000000, -488.000000)">
            <g id="Page-1-Copy-24" sketch:type="MSLayerGroup" transform="translate(444.000000, 488.000000)">
                <g id="Group-3">
                    <mask id="mask-2" sketch:name="Clip 2" fill="white">
                        <use xlink:href="#path-1"></use>
                    </mask>
                    <g id="Clip-2"></g>
                    <path d="M10.9516951,18.7259613 C10.9530677,18.7184575 10.9548978,18.710537 10.9562704,18.7030333 C11.2120292,18.7030333 11.4691607,18.7213757 11.7226319,18.6996983 C12.5965128,18.6246612 13.0837815,18.1089897 13.0334533,17.3315222 C12.9863277,16.6044963 12.4793853,16.219306 11.5872032,16.2326459 C11.4229502,16.2347303 11.2582397,16.2414002 11.0939867,16.2380653 C9.04059533,16.196378 7.8583397,15.3447072 7.41819654,13.5167206 C7.27498988,12.9218433 7.2548586,12.2994524 7.2173412,11.6874834 C7.17021568,10.9121002 6.70765359,10.4547909 5.90057196,10.4406173 C5.0898301,10.4264436 4.53438957,10.8579068 4.50465016,11.6136969 C4.48085864,12.225666 4.50876793,12.8472231 4.60027378,13.4537728 C5.02394588,16.2668295 6.55529634,17.9109752 9.27668043,18.4904282 C9.82525803,18.6071525 10.3930518,18.6492567 10.9516951,18.7259613 M11.9838811,22.9317894 C12.2391824,24.3037173 12.4889934,25.6456304 12.7497851,27.0475732 L8.34743849,27.0475732 L8.34743849,28.5324735 C8.34698096,29.4487596 8.35750413,30.3654626 8.3428632,31.2817487 C8.32913732,32.1455088 7.49551899,32.8867084 6.51777894,32.9313138 C5.59173971,32.973001 4.70321787,32.2789081 4.6615827,31.3905524 C4.61582978,30.4096511 4.66387035,29.4254148 4.6693607,28.4428459 C4.67164835,28.0109659 4.6693607,27.5786689 4.6693607,27.0621637 L2.36478578,27.0621637 L-0.000183011707,27.0621637 C0.147141413,26.1546319 0.277994783,25.3183854 0.419371327,24.4833895 C1.24704177,19.5959745 2.07928751,14.7089764 2.90512784,9.82114452 C3.12702954,8.50716191 3.79090451,7.97148056 5.24950781,7.96355998 C5.96279594,7.95939125 6.67608407,7.95480565 7.3893722,7.96481059 C8.5258749,7.98106863 9.15269,8.43629356 9.4121091,9.44512538 C9.52832153,9.89743221 9.60472892,10.3580765 9.69806489,10.8099664 C11.4920371,10.8954253 12.3837617,12.2356709 11.4105969,13.6113507 C12.7671712,13.8789829 13.8867453,14.4851158 14.710298,15.5060369 C15.3453486,16.2930925 15.7099995,17.1764456 15.7132022,18.1548457 C15.7218952,20.5251836 14.3886549,22.0509375 11.9838811,22.9317894" id="Fill-1" fill="#71ADCE" sketch:type="MSShapeGroup" mask="url(#mask-2)"></path>
                </g>
                <g id="Group-6">
                    <mask id="mask-4" sketch:name="Clip 5" fill="white">
                        <use xlink:href="#path-3"></use>
                    </mask>
                    <g id="Clip-5"></g>
                    <path d="M6.15413468,7.09179588 C4.06231087,7.08304156 2.35618423,5.51059791 2.37540046,3.61007549 C2.39507421,1.71163743 4.13826073,0.147531232 6.21086831,0.168374864 C8.30818248,0.18963537 9.98639983,1.74623786 9.97633419,3.6617677 C9.96672608,5.57563004 8.26700484,7.10096708 6.15413468,7.09179588" id="Fill-4" fill="#71ADCE" sketch:type="MSShapeGroup" mask="url(#mask-4)"></path>
                </g>
            </g>
        </g>
    </g>
</svg>