<?xml version="1.0" encoding="UTF-8" standalone="no"?>
<svg width="37px" height="33px" viewBox="0 0 37 33" version="1.1" xmlns="http://www.w3.org/2000/svg" xmlns:xlink="http://www.w3.org/1999/xlink" xmlns:sketch="http://www.bohemiancoding.com/sketch/ns">
    <!-- Generator: Sketch 3.4.4 (17249) - http://www.bohemiancoding.com/sketch -->
    <title>Page 1 Copy 22</title>
    <desc>Created with Sketch.</desc>
    <defs></defs>
    <g id="Page-1" stroke="none" stroke-width="1" fill="none" fill-rule="evenodd" sketch:type="MSPage">
        <g id="Desktop-HD-Copy-8" sketch:type="MSArtboardGroup" transform="translate(-433.000000, -326.000000)" fill="#71ADCE">
            <g id="Page-1-Copy-22" sketch:type="MSLayerGroup" transform="translate(433.000000, 326.000000)">
                <path d="M21.2898596,8.12413179 L23.6240112,10.2595532 L22.8268339,10.9885462 L20.4359851,8.80125474 L18.6144998,10.4679709 L21.1761235,12.811185 L20.4817527,13.4464369 L17.920129,11.1029103 L15.586319,13.2383318 L18.1834639,15.6143553 L17.4545966,16.2811667 L14.8004129,13.8529607 L7.62786648,20.4148351 L7.62786648,24.4766354 L3.41549821e-05,32.4968084 L9.10814343,26.1433515 L13.7757634,26.4558218 L30.5687438,11.0925988 L24.3067693,5.3640824 L21.2898596,8.12413179 Z" id="Fill-1" sketch:type="MSShapeGroup"></path>
                <path d="M27.8078599,0.0260287687 L26.9222212,0.83626403 L28.6443155,2.41173884 L25.7267968,5.08054693 L30.7574843,9.68292069 L33.6750029,7.01380014 L35.3544034,8.55021617 L36.2400421,7.74029338 L27.8078599,0.0260287687 Z" id="Fill-2" sketch:type="MSShapeGroup"></path>
            </g>
        </g>
    </g>
</svg>