<?xml version="1.0" encoding="UTF-8" standalone="no"?>
<svg width="40px" height="40px" viewBox="0 0 40 40" version="1.1" xmlns="http://www.w3.org/2000/svg" xmlns:xlink="http://www.w3.org/1999/xlink" xmlns:sketch="http://www.bohemiancoding.com/sketch/ns">
    <!-- Generator: Sketch 3.4.4 (17249) - http://www.bohemiancoding.com/sketch -->
    <title>Apple Watch 42mm</title>
    <desc>Created with Sketch.</desc>
    <defs></defs>
    <g id="Page-1" stroke="none" stroke-width="1" fill="none" fill-rule="evenodd" sketch:type="MSPage">
        <g id="Apple-Watch-42mm" sketch:type="MSArtboardGroup" fill="#71ADCE">
            <g id="Page-1-Copy-22" sketch:type="MSLayerGroup" transform="translate(6.000000, 8.000000)">
                <path d="M15.5358435,5.90845948 L17.2391433,7.46149325 L16.6574193,7.99166998 L14.9127458,6.40091254 L13.5835539,7.61306971 L15.4528469,9.31722544 L14.9461439,9.77922685 L13.0768509,8.07484387 L11.3738004,9.62787764 L13.2690142,11.3558947 L12.7371381,11.8408485 L10.8003013,10.0748805 L5.56628094,14.8471528 L5.56628094,17.8011894 L2.49239059e-05,23.6340425 L6.64648305,19.0133466 L10.0525841,19.2405976 L22.3069212,8.06734459 L17.7373722,3.90115084 L15.5358435,5.90845948 Z" id="Fill-1" sketch:type="MSShapeGroup"></path>
                <path d="M20.2922221,0.0189300136 L19.6459452,0.608192022 L20.9026086,1.75399189 L18.7736085,3.69494322 L22.4446507,7.04212414 L24.5736508,5.10094555 L25.7991592,6.21833903 L26.4454361,5.62930428 L20.2922221,0.0189300136 Z" id="Fill-2" sketch:type="MSShapeGroup"></path>
            </g>
        </g>
    </g>
</svg>