<?xml version="1.0" encoding="UTF-8" standalone="no"?>
<svg width="40px" height="40px" viewBox="0 0 40 40" version="1.1" xmlns="http://www.w3.org/2000/svg" xmlns:xlink="http://www.w3.org/1999/xlink" xmlns:sketch="http://www.bohemiancoding.com/sketch/ns">
    <!-- Generator: Sketch 3.4.4 (17249) - http://www.bohemiancoding.com/sketch -->
    <title>Apple Watch 42mm</title>
    <desc>Created with Sketch.</desc>
    <defs>
        <path id="path-1" d="M0,0.0454634866 L24.3027244,0.0454634866 L24.3027244,28.8457984 L0,28.8457984"></path>
    </defs>
    <g id="Page-1" stroke="none" stroke-width="1" fill="none" fill-rule="evenodd" sketch:type="MSPage">
        <g id="Apple-Watch-42mm" sketch:type="MSArtboardGroup">
            <g id="Page-1-Copy-27" sketch:type="MSLayerGroup" transform="translate(8.000000, 6.000000)">
                <g id="Group-3">
                    <mask id="mask-2" sketch:name="Clip 2" fill="white">
                        <use xlink:href="#path-1"></use>
                    </mask>
                    <g id="Clip-2"></g>
                    <path d="M3.64506862,20.5820886 C3.61599553,20.5911813 3.58692244,20.600274 3.55801937,20.6095234 C3.68383275,20.9498725 3.75047983,21.3226731 3.94583061,21.6247701 C4.75120625,22.8703129 6.53775624,23.1965526 7.83312399,22.3651979 C9.00250834,21.61458 9.20721011,20.2248083 8.28282181,19.23731 C7.52794154,18.4308818 6.58230097,18.2125003 5.47412313,18.4719557 C4.589009,18.6792065 3.58998277,19.561982 3.64506862,20.5820886 M19.4438287,21.972801 C21.4425612,22.0168535 22.9586125,20.5309813 23.0060475,18.8195162 C23.0562028,17.010383 21.4903363,15.5401879 19.6058559,15.4788906 C17.5542478,15.4122631 15.9644087,17.0106965 15.9523374,18.7019383 C15.939416,20.5044871 17.5494872,22.003528 19.4438287,21.972801 M19.465421,22.80055 C18.7232921,22.7583787 18.0325086,22.6351569 17.3539665,22.3949843 C16.625269,22.1370966 16.0568985,21.6881055 15.544634,21.1807957 C14.94209,20.5839698 14.4002423,19.9354097 13.81368,19.3241609 C13.634821,19.1377606 13.419068,18.9560635 13.1796826,18.8491459 C12.2877677,18.4507917 11.4169351,18.9551228 11.3557286,19.8664306 C11.312884,20.5035465 11.6141561,21.0406427 11.9081173,21.576328 C12.0859562,21.9000594 12.3108902,22.2059189 12.5473853,22.4971988 C12.7964618,22.8038421 12.7270944,23.119735 12.6138624,23.4260648 C12.506751,23.7160905 11.8804044,23.7717441 11.5917137,23.5389397 C11.2261748,23.2440541 11.142866,22.6212043 11.4783116,22.221596 C11.6862437,21.9738984 11.6617611,21.8000397 11.5167357,21.5446603 C11.2975824,21.1583775 11.1391256,20.7429353 10.9334037,20.2925332 C10.7117001,20.5013517 10.475375,20.7056238 10.2620023,20.9287085 C9.83916732,21.3709585 9.41990273,21.8169709 9.0152597,22.2734871 C8.19679266,23.1965526 7.10884697,23.4771721 5.87570583,23.4038034 C5.52036805,23.3826394 5.16860064,23.3127196 4.80731222,23.3102113 C6.62616564,24.2074097 8.58477392,24.5001005 10.7033692,24.4493068 C10.0261872,25.1597914 10.0311177,25.9422337 10.2672728,26.6883051 C10.5166894,27.4762344 11.256268,27.9117433 12.0653841,28.2972423 C11.8288889,28.5283222 11.5418984,28.5780185 11.2679993,28.6457434 C10.0190464,28.9548951 8.7763843,28.8617734 7.51587025,28.6625179 C5.65604247,28.3684161 3.97354355,27.7077846 2.44695121,26.7097827 C1.36903659,26.0050987 0.711236634,25.0009827 0.295542429,23.8623575 C-0.17217731,22.5818549 -0.0424535146,21.3156184 0.389392409,20.0410731 C1.20819948,17.6244536 2.43300973,15.3856121 3.86983253,13.2450657 C4.60346054,12.1522175 5.60877745,11.3001691 7.00802625,10.9646799 C7.44310251,10.8604274 7.90521165,10.8101041 8.35524951,10.8075957 C11.0321842,10.7927025 13.7094589,10.7821989 16.3862235,10.8047739 C17.9191066,10.817629 19.1508875,11.4541179 20.0179797,12.6004248 C20.7381763,13.5528065 21.3759142,14.5599011 22.0199426,15.5593139 C22.4142146,16.1707194 22.8343292,16.7855739 23.095477,17.4482434 C23.5361639,18.5658613 23.97022,19.7038594 24.2060351,20.8678815 C24.5319598,22.4769753 24.0132346,23.9501491 22.9677934,25.2770558 C22.2914615,26.1356886 21.3543219,26.6759203 20.3665168,27.1322796 C19.5701521,27.5000635 18.7266924,27.810783 17.8689512,28.0297915 C16.5227481,28.373276 15.1418612,28.6037289 13.7337715,28.391775 C12.8404965,28.2572657 12.0033275,27.9833874 11.2867012,27.4378256 C10.5870768,26.9051189 10.3425909,26.2295942 10.5432122,25.4383728 C10.7655958,24.5609275 11.4698107,24.1410957 12.3821277,24.0214797 C12.8602186,23.9587715 13.3544611,24.0073704 13.8405428,23.9882444 C14.4381564,23.9647288 15.0374701,23.9441918 15.6315133,23.884619 C16.6949764,23.7781717 17.7229057,23.5287496 18.7093506,23.1449751 C18.9679481,23.0443283 19.2137942,22.9160899 19.465421,22.80055" id="Fill-1" fill="#71ADCE" sketch:type="MSShapeGroup" mask="url(#mask-2)"></path>
                </g>
                <path d="M6.70161966,4.75806742 C6.76792671,2.12557477 8.98853286,0.036292404 11.8761199,0.045541872 C14.8431054,0.0549481106 17.0754428,2.22355642 17.0166166,4.86686625 C16.9588104,7.46251779 14.8912206,9.52687363 11.8618384,9.54599964 C9.03205749,9.5638715 6.76163604,7.55846143 6.70161966,4.75806742" id="Fill-4" fill="#71ADCE" sketch:type="MSShapeGroup"></path>
            </g>
        </g>
    </g>
</svg>