<?xml version="1.0" encoding="UTF-8" standalone="no"?>
<svg width="30px" height="35px" viewBox="0 0 30 35" version="1.1" xmlns="http://www.w3.org/2000/svg" xmlns:xlink="http://www.w3.org/1999/xlink" xmlns:sketch="http://www.bohemiancoding.com/sketch/ns">
    <!-- Generator: Sketch 3.4.4 (17249) - http://www.bohemiancoding.com/sketch -->
    <title>Page 1 Copy 27</title>
    <desc>Created with Sketch.</desc>
    <defs>
        <path id="path-1" d="M0,0.0548697253 L29.1632693,0.0548697253 L29.1632693,34.8138946 L0,34.8138946"></path>
    </defs>
    <g id="Page-1" stroke="none" stroke-width="1" fill="none" fill-rule="evenodd" sketch:type="MSPage">
        <g id="Desktop-HD-Copy-8" sketch:type="MSArtboardGroup" transform="translate(-687.000000, -490.000000)">
            <g id="Page-1-Copy-27" sketch:type="MSLayerGroup" transform="translate(687.000000, 490.000000)">
                <g id="Group-3">
                    <mask id="mask-2" sketch:name="Clip 2" fill="white">
                        <use xlink:href="#path-1"></use>
                    </mask>
                    <g id="Clip-2"></g>
                    <path d="M4.37408235,24.8404517 C4.33919464,24.8514257 4.30430693,24.8623996 4.26962324,24.8735628 C4.42059929,25.2843289 4.5005758,25.7342606 4.73499673,26.0988605 C5.7014475,27.6021018 7.84530748,27.9958393 9.39974879,26.9924802 C10.80301,26.0865621 11.0486521,24.4092514 9.93938617,23.2174431 C9.03352984,22.2441677 7.89876117,21.9806038 6.56894775,22.2937397 C5.5068108,22.5438699 4.30797932,23.6092886 4.37408235,24.8404517 M23.3325944,26.5188977 C25.7310735,26.5720646 27.550335,24.7787706 27.607257,22.7132092 C27.6674434,20.5297726 25.7884036,18.7553992 23.5270271,18.6814197 C21.0650973,18.6010071 19.1572904,20.530151 19.1428049,22.5713048 C19.1272992,24.7467948 21.0593847,26.5559821 23.3325944,26.5188977 M23.3585052,27.5179051 C22.4679505,27.4670087 21.6390103,27.3182928 20.8247597,27.0284293 C19.9503228,26.7171855 19.2682782,26.1752997 18.6535609,25.5630293 C17.930508,24.8427222 17.2802908,24.0599772 16.576416,23.3222632 C16.3617851,23.0972973 16.1028816,22.8780076 15.8156191,22.7489692 C14.7453212,22.2681969 13.7003221,22.8768724 13.6268743,23.9767266 C13.5754608,24.7456596 13.9369873,25.3938791 14.2897408,26.0403959 C14.5031475,26.4311061 14.7730682,26.800247 15.0568624,27.1517916 C15.3557542,27.5218784 15.2725133,27.9031284 15.1366349,28.2728369 C15.0081012,28.6228679 14.2564853,28.690036 13.9100564,28.4090651 C13.4714098,28.0531688 13.3714391,27.3014535 13.773974,26.8191676 C14.0234925,26.5202222 13.9941134,26.3103928 13.8200829,26.0021763 C13.5570989,25.5359728 13.3669507,25.034577 13.1200844,24.4909883 C12.8540401,24.7430107 12.57045,24.989546 12.3144027,25.2587861 C11.8070008,25.7925361 11.3038833,26.330827 10.8183116,26.8817947 C9.83615119,27.9958393 8.53061636,28.334518 7.050847,28.2459696 C6.62444166,28.2204268 6.20232077,28.136041 5.76877466,28.1330137 C7.95139877,29.2158393 10.3017287,29.5690868 12.8440431,29.5077841 C12.0314246,30.3652654 12.0373413,31.3095923 12.3207274,32.2100235 C12.6200272,33.1609726 13.5075216,33.6865867 14.4784609,34.1518441 C14.1946667,34.4307337 13.8502781,34.490712 13.5215991,34.5724489 C12.0228557,34.9455631 10.5316612,34.8331747 9.0190443,34.592694 C6.78725097,34.2377436 4.76825226,33.4404297 2.93634146,32.2359447 C1.6428439,31.3854639 0.853483961,30.1735998 0.354650914,28.799397 C-0.206612772,27.2539628 -0.0509442175,25.7257464 0.46727089,24.187502 C1.44983938,21.2708923 2.91961168,18.5688421 4.64379903,15.9854241 C5.52415265,14.6664694 6.73053294,13.6381351 8.4096315,13.2332344 C8.93172302,13.1074124 9.48625399,13.0466773 10.0262994,13.04365 C13.238621,13.0256754 16.4513507,13.0129986 19.6634682,13.0402443 C21.5029279,13.0557592 22.981065,13.8239353 24.0215757,15.2074092 C24.8858116,16.3568354 25.651097,17.5722944 26.4239312,18.7784823 C26.8970575,19.5163855 27.4011951,20.2584513 27.7145724,21.0582248 C28.2433967,22.407074 28.764264,23.78052 29.0472421,25.1853742 C29.4383517,27.127384 28.8158815,28.9053523 27.5613521,30.5067915 C26.7497538,31.5430725 25.6251862,32.1950762 24.4398202,32.7458547 C23.4841826,33.1897319 22.4720309,33.564738 21.4427415,33.8290588 C19.8272977,34.243609 18.1702335,34.5217417 16.4805258,34.2659353 C15.4085958,34.1035966 14.4039929,33.7730538 13.5440415,33.1146171 C12.7044922,32.4716953 12.411109,31.6564068 12.6518546,30.7014844 C12.918715,29.6424987 13.7637729,29.1358052 14.8585533,28.9914411 C15.4322623,28.9157587 16.0253534,28.9744125 16.6086514,28.9513294 C17.3257877,28.9229485 18.0449641,28.8981625 18.7578159,28.8262643 C20.0339716,28.6977934 21.2674868,28.3967668 22.4512207,27.9335906 C22.7615377,27.8121204 23.0565531,27.6573499 23.3585052,27.5179051" id="Fill-1" fill="#71ADCE" sketch:type="MSShapeGroup" mask="url(#mask-2)"></path>
                </g>
                <path d="M8.0419436,5.74249516 C8.12151206,2.56534886 10.7862394,0.0438011772 14.2513439,0.0549643282 C17.8117265,0.0663166852 20.4905314,2.68360258 20.4199399,5.87380409 C20.3505725,9.00648699 17.8694647,11.4979509 14.2342061,11.5210341 C10.838469,11.5426035 8.11396325,9.12228103 8.0419436,5.74249516" id="Fill-4" fill="#71ADCE" sketch:type="MSShapeGroup"></path>
            </g>
        </g>
    </g>
</svg>