<?xml version="1.0" encoding="UTF-8" standalone="no"?>
<svg width="40px" height="40px" viewBox="0 0 40 40" version="1.1" xmlns="http://www.w3.org/2000/svg" xmlns:xlink="http://www.w3.org/1999/xlink" xmlns:sketch="http://www.bohemiancoding.com/sketch/ns">
    <!-- Generator: Sketch 3.4.4 (17249) - http://www.bohemiancoding.com/sketch -->
    <title>Apple Watch 42mm</title>
    <desc>Created with Sketch.</desc>
    <defs>
        <path id="path-1" d="M0.0893258963,0.279628911 L26.405748,0.279628911 L26.405748,29.682429 L0.0893258963,29.682429 L0.0893258963,0.279628911 Z"></path>
    </defs>
    <g id="Page-1" stroke="none" stroke-width="1" fill="none" fill-rule="evenodd" sketch:type="MSPage">
        <g id="Apple-Watch-42mm" sketch:type="MSArtboardGroup">
            <g id="Page-1-Copy-17" sketch:type="MSLayerGroup" transform="translate(7.000000, 5.000000)">
                <mask id="mask-2" sketch:name="Clip 2" fill="white">
                    <use xlink:href="#path-1"></use>
                </mask>
                <g id="Clip-2"></g>
                <path d="M14.4399995,2.38435912 C14.7768937,2.82704634 15.1135895,3.26993432 15.6070264,3.91820508 C16.9692852,3.91820508 18.6186383,3.91800432 20.2679913,3.91840585 C20.5987349,3.91840585 22.1681301,3.82846305 22.452645,3.94490685 C22.8260459,4.09788992 22.8103718,5.46851379 22.458994,5.48859031 C20.8769007,5.57893464 18.0851233,5.52794029 16.4982683,5.52773952 L15.2637832,5.52773952 L15.2637832,8.04272492 C15.961182,8.04272492 16.6720723,8.04332721 17.3829627,8.04252415 C19.1352887,8.04091803 20.8878131,8.03609967 22.6401391,8.03790655 C23.2357553,8.03870961 23.9527963,7.96081272 23.9841445,8.82109152 C24.01708,9.7275463 23.2821824,9.62174305 22.693312,9.62294764 C20.2511267,9.62756524 17.8091399,9.62495529 15.2830286,9.62495529 L15.2830286,12.2156292 C15.7008727,12.2156292 16.1462952,12.2156292 16.5919161,12.2154284 C18.8071244,12.2152276 21.0223327,12.2128184 23.2373426,12.2164322 C23.8319668,12.217436 24.5517855,12.1327131 24.5210325,13.0327434 C24.4938508,13.8285766 23.8355381,13.7938442 23.2611513,13.7936435 C20.6211548,13.7928404 17.9811583,13.7932419 15.2703306,13.7932419 L15.2703306,16.3132465 C17.4468496,16.3132465 23.581181,16.3134472 23.581181,16.3134472 C24.465677,16.605159 24.226002,17.9019013 23.5813794,17.9340237 C23.5813794,17.9340237 20.9949526,17.9253908 20.1354558,17.9267962 C18.5224111,17.9296069 16.9095649,17.9275993 15.2491011,17.9275993 L15.2491011,20.4741048 C15.8300353,20.4741048 16.4105726,20.4747071 16.9913084,20.4741048 C18.7106989,20.4724987 20.4300894,20.4831392 22.1490831,20.4622596 C22.8274348,20.4538275 23.2895235,20.7017725 23.2357553,21.4249287 C23.1300047,22.8523691 23.0220715,24.2864348 22.7796188,25.6937987 C22.6109733,26.6731312 21.993334,27.358142 20.9276928,27.5243756 C19.8816939,27.6873969 19.2196115,27.1419179 18.7112941,26.3404633 C18.1232173,25.4129282 17.6385103,24.4139207 17.0034112,23.5231256 C16.6079871,22.9684114 16.0171326,22.5562405 15.5139738,22.0800255 C15.4086199,22.1426642 15.3032661,22.2051022 15.1979122,22.2675401 C15.1979122,23.5199133 15.2006899,24.7722865 15.1971186,26.0246597 C15.1931505,27.368381 15.05625,27.5016891 13.6983561,27.5107235 C11.1170879,27.5275878 11.2716465,27.6366033 11.2871222,25.0533578 C11.2926776,24.1214058 11.2879159,23.1894538 11.2879159,22.2575019 C11.2014106,22.1808096 11.114707,22.1041173 11.0282018,22.0276257 C10.5042103,22.4634869 9.87486497,22.8196444 9.48003608,23.353479 C8.81061264,24.2583276 8.35388094,25.3245915 7.68088618,26.2262279 C7.28804136,26.7524335 6.70790083,27.2609717 6.10692762,27.4741843 C5.14227535,27.8162881 4.03814332,27.2850635 3.81493604,26.2557404 C3.45760598,24.6092652 3.335586,22.9033635 3.23519232,21.2153298 C3.22170068,20.9904728 3.91017114,20.5188754 4.28337372,20.5078333 C6.56127845,20.4411793 8.84196086,20.4745063 11.2045852,20.4745063 L11.2045852,17.9255916 C10.6462693,17.9255916 10.0661288,17.9257924 9.48618668,17.9255916 C7.66779135,17.9245878 5.84939602,17.9280008 4.03100069,17.9199702 C3.47704981,17.9173602 2.90603598,17.8615475 2.93163042,17.1008483 C2.95662963,16.3560094 3.52903231,16.3190687 4.08020549,16.3182656 C6.42636205,16.3144511 8.7725186,16.3166595 11.2029979,16.3166595 L11.2029979,13.7990641 C10.2974708,13.7990641 9.38380894,13.7996664 8.46994872,13.7988634 C6.75075663,13.797458 5.03156453,13.7966549 3.31217403,13.7926396 C2.71715302,13.7910335 1.99753274,13.8789687 1.97372396,13.0124662 C1.94912156,12.1150458 2.67528925,12.2150269 3.27011186,12.2144246 C5.58452338,12.2118146 7.89873649,12.2126177 10.213148,12.2069963 C10.5357569,12.2061932 10.8583659,12.1756769 11.2311716,12.1562027 L11.2311716,9.62555759 C9.40484003,9.62555759 7.62910209,9.62575835 5.85316574,9.62535682 C5.05973825,9.62535682 4.25619204,9.69803382 3.47724822,9.59002215 C3.12289426,9.54083468 2.5969187,9.17905583 2.53541269,8.87810883 C2.4100198,8.26356661 2.91020252,8.04071727 3.48379563,8.04091803 C5.89741039,8.04131956 8.31102514,8.03690273 10.7246399,8.03208436 C10.8557866,8.0318836 10.9865364,8.01060249 11.2024027,7.99173056 L11.2024027,5.52352345 C9.88934864,5.52352345 8.5794691,5.52292116 7.26978797,5.52372422 C6.64143466,5.52412575 6.01327977,5.52292116 5.38512487,5.530751 C4.80855566,5.53777778 4.24726374,5.41631485 4.22424859,4.7345163 C4.20043982,4.02681905 4.76887436,3.91840585 5.34266589,3.91900814 C6.86345151,3.9204135 8.38443553,3.91800432 9.90541956,3.91720126 C10.3304062,3.91700049 10.7553929,3.91720126 11.0246305,3.68371135 C11.3694609,3.25066086 11.7142914,2.81740961 12.0591218,2.38435912 L14.4399995,2.38435912 Z" id="Fill-1" fill="#71ADCE" sketch:type="MSShapeGroup" mask="url(#mask-2)"></path>
            </g>
        </g>
    </g>
</svg>