<?xml version="1.0" encoding="UTF-8" standalone="no"?>
<svg width="27px" height="30px" viewBox="0 0 27 30" version="1.1" xmlns="http://www.w3.org/2000/svg" xmlns:xlink="http://www.w3.org/1999/xlink" xmlns:sketch="http://www.bohemiancoding.com/sketch/ns">
    <!-- Generator: Sketch 3.4.4 (17249) - http://www.bohemiancoding.com/sketch -->
    <title>Page 1 Copy 17</title>
    <desc>Created with Sketch.</desc>
    <defs>
        <path id="path-1" d="M0.102559362,0.316912766 L30.3177106,0.316912766 L30.3177106,33.6400862 L0.102559362,33.6400862 L0.102559362,0.316912766 Z"></path>
    </defs>
    <g id="Page-1" stroke="none" stroke-width="1" fill="none" fill-rule="evenodd" sketch:type="MSPage">
        <g id="Desktop-HD-Copy-8" sketch:type="MSArtboardGroup" transform="translate(-438.000000, -377.000000)">
            <g id="Page-1-Copy-17" sketch:type="MSLayerGroup" transform="translate(436.000000, 375.000000)">
                <mask id="mask-2" sketch:name="Clip 2" fill="white">
                    <use xlink:href="#path-1"></use>
                </mask>
                <g id="Clip-2"></g>
                <path d="M16.5792587,2.70227367 C16.9660632,3.20398585 17.3526398,3.70592556 17.9191785,4.44063243 C19.4832534,4.44063243 21.376955,4.44040489 23.2706567,4.44085996 C23.6503993,4.44085996 25.4522975,4.33892479 25.7789627,4.47089443 C26.2076824,4.64427524 26.1896862,6.19764897 25.7862523,6.22040235 C23.9697749,6.3227926 20.7644008,6.26499899 18.9424562,6.26477146 L17.5250844,6.26477146 L17.5250844,9.11508824 C18.3258015,9.11508824 19.142009,9.11577084 19.9582165,9.11486071 C21.9701463,9.11304044 23.9823039,9.10757962 25.9942338,9.10962743 C26.6780894,9.11053756 27.5013587,9.02225442 27.5373511,9.99723705 C27.5751659,11.0245525 26.7313946,10.9046421 26.0552842,10.9060073 C23.2512937,10.9112406 20.4475309,10.9082827 17.547181,10.9082827 L17.547181,13.8443797 C18.0269279,13.8443797 18.5383389,13.8443797 19.0499778,13.8441522 C21.5933651,13.8439246 24.1367524,13.8411942 26.6799118,13.8452899 C27.3626285,13.8464275 28.189087,13.7504082 28.153778,14.7704426 C28.1225694,15.6723868 27.3667289,15.6330235 26.7072478,15.6327959 C23.6761407,15.6318858 20.6450336,15.6323409 17.5326018,15.6323409 L17.5326018,18.488346 C20.0315681,18.488346 27.0746893,18.4885735 27.0746893,18.4885735 C28.0902218,18.8191802 27.8150394,20.2888215 27.0749171,20.3252269 C27.0749171,20.3252269 24.1053159,20.315443 23.1184862,20.3170357 C21.266472,20.3202212 19.4146856,20.3179458 17.5082272,20.3179458 L17.5082272,23.2039854 C18.1752257,23.2039854 18.8417686,23.204668 19.5085392,23.2039854 C21.4826543,23.2021652 23.4567693,23.2142245 25.4304287,23.1905609 C26.209277,23.1810045 26.7398232,23.4620088 26.6780894,24.2815858 C26.556672,25.8993516 26.4327488,27.5246261 26.1543772,29.1196385 C25.9607472,30.2295487 25.2516057,31.0058943 24.0280917,31.1942923 C22.82713,31.3790498 22.0669613,30.7608403 21.4833377,29.8525251 C20.8081384,28.8013186 20.2516229,27.6691101 19.522435,26.6595423 C19.0684296,26.0308662 18.3900411,25.5637392 17.8123402,25.0240289 C17.6913784,25.0950194 17.5704166,25.1657825 17.4494548,25.2365455 C17.4494548,26.6559018 17.452644,28.075258 17.4485436,29.4946143 C17.4439876,31.0174985 17.2868056,31.168581 15.7277422,31.17882 C12.7640639,31.1979329 12.9415201,31.3214838 12.9592885,28.3938055 C12.9656669,27.3375932 12.9601997,26.281381 12.9601997,25.2251688 C12.8608789,25.1382509 12.7613303,25.0513329 12.6620095,24.9646425 C12.0603896,25.4586185 11.3378079,25.8622636 10.8844859,26.4672762 C10.1158886,27.4927713 9.59149293,28.7012037 8.81879524,29.7230583 C8.36775119,30.3194246 7.70166392,30.8957679 7.01165764,31.1374089 C5.90409392,31.5251266 4.63638678,30.9230719 4.38011175,29.7565058 C3.9698439,27.8905005 3.82974689,25.9571453 3.71448007,24.0440405 C3.69898967,23.7892025 4.48945576,23.2547255 4.91794761,23.2422111 C7.5333197,23.1666699 10.151881,23.2044405 12.8645237,23.2044405 L12.8645237,20.3156705 C12.2234944,20.3156705 11.5574071,20.315898 10.8915477,20.3156705 C8.80376044,20.3145328 6.71597321,20.3184009 4.62818597,20.3092995 C3.9921683,20.3063416 3.33655983,20.2430872 3.36594603,19.3809614 C3.39464884,18.5368107 4.05185191,18.4949445 4.68468038,18.4940343 C7.37841568,18.4897112 10.072151,18.4922141 12.8627013,18.4922141 L12.8627013,15.6389393 C11.823022,15.6389393 10.7740029,15.6396219 9.72475594,15.6387118 C7.75086872,15.6371191 5.7769815,15.6362089 3.80286648,15.6316583 C3.11969421,15.629838 2.29346351,15.7294978 2.26612751,14.7474616 C2.23788031,13.7303852 3.0716284,13.8436971 3.75457288,13.8430145 C6.41186017,13.8400566 9.06891967,13.8409667 11.726207,13.8345958 C12.0966098,13.8336856 12.4670126,13.7991005 12.8950489,13.7770297 L12.8950489,10.9089653 C10.7981497,10.9089653 8.75933944,10.9091928 6.72030141,10.9087377 C5.80932911,10.9087377 4.886739,10.991105 3.9923961,10.8686918 C3.58554526,10.812946 2.98164739,10.4029299 2.91102938,10.0618567 C2.76705977,9.3653755 3.34134363,9.1128129 3.9999135,9.11304044 C6.77110081,9.1134955 9.54228812,9.10848976 12.3134754,9.10302894 C12.4640512,9.10280141 12.6141715,9.07868282 12.8620179,9.05729464 L12.8620179,6.25999325 C11.3544373,6.25999325 9.85050156,6.25931065 8.34679359,6.26022078 C7.62535091,6.26067585 6.90413603,6.25931065 6.18292115,6.26818447 C5.52093427,6.27614815 4.876488,6.13849016 4.8500632,5.36578514 C4.8227272,4.56372825 5.47537427,4.44085996 6.13417194,4.44154256 C7.88025914,4.4431353 9.62657413,4.44040489 11.3728891,4.43949476 C11.8608368,4.43926722 12.3487844,4.43949476 12.6579091,4.17487287 C13.0538255,3.68408231 13.449742,3.19306422 13.8456584,2.70227367 L16.5792587,2.70227367 Z" id="Fill-1" fill="#71ADCE" sketch:type="MSShapeGroup" mask="url(#mask-2)"></path>
            </g>
        </g>
    </g>
</svg>