<?xml version="1.0" encoding="UTF-8" standalone="no"?>
<svg width="40px" height="40px" viewBox="0 0 40 40" version="1.1" xmlns="http://www.w3.org/2000/svg" xmlns:xlink="http://www.w3.org/1999/xlink" xmlns:sketch="http://www.bohemiancoding.com/sketch/ns">
    <!-- Generator: Sketch 3.4.4 (17249) - http://www.bohemiancoding.com/sketch -->
    <title>Apple Watch 42mm</title>
    <desc>Created with Sketch.</desc>
    <defs>
        <path id="path-1" d="M0.20232545,0.23753356 L24.543018,0.23753356 L24.543018,21.7839046 L0.20232545,21.7839046 L0.20232545,0.23753356 Z"></path>
    </defs>
    <g id="Page-1" stroke="none" stroke-width="1" fill="none" fill-rule="evenodd" sketch:type="MSPage">
        <g id="Apple-Watch-42mm" sketch:type="MSArtboardGroup">
            <g id="Page-1-Copy-23" sketch:type="MSLayerGroup" transform="translate(8.000000, 9.000000)">
                <g id="Group-3">
                    <mask id="mask-2" sketch:name="Clip 2" fill="white">
                        <use xlink:href="#path-1"></use>
                    </mask>
                    <g id="Clip-2"></g>
                    <path d="M11.2177797,18.5994443 L11.5248674,18.3061807 C11.5248674,18.3061807 8.89488975,16.890347 8.43600198,16.3206479 L5.3155651,17.7229841 C5.3155651,17.7229841 4.81078854,15.8824178 6.04978554,13.2092143 C6.04978554,13.2092143 5.36145387,10.7113028 5.54500898,10.0539576 C5.54500898,10.0539576 5.54500898,15.6633027 12.5201032,17.8544532 L13.2084348,17.5915151 L14.5392094,18.5994443 L11.2177797,18.5994443 Z M19.5410862,18.8623824 L14.7686533,14.7137458 L12.321313,14.7137458 L11.2177797,15.1812496 C11.2177797,15.1812496 8.16066931,13.369957 7.61000398,10.2730727 C10.0604647,9.20309009 8.0184141,4.93770901 5.56795337,6.00769159 C5.56795337,6.00769159 -1.91981025,10.0977806 0.7955205,20.4983829 C0.7955205,20.4983829 0.910242444,21.7839747 3.61768032,21.7839747 L22.233289,21.7839747 C25.3127931,21.7839747 25.3127931,18.8623824 22.233289,18.8623824 L19.5410862,18.8623824 Z" id="Fill-1" fill="#71ADCE" sketch:type="MSShapeGroup" mask="url(#mask-2)"></path>
                </g>
                <path d="M12.996961,3.21756827 C12.996961,4.86338518 11.5999231,6.19753286 9.87652413,6.19753286 C8.15312519,6.19753286 6.75608725,4.86338518 6.75608725,3.21756827 C6.75608725,1.57175135 8.15312519,0.237603677 9.87652413,0.237603677 C11.5999231,0.237603677 12.996961,1.57175135 12.996961,3.21756827" id="Fill-4" fill="#71ADCE" sketch:type="MSShapeGroup"></path>
            </g>
        </g>
    </g>
</svg>