<?xml version="1.0" encoding="UTF-8" standalone="no"?>
<svg width="38px" height="34px" viewBox="0 0 38 34" version="1.1" xmlns="http://www.w3.org/2000/svg" xmlns:xlink="http://www.w3.org/1999/xlink" xmlns:sketch="http://www.bohemiancoding.com/sketch/ns">
    <!-- Generator: Sketch 3.4.4 (17249) - http://www.bohemiancoding.com/sketch -->
    <title>Page 1 Copy 23</title>
    <desc>Created with Sketch.</desc>
    <defs>
        <path id="path-1" d="M0.307534683,0.36709732 L37.3053873,0.36709732 L37.3053873,33.6660344 L0.307534683,33.6660344 L0.307534683,0.36709732 Z"></path>
    </defs>
    <g id="Page-1" stroke="none" stroke-width="1" fill="none" fill-rule="evenodd" sketch:type="MSPage">
        <g id="Desktop-HD-Copy-8" sketch:type="MSArtboardGroup" transform="translate(-919.000000, -375.000000)">
            <g id="Page-1-Copy-23" sketch:type="MSLayerGroup" transform="translate(919.000000, 375.000000)">
                <g id="Group-3">
                    <mask id="mask-2" sketch:name="Clip 2" fill="white">
                        <use xlink:href="#path-1"></use>
                    </mask>
                    <g id="Clip-2"></g>
                    <path d="M17.0510251,28.7445958 L17.5177984,28.2913702 C17.5177984,28.2913702 13.5202324,26.1032635 12.822723,25.2228194 L8.07965895,27.3900664 C8.07965895,27.3900664 7.31239859,24.5455548 9.19567402,20.4142402 C9.19567402,20.4142402 8.14940989,16.5538315 8.42841366,15.5379345 C8.42841366,15.5379345 8.42841366,24.2069224 19.0305568,27.5932458 L20.076821,27.186887 L22.0995983,28.7445958 L17.0510251,28.7445958 Z M29.702451,29.1509546 L22.448353,22.7394253 L18.7283958,22.7394253 L17.0510251,23.4619313 C17.0510251,23.4619313 12.4042174,20.6626609 11.567206,15.8765669 C15.2919063,14.2229574 12.1879894,7.63100483 8.46328913,9.28461427 C8.46328913,9.28461427 -2.91811158,15.605661 1.20919116,31.6793191 C1.20919116,31.6793191 1.38356852,33.6661427 5.49887409,33.6661427 L33.7945992,33.6661427 C38.4754454,33.6661427 38.4754454,29.1509546 33.7945992,29.1509546 L29.702451,29.1509546 Z" id="Fill-1" fill="#71ADCE" sketch:type="MSShapeGroup" mask="url(#mask-2)"></path>
                </g>
                <path d="M19.7553807,4.97260551 C19.7553807,7.51614074 17.6318831,9.57800533 15.0123167,9.57800533 C12.3927503,9.57800533 10.2692526,7.51614074 10.2692526,4.97260551 C10.2692526,2.42907027 12.3927503,0.367205683 15.0123167,0.367205683 C17.6318831,0.367205683 19.7553807,2.42907027 19.7553807,4.97260551" id="Fill-4" fill="#71ADCE" sketch:type="MSShapeGroup"></path>
            </g>
        </g>
    </g>
</svg>