<?xml version="1.0" encoding="UTF-8" standalone="no"?>
<svg width="25px" height="31px" viewBox="0 0 25 31" version="1.1" xmlns="http://www.w3.org/2000/svg" xmlns:xlink="http://www.w3.org/1999/xlink" xmlns:sketch="http://www.bohemiancoding.com/sketch/ns">
    <!-- Generator: Sketch 3.4.4 (17249) - http://www.bohemiancoding.com/sketch -->
    <title>Page 1 Copy 19</title>
    <desc>Created with Sketch.</desc>
    <defs>
        <path id="path-1" d="M0,0 L24.9021772,0 L24.9021772,30.6903834 L0,30.6903834"></path>
    </defs>
    <g id="Page-1" stroke="none" stroke-width="1" fill="none" fill-rule="evenodd" sketch:type="MSPage">
        <g id="Desktop-HD-Copy-8" sketch:type="MSArtboardGroup" transform="translate(-689.000000, -321.000000)">
            <g id="Page-1-Copy-19" sketch:type="MSLayerGroup" transform="translate(689.000000, 321.000000)">
                <path d="M12.4046701,9.60752871 C13.9683264,9.60752871 15.2362525,10.8675588 15.2362525,12.4224706 C15.2362525,13.9769377 13.9683264,15.2369678 12.4046701,15.2369678 C10.8410138,15.2369678 9.57308761,13.9769377 9.57308761,12.4224706 C9.57308761,10.8675588 10.8410138,9.60752871 12.4046701,9.60752871 M19.3845275,28.8789173 L16.8710451,17.7027661 C18.3841454,16.4369541 19.3473935,14.5422389 19.3473935,12.4224706 C19.3473935,8.61035699 16.2388716,5.52054795 12.4046701,5.52054795 C8.57046851,5.52054795 5.46194664,8.61035699 5.46194664,12.4224706 C5.46194664,14.3202992 6.23326093,16.038886 7.48060678,17.2864625 L4.87361816,28.8789173 C4.87361816,28.8789173 4.09067152,30.7318242 5.80554836,30.7318242 L11.8534756,30.7318242 L12.4046701,30.7318242 L18.4525973,30.7318242 C20.1674742,30.7318242 19.3845275,28.8789173 19.3845275,28.8789173" id="Fill-1" fill="#71ADCE" sketch:type="MSShapeGroup"></path>
                <g id="Group-5">
                    <mask id="mask-2" sketch:name="Clip 4" fill="white">
                        <use xlink:href="#path-1"></use>
                    </mask>
                    <g id="Clip-4"></g>
                    <path d="M12.4510886,0 C5.57458009,0 0,5.5418196 0,12.3823642 C0,16.6254588 2.14751079,20.3704123 5.42246475,22.5987042 L5.94144652,20.2369817 C3.66866427,18.3689526 2.2146205,15.5446705 2.2146205,12.3823642 C2.2146205,6.76048619 6.80045084,2.20605339 12.4510886,2.20605339 C18.1017264,2.20605339 22.6875567,6.76048619 22.6875567,12.3823642 C22.6875567,15.7314735 21.0545537,18.7069769 18.5401765,20.5572152 L19.0144185,22.901147 C22.5488633,20.717332 24.9021772,16.8211571 24.9021772,12.3823642 C24.9021772,5.5418196 19.3275971,0 12.4510886,0" id="Fill-3" fill="#71ADCE" sketch:type="MSShapeGroup" mask="url(#mask-2)"></path>
                </g>
                <path d="M4.64507571,12.0773106 C4.64507571,12.4148901 4.3694785,12.6888677 4.02990335,12.6888677 C3.69032821,12.6888677 3.41473099,12.4148901 3.41473099,12.0773106 C3.41473099,11.739731 3.69032821,11.4657534 4.02990335,11.4657534 C4.3694785,11.4657534 4.64507571,11.739731 4.64507571,12.0773106" id="Fill-6" fill="#71ADCE" sketch:type="MSShapeGroup"></path>
                <path d="M21.2918893,12.0773106 C21.2918893,12.4148901 21.0162921,12.6888677 20.6767169,12.6888677 C20.3371418,12.6888677 20.0615446,12.4148901 20.0615446,12.0773106 C20.0615446,11.739731 20.3371418,11.4657534 20.6767169,11.4657534 C21.0162921,11.4657534 21.2918893,11.739731 21.2918893,12.0773106" id="Fill-8" fill="#71ADCE" sketch:type="MSShapeGroup"></path>
                <path d="M13.1819032,3.58415988 C13.1819032,3.92173942 12.906306,4.19571702 12.5667308,4.19571702 C12.2271557,4.19571702 11.9515585,3.92173942 11.9515585,3.58415988 C11.9515585,3.24658034 12.2271557,2.97260274 12.5667308,2.97260274 C12.906306,2.97260274 13.1819032,3.24658034 13.1819032,3.58415988" id="Fill-10" fill="#71ADCE" sketch:type="MSShapeGroup"></path>
            </g>
        </g>
    </g>
</svg>