<?xml version="1.0" encoding="UTF-8" standalone="no"?>
<svg width="40px" height="40px" viewBox="0 0 40 40" version="1.1" xmlns="http://www.w3.org/2000/svg" xmlns:xlink="http://www.w3.org/1999/xlink" xmlns:sketch="http://www.bohemiancoding.com/sketch/ns">
    <!-- Generator: Sketch 3.4.4 (17249) - http://www.bohemiancoding.com/sketch -->
    <title>Apple Watch 42mm</title>
    <desc>Created with Sketch.</desc>
    <defs>
        <path id="path-1" d="M0,0.314442857 L20.420464,0.314442857 L20.420464,33 L0,33"></path>
    </defs>
    <g id="Page-1" stroke="none" stroke-width="1" fill="none" fill-rule="evenodd" sketch:type="MSPage">
        <g id="Apple-Watch-42mm" sketch:type="MSArtboardGroup">
            <g id="Page-1-Copy-18" sketch:type="MSLayerGroup" transform="translate(11.000000, 3.000000)">
                <mask id="mask-2" sketch:name="Clip 2" fill="white">
                    <use xlink:href="#path-1"></use>
                </mask>
                <g id="Clip-2"></g>
                <path d="M12.8900873,7.97247 C12.4914272,7.34971286 11.7970785,6.93391286 11.0016478,6.93391286 C10.5491403,6.93391286 10.1306417,7.07062714 9.77968861,7.30162714 L9.77968861,6.47191286 C10.152842,6.30314143 10.5656724,6.20697 11.0016478,6.20697 C12.3147698,6.20697 13.4266724,7.05789857 13.8201366,8.23694143 C13.5258651,8.13369857 13.2160061,8.04554143 12.8900873,7.97247 M11.0016478,12.1394271 C10.5656724,12.1394271 10.152842,12.0432557 9.77968861,11.8749557 L9.77968861,11.0475986 C10.1315864,11.2767129 10.550085,11.4124843 11.0016478,11.4124843 C11.8476196,11.4124843 12.5755048,10.9396414 12.9576328,10.24947 C13.1597969,10.3668557 13.3699909,10.4955557 13.5853807,10.6360414 C13.0743022,11.53317 12.1097716,12.1394271 11.0016478,12.1394271 M19.0905738,12.8856986 C18.0925066,11.4855557 16.8530706,9.64274143 14.6703595,8.58391286 C14.3864795,6.81417 12.8546613,5.46069857 11.0016478,5.46069857 C10.5727576,5.46069857 10.1627612,5.53659857 9.77968861,5.67001286 L9.77968861,3.85831286 C9.77968861,3.49295571 9.52745582,3.18605571 9.18925606,3.09459857 L9.18925606,1.72839857 L9.90202623,1.72839857 C10.0574281,1.72839857 10.1849615,1.60158429 10.1849615,1.44601286 L10.1849615,0.59697 C10.1849615,0.441398571 10.0574281,0.314112857 9.90202623,0.314112857 L5.40623661,0.314112857 C5.25036242,0.314112857 5.12282899,0.441398571 5.12282899,0.59697 L5.12282899,1.44601286 C5.12282899,1.60158429 5.25036242,1.72839857 5.40623661,1.72839857 L6.11900679,1.72839857 L6.11900679,3.09459857 C5.78033468,3.18605571 5.52857424,3.49295571 5.52857424,3.85831286 L5.52857424,15.5652986 C5.52857424,16.0018414 5.88661254,16.3591843 6.32400497,16.3591843 L6.33534128,16.3591843 L6.33534128,21.1866129 C6.33534128,21.7292271 6.78029125,22.1733129 7.32396154,22.1733129 L7.9843013,22.1733129 C8.5279716,22.1733129 8.97244922,21.7292271 8.97244922,21.1866129 L8.97244922,16.3591843 L8.98378553,16.3591843 C9.42165031,16.3591843 9.77968861,16.0018414 9.77968861,15.5652986 L9.77968861,12.6763843 C10.1627612,12.8097986 10.5727576,12.8856986 11.0016478,12.8856986 C12.3643661,12.8856986 13.5523164,12.1526271 14.1999029,11.0617414 C15.7085761,12.1710129 17.2805437,13.8379843 17.7524174,16.1526986 C18.3759142,19.2108557 17.6390544,21.7476129 16.6060336,23.4381557 L13.7374761,24.5799557 L13.7374761,24.4748271 L3.03080837,24.4748271 L3.03080837,25.6929986 L13.7374761,25.6929986 L13.7374761,25.1626414 L16.0439418,24.24477 C15.5980471,24.8034129 15.1342033,25.2159129 14.7213729,25.4572843 C13.1078388,26.4001414 11.9661784,26.9498271 10.7461086,26.9894271 C9.52556644,27.0285557 7.65413142,26.9894271 7.65413142,26.9894271 L7.65413142,29.7783986 L0.000236173021,29.7783986 L0.000236173021,33.0001414 L16.7288436,33.0001414 L16.7288436,29.8179986 L12.4777292,29.8179986 L12.4777292,29.0712557 C12.4777292,29.0712557 16.6504341,28.2071271 18.9332825,24.0821271 C21.216131,19.9571271 20.547289,14.9283986 19.0905738,12.8856986" id="Fill-1" fill="#71ADCE" sketch:type="MSShapeGroup" mask="url(#mask-2)"></path>
            </g>
        </g>
    </g>
</svg>