<?xml version="1.0" encoding="UTF-8" standalone="no"?>
<svg width="25px" height="39px" viewBox="0 0 25 39" version="1.1" xmlns="http://www.w3.org/2000/svg" xmlns:xlink="http://www.w3.org/1999/xlink" xmlns:sketch="http://www.bohemiancoding.com/sketch/ns">
    <!-- Generator: Sketch 3.4.4 (17249) - http://www.bohemiancoding.com/sketch -->
    <title>Page 1 Copy 18</title>
    <desc>Created with Sketch.</desc>
    <defs>
        <path id="path-1" d="M0,0.371614286 L24.3100762,0.371614286 L24.3100762,39 L0,39"></path>
    </defs>
    <g id="Page-1" stroke="none" stroke-width="1" fill="none" fill-rule="evenodd" sketch:type="MSPage">
        <g id="Desktop-HD-Copy-8" sketch:type="MSArtboardGroup" transform="translate(-925.000000, -321.000000)">
            <g id="Page-1-Copy-18" sketch:type="MSLayerGroup" transform="translate(925.000000, 321.000000)">
                <mask id="mask-2" sketch:name="Clip 2" fill="white">
                    <use xlink:href="#path-1"></use>
                </mask>
                <g id="Clip-2"></g>
                <path d="M15.345342,9.42201 C14.8707467,8.68602429 14.0441411,8.19462429 13.0971998,8.19462429 C12.5585004,8.19462429 12.0602878,8.35619571 11.6424864,8.62919571 L11.6424864,7.64862429 C12.0867166,7.44916714 12.5781815,7.33551 13.0971998,7.33551 C14.6604402,7.33551 15.9841338,8.34115286 16.4525436,9.73456714 C16.1022203,9.61255286 15.7333405,9.50836714 15.345342,9.42201 M13.0971998,14.3465957 C12.5781815,14.3465957 12.0867166,14.2329386 11.6424864,14.0340386 L11.6424864,13.0562529 C12.0614124,13.3270243 12.559625,13.4874814 13.0971998,13.4874814 C14.104309,13.4874814 14.9708391,12.9286671 15.4257533,12.11301 C15.6664249,12.2517386 15.9166558,12.4038386 16.1730722,12.5698671 C15.5646455,13.63011 14.4163948,14.3465957 13.0971998,14.3465957 M22.7268735,15.2285529 C21.5386983,13.5738386 20.0631793,11.3959671 17.4647137,10.1446243 C17.1267614,8.05311 15.3031683,6.45355286 13.0971998,6.45355286 C12.5866162,6.45355286 12.0985253,6.54325286 11.6424864,6.70092429 L11.6424864,4.55982429 C11.6424864,4.12803857 11.3422093,3.76533857 10.9395905,3.65725286 L10.9395905,2.04265286 L11.7881265,2.04265286 C11.9731287,2.04265286 12.1249542,1.89278143 12.1249542,1.70892429 L12.1249542,0.70551 C12.1249542,0.521652857 11.9731287,0.371224286 11.7881265,0.371224286 L6.43599597,0.371224286 C6.25043145,0.371224286 6.09860594,0.521652857 6.09860594,0.70551 L6.09860594,1.70892429 C6.09860594,1.89278143 6.25043145,2.04265286 6.43599597,2.04265286 L7.28453189,2.04265286 L7.28453189,3.65725286 C6.88135081,3.76533857 6.581636,4.12803857 6.581636,4.55982429 L6.581636,18.3953529 C6.581636,18.9112671 7.00787207,19.3335814 7.52857735,19.3335814 L7.54207295,19.3335814 L7.54207295,25.0387243 C7.54207295,25.6799957 8.07177529,26.2048243 8.71900183,26.2048243 L9.5051206,26.2048243 C10.1523471,26.2048243 10.6814872,25.6799957 10.6814872,25.0387243 L10.6814872,19.3335814 L10.6949828,19.3335814 C11.2162504,19.3335814 11.6424864,18.9112671 11.6424864,18.3953529 L11.6424864,14.9811814 C12.0985253,15.1388529 12.5866162,15.2285529 13.0971998,15.2285529 C14.7194835,15.2285529 16.13371,14.3621957 16.9046463,13.0729671 C18.7006859,14.3839243 20.5720759,16.3539814 21.1338303,19.0895529 C21.8760883,22.7037386 20.9988743,25.7017243 19.7690876,27.6996386 L16.3541382,29.0490386 L16.3541382,28.9247957 L3.60810521,28.9247957 L3.60810521,30.3644529 L16.3541382,30.3644529 L16.3541382,29.7376671 L19.0999307,28.65291 C18.5691037,29.3131243 18.0169087,29.8006243 17.5254439,30.0858814 C15.60457,31.2001671 14.2454505,31.8497957 12.7929864,31.8965957 C11.33996,31.9428386 9.11206122,31.8965957 9.11206122,31.8965957 L9.11206122,35.1926529 L0.000281158358,35.1926529 L0.000281158358,39.0001671 L19.91529,39.0001671 L19.91529,35.2394529 L14.8544395,35.2394529 L14.8544395,34.3569386 C14.8544395,34.3569386 19.8219454,33.3356957 22.5396221,28.4606957 C25.2572988,23.5856957 24.4610583,17.6426529 22.7268735,15.2285529" id="Fill-1" fill="#71ADCE" sketch:type="MSShapeGroup" mask="url(#mask-2)"></path>
            </g>
        </g>
    </g>
</svg>