<?xml version="1.0" encoding="UTF-8" standalone="no"?>
<svg width="37px" height="34px" viewBox="0 0 37 34" version="1.1" xmlns="http://www.w3.org/2000/svg" xmlns:xlink="http://www.w3.org/1999/xlink" xmlns:sketch="http://www.bohemiancoding.com/sketch/ns">
    <!-- Generator: Sketch 3.4.4 (17249) - http://www.bohemiancoding.com/sketch -->
    <title>Page 1 Copy 21</title>
    <desc>Created with Sketch.</desc>
    <defs>
        <path id="path-1" d="M0,0.0924630785 L36.5454012,0.0924630785 L36.5454012,33.1359101 L0,33.1359101"></path>
        <path id="path-3" d="M0,0.0924630785 L36.5454012,0.0924630785 L36.5454012,33.1359101 L0,33.1359101 L0,0.0924630785 Z"></path>
    </defs>
    <g id="Page-1" stroke="none" stroke-width="1" fill="none" fill-rule="evenodd" sketch:type="MSPage">
        <g id="Desktop-HD-Copy-8" sketch:type="MSArtboardGroup" transform="translate(-190.000000, -488.000000)">
            <g id="Page-1-Copy-21" sketch:type="MSLayerGroup" transform="translate(190.000000, 488.000000)">
                <g id="Group-3">
                    <mask id="mask-2" sketch:name="Clip 2" fill="white">
                        <use xlink:href="#path-1"></use>
                    </mask>
                    <g id="Clip-2"></g>
                    <path d="M33.6455231,30.0560265 L2.78530098,30.0560265 C2.74522079,30.7475154 2.75317148,31.406662 2.65852559,32.0534075 C2.52118559,32.9925229 1.61731194,33.3847965 0.679457257,32.9717881 C0.211346767,32.7657304 0.0481942512,32.4467725 0.0497190411,31.9780085 C0.0631154092,27.9936633 0.0620262736,24.0093181 0.0547290649,20.0250722 C0.0528775344,19.0004384 -0.0107279859,17.9756062 0.00157924665,16.9512701 C0.00844080106,16.377741 0.0589766939,15.7948863 0.188474919,15.2350482 C0.319606848,14.6678685 0.846530661,14.3712327 1.48748697,14.380856 C2.04839182,14.3891896 2.40922245,14.659535 2.54743376,15.269077 C2.63815876,15.6694858 2.6658228,16.0878514 2.66625846,16.4982803 C2.66919912,20.0856891 2.65972364,23.673197 2.65395122,27.2607049 C2.6537334,27.4572385 2.65395122,27.653673 2.65395122,27.890684 L33.6788507,27.890684 C33.6788507,27.6980195 33.6802666,27.5076369 33.6786329,27.3172542 C33.6598997,25.1189743 33.6286415,22.9206943 33.6271167,20.7224144 C33.6263544,19.6792285 34.4511568,19.0995485 35.5312526,19.3164201 C36.0435819,19.4193001 36.3189154,19.7310158 36.429027,20.1499767 C36.5207323,20.4988958 36.5464359,20.8694426 36.5453467,21.2301677 C36.534891,24.7845397 36.5131083,28.3389117 36.4935039,31.8931845 C36.4896919,32.5791177 36.0250666,33.0292303 35.2330472,33.1206021 C34.4531172,33.2107834 33.9086583,32.9019448 33.746486,32.1979555 C33.6508599,31.7827645 33.6682861,31.3448546 33.6480282,30.9167664 C33.6348496,30.6399725 33.6455231,30.3622856 33.6455231,30.0560265" id="Fill-1" fill="#71ADCE" sketch:type="MSShapeGroup" mask="url(#mask-2)"></path>
                </g>
                <path d="M31.2536397,25.9201093 L30.560296,25.9201093 C24.660884,25.9198117 18.761472,25.9154465 12.86206,25.9274508 C12.4302177,25.9283437 12.238312,25.8448094 12.2492034,25.418507 C12.2752337,24.3954606 12.1834196,23.3649735 12.2842735,22.349467 C12.4309801,20.872538 13.0332721,20.3985159 14.6698073,20.3116085 C15.4115086,20.2722224 16.1572398,20.2898817 16.9011194,20.2879967 C20.5678034,20.2787702 24.2343785,20.2661706 27.9010625,20.2699406 C28.4598979,20.2705358 29.0215652,20.3319464 29.5769154,20.3993095 C30.4660858,20.5070508 30.9536918,21.0320665 31.1409142,21.7887359 C31.4760412,23.1427446 31.3359784,24.5082616 31.2536397,25.9201093" id="Fill-4" fill="#71ADCE" sketch:type="MSShapeGroup"></path>
                <path d="M3.83527128,23.1013148 C3.82786516,21.2468944 5.45710314,19.7308769 7.46949902,19.719567 C9.53199515,19.7080587 11.2087194,21.1971905 11.2216801,23.0520078 C11.2346409,24.9214089 9.59592741,26.4438749 7.55172876,26.461435 C5.51417384,26.4788958 3.84278632,24.9677396 3.83527128,23.1013148" id="Fill-6" fill="#71ADCE" sketch:type="MSShapeGroup"></path>
                <mask id="mask-4" sketch:name="Clip 9" fill="white">
                    <use xlink:href="#path-3"></use>
                </mask>
                <g id="Clip-9"></g>
                <path d="M34.5646991,14.9144335 L16.2346556,14.9144335 L16.2346556,4.6293049 L34.5646991,4.6293049 L34.5646991,14.9144335 Z M16.2325862,1.68784802 L17.894825,1.68784802 L17.894825,3.02171721 L16.2325862,3.02171721 L16.2325862,1.68784802 Z M18.9177412,1.68001048 L20.5987131,1.68001048 L20.5987131,3.02042749 L18.9177412,3.02042749 L18.9177412,1.68001048 Z M21.6062724,1.68635988 L23.3182847,1.68635988 L23.3182847,3.01328442 L21.6062724,3.01328442 L21.6062724,1.68635988 Z M35.8422552,0.102880056 C28.8724407,0.102979266 21.9025173,0.108634196 14.9327028,0.0924630785 C14.3943431,0.0911733574 14.2289034,0.199609135 14.2312995,0.716192021 C14.254607,5.79183961 14.2454583,10.8676856 14.2469831,15.9434324 C14.2469831,16.104846 14.2620131,16.2661603 14.2712708,16.4535667 L36.4563099,16.4535667 L36.4563099,0.102880056 L35.8422552,0.102880056 Z" id="Fill-8" fill="#71ADCE" sketch:type="MSShapeGroup" mask="url(#mask-4)"></path>
                <path d="M24.2269615,14.188132 C23.7471972,12.5225069 23.305226,10.9883341 22.8236102,9.31635954 C22.4792255,9.94762839 22.217833,10.4644097 21.914182,10.9597618 C21.8256352,11.1042105 21.6189173,11.2809023 21.4626263,11.284077 C20.1596934,11.3099707 18.8557802,11.29876 17.5039451,11.29876 L17.5039451,10.1203518 C18.4286212,10.1203518 19.331079,10.1075538 20.2327744,10.1264036 C20.6176749,10.1344395 20.829294,10.0456472 21.0215264,9.69613279 C21.6699978,8.51712933 22.3871936,7.3693768 23.0807551,6.21090967 C23.1302019,6.12846673 23.2007779,6.05663919 23.3379001,5.88341973 C23.8033966,7.45023239 24.2415559,8.92537564 24.7099931,10.5023077 C25.2854924,9.54225914 25.8022872,8.67993181 26.3841035,7.70936711 C26.7914402,8.58270668 27.1997571,9.33570536 27.4914277,10.1245186 C27.7048982,10.7018176 28.015193,10.9065856 28.6974275,10.8763268 C30.0182223,10.8177933 31.3443538,10.8594612 32.6683071,10.8595604 L33.2904214,10.8595604 L33.2904214,11.9991777 C33.1124566,12.0082058 32.9226203,12.0259643 32.732675,12.0261627 C30.9735032,12.0283453 29.2136778,12.0049319 27.4553773,12.0411433 C26.9248593,12.0520563 26.6491991,11.8940159 26.5103343,11.4529313 C26.4520655,11.2680051 26.3548057,11.0933967 26.2255253,10.8019198 C25.5485186,11.9488786 24.9236815,13.0077396 24.2269615,14.188132" id="Fill-10" fill="#71ADCE" sketch:type="MSShapeGroup" mask="url(#mask-4)"></path>
            </g>
        </g>
    </g>
</svg>