<?xml version="1.0" encoding="UTF-8" standalone="no"?>
<svg width="40px" height="40px" viewBox="0 0 40 40" version="1.1" xmlns="http://www.w3.org/2000/svg" xmlns:xlink="http://www.w3.org/1999/xlink" xmlns:sketch="http://www.bohemiancoding.com/sketch/ns">
    <!-- Generator: Sketch 3.4.4 (17249) - http://www.bohemiancoding.com/sketch -->
    <title>Apple Watch 42mm</title>
    <desc>Created with Sketch.</desc>
    <defs>
        <path id="path-1" d="M0,0.0625485531 L24.6928386,0.0625485531 L24.6928386,22.4154686 L0,22.4154686"></path>
        <path id="path-3" d="M0,0.0625485531 L24.6928386,0.0625485531 L24.6928386,22.4154686 L0,22.4154686 L0,0.0625485531 Z"></path>
    </defs>
    <g id="Page-1" stroke="none" stroke-width="1" fill="none" fill-rule="evenodd" sketch:type="MSPage">
        <g id="Apple-Watch-42mm" sketch:type="MSArtboardGroup">
            <g id="Page-1-Copy-21" sketch:type="MSLayerGroup" transform="translate(8.000000, 9.000000)">
                <g id="Group-3">
                    <mask id="mask-2" sketch:name="Clip 2" fill="white">
                        <use xlink:href="#path-1"></use>
                    </mask>
                    <g id="Clip-2"></g>
                    <path d="M22.7334616,20.3320179 L1.88196012,20.3320179 C1.85487891,20.7997898 1.860251,21.2456831 1.79630108,21.6831874 C1.70350378,22.3184714 1.09277834,22.5838329 0.459092741,22.3044449 C0.14280187,22.1650529 0.0325636833,21.9492872 0.0335939467,21.6321822 C0.0426455468,18.9368899 0.0419096443,16.2415976 0.0369790979,13.5463723 C0.0357280638,12.8532377 -0.0072486391,12.1599689 0.00106705855,11.4670356 C0.00570324396,11.0790601 0.0398491175,10.684776 0.127347918,10.306062 C0.215950573,9.92238166 0.571980176,9.72171624 1.00505877,9.72822612 C1.38404853,9.73386355 1.62785301,9.91674424 1.72123903,10.3290815 C1.7825397,10.5999462 1.80123162,10.8829583 1.80152598,11.1606014 C1.80351292,13.5873779 1.79711057,16.0142215 1.79321029,18.4410651 C1.79306311,18.5740143 1.79321029,18.7068964 1.79321029,18.8672274 L22.7559802,18.8672274 C22.7559802,18.7368956 22.7569369,18.6081073 22.755833,18.479319 C22.7431755,16.9922473 22.7220551,15.5051756 22.7210248,14.0181039 C22.7205097,13.3124193 23.2778086,12.9202828 24.0076031,13.06699 C24.3537716,13.1365854 24.5398077,13.3474518 24.6142075,13.6308666 C24.6761704,13.8669001 24.6935377,14.1175641 24.6928018,14.361584 C24.6857372,16.7660121 24.6710191,19.1704403 24.6577729,21.5748013 C24.6551972,22.0388149 24.3412612,22.3433029 23.806113,22.4051132 C23.2791332,22.4661182 22.9112556,22.2571979 22.8016797,21.7809699 C22.7370675,21.5001054 22.7488419,21.2038722 22.7351542,20.9142832 C22.7262497,20.7270402 22.7334616,20.5391932 22.7334616,20.3320179" id="Fill-1" fill="#71ADCE" sketch:type="MSShapeGroup" mask="url(#mask-2)"></path>
                </g>
                <path d="M21.1173241,17.5341916 L20.6488486,17.5341916 C16.6627595,17.5339903 12.6766703,17.5310373 8.69058107,17.5391579 C8.39879575,17.5397619 8.26912974,17.4832534 8.27648876,17.1948724 C8.29407683,16.5028116 8.23204025,15.8057174 8.30018482,15.1187571 C8.39931088,14.119658 8.80626493,13.798996 9.91203195,13.7402058 C10.4131815,13.7135622 10.9170539,13.7255082 11.4196753,13.7242331 C13.8971645,13.7179916 16.3745801,13.7094684 18.8520692,13.7120186 C19.2296608,13.7124213 19.6091657,13.7539637 19.9844023,13.7995329 C20.5851931,13.8724167 20.9146566,14.2275744 21.0411582,14.739439 C21.2675954,15.6553861 21.1729584,16.5791181 21.1173241,17.5341916" id="Fill-4" fill="#71ADCE" sketch:type="MSShapeGroup"></path>
                <path d="M2.59139952,15.62736 C2.58639538,14.3728991 3.68723185,13.3473579 5.0469588,13.3397071 C6.44053726,13.3319221 7.57345908,14.3392759 7.58221632,15.5940053 C7.59097356,16.8586001 6.48373474,17.8885036 5.10251943,17.9003825 C3.72579314,17.9121942 2.59647724,16.8899415 2.59139952,15.62736" id="Fill-6" fill="#71ADCE" sketch:type="MSShapeGroup"></path>
                <mask id="mask-4" sketch:name="Clip 9" fill="white">
                    <use xlink:href="#path-3"></use>
                </mask>
                <g id="Clip-9"></g>
                <path d="M23.3545265,10.0891756 L10.9693619,10.0891756 L10.9693619,3.13158861 L23.3545265,3.13158861 L23.3545265,10.0891756 Z M10.9679637,1.14177954 L12.091098,1.14177954 L12.091098,2.04410282 L10.9679637,2.04410282 L10.9679637,1.14177954 Z M12.7822575,1.13647768 L13.9180494,1.13647768 L13.9180494,2.04323036 L12.7822575,2.04323036 L12.7822575,1.13647768 Z M14.5988327,1.14077286 L15.7555978,1.14077286 L15.7555978,2.03839829 L14.5988327,2.03839829 L14.5988327,1.14077286 Z M24.21774,0.0695953321 C19.5084059,0.0696624443 14.7989982,0.0734878387 10.0896641,0.0625485531 C9.7259075,0.0616760947 9.61412392,0.135029709 9.61574291,0.484482838 C9.63149122,3.91800915 9.62530964,7.35166969 9.6263399,10.7852631 C9.6263399,10.8944546 9.63649536,11.003579 9.64275053,11.130354 L24.6326418,11.130354 L24.6326418,0.0695953321 L24.21774,0.0695953321 Z" id="Fill-8" fill="#71ADCE" sketch:type="MSShapeGroup" mask="url(#mask-4)"></path>
                <path d="M16.3695686,9.597854 C16.0454035,8.47110759 15.7467743,7.43328481 15.4213583,6.30224322 C15.1886659,6.72927803 15.0120493,7.07886538 14.8068797,7.4139565 C14.7470508,7.51167184 14.6073766,7.63119864 14.5017746,7.63334623 C13.6214145,7.65086251 12.7403921,7.64327883 11.8269899,7.64327883 L11.8269899,6.84612034 C12.4517711,6.84612034 13.0615399,6.83746287 13.6707935,6.85021418 C13.9308614,6.85565027 14.0738473,6.79558487 14.2037341,6.55914865 C14.6418904,5.76158749 15.1264821,4.98516666 15.5951048,4.20149772 C15.6285148,4.14572749 15.6762013,4.09713827 15.7688514,3.97996041 C16.0833761,5.03986309 16.3794297,6.03775411 16.6959413,7.10450224 C17.0847921,6.45505766 17.4339779,5.87171858 17.8270969,5.2151601 C18.1023245,5.80594864 18.3782143,6.31533009 18.575289,6.84893905 C18.7195258,7.23946483 18.9291844,7.37798438 19.3901537,7.35751516 C20.2825826,7.31791897 21.1786175,7.34610609 22.0731805,7.3461732 L22.4935279,7.3461732 L22.4935279,8.11709083 C22.3732815,8.12319804 22.2450137,8.13521112 22.1166723,8.13534534 C20.9280427,8.13682181 19.7389715,8.12098334 18.5509306,8.14547928 C18.1924725,8.15286162 18.0062156,8.04595192 17.912388,7.74757116 C17.8730173,7.62247405 17.8073012,7.50435661 17.7199495,7.30718102 C17.2625126,8.08306495 16.8403254,8.79935327 16.3695686,9.597854" id="Fill-10" fill="#71ADCE" sketch:type="MSShapeGroup" mask="url(#mask-4)"></path>
            </g>
        </g>
    </g>
</svg>