<?xml version="1.0" encoding="UTF-8" standalone="no"?>
<svg width="40px" height="40px" viewBox="0 0 40 40" version="1.1" xmlns="http://www.w3.org/2000/svg" xmlns:xlink="http://www.w3.org/1999/xlink" xmlns:sketch="http://www.bohemiancoding.com/sketch/ns">
    <!-- Generator: Sketch 3.4.4 (17249) - http://www.bohemiancoding.com/sketch -->
    <title>Apple Watch 42mm</title>
    <desc>Created with Sketch.</desc>
    <defs>
        <path id="path-1" d="M0,0.0403787466 L24.9421824,0.0403787466 L24.9421824,29 L0,29"></path>
    </defs>
    <g id="Page-1" stroke="none" stroke-width="1" fill="none" fill-rule="evenodd" sketch:type="MSPage">
        <g id="Apple-Watch-42mm" sketch:type="MSArtboardGroup">
            <g id="Page-1" sketch:type="MSLayerGroup" transform="translate(8.000000, 6.000000)">
                <g id="Group-3">
                    <mask id="mask-2" sketch:name="Clip 2" fill="white">
                        <use xlink:href="#path-1"></use>
                    </mask>
                    <g id="Clip-2"></g>
                    <path d="M24.9421906,12.1417469 C24.9421906,5.45831362 19.3587215,0.0403708447 12.4710993,0.0403708447 C5.5834772,0.0403708447 8.14332265e-06,5.45831362 8.14332265e-06,12.1417469 C8.14332265e-06,12.3911311 0.00872149837,12.6384608 0.0240309446,12.8841311 C0.00872149837,12.9505071 8.14332265e-06,13.0192537 8.14332265e-06,13.0899757 L8.14332265e-06,23.294894 C8.14332265e-06,23.8164199 0.439747557,24.2431229 0.97720684,24.2431229 L4.68282573,24.2431229 L7.09292345,19.3377768 C4.80090391,17.7220738 3.31035016,15.1010112 3.31035016,12.1417469 C3.31035016,7.23237084 7.41173453,3.2525752 12.4710993,3.2525752 C17.5304642,3.2525752 21.6318485,7.23237084 21.6318485,12.1417469 C21.6318485,15.1423381 20.099601,17.7954826 17.7530212,19.4051801 L20.1551384,24.2431229 L23.9649919,24.2431229 C24.5024511,24.2431229 24.9421906,23.8164199 24.9421906,23.294894 L24.9421906,13.0899757 C24.9421906,13.0192537 24.9334772,12.9505071 24.9181678,12.8841311 C24.9334772,12.6384608 24.9421906,12.3911311 24.9421906,12.1417469" id="Fill-1" fill="#71ADCE" sketch:type="MSShapeGroup" mask="url(#mask-2)"></path>
                </g>
                <path d="M16.5498127,17.3386654 L8.41561075,17.3386654 L8.41561075,14.7836627 C8.41561075,14.3116027 8.81365635,13.9253575 9.30013844,13.9253575 L15.665285,13.9253575 C16.1517671,13.9253575 16.5498127,14.3116027 16.5498127,14.7836627 L16.5498127,17.3386654 Z" id="Fill-4" fill="#71ADCE" sketch:type="MSShapeGroup"></path>
                <path d="M16.5498208,17.6578946 L12.4827199,17.6578946 L8.41561889,17.6578946 L5.17148208,24.263494 L12.4827199,24.263494 L19.7939577,24.263494 L16.5498208,17.6578946 Z" id="Fill-6" fill="#71ADCE" sketch:type="MSShapeGroup"></path>
                <path d="M19.0853339,26.6317668 L5.88012215,26.6317668 C5.49038274,26.6317668 5.17149023,26.3223281 5.17149023,25.9441428 L5.17149023,24.5828022 L19.7939658,24.5828022 L19.7939658,25.9441428 C19.7939658,26.3223281 19.4750733,26.6317668 19.0853339,26.6317668" id="Fill-8" fill="#71ADCE" sketch:type="MSShapeGroup"></path>
                <path d="M16.0253827,29 L8.94004072,29 C8.64916124,29 8.41121336,28.7691063 8.41121336,28.4868501 L8.41121336,26.9510354 L16.5542101,26.9510354 L16.5542101,28.4868501 C16.5542101,28.7691063 16.3162622,29 16.0253827,29" id="Fill-10" fill="#71ADCE" sketch:type="MSShapeGroup"></path>
                <path d="M12.4827117,3.64334033 C7.63922638,3.64334033 3.71284202,7.45332398 3.71284202,12.1532204 C3.71284202,14.984948 5.13865635,17.4931714 7.33124593,19.0401278 L8.10339577,17.5581251 L8.10339577,17.5581251 L8.10339577,17.2341469 L8.10339577,16.5905365 L8.10339577,14.6669752 C8.10339577,14.6213812 8.10803746,14.5768144 8.11495928,14.5329589 C7.70689739,13.829373 7.47318404,13.0180052 7.47318404,12.1532204 C7.47318404,9.46854741 9.71601792,7.29212507 12.4827117,7.29212507 C15.2494055,7.29212507 17.4922394,9.46854741 17.4922394,12.1532204 C17.4922394,13.0180052 17.2584446,13.829373 16.8504642,14.5329589 C16.857386,14.5768144 16.8620277,14.6213812 16.8620277,14.6669752 L16.8620277,16.662918 L16.8620277,17.2341469 L16.8620277,17.5581251 L16.8620277,17.5581251 L17.6341775,19.0401278 C19.8267671,17.4931714 21.2525814,14.984948 21.2525814,12.1532204 C21.2525814,7.45332398 17.3261971,3.64334033 12.4827117,3.64334033" id="Fill-12" fill="#71ADCE" sketch:type="MSShapeGroup"></path>
            </g>
        </g>
    </g>
</svg>