<?xml version="1.0" encoding="UTF-8" standalone="no"?>
<svg width="348px" height="416px" viewBox="0 0 348 416" version="1.1" xmlns="http://www.w3.org/2000/svg" xmlns:xlink="http://www.w3.org/1999/xlink" xmlns:sketch="http://www.bohemiancoding.com/sketch/ns">
    <!-- Generator: Sketch 3.4.4 (17249) - http://www.bohemiancoding.com/sketch -->
    <title>Page 1</title>
    <desc>Created with Sketch.</desc>
    <defs>
        <path id="path-1" d="M0,0.579226158 L347.195179,0.579226158 L347.195179,416 L0,416"></path>
    </defs>
    <g id="Page-1" stroke="none" stroke-width="1" fill="none" fill-rule="evenodd" sketch:type="MSPage">
        <g id="Desktop-HD-Copy-9" sketch:type="MSArtboardGroup" transform="translate(-177.000000, -287.000000)">
            <g id="Page-1" sketch:type="MSLayerGroup" transform="translate(177.000000, 287.000000)">
                <g id="Group-3">
                    <mask id="mask-2" sketch:name="Clip 2" fill="white">
                        <use xlink:href="#path-1"></use>
                    </mask>
                    <g id="Clip-2"></g>
                    <path d="M347.195293,174.171265 C347.195293,78.2985678 269.473403,0.579112807 173.597703,0.579112807 C77.7220026,0.579112807 0.000113355049,78.2985678 0.000113355049,174.171265 C0.000113355049,177.748639 0.121403257,181.296541 0.334510749,184.820639 C0.121403257,185.772791 0.000113355049,186.758949 0.000113355049,187.773445 L0.000113355049,334.161238 C0.000113355049,341.642437 6.12128599,347.763418 13.6027192,347.763418 L65.1849342,347.763418 L98.7334945,277.397075 C66.8285824,254.220094 46.0800743,216.621402 46.0800743,174.171265 C46.0800743,103.747113 103.171345,46.6576305 173.597703,46.6576305 C244.024061,46.6576305 301.115332,103.747113 301.115332,174.171265 C301.115332,217.21423 279.786446,255.273129 247.122055,278.363963 L280.559527,347.763418 L333.592687,347.763418 C341.07412,347.763418 347.195293,341.642437 347.195293,334.161238 L347.195293,187.773445 C347.195293,186.758949 347.074003,185.772791 346.860895,184.820639 C347.074003,181.296541 347.195293,177.748639 347.195293,174.171265" id="Fill-1" fill="#221F20" sketch:type="MSShapeGroup" mask="url(#mask-2)"></path>
                </g>
                <path d="M230.373393,248.720166 L117.145302,248.720166 L117.145302,212.069092 C117.145302,205.297474 122.686096,199.756852 129.457927,199.756852 L218.060767,199.756852 C224.832598,199.756852 230.373393,205.297474 230.373393,212.069092 L230.373393,248.720166 Z" id="Fill-4" fill="#221F20" sketch:type="MSShapeGroup"></path>
                <path d="M230.373506,253.299453 L173.759461,253.299453 L117.145415,253.299453 L71.9870306,348.055638 L173.759461,348.055638 L275.531891,348.055638 L230.373506,253.299453 Z" id="Fill-6" fill="#221F20" sketch:type="MSShapeGroup"></path>
                <path d="M265.667848,382.028102 L81.8513003,382.028102 C76.4261277,382.028102 71.987144,377.589258 71.987144,372.164255 L71.987144,352.636059 L275.532004,352.636059 L275.532004,372.164255 C275.532004,377.589258 271.09302,382.028102 265.667848,382.028102" id="Fill-8" fill="#221F20" sketch:type="MSShapeGroup"></path>
                <path d="M223.073328,416 L124.445367,416 C120.396324,416 117.08409,412.687869 117.08409,408.638954 L117.08409,386.607956 L230.434605,386.607956 L230.434605,408.638954 C230.434605,412.687869 227.12237,416 223.073328,416" id="Fill-10" fill="#221F20" sketch:type="MSShapeGroup"></path>
                <path d="M173.759347,52.2630888 C106.338031,52.2630888 51.6827609,106.916647 51.6827609,174.335852 C51.6827609,214.956495 71.5300964,250.936528 102.050943,273.12735 L112.799269,251.868277 L112.799269,251.868277 L112.799269,247.220865 L112.799269,237.988386 L112.799269,210.395231 C112.799269,209.741192 112.863881,209.10189 112.960233,208.472789 C107.280012,198.379972 104.026722,186.74104 104.026722,174.335852 C104.026722,135.82468 135.246969,104.604277 173.759347,104.604277 C212.271725,104.604277 243.491973,135.82468 243.491973,174.335852 C243.491973,186.74104 240.237549,198.379972 234.558461,208.472789 C234.654813,209.10189 234.719425,209.741192 234.719425,210.395231 L234.719425,239.026686 L234.719425,247.220865 L234.719425,251.868277 L234.719425,251.868277 L245.467751,273.12735 C275.988598,250.936528 295.835934,214.956495 295.835934,174.335852 C295.835934,106.916647 241.180663,52.2630888 173.759347,52.2630888" id="Fill-12" fill="#221F20" sketch:type="MSShapeGroup"></path>
            </g>
        </g>
    </g>
</svg>