<?xml version="1.0" encoding="UTF-8" standalone="no"?>
<svg width="348px" height="348px" viewBox="0 0 348 348" version="1.1" xmlns="http://www.w3.org/2000/svg" xmlns:xlink="http://www.w3.org/1999/xlink" xmlns:sketch="http://www.bohemiancoding.com/sketch/ns">
    <!-- Generator: Sketch 3.4.4 (17249) - http://www.bohemiancoding.com/sketch -->
    <title>Group 3</title>
    <desc>Created with Sketch.</desc>
    <defs>
        <path id="path-1" d="M0,0.579226158 L347.195179,0.579226158 L347.195179,416 L0,416"></path>
    </defs>
    <g id="Page-1" stroke="none" stroke-width="1" fill="none" fill-rule="evenodd" sketch:type="MSPage">
        <g id="Desktop-HD-Copy-9" sketch:type="MSArtboardGroup" transform="translate(-177.000000, -287.000000)">
            <g id="Page-1" sketch:type="MSLayerGroup" transform="translate(177.000000, 287.000000)">
                <g id="Group-3">
                    <mask id="mask-2" sketch:name="Clip 2" fill="white">
                        <use xlink:href="#path-1"></use>
                    </mask>
                    <g id="Clip-2"></g>
                    <path d="M347.195293,174.171265 C347.195293,78.2985678 269.473403,0.579112807 173.597703,0.579112807 C77.7220026,0.579112807 0.000113355049,78.2985678 0.000113355049,174.171265 C0.000113355049,177.748639 0.121403257,181.296541 0.334510749,184.820639 C0.121403257,185.772791 0.000113355049,186.758949 0.000113355049,187.773445 L0.000113355049,334.161238 C0.000113355049,341.642437 6.12128599,347.763418 13.6027192,347.763418 L65.1849342,347.763418 L98.7334945,277.397075 C66.8285824,254.220094 46.0800743,216.621402 46.0800743,174.171265 C46.0800743,103.747113 103.171345,46.6576305 173.597703,46.6576305 C244.024061,46.6576305 301.115332,103.747113 301.115332,174.171265 C301.115332,217.21423 279.786446,255.273129 247.122055,278.363963 L280.559527,347.763418 L333.592687,347.763418 C341.07412,347.763418 347.195293,341.642437 347.195293,334.161238 L347.195293,187.773445 C347.195293,186.758949 347.074003,185.772791 346.860895,184.820639 C347.074003,181.296541 347.195293,177.748639 347.195293,174.171265" id="Fill-1" fill="#71ADCE" sketch:type="MSShapeGroup" mask="url(#mask-2)"></path>
                </g>
            </g>
        </g>
    </g>
</svg>