<?xml version="1.0" encoding="UTF-8" standalone="no"?>
<svg width="34px" height="40px" viewBox="0 0 34 40" version="1.1" xmlns="http://www.w3.org/2000/svg" xmlns:xlink="http://www.w3.org/1999/xlink" xmlns:sketch="http://www.bohemiancoding.com/sketch/ns">
    <!-- Generator: Sketch 3.4.4 (17249) - http://www.bohemiancoding.com/sketch -->
    <title>Page 1</title>
    <desc>Created with Sketch.</desc>
    <defs>
        <path id="path-1" d="M0,0.0556948229 L33.9213681,0.0556948229 L33.9213681,40 L0,40"></path>
    </defs>
    <g id="Page-1" stroke="none" stroke-width="1" fill="none" fill-rule="evenodd" sketch:type="MSPage">
        <g id="Desktop-HD-Copy-8" sketch:type="MSArtboardGroup" transform="translate(-685.000000, -433.000000)">
            <g id="Page-1" sketch:type="MSLayerGroup" transform="translate(685.000000, 433.000000)">
                <g id="Group-3">
                    <mask id="mask-2" sketch:name="Clip 2" fill="white">
                        <use xlink:href="#path-1"></use>
                    </mask>
                    <g id="Clip-2"></g>
                    <path d="M33.9213792,16.7472371 C33.9213792,7.52870845 26.3278612,0.0556839237 16.9606951,0.0556839237 C7.59352899,0.0556839237 1.10749188e-05,7.52870845 1.10749188e-05,16.7472371 C1.10749188e-05,17.0912153 0.0118612378,17.4323597 0.0326820847,17.7712153 C0.0118612378,17.8627684 1.10749188e-05,17.9575913 1.10749188e-05,18.055139 L1.10749188e-05,32.1308883 C1.10749188e-05,32.8502343 0.598056678,33.4387902 1.3290013,33.4387902 L6.368643,33.4387902 L9.6463759,26.6727956 C6.52922932,24.4442398 4.50207622,20.8289809 4.50207622,16.7472371 C4.50207622,9.97568392 10.079959,4.48631063 16.9606951,4.48631063 C23.8414313,4.48631063 29.419314,9.97568392 29.419314,16.7472371 C29.419314,20.8859837 27.3354573,24.5454932 24.1441088,26.7657657 L27.4109883,33.4387902 L32.5923889,33.4387902 C33.3233336,33.4387902 33.9213792,32.8502343 33.9213792,32.1308883 L33.9213792,18.055139 C33.9213792,17.9575913 33.909529,17.8627684 33.8887081,17.7712153 C33.909529,17.4323597 33.9213792,17.0912153 33.9213792,16.7472371" id="Fill-1" fill="#71ADCE" sketch:type="MSShapeGroup" mask="url(#mask-2)"></path>
                </g>
                <path d="M22.5077453,23.9154005 L11.4452306,23.9154005 L11.4452306,20.3912589 C11.4452306,19.7401417 11.9865726,19.2073896 12.6481883,19.2073896 L21.3047876,19.2073896 C21.9664033,19.2073896 22.5077453,19.7401417 22.5077453,20.3912589 L22.5077453,23.9154005 Z" id="Fill-4" fill="#71ADCE" sketch:type="MSShapeGroup"></path>
                <path d="M22.5077564,24.3557166 L16.976499,24.3557166 L11.4452417,24.3557166 L7.03321564,33.4668883 L16.976499,33.4668883 L26.9197824,33.4668883 L22.5077564,24.3557166 Z" id="Fill-6" fill="#71ADCE" sketch:type="MSShapeGroup"></path>
                <path d="M25.9560541,36.7334714 L7.99696612,36.7334714 C7.46692052,36.7334714 7.03322671,36.3066594 7.03322671,35.7850245 L7.03322671,33.9073134 L26.9197935,33.9073134 L26.9197935,35.7850245 C26.9197935,36.3066594 26.4860997,36.7334714 25.9560541,36.7334714" id="Fill-8" fill="#71ADCE" sketch:type="MSShapeGroup"></path>
                <path d="M21.7945205,40 L12.1584554,40 C11.7628593,40 11.4392502,39.6815259 11.4392502,39.2922071 L11.4392502,37.173842 L22.5137257,37.173842 L22.5137257,39.2922071 C22.5137257,39.6815259 22.1901166,40 21.7945205,40" id="Fill-10" fill="#71ADCE" sketch:type="MSShapeGroup"></path>
                <path d="M16.9764879,5.025297 C10.3893479,5.025297 5.04946515,10.2804469 5.04946515,16.7630627 C5.04946515,20.6688937 6.98857264,24.1285123 9.97049446,26.2622452 L11.0206182,24.2181035 L11.0206182,24.2181035 L11.0206182,23.7712371 L11.0206182,22.8834986 L11.0206182,20.2303106 C11.0206182,20.1674223 11.0269309,20.105951 11.0363446,20.0454605 C10.4813805,19.0749973 10.1635303,17.9558692 10.1635303,16.7630627 C10.1635303,13.0600654 13.2137844,10.0581035 16.9764879,10.0581035 C20.7391915,10.0581035 23.7894456,13.0600654 23.7894456,16.7630627 C23.7894456,17.9558692 23.4714847,19.0749973 22.9166313,20.0454605 C22.926045,20.105951 22.9323577,20.1674223 22.9323577,20.2303106 L22.9323577,22.9833351 L22.9323577,23.7712371 L22.9323577,24.2181035 L22.9323577,24.2181035 L23.9824814,26.2622452 C26.9644033,24.1285123 28.9035107,20.6688937 28.9035107,16.7630627 C28.9035107,10.2804469 23.563628,5.025297 16.9764879,5.025297" id="Fill-12" fill="#71ADCE" sketch:type="MSShapeGroup"></path>
            </g>
        </g>
    </g>
</svg>