<?xml version="1.0" encoding="UTF-8" standalone="no"?>
<svg width="40px" height="40px" viewBox="0 0 40 40" version="1.1" xmlns="http://www.w3.org/2000/svg" xmlns:xlink="http://www.w3.org/1999/xlink" xmlns:sketch="http://www.bohemiancoding.com/sketch/ns">
    <!-- Generator: Sketch 3.4.4 (17249) - http://www.bohemiancoding.com/sketch -->
    <title>Apple Watch 42mm</title>
    <desc>Created with Sketch.</desc>
    <defs></defs>
    <g id="Page-1" stroke="none" stroke-width="1" fill="none" fill-rule="evenodd" sketch:type="MSPage">
        <g id="Apple-Watch-42mm" sketch:type="MSArtboardGroup">
            <g id="Page-1-Copy-20" sketch:type="MSLayerGroup" transform="translate(19.000000, 19.500000) scale(-1, 1) translate(-19.000000, -19.500000) translate(9.000000, 4.000000)">
                <path d="M11.7409378,19.4350205 L11.7409378,19.5395988 L9.80283684,20.9402012 L5.24829958,20.9402012 L3.31019862,19.5395988 L3.31019862,19.4350205 L11.7409378,19.4350205 L11.7409378,19.4350205 Z" id="Stroke-1" stroke="#71ADCE" stroke-width="0.596153851" sketch:type="MSShapeGroup"></path>
                <path d="M11.7409378,16.4097193 L11.7409378,19.4350205 L3.31019862,19.4350205 L3.31019862,16.4097193 L5.24829958,14.8709241 L5.24829958,6.37393614 L7.52750631,4.83140602 L9.80283684,6.37393614 L9.80283684,14.8709241 L11.7409378,16.4097193 Z" id="Fill-2" fill="#71ADCE" sketch:type="MSShapeGroup"></path>
                <path d="M11.7409378,16.4097193 L11.7409378,19.4350205 L3.31019862,19.4350205 L3.31019862,16.4097193 L5.24829958,14.8709241 L5.24829958,6.37393614 L7.52750631,4.83140602 L9.80283684,6.37393614 L9.80283684,14.8709241 L11.7409378,16.4097193 L11.7409378,16.4097193 Z" id="Stroke-3" stroke="#71ADCE" stroke-width="0.596153851" sketch:type="MSShapeGroup"></path>
                <path id="Stroke-4" stroke="#71ADCE" stroke-width="0.596153851" sketch:type="MSShapeGroup" d="M5.41172025,14.7040843 L9.80461989,14.7040843"></path>
                <g id="Group-13" stroke="#71ADCE" stroke-width="1.49038463" sketch:type="MSShapeGroup">
                    <path d="M7.5273125,4.83271325 C7.5273125,-1.5932506 15.7320691,-1.5932506 15.7320691,4.83271325 L15.7320691,14.704159 C15.7312939,17.3238458 17.0336977,18.7326651 19.8827061,18.7035325" id="Stroke-5"></path>
                    <path d="M3.79685577,23.8363855 C6.44546454,25.794241 9.09407332,25.794241 11.7426821,23.8363855" id="Stroke-7"></path>
                    <path d="M1.81010847,26.0645386 C5.7805021,28.7996349 9.74546905,28.8071048 13.7050093,26.0645386" id="Stroke-9"></path>
                    <path d="M0.0658176082,28.5250048 C5.2986902,31.799053 10.5315628,31.799053 15.7644354,28.5250048" id="Stroke-11"></path>
                </g>
            </g>
        </g>
    </g>
</svg>