<?xml version="1.0" encoding="UTF-8" standalone="no"?>
<svg width="27px" height="43px" viewBox="0 0 27 43" version="1.1" xmlns="http://www.w3.org/2000/svg" xmlns:xlink="http://www.w3.org/1999/xlink" xmlns:sketch="http://www.bohemiancoding.com/sketch/ns">
    <!-- Generator: Sketch 3.4.4 (17249) - http://www.bohemiancoding.com/sketch -->
    <title>Page 1 Copy 20</title>
    <desc>Created with Sketch.</desc>
    <defs></defs>
    <g id="Page-1" stroke="none" stroke-width="1" fill="none" fill-rule="evenodd" sketch:type="MSPage">
        <g id="Desktop-HD-Copy-8" sketch:type="MSArtboardGroup" transform="translate(-689.000000, -372.000000)">
            <g id="Page-1-Copy-20" sketch:type="MSLayerGroup" transform="translate(702.000000, 393.500000) scale(-1, 1) translate(-702.000000, -393.500000) translate(689.000000, 373.000000)">
                <path d="M15.2632191,25.7043819 L15.2632191,25.8426952 L12.7436879,27.6951048 L6.82278945,27.6951048 L4.3032582,25.8426952 L4.3032582,25.7043819 L15.2632191,25.7043819 L15.2632191,25.7043819 Z" id="Stroke-1" stroke="#71ADCE" stroke-width="0.620000005" sketch:type="MSShapeGroup"></path>
                <path d="M15.2632191,21.7031771 L15.2632191,25.7043819 L4.3032582,25.7043819 L4.3032582,21.7031771 L6.82278945,19.6679964 L6.82278945,8.43004458 L9.7857582,6.3899241 L12.7436879,8.43004458 L12.7436879,19.6679964 L15.2632191,21.7031771 Z" id="Fill-2" fill="#71ADCE" sketch:type="MSShapeGroup"></path>
                <path d="M15.2632191,21.7031771 L15.2632191,25.7043819 L4.3032582,25.7043819 L4.3032582,21.7031771 L6.82278945,19.6679964 L6.82278945,8.43004458 L9.7857582,6.3899241 L12.7436879,8.43004458 L12.7436879,19.6679964 L15.2632191,21.7031771 L15.2632191,21.7031771 Z" id="Stroke-3" stroke="#71ADCE" stroke-width="0.620000005" sketch:type="MSShapeGroup"></path>
                <path id="Stroke-4" stroke="#71ADCE" stroke-width="0.620000005" sketch:type="MSShapeGroup" d="M7.03523633,19.4473373 L12.7460059,19.4473373"></path>
                <g id="Group-13" stroke="#71ADCE" stroke-width="1.55000001" sketch:type="MSShapeGroup">
                    <path d="M9.78550625,6.39165301 C9.78550625,-2.10720241 20.4516898,-2.10720241 20.4516898,6.39165301 L20.4516898,19.4474361 C20.450682,22.9121831 22.143807,24.7754602 25.847518,24.7369301" id="Stroke-5"></path>
                    <path d="M4.9359125,31.5255422 C8.37910391,34.1149639 11.8222953,34.1149639 15.2654867,31.5255422" id="Stroke-7"></path>
                    <path d="M2.35314102,34.4724542 C7.51465273,38.0898398 12.6691098,38.0997193 17.8165121,34.4724542" id="Stroke-9"></path>
                    <path d="M0.0855628906,37.7266193 C6.88829727,42.056812 13.6910316,42.056812 20.493766,37.7266193" id="Stroke-11"></path>
                </g>
            </g>
        </g>
    </g>
</svg>