<?xml version="1.0" encoding="UTF-8" standalone="no"?>
<svg width="30px" height="33px" viewBox="0 0 30 33" version="1.1" xmlns="http://www.w3.org/2000/svg" xmlns:xlink="http://www.w3.org/1999/xlink" xmlns:sketch="http://www.bohemiancoding.com/sketch/ns">
    <!-- Generator: Sketch 3.4.4 (17249) - http://www.bohemiancoding.com/sketch -->
    <title>Page 1 Copy 16</title>
    <desc>Created with Sketch.</desc>
    <defs>
        <path id="path-1" d="M0,0.012731608 L29.7634472,0.012731608 L29.7634472,32.7384205 L0,32.7384205"></path>
        <path id="path-3" d="M0,0.012731608 L29.7634472,0.012731608 L29.7634472,32.7384205 L0,32.7384205"></path>
    </defs>
    <g id="Page-1" stroke="none" stroke-width="1" fill="none" fill-rule="evenodd" sketch:type="MSPage">
        <g id="Desktop-HD-Copy-8" sketch:type="MSArtboardGroup" transform="translate(-193.000000, -433.000000)">
            <g id="Page-1-Copy-16" sketch:type="MSLayerGroup" transform="translate(193.000000, 433.000000)">
                <g id="Group-3">
                    <mask id="mask-2" sketch:name="Clip 2" fill="white">
                        <use xlink:href="#path-1"></use>
                    </mask>
                    <g id="Clip-2"></g>
                    <path d="M5.76644322,15.3019195 C5.16922691,17.3424325 5.43929296,19.3711233 5.39431206,21.3816261 C5.38419587,21.8317794 5.29676312,22.0942324 4.84587022,22.3204913 C3.18356397,23.1549572 2.35006244,25.1134423 2.80781989,26.9333347 C3.26395152,28.7459519 4.86158644,30.0100187 6.71284861,30.0227503 C8.6134272,30.0358457 10.2139525,28.7963327 10.6892326,26.9427925 C11.1495191,25.1481814 10.3534113,23.218979 8.72036974,22.3625056 C8.23912829,22.1102378 8.09461133,21.8326888 8.11068885,21.31815 C8.15458587,19.932951 8.11972116,18.5450239 8.176986,17.1607343 C8.19559256,16.7085803 8.40170986,16.2644291 8.55273008,15.7022377 C10.4916057,17.2293031 12.5668691,17.9853787 14.8690242,17.9851969 C17.1715405,17.9848331 19.2552944,17.2527656 21.1069178,15.7706246 C21.8235413,16.8228011 21.6105594,17.9360892 21.6195917,18.8140245 C20.4975982,19.2860034 19.4075791,19.5693727 18.5159095,20.1575729 C16.8653452,21.2468529 16.2032769,22.9330635 16.2207996,24.9024614 C16.2278448,25.6850915 16.2493417,26.4286174 15.7619583,27.1668688 C15.2422392,27.953864 15.6264737,29.0593314 16.4104781,29.6388014 C17.176418,30.2048123 18.2633661,30.1340609 18.9640927,29.472563 C19.6825226,28.794332 19.8077104,27.7723477 19.3364045,26.9200575 C18.6456135,25.670723 18.7814594,24.3726446 19.3837338,23.1667794 C19.9067045,22.1193319 21.1401567,21.6504449 22.2140983,21.8985294 C23.3720404,22.166075 24.2357099,23.1509559 24.3202523,24.3488183 C24.3618009,24.9370186 24.3789623,25.5324941 24.3336201,26.1190574 C24.3128458,26.3866031 24.1377996,26.6545125 23.9918375,26.8975043 C23.4782604,27.7530684 23.628558,28.8256154 24.3753494,29.5002088 C25.1113019,30.1651624 26.2347406,30.1979009 26.9873127,29.5764165 C27.7559622,28.9416549 28.0431896,27.7941733 27.480838,27.007178 C27.0778164,26.4433497 27.0801648,25.8777025 27.0924487,25.2738605 C27.1166553,24.0981875 27.0288613,22.9252426 26.3761866,21.9283577 C25.9381196,21.2592208 25.3020643,20.7237657 24.7787323,20.1077378 C24.6069378,19.905669 24.4152722,19.6455804 24.396485,19.3994966 C24.2940586,18.0519469 24.2423938,16.7003957 24.1706772,15.2970088 C25.0343467,15.4368746 25.8096801,15.9406825 26.5243165,16.5612575 C28.0169959,17.857517 28.668948,19.6222998 29.1413378,21.4632903 C29.6693667,23.5216275 29.8462193,25.6239798 29.7287993,27.7477939 C29.5794049,30.4481679 27.8408659,32.3204418 25.1727217,32.649281 C24.7259836,32.7042088 24.2732843,32.7336734 23.823114,32.7340372 C17.8623316,32.7394936 11.9015492,32.7394936 5.94058614,32.7360379 C4.82654108,32.7353103 3.73724454,32.6010828 2.72345812,32.0801782 C1.14840397,31.2709935 0.220063191,29.9490889 0.0787978688,28.2186815 C-0.183139109,25.0099525 0.185559768,21.8654272 1.5266771,18.8969619 C2.2357134,17.3278821 3.36583597,16.1636675 4.95479988,15.4792527 C5.12009114,15.4079557 5.29369213,15.3552104 5.46657054,15.3048296 C5.52799024,15.2870054 5.5986229,15.3019195 5.76644322,15.3019195" id="Fill-1" fill="#71ADCE" sketch:type="MSShapeGroup" mask="url(#mask-2)"></path>
                </g>
                <g id="Group-6">
                    <mask id="mask-4" sketch:name="Clip 5" fill="white">
                        <use xlink:href="#path-3"></use>
                    </mask>
                    <g id="Clip-5"></g>
                    <path d="M6.76754828,8.18362297 C6.81704534,3.56495936 10.4415305,-0.0428145788 14.9753886,0.0132044963 C19.4660723,0.0688598111 23.0199249,3.71173661 22.9969828,8.23564068 C22.9738601,12.7715488 19.3213747,16.4055135 14.8227426,16.3682281 C10.3403687,16.3309427 6.71967704,12.6520536 6.76754828,8.18362297" id="Fill-4" fill="#71ADCE" sketch:type="MSShapeGroup" mask="url(#mask-4)"></path>
                </g>
                <path d="M6.7347068,27.2745236 C6.02548985,27.2619739 5.41617025,26.6135713 5.43170582,25.8876877 C5.44706075,25.1639868 6.09774833,24.5430481 6.80443623,24.5772415 C7.50118859,24.6110712 8.07401767,25.2203696 8.07058539,25.9237 C8.06715311,26.6548581 7.44193664,27.2868915 6.7347068,27.2745236" id="Fill-7" fill="#71ADCE" sketch:type="MSShapeGroup"></path>
            </g>
        </g>
    </g>
</svg>