<?xml version="1.0" encoding="UTF-8" standalone="no"?>
<svg width="40px" height="40px" viewBox="0 0 40 40" version="1.1" xmlns="http://www.w3.org/2000/svg" xmlns:xlink="http://www.w3.org/1999/xlink" xmlns:sketch="http://www.bohemiancoding.com/sketch/ns">
    <!-- Generator: Sketch 3.4.4 (17249) - http://www.bohemiancoding.com/sketch -->
    <title>Apple Watch 42mm</title>
    <desc>Created with Sketch.</desc>
    <defs>
        <path id="path-1" d="M0,0.0108025765 L24.8028727,0.0108025765 L24.8028727,27.7780537 L0,27.7780537"></path>
        <path id="path-3" d="M0,0.0108025765 L24.8028727,0.0108025765 L24.8028727,27.7780537 L0,27.7780537"></path>
    </defs>
    <g id="Page-1" stroke="none" stroke-width="1" fill="none" fill-rule="evenodd" sketch:type="MSPage">
        <g id="Apple-Watch-42mm" sketch:type="MSArtboardGroup">
            <g id="Page-1-Copy-16" sketch:type="MSLayerGroup" transform="translate(8.000000, 6.000000)">
                <g id="Group-3">
                    <mask id="mask-2" sketch:name="Clip 2" fill="white">
                        <use xlink:href="#path-1"></use>
                    </mask>
                    <g id="Clip-2"></g>
                    <path d="M4.80536935,12.9834469 C4.30768909,14.7147912 4.53274414,16.4361046 4.49526005,18.1419858 C4.48682989,18.523934 4.41396926,18.7466214 4.03822519,18.9385986 C2.65296997,19.6466304 1.95838536,21.3083753 2.33984991,22.8525264 C2.7199596,24.3905047 4.05132203,25.4630462 5.59404051,25.4738488 C7.177856,25.48496 8.51162705,24.433252 8.90769382,22.8605512 C9.2912659,21.3378509 8.62784276,19.7009519 7.26697479,18.9742471 C6.86594024,18.7602018 6.74550945,18.5247056 6.75890737,18.0881272 C6.79548823,16.9128069 6.7664343,15.7351718 6.814155,14.5606231 C6.82966046,14.1769773 7.00142488,13.8001217 7.12727506,13.3231108 C8.74300471,14.6188026 10.4723909,15.2603214 12.3908535,15.260167 C14.3096171,15.2598584 16.0460786,14.6387102 17.5890982,13.381136 C18.1862844,14.2738918 18.0087995,15.2185 18.0163264,15.9634148 C17.0813318,16.3638817 16.1729826,16.6043162 15.4299246,17.1033952 C14.0544544,18.0276328 13.5027308,19.4583569 13.517333,21.1293611 C13.523204,21.793411 13.5411181,22.4242814 13.1349652,23.0506765 C12.701866,23.7184301 13.0220614,24.6564024 13.6753984,25.1480739 C14.3136816,25.6283256 15.2194718,25.5682941 15.8034106,25.0070231 C16.4021022,24.4315544 16.5064253,23.5644162 16.1136704,22.8412609 C15.5380112,21.7812195 15.6512162,20.6798196 16.1531115,19.6566613 C16.5889204,18.7679179 17.6167973,18.3700745 18.5117486,18.5805704 C19.4767003,18.8075788 20.1964249,19.6432353 20.2668769,20.6596034 C20.3015007,21.1586824 20.3158019,21.6639344 20.2780167,22.1616245 C20.2607048,22.3886329 20.114833,22.61595 19.9931979,22.8221249 C19.565217,23.548058 19.690465,24.4580979 20.3127911,25.0304802 C20.926085,25.5946833 21.8622838,25.6224613 22.4894272,25.0951413 C23.1299685,24.5565557 23.3693247,23.5829349 22.9006984,22.9151814 C22.564847,22.4367815 22.566804,21.9568385 22.5770406,21.4444877 C22.5972128,20.446947 22.5240511,19.451721 21.9801555,18.6058793 C21.6150996,18.0381267 21.0850536,17.5838012 20.6489436,17.0611109 C20.5057815,16.8896585 20.3460601,16.6689773 20.3304041,16.460179 C20.2450488,15.3168034 20.2019948,14.1700328 20.142231,12.9792802 C20.8619556,13.0979542 21.5080668,13.5254276 22.1035971,14.051976 C23.3474966,15.1518326 23.89079,16.649224 24.2844482,18.2112766 C24.7244722,19.9577446 24.8718494,21.7415586 24.7739994,23.5435827 C24.649504,25.8348091 23.2007216,27.4234052 20.977268,27.7024203 C20.6049864,27.7490257 20.2277369,27.7740259 19.852595,27.7743346 C14.8852763,27.7789642 9.91795765,27.7789642 4.95048845,27.7760321 C4.02211757,27.7754148 3.11437045,27.6615248 2.26954843,27.2195451 C0.957003308,26.5329642 0.183385992,25.4113481 0.0656648907,23.9431237 C-0.152615924,21.2205658 0.15463314,18.5524837 1.27223091,16.0337858 C1.8630945,14.7024454 2.80486331,13.714627 4.1289999,13.1339113 C4.26674262,13.0734169 4.41141011,13.0286634 4.55547545,12.985916 C4.60665854,12.9707924 4.66551909,12.9834469 4.80536935,12.9834469" id="Fill-1" fill="#71ADCE" sketch:type="MSShapeGroup" mask="url(#mask-2)"></path>
                </g>
                <g id="Group-6">
                    <mask id="mask-4" sketch:name="Clip 5" fill="white">
                        <use xlink:href="#path-3"></use>
                    </mask>
                    <g id="Clip-5"></g>
                    <path d="M5.63962357,6.94368009 C5.68087111,3.024814 8.70127544,-0.0363275214 12.4794905,0.011203815 C16.2217269,0.0584265064 19.1832707,3.14935228 19.1641523,6.98781634 C19.1448834,10.8364657 16.1011456,13.9198296 12.3522855,13.8881935 C8.61697388,13.8565574 5.59973087,10.7350758 5.63962357,6.94368009" id="Fill-4" fill="#71ADCE" sketch:type="MSShapeGroup" mask="url(#mask-4)"></path>
                </g>
                <path d="M5.61225567,23.14202 C5.02124155,23.1313718 4.51347521,22.581212 4.52642152,21.9653108 C4.53921729,21.3512615 5.08145694,20.8244044 5.67036353,20.853417 C6.2509905,20.882121 6.72834806,21.3991015 6.72548783,21.9958667 C6.72262759,22.6162432 6.20161387,23.152514 5.61225567,23.14202" id="Fill-7" fill="#71ADCE" sketch:type="MSShapeGroup"></path>
            </g>
        </g>
    </g>
</svg>