<?xml version="1.0" encoding="utf-8"?>
<!-- Generator: Adobe Illustrator 16.0.0, SVG Export Plug-In . SVG Version: 6.00 Build 0)  -->
<!DOCTYPE svg PUBLIC "-//W3C//DTD SVG 1.1//EN" "http://www.w3.org/Graphics/SVG/1.1/DTD/svg11.dtd">
<svg version="1.1" id="Layer_1" xmlns="http://www.w3.org/2000/svg" xmlns:xlink="http://www.w3.org/1999/xlink" x="0px" y="0px"
	 width="222.657px" height="54.5px" viewBox="0 0 222.657 54.5" enable-background="new 0 0 222.657 54.5" xml:space="preserve">
<g>
	<g>
		
			<path fill="#FFFFFF" stroke="#FFFFFF" stroke-width="7" stroke-linecap="round" stroke-linejoin="round" stroke-miterlimit="10" d="
			M29.21,28.953c-0.064,3.446-0.328,6.385-2.414,9.334c-2.322,3.225-5.801,4.627-9.74,4.627c-7.412,0-12.59-5.029-12.59-12.459
			c0-7.674,5.188-12.721,12.814-12.721c4.857,0,8.607,2.193,10.645,6.611l-5.836,2.443c-0.842-2.252-2.619-3.758-5.094-3.758
			c-4.051,0-6.146,3.857-6.146,7.455c0,3.67,2.203,7.398,6.227,7.398c2.672,0,4.709-1.383,4.951-4.107h-5v-4.824H29.21z"/>
		
			<path fill="#FFFFFF" stroke="#FFFFFF" stroke-width="7" stroke-linecap="round" stroke-linejoin="round" stroke-miterlimit="10" d="
			M37.849,36.936h7.367v5.208H31.712V18.526h6.137V36.936z"/>
		
			<path fill="#FFFFFF" stroke="#FFFFFF" stroke-width="7" stroke-linecap="round" stroke-linejoin="round" stroke-miterlimit="10" d="
			M71.804,29.889c0,7.641-5.484,13.025-13.059,13.025c-7.582,0-13.064-5.385-13.064-13.025c0-7.139,6.266-12.154,13.064-12.154
			C65.526,17.734,71.804,22.75,71.804,29.889z M52.071,29.926c0,4.074,3.014,7.047,6.674,7.047c3.666,0,6.674-2.973,6.674-7.047
			c0-3.256-3.008-6.234-6.674-6.234C55.085,23.691,52.071,26.67,52.071,29.926z"/>
		
			<path fill="#FFFFFF" stroke="#FFFFFF" stroke-width="7" stroke-linecap="round" stroke-linejoin="round" stroke-miterlimit="10" d="
			M74.657,42.144V18.526h8.773c4.186,0,7.014,1.62,7.014,6.134c0,2.129-0.688,3.852-2.605,4.826v0.064
			c3.389,0.438,4.816,2.717,4.816,6.004c0,4.957-4.225,6.589-8.539,6.589H74.657z M80.782,27.793h0.715
			c1.607,0,3.299-0.277,3.299-2.282c0-2.167-1.906-2.289-3.57-2.289h-0.443V27.793z M80.782,37.439h0.795
			c1.812,0,4.896,0.09,4.896-2.504c0-2.848-3.043-2.57-5.047-2.57h-0.645V37.439z"/>
		
			<path fill="#FFFFFF" stroke="#FFFFFF" stroke-width="7" stroke-linecap="round" stroke-linejoin="round" stroke-miterlimit="10" d="
			M101.837,38.032l-1.625,4.111H93.7l9.08-23.617h6.705l8.895,23.617h-6.543l-1.533-4.111H101.837z M106.134,25.814h-0.062
			l-2.543,7.521h5.115L106.134,25.814z"/>
		
			<path fill="#FFFFFF" stroke="#FFFFFF" stroke-width="7" stroke-linecap="round" stroke-linejoin="round" stroke-miterlimit="10" d="
			M126.245,36.936h7.359v5.208h-13.498V18.526h6.139V36.936z"/>
	</g>
	<g>
		
			<path fill="#FFFFFF" stroke="#FFFFFF" stroke-width="7" stroke-linecap="round" stroke-linejoin="round" stroke-miterlimit="10" d="
			M156.856,30.265c0.062,3.196-0.277,5.827-2.443,8.331c-2.158,2.514-5.457,3.944-8.746,3.944c-6.633,0-12.139-5.511-12.139-12.138
			c0-6.77,5.506-12.29,12.303-12.29c4.145,0,7.484,1.847,9.986,5.109l-1.914,1.788c-1.963-2.786-4.629-4.453-8.102-4.453
			c-5.398,0-9.646,4.547-9.646,9.871c0,2.494,0.998,4.881,2.756,6.667c1.721,1.726,4.223,3.011,6.707,3.011
			c4.09,0,8.418-3.011,8.418-7.395h-7.021v-2.446H156.856z"/>
		
			<path fill="#FFFFFF" stroke="#FFFFFF" stroke-width="7" stroke-linecap="round" stroke-linejoin="round" stroke-miterlimit="10" d="
			M163.677,40.752c0,0.978-0.777,1.788-1.748,1.788c-0.969,0-1.746-0.811-1.746-1.788c0-0.936,0.777-1.713,1.746-1.713
			C162.899,39.039,163.677,39.816,163.677,40.752z"/>
		
			<path fill="#FFFFFF" stroke="#FFFFFF" stroke-width="7" stroke-linecap="round" stroke-linejoin="round" stroke-miterlimit="10" d="
			M172.948,35.439l-2.842,6.704h-2.875l10.895-24.75l10.617,24.75h-2.914l-2.789-6.704H172.948z M178.063,23.535l-4.041,9.462h7.977
			L178.063,23.535z"/>
		
			<path fill="#FFFFFF" stroke="#FFFFFF" stroke-width="7" stroke-linecap="round" stroke-linejoin="round" stroke-miterlimit="10" d="
			M196.478,40.752c0,0.978-0.787,1.788-1.754,1.788c-0.971,0-1.754-0.811-1.754-1.788c0-0.936,0.783-1.713,1.754-1.713
			C195.69,39.039,196.478,39.816,196.478,40.752z"/>
		
			<path fill="#FFFFFF" stroke="#FFFFFF" stroke-width="7" stroke-linecap="round" stroke-linejoin="round" stroke-miterlimit="10" d="
			M204.247,42.144h-2.635V18.526h3.881c2.031,0,4.131,0.06,5.863,1.242c1.762,1.229,2.662,3.301,2.662,5.394
			c0,1.906-0.783,3.86-2.246,5.078c-1.611,1.315-3.643,1.564-5.613,1.564h-1.912V42.144z M204.247,29.362h1.76
			c2.904,0,5.385-0.882,5.385-4.259c0-3.854-3.111-4.141-6.182-4.141h-0.963V29.362z"/>
		
			<path fill="#FFFFFF" stroke="#FFFFFF" stroke-width="7" stroke-linecap="round" stroke-linejoin="round" stroke-miterlimit="10" d="
			M217.183,40.752c0,0.978-0.781,1.788-1.758,1.788c-0.963,0-1.76-0.811-1.76-1.788c0-0.936,0.797-1.713,1.76-1.713
			C216.401,39.039,217.183,39.816,217.183,40.752z"/>
	</g>
</g>
<g>
	<g>
		<path fill="#089E49" d="M29.21,28.953c-0.064,3.446-0.328,6.385-2.414,9.334c-2.322,3.225-5.801,4.627-9.74,4.627
			c-7.412,0-12.59-5.029-12.59-12.459c0-7.674,5.188-12.721,12.814-12.721c4.857,0,8.607,2.193,10.645,6.611l-5.836,2.443
			c-0.842-2.252-2.619-3.758-5.094-3.758c-4.051,0-6.146,3.857-6.146,7.455c0,3.67,2.203,7.398,6.227,7.398
			c2.672,0,4.709-1.383,4.951-4.107h-5v-4.824H29.21z"/>
		<path fill="#089E49" d="M37.849,36.936h7.367v5.208H31.712V18.526h6.137V36.936z"/>
		<path fill="#089E49" d="M71.804,29.889c0,7.641-5.484,13.025-13.059,13.025c-7.582,0-13.064-5.385-13.064-13.025
			c0-7.139,6.266-12.154,13.064-12.154C65.526,17.734,71.804,22.75,71.804,29.889z M52.071,29.926c0,4.074,3.014,7.047,6.674,7.047
			c3.666,0,6.674-2.973,6.674-7.047c0-3.256-3.008-6.234-6.674-6.234C55.085,23.691,52.071,26.67,52.071,29.926z"/>
		<path fill="#089E49" d="M74.657,42.144V18.526h8.773c4.186,0,7.014,1.62,7.014,6.134c0,2.129-0.688,3.852-2.605,4.826v0.064
			c3.389,0.438,4.816,2.717,4.816,6.004c0,4.957-4.225,6.589-8.539,6.589H74.657z M80.782,27.793h0.715
			c1.607,0,3.299-0.277,3.299-2.282c0-2.167-1.906-2.289-3.57-2.289h-0.443V27.793z M80.782,37.439h0.795
			c1.812,0,4.896,0.09,4.896-2.504c0-2.848-3.043-2.57-5.047-2.57h-0.645V37.439z"/>
		<path fill="#089E49" d="M101.837,38.032l-1.625,4.111H93.7l9.08-23.617h6.705l8.895,23.617h-6.543l-1.533-4.111H101.837z
			 M106.134,25.814h-0.062l-2.543,7.521h5.115L106.134,25.814z"/>
		<path fill="#089E49" d="M126.245,36.936h7.359v5.208h-13.498V18.526h6.139V36.936z"/>
	</g>
	<g>
		<path fill="#089E49" d="M156.856,30.265c0.062,3.196-0.277,5.827-2.443,8.331c-2.158,2.514-5.457,3.944-8.746,3.944
			c-6.633,0-12.139-5.511-12.139-12.138c0-6.77,5.506-12.29,12.303-12.29c4.145,0,7.484,1.847,9.986,5.109l-1.914,1.788
			c-1.963-2.786-4.629-4.453-8.102-4.453c-5.398,0-9.646,4.547-9.646,9.871c0,2.494,0.998,4.881,2.756,6.667
			c1.721,1.726,4.223,3.011,6.707,3.011c4.09,0,8.418-3.011,8.418-7.395h-7.021v-2.446H156.856z"/>
		<path fill="#089E49" d="M163.677,40.752c0,0.978-0.777,1.788-1.748,1.788c-0.969,0-1.746-0.811-1.746-1.788
			c0-0.936,0.777-1.713,1.746-1.713C162.899,39.039,163.677,39.816,163.677,40.752z"/>
		<path fill="#089E49" d="M172.948,35.439l-2.842,6.704h-2.875l10.895-24.75l10.617,24.75h-2.914l-2.789-6.704H172.948z
			 M178.063,23.535l-4.041,9.462h7.977L178.063,23.535z"/>
		<path fill="#089E49" d="M196.478,40.752c0,0.978-0.787,1.788-1.754,1.788c-0.971,0-1.754-0.811-1.754-1.788
			c0-0.936,0.783-1.713,1.754-1.713C195.69,39.039,196.478,39.816,196.478,40.752z"/>
		<path fill="#089E49" d="M204.247,42.144h-2.635V18.526h3.881c2.031,0,4.131,0.06,5.863,1.242c1.762,1.229,2.662,3.301,2.662,5.394
			c0,1.906-0.783,3.86-2.246,5.078c-1.611,1.315-3.643,1.564-5.613,1.564h-1.912V42.144z M204.247,29.362h1.76
			c2.904,0,5.385-0.882,5.385-4.259c0-3.854-3.111-4.141-6.182-4.141h-0.963V29.362z"/>
		<path fill="#089E49" d="M217.183,40.752c0,0.978-0.781,1.788-1.758,1.788c-0.963,0-1.76-0.811-1.76-1.788
			c0-0.936,0.797-1.713,1.76-1.713C216.401,39.039,217.183,39.816,217.183,40.752z"/>
	</g>
</g>
</svg>
