<?xml version="1.0" encoding="utf-8"?>
<!-- Generator: Adobe Illustrator 16.0.0, SVG Export Plug-In . SVG Version: 6.00 Build 0)  -->
<!DOCTYPE svg PUBLIC "-//W3C//DTD SVG 1.1//EN" "http://www.w3.org/Graphics/SVG/1.1/DTD/svg11.dtd">
<svg version="1.1" id="Layer_1" xmlns="http://www.w3.org/2000/svg" xmlns:xlink="http://www.w3.org/1999/xlink" x="0px" y="0px"
	 width="110.5px" height="158.546px" viewBox="0 0 110.5 158.546" enable-background="new 0 0 110.5 158.546" xml:space="preserve">
<g>
	<g>
		<defs>
			<rect id="SVGID_3_" x="16.72" y="3.857" width="72.831" height="143.418"/>
		</defs>
		<clipPath id="SVGID_2_">
			<use xlink:href="#SVGID_3_"  overflow="visible"/>
		</clipPath>
		<polygon clip-path="url(#SVGID_2_)" fill="none" stroke="#FFFFFF" stroke-width="0.6055" stroke-miterlimit="10" points="
			17.031,95.75 17.669,77.347 21.646,76.588 21.397,83.879 26.234,82.95 26.505,75.663 30.462,74.918 29.817,93.308 25.854,94.063 
			26.117,86.523 21.245,87.448 20.981,94.985 17.031,95.75 		"/>
	</g>
	<g>
		<defs>
			<rect id="SVGID_5_" x="16.72" y="3.857" width="72.831" height="143.418"/>
		</defs>
		<clipPath id="SVGID_4_">
			<use xlink:href="#SVGID_5_"  overflow="visible"/>
		</clipPath>
		<path clip-path="url(#SVGID_4_)" fill="none" stroke="#FFFFFF" stroke-width="0.6055" stroke-miterlimit="10" d="M82.793,73.126
			c1.566-0.375,2.253-1.417,2.309-2.772c0.034-1.348-0.582-2.142-2.142-1.92l-2.023,0.388l-0.174,4.688L82.793,73.126L82.793,73.126
			z M76.452,84.413l0.645-18.397l6.563-1.261c3.514-0.662,5.745,0.357,5.6,4.813c-0.167,4.453-2.502,6.352-6.016,7.02l-2.606,0.492
			l-0.229,6.574L76.452,84.413L76.452,84.413z"/>
	</g>
	<g>
		
			<path fill-rule="evenodd" clip-rule="evenodd" fill="#005CAB" stroke="#FFFFFF" stroke-width="5" stroke-linecap="round" stroke-linejoin="round" stroke-miterlimit="10" d="
			M17.787,119.806l60.695-9.73c4.997-1.081,6.958-2.388,8.92-8.032c0,9.99,0,15.229,0,15.229c-0.098,4.775-1.317,8.692-6.702,9.926
			c-7.429,1.158-62.913,10.146-62.913,10.146V119.806L17.787,119.806z"/>
		
			<path fill="#FFFFFF" stroke="#FFFFFF" stroke-width="5" stroke-linecap="round" stroke-linejoin="round" stroke-miterlimit="10" d="
			M72.925,102.4c0.083-0.745,0.152-1.511,0.152-2.315c0-0.707-0.049-1.396-0.132-2.062c-0.104,0.738-0.152,1.483-0.152,2.231
			C72.793,101.014,72.835,101.735,72.925,102.4L72.925,102.4z"/>
		
			<path fill-rule="evenodd" clip-rule="evenodd" fill="#FFFFFF" stroke="#FFFFFF" stroke-width="5" stroke-linecap="round" stroke-linejoin="round" stroke-miterlimit="10" d="
			M20.704,135.979l5.344-15.806l4.969-0.849l5.329,14.001l-4.871,0.825l-0.568-1.857l-4.858,0.825l-0.555,2.044L20.704,135.979
			L20.704,135.979z M28.48,124.232l-1.525,5.669l3.112-0.527L28.48,124.232L28.48,124.232z"/>
		
			<path fill-rule="evenodd" clip-rule="evenodd" fill="#FFFFFF" stroke="#FFFFFF" stroke-width="5" stroke-linecap="round" stroke-linejoin="round" stroke-miterlimit="10" d="
			M51.191,121.594l-4.637,0.787c-0.076-0.724-0.333-1.261-0.797-1.594c-0.443-0.347-1.012-0.461-1.698-0.34
			c-0.859,0.149-1.58,0.603-2.12,1.362c-0.548,0.773-0.805,1.904-0.805,3.415c0,1.026,0.111,1.795,0.347,2.301
			c0.222,0.506,0.555,0.846,0.971,1.04c0.415,0.194,0.929,0.243,1.538,0.132c0.756-0.132,1.358-0.43,1.802-0.929
			c0.458-0.478,0.7-1.144,0.797-1.982l4.706-0.804c-0.104,0.95-0.298,1.753-0.568,2.439c-0.256,0.666-0.714,1.386-1.338,2.114
			c-0.616,0.735-1.372,1.352-2.238,1.844s-1.857,0.838-3.001,1.04c-1.129,0.18-2.196,0.201-3.16,0.021
			c-0.942-0.173-1.753-0.513-2.419-1.025c-0.658-0.499-1.157-1.123-1.524-1.864c-0.526-1.026-0.783-2.218-0.783-3.583
			c0-1.158,0.201-2.273,0.555-3.335c0.381-1.06,0.901-1.996,1.56-2.782c0.658-0.79,1.386-1.417,2.183-1.896
			c1.026-0.613,2.155-1.012,3.396-1.223c1.074-0.184,2.072-0.198,3.035-0.035c0.942,0.159,1.705,0.495,2.336,1.022
			c0.589,0.517,1.066,1.14,1.393,1.899C50.948,120.146,51.101,120.804,51.191,121.594L51.191,121.594z"/>
		
			<path fill-rule="evenodd" clip-rule="evenodd" fill="#FFFFFF" stroke="#FFFFFF" stroke-width="5" stroke-linecap="round" stroke-linejoin="round" stroke-miterlimit="10" d="
			M66.361,119.016l-4.615,0.79c-0.09-0.738-0.354-1.268-0.804-1.604c-0.451-0.333-1.013-0.454-1.712-0.333
			c-0.859,0.146-1.566,0.603-2.114,1.362c-0.54,0.759-0.811,1.902-0.811,3.399c0,1.035,0.118,1.811,0.347,2.31
			c0.242,0.499,0.554,0.846,0.977,1.046c0.409,0.194,0.922,0.236,1.546,0.132c0.755-0.132,1.352-0.443,1.795-0.922
			c0.443-0.499,0.728-1.15,0.79-1.991l4.706-0.797c-0.104,0.946-0.277,1.755-0.562,2.42c-0.25,0.686-0.721,1.393-1.338,2.127
			c-0.624,0.735-1.372,1.358-2.245,1.851c-0.853,0.485-1.871,0.832-3.001,1.019c-1.123,0.201-2.176,0.201-3.146,0.042
			c-0.963-0.18-1.768-0.527-2.419-1.04c-0.658-0.499-1.164-1.116-1.538-1.851c-0.526-1.04-0.776-2.231-0.776-3.595
			c0-1.154,0.194-2.263,0.562-3.33c0.374-1.063,0.9-1.992,1.56-2.782c0.651-0.787,1.386-1.424,2.189-1.899
			c1.012-0.603,2.135-1.012,3.375-1.23c1.088-0.18,2.101-0.187,3.036-0.031c0.942,0.17,1.726,0.506,2.335,1.033
			c0.597,0.506,1.067,1.14,1.394,1.889C66.119,117.571,66.278,118.233,66.361,119.016L66.361,119.016z"/>
		
			<polygon fill-rule="evenodd" clip-rule="evenodd" fill="#FFFFFF" stroke="#FFFFFF" stroke-width="5" stroke-linecap="round" stroke-linejoin="round" stroke-miterlimit="10" points="
			67.395,128.044 67.395,113.146 73.312,112.137 75.939,120.998 78.545,111.243 84.471,110.231 84.471,125.147 80.021,125.896 
			80.021,117.54 77.623,126.305 74.214,126.887 71.788,118.933 71.788,127.296 67.395,128.044 		"/>
		
			<polygon fill-rule="evenodd" clip-rule="evenodd" fill="#ED1C24" stroke="#FFFFFF" stroke-width="5" stroke-linecap="round" stroke-linejoin="round" stroke-miterlimit="10" points="
			18.195,50.125 86.986,36.756 86.986,43.596 18.195,56.958 18.195,50.125 		"/>
		
			<polygon fill-rule="evenodd" clip-rule="evenodd" fill="#FFE100" stroke="#FFFFFF" stroke-width="5" stroke-linecap="round" stroke-linejoin="round" stroke-miterlimit="10" points="
			18.195,52.342 86.986,38.977 86.986,41.5 18.195,54.861 18.195,52.342 		"/>
		
			<polygon fill="#005CAB" stroke="#FFFFFF" stroke-width="5" stroke-linecap="round" stroke-linejoin="round" stroke-miterlimit="10" points="
			50.041,8.643 47.088,6.81 48.945,3.857 51.884,5.705 50.041,8.643 		"/>
		
			<path fill="#005CAB" stroke="#FFFFFF" stroke-width="5" stroke-linecap="round" stroke-linejoin="round" stroke-miterlimit="10" d="
			M58.163,29.763l-1.054-4.986c3.424-0.056,6.051-2.724,6.051-5.995c0-3.316-2.683-6.008-6.016-6.008
			c-0.943,0-1.844,0.26-2.647,0.662c-0.402,0.226-0.812,0.6-1.282,0.978c-0.597,0.464-1.262,1.49-1.524,1.909l-0.319,0.007
			l-0.305-0.253c-0.43-0.416-0.673-0.53-0.942-0.651c-0.59-0.26-1.428-0.468-2.419-0.707c-0.166-0.024-0.333-0.062-0.499-0.062
			c-3.312,0-5.988,2.703-5.988,6.009c0,3.316,2.676,5.998,5.988,5.998l0.388-0.014l1.311,6.168
			c-1.768,2.131-4.442,3.493-7.423,3.493c-5.343,0-9.668-4.332-9.668-9.665c0-3.843,2.253-7.163,5.496-8.726
			c1.206-4.335,5.17-7.53,9.896-7.53c1.164,0,2.273,0.194,3.299,0.544c1.788-1.521,4.131-2.429,6.64-2.429
			c3.223,0,6.085,1.476,7.97,3.773c4.671,0.683,8.24,4.702,8.24,9.564c0,5.336-4.317,9.661-9.647,9.661
			C61.635,31.502,59.736,30.862,58.163,29.763L58.163,29.763z M67.353,17.538c0.042,0.405,0.076,0.821,0.076,1.244
			c0,3.614-1.871,6.792-4.698,8.622c0.325,0.052,0.637,0.086,0.977,0.086c3.105,0,5.642-2.533,5.642-5.648
			C69.349,20.113,68.565,18.571,67.353,17.538L67.353,17.538z M37.198,22.964c-0.853,0.991-1.372,2.277-1.372,3.68
			c0,3.119,2.537,5.641,5.655,5.641c1.477,0,2.849-0.575,3.854-1.528C41.309,30.023,38.113,26.929,37.198,22.964L37.198,22.964z"/>
		
			<polygon fill-rule="evenodd" clip-rule="evenodd" fill="#005CAB" stroke="#FFFFFF" stroke-width="5" stroke-linecap="round" stroke-linejoin="round" stroke-miterlimit="10" points="
			18.479,44.317 19.048,44.216 19.048,48.316 18.479,48.413 18.479,44.317 		"/>
		
			<polygon fill-rule="evenodd" clip-rule="evenodd" fill="#005CAB" stroke="#FFFFFF" stroke-width="5" stroke-linecap="round" stroke-linejoin="round" stroke-miterlimit="10" points="
			19.858,44.054 20.518,43.929 22.59,46.857 22.59,43.544 23.103,43.433 23.103,47.536 22.485,47.657 20.393,44.736 20.393,48.052 
			19.858,48.153 19.858,44.054 		"/>
		
			<path fill-rule="evenodd" clip-rule="evenodd" fill="#005CAB" stroke="#FFFFFF" stroke-width="5" stroke-linecap="round" stroke-linejoin="round" stroke-miterlimit="10" d="
			M27.274,43.232c0.277,0.312,0.401,0.752,0.401,1.313c0,0.617-0.152,1.154-0.457,1.611c-0.36,0.544-0.887,0.887-1.56,1.019
			c-0.63,0.111-1.122,0.007-1.489-0.343c-0.319-0.343-0.479-0.825-0.479-1.441c0-0.551,0.132-1.046,0.416-1.494
			c0.347-0.582,0.866-0.921,1.566-1.06C26.387,42.706,26.928,42.834,27.274,43.232L27.274,43.232z M26.782,45.938
			c0.215-0.395,0.326-0.825,0.326-1.275c0-0.475-0.125-0.849-0.368-1.088c-0.256-0.246-0.609-0.333-1.039-0.246
			c-0.423,0.08-0.77,0.292-1.04,0.638c-0.263,0.333-0.401,0.793-0.401,1.358c0,0.447,0.117,0.818,0.354,1.084
			c0.222,0.264,0.589,0.354,1.108,0.253C26.214,46.569,26.561,46.323,26.782,45.938L26.782,45.938z"/>
		
			<path fill-rule="evenodd" clip-rule="evenodd" fill="#005CAB" stroke="#FFFFFF" stroke-width="5" stroke-linecap="round" stroke-linejoin="round" stroke-miterlimit="10" d="
			M31.19,42.2c0.284,0.225,0.443,0.506,0.471,0.838l-0.526,0.104c-0.062-0.253-0.188-0.433-0.374-0.554
			c-0.174-0.125-0.438-0.146-0.776-0.087c-0.396,0.083-0.721,0.281-0.971,0.617c-0.242,0.318-0.367,0.779-0.367,1.369
			c0,0.481,0.118,0.853,0.318,1.098c0.223,0.264,0.568,0.343,1.006,0.264c0.422-0.08,0.728-0.302,0.936-0.659
			c0.124-0.177,0.2-0.409,0.263-0.689l0.548-0.104c-0.056,0.44-0.222,0.835-0.485,1.178c-0.325,0.409-0.77,0.666-1.33,0.776
			c-0.465,0.086-0.867,0.017-1.186-0.205c-0.423-0.305-0.638-0.849-0.638-1.646c0-0.606,0.159-1.133,0.465-1.57
			c0.354-0.495,0.831-0.79,1.441-0.915C30.504,41.926,30.906,41.988,31.19,42.2L31.19,42.2z"/>
		
			<path fill-rule="evenodd" clip-rule="evenodd" fill="#005CAB" stroke="#FFFFFF" stroke-width="5" stroke-linecap="round" stroke-linejoin="round" stroke-miterlimit="10" d="
			M32.908,41.576v2.536c0,0.302,0.049,0.527,0.16,0.704c0.166,0.274,0.45,0.371,0.838,0.291c0.472-0.083,0.783-0.312,0.95-0.666
			c0.104-0.184,0.146-0.433,0.146-0.734v-2.533l0.568-0.093v2.294c0,0.506-0.076,0.908-0.208,1.199
			c-0.25,0.541-0.721,0.88-1.407,1.012c-0.693,0.135-1.164-0.027-1.399-0.478c-0.153-0.25-0.215-0.61-0.215-1.116V41.69
			L32.908,41.576L32.908,41.576z"/>
		
			<polygon fill-rule="evenodd" clip-rule="evenodd" fill="#005CAB" stroke="#FFFFFF" stroke-width="5" stroke-linecap="round" stroke-linejoin="round" stroke-miterlimit="10" points="
			36.471,40.904 37.039,40.8 37.039,44.896 36.471,45.003 36.471,40.904 		"/>
		
			<path fill-rule="evenodd" clip-rule="evenodd" fill="#005CAB" stroke="#FFFFFF" stroke-width="5" stroke-linecap="round" stroke-linejoin="round" stroke-miterlimit="10" d="
			M39.423,43.967c0.181-0.042,0.34-0.086,0.465-0.152c0.208-0.111,0.381-0.284,0.526-0.516c0.111-0.18,0.188-0.416,0.229-0.683
			c0.035-0.153,0.042-0.309,0.042-0.434c0-0.516-0.097-0.883-0.298-1.123c-0.194-0.246-0.527-0.322-0.978-0.243l-0.97,0.191v3.143
			L39.423,43.967L39.423,43.967z M37.871,40.637l1.663-0.319c0.562-0.1,0.991,0.007,1.303,0.35c0.298,0.312,0.423,0.752,0.423,1.307
			c0,0.44-0.097,0.842-0.257,1.227c-0.284,0.679-0.782,1.084-1.476,1.216l-1.656,0.305V40.637L37.871,40.637z"/>
		
			<path fill-rule="evenodd" clip-rule="evenodd" fill="#005CAB" stroke="#FFFFFF" stroke-width="5" stroke-linecap="round" stroke-linejoin="round" stroke-miterlimit="10" d="
			M43.983,41.891l-0.617-1.694l-0.665,1.944L43.983,41.891L43.983,41.891z M43.082,39.646l0.624-0.122l1.483,3.815l-0.617,0.114
			L44.164,42.3l-1.615,0.315l-0.443,1.31l-0.575,0.107L43.082,39.646L43.082,39.646z"/>
		
			<path fill-rule="evenodd" clip-rule="evenodd" fill="#005CAB" stroke="#FFFFFF" stroke-width="5" stroke-linecap="round" stroke-linejoin="round" stroke-miterlimit="10" d="
			M47.192,42.487c0.18-0.028,0.34-0.08,0.464-0.146c0.208-0.118,0.374-0.277,0.521-0.517c0.11-0.184,0.193-0.416,0.242-0.683
			c0.027-0.156,0.034-0.305,0.034-0.44c0-0.506-0.104-0.883-0.305-1.126c-0.194-0.243-0.52-0.322-0.978-0.236l-0.977,0.194v3.139
			L47.192,42.487L47.192,42.487z M45.64,39.164l1.656-0.322c0.568-0.104,0.998,0.018,1.317,0.347
			c0.263,0.312,0.408,0.759,0.408,1.313c0,0.44-0.076,0.849-0.249,1.227c-0.291,0.679-0.783,1.081-1.477,1.22l-1.656,0.308V39.164
			L45.64,39.164z"/>
		
			<path fill-rule="evenodd" clip-rule="evenodd" fill="#005CAB" stroke="#FFFFFF" stroke-width="5" stroke-linecap="round" stroke-linejoin="round" stroke-miterlimit="10" d="
			M52.951,40.187l-0.616-1.681l-0.666,1.919L52.951,40.187L52.951,40.187z M52.029,37.951l0.624-0.121l1.497,3.812l-0.61,0.115
			l-0.415-1.147l-1.615,0.308l-0.45,1.307l-0.562,0.118L52.029,37.951L52.029,37.951z"/>
		
			<polygon fill-rule="evenodd" clip-rule="evenodd" fill="#005CAB" stroke="#FFFFFF" stroke-width="5" stroke-linecap="round" stroke-linejoin="round" stroke-miterlimit="10" points="
			54.573,37.47 55.12,37.355 55.12,40.962 57.206,40.571 57.206,41.06 54.573,41.565 54.573,37.47 		"/>
		
			<polygon fill-rule="evenodd" clip-rule="evenodd" fill="#005CAB" stroke="#FFFFFF" stroke-width="5" stroke-linecap="round" stroke-linejoin="round" stroke-miterlimit="10" points="
			57.796,36.856 58.35,36.752 58.35,40.841 57.796,40.956 57.796,36.856 		"/>
		
			<path fill-rule="evenodd" clip-rule="evenodd" fill="#005CAB" stroke="#FFFFFF" stroke-width="5" stroke-linecap="round" stroke-linejoin="round" stroke-miterlimit="10" d="
			M59.147,36.593l0.797-0.149l1.171,3.237l1.171-3.684l0.79-0.149v4.099l-0.52,0.104v-2.429c0-0.076,0-0.222,0-0.405
			c0.007-0.194,0.007-0.405,0.007-0.627l-1.171,3.673l-0.541,0.111l-1.178-3.236v0.121c0,0.111,0,0.253,0,0.464
			c0,0.201,0.014,0.354,0.014,0.451v2.415l-0.54,0.097V36.593L59.147,36.593z"/>
		
			<polygon fill-rule="evenodd" clip-rule="evenodd" fill="#005CAB" stroke="#FFFFFF" stroke-width="5" stroke-linecap="round" stroke-linejoin="round" stroke-miterlimit="10" points="
			63.895,35.699 66.881,35.127 66.881,35.626 64.435,36.098 64.435,37.334 66.694,36.905 66.694,37.379 64.435,37.812 
			64.435,39.202 66.923,38.731 66.923,39.213 63.895,39.792 63.895,35.699 		"/>
		
			<polygon fill-rule="evenodd" clip-rule="evenodd" fill="#005CAB" stroke="#FFFFFF" stroke-width="5" stroke-linecap="round" stroke-linejoin="round" stroke-miterlimit="10" points="
			67.567,34.999 68.219,34.864 70.291,37.795 70.291,34.483 70.824,34.382 70.824,38.471 70.194,38.592 68.101,35.675 
			68.101,38.987 67.567,39.091 67.567,34.999 		"/>
		
			<polygon fill-rule="evenodd" clip-rule="evenodd" fill="#005CAB" stroke="#FFFFFF" stroke-width="5" stroke-linecap="round" stroke-linejoin="round" stroke-miterlimit="10" points="
			74.588,33.665 74.588,34.146 73.209,34.414 73.209,38.017 72.641,38.128 72.641,34.528 71.269,34.777 71.269,34.292 
			74.588,33.665 		"/>
		
			<path fill-rule="evenodd" clip-rule="evenodd" fill="#005CAB" stroke="#FFFFFF" stroke-width="5" stroke-linecap="round" stroke-linejoin="round" stroke-miterlimit="10" d="
			M76.694,35.682l-0.63-1.698l-0.651,1.944L76.694,35.682L76.694,35.682z M75.78,33.443l0.63-0.132l1.483,3.818l-0.603,0.118
			l-0.423-1.15l-1.615,0.312l-0.443,1.3l-0.568,0.121L75.78,33.443L75.78,33.443z"/>
		
			<path fill-rule="evenodd" clip-rule="evenodd" fill="#005CAB" stroke="#FFFFFF" stroke-width="5" stroke-linecap="round" stroke-linejoin="round" stroke-miterlimit="10" d="
			M80.223,34.465c0.263-0.048,0.478-0.132,0.609-0.267c0.146-0.135,0.229-0.333,0.229-0.606c0-0.298-0.097-0.482-0.305-0.537
			c-0.118-0.031-0.271-0.031-0.45,0l-1.365,0.256v1.4L80.223,34.465L80.223,34.465z M78.379,32.944l1.905-0.364
			c0.319-0.052,0.568-0.062,0.77-0.003c0.389,0.094,0.582,0.381,0.582,0.849c0,0.26-0.055,0.461-0.166,0.638
			c-0.097,0.177-0.242,0.326-0.416,0.464c0.159,0.028,0.277,0.086,0.367,0.173c0.076,0.093,0.125,0.263,0.125,0.495l0.027,0.551
			c0,0.146,0.021,0.27,0.035,0.339c0.042,0.125,0.09,0.188,0.173,0.211v0.101l-0.665,0.128c-0.034-0.038-0.056-0.076-0.056-0.128
			c-0.007-0.055-0.021-0.159-0.021-0.322l-0.042-0.683c-0.021-0.263-0.11-0.419-0.298-0.471c-0.097-0.038-0.277-0.035-0.506,0.01
			l-1.254,0.243v1.753l-0.562,0.111V32.944L78.379,32.944z"/>
		
			<polygon fill-rule="evenodd" clip-rule="evenodd" fill="#005CAB" stroke="#FFFFFF" stroke-width="5" stroke-linecap="round" stroke-linejoin="round" stroke-miterlimit="10" points="
			82.488,32.168 83.057,32.061 83.057,36.16 82.488,36.26 82.488,32.168 		"/>
		
			<path fill-rule="evenodd" clip-rule="evenodd" fill="#005CAB" stroke="#FFFFFF" stroke-width="5" stroke-linecap="round" stroke-linejoin="round" stroke-miterlimit="10" d="
			M85.961,33.925l-0.61-1.698l-0.665,1.937L85.961,33.925L85.961,33.925z M85.046,31.687l0.645-0.125l1.483,3.812l-0.61,0.111
			l-0.416-1.151l-1.628,0.309l-0.444,1.31l-0.561,0.114L85.046,31.687L85.046,31.687z"/>
		
			<path fill="#005CAB" stroke="#FFFFFF" stroke-width="5" stroke-linecap="round" stroke-linejoin="round" stroke-miterlimit="10" d="
			M86.938,88.789l-0.097-3.438v-38.46l-68.465,12.97l-0.118,33.217l-0.139,0.038v24.343l55.692-9.051
			C73.812,108.409,88.081,108.149,86.938,88.789L86.938,88.789z"/>
		
			<polygon fill="#FFFFFF" stroke="#FFFFFF" stroke-width="5" stroke-linecap="round" stroke-linejoin="round" stroke-miterlimit="10" points="
			17.031,95.75 17.669,77.347 21.646,76.588 21.397,83.879 26.234,82.95 26.505,75.663 30.462,74.918 29.817,93.308 25.854,94.063 
			26.117,86.523 21.245,87.448 20.981,94.985 17.031,95.75 		"/>
		
			<path fill="#FFFFFF" stroke="#FFFFFF" stroke-width="5" stroke-linecap="round" stroke-linejoin="round" stroke-miterlimit="10" d="
			M40.685,84.125l-1.553-7.305l-0.048,0.017l-2.218,8.015L40.685,84.125L40.685,84.125z M30.719,93.134L36.99,73.66l4.845-0.918
			l4.976,17.323l-4.47,0.849l-0.811-3.406l-5.794,1.102l-1.054,3.767L30.719,93.134L30.719,93.134z"/>
		<path fill="none" stroke="#FFFFFF" stroke-width="5" stroke-linecap="round" stroke-linejoin="round" stroke-miterlimit="10" d="
			M40.685,84.125l-1.553-7.305l-0.048,0.017l-2.218,8.015L40.685,84.125L40.685,84.125z M30.719,93.134L36.99,73.66l4.845-0.918
			l4.976,17.323l-4.47,0.849l-0.811-3.406l-5.794,1.102l-1.054,3.767L30.719,93.134L30.719,93.134z"/>
		
			<path fill="#FFFFFF" stroke="#FFFFFF" stroke-width="5" stroke-linecap="round" stroke-linejoin="round" stroke-miterlimit="10" d="
			M56.264,75.725c-0.034-1.625-0.977-2.398-2.605-2.086c-2.267,0.44-2.8,3.958-2.904,6.716c-0.09,2.675,0.257,5.742,2.481,5.319
			c1.67-0.319,2.654-1.438,2.793-3.212l4.138-0.793c-0.098,4.626-3.576,6.913-7.041,7.582c-4.45,0.842-6.729-2.148-6.515-8.31
			c0.215-6.168,2.73-9.962,7.18-10.86c3.451-0.662,6.847,0.205,6.618,4.854L56.264,75.725L56.264,75.725z"/>
		<path fill="none" stroke="#FFFFFF" stroke-width="5" stroke-linecap="round" stroke-linejoin="round" stroke-miterlimit="10" d="
			M56.264,75.725c-0.034-1.625-0.977-2.398-2.605-2.086c-2.267,0.44-2.8,3.958-2.904,6.716c-0.09,2.675,0.257,5.742,2.481,5.319
			c1.67-0.319,2.654-1.438,2.793-3.212l4.138-0.793c-0.098,4.626-3.576,6.913-7.041,7.582c-4.45,0.842-6.729-2.148-6.515-8.31
			c0.215-6.168,2.73-9.962,7.18-10.86c3.451-0.662,6.847,0.205,6.618,4.854L56.264,75.725L56.264,75.725z"/>
		
			<path fill="#FFFFFF" stroke="#FFFFFF" stroke-width="5" stroke-linecap="round" stroke-linejoin="round" stroke-miterlimit="10" d="
			M71.061,72.905c-0.035-1.636-0.984-2.395-2.599-2.083c-2.273,0.43-2.801,3.957-2.904,6.708c-0.104,2.679,0.242,5.745,2.475,5.319
			c1.67-0.315,2.646-1.441,2.792-3.208l4.151-0.79c-0.09,4.623-3.604,6.906-7.055,7.564c-4.442,0.849-6.723-2.128-6.515-8.299
			c0.229-6.175,2.73-9.959,7.18-10.856c3.451-0.662,6.854,0.205,6.626,4.855L71.061,72.905L71.061,72.905z"/>
		<path fill="none" stroke="#FFFFFF" stroke-width="5" stroke-linecap="round" stroke-linejoin="round" stroke-miterlimit="10" d="
			M71.061,72.905c-0.035-1.636-0.984-2.395-2.599-2.083c-2.273,0.43-2.801,3.957-2.904,6.708c-0.104,2.679,0.242,5.745,2.475,5.319
			c1.67-0.315,2.646-1.441,2.792-3.208l4.151-0.79c-0.09,4.623-3.604,6.906-7.055,7.564c-4.442,0.849-6.723-2.128-6.515-8.299
			c0.229-6.175,2.73-9.959,7.18-10.856c3.451-0.662,6.854,0.205,6.626,4.855L71.061,72.905L71.061,72.905z"/>
		
			<path fill="#FFFFFF" stroke="#FFFFFF" stroke-width="5" stroke-linecap="round" stroke-linejoin="round" stroke-miterlimit="10" d="
			M82.793,73.126c1.566-0.375,2.253-1.417,2.309-2.772c0.034-1.348-0.582-2.142-2.142-1.92l-2.023,0.388l-0.174,4.688L82.793,73.126
			L82.793,73.126z M76.452,84.413l0.645-18.397l6.563-1.261c3.514-0.662,5.745,0.357,5.6,4.813c-0.167,4.453-2.502,6.352-6.016,7.02
			l-2.606,0.492l-0.229,6.574L76.452,84.413L76.452,84.413z"/>
		
			<path fill="#005CAB" stroke="#FFFFFF" stroke-width="5" stroke-linecap="round" stroke-linejoin="round" stroke-miterlimit="10" d="
			M21.231,144.435c0.215-0.617,0.318-1.303,0.305-2.044c-0.028-0.797-0.152-1.414-0.43-1.857c-0.284-0.437-0.638-0.624-1.095-0.554
			c-0.43,0.083-0.79,0.367-1.061,0.887c-0.271,0.533-0.389,1.254-0.374,2.19c0.014,0.749,0.152,1.358,0.401,1.83
			c0.243,0.471,0.624,0.672,1.179,0.582C20.642,145.384,21.017,145.038,21.231,144.435L21.231,144.435z M21.646,140.062
			c0.299,0.547,0.458,1.282,0.472,2.218c0.021,0.998-0.111,1.864-0.423,2.578c-0.374,0.846-0.9,1.324-1.607,1.435
			c-0.645,0.104-1.158-0.152-1.56-0.783c-0.34-0.603-0.526-1.414-0.541-2.418c-0.027-0.915,0.111-1.712,0.382-2.405
			c0.339-0.887,0.873-1.386,1.594-1.511C20.704,139.057,21.279,139.348,21.646,140.062L21.646,140.062z"/>
		
			<path fill="#005CAB" stroke="#FFFFFF" stroke-width="5" stroke-linecap="round" stroke-linejoin="round" stroke-miterlimit="10" d="
			M28.445,144.019c0.118,0.104,0.243,0.173,0.389,0.146c0.193-0.042,0.354-0.132,0.54-0.292c0.277-0.27,0.423-0.658,0.402-1.171
			l-0.014-0.651c-0.056,0.069-0.132,0.139-0.236,0.194c-0.11,0.056-0.2,0.104-0.291,0.146l-0.312,0.111
			c-0.194,0.069-0.326,0.16-0.423,0.256c-0.166,0.167-0.249,0.395-0.235,0.728C28.266,143.721,28.335,143.894,28.445,144.019
			L28.445,144.019z M29.492,141.607c0.125-0.035,0.194-0.131,0.242-0.277c0.014-0.077,0.028-0.181,0.028-0.319
			c-0.015-0.292-0.084-0.479-0.208-0.583c-0.125-0.111-0.298-0.146-0.541-0.111c-0.271,0.049-0.471,0.194-0.568,0.451
			c-0.062,0.139-0.104,0.339-0.11,0.596l-0.485,0.077c0-0.61,0.104-1.054,0.34-1.324c0.235-0.284,0.506-0.444,0.824-0.499
			c0.36-0.049,0.665,0.014,0.888,0.194c0.229,0.187,0.346,0.506,0.367,0.977l0.055,2.828c0,0.076,0,0.153,0.028,0.201
			c0.027,0.042,0.069,0.062,0.146,0.048c0,0,0.056-0.007,0.09-0.014c0,0,0.056-0.021,0.076-0.035l0.021,0.603
			c-0.09,0.055-0.152,0.09-0.187,0.097c-0.035,0.028-0.104,0.035-0.174,0.049c-0.18,0.028-0.312-0.056-0.395-0.243
			c-0.049-0.097-0.076-0.243-0.104-0.437c-0.09,0.235-0.242,0.45-0.45,0.645c-0.187,0.194-0.409,0.312-0.645,0.347
			c-0.284,0.048-0.526-0.062-0.7-0.292c-0.207-0.256-0.305-0.589-0.312-1.005c0-0.45,0.09-0.817,0.264-1.095
			c0.173-0.284,0.401-0.471,0.692-0.589L29.492,141.607L29.492,141.607z"/>
		
			<path fill="#005CAB" stroke="#FFFFFF" stroke-width="5" stroke-linecap="round" stroke-linejoin="round" stroke-miterlimit="10" d="
			M31.03,139.417l0.499-0.083l0.007,0.707c0.152-0.312,0.298-0.541,0.465-0.693c0.152-0.152,0.34-0.25,0.54-0.277
			c0.437-0.069,0.742,0.125,0.901,0.583c0.083,0.256,0.132,0.63,0.146,1.129l0.069,3.146l-0.534,0.09l-0.062-3.105
			c0-0.298-0.035-0.527-0.091-0.714c-0.097-0.284-0.277-0.416-0.526-0.374c-0.118,0.021-0.208,0.055-0.298,0.111
			c-0.139,0.09-0.257,0.25-0.36,0.457c-0.083,0.18-0.139,0.36-0.159,0.534c-0.021,0.18-0.035,0.43-0.035,0.755l0.056,2.571
			l-0.513,0.076L31.03,139.417L31.03,139.417z"/>
		
			<path fill="#005CAB" stroke="#FFFFFF" stroke-width="5" stroke-linecap="round" stroke-linejoin="round" stroke-miterlimit="10" d="
			M34.274,138.925l0.526-0.09l0.11,4.893l-0.54,0.09L34.274,138.925L34.274,138.925z M34.232,137.082l0.526-0.09l0.028,0.936
			l-0.541,0.09L34.232,137.082L34.232,137.082z"/>
		
			<path fill="#005CAB" stroke="#FFFFFF" stroke-width="5" stroke-linecap="round" stroke-linejoin="round" stroke-miterlimit="10" d="
			M35.902,142.023c0.021,0.27,0.069,0.478,0.146,0.61c0.139,0.25,0.375,0.347,0.7,0.291c0.201-0.035,0.374-0.132,0.526-0.284
			c0.139-0.152,0.208-0.374,0.208-0.651c-0.014-0.215-0.069-0.367-0.193-0.443c-0.069-0.062-0.229-0.118-0.458-0.173l-0.423-0.09
			c-0.27-0.069-0.471-0.152-0.596-0.256c-0.235-0.187-0.354-0.478-0.36-0.88c-0.007-0.457,0.083-0.845,0.298-1.178
			c0.201-0.326,0.499-0.506,0.839-0.568c0.485-0.076,0.831,0.083,1.046,0.485c0.132,0.256,0.215,0.548,0.215,0.866l-0.491,0.077
			c-0.021-0.18-0.069-0.347-0.139-0.492c-0.125-0.18-0.347-0.264-0.645-0.222c-0.194,0.042-0.36,0.125-0.458,0.263
			c-0.097,0.125-0.146,0.298-0.146,0.492c0.021,0.208,0.076,0.374,0.222,0.478c0.076,0.062,0.194,0.111,0.34,0.146l0.36,0.076
			c0.396,0.076,0.638,0.18,0.776,0.298c0.215,0.173,0.312,0.492,0.318,0.942c0.015,0.437-0.09,0.832-0.291,1.185
			c-0.215,0.347-0.52,0.562-0.956,0.638c-0.464,0.062-0.804-0.049-1.005-0.354c-0.201-0.291-0.312-0.686-0.333-1.178L35.902,142.023
			L35.902,142.023z"/>
		
			<path fill="#005CAB" stroke="#FFFFFF" stroke-width="5" stroke-linecap="round" stroke-linejoin="round" stroke-miterlimit="10" d="
			M38.418,138.239l0.534-0.09v0.707c0.132-0.263,0.229-0.464,0.332-0.589c0.167-0.208,0.354-0.326,0.568-0.367
			c0.25-0.035,0.451,0.021,0.617,0.187c0.083,0.104,0.159,0.256,0.235,0.458c0.118-0.284,0.243-0.499,0.382-0.651
			c0.173-0.146,0.332-0.243,0.526-0.277c0.423-0.062,0.714,0.132,0.866,0.575c0.09,0.25,0.132,0.589,0.146,1.026l0.069,3.271
			l-0.533,0.083l-0.084-3.417c0-0.319-0.055-0.541-0.159-0.645c-0.11-0.111-0.229-0.146-0.388-0.118
			c-0.194,0.027-0.367,0.166-0.513,0.402c-0.152,0.25-0.215,0.617-0.194,1.129l0.042,2.855l-0.521,0.083l-0.062-3.208
			c-0.014-0.333-0.034-0.568-0.09-0.721c-0.09-0.208-0.229-0.298-0.45-0.271c-0.208,0.042-0.389,0.18-0.534,0.451
			c-0.159,0.263-0.222,0.721-0.215,1.351l0.056,2.606l-0.526,0.083L38.418,138.239L38.418,138.239z"/>
		
			<path fill="#005CAB" stroke="#FFFFFF" stroke-width="5" stroke-linecap="round" stroke-linejoin="round" stroke-miterlimit="10" d="
			M45.3,140.907c0.118-0.437,0.174-0.901,0.167-1.407c-0.021-0.457-0.069-0.817-0.167-1.108c-0.159-0.423-0.408-0.596-0.762-0.548
			c-0.312,0.049-0.548,0.277-0.666,0.679c-0.138,0.409-0.2,0.887-0.2,1.428c0.014,0.527,0.097,0.957,0.235,1.282
			c0.166,0.319,0.388,0.458,0.7,0.402C44.954,141.586,45.183,141.337,45.3,140.907L45.3,140.907z M45.557,137.594
			c0.277,0.375,0.43,0.97,0.45,1.788c0.007,0.79-0.083,1.462-0.325,2.017c-0.236,0.555-0.597,0.88-1.109,0.963
			c-0.423,0.062-0.762-0.118-1.025-0.526c-0.257-0.423-0.381-1.012-0.402-1.774c-0.027-0.832,0.098-1.504,0.347-2.038
			c0.257-0.534,0.617-0.838,1.047-0.908C44.933,137.061,45.272,137.22,45.557,137.594L45.557,137.594z"/>
		
			<path fill="#005CAB" stroke="#FFFFFF" stroke-width="5" stroke-linecap="round" stroke-linejoin="round" stroke-miterlimit="10" d="
			M48.737,140.436c0.152,0.333,0.382,0.471,0.693,0.422c0.235-0.042,0.423-0.235,0.575-0.589c0.146-0.347,0.215-0.832,0.201-1.448
			c-0.021-0.624-0.104-1.067-0.271-1.338c-0.159-0.277-0.36-0.395-0.582-0.354c-0.271,0.042-0.479,0.229-0.645,0.583
			c-0.152,0.339-0.229,0.825-0.208,1.441C48.509,139.673,48.599,140.103,48.737,140.436L48.737,140.436z M49.833,136.569
			c0.083,0.076,0.187,0.215,0.318,0.437l-0.062-2.488l0.52-0.076l0.118,6.764l-0.45,0.069l-0.021-0.679
			c-0.104,0.319-0.25,0.554-0.409,0.728c-0.167,0.153-0.354,0.25-0.568,0.284c-0.347,0.049-0.658-0.125-0.908-0.547
			c-0.263-0.423-0.401-1.019-0.416-1.774c-0.014-0.713,0.091-1.358,0.306-1.906c0.222-0.575,0.54-0.887,0.977-0.956
			C49.465,136.389,49.666,136.437,49.833,136.569L49.833,136.569z"/>
		
			<path fill="#005CAB" stroke="#FFFFFF" stroke-width="5" stroke-linecap="round" stroke-linejoin="round" stroke-miterlimit="10" d="
			M53.499,137.899c-0.021-0.354-0.076-0.638-0.159-0.839c-0.16-0.367-0.389-0.526-0.722-0.478c-0.242,0.035-0.437,0.201-0.589,0.506
			c-0.152,0.298-0.229,0.666-0.229,1.081L53.499,137.899L53.499,137.899z M53.271,136c0.215,0.139,0.374,0.319,0.484,0.561
			c0.125,0.229,0.174,0.506,0.229,0.839c0.027,0.215,0.055,0.575,0.069,1.067l-2.253,0.367c0.014,0.499,0.097,0.873,0.235,1.164
			c0.146,0.277,0.36,0.388,0.659,0.347c0.256-0.042,0.478-0.222,0.63-0.527c0.084-0.18,0.152-0.381,0.188-0.603l0.499-0.083
			c-0.007,0.173-0.035,0.395-0.104,0.617c-0.083,0.229-0.152,0.437-0.263,0.589c-0.146,0.277-0.347,0.464-0.568,0.589
			c-0.125,0.062-0.264,0.111-0.423,0.139c-0.374,0.062-0.7-0.111-0.984-0.506c-0.271-0.416-0.416-1.005-0.43-1.809
			c-0.027-0.79,0.098-1.449,0.354-1.989c0.271-0.527,0.61-0.838,1.047-0.901C52.854,135.834,53.056,135.875,53.271,136L53.271,136z"
			/>
		
			<path fill="#005CAB" stroke="#FFFFFF" stroke-width="5" stroke-linecap="round" stroke-linejoin="round" stroke-miterlimit="10" d="
			M59.217,133.582c0.305,0.395,0.491,0.88,0.533,1.449l-0.568,0.09c-0.069-0.423-0.201-0.749-0.395-0.977
			c-0.188-0.222-0.451-0.305-0.79-0.256c-0.409,0.076-0.742,0.36-0.978,0.866c-0.242,0.506-0.354,1.248-0.34,2.204
			c0.014,0.797,0.146,1.407,0.374,1.871c0.25,0.45,0.597,0.638,1.04,0.568c0.43-0.062,0.728-0.381,0.942-0.929
			c0.111-0.291,0.181-0.652,0.235-1.109l0.555-0.097c-0.027,0.721-0.18,1.345-0.443,1.871c-0.333,0.638-0.763,0.991-1.338,1.081
			c-0.492,0.076-0.9-0.097-1.247-0.52c-0.45-0.555-0.687-1.49-0.714-2.807c-0.021-0.984,0.132-1.816,0.443-2.516
			c0.34-0.749,0.817-1.171,1.448-1.261C58.517,133.021,58.918,133.173,59.217,133.582L59.217,133.582z"/>
		
			<path fill="#005CAB" stroke="#FFFFFF" stroke-width="5" stroke-linecap="round" stroke-linejoin="round" stroke-miterlimit="10" d="
			M62.536,136.458c-0.028-0.354-0.076-0.631-0.166-0.832c-0.139-0.381-0.389-0.541-0.714-0.478c-0.243,0.028-0.43,0.201-0.583,0.499
			c-0.166,0.305-0.235,0.658-0.235,1.088L62.536,136.458L62.536,136.458z M62.321,134.559c0.201,0.125,0.367,0.318,0.471,0.554
			c0.118,0.236,0.194,0.513,0.223,0.838c0.041,0.222,0.062,0.583,0.076,1.074l-2.253,0.354c0.014,0.499,0.104,0.887,0.243,1.178
			c0.146,0.277,0.367,0.395,0.651,0.347c0.27-0.042,0.478-0.215,0.63-0.534c0.091-0.18,0.146-0.375,0.194-0.603l0.499-0.083
			c-0.021,0.187-0.049,0.388-0.125,0.624c-0.062,0.236-0.146,0.43-0.242,0.582c-0.152,0.271-0.347,0.464-0.575,0.589
			c-0.111,0.069-0.25,0.118-0.416,0.139c-0.395,0.069-0.7-0.111-0.984-0.506c-0.27-0.402-0.415-1.005-0.443-1.809
			c-0.021-0.79,0.111-1.455,0.367-1.982c0.257-0.534,0.604-0.832,1.033-0.908C61.892,134.379,62.106,134.42,62.321,134.559
			L62.321,134.559z"/>
		
			<path fill="#005CAB" stroke="#FFFFFF" stroke-width="5" stroke-linecap="round" stroke-linejoin="round" stroke-miterlimit="10" d="
			M63.659,134.206l0.478-0.076l0.028,0.845c0.027-0.166,0.131-0.388,0.284-0.645c0.146-0.263,0.325-0.409,0.54-0.443h0.042
			c0,0,0.062,0,0.124,0l0.007,0.866c-0.014-0.007-0.048-0.007-0.048-0.007c-0.062,0.007-0.083,0.007-0.083,0.007
			c-0.298,0.035-0.485,0.215-0.624,0.506c-0.146,0.291-0.201,0.61-0.194,0.95l0.049,2.834l-0.52,0.069L63.659,134.206
			L63.659,134.206z"/>
		
			<path fill="#005CAB" stroke="#FFFFFF" stroke-width="5" stroke-linecap="round" stroke-linejoin="round" stroke-miterlimit="10" d="
			M65.62,132.515l0.526-0.083l0.042,1.373l0.485-0.083v0.686l-0.485,0.076l0.076,3.202c0,0.173,0.034,0.284,0.104,0.333
			c0.042,0.021,0.125,0.021,0.201,0.007c0.028,0,0.049-0.007,0.049-0.007c0.056-0.021,0.11-0.021,0.139-0.035l0.014,0.658
			c-0.062,0.042-0.118,0.062-0.188,0.083c-0.062,0.028-0.139,0.048-0.208,0.048c-0.242,0.042-0.408-0.028-0.506-0.215
			c-0.083-0.18-0.131-0.43-0.146-0.742l-0.055-3.257l-0.416,0.069l-0.028-0.672l0.437-0.069L65.62,132.515L65.62,132.515z"/>
		
			<path fill="#005CAB" stroke="#FFFFFF" stroke-width="5" stroke-linecap="round" stroke-linejoin="round" stroke-miterlimit="10" d="
			M67.138,133.672l0.52-0.076l0.104,4.886l-0.534,0.076L67.138,133.672L67.138,133.672z M67.104,131.821l0.526-0.076l0.014,0.922
			l-0.533,0.097L67.104,131.821L67.104,131.821z"/>
		
			<path fill="#005CAB" stroke="#FFFFFF" stroke-width="5" stroke-linecap="round" stroke-linejoin="round" stroke-miterlimit="10" d="
			M68.6,131.918c0.111-0.305,0.354-0.478,0.693-0.541c0.049-0.007,0.062-0.007,0.111-0.007c0.027-0.007,0.069-0.007,0.11-0.007
			l0.007,0.749c-0.048,0-0.09,0-0.09,0c-0.049,0.007-0.076,0.021-0.076,0.021c-0.166,0.014-0.264,0.104-0.298,0.235
			c-0.021,0.139-0.035,0.472-0.021,0.998l0.533-0.083l0.007,0.651l-0.533,0.083l0.09,4.241l-0.506,0.083l-0.104-4.241l-0.423,0.069
			l-0.007-0.651l0.43-0.062l-0.021-0.77C68.503,132.341,68.538,132.085,68.6,131.918L68.6,131.918z"/>
		
			<path fill="#005CAB" stroke="#FFFFFF" stroke-width="5" stroke-linecap="round" stroke-linejoin="round" stroke-miterlimit="10" d="
			M69.979,133.221l0.513-0.09l0.117,4.893l-0.533,0.083L69.979,133.221L69.979,133.221z M69.944,131.371l0.527-0.083l0.021,0.936
			l-0.541,0.083L69.944,131.371L69.944,131.371z"/>
		
			<path fill="#005CAB" stroke="#FFFFFF" stroke-width="5" stroke-linecap="round" stroke-linejoin="round" stroke-miterlimit="10" d="
			M73.292,132.93c0.215,0.229,0.36,0.672,0.409,1.324l-0.499,0.083c-0.028-0.291-0.104-0.533-0.236-0.714
			c-0.104-0.187-0.284-0.263-0.533-0.222c-0.319,0.056-0.555,0.347-0.687,0.887c-0.097,0.339-0.131,0.769-0.124,1.261
			c0.021,0.479,0.097,0.887,0.229,1.199c0.146,0.312,0.347,0.45,0.631,0.402c0.215-0.035,0.381-0.167,0.513-0.395
			c0.125-0.222,0.193-0.52,0.229-0.894l0.52-0.083c-0.056,0.658-0.18,1.157-0.409,1.497c-0.214,0.34-0.52,0.541-0.88,0.596
			c-0.416,0.062-0.734-0.118-0.977-0.547c-0.25-0.437-0.396-0.998-0.402-1.698c-0.021-0.866,0.097-1.559,0.354-2.079
			c0.264-0.526,0.589-0.817,0.991-0.88C72.766,132.604,73.063,132.702,73.292,132.93L73.292,132.93z"/>
		
			<path fill="#005CAB" stroke="#FFFFFF" stroke-width="5" stroke-linecap="round" stroke-linejoin="round" stroke-miterlimit="10" d="
			M74.775,136.61c0.124,0.125,0.249,0.173,0.395,0.146c0.188-0.021,0.36-0.118,0.526-0.284c0.299-0.277,0.43-0.672,0.416-1.165
			l-0.007-0.665c-0.069,0.069-0.139,0.139-0.242,0.201c-0.104,0.049-0.201,0.097-0.284,0.132l-0.326,0.118
			c-0.18,0.069-0.325,0.153-0.423,0.257c-0.166,0.173-0.229,0.409-0.222,0.721C74.615,136.312,74.664,136.493,74.775,136.61
			L74.775,136.61z M75.828,134.206c0.139-0.042,0.194-0.139,0.236-0.277c0.027-0.083,0.034-0.18,0.034-0.326
			c0-0.277-0.076-0.471-0.201-0.582c-0.139-0.111-0.318-0.139-0.547-0.097c-0.271,0.035-0.458,0.187-0.575,0.437
			c-0.062,0.146-0.098,0.333-0.111,0.596l-0.479,0.069c0-0.596,0.104-1.047,0.34-1.317c0.235-0.277,0.506-0.443,0.825-0.485
			c0.367-0.062,0.651,0,0.9,0.188c0.222,0.187,0.34,0.499,0.354,0.97l0.056,2.828c0.007,0.09,0.014,0.159,0.034,0.201
			c0.028,0.049,0.062,0.076,0.139,0.056c0.028-0.007,0.056-0.007,0.076-0.014c0.035-0.014,0.069-0.027,0.098-0.042l0.027,0.61
			c-0.09,0.056-0.152,0.083-0.201,0.097c-0.041,0.021-0.097,0.035-0.166,0.042c-0.173,0.028-0.318-0.055-0.402-0.235
			c-0.041-0.104-0.076-0.257-0.097-0.437c-0.111,0.229-0.242,0.444-0.45,0.645c-0.194,0.194-0.409,0.305-0.645,0.354
			c-0.298,0.042-0.534-0.062-0.707-0.305c-0.201-0.25-0.298-0.583-0.298-0.998c-0.021-0.458,0.069-0.825,0.249-1.095
			c0.174-0.284,0.396-0.478,0.693-0.582L75.828,134.206L75.828,134.206z"/>
		
			<path fill="#005CAB" stroke="#FFFFFF" stroke-width="5" stroke-linecap="round" stroke-linejoin="round" stroke-miterlimit="10" d="
			M79.425,131.946c0.223,0.235,0.361,0.672,0.423,1.331l-0.506,0.076c-0.048-0.291-0.11-0.527-0.215-0.714
			c-0.132-0.18-0.312-0.256-0.547-0.222c-0.34,0.048-0.568,0.354-0.707,0.887c-0.076,0.346-0.118,0.762-0.118,1.254
			c0.021,0.499,0.098,0.894,0.229,1.212c0.139,0.305,0.36,0.444,0.624,0.395c0.222-0.027,0.402-0.166,0.52-0.388
			c0.111-0.229,0.194-0.534,0.243-0.894l0.506-0.09c-0.042,0.666-0.181,1.165-0.402,1.504c-0.235,0.34-0.526,0.534-0.88,0.589
			c-0.409,0.069-0.728-0.118-0.984-0.541c-0.249-0.43-0.381-0.998-0.401-1.705c-0.015-0.866,0.097-1.552,0.36-2.079
			c0.256-0.52,0.582-0.811,0.997-0.873C78.905,131.627,79.189,131.717,79.425,131.946L79.425,131.946z"/>
		
			<path fill="#005CAB" stroke="#FFFFFF" stroke-width="5" stroke-linecap="round" stroke-linejoin="round" stroke-miterlimit="10" d="
			M80.277,131.572l0.521-0.083l0.097,4.893l-0.52,0.077L80.277,131.572L80.277,131.572z M80.243,129.729l0.52-0.083l0.028,0.936
			l-0.534,0.083L80.243,129.729L80.243,129.729z"/>
		
			<path fill="#005CAB" stroke="#FFFFFF" stroke-width="5" stroke-linecap="round" stroke-linejoin="round" stroke-miterlimit="10" d="
			M83.341,129.084l-0.734,1.448l-0.402,0.056l0.499-1.407L83.341,129.084L83.341,129.084z M83.528,134.794
			c0.117-0.437,0.173-0.908,0.159-1.414c-0.014-0.451-0.056-0.818-0.152-1.088c-0.152-0.43-0.409-0.617-0.776-0.568
			c-0.305,0.055-0.533,0.291-0.665,0.693c-0.125,0.409-0.201,0.887-0.181,1.428c0,0.526,0.083,0.949,0.229,1.268
			c0.146,0.333,0.389,0.464,0.7,0.416C83.182,135.48,83.41,135.231,83.528,134.794L83.528,134.794z M83.791,131.482
			c0.271,0.381,0.423,0.977,0.444,1.795c0.014,0.79-0.098,1.462-0.319,2.023c-0.242,0.548-0.609,0.866-1.123,0.95
			c-0.422,0.069-0.755-0.104-1.012-0.527c-0.27-0.416-0.401-1.012-0.415-1.774c-0.008-0.832,0.104-1.511,0.36-2.038
			c0.249-0.527,0.596-0.832,1.032-0.901C83.154,130.955,83.507,131.107,83.791,131.482L83.791,131.482z"/>
		
			<path fill="#005CAB" stroke="#FFFFFF" stroke-width="5" stroke-linecap="round" stroke-linejoin="round" stroke-miterlimit="10" d="
			M84.762,130.837l0.499-0.083l0.014,0.693c0.146-0.312,0.291-0.534,0.45-0.686c0.16-0.146,0.347-0.243,0.548-0.277
			c0.443-0.062,0.728,0.132,0.908,0.589c0.083,0.256,0.139,0.624,0.146,1.116l0.062,3.161l-0.534,0.076l-0.049-3.091
			c-0.014-0.305-0.048-0.541-0.104-0.713c-0.097-0.292-0.264-0.423-0.52-0.375c-0.118,0.014-0.222,0.049-0.298,0.104
			c-0.132,0.097-0.271,0.25-0.36,0.464c-0.091,0.173-0.146,0.36-0.167,0.527c-0.027,0.173-0.027,0.422-0.027,0.749l0.049,2.578
			l-0.514,0.083L84.762,130.837L84.762,130.837z"/>
		
			<path fill="#005CAB" stroke="#FFFFFF" stroke-width="5" stroke-linecap="round" stroke-linejoin="round" stroke-miterlimit="10" d="
			M22.666,140.762l0.484-0.083l0.028,0.853c0.034-0.173,0.132-0.395,0.291-0.651c0.152-0.263,0.318-0.409,0.526-0.443
			c0,0,0.035,0,0.056-0.007c0,0,0.062,0,0.118,0l0.014,0.874c0,0-0.049-0.014-0.076,0c-0.028,0-0.056,0-0.091,0
			c-0.263,0.048-0.464,0.208-0.596,0.499c-0.139,0.298-0.208,0.617-0.194,0.963l0.056,2.82l-0.513,0.09L22.666,140.762
			L22.666,140.762z"/>
		
			<path fill="#005CAB" stroke="#FFFFFF" stroke-width="5" stroke-linecap="round" stroke-linejoin="round" stroke-miterlimit="10" d="
			M26.366,141.253c-0.166-0.27-0.367-0.388-0.609-0.346c-0.367,0.055-0.604,0.374-0.728,0.936c-0.069,0.298-0.098,0.693-0.091,1.164
			c0.021,0.548,0.091,0.963,0.243,1.22c0.146,0.277,0.339,0.388,0.575,0.347c0.36-0.062,0.63-0.374,0.769-0.929
			c0.084-0.319,0.118-0.679,0.111-1.074C26.609,141.954,26.525,141.524,26.366,141.253L26.366,141.253z M26.297,140.38
			c0.09,0.09,0.208,0.236,0.305,0.423l-0.014-0.631l0.485-0.069l0.076,4.463c0.014,0.624-0.034,1.116-0.139,1.497
			c-0.201,0.7-0.603,1.102-1.191,1.199c-0.34,0.056-0.624-0.021-0.853-0.222c-0.229-0.201-0.367-0.547-0.402-1.046l0.52-0.083
			c0.042,0.208,0.098,0.368,0.167,0.485c0.124,0.152,0.305,0.222,0.554,0.187c0.396-0.062,0.659-0.333,0.77-0.79
			c0.069-0.284,0.09-0.762,0.076-1.428c-0.097,0.264-0.229,0.471-0.367,0.617c-0.139,0.146-0.325,0.236-0.582,0.277
			c-0.326,0.056-0.624-0.09-0.88-0.423c-0.257-0.339-0.402-0.949-0.409-1.815c-0.014-0.825,0.097-1.476,0.333-1.982
			c0.242-0.513,0.54-0.79,0.914-0.845C25.881,140.152,26.11,140.221,26.297,140.38L26.297,140.38z"/>
	</g>
	<g>
		<path fill-rule="evenodd" clip-rule="evenodd" fill="#005CAB" d="M17.787,119.806l60.695-9.73c4.997-1.081,6.958-2.388,8.92-8.032
			c0,9.99,0,15.229,0,15.229c-0.098,4.775-1.317,8.692-6.702,9.926c-7.429,1.158-62.913,10.146-62.913,10.146V119.806
			L17.787,119.806z"/>
		<path fill="#FFFFFF" d="M72.925,102.4c0.083-0.745,0.152-1.511,0.152-2.315c0-0.707-0.049-1.396-0.132-2.062
			c-0.104,0.738-0.152,1.483-0.152,2.231C72.793,101.014,72.835,101.735,72.925,102.4L72.925,102.4z"/>
		<path fill-rule="evenodd" clip-rule="evenodd" fill="#FFFFFF" d="M20.704,135.979l5.344-15.806l4.969-0.849l5.329,14.001
			l-4.871,0.825l-0.568-1.857l-4.858,0.825l-0.555,2.044L20.704,135.979L20.704,135.979z M28.48,124.232l-1.525,5.669l3.112-0.527
			L28.48,124.232L28.48,124.232z"/>
		<path fill-rule="evenodd" clip-rule="evenodd" fill="#FFFFFF" d="M51.191,121.594l-4.637,0.787
			c-0.076-0.724-0.333-1.261-0.797-1.594c-0.443-0.347-1.012-0.461-1.698-0.34c-0.859,0.149-1.58,0.603-2.12,1.362
			c-0.548,0.773-0.805,1.904-0.805,3.415c0,1.026,0.111,1.795,0.347,2.301c0.222,0.506,0.555,0.846,0.971,1.04
			c0.415,0.194,0.929,0.243,1.538,0.132c0.756-0.132,1.358-0.43,1.802-0.929c0.458-0.478,0.7-1.144,0.797-1.982l4.706-0.804
			c-0.104,0.95-0.298,1.753-0.568,2.439c-0.256,0.666-0.714,1.386-1.338,2.114c-0.616,0.735-1.372,1.352-2.238,1.844
			s-1.857,0.838-3.001,1.04c-1.129,0.18-2.196,0.201-3.16,0.021c-0.942-0.173-1.753-0.513-2.419-1.025
			c-0.658-0.499-1.157-1.123-1.524-1.864c-0.526-1.026-0.783-2.218-0.783-3.583c0-1.158,0.201-2.273,0.555-3.335
			c0.381-1.06,0.901-1.996,1.56-2.782c0.658-0.79,1.386-1.417,2.183-1.896c1.026-0.613,2.155-1.012,3.396-1.223
			c1.074-0.184,2.072-0.198,3.035-0.035c0.942,0.159,1.705,0.495,2.336,1.022c0.589,0.517,1.066,1.14,1.393,1.899
			C50.948,120.146,51.101,120.804,51.191,121.594L51.191,121.594z"/>
		<path fill-rule="evenodd" clip-rule="evenodd" fill="#FFFFFF" d="M66.361,119.016l-4.615,0.79
			c-0.09-0.738-0.354-1.268-0.804-1.604c-0.451-0.333-1.013-0.454-1.712-0.333c-0.859,0.146-1.566,0.603-2.114,1.362
			c-0.54,0.759-0.811,1.902-0.811,3.399c0,1.035,0.118,1.811,0.347,2.31c0.242,0.499,0.554,0.846,0.977,1.046
			c0.409,0.194,0.922,0.236,1.546,0.132c0.755-0.132,1.352-0.443,1.795-0.922c0.443-0.499,0.728-1.15,0.79-1.991l4.706-0.797
			c-0.104,0.946-0.277,1.755-0.562,2.42c-0.25,0.686-0.721,1.393-1.338,2.127c-0.624,0.735-1.372,1.358-2.245,1.851
			c-0.853,0.485-1.871,0.832-3.001,1.019c-1.123,0.201-2.176,0.201-3.146,0.042c-0.963-0.18-1.768-0.527-2.419-1.04
			c-0.658-0.499-1.164-1.116-1.538-1.851c-0.526-1.04-0.776-2.231-0.776-3.595c0-1.154,0.194-2.263,0.562-3.33
			c0.374-1.063,0.9-1.992,1.56-2.782c0.651-0.787,1.386-1.424,2.189-1.899c1.012-0.603,2.135-1.012,3.375-1.23
			c1.088-0.18,2.101-0.187,3.036-0.031c0.942,0.17,1.726,0.506,2.335,1.033c0.597,0.506,1.067,1.14,1.394,1.889
			C66.119,117.571,66.278,118.233,66.361,119.016L66.361,119.016z"/>
		<polygon fill-rule="evenodd" clip-rule="evenodd" fill="#FFFFFF" points="67.395,128.044 67.395,113.146 73.312,112.137 
			75.939,120.998 78.545,111.243 84.471,110.231 84.471,125.147 80.021,125.896 80.021,117.54 77.623,126.305 74.214,126.887 
			71.788,118.933 71.788,127.296 67.395,128.044 		"/>
		<polygon fill-rule="evenodd" clip-rule="evenodd" fill="#ED1C24" points="18.195,50.125 86.986,36.756 86.986,43.596 
			18.195,56.958 18.195,50.125 		"/>
		<polygon fill-rule="evenodd" clip-rule="evenodd" fill="#FFE100" points="18.195,52.342 86.986,38.977 86.986,41.5 18.195,54.861 
			18.195,52.342 		"/>
		<polygon fill="#005CAB" points="50.041,8.643 47.088,6.81 48.945,3.857 51.884,5.705 50.041,8.643 		"/>
		<path fill="#005CAB" d="M58.163,29.763l-1.054-4.986c3.424-0.056,6.051-2.724,6.051-5.995c0-3.316-2.683-6.008-6.016-6.008
			c-0.943,0-1.844,0.26-2.647,0.662c-0.402,0.226-0.812,0.6-1.282,0.978c-0.597,0.464-1.262,1.49-1.524,1.909l-0.319,0.007
			l-0.305-0.253c-0.43-0.416-0.673-0.53-0.942-0.651c-0.59-0.26-1.428-0.468-2.419-0.707c-0.166-0.024-0.333-0.062-0.499-0.062
			c-3.312,0-5.988,2.703-5.988,6.009c0,3.316,2.676,5.998,5.988,5.998l0.388-0.014l1.311,6.168
			c-1.768,2.131-4.442,3.493-7.423,3.493c-5.343,0-9.668-4.332-9.668-9.665c0-3.843,2.253-7.163,5.496-8.726
			c1.206-4.335,5.17-7.53,9.896-7.53c1.164,0,2.273,0.194,3.299,0.544c1.788-1.521,4.131-2.429,6.64-2.429
			c3.223,0,6.085,1.476,7.97,3.773c4.671,0.683,8.24,4.702,8.24,9.564c0,5.336-4.317,9.661-9.647,9.661
			C61.635,31.502,59.736,30.862,58.163,29.763L58.163,29.763z M67.353,17.538c0.042,0.405,0.076,0.821,0.076,1.244
			c0,3.614-1.871,6.792-4.698,8.622c0.325,0.052,0.637,0.086,0.977,0.086c3.105,0,5.642-2.533,5.642-5.648
			C69.349,20.113,68.565,18.571,67.353,17.538L67.353,17.538z M37.198,22.964c-0.853,0.991-1.372,2.277-1.372,3.68
			c0,3.119,2.537,5.641,5.655,5.641c1.477,0,2.849-0.575,3.854-1.528C41.309,30.023,38.113,26.929,37.198,22.964L37.198,22.964z"/>
		<polygon fill-rule="evenodd" clip-rule="evenodd" fill="#005CAB" points="18.479,44.317 19.048,44.216 19.048,48.316 
			18.479,48.413 18.479,44.317 		"/>
		<polygon fill-rule="evenodd" clip-rule="evenodd" fill="#005CAB" points="19.858,44.054 20.518,43.929 22.59,46.857 22.59,43.544 
			23.103,43.433 23.103,47.536 22.485,47.657 20.393,44.736 20.393,48.052 19.858,48.153 19.858,44.054 		"/>
		<path fill-rule="evenodd" clip-rule="evenodd" fill="#005CAB" d="M27.274,43.232c0.277,0.312,0.401,0.752,0.401,1.313
			c0,0.617-0.152,1.154-0.457,1.611c-0.36,0.544-0.887,0.887-1.56,1.019c-0.63,0.111-1.122,0.007-1.489-0.343
			c-0.319-0.343-0.479-0.825-0.479-1.441c0-0.551,0.132-1.046,0.416-1.494c0.347-0.582,0.866-0.921,1.566-1.06
			C26.387,42.706,26.928,42.834,27.274,43.232L27.274,43.232z M26.782,45.938c0.215-0.395,0.326-0.825,0.326-1.275
			c0-0.475-0.125-0.849-0.368-1.088c-0.256-0.246-0.609-0.333-1.039-0.246c-0.423,0.08-0.77,0.292-1.04,0.638
			c-0.263,0.333-0.401,0.793-0.401,1.358c0,0.447,0.117,0.818,0.354,1.084c0.222,0.264,0.589,0.354,1.108,0.253
			C26.214,46.569,26.561,46.323,26.782,45.938L26.782,45.938z"/>
		<path fill-rule="evenodd" clip-rule="evenodd" fill="#005CAB" d="M31.19,42.2c0.284,0.225,0.443,0.506,0.471,0.838l-0.526,0.104
			c-0.062-0.253-0.188-0.433-0.374-0.554c-0.174-0.125-0.438-0.146-0.776-0.087c-0.396,0.083-0.721,0.281-0.971,0.617
			c-0.242,0.318-0.367,0.779-0.367,1.369c0,0.481,0.118,0.853,0.318,1.098c0.223,0.264,0.568,0.343,1.006,0.264
			c0.422-0.08,0.728-0.302,0.936-0.659c0.124-0.177,0.2-0.409,0.263-0.689l0.548-0.104c-0.056,0.44-0.222,0.835-0.485,1.178
			c-0.325,0.409-0.77,0.666-1.33,0.776c-0.465,0.086-0.867,0.017-1.186-0.205c-0.423-0.305-0.638-0.849-0.638-1.646
			c0-0.606,0.159-1.133,0.465-1.57c0.354-0.495,0.831-0.79,1.441-0.915C30.504,41.926,30.906,41.988,31.19,42.2L31.19,42.2z"/>
		<path fill-rule="evenodd" clip-rule="evenodd" fill="#005CAB" d="M32.908,41.576v2.536c0,0.302,0.049,0.527,0.16,0.704
			c0.166,0.274,0.45,0.371,0.838,0.291c0.472-0.083,0.783-0.312,0.95-0.666c0.104-0.184,0.146-0.433,0.146-0.734v-2.533l0.568-0.093
			v2.294c0,0.506-0.076,0.908-0.208,1.199c-0.25,0.541-0.721,0.88-1.407,1.012c-0.693,0.135-1.164-0.027-1.399-0.478
			c-0.153-0.25-0.215-0.61-0.215-1.116V41.69L32.908,41.576L32.908,41.576z"/>
		<polygon fill-rule="evenodd" clip-rule="evenodd" fill="#005CAB" points="36.471,40.904 37.039,40.8 37.039,44.896 36.471,45.003 
			36.471,40.904 		"/>
		<path fill-rule="evenodd" clip-rule="evenodd" fill="#005CAB" d="M39.423,43.967c0.181-0.042,0.34-0.086,0.465-0.152
			c0.208-0.111,0.381-0.284,0.526-0.516c0.111-0.18,0.188-0.416,0.229-0.683c0.035-0.153,0.042-0.309,0.042-0.434
			c0-0.516-0.097-0.883-0.298-1.123c-0.194-0.246-0.527-0.322-0.978-0.243l-0.97,0.191v3.143L39.423,43.967L39.423,43.967z
			 M37.871,40.637l1.663-0.319c0.562-0.1,0.991,0.007,1.303,0.35c0.298,0.312,0.423,0.752,0.423,1.307
			c0,0.44-0.097,0.842-0.257,1.227c-0.284,0.679-0.782,1.084-1.476,1.216l-1.656,0.305V40.637L37.871,40.637z"/>
		<path fill-rule="evenodd" clip-rule="evenodd" fill="#005CAB" d="M43.983,41.891l-0.617-1.694l-0.665,1.944L43.983,41.891
			L43.983,41.891z M43.082,39.646l0.624-0.122l1.483,3.815l-0.617,0.114L44.164,42.3l-1.615,0.315l-0.443,1.31l-0.575,0.107
			L43.082,39.646L43.082,39.646z"/>
		<path fill-rule="evenodd" clip-rule="evenodd" fill="#005CAB" d="M47.192,42.487c0.18-0.028,0.34-0.08,0.464-0.146
			c0.208-0.118,0.374-0.277,0.521-0.517c0.11-0.184,0.193-0.416,0.242-0.683c0.027-0.156,0.034-0.305,0.034-0.44
			c0-0.506-0.104-0.883-0.305-1.126c-0.194-0.243-0.52-0.322-0.978-0.236l-0.977,0.194v3.139L47.192,42.487L47.192,42.487z
			 M45.64,39.164l1.656-0.322c0.568-0.104,0.998,0.018,1.317,0.347c0.263,0.312,0.408,0.759,0.408,1.313
			c0,0.44-0.076,0.849-0.249,1.227c-0.291,0.679-0.783,1.081-1.477,1.22l-1.656,0.308V39.164L45.64,39.164z"/>
		<path fill-rule="evenodd" clip-rule="evenodd" fill="#005CAB" d="M52.951,40.187l-0.616-1.681l-0.666,1.919L52.951,40.187
			L52.951,40.187z M52.029,37.951l0.624-0.121l1.497,3.812l-0.61,0.115l-0.415-1.147l-1.615,0.308l-0.45,1.307l-0.562,0.118
			L52.029,37.951L52.029,37.951z"/>
		<polygon fill-rule="evenodd" clip-rule="evenodd" fill="#005CAB" points="54.573,37.47 55.12,37.355 55.12,40.962 57.206,40.571 
			57.206,41.06 54.573,41.565 54.573,37.47 		"/>
		<polygon fill-rule="evenodd" clip-rule="evenodd" fill="#005CAB" points="57.796,36.856 58.35,36.752 58.35,40.841 57.796,40.956 
			57.796,36.856 		"/>
		<path fill-rule="evenodd" clip-rule="evenodd" fill="#005CAB" d="M59.147,36.593l0.797-0.149l1.171,3.237l1.171-3.684l0.79-0.149
			v4.099l-0.52,0.104v-2.429c0-0.076,0-0.222,0-0.405c0.007-0.194,0.007-0.405,0.007-0.627l-1.171,3.673l-0.541,0.111l-1.178-3.236
			v0.121c0,0.111,0,0.253,0,0.464c0,0.201,0.014,0.354,0.014,0.451v2.415l-0.54,0.097V36.593L59.147,36.593z"/>
		<polygon fill-rule="evenodd" clip-rule="evenodd" fill="#005CAB" points="63.895,35.699 66.881,35.127 66.881,35.626 
			64.435,36.098 64.435,37.334 66.694,36.905 66.694,37.379 64.435,37.812 64.435,39.202 66.923,38.731 66.923,39.213 
			63.895,39.792 63.895,35.699 		"/>
		<polygon fill-rule="evenodd" clip-rule="evenodd" fill="#005CAB" points="67.567,34.999 68.219,34.864 70.291,37.795 
			70.291,34.483 70.824,34.382 70.824,38.471 70.194,38.592 68.101,35.675 68.101,38.987 67.567,39.091 67.567,34.999 		"/>
		<polygon fill-rule="evenodd" clip-rule="evenodd" fill="#005CAB" points="74.588,33.665 74.588,34.146 73.209,34.414 
			73.209,38.017 72.641,38.128 72.641,34.528 71.269,34.777 71.269,34.292 74.588,33.665 		"/>
		<path fill-rule="evenodd" clip-rule="evenodd" fill="#005CAB" d="M76.694,35.682l-0.63-1.698l-0.651,1.944L76.694,35.682
			L76.694,35.682z M75.78,33.443l0.63-0.132l1.483,3.818l-0.603,0.118l-0.423-1.15l-1.615,0.312l-0.443,1.3l-0.568,0.121
			L75.78,33.443L75.78,33.443z"/>
		<path fill-rule="evenodd" clip-rule="evenodd" fill="#005CAB" d="M80.223,34.465c0.263-0.048,0.478-0.132,0.609-0.267
			c0.146-0.135,0.229-0.333,0.229-0.606c0-0.298-0.097-0.482-0.305-0.537c-0.118-0.031-0.271-0.031-0.45,0l-1.365,0.256v1.4
			L80.223,34.465L80.223,34.465z M78.379,32.944l1.905-0.364c0.319-0.052,0.568-0.062,0.77-0.003
			c0.389,0.094,0.582,0.381,0.582,0.849c0,0.26-0.055,0.461-0.166,0.638c-0.097,0.177-0.242,0.326-0.416,0.464
			c0.159,0.028,0.277,0.086,0.367,0.173c0.076,0.093,0.125,0.263,0.125,0.495l0.027,0.551c0,0.146,0.021,0.27,0.035,0.339
			c0.042,0.125,0.09,0.188,0.173,0.211v0.101l-0.665,0.128c-0.034-0.038-0.056-0.076-0.056-0.128
			c-0.007-0.055-0.021-0.159-0.021-0.322l-0.042-0.683c-0.021-0.263-0.11-0.419-0.298-0.471c-0.097-0.038-0.277-0.035-0.506,0.01
			l-1.254,0.243v1.753l-0.562,0.111V32.944L78.379,32.944z"/>
		<polygon fill-rule="evenodd" clip-rule="evenodd" fill="#005CAB" points="82.488,32.168 83.057,32.061 83.057,36.16 82.488,36.26 
			82.488,32.168 		"/>
		<path fill-rule="evenodd" clip-rule="evenodd" fill="#005CAB" d="M85.961,33.925l-0.61-1.698l-0.665,1.937L85.961,33.925
			L85.961,33.925z M85.046,31.687l0.645-0.125l1.483,3.812l-0.61,0.111l-0.416-1.151l-1.628,0.309l-0.444,1.31l-0.561,0.114
			L85.046,31.687L85.046,31.687z"/>
		<path fill="#005CAB" d="M86.938,88.789l-0.097-3.438v-38.46l-68.465,12.97l-0.118,33.217l-0.139,0.038v24.343l55.692-9.051
			C73.812,108.409,88.081,108.149,86.938,88.789L86.938,88.789z"/>
		<polygon fill="#FFFFFF" points="17.031,95.75 17.669,77.347 21.646,76.588 21.397,83.879 26.234,82.95 26.505,75.663 
			30.462,74.918 29.817,93.308 25.854,94.063 26.117,86.523 21.245,87.448 20.981,94.985 17.031,95.75 		"/>
		<path fill="#FFFFFF" d="M40.685,84.125l-1.553-7.305l-0.048,0.017l-2.218,8.015L40.685,84.125L40.685,84.125z M30.719,93.134
			L36.99,73.66l4.845-0.918l4.976,17.323l-4.47,0.849l-0.811-3.406l-5.794,1.102l-1.054,3.767L30.719,93.134L30.719,93.134z"/>
		<path fill="none" stroke="#FFFFFF" stroke-width="0.6055" stroke-miterlimit="10" d="M40.685,84.125l-1.553-7.305l-0.048,0.017
			l-2.218,8.015L40.685,84.125L40.685,84.125z M30.719,93.134L36.99,73.66l4.845-0.918l4.976,17.323l-4.47,0.849l-0.811-3.406
			l-5.794,1.102l-1.054,3.767L30.719,93.134L30.719,93.134z"/>
		<path fill="#FFFFFF" d="M56.264,75.725c-0.034-1.625-0.977-2.398-2.605-2.086c-2.267,0.44-2.8,3.958-2.904,6.716
			c-0.09,2.675,0.257,5.742,2.481,5.319c1.67-0.319,2.654-1.438,2.793-3.212l4.138-0.793c-0.098,4.626-3.576,6.913-7.041,7.582
			c-4.45,0.842-6.729-2.148-6.515-8.31c0.215-6.168,2.73-9.962,7.18-10.86c3.451-0.662,6.847,0.205,6.618,4.854L56.264,75.725
			L56.264,75.725z"/>
		<path fill="none" stroke="#FFFFFF" stroke-width="0.6055" stroke-miterlimit="10" d="M56.264,75.725
			c-0.034-1.625-0.977-2.398-2.605-2.086c-2.267,0.44-2.8,3.958-2.904,6.716c-0.09,2.675,0.257,5.742,2.481,5.319
			c1.67-0.319,2.654-1.438,2.793-3.212l4.138-0.793c-0.098,4.626-3.576,6.913-7.041,7.582c-4.45,0.842-6.729-2.148-6.515-8.31
			c0.215-6.168,2.73-9.962,7.18-10.86c3.451-0.662,6.847,0.205,6.618,4.854L56.264,75.725L56.264,75.725z"/>
		<path fill="#FFFFFF" d="M71.061,72.905c-0.035-1.636-0.984-2.395-2.599-2.083c-2.273,0.43-2.801,3.957-2.904,6.708
			c-0.104,2.679,0.242,5.745,2.475,5.319c1.67-0.315,2.646-1.441,2.792-3.208l4.151-0.79c-0.09,4.623-3.604,6.906-7.055,7.564
			c-4.442,0.849-6.723-2.128-6.515-8.299c0.229-6.175,2.73-9.959,7.18-10.856c3.451-0.662,6.854,0.205,6.626,4.855L71.061,72.905
			L71.061,72.905z"/>
		<path fill="none" stroke="#FFFFFF" stroke-width="0.6055" stroke-miterlimit="10" d="M71.061,72.905
			c-0.035-1.636-0.984-2.395-2.599-2.083c-2.273,0.43-2.801,3.957-2.904,6.708c-0.104,2.679,0.242,5.745,2.475,5.319
			c1.67-0.315,2.646-1.441,2.792-3.208l4.151-0.79c-0.09,4.623-3.604,6.906-7.055,7.564c-4.442,0.849-6.723-2.128-6.515-8.299
			c0.229-6.175,2.73-9.959,7.18-10.856c3.451-0.662,6.854,0.205,6.626,4.855L71.061,72.905L71.061,72.905z"/>
		<path fill="#FFFFFF" d="M82.793,73.126c1.566-0.375,2.253-1.417,2.309-2.772c0.034-1.348-0.582-2.142-2.142-1.92l-2.023,0.388
			l-0.174,4.688L82.793,73.126L82.793,73.126z M76.452,84.413l0.645-18.397l6.563-1.261c3.514-0.662,5.745,0.357,5.6,4.813
			c-0.167,4.453-2.502,6.352-6.016,7.02l-2.606,0.492l-0.229,6.574L76.452,84.413L76.452,84.413z"/>
		<path fill="#005CAB" d="M21.231,144.435c0.215-0.617,0.318-1.303,0.305-2.044c-0.028-0.797-0.152-1.414-0.43-1.857
			c-0.284-0.437-0.638-0.624-1.095-0.554c-0.43,0.083-0.79,0.367-1.061,0.887c-0.271,0.533-0.389,1.254-0.374,2.19
			c0.014,0.749,0.152,1.358,0.401,1.83c0.243,0.471,0.624,0.672,1.179,0.582C20.642,145.384,21.017,145.038,21.231,144.435
			L21.231,144.435z M21.646,140.062c0.299,0.547,0.458,1.282,0.472,2.218c0.021,0.998-0.111,1.864-0.423,2.578
			c-0.374,0.846-0.9,1.324-1.607,1.435c-0.645,0.104-1.158-0.152-1.56-0.783c-0.34-0.603-0.526-1.414-0.541-2.418
			c-0.027-0.915,0.111-1.712,0.382-2.405c0.339-0.887,0.873-1.386,1.594-1.511C20.704,139.057,21.279,139.348,21.646,140.062
			L21.646,140.062z"/>
		<path fill="#005CAB" d="M28.445,144.019c0.118,0.104,0.243,0.173,0.389,0.146c0.193-0.042,0.354-0.132,0.54-0.292
			c0.277-0.27,0.423-0.658,0.402-1.171l-0.014-0.651c-0.056,0.069-0.132,0.139-0.236,0.194c-0.11,0.056-0.2,0.104-0.291,0.146
			l-0.312,0.111c-0.194,0.069-0.326,0.16-0.423,0.256c-0.166,0.167-0.249,0.395-0.235,0.728
			C28.266,143.721,28.335,143.894,28.445,144.019L28.445,144.019z M29.492,141.607c0.125-0.035,0.194-0.131,0.242-0.277
			c0.014-0.077,0.028-0.181,0.028-0.319c-0.015-0.292-0.084-0.479-0.208-0.583c-0.125-0.111-0.298-0.146-0.541-0.111
			c-0.271,0.049-0.471,0.194-0.568,0.451c-0.062,0.139-0.104,0.339-0.11,0.596l-0.485,0.077c0-0.61,0.104-1.054,0.34-1.324
			c0.235-0.284,0.506-0.444,0.824-0.499c0.36-0.049,0.665,0.014,0.888,0.194c0.229,0.187,0.346,0.506,0.367,0.977l0.055,2.828
			c0,0.076,0,0.153,0.028,0.201c0.027,0.042,0.069,0.062,0.146,0.048c0,0,0.056-0.007,0.09-0.014c0,0,0.056-0.021,0.076-0.035
			l0.021,0.603c-0.09,0.055-0.152,0.09-0.187,0.097c-0.035,0.028-0.104,0.035-0.174,0.049c-0.18,0.028-0.312-0.056-0.395-0.243
			c-0.049-0.097-0.076-0.243-0.104-0.437c-0.09,0.235-0.242,0.45-0.45,0.645c-0.187,0.194-0.409,0.312-0.645,0.347
			c-0.284,0.048-0.526-0.062-0.7-0.292c-0.207-0.256-0.305-0.589-0.312-1.005c0-0.45,0.09-0.817,0.264-1.095
			c0.173-0.284,0.401-0.471,0.692-0.589L29.492,141.607L29.492,141.607z"/>
		<path fill="#005CAB" d="M31.03,139.417l0.499-0.083l0.007,0.707c0.152-0.312,0.298-0.541,0.465-0.693
			c0.152-0.152,0.34-0.25,0.54-0.277c0.437-0.069,0.742,0.125,0.901,0.583c0.083,0.256,0.132,0.63,0.146,1.129l0.069,3.146
			l-0.534,0.09l-0.062-3.105c0-0.298-0.035-0.527-0.091-0.714c-0.097-0.284-0.277-0.416-0.526-0.374
			c-0.118,0.021-0.208,0.055-0.298,0.111c-0.139,0.09-0.257,0.25-0.36,0.457c-0.083,0.18-0.139,0.36-0.159,0.534
			c-0.021,0.18-0.035,0.43-0.035,0.755l0.056,2.571l-0.513,0.076L31.03,139.417L31.03,139.417z"/>
		<path fill="#005CAB" d="M34.274,138.925l0.526-0.09l0.11,4.893l-0.54,0.09L34.274,138.925L34.274,138.925z M34.232,137.082
			l0.526-0.09l0.028,0.936l-0.541,0.09L34.232,137.082L34.232,137.082z"/>
		<path fill="#005CAB" d="M35.902,142.023c0.021,0.27,0.069,0.478,0.146,0.61c0.139,0.25,0.375,0.347,0.7,0.291
			c0.201-0.035,0.374-0.132,0.526-0.284c0.139-0.152,0.208-0.374,0.208-0.651c-0.014-0.215-0.069-0.367-0.193-0.443
			c-0.069-0.062-0.229-0.118-0.458-0.173l-0.423-0.09c-0.27-0.069-0.471-0.152-0.596-0.256c-0.235-0.187-0.354-0.478-0.36-0.88
			c-0.007-0.457,0.083-0.845,0.298-1.178c0.201-0.326,0.499-0.506,0.839-0.568c0.485-0.076,0.831,0.083,1.046,0.485
			c0.132,0.256,0.215,0.548,0.215,0.866l-0.491,0.077c-0.021-0.18-0.069-0.347-0.139-0.492c-0.125-0.18-0.347-0.264-0.645-0.222
			c-0.194,0.042-0.36,0.125-0.458,0.263c-0.097,0.125-0.146,0.298-0.146,0.492c0.021,0.208,0.076,0.374,0.222,0.478
			c0.076,0.062,0.194,0.111,0.34,0.146l0.36,0.076c0.396,0.076,0.638,0.18,0.776,0.298c0.215,0.173,0.312,0.492,0.318,0.942
			c0.015,0.437-0.09,0.832-0.291,1.185c-0.215,0.347-0.52,0.562-0.956,0.638c-0.464,0.062-0.804-0.049-1.005-0.354
			c-0.201-0.291-0.312-0.686-0.333-1.178L35.902,142.023L35.902,142.023z"/>
		<path fill="#005CAB" d="M38.418,138.239l0.534-0.09v0.707c0.132-0.263,0.229-0.464,0.332-0.589
			c0.167-0.208,0.354-0.326,0.568-0.367c0.25-0.035,0.451,0.021,0.617,0.187c0.083,0.104,0.159,0.256,0.235,0.458
			c0.118-0.284,0.243-0.499,0.382-0.651c0.173-0.146,0.332-0.243,0.526-0.277c0.423-0.062,0.714,0.132,0.866,0.575
			c0.09,0.25,0.132,0.589,0.146,1.026l0.069,3.271l-0.533,0.083l-0.084-3.417c0-0.319-0.055-0.541-0.159-0.645
			c-0.11-0.111-0.229-0.146-0.388-0.118c-0.194,0.027-0.367,0.166-0.513,0.402c-0.152,0.25-0.215,0.617-0.194,1.129l0.042,2.855
			l-0.521,0.083l-0.062-3.208c-0.014-0.333-0.034-0.568-0.09-0.721c-0.09-0.208-0.229-0.298-0.45-0.271
			c-0.208,0.042-0.389,0.18-0.534,0.451c-0.159,0.263-0.222,0.721-0.215,1.351l0.056,2.606l-0.526,0.083L38.418,138.239
			L38.418,138.239z"/>
		<path fill="#005CAB" d="M45.3,140.907c0.118-0.437,0.174-0.901,0.167-1.407c-0.021-0.457-0.069-0.817-0.167-1.108
			c-0.159-0.423-0.408-0.596-0.762-0.548c-0.312,0.049-0.548,0.277-0.666,0.679c-0.138,0.409-0.2,0.887-0.2,1.428
			c0.014,0.527,0.097,0.957,0.235,1.282c0.166,0.319,0.388,0.458,0.7,0.402C44.954,141.586,45.183,141.337,45.3,140.907
			L45.3,140.907z M45.557,137.594c0.277,0.375,0.43,0.97,0.45,1.788c0.007,0.79-0.083,1.462-0.325,2.017
			c-0.236,0.555-0.597,0.88-1.109,0.963c-0.423,0.062-0.762-0.118-1.025-0.526c-0.257-0.423-0.381-1.012-0.402-1.774
			c-0.027-0.832,0.098-1.504,0.347-2.038c0.257-0.534,0.617-0.838,1.047-0.908C44.933,137.061,45.272,137.22,45.557,137.594
			L45.557,137.594z"/>
		<path fill="#005CAB" d="M48.737,140.436c0.152,0.333,0.382,0.471,0.693,0.422c0.235-0.042,0.423-0.235,0.575-0.589
			c0.146-0.347,0.215-0.832,0.201-1.448c-0.021-0.624-0.104-1.067-0.271-1.338c-0.159-0.277-0.36-0.395-0.582-0.354
			c-0.271,0.042-0.479,0.229-0.645,0.583c-0.152,0.339-0.229,0.825-0.208,1.441C48.509,139.673,48.599,140.103,48.737,140.436
			L48.737,140.436z M49.833,136.569c0.083,0.076,0.187,0.215,0.318,0.437l-0.062-2.488l0.52-0.076l0.118,6.764l-0.45,0.069
			l-0.021-0.679c-0.104,0.319-0.25,0.554-0.409,0.728c-0.167,0.153-0.354,0.25-0.568,0.284c-0.347,0.049-0.658-0.125-0.908-0.547
			c-0.263-0.423-0.401-1.019-0.416-1.774c-0.014-0.713,0.091-1.358,0.306-1.906c0.222-0.575,0.54-0.887,0.977-0.956
			C49.465,136.389,49.666,136.437,49.833,136.569L49.833,136.569z"/>
		<path fill="#005CAB" d="M53.499,137.899c-0.021-0.354-0.076-0.638-0.159-0.839c-0.16-0.367-0.389-0.526-0.722-0.478
			c-0.242,0.035-0.437,0.201-0.589,0.506c-0.152,0.298-0.229,0.666-0.229,1.081L53.499,137.899L53.499,137.899z M53.271,136
			c0.215,0.139,0.374,0.319,0.484,0.561c0.125,0.229,0.174,0.506,0.229,0.839c0.027,0.215,0.055,0.575,0.069,1.067l-2.253,0.367
			c0.014,0.499,0.097,0.873,0.235,1.164c0.146,0.277,0.36,0.388,0.659,0.347c0.256-0.042,0.478-0.222,0.63-0.527
			c0.084-0.18,0.152-0.381,0.188-0.603l0.499-0.083c-0.007,0.173-0.035,0.395-0.104,0.617c-0.083,0.229-0.152,0.437-0.263,0.589
			c-0.146,0.277-0.347,0.464-0.568,0.589c-0.125,0.062-0.264,0.111-0.423,0.139c-0.374,0.062-0.7-0.111-0.984-0.506
			c-0.271-0.416-0.416-1.005-0.43-1.809c-0.027-0.79,0.098-1.449,0.354-1.989c0.271-0.527,0.61-0.838,1.047-0.901
			C52.854,135.834,53.056,135.875,53.271,136L53.271,136z"/>
		<path fill="#005CAB" d="M59.217,133.582c0.305,0.395,0.491,0.88,0.533,1.449l-0.568,0.09c-0.069-0.423-0.201-0.749-0.395-0.977
			c-0.188-0.222-0.451-0.305-0.79-0.256c-0.409,0.076-0.742,0.36-0.978,0.866c-0.242,0.506-0.354,1.248-0.34,2.204
			c0.014,0.797,0.146,1.407,0.374,1.871c0.25,0.45,0.597,0.638,1.04,0.568c0.43-0.062,0.728-0.381,0.942-0.929
			c0.111-0.291,0.181-0.652,0.235-1.109l0.555-0.097c-0.027,0.721-0.18,1.345-0.443,1.871c-0.333,0.638-0.763,0.991-1.338,1.081
			c-0.492,0.076-0.9-0.097-1.247-0.52c-0.45-0.555-0.687-1.49-0.714-2.807c-0.021-0.984,0.132-1.816,0.443-2.516
			c0.34-0.749,0.817-1.171,1.448-1.261C58.517,133.021,58.918,133.173,59.217,133.582L59.217,133.582z"/>
		<path fill="#005CAB" d="M62.536,136.458c-0.028-0.354-0.076-0.631-0.166-0.832c-0.139-0.381-0.389-0.541-0.714-0.478
			c-0.243,0.028-0.43,0.201-0.583,0.499c-0.166,0.305-0.235,0.658-0.235,1.088L62.536,136.458L62.536,136.458z M62.321,134.559
			c0.201,0.125,0.367,0.318,0.471,0.554c0.118,0.236,0.194,0.513,0.223,0.838c0.041,0.222,0.062,0.583,0.076,1.074l-2.253,0.354
			c0.014,0.499,0.104,0.887,0.243,1.178c0.146,0.277,0.367,0.395,0.651,0.347c0.27-0.042,0.478-0.215,0.63-0.534
			c0.091-0.18,0.146-0.375,0.194-0.603l0.499-0.083c-0.021,0.187-0.049,0.388-0.125,0.624c-0.062,0.236-0.146,0.43-0.242,0.582
			c-0.152,0.271-0.347,0.464-0.575,0.589c-0.111,0.069-0.25,0.118-0.416,0.139c-0.395,0.069-0.7-0.111-0.984-0.506
			c-0.27-0.402-0.415-1.005-0.443-1.809c-0.021-0.79,0.111-1.455,0.367-1.982c0.257-0.534,0.604-0.832,1.033-0.908
			C61.892,134.379,62.106,134.42,62.321,134.559L62.321,134.559z"/>
		<path fill="#005CAB" d="M63.659,134.206l0.478-0.076l0.028,0.845c0.027-0.166,0.131-0.388,0.284-0.645
			c0.146-0.263,0.325-0.409,0.54-0.443h0.042c0,0,0.062,0,0.124,0l0.007,0.866c-0.014-0.007-0.048-0.007-0.048-0.007
			c-0.062,0.007-0.083,0.007-0.083,0.007c-0.298,0.035-0.485,0.215-0.624,0.506c-0.146,0.291-0.201,0.61-0.194,0.95l0.049,2.834
			l-0.52,0.069L63.659,134.206L63.659,134.206z"/>
		<path fill="#005CAB" d="M65.62,132.515l0.526-0.083l0.042,1.373l0.485-0.083v0.686l-0.485,0.076l0.076,3.202
			c0,0.173,0.034,0.284,0.104,0.333c0.042,0.021,0.125,0.021,0.201,0.007c0.028,0,0.049-0.007,0.049-0.007
			c0.056-0.021,0.11-0.021,0.139-0.035l0.014,0.658c-0.062,0.042-0.118,0.062-0.188,0.083c-0.062,0.028-0.139,0.048-0.208,0.048
			c-0.242,0.042-0.408-0.028-0.506-0.215c-0.083-0.18-0.131-0.43-0.146-0.742l-0.055-3.257l-0.416,0.069l-0.028-0.672l0.437-0.069
			L65.62,132.515L65.62,132.515z"/>
		<path fill="#005CAB" d="M67.138,133.672l0.52-0.076l0.104,4.886l-0.534,0.076L67.138,133.672L67.138,133.672z M67.104,131.821
			l0.526-0.076l0.014,0.922l-0.533,0.097L67.104,131.821L67.104,131.821z"/>
		<path fill="#005CAB" d="M68.6,131.918c0.111-0.305,0.354-0.478,0.693-0.541c0.049-0.007,0.062-0.007,0.111-0.007
			c0.027-0.007,0.069-0.007,0.11-0.007l0.007,0.749c-0.048,0-0.09,0-0.09,0c-0.049,0.007-0.076,0.021-0.076,0.021
			c-0.166,0.014-0.264,0.104-0.298,0.235c-0.021,0.139-0.035,0.472-0.021,0.998l0.533-0.083l0.007,0.651l-0.533,0.083l0.09,4.241
			l-0.506,0.083l-0.104-4.241l-0.423,0.069l-0.007-0.651l0.43-0.062l-0.021-0.77C68.503,132.341,68.538,132.085,68.6,131.918
			L68.6,131.918z"/>
		<path fill="#005CAB" d="M69.979,133.221l0.513-0.09l0.117,4.893l-0.533,0.083L69.979,133.221L69.979,133.221z M69.944,131.371
			l0.527-0.083l0.021,0.936l-0.541,0.083L69.944,131.371L69.944,131.371z"/>
		<path fill="#005CAB" d="M73.292,132.93c0.215,0.229,0.36,0.672,0.409,1.324l-0.499,0.083c-0.028-0.291-0.104-0.533-0.236-0.714
			c-0.104-0.187-0.284-0.263-0.533-0.222c-0.319,0.056-0.555,0.347-0.687,0.887c-0.097,0.339-0.131,0.769-0.124,1.261
			c0.021,0.479,0.097,0.887,0.229,1.199c0.146,0.312,0.347,0.45,0.631,0.402c0.215-0.035,0.381-0.167,0.513-0.395
			c0.125-0.222,0.193-0.52,0.229-0.894l0.52-0.083c-0.056,0.658-0.18,1.157-0.409,1.497c-0.214,0.34-0.52,0.541-0.88,0.596
			c-0.416,0.062-0.734-0.118-0.977-0.547c-0.25-0.437-0.396-0.998-0.402-1.698c-0.021-0.866,0.097-1.559,0.354-2.079
			c0.264-0.526,0.589-0.817,0.991-0.88C72.766,132.604,73.063,132.702,73.292,132.93L73.292,132.93z"/>
		<path fill="#005CAB" d="M74.775,136.61c0.124,0.125,0.249,0.173,0.395,0.146c0.188-0.021,0.36-0.118,0.526-0.284
			c0.299-0.277,0.43-0.672,0.416-1.165l-0.007-0.665c-0.069,0.069-0.139,0.139-0.242,0.201c-0.104,0.049-0.201,0.097-0.284,0.132
			l-0.326,0.118c-0.18,0.069-0.325,0.153-0.423,0.257c-0.166,0.173-0.229,0.409-0.222,0.721
			C74.615,136.312,74.664,136.493,74.775,136.61L74.775,136.61z M75.828,134.206c0.139-0.042,0.194-0.139,0.236-0.277
			c0.027-0.083,0.034-0.18,0.034-0.326c0-0.277-0.076-0.471-0.201-0.582c-0.139-0.111-0.318-0.139-0.547-0.097
			c-0.271,0.035-0.458,0.187-0.575,0.437c-0.062,0.146-0.098,0.333-0.111,0.596l-0.479,0.069c0-0.596,0.104-1.047,0.34-1.317
			c0.235-0.277,0.506-0.443,0.825-0.485c0.367-0.062,0.651,0,0.9,0.188c0.222,0.187,0.34,0.499,0.354,0.97l0.056,2.828
			c0.007,0.09,0.014,0.159,0.034,0.201c0.028,0.049,0.062,0.076,0.139,0.056c0.028-0.007,0.056-0.007,0.076-0.014
			c0.035-0.014,0.069-0.027,0.098-0.042l0.027,0.61c-0.09,0.056-0.152,0.083-0.201,0.097c-0.041,0.021-0.097,0.035-0.166,0.042
			c-0.173,0.028-0.318-0.055-0.402-0.235c-0.041-0.104-0.076-0.257-0.097-0.437c-0.111,0.229-0.242,0.444-0.45,0.645
			c-0.194,0.194-0.409,0.305-0.645,0.354c-0.298,0.042-0.534-0.062-0.707-0.305c-0.201-0.25-0.298-0.583-0.298-0.998
			c-0.021-0.458,0.069-0.825,0.249-1.095c0.174-0.284,0.396-0.478,0.693-0.582L75.828,134.206L75.828,134.206z"/>
		<path fill="#005CAB" d="M79.425,131.946c0.223,0.235,0.361,0.672,0.423,1.331l-0.506,0.076c-0.048-0.291-0.11-0.527-0.215-0.714
			c-0.132-0.18-0.312-0.256-0.547-0.222c-0.34,0.048-0.568,0.354-0.707,0.887c-0.076,0.346-0.118,0.762-0.118,1.254
			c0.021,0.499,0.098,0.894,0.229,1.212c0.139,0.305,0.36,0.444,0.624,0.395c0.222-0.027,0.402-0.166,0.52-0.388
			c0.111-0.229,0.194-0.534,0.243-0.894l0.506-0.09c-0.042,0.666-0.181,1.165-0.402,1.504c-0.235,0.34-0.526,0.534-0.88,0.589
			c-0.409,0.069-0.728-0.118-0.984-0.541c-0.249-0.43-0.381-0.998-0.401-1.705c-0.015-0.866,0.097-1.552,0.36-2.079
			c0.256-0.52,0.582-0.811,0.997-0.873C78.905,131.627,79.189,131.717,79.425,131.946L79.425,131.946z"/>
		<path fill="#005CAB" d="M80.277,131.572l0.521-0.083l0.097,4.893l-0.52,0.077L80.277,131.572L80.277,131.572z M80.243,129.729
			l0.52-0.083l0.028,0.936l-0.534,0.083L80.243,129.729L80.243,129.729z"/>
		<path fill="#005CAB" d="M83.341,129.084l-0.734,1.448l-0.402,0.056l0.499-1.407L83.341,129.084L83.341,129.084z M83.528,134.794
			c0.117-0.437,0.173-0.908,0.159-1.414c-0.014-0.451-0.056-0.818-0.152-1.088c-0.152-0.43-0.409-0.617-0.776-0.568
			c-0.305,0.055-0.533,0.291-0.665,0.693c-0.125,0.409-0.201,0.887-0.181,1.428c0,0.526,0.083,0.949,0.229,1.268
			c0.146,0.333,0.389,0.464,0.7,0.416C83.182,135.48,83.41,135.231,83.528,134.794L83.528,134.794z M83.791,131.482
			c0.271,0.381,0.423,0.977,0.444,1.795c0.014,0.79-0.098,1.462-0.319,2.023c-0.242,0.548-0.609,0.866-1.123,0.95
			c-0.422,0.069-0.755-0.104-1.012-0.527c-0.27-0.416-0.401-1.012-0.415-1.774c-0.008-0.832,0.104-1.511,0.36-2.038
			c0.249-0.527,0.596-0.832,1.032-0.901C83.154,130.955,83.507,131.107,83.791,131.482L83.791,131.482z"/>
		<path fill="#005CAB" d="M84.762,130.837l0.499-0.083l0.014,0.693c0.146-0.312,0.291-0.534,0.45-0.686
			c0.16-0.146,0.347-0.243,0.548-0.277c0.443-0.062,0.728,0.132,0.908,0.589c0.083,0.256,0.139,0.624,0.146,1.116l0.062,3.161
			l-0.534,0.076l-0.049-3.091c-0.014-0.305-0.048-0.541-0.104-0.713c-0.097-0.292-0.264-0.423-0.52-0.375
			c-0.118,0.014-0.222,0.049-0.298,0.104c-0.132,0.097-0.271,0.25-0.36,0.464c-0.091,0.173-0.146,0.36-0.167,0.527
			c-0.027,0.173-0.027,0.422-0.027,0.749l0.049,2.578l-0.514,0.083L84.762,130.837L84.762,130.837z"/>
		<path fill="#005CAB" d="M22.666,140.762l0.484-0.083l0.028,0.853c0.034-0.173,0.132-0.395,0.291-0.651
			c0.152-0.263,0.318-0.409,0.526-0.443c0,0,0.035,0,0.056-0.007c0,0,0.062,0,0.118,0l0.014,0.874c0,0-0.049-0.014-0.076,0
			c-0.028,0-0.056,0-0.091,0c-0.263,0.048-0.464,0.208-0.596,0.499c-0.139,0.298-0.208,0.617-0.194,0.963l0.056,2.82l-0.513,0.09
			L22.666,140.762L22.666,140.762z"/>
		<path fill="#005CAB" d="M26.366,141.253c-0.166-0.27-0.367-0.388-0.609-0.346c-0.367,0.055-0.604,0.374-0.728,0.936
			c-0.069,0.298-0.098,0.693-0.091,1.164c0.021,0.548,0.091,0.963,0.243,1.22c0.146,0.277,0.339,0.388,0.575,0.347
			c0.36-0.062,0.63-0.374,0.769-0.929c0.084-0.319,0.118-0.679,0.111-1.074C26.609,141.954,26.525,141.524,26.366,141.253
			L26.366,141.253z M26.297,140.38c0.09,0.09,0.208,0.236,0.305,0.423l-0.014-0.631l0.485-0.069l0.076,4.463
			c0.014,0.624-0.034,1.116-0.139,1.497c-0.201,0.7-0.603,1.102-1.191,1.199c-0.34,0.056-0.624-0.021-0.853-0.222
			c-0.229-0.201-0.367-0.547-0.402-1.046l0.52-0.083c0.042,0.208,0.098,0.368,0.167,0.485c0.124,0.152,0.305,0.222,0.554,0.187
			c0.396-0.062,0.659-0.333,0.77-0.79c0.069-0.284,0.09-0.762,0.076-1.428c-0.097,0.264-0.229,0.471-0.367,0.617
			c-0.139,0.146-0.325,0.236-0.582,0.277c-0.326,0.056-0.624-0.09-0.88-0.423c-0.257-0.339-0.402-0.949-0.409-1.815
			c-0.014-0.825,0.097-1.476,0.333-1.982c0.242-0.513,0.54-0.79,0.914-0.845C25.881,140.152,26.11,140.221,26.297,140.38
			L26.297,140.38z"/>
	</g>
</g>
</svg>
