<?xml version="1.0" encoding="utf-8"?>
<!-- Generator: Adobe Illustrator 16.0.0, SVG Export Plug-In . SVG Version: 6.00 Build 0)  -->
<!DOCTYPE svg PUBLIC "-//W3C//DTD SVG 1.1//EN" "http://www.w3.org/Graphics/SVG/1.1/DTD/svg11.dtd">
<svg version="1.1" id="Layer_1" xmlns="http://www.w3.org/2000/svg" xmlns:xlink="http://www.w3.org/1999/xlink" x="0px" y="0px"
	 width="110.5px" height="158.546px" viewBox="0 0 110.5 158.546" enable-background="new 0 0 110.5 158.546" xml:space="preserve">
<g>
	<g>
		<defs>
			<rect id="SVGID_1_" x="19.577" y="7.146" width="69.996" height="143.476"/>
		</defs>
		<clipPath id="SVGID_2_">
			<use xlink:href="#SVGID_1_"  overflow="visible"/>
		</clipPath>
	</g>
	<g>
		
			<path fill-rule="evenodd" clip-rule="evenodd" fill="#005CAB" stroke="#FFFFFF" stroke-width="5" stroke-linecap="round" stroke-linejoin="round" stroke-miterlimit="10" d="
			M20.031,122.956l60.643-9.713c4.982-1.084,6.934-2.384,8.898-8.032c0,9.987,0,15.223,0,15.223
			c-0.105,4.768-1.312,8.677-6.707,9.907c-7.408,1.161-62.834,10.129-62.834,10.129V122.956L20.031,122.956z"/>
		
			<path fill-rule="evenodd" clip-rule="evenodd" fill="#FFFFFF" stroke="#FFFFFF" stroke-width="5" stroke-linecap="round" stroke-linejoin="round" stroke-miterlimit="10" d="
			M22.956,139.111l5.32-15.787l4.968-0.842l5.329,13.982l-4.865,0.825l-0.562-1.847l-4.869,0.821l-0.551,2.048L22.956,139.111
			L22.956,139.111z M30.712,127.392l-1.524,5.666l3.105-0.537L30.712,127.392L30.712,127.392z"/>
		
			<path fill-rule="evenodd" clip-rule="evenodd" fill="#FFFFFF" stroke="#FFFFFF" stroke-width="5" stroke-linecap="round" stroke-linejoin="round" stroke-miterlimit="10" d="
			M53.39,124.754l-4.606,0.783c-0.084-0.734-0.351-1.271-0.81-1.601c-0.442-0.34-1.013-0.447-1.7-0.34
			c-0.857,0.152-1.572,0.606-2.108,1.369c-0.54,0.766-0.825,1.899-0.825,3.399c0,1.033,0.122,1.795,0.359,2.308
			c0.225,0.495,0.562,0.845,0.96,1.04c0.415,0.197,0.944,0.232,1.549,0.131c0.753-0.131,1.358-0.44,1.792-0.918
			c0.451-0.502,0.715-1.161,0.811-1.986l4.691-0.804c-0.112,0.942-0.289,1.747-0.555,2.429c-0.273,0.679-0.717,1.379-1.357,2.121
			c-0.617,0.731-1.371,1.341-2.22,1.843c-0.872,0.485-1.862,0.828-3.013,1.019c-1.125,0.19-2.17,0.201-3.142,0.031
			c-0.962-0.173-1.766-0.52-2.424-1.022c-0.642-0.499-1.153-1.133-1.521-1.868c-0.524-1.019-0.781-2.221-0.781-3.58
			c0-1.15,0.186-2.27,0.569-3.327c0.371-1.067,0.885-1.989,1.551-2.779c0.648-0.78,1.375-1.417,2.174-1.902
			c1.025-0.603,2.141-1.012,3.387-1.224c1.074-0.18,2.086-0.187,3.02-0.024c0.949,0.159,1.732,0.502,2.338,1.015
			c0.604,0.516,1.079,1.144,1.395,1.892C53.157,123.299,53.307,123.961,53.39,124.754L53.39,124.754z"/>
		
			<path fill-rule="evenodd" clip-rule="evenodd" fill="#FFFFFF" stroke="#FFFFFF" stroke-width="5" stroke-linecap="round" stroke-linejoin="round" stroke-miterlimit="10" d="
			M68.561,122.18l-4.611,0.776c-0.1-0.731-0.367-1.261-0.812-1.594c-0.441-0.34-1.016-0.464-1.703-0.336
			c-0.862,0.142-1.562,0.6-2.111,1.362c-0.543,0.77-0.814,1.899-0.814,3.406c0,1.029,0.121,1.795,0.346,2.301
			c0.242,0.502,0.552,0.845,0.973,1.04c0.414,0.19,0.938,0.229,1.544,0.135c0.75-0.138,1.35-0.443,1.799-0.932
			c0.441-0.488,0.701-1.147,0.793-1.975l4.689-0.797c-0.092,0.936-0.275,1.75-0.541,2.419c-0.266,0.672-0.727,1.379-1.355,2.121
			c-0.621,0.734-1.361,1.348-2.236,1.847c-0.863,0.492-1.861,0.828-2.996,1.022c-1.132,0.19-2.182,0.201-3.144,0.031
			c-0.956-0.18-1.762-0.52-2.432-1.019c-0.633-0.516-1.148-1.133-1.518-1.871c-0.523-1.022-0.783-2.221-0.783-3.58
			c0-1.157,0.18-2.27,0.564-3.333c0.373-1.06,0.885-1.985,1.553-2.772c0.658-0.793,1.384-1.424,2.183-1.896
			c1.009-0.61,2.14-1.015,3.381-1.227c1.074-0.188,2.092-0.191,3.033-0.031c0.949,0.159,1.725,0.496,2.324,1.015
			c0.613,0.513,1.076,1.144,1.4,1.899C68.326,120.725,68.475,121.386,68.561,122.18L68.561,122.18z"/>
		
			<polygon fill-rule="evenodd" clip-rule="evenodd" fill="#FFFFFF" stroke="#FFFFFF" stroke-width="5" stroke-linecap="round" stroke-linejoin="round" stroke-miterlimit="10" points="
			69.594,131.193 69.594,116.3 75.502,115.298 78.127,124.152 80.732,114.408 86.639,113.41 86.639,128.292 82.211,129.048 
			82.211,120.693 79.803,129.454 76.406,130.032 73.992,122.09 73.992,130.441 69.594,131.193 		"/>
		
			<polygon fill-rule="evenodd" clip-rule="evenodd" fill="#ED1C24" stroke="#FFFFFF" stroke-width="5" stroke-linecap="round" stroke-linejoin="round" stroke-miterlimit="10" points="
			20.44,53.354 89.164,40 89.164,46.833 20.44,60.178 20.44,53.354 		"/>
		
			<polygon fill-rule="evenodd" clip-rule="evenodd" fill="#FFE100" stroke="#FFFFFF" stroke-width="5" stroke-linecap="round" stroke-linejoin="round" stroke-miterlimit="10" points="
			20.44,55.565 89.164,42.217 89.164,44.74 20.44,58.084 20.44,55.565 		"/>
		
			<polygon fill="#005CAB" stroke="#FFFFFF" stroke-width="5" stroke-linecap="round" stroke-linejoin="round" stroke-miterlimit="10" points="
			52.256,11.918 49.315,10.082 51.148,7.146 54.09,8.973 52.256,11.918 		"/>
		
			<path fill="#005CAB" stroke="#FFFFFF" stroke-width="5" stroke-linecap="round" stroke-linejoin="round" stroke-miterlimit="10" d="
			M60.362,33.007l-1.048-4.965c3.407-0.069,6.038-2.724,6.038-6.009c0-3.299-2.686-5.984-5.996-5.984
			c-0.953,0-1.834,0.253-2.651,0.651c-0.407,0.226-0.808,0.613-1.291,0.984c-0.582,0.468-1.249,1.483-1.522,1.902l-0.317,0.01
			l-0.296-0.26c-0.445-0.413-0.671-0.527-0.938-0.641c-0.6-0.267-1.418-0.471-2.435-0.717c-0.165-0.017-0.315-0.045-0.481-0.045
			c-3.308,0-5.986,2.675-5.986,5.988c0,3.316,2.679,5.995,5.986,5.995l0.389-0.017l1.311,6.168
			c-1.768,2.127-4.434,3.482-7.424,3.482c-5.326,0-9.656-4.314-9.656-9.658c0-3.833,2.251-7.145,5.491-8.704
			c1.192-4.332,5.167-7.53,9.89-7.53c1.16,0,2.256,0.201,3.295,0.548c1.795-1.511,4.127-2.419,6.637-2.419
			c3.21,0,6.064,1.466,7.955,3.76c4.658,0.683,8.244,4.702,8.244,9.554c0,5.329-4.32,9.661-9.66,9.661
			C63.838,34.76,61.938,34.109,60.362,33.007L60.362,33.007z M69.543,20.799c0.051,0.402,0.076,0.821,0.076,1.233
			c0,3.614-1.863,6.795-4.689,8.625c0.32,0.052,0.641,0.076,0.965,0.076c3.117,0,5.641-2.522,5.641-5.634
			C71.535,23.374,70.764,21.832,69.543,20.799L69.543,20.799z M39.422,26.219c-0.85,0.988-1.357,2.277-1.357,3.673
			c0,3.115,2.528,5.638,5.635,5.638c1.479,0,2.847-0.572,3.845-1.518C43.534,33.271,40.327,30.183,39.422,26.219L39.422,26.219z"/>
		
			<path fill="#005CAB" stroke="#FFFFFF" stroke-width="5" stroke-linecap="round" stroke-linejoin="round" stroke-miterlimit="10" d="
			M60.204,107.262c-0.117,1.313-0.377,2.533-0.824,3.68c-0.57,1.504-1.441,2.703-2.611,3.583c-0.088,0.059-0.171,0.111-0.256,0.16
			c2.493-0.368,4.908-0.742,7.201-1.095c-0.486-0.229-0.918-0.53-1.311-0.908C61.1,111.417,60.379,109.612,60.204,107.262
			L60.204,107.262z"/>
		
			<path fill="#005CAB" stroke="#FFFFFF" stroke-width="5" stroke-linecap="round" stroke-linejoin="round" stroke-miterlimit="10" d="
			M24.48,89.108c0.591-0.125,1.142-0.426,1.646-0.908c0.502-0.485,0.9-1.212,1.194-2.152c0.284-0.953,0.438-2.079,0.438-3.368
			c0-0.921-0.08-1.729-0.229-2.418c-0.143-0.696-0.326-1.244-0.566-1.643c-0.25-0.388-0.574-0.696-1-0.922
			c-0.406-0.222-0.877-0.277-1.396-0.173c-0.57,0.114-1.119,0.43-1.633,0.953c-0.508,0.517-0.912,1.241-1.211,2.183
			c-0.31,0.929-0.451,2.034-0.451,3.323c0,1.934,0.35,3.365,1.039,4.307C22.85,89.025,23.569,89.295,24.48,89.108L24.48,89.108z"/>
		
			<path fill="#005CAB" stroke="#FFFFFF" stroke-width="5" stroke-linecap="round" stroke-linejoin="round" stroke-miterlimit="10" d="
			M85.082,65.788c-0.338-0.243-0.818-0.294-1.426-0.173c-0.6,0.118-1.057,0.364-1.383,0.742c-0.24,0.291-0.346,0.617-0.346,0.995
			c0,0.315,0.088,0.561,0.264,0.724c0.248,0.235,0.85,0.405,1.795,0.502l2.045,0.239c1.291,0.135,2.303,0.454,3.066,0.921
			l-0.014-3.423l-3.334,0.665C85.629,66.411,85.41,66.013,85.082,65.788L85.082,65.788z"/>
		
			<path fill="#005CAB" stroke="#FFFFFF" stroke-width="5" stroke-linecap="round" stroke-linejoin="round" stroke-miterlimit="10" d="
			M84.178,97.861c-0.375-0.236-0.809-0.322-1.312-0.256c-0.703,0.104-1.236,0.45-1.609,1.043c-0.582,0.936-0.881,2.398-0.881,4.397
			c0,1.424,0.141,2.557,0.391,3.385c0.184,0.638,0.473,1.078,0.834,1.296c0.369,0.226,0.791,0.305,1.236,0.246
			c0.449-0.066,0.867-0.263,1.238-0.582c0.365-0.326,0.658-0.863,0.861-1.611c0.279-1.001,0.396-2.221,0.396-3.687
			c0-1.123-0.092-2.044-0.291-2.769C84.857,98.585,84.566,98.094,84.178,97.861L84.178,97.861z"/>
		
			<polygon fill="#005CAB" stroke="#FFFFFF" stroke-width="5" stroke-linecap="round" stroke-linejoin="round" stroke-miterlimit="10" points="
			68.061,77.639 71.426,76.97 69.719,69.842 68.061,77.639 		"/>
		
			<path fill="#005CAB" stroke="#FFFFFF" stroke-width="5" stroke-linecap="round" stroke-linejoin="round" stroke-miterlimit="10" d="
			M75.309,105.159c-0.109,1.31-0.383,2.536-0.816,3.676c-0.545,1.424-1.367,2.558-2.449,3.438c2.721-0.458,4.873-0.842,6.199-1.123
			c-0.252-0.167-0.518-0.354-0.732-0.575C76.213,109.317,75.484,107.508,75.309,105.159L75.309,105.159z"/>
		
			<path fill="#FFFFFF" stroke="#FFFFFF" stroke-width="5" stroke-linecap="round" stroke-linejoin="round" stroke-miterlimit="10" d="
			M21.272,83.983c0-1.289,0.142-2.395,0.451-3.323c0.299-0.942,0.703-1.667,1.211-2.183c0.514-0.523,1.062-0.838,1.633-0.953
			c0.52-0.104,0.99-0.049,1.396,0.173c0.426,0.226,0.75,0.534,1,0.922c0.24,0.398,0.424,0.946,0.566,1.643
			c0.148,0.689,0.229,1.497,0.229,2.418c0,1.289-0.154,2.416-0.438,3.368c-0.294,0.939-0.692,1.667-1.194,2.152
			c-0.504,0.482-1.055,0.783-1.646,0.908c-0.911,0.187-1.63-0.083-2.169-0.818C21.622,87.348,21.272,85.917,21.272,83.983
			L21.272,83.983z M24.538,94.164c1.838-0.36,3.382-1.182,4.65-2.457c1.273-1.271,2.223-2.793,2.858-4.55
			c0.269-0.797,0.478-1.632,0.64-2.481v-6.265c-0.191-0.866-0.44-1.66-0.787-2.36c-0.696-1.497-1.729-2.529-3.074-3.104
			c-1.319-0.586-2.787-0.714-4.387-0.398c-0.828,0.163-1.637,0.457-2.413,0.863c-0.569,0.294-1.099,0.672-1.606,1.071l-0.014,19.412
			C21.592,94.389,22.967,94.486,24.538,94.164L24.538,94.164z"/>
		
			<path fill="#FFFFFF" stroke="#FFFFFF" stroke-width="5" stroke-linecap="round" stroke-linejoin="round" stroke-miterlimit="10" d="
			M68.061,77.639l1.658-7.797l1.707,7.128L68.061,77.639L68.061,77.639z M67.086,64.187l-4.127,15.531
			c-0.023,1.088-0.213,2.11-0.598,3.087c-0.166,0.398-0.336,0.762-0.523,1.112l-0.529,1.982l5.176-1.025l0.602-2.814l5.26-1.053
			l0.613,2.564l5.27-1.053l-0.559-1.892c-0.264-0.374-0.49-0.79-0.678-1.254c-0.225-0.596-0.375-1.355-0.461-2.276l0.086-0.018
			l-4.158-13.968L67.086,64.187L67.086,64.187z"/>
		
			<path fill="#FFFFFF" stroke="#FFFFFF" stroke-width="5" stroke-linecap="round" stroke-linejoin="round" stroke-miterlimit="10" d="
			M62.959,79.572c0-1.417-0.393-2.585-1.145-3.507c-0.781-0.922-2.109-1.487-4.019-1.694l-2.057-0.226
			c-0.934-0.104-1.536-0.281-1.791-0.509c-0.17-0.163-0.258-0.398-0.258-0.728c0-0.378,0.117-0.704,0.348-0.995
			c0.317-0.367,0.783-0.617,1.376-0.738c0.624-0.125,1.083-0.065,1.433,0.173c0.32,0.226,0.551,0.621,0.668,1.199l5.023-1.012
			c-0.1-0.735-0.242-1.362-0.42-1.889c-0.166-0.53-0.412-1.026-0.721-1.504c-0.309-0.499-0.722-0.894-1.212-1.206
			c-0.502-0.333-1.179-0.534-2.004-0.624c-0.833-0.087-1.758-0.042-2.771,0.156c-0.848,0.177-1.668,0.451-2.461,0.839
			c-0.793,0.377-1.521,0.911-2.165,1.59c-0.655,0.683-1.166,1.504-1.554,2.481c-0.397,0.974-0.581,2.041-0.581,3.188
			c0,1.175,0.222,2.127,0.655,2.873c0.426,0.728,1.055,1.275,1.898,1.618c0.854,0.354,1.756,0.579,2.717,0.683l1.846,0.208
			c0.954,0.111,1.521,0.264,1.732,0.468c0.217,0.222,0.329,0.534,0.329,0.95c0,0.405-0.112,0.749-0.354,1.022
			c-0.306,0.36-0.815,0.617-1.534,0.755c-0.803,0.173-1.424,0.111-1.807-0.163c-0.391-0.271-0.658-0.714-0.768-1.348l-5.082,1.022
			c0.096,0.921,0.246,1.688,0.476,2.276c0.317,0.846,0.804,1.553,1.441,2.117c0.634,0.558,1.446,0.925,2.424,1.095
			c0.976,0.177,2.025,0.146,3.132-0.069c1.026-0.205,1.984-0.554,2.908-1.067c0.908-0.492,1.668-1.067,2.242-1.715
			c0.341-0.392,0.65-0.859,0.933-1.375l1.121-4.2C62.959,79.673,62.959,79.627,62.959,79.572L62.959,79.572z"/>
		
			<path fill="#FFFFFF" stroke="#FFFFFF" stroke-width="5" stroke-linecap="round" stroke-linejoin="round" stroke-miterlimit="10" d="
			M62.959,79.718l-1.121,4.2c0.188-0.35,0.357-0.714,0.523-1.112C62.746,81.828,62.936,80.806,62.959,79.718L62.959,79.718z"/>
		
			<path fill="#FFFFFF" stroke="#FFFFFF" stroke-width="5" stroke-linecap="round" stroke-linejoin="round" stroke-miterlimit="10" d="
			M86.031,68.816l-2.045-0.239c-0.945-0.097-1.547-0.267-1.795-0.502c-0.176-0.163-0.264-0.409-0.264-0.724
			c0-0.378,0.105-0.704,0.346-0.995c0.326-0.378,0.783-0.624,1.383-0.742c0.607-0.121,1.088-0.069,1.426,0.173
			c0.328,0.225,0.547,0.624,0.668,1.192l3.334-0.665l-0.018-4.425c-0.189-0.184-0.41-0.357-0.645-0.509
			c-0.5-0.333-1.174-0.537-2.01-0.627c-0.836-0.097-1.748-0.038-2.768,0.159c-0.84,0.173-1.67,0.443-2.471,0.835
			c-0.787,0.378-1.512,0.918-2.174,1.591c-0.643,0.683-1.146,1.504-1.533,2.474c-0.385,0.98-0.58,2.048-0.58,3.202
			c0,1.165,0.219,2.124,0.641,2.852c0.434,0.734,1.074,1.282,1.918,1.632c0.846,0.36,1.75,0.568,2.717,0.689l1.842,0.201
			c0.943,0.111,1.52,0.263,1.727,0.471c0.225,0.222,0.33,0.534,0.33,0.953c0,0.402-0.111,0.734-0.346,1.015
			c-0.305,0.357-0.822,0.613-1.537,0.762c-0.809,0.16-1.412,0.104-1.803-0.169c-0.4-0.267-0.656-0.717-0.775-1.345l-4.982,1.001
			l1.053,3.548c0.23,0.309,0.471,0.603,0.771,0.856c0.625,0.565,1.43,0.932,2.416,1.105c0.982,0.173,2.021,0.142,3.137-0.08
			c1.018-0.194,1.979-0.548,2.895-1.057c0.918-0.489,1.672-1.074,2.242-1.726c0.008-0.007,0.016-0.007,0.016-0.007l-0.049-9.98
			C88.334,69.27,87.322,68.951,86.031,68.816L86.031,68.816z"/>
		
			<path fill="#FFFFFF" stroke="#FFFFFF" stroke-width="5" stroke-linecap="round" stroke-linejoin="round" stroke-miterlimit="10" d="
			M76.992,79.371c0.188,0.464,0.414,0.88,0.678,1.254l-1.053-3.548l-0.086,0.018C76.617,78.016,76.768,78.775,76.992,79.371
			L76.992,79.371z"/>
		
			<path fill="#FFFFFF" stroke="#FFFFFF" stroke-width="5" stroke-linecap="round" stroke-linejoin="round" stroke-miterlimit="10" d="
			M32.686,84.676v7.721l5.273-1.061V83.37l4.967-0.984v7.959l5.311-1.057V68.716l-5.311,1.063v6.965l-4.967,0.98v-6.955
			l-5.273,1.057v6.583c0.188,0.912,0.287,1.917,0.287,3.004C32.973,82.542,32.86,83.626,32.686,84.676L32.686,84.676z"/>
		
			<path fill="#FFFFFF" stroke="#FFFFFF" stroke-width="5" stroke-linecap="round" stroke-linejoin="round" stroke-miterlimit="10" d="
			M32.973,81.416c0-1.088-0.099-2.093-0.287-3.004v6.265C32.86,83.626,32.973,82.542,32.973,81.416L32.973,81.416z"/>
		
			<path fill-rule="evenodd" clip-rule="evenodd" fill="#005CAB" stroke="#FFFFFF" stroke-width="5" stroke-linecap="round" stroke-linejoin="round" stroke-miterlimit="10" d="
			M20.846,49.893c0.015,0.242,0.062,0.433,0.154,0.579c0.172,0.253,0.472,0.339,0.91,0.253c0.186-0.038,0.362-0.104,0.523-0.205
			c0.305-0.184,0.457-0.44,0.457-0.762c0-0.243-0.054-0.395-0.186-0.464c-0.139-0.08-0.343-0.128-0.62-0.142l-0.528-0.035
			c-0.328-0.01-0.557-0.062-0.699-0.142c-0.252-0.142-0.369-0.388-0.369-0.752c0-0.398,0.117-0.749,0.357-1.057
			c0.24-0.291,0.567-0.492,1.006-0.575c0.398-0.09,0.741-0.038,1.02,0.139c0.271,0.163,0.408,0.496,0.408,0.978l-0.475,0.1
			c-0.02-0.225-0.088-0.402-0.167-0.506c-0.157-0.201-0.44-0.267-0.802-0.19c-0.305,0.055-0.514,0.173-0.664,0.354
			c-0.13,0.18-0.188,0.36-0.188,0.554c0,0.222,0.072,0.364,0.238,0.433c0.1,0.042,0.327,0.069,0.688,0.097l0.531,0.038
			c0.256,0.01,0.449,0.062,0.588,0.156c0.246,0.153,0.365,0.434,0.365,0.821c0,0.492-0.157,0.874-0.461,1.137
			c-0.296,0.284-0.661,0.458-1.076,0.534c-0.451,0.104-0.831,0.035-1.098-0.198c-0.271-0.225-0.412-0.575-0.396-1.053L20.846,49.893
			L20.846,49.893z"/>
		
			<polygon fill-rule="evenodd" clip-rule="evenodd" fill="#005CAB" stroke="#FFFFFF" stroke-width="5" stroke-linecap="round" stroke-linejoin="round" stroke-miterlimit="10" points="
			23.985,46.272 26.758,45.724 26.758,46.261 24.489,46.715 24.489,48.049 26.579,47.633 26.579,48.143 24.489,48.566 
			24.489,50.056 26.796,49.595 26.796,50.122 23.985,50.687 23.985,46.272 		"/>
		
			<path fill-rule="evenodd" clip-rule="evenodd" fill="#005CAB" stroke="#FFFFFF" stroke-width="5" stroke-linecap="round" stroke-linejoin="round" stroke-miterlimit="10" d="
			M29.938,45.211c0.365,0.163,0.6,0.516,0.682,1.074l-0.512,0.097c-0.076-0.305-0.193-0.513-0.385-0.624
			c-0.195-0.107-0.443-0.131-0.744-0.073c-0.359,0.066-0.643,0.288-0.892,0.638c-0.232,0.35-0.356,0.832-0.356,1.445
			c0,0.52,0.102,0.929,0.297,1.22c0.193,0.288,0.534,0.388,0.979,0.295c0.343-0.069,0.622-0.232,0.851-0.513
			c0.225-0.277,0.336-0.672,0.347-1.188l-1.197,0.236v-0.499l1.675-0.329v2.359l-0.338,0.062l-0.124-0.544
			c-0.17,0.263-0.329,0.447-0.448,0.551c-0.23,0.208-0.523,0.33-0.874,0.398c-0.452,0.087-0.831,0-1.167-0.273
			c-0.348-0.354-0.527-0.904-0.527-1.643s0.168-1.358,0.521-1.861c0.326-0.485,0.75-0.78,1.27-0.88
			C29.354,45.08,29.653,45.101,29.938,45.211L29.938,45.211z"/>
		
			<path fill-rule="evenodd" clip-rule="evenodd" fill="#005CAB" stroke="#FFFFFF" stroke-width="5" stroke-linecap="round" stroke-linejoin="round" stroke-miterlimit="10" d="
			M31.92,44.685v2.73c0,0.319,0.055,0.575,0.157,0.766c0.142,0.291,0.409,0.395,0.779,0.319c0.429-0.083,0.733-0.305,0.893-0.69
			c0.074-0.211,0.116-0.468,0.116-0.793v-2.72l0.523-0.107v2.478c0,0.541-0.061,0.98-0.188,1.292
			c-0.224,0.582-0.656,0.936-1.303,1.06c-0.641,0.132-1.083-0.045-1.309-0.537c-0.125-0.27-0.188-0.672-0.188-1.216v-2.474
			L31.92,44.685L31.92,44.685z"/>
		
			<path fill-rule="evenodd" clip-rule="evenodd" fill="#005CAB" stroke="#FFFFFF" stroke-width="5" stroke-linecap="round" stroke-linejoin="round" stroke-miterlimit="10" d="
			M36.834,45.728c0.25-0.052,0.447-0.146,0.576-0.284c0.142-0.138,0.217-0.364,0.217-0.651c0-0.315-0.102-0.506-0.309-0.582
			c-0.092-0.038-0.234-0.042-0.409-0.01l-1.261,0.253v1.507L36.834,45.728L36.834,45.728z M35.135,44.047l1.759-0.35
			c0.291-0.066,0.537-0.066,0.72,0c0.346,0.121,0.545,0.426,0.545,0.936c0,0.27-0.066,0.485-0.146,0.672
			c-0.092,0.187-0.224,0.35-0.399,0.488c0.153,0.042,0.263,0.107,0.33,0.211c0.084,0.097,0.121,0.271,0.132,0.52l0.013,0.592
			c0.004,0.167,0.029,0.291,0.041,0.371c0.029,0.139,0.09,0.211,0.168,0.239v0.09l-0.638,0.131
			c-0.012-0.031-0.024-0.076-0.032-0.139c-0.018-0.059-0.018-0.166-0.033-0.346l-0.029-0.728c-0.013-0.277-0.105-0.46-0.279-0.52
			c-0.101-0.031-0.246-0.031-0.468,0.01l-1.169,0.239v1.881l-0.514,0.111V44.047L35.135,44.047z"/>
		
			<polygon fill-rule="evenodd" clip-rule="evenodd" fill="#005CAB" stroke="#FFFFFF" stroke-width="5" stroke-linecap="round" stroke-linejoin="round" stroke-miterlimit="10" points="
			38.903,43.292 39.422,43.188 39.422,47.599 38.903,47.699 38.903,43.292 		"/>
		
			<path fill-rule="evenodd" clip-rule="evenodd" fill="#005CAB" stroke="#FFFFFF" stroke-width="5" stroke-linecap="round" stroke-linejoin="round" stroke-miterlimit="10" d="
			M41.602,46.649c0.173-0.031,0.32-0.083,0.433-0.149c0.202-0.118,0.362-0.291,0.49-0.555c0.101-0.194,0.171-0.44,0.217-0.721
			c0.031-0.169,0.042-0.322,0.042-0.471c0-0.544-0.088-0.957-0.283-1.22c-0.184-0.256-0.492-0.354-0.904-0.263l-0.92,0.18v3.382
			L41.602,46.649L41.602,46.649z M40.161,43.039l1.543-0.305c0.533-0.104,0.922,0.031,1.213,0.395
			c0.264,0.339,0.392,0.811,0.392,1.42c0,0.464-0.071,0.908-0.233,1.31c-0.257,0.724-0.725,1.154-1.378,1.282l-1.536,0.308V43.039
			L40.161,43.039z"/>
		
			<path fill-rule="evenodd" clip-rule="evenodd" fill="#005CAB" stroke="#FFFFFF" stroke-width="5" stroke-linecap="round" stroke-linejoin="round" stroke-miterlimit="10" d="
			M45.808,44.511l-0.575-1.83l-0.611,2.072L45.808,44.511L45.808,44.511z M44.961,42.079l0.584-0.115l1.379,4.138l-0.566,0.111
			l-0.387-1.251l-1.5,0.305l-0.422,1.407l-0.523,0.097L44.961,42.079L44.961,42.079z"/>
		
			<path fill-rule="evenodd" clip-rule="evenodd" fill="#005CAB" stroke="#FFFFFF" stroke-width="5" stroke-linecap="round" stroke-linejoin="round" stroke-miterlimit="10" d="
			M48.737,45.225c0.171-0.035,0.316-0.083,0.435-0.146c0.199-0.125,0.362-0.301,0.493-0.554c0.087-0.198,0.167-0.433,0.213-0.728
			c0.021-0.169,0.028-0.329,0.028-0.468c0-0.544-0.09-0.956-0.271-1.216c-0.182-0.26-0.494-0.35-0.908-0.274l-0.916,0.18v3.389
			L48.737,45.225L48.737,45.225z M47.292,41.618l1.54-0.315c0.524-0.104,0.938,0.028,1.222,0.398
			c0.253,0.339,0.383,0.818,0.383,1.428c0,0.464-0.066,0.897-0.229,1.306c-0.264,0.724-0.734,1.15-1.376,1.282l-1.54,0.301V41.618
			L47.292,41.618z"/>
		
			<path fill-rule="evenodd" clip-rule="evenodd" fill="#005CAB" stroke="#FFFFFF" stroke-width="5" stroke-linecap="round" stroke-linejoin="round" stroke-miterlimit="10" d="
			M55.473,40.613c0.249,0.333,0.379,0.811,0.379,1.424c0,0.648-0.15,1.223-0.438,1.722c-0.336,0.586-0.815,0.932-1.448,1.057
			c-0.584,0.114-1.043-0.014-1.381-0.398c-0.291-0.371-0.439-0.887-0.439-1.542c0-0.603,0.119-1.133,0.379-1.615
			c0.342-0.606,0.816-0.978,1.461-1.109C54.648,40.024,55.153,40.173,55.473,40.613L55.473,40.613z M55.004,43.506
			c0.219-0.416,0.314-0.87,0.314-1.362c0-0.516-0.109-0.915-0.333-1.178c-0.247-0.27-0.568-0.364-0.967-0.284
			c-0.396,0.073-0.716,0.294-0.972,0.665c-0.25,0.354-0.373,0.846-0.373,1.456c0,0.488,0.113,0.88,0.324,1.175
			c0.215,0.291,0.549,0.384,1.033,0.291C54.494,44.186,54.821,43.926,55.004,43.506L55.004,43.506z"/>
		
			<path fill-rule="evenodd" clip-rule="evenodd" fill="#005CAB" stroke="#FFFFFF" stroke-width="5" stroke-linecap="round" stroke-linejoin="round" stroke-miterlimit="10" d="
			M59.073,39.577c0.269,0.242,0.414,0.547,0.449,0.918l-0.517,0.107c-0.05-0.284-0.167-0.481-0.343-0.613
			c-0.158-0.139-0.404-0.17-0.716-0.111c-0.358,0.076-0.661,0.288-0.899,0.648c-0.225,0.35-0.343,0.835-0.343,1.469
			c0,0.517,0.101,0.915,0.313,1.192c0.195,0.274,0.512,0.381,0.929,0.295c0.38-0.076,0.671-0.302,0.866-0.679
			c0.109-0.201,0.176-0.451,0.234-0.752l0.5-0.097c-0.034,0.468-0.191,0.891-0.451,1.254c-0.299,0.443-0.693,0.71-1.209,0.811
			c-0.448,0.09-0.811,0.007-1.106-0.243c-0.403-0.326-0.6-0.925-0.6-1.781c0-0.648,0.142-1.216,0.437-1.684
			c0.32-0.52,0.771-0.838,1.329-0.949C58.43,39.272,58.797,39.334,59.073,39.577L59.073,39.577z"/>
		
			<path fill-rule="evenodd" clip-rule="evenodd" fill="#005CAB" stroke="#FFFFFF" stroke-width="5" stroke-linecap="round" stroke-linejoin="round" stroke-miterlimit="10" d="
			M60.614,38.95v2.724c0,0.322,0.061,0.579,0.166,0.766c0.15,0.294,0.412,0.398,0.775,0.326c0.432-0.083,0.732-0.326,0.883-0.697
			c0.092-0.204,0.129-0.471,0.129-0.787v-2.724l0.529-0.101v2.475c0,0.541-0.068,0.98-0.191,1.285
			c-0.23,0.586-0.672,0.925-1.312,1.064c-0.646,0.125-1.08-0.052-1.304-0.537c-0.125-0.27-0.201-0.672-0.201-1.216v-2.471
			L60.614,38.95L60.614,38.95z"/>
		
			<path fill-rule="evenodd" clip-rule="evenodd" fill="#005CAB" stroke="#FFFFFF" stroke-width="5" stroke-linecap="round" stroke-linejoin="round" stroke-miterlimit="10" d="
			M63.82,38.309l1.715-0.343c0.34-0.066,0.613-0.014,0.822,0.163c0.203,0.184,0.295,0.475,0.295,0.88
			c0,0.339-0.092,0.655-0.266,0.953c-0.184,0.281-0.475,0.475-0.852,0.551l-1.193,0.239v1.864l-0.521,0.111V38.309L63.82,38.309z
			 M65.82,38.51c-0.105-0.031-0.266-0.031-0.455,0l-1.023,0.208v1.521l1.023-0.197c0.23-0.045,0.412-0.139,0.555-0.281
			c0.15-0.142,0.229-0.364,0.229-0.651C66.148,38.787,66.035,38.589,65.82,38.51L65.82,38.51z"/>
		
			<path fill-rule="evenodd" clip-rule="evenodd" fill="#005CAB" stroke="#FFFFFF" stroke-width="5" stroke-linecap="round" stroke-linejoin="round" stroke-miterlimit="10" d="
			M68.752,39.923l-0.584-1.83l-0.615,2.072L68.752,39.923L68.752,39.923z M67.906,37.491l0.58-0.118l1.391,4.134l-0.574,0.114
			l-0.381-1.248l-1.504,0.309l-0.416,1.396l-0.527,0.114L67.906,37.491L67.906,37.491z"/>
		
			<path fill-rule="evenodd" clip-rule="evenodd" fill="#005CAB" stroke="#FFFFFF" stroke-width="5" stroke-linecap="round" stroke-linejoin="round" stroke-miterlimit="10" d="
			M72.951,36.805c0.264,0.239,0.4,0.551,0.434,0.918l-0.5,0.097c-0.053-0.271-0.176-0.471-0.338-0.61
			c-0.168-0.132-0.408-0.167-0.717-0.104c-0.375,0.073-0.686,0.288-0.904,0.645c-0.242,0.35-0.354,0.838-0.354,1.473
			c0,0.506,0.111,0.904,0.311,1.185c0.219,0.288,0.518,0.381,0.936,0.301c0.385-0.073,0.666-0.301,0.871-0.686
			c0.104-0.201,0.188-0.447,0.229-0.741l0.508-0.104c-0.041,0.475-0.195,0.89-0.445,1.258c-0.303,0.44-0.715,0.703-1.229,0.807
			c-0.441,0.087-0.816,0.003-1.105-0.232c-0.395-0.333-0.604-0.932-0.604-1.788c0-0.651,0.166-1.213,0.455-1.694
			c0.328-0.51,0.768-0.825,1.32-0.943C72.309,36.493,72.678,36.566,72.951,36.805L72.951,36.805z"/>
		
			<polygon fill-rule="evenodd" clip-rule="evenodd" fill="#005CAB" stroke="#FFFFFF" stroke-width="5" stroke-linecap="round" stroke-linejoin="round" stroke-miterlimit="10" points="
			74.045,36.261 74.566,36.157 74.566,40.568 74.045,40.679 74.045,36.261 		"/>
		
			<path fill-rule="evenodd" clip-rule="evenodd" fill="#005CAB" stroke="#FFFFFF" stroke-width="5" stroke-linecap="round" stroke-linejoin="round" stroke-miterlimit="10" d="
			M78.424,36.022c0.26,0.336,0.379,0.811,0.379,1.424c0,0.655-0.148,1.23-0.424,1.729c-0.35,0.579-0.828,0.921-1.463,1.053
			c-0.582,0.118-1.041-0.018-1.373-0.392c-0.309-0.381-0.451-0.887-0.451-1.552c0-0.6,0.135-1.133,0.383-1.618
			c0.324-0.6,0.812-0.974,1.455-1.095C77.604,35.443,78.096,35.578,78.424,36.022L78.424,36.022z M77.961,38.926
			c0.211-0.423,0.305-0.88,0.305-1.369c0-0.52-0.115-0.915-0.34-1.178c-0.24-0.27-0.559-0.367-0.967-0.288
			c-0.393,0.08-0.713,0.302-0.967,0.662c-0.238,0.357-0.367,0.849-0.367,1.462c0,0.488,0.1,0.883,0.318,1.171
			c0.217,0.291,0.564,0.392,1.031,0.291C77.441,39.584,77.766,39.331,77.961,38.926L77.961,38.926z"/>
		
			<polygon fill-rule="evenodd" clip-rule="evenodd" fill="#005CAB" stroke="#FFFFFF" stroke-width="5" stroke-linecap="round" stroke-linejoin="round" stroke-miterlimit="10" points="
			79.295,35.211 79.9,35.086 81.824,38.285 81.824,34.708 82.314,34.611 82.314,39.016 81.732,39.133 79.783,35.953 79.783,39.525 
			79.295,39.622 79.295,35.211 		"/>
		
			<path fill-rule="evenodd" clip-rule="evenodd" fill="#005CAB" stroke="#FFFFFF" stroke-width="5" stroke-linecap="round" stroke-linejoin="round" stroke-miterlimit="10" d="
			M84.967,36.68l-0.584-1.83l-0.609,2.076L84.967,36.68L84.967,36.68z M84.107,34.244l0.584-0.107l1.383,4.13l-0.559,0.111
			l-0.379-1.233l-1.512,0.301l-0.404,1.393l-0.529,0.111L84.107,34.244L84.107,34.244z"/>
		
			<polygon fill-rule="evenodd" clip-rule="evenodd" fill="#005CAB" stroke="#FFFFFF" stroke-width="5" stroke-linecap="round" stroke-linejoin="round" stroke-miterlimit="10" points="
			86.428,33.793 86.939,33.689 86.939,37.571 88.877,37.186 88.877,37.713 86.428,38.194 86.428,33.793 		"/>
		
			<path fill="#005CAB" stroke="#FFFFFF" stroke-width="5" stroke-linecap="round" stroke-linejoin="round" stroke-miterlimit="10" d="
			M86.979,104.376c1.344-2.512,2.225-5.884,2.225-10.389c0-0.069,0.012-0.135,0.012-0.211l-0.068-14.062c0,0-0.008,0.003-0.016,0.01
			c-0.57,0.651-1.324,1.237-2.242,1.726c-0.916,0.509-1.877,0.863-2.895,1.057c-1.115,0.222-2.154,0.253-3.137,0.08
			c-0.986-0.173-1.791-0.541-2.416-1.105c-0.301-0.253-0.541-0.547-0.771-0.856l0.559,1.892l-5.27,1.053l-0.613-2.564l-5.26,1.053
			l-0.602,2.814l-5.176,1.025l0.529-1.982c-0.283,0.516-0.592,0.984-0.933,1.375c-0.574,0.648-1.334,1.223-2.242,1.715
			c-0.924,0.513-1.882,0.863-2.908,1.067c-1.106,0.215-2.156,0.246-3.132,0.069c-0.978-0.17-1.79-0.537-2.424-1.095
			c-0.638-0.564-1.124-1.271-1.441-2.117c-0.229-0.589-0.38-1.355-0.476-2.276l5.082-1.022c0.109,0.634,0.377,1.078,0.768,1.348
			c0.383,0.273,1.004,0.336,1.807,0.163c0.719-0.138,1.229-0.395,1.534-0.755c0.241-0.273,0.354-0.617,0.354-1.022
			c0-0.416-0.112-0.728-0.329-0.95c-0.211-0.204-0.778-0.357-1.732-0.468l-1.846-0.208c-0.961-0.104-1.862-0.329-2.717-0.683
			c-0.844-0.343-1.473-0.89-1.898-1.618c-0.434-0.745-0.655-1.698-0.655-2.873c0-1.147,0.184-2.214,0.581-3.188
			c0.388-0.977,0.898-1.798,1.554-2.481c0.645-0.679,1.372-1.213,2.165-1.59c0.793-0.388,1.613-0.662,2.461-0.839
			c1.014-0.197,1.938-0.243,2.771-0.156c0.825,0.09,1.502,0.291,2.004,0.624c0.49,0.312,0.904,0.707,1.212,1.206
			c0.309,0.478,0.555,0.974,0.721,1.504c0.178,0.526,0.32,1.154,0.42,1.889l-5.023,1.012c-0.117-0.579-0.348-0.974-0.668-1.199
			c-0.35-0.239-0.809-0.298-1.433-0.173c-0.593,0.122-1.059,0.371-1.376,0.738c-0.23,0.291-0.348,0.617-0.348,0.995
			c0,0.329,0.088,0.565,0.258,0.728c0.255,0.229,0.857,0.405,1.791,0.509l2.057,0.226c1.91,0.208,3.238,0.772,4.019,1.694
			c0.752,0.922,1.145,2.089,1.145,3.507c0,0.055,0,0.101,0,0.146l4.127-15.531l5.373-1.078l4.158,13.968l4.982-1.001
			c0.119,0.627,0.375,1.078,0.775,1.345c0.391,0.273,0.994,0.329,1.803,0.169c0.715-0.149,1.232-0.405,1.537-0.762
			c0.234-0.281,0.346-0.613,0.346-1.015c0-0.419-0.105-0.731-0.33-0.953c-0.207-0.208-0.783-0.36-1.727-0.471l-1.842-0.201
			c-0.967-0.121-1.871-0.329-2.717-0.689c-0.844-0.35-1.484-0.897-1.918-1.632c-0.422-0.728-0.641-1.688-0.641-2.852
			c0-1.154,0.195-2.221,0.58-3.202c0.387-0.97,0.891-1.792,1.533-2.474c0.662-0.672,1.387-1.213,2.174-1.591
			c0.801-0.392,1.631-0.662,2.471-0.835c1.02-0.197,1.932-0.256,2.768-0.159c0.836,0.09,1.51,0.294,2.01,0.627
			c0.234,0.152,0.455,0.326,0.645,0.509l-0.053-11.768L20.422,64l-0.004,10.482c0.508-0.398,1.037-0.776,1.606-1.071
			c0.776-0.406,1.585-0.7,2.413-0.863c1.6-0.315,3.067-0.188,4.387,0.398c1.346,0.575,2.378,1.608,3.074,3.104
			c0.347,0.7,0.596,1.494,0.787,2.36v-6.583l5.273-1.057v6.955l4.967-0.98v-6.965l5.311-1.063v20.573l-5.311,1.057v-7.959
			l-4.967,0.984v7.966l-5.273,1.061v-7.721c-0.162,0.849-0.371,1.684-0.64,2.481c-0.636,1.757-1.585,3.278-2.858,4.55
			c-1.269,1.275-2.812,2.097-4.65,2.457c-1.57,0.322-2.945,0.225-4.133-0.271l-0.007,4.432l-0.142,0.021v21.588l7.798-1.112v0.028
			c1.563-0.226,3.29-0.475,5.165-0.745c-0.024-0.003-0.024-0.014-0.024-0.014l8.802-1.262l-0.021,0.003
			c0.701-0.104,1.42-0.197,2.139-0.308l18.626-2.654l11.602-2.128c0,0,2.418,0.097,5.299-0.974
			C83.16,109.66,85.492,107.377,86.979,104.376L86.979,104.376z"/>
		
			<path fill="#005CAB" stroke="#FFFFFF" stroke-width="5" stroke-linecap="round" stroke-linejoin="round" stroke-miterlimit="10" d="
			M35.049,107.242c0.369,0.288,0.91,0.377,1.611,0.288c0.711-0.111,1.273-0.36,1.643-0.776c0.391-0.409,0.6-0.894,0.6-1.452
			c0-0.534-0.209-0.953-0.6-1.258c-0.359-0.298-0.901-0.399-1.602-0.298c-0.674,0.087-1.225,0.354-1.634,0.776
			c-0.382,0.426-0.585,0.918-0.585,1.476C34.483,106.538,34.667,106.947,35.049,107.242L35.049,107.242z"/>
		
			<path fill="#FFFFFF" stroke="#FFFFFF" stroke-width="5" stroke-linecap="round" stroke-linejoin="round" stroke-miterlimit="10" d="
			M23.293,102.682c-0.105,0.627-0.338,1.25-0.7,1.899c-0.255,0.457-0.562,0.849-0.922,1.178c-0.339,0.33-0.833,0.631-1.457,0.908
			c-0.204,0.083-0.421,0.149-0.638,0.222v3.711l2.455-0.339v9.484c1.307-0.184,3.08-0.43,5.205-0.735V102.13L23.293,102.682
			L23.293,102.682z"/>
		
			<path fill="#FFFFFF" stroke="#FFFFFF" stroke-width="5" stroke-linecap="round" stroke-linejoin="round" stroke-miterlimit="10" d="
			M38.584,113.943c-0.417,0.443-1.043,0.707-1.86,0.825c-0.797,0.111-1.413,0-1.842-0.347c-0.456-0.339-0.658-0.832-0.658-1.469
			c0-0.672,0.217-1.248,0.661-1.726c0.442-0.499,1.055-0.79,1.839-0.901c0.761-0.107,1.364,0.028,1.819,0.402
			c0.449,0.371,0.683,0.887,0.683,1.556C39.226,112.945,39.01,113.493,38.584,113.943L38.584,113.943z M35.068,104.521
			c0.409-0.423,0.96-0.689,1.634-0.776c0.7-0.101,1.242,0,1.602,0.298c0.391,0.305,0.6,0.724,0.6,1.258
			c0,0.558-0.209,1.043-0.6,1.452c-0.369,0.416-0.932,0.666-1.643,0.776c-0.701,0.09-1.242,0-1.611-0.288
			c-0.382-0.294-0.566-0.704-0.566-1.244C34.483,105.44,34.686,104.948,35.068,104.521L35.068,104.521z M43.696,114.387
			c0.418-0.772,0.613-1.646,0.613-2.626c0-0.946-0.242-1.736-0.701-2.346c-0.475-0.617-1.223-1.043-2.249-1.31
			c0.733-0.395,1.308-0.912,1.716-1.577c0.426-0.658,0.621-1.383,0.621-2.18c0-0.863-0.174-1.604-0.555-2.238
			c-0.291-0.464-0.695-0.874-1.248-1.213c-0.547-0.35-1.217-0.593-1.979-0.717c-1.012-0.153-2.064-0.153-3.19,0
			c-1.491,0.211-2.784,0.63-3.867,1.251c-1.088,0.617-1.884,1.351-2.399,2.207c-0.513,0.842-0.779,1.695-0.779,2.561
			c0,0.863,0.225,1.601,0.678,2.187c0.318,0.426,0.855,0.8,1.605,1.116c-0.617,0.398-1.1,0.752-1.437,1.074
			c-0.475,0.461-0.829,0.957-1.067,1.479c-0.229,0.53-0.363,1.161-0.363,1.906c0,0.957,0.186,1.729,0.535,2.297
			c0.357,0.575,0.854,1.067,1.498,1.473c0.377,0.229,0.816,0.399,1.279,0.544c2.688-0.392,5.658-0.825,8.756-1.272
			c0.321-0.197,0.629-0.409,0.904-0.641C42.742,115.811,43.284,115.153,43.696,114.387L43.696,114.387z"/>
		
			<path fill="#FFFFFF" stroke="#FFFFFF" stroke-width="5" stroke-linecap="round" stroke-linejoin="round" stroke-miterlimit="10" d="
			M54.889,110.152c-0.212,0.749-0.496,1.289-0.867,1.611c-0.375,0.322-0.783,0.516-1.234,0.589
			c-0.456,0.056-0.859-0.027-1.239-0.246c-0.374-0.226-0.645-0.655-0.841-1.293c-0.25-0.828-0.375-1.961-0.375-3.399
			c0-1.986,0.291-3.444,0.869-4.394c0.376-0.585,0.913-0.939,1.607-1.033c0.498-0.062,0.955,0.01,1.322,0.253
			c0.383,0.229,0.674,0.717,0.867,1.462c0.195,0.721,0.291,1.649,0.291,2.765C55.29,107.931,55.156,109.158,54.889,110.152
			L54.889,110.152z M60.311,106.275c0-0.35,0.02-0.71,0.047-1.064c-0.053-0.825-0.154-1.635-0.361-2.398
			c-0.264-1.053-0.709-1.972-1.334-2.769c-0.592-0.818-1.377-1.396-2.298-1.74c-0.931-0.339-2.083-0.419-3.442-0.232
			c-1.833,0.256-3.332,0.887-4.5,1.902c-1.172,1.005-1.998,2.266-2.489,3.773c-0.475,1.518-0.724,3.063-0.724,4.626
			c0,2.925,0.753,5.118,2.248,6.581c0.463,0.447,0.991,0.787,1.578,1.033c2.555-0.375,5.129-0.752,7.641-1.137
			c0.08-0.052,0.17-0.101,0.246-0.166c1.176-0.874,2.054-2.08,2.625-3.576c0.438-1.147,0.707-2.363,0.814-3.69
			C60.331,107.051,60.311,106.67,60.311,106.275L60.311,106.275z"/>
		
			<path fill="#FFFFFF" stroke="#FFFFFF" stroke-width="5" stroke-linecap="round" stroke-linejoin="round" stroke-miterlimit="10" d="
			M70.803,108.049c-0.209,0.749-0.492,1.286-0.859,1.608c-0.365,0.329-0.783,0.517-1.232,0.586
			c-0.459,0.059-0.863-0.011-1.232-0.236c-0.375-0.229-0.66-0.662-0.85-1.303c-0.242-0.825-0.377-1.958-0.377-3.393
			c0-1.993,0.301-3.451,0.887-4.391c0.359-0.596,0.902-0.942,1.598-1.043c0.498-0.073,0.932,0.011,1.318,0.253
			c0.385,0.236,0.672,0.725,0.871,1.456c0.186,0.734,0.279,1.656,0.279,2.779C71.205,105.824,71.076,107.058,70.803,108.049
			L70.803,108.049z M75.475,108.999c0.426-1.137,0.703-2.363,0.812-3.677c-0.033-0.377-0.049-0.755-0.049-1.15
			c0-0.357,0.016-0.714,0.049-1.067c-0.062-0.835-0.16-1.635-0.361-2.405c-0.258-1.04-0.717-1.965-1.324-2.769
			c-0.609-0.814-1.385-1.39-2.309-1.729c-0.941-0.347-2.084-0.426-3.439-0.229c-1.83,0.246-3.338,0.884-4.512,1.896
			c-1.172,0.995-1.996,2.263-2.475,3.777c-0.389,1.171-0.605,2.353-0.689,3.565c0.02,0.309,0.051,0.62,0.051,0.939
			c0,0.43-0.008,0.849-0.051,1.269c0.166,2.36,0.9,4.165,2.203,5.423c0.389,0.385,0.83,0.683,1.307,0.918
			c3.107-0.485,5.936-0.925,8.334-1.327C74.105,111.566,74.926,110.419,75.475,108.999L75.475,108.999z"/>
		<path stroke="#FFFFFF" stroke-width="5" stroke-linecap="round" stroke-linejoin="round" stroke-miterlimit="10" d="
			M60.362,107.418c0.029-0.419,0.043-0.839,0.043-1.269c0-0.319-0.02-0.63-0.047-0.939c-0.027,0.354-0.047,0.714-0.047,1.064
			C60.311,106.67,60.331,107.051,60.362,107.418L60.362,107.418z"/>
		
			<path fill="#FFFFFF" stroke="#FFFFFF" stroke-width="5" stroke-linecap="round" stroke-linejoin="round" stroke-miterlimit="10" d="
			M80.797,93.897c-0.105,0.621-0.338,1.262-0.701,1.899c-0.26,0.454-0.555,0.846-0.93,1.175c-0.334,0.336-0.816,0.634-1.457,0.915
			c-0.199,0.086-0.422,0.146-0.627,0.218v3.718l2.459-0.343v9.491c1.309-0.184,3.074-0.444,5.203-0.738V93.353L80.797,93.897
			L80.797,93.897z"/>
		
			<path fill="#005CAB" stroke="#FFFFFF" stroke-width="5" stroke-linecap="round" stroke-linejoin="round" stroke-miterlimit="10" d="
			M22.967,147.822c0.221-0.604,0.309-1.275,0.297-2.01c-0.026-0.773-0.158-1.386-0.427-1.812c-0.271-0.43-0.624-0.614-1.065-0.544
			c-0.43,0.066-0.771,0.357-1.039,0.87c-0.272,0.513-0.396,1.23-0.369,2.138c0.012,0.745,0.146,1.341,0.385,1.81
			c0.252,0.461,0.635,0.658,1.148,0.568C22.401,148.769,22.756,148.418,22.967,147.822L22.967,147.822z M23.379,143.529
			c0.283,0.541,0.439,1.272,0.469,2.176c0.01,0.991-0.136,1.833-0.43,2.54c-0.363,0.831-0.889,1.3-1.566,1.407
			c-0.645,0.107-1.154-0.149-1.543-0.766c-0.344-0.59-0.516-1.387-0.533-2.377c-0.02-0.898,0.101-1.692,0.376-2.36
			c0.337-0.877,0.862-1.379,1.571-1.483C22.465,142.545,23.014,142.836,23.379,143.529L23.379,143.529z"/>
		
			<path fill="#005CAB" stroke="#FFFFFF" stroke-width="5" stroke-linecap="round" stroke-linejoin="round" stroke-miterlimit="10" d="
			M30.05,147.417c0.112,0.118,0.244,0.163,0.386,0.139c0.18-0.028,0.35-0.122,0.525-0.277c0.268-0.263,0.407-0.651,0.407-1.147
			l-0.024-0.651c-0.053,0.077-0.133,0.139-0.232,0.201c-0.1,0.062-0.2,0.104-0.281,0.132l-0.319,0.114
			c-0.175,0.069-0.317,0.149-0.403,0.249c-0.163,0.167-0.238,0.41-0.234,0.718C29.879,147.126,29.945,147.303,30.05,147.417
			L30.05,147.417z M31.086,145.057c0.116-0.048,0.184-0.139,0.229-0.271c0.021-0.08,0.029-0.187,0.029-0.322
			c-0.008-0.273-0.074-0.464-0.19-0.564c-0.142-0.114-0.313-0.149-0.538-0.114c-0.271,0.045-0.453,0.187-0.565,0.437
			c-0.063,0.139-0.093,0.326-0.105,0.589l-0.479,0.073c-0.009-0.596,0.112-1.025,0.337-1.303c0.229-0.267,0.5-0.43,0.805-0.475
			c0.354-0.062,0.648,0,0.879,0.18c0.217,0.184,0.338,0.499,0.342,0.953l0.066,2.793c0,0.073,0.008,0.136,0.025,0.187
			c0.032,0.046,0.074,0.066,0.148,0.06c0,0,0.051-0.014,0.076-0.024c0.021-0.014,0.059-0.018,0.096-0.035l0.005,0.6
			c-0.079,0.042-0.139,0.08-0.177,0.104c-0.037,0.003-0.094,0.021-0.174,0.038c-0.176,0.024-0.305-0.059-0.391-0.236
			c-0.039-0.107-0.076-0.245-0.094-0.439c-0.096,0.242-0.244,0.439-0.438,0.641c-0.191,0.191-0.402,0.302-0.637,0.336
			c-0.286,0.043-0.523-0.048-0.707-0.294c-0.176-0.243-0.279-0.565-0.279-0.974c-0.012-0.451,0.062-0.807,0.238-1.078
			c0.172-0.273,0.398-0.464,0.682-0.568L31.086,145.057L31.086,145.057z"/>
		
			<path fill="#005CAB" stroke="#FFFFFF" stroke-width="5" stroke-linecap="round" stroke-linejoin="round" stroke-miterlimit="10" d="
			M32.594,142.909l0.477-0.076l0.019,0.679c0.13-0.309,0.288-0.527,0.456-0.679c0.141-0.146,0.32-0.239,0.524-0.271
			c0.425-0.069,0.729,0.125,0.891,0.579c0.089,0.246,0.134,0.606,0.151,1.095l0.053,3.09l-0.516,0.084l-0.068-3.036
			c0-0.294-0.035-0.53-0.095-0.696c-0.097-0.284-0.262-0.406-0.495-0.375c-0.125,0.024-0.23,0.048-0.305,0.107
			c-0.129,0.086-0.246,0.239-0.359,0.458c-0.083,0.163-0.132,0.347-0.154,0.509c-0.016,0.187-0.027,0.43-0.027,0.742l0.05,2.526
			l-0.504,0.079L32.594,142.909L32.594,142.909z"/>
		
			<path fill="#005CAB" stroke="#FFFFFF" stroke-width="5" stroke-linecap="round" stroke-linejoin="round" stroke-miterlimit="10" d="
			M35.764,142.42l0.53-0.083l0.091,4.803l-0.521,0.079L35.764,142.42L35.764,142.42z M35.737,140.608l0.516-0.08l0.02,0.918
			l-0.52,0.08L35.737,140.608L35.737,140.608z"/>
		
			<path fill="#005CAB" stroke="#FFFFFF" stroke-width="5" stroke-linecap="round" stroke-linejoin="round" stroke-miterlimit="10" d="
			M37.372,145.456c0.03,0.277,0.068,0.471,0.151,0.61c0.132,0.235,0.354,0.325,0.683,0.277c0.188-0.028,0.367-0.122,0.512-0.277
			c0.15-0.149,0.218-0.367,0.201-0.641c-0.016-0.215-0.062-0.346-0.188-0.437c-0.071-0.059-0.213-0.107-0.438-0.17l-0.417-0.093
			c-0.267-0.059-0.466-0.139-0.591-0.25c-0.222-0.184-0.35-0.468-0.362-0.856c-0.003-0.454,0.096-0.842,0.292-1.157
			c0.216-0.315,0.478-0.51,0.85-0.558c0.463-0.073,0.803,0.094,1.012,0.475c0.149,0.253,0.205,0.534,0.205,0.853l-0.488,0.073
			c-0.006-0.184-0.051-0.339-0.125-0.471c-0.125-0.198-0.344-0.271-0.641-0.225c-0.193,0.035-0.335,0.121-0.442,0.25
			c-0.101,0.128-0.146,0.294-0.134,0.485c0,0.211,0.071,0.36,0.203,0.471c0.08,0.059,0.195,0.111,0.343,0.139l0.356,0.076
			c0.377,0.083,0.623,0.184,0.754,0.291c0.207,0.173,0.314,0.489,0.322,0.922c0,0.44-0.097,0.825-0.293,1.175
			c-0.202,0.346-0.52,0.547-0.943,0.619c-0.449,0.07-0.783-0.041-0.979-0.339c-0.196-0.284-0.306-0.687-0.334-1.15L37.372,145.456
			L37.372,145.456z"/>
		
			<path fill="#005CAB" stroke="#FFFFFF" stroke-width="5" stroke-linecap="round" stroke-linejoin="round" stroke-miterlimit="10" d="
			M39.852,141.748l0.504-0.087l0.021,0.689c0.11-0.26,0.233-0.447,0.307-0.575c0.169-0.204,0.36-0.329,0.575-0.364
			c0.246-0.038,0.438,0.024,0.593,0.188c0.083,0.086,0.157,0.242,0.237,0.437c0.113-0.274,0.237-0.485,0.383-0.638
			c0.154-0.139,0.32-0.232,0.525-0.263c0.398-0.069,0.691,0.128,0.842,0.568c0.086,0.243,0.131,0.572,0.144,1.001l0.056,3.212
			l-0.516,0.08l-0.072-3.351c-0.012-0.326-0.066-0.53-0.17-0.634c-0.1-0.104-0.225-0.142-0.375-0.128
			c-0.209,0.042-0.369,0.17-0.52,0.409c-0.136,0.232-0.196,0.603-0.178,1.102l0.047,2.799l-0.521,0.094l-0.057-3.15
			c-0.008-0.329-0.042-0.568-0.101-0.7c-0.071-0.222-0.217-0.312-0.433-0.284c-0.199,0.038-0.371,0.184-0.521,0.454
			c-0.154,0.256-0.23,0.7-0.208,1.32l0.054,2.557l-0.517,0.084L39.852,141.748L39.852,141.748z"/>
		
			<path fill="#005CAB" stroke="#FFFFFF" stroke-width="5" stroke-linecap="round" stroke-linejoin="round" stroke-miterlimit="10" d="
			M46.604,144.364c0.109-0.419,0.17-0.894,0.162-1.396c-0.012-0.444-0.065-0.797-0.162-1.064c-0.151-0.416-0.404-0.6-0.746-0.551
			c-0.308,0.045-0.537,0.273-0.666,0.683c-0.134,0.402-0.193,0.859-0.193,1.396c0.018,0.513,0.094,0.929,0.248,1.251
			c0.145,0.312,0.378,0.447,0.671,0.398C46.26,145.033,46.483,144.794,46.604,144.364L46.604,144.364z M46.85,141.107
			c0.283,0.371,0.428,0.956,0.441,1.76c0.012,0.783-0.092,1.441-0.312,1.985c-0.23,0.544-0.592,0.853-1.092,0.942
			c-0.414,0.059-0.746-0.114-0.996-0.52c-0.266-0.416-0.391-0.987-0.415-1.753c-0.005-0.804,0.107-1.469,0.356-1.989
			c0.242-0.523,0.584-0.814,1.025-0.894C46.245,140.577,46.575,140.732,46.85,141.107L46.85,141.107z"/>
		
			<path fill="#005CAB" stroke="#FFFFFF" stroke-width="5" stroke-linecap="round" stroke-linejoin="round" stroke-miterlimit="10" d="
			M49.982,143.907c0.146,0.315,0.356,0.458,0.671,0.412c0.237-0.042,0.437-0.229,0.574-0.575c0.138-0.346,0.209-0.825,0.188-1.428
			c0-0.613-0.092-1.043-0.249-1.313c-0.163-0.271-0.362-0.392-0.593-0.347c-0.25,0.035-0.466,0.225-0.606,0.568
			c-0.153,0.329-0.226,0.811-0.226,1.417C49.77,143.158,49.834,143.578,49.982,143.907L49.982,143.907z M51.041,140.102
			c0.104,0.083,0.208,0.222,0.324,0.43l-0.042-2.443l0.484-0.073l0.137,6.628l-0.453,0.08l-0.018-0.672
			c-0.124,0.319-0.246,0.547-0.417,0.71c-0.152,0.156-0.333,0.253-0.544,0.288c-0.344,0.055-0.643-0.122-0.896-0.537
			c-0.261-0.413-0.388-0.991-0.411-1.747c-0.016-0.704,0.098-1.32,0.305-1.881c0.223-0.548,0.531-0.849,0.947-0.922
			C50.682,139.925,50.89,139.97,51.041,140.102L51.041,140.102z"/>
		
			<path fill="#005CAB" stroke="#FFFFFF" stroke-width="5" stroke-linecap="round" stroke-linejoin="round" stroke-miterlimit="10" d="
			M54.648,141.412c-0.022-0.35-0.067-0.62-0.147-0.818c-0.146-0.374-0.387-0.53-0.712-0.478c-0.241,0.038-0.425,0.208-0.575,0.496
			c-0.154,0.298-0.237,0.651-0.237,1.067L54.648,141.412L54.648,141.412z M54.434,139.544c0.214,0.135,0.365,0.319,0.477,0.555
			c0.094,0.225,0.17,0.495,0.225,0.814c0.021,0.222,0.045,0.575,0.059,1.057l-2.218,0.35c0.022,0.492,0.101,0.873,0.247,1.15
			c0.141,0.273,0.351,0.388,0.642,0.343c0.267-0.038,0.466-0.215,0.629-0.523c0.079-0.17,0.132-0.371,0.163-0.586l0.499-0.09
			c0,0.18-0.046,0.388-0.104,0.617c-0.065,0.225-0.154,0.419-0.246,0.575c-0.157,0.263-0.334,0.454-0.561,0.572
			c-0.131,0.069-0.26,0.121-0.418,0.142c-0.379,0.066-0.703-0.104-0.953-0.502c-0.289-0.398-0.426-0.984-0.447-1.774
			c-0.012-0.772,0.104-1.427,0.361-1.951c0.26-0.52,0.594-0.821,1.02-0.894C54.022,139.374,54.231,139.419,54.434,139.544
			L54.434,139.544z"/>
		
			<path fill="#005CAB" stroke="#FFFFFF" stroke-width="5" stroke-linecap="round" stroke-linejoin="round" stroke-miterlimit="10" d="
			M60.279,137.157c0.293,0.402,0.462,0.883,0.501,1.438l-0.539,0.086c-0.064-0.419-0.203-0.734-0.377-0.957
			c-0.2-0.222-0.463-0.305-0.791-0.25c-0.41,0.069-0.726,0.347-0.963,0.846c-0.246,0.496-0.35,1.213-0.333,2.166
			c0.019,0.776,0.149,1.383,0.378,1.83c0.237,0.451,0.575,0.638,1.018,0.568c0.412-0.073,0.719-0.374,0.914-0.915
			c0.117-0.288,0.186-0.645,0.244-1.092l0.539-0.09c-0.022,0.7-0.182,1.313-0.437,1.826c-0.321,0.627-0.761,0.98-1.312,1.064
			c-0.483,0.073-0.884-0.094-1.22-0.499c-0.447-0.548-0.688-1.477-0.7-2.758c-0.022-0.974,0.125-1.802,0.428-2.474
			c0.333-0.735,0.808-1.154,1.418-1.254C59.571,136.616,59.985,136.772,60.279,137.157L60.279,137.157z"/>
		
			<path fill="#005CAB" stroke="#FFFFFF" stroke-width="5" stroke-linecap="round" stroke-linejoin="round" stroke-miterlimit="10" d="
			M63.535,139.991c-0.031-0.354-0.086-0.617-0.16-0.814c-0.148-0.375-0.379-0.53-0.709-0.482c-0.229,0.042-0.418,0.208-0.578,0.502
			c-0.15,0.292-0.234,0.645-0.234,1.064L63.535,139.991L63.535,139.991z M63.307,138.13c0.213,0.118,0.365,0.308,0.48,0.547
			c0.107,0.229,0.176,0.502,0.223,0.825c0.018,0.211,0.061,0.562,0.061,1.05l-2.217,0.357c0.018,0.479,0.109,0.866,0.246,1.144
			c0.148,0.271,0.361,0.392,0.641,0.343c0.264-0.042,0.48-0.211,0.623-0.527c0.086-0.17,0.141-0.367,0.172-0.589l0.506-0.083
			c-0.014,0.18-0.043,0.381-0.121,0.61c-0.07,0.229-0.146,0.43-0.236,0.572c-0.148,0.267-0.33,0.461-0.562,0.586
			c-0.117,0.069-0.26,0.118-0.416,0.138c-0.377,0.062-0.701-0.107-0.969-0.502c-0.271-0.402-0.412-0.987-0.428-1.781
			c-0.014-0.773,0.104-1.421,0.363-1.94c0.256-0.53,0.584-0.825,1.023-0.887C62.895,137.954,63.104,138.002,63.307,138.13
			L63.307,138.13z"/>
		
			<path fill="#005CAB" stroke="#FFFFFF" stroke-width="5" stroke-linecap="round" stroke-linejoin="round" stroke-miterlimit="10" d="
			M64.623,137.78l0.488-0.066l0.018,0.828c0.027-0.173,0.121-0.388,0.275-0.645c0.15-0.253,0.326-0.398,0.531-0.426l0.053-0.01
			c0,0,0.057,0,0.109,0l0.018,0.859c-0.029-0.007-0.055-0.007-0.055-0.007c-0.055,0-0.072,0.007-0.107,0.01
			c-0.258,0.045-0.457,0.205-0.588,0.492c-0.143,0.288-0.199,0.592-0.188,0.932l0.045,2.775l-0.5,0.083L64.623,137.78L64.623,137.78
			z"/>
		
			<path fill="#005CAB" stroke="#FFFFFF" stroke-width="5" stroke-linecap="round" stroke-linejoin="round" stroke-miterlimit="10" d="
			M66.561,136.117l0.525-0.077l0.018,1.355l0.492-0.083l0.006,0.658l-0.475,0.08l0.051,3.146c0.012,0.173,0.051,0.274,0.121,0.315
			c0.041,0.031,0.104,0.038,0.199,0.021l0.055-0.007c0.049-0.014,0.088-0.024,0.115-0.038l0.018,0.648
			c-0.059,0.035-0.117,0.059-0.178,0.083c-0.062,0.021-0.131,0.042-0.209,0.055c-0.236,0.038-0.4-0.035-0.496-0.215
			c-0.088-0.18-0.133-0.426-0.139-0.731l-0.061-3.198l-0.4,0.066l-0.027-0.662l0.428-0.062L66.561,136.117L66.561,136.117z"/>
		
			<path fill="#005CAB" stroke="#FFFFFF" stroke-width="5" stroke-linecap="round" stroke-linejoin="round" stroke-miterlimit="10" d="
			M68.045,137.257l0.527-0.076l0.092,4.792l-0.512,0.086L68.045,137.257L68.045,137.257z M68.018,135.448l0.518-0.076l0.016,0.911
			l-0.521,0.076L68.018,135.448L68.018,135.448z"/>
		
			<path fill="#005CAB" stroke="#FFFFFF" stroke-width="5" stroke-linecap="round" stroke-linejoin="round" stroke-miterlimit="10" d="
			M69.494,135.531c0.109-0.291,0.332-0.471,0.678-0.523c0.037-0.007,0.064-0.007,0.064-0.007c0.064-0.007,0.111-0.007,0.15-0.007
			l0.012,0.735c-0.047,0-0.088,0-0.109,0.01c-0.029,0-0.053,0-0.076,0c-0.158,0.031-0.244,0.107-0.27,0.239
			c-0.041,0.135-0.041,0.46-0.041,0.98l0.521-0.076l0.016,0.638l-0.512,0.08l0.078,4.162l-0.504,0.08l-0.078-4.155l-0.422,0.062
			l-0.012-0.638l0.41-0.076l-0.006-0.749C69.4,135.947,69.424,135.705,69.494,135.531L69.494,135.531z"/>
		
			<path fill="#005CAB" stroke="#FFFFFF" stroke-width="5" stroke-linecap="round" stroke-linejoin="round" stroke-miterlimit="10" d="
			M70.836,136.813l0.516-0.08l0.104,4.799l-0.52,0.08L70.836,136.813L70.836,136.813z M70.803,135.001l0.525-0.08l0.012,0.918
			l-0.514,0.076L70.803,135.001L70.803,135.001z"/>
		
			<path fill="#005CAB" stroke="#FFFFFF" stroke-width="5" stroke-linecap="round" stroke-linejoin="round" stroke-miterlimit="10" d="
			M74.08,136.533c0.225,0.222,0.363,0.662,0.42,1.307l-0.498,0.073c-0.037-0.292-0.096-0.53-0.219-0.714
			c-0.115-0.17-0.297-0.243-0.52-0.201c-0.33,0.048-0.555,0.333-0.688,0.866c-0.092,0.336-0.133,0.755-0.117,1.223
			c0.014,0.489,0.088,0.884,0.219,1.192c0.139,0.315,0.344,0.44,0.619,0.398c0.217-0.038,0.383-0.16,0.496-0.385
			c0.127-0.232,0.199-0.523,0.232-0.894l0.51-0.073c-0.051,0.648-0.184,1.14-0.408,1.469c-0.207,0.34-0.5,0.534-0.85,0.582
			c-0.4,0.069-0.73-0.114-0.969-0.537c-0.248-0.426-0.373-0.977-0.391-1.663c-0.014-0.853,0.102-1.532,0.348-2.044
			c0.252-0.509,0.572-0.8,0.969-0.866C73.588,136.217,73.867,136.304,74.08,136.533L74.08,136.533z"/>
		
			<path fill="#005CAB" stroke="#FFFFFF" stroke-width="5" stroke-linecap="round" stroke-linejoin="round" stroke-miterlimit="10" d="
			M75.559,140.144c0.109,0.118,0.24,0.17,0.385,0.142c0.184-0.038,0.357-0.122,0.52-0.284c0.283-0.267,0.418-0.648,0.404-1.14
			l-0.01-0.658c-0.061,0.083-0.141,0.146-0.24,0.208c-0.086,0.052-0.193,0.097-0.283,0.131l-0.316,0.118
			c-0.178,0.069-0.316,0.152-0.414,0.246c-0.146,0.16-0.215,0.402-0.215,0.714C75.389,139.853,75.457,140.022,75.559,140.144
			L75.559,140.144z M76.592,137.78c0.117-0.042,0.191-0.135,0.229-0.274c0.018-0.069,0.037-0.18,0.037-0.312
			c-0.02-0.281-0.074-0.468-0.211-0.572c-0.115-0.115-0.297-0.139-0.52-0.101c-0.275,0.035-0.459,0.184-0.568,0.433
			c-0.066,0.132-0.096,0.322-0.102,0.579l-0.486,0.083c0-0.603,0.113-1.032,0.338-1.31c0.23-0.267,0.504-0.419,0.807-0.482
			c0.352-0.052,0.652,0.014,0.877,0.191c0.232,0.18,0.34,0.492,0.357,0.956l0.051,2.776c0.006,0.093,0.006,0.156,0.041,0.201
			c0.021,0.045,0.068,0.066,0.133,0.052c0.021-0.007,0.051-0.01,0.076-0.024c0,0,0.059-0.014,0.1-0.028v0.603
			c-0.074,0.042-0.133,0.08-0.176,0.087c-0.047,0.024-0.107,0.038-0.168,0.048c-0.182,0.024-0.301-0.052-0.385-0.239
			c-0.051-0.097-0.09-0.25-0.105-0.43c-0.096,0.229-0.25,0.444-0.436,0.634c-0.193,0.187-0.402,0.305-0.641,0.34
			c-0.281,0.045-0.516-0.052-0.697-0.298c-0.191-0.246-0.285-0.568-0.293-0.974c-0.012-0.443,0.068-0.807,0.242-1.081
			c0.168-0.271,0.4-0.464,0.701-0.568L76.592,137.78L76.592,137.78z"/>
		
			<path fill="#005CAB" stroke="#FFFFFF" stroke-width="5" stroke-linecap="round" stroke-linejoin="round" stroke-miterlimit="10" d="
			M80.115,135.573c0.219,0.229,0.35,0.662,0.41,1.303l-0.494,0.073c-0.041-0.291-0.107-0.527-0.229-0.707
			c-0.096-0.177-0.279-0.25-0.52-0.215c-0.326,0.052-0.545,0.343-0.682,0.876c-0.088,0.33-0.125,0.742-0.119,1.227
			c0.025,0.488,0.084,0.883,0.227,1.188c0.133,0.305,0.34,0.44,0.607,0.395c0.225-0.035,0.391-0.167,0.51-0.388
			s0.199-0.513,0.24-0.88l0.486-0.077c-0.037,0.648-0.166,1.137-0.385,1.473c-0.223,0.322-0.527,0.523-0.873,0.572
			c-0.396,0.069-0.721-0.114-0.961-0.533c-0.238-0.423-0.373-0.978-0.4-1.677c-0.008-0.849,0.115-1.521,0.359-2.034
			c0.248-0.506,0.578-0.797,0.979-0.866C79.611,135.25,79.896,135.331,80.115,135.573L80.115,135.573z"/>
		
			<path fill="#005CAB" stroke="#FFFFFF" stroke-width="5" stroke-linecap="round" stroke-linejoin="round" stroke-miterlimit="10" d="
			M80.949,135.202l0.518-0.09l0.102,4.807l-0.527,0.076L80.949,135.202L80.949,135.202z M80.918,133.383l0.52-0.086l0.008,0.925
			l-0.512,0.076L80.918,133.383L80.918,133.383z"/>
		
			<path fill="#005CAB" stroke="#FFFFFF" stroke-width="5" stroke-linecap="round" stroke-linejoin="round" stroke-miterlimit="10" d="
			M83.961,132.752l-0.729,1.41l-0.393,0.073l0.5-1.39L83.961,132.752L83.961,132.752z M84.148,138.366
			c0.109-0.43,0.158-0.891,0.15-1.386c-0.004-0.447-0.047-0.811-0.15-1.082c-0.145-0.416-0.4-0.603-0.744-0.544
			c-0.314,0.052-0.539,0.271-0.672,0.672s-0.191,0.876-0.176,1.403c0.01,0.506,0.088,0.936,0.234,1.248
			c0.15,0.312,0.369,0.458,0.676,0.405C83.803,139.031,84.033,138.789,84.148,138.366L84.148,138.366z M84.389,135.108
			c0.293,0.371,0.434,0.96,0.453,1.768c0.016,0.769-0.098,1.435-0.318,1.982c-0.229,0.537-0.6,0.849-1.09,0.939
			c-0.418,0.066-0.742-0.114-1.006-0.52c-0.252-0.409-0.379-0.991-0.4-1.75c-0.012-0.814,0.096-1.473,0.348-1.996
			c0.24-0.523,0.59-0.818,1.029-0.891C83.789,134.585,84.107,134.734,84.389,135.108L84.389,135.108z"/>
		
			<path fill="#005CAB" stroke="#FFFFFF" stroke-width="5" stroke-linecap="round" stroke-linejoin="round" stroke-miterlimit="10" d="
			M85.369,134.467l0.479-0.076l0.018,0.687c0.133-0.302,0.283-0.53,0.445-0.687c0.154-0.146,0.338-0.232,0.529-0.256
			c0.428-0.076,0.732,0.111,0.893,0.572c0.082,0.25,0.127,0.606,0.148,1.099l0.057,3.098l-0.523,0.076l-0.057-3.039
			c-0.008-0.292-0.041-0.523-0.09-0.693c-0.104-0.288-0.271-0.419-0.508-0.371c-0.121,0.014-0.221,0.048-0.295,0.101
			c-0.133,0.093-0.26,0.242-0.359,0.454c-0.096,0.173-0.133,0.343-0.156,0.52c-0.027,0.167-0.043,0.419-0.027,0.731l0.051,2.53
			l-0.516,0.083L85.369,134.467L85.369,134.467z"/>
		
			<path fill="#005CAB" stroke="#FFFFFF" stroke-width="5" stroke-linecap="round" stroke-linejoin="round" stroke-miterlimit="10" d="
			M24.368,144.222l0.492-0.08l0.003,0.825c0.054-0.159,0.149-0.371,0.292-0.63c0.153-0.256,0.328-0.409,0.525-0.43l0.049-0.007
			c0,0,0.066,0,0.131,0l0.012,0.856c-0.029-0.014-0.066-0.014-0.066-0.014c-0.059,0.007-0.076,0.014-0.076,0.014
			c-0.291,0.045-0.479,0.201-0.617,0.485c-0.131,0.291-0.195,0.603-0.189,0.947l0.059,2.775l-0.501,0.076L24.368,144.222
			L24.368,144.222z"/>
		
			<path fill="#005CAB" stroke="#FFFFFF" stroke-width="5" stroke-linecap="round" stroke-linejoin="round" stroke-miterlimit="10" d="
			M28.012,144.697c-0.157-0.26-0.365-0.374-0.609-0.333c-0.35,0.059-0.591,0.36-0.703,0.918c-0.072,0.298-0.096,0.669-0.084,1.137
			c0.012,0.544,0.092,0.942,0.227,1.213c0.15,0.253,0.341,0.374,0.561,0.336c0.369-0.065,0.625-0.367,0.761-0.911
			c0.083-0.312,0.112-0.669,0.112-1.064C28.258,145.396,28.17,144.963,28.012,144.697L28.012,144.697z M27.93,143.844
			c0.098,0.087,0.199,0.229,0.291,0.416v-0.61l0.475-0.073l0.083,4.383c0.021,0.606-0.021,1.099-0.128,1.469
			c-0.213,0.689-0.6,1.078-1.184,1.182c-0.32,0.049-0.608-0.023-0.834-0.225c-0.221-0.194-0.361-0.541-0.4-1.025l0.525-0.084
			c0.029,0.201,0.076,0.361,0.154,0.475c0.117,0.152,0.305,0.223,0.555,0.184c0.388-0.059,0.641-0.322,0.744-0.783
			c0.064-0.266,0.096-0.734,0.076-1.393c-0.092,0.26-0.221,0.457-0.357,0.609c-0.136,0.139-0.326,0.223-0.568,0.268
			c-0.32,0.052-0.615-0.094-0.879-0.42c-0.25-0.332-0.379-0.925-0.402-1.781c-0.01-0.807,0.1-1.448,0.351-1.95
			c0.215-0.496,0.532-0.766,0.873-0.825C27.53,143.626,27.747,143.688,27.93,143.844L27.93,143.844z"/>
	</g>
	<g>
		<path fill-rule="evenodd" clip-rule="evenodd" fill="#005CAB" d="M20.031,122.956l60.643-9.713
			c4.982-1.084,6.934-2.384,8.898-8.032c0,9.987,0,15.223,0,15.223c-0.105,4.768-1.312,8.677-6.707,9.907
			c-7.408,1.161-62.834,10.129-62.834,10.129V122.956L20.031,122.956z"/>
		<path fill-rule="evenodd" clip-rule="evenodd" fill="#FFFFFF" d="M22.956,139.111l5.32-15.787l4.968-0.842l5.329,13.982
			l-4.865,0.825l-0.562-1.847l-4.869,0.821l-0.551,2.048L22.956,139.111L22.956,139.111z M30.712,127.392l-1.524,5.666l3.105-0.537
			L30.712,127.392L30.712,127.392z"/>
		<path fill-rule="evenodd" clip-rule="evenodd" fill="#FFFFFF" d="M53.39,124.754l-4.606,0.783
			c-0.084-0.734-0.351-1.271-0.81-1.601c-0.442-0.34-1.013-0.447-1.7-0.34c-0.857,0.152-1.572,0.606-2.108,1.369
			c-0.54,0.766-0.825,1.899-0.825,3.399c0,1.033,0.122,1.795,0.359,2.308c0.225,0.495,0.562,0.845,0.96,1.04
			c0.415,0.197,0.944,0.232,1.549,0.131c0.753-0.131,1.358-0.44,1.792-0.918c0.451-0.502,0.715-1.161,0.811-1.986l4.691-0.804
			c-0.112,0.942-0.289,1.747-0.555,2.429c-0.273,0.679-0.717,1.379-1.357,2.121c-0.617,0.731-1.371,1.341-2.22,1.843
			c-0.872,0.485-1.862,0.828-3.013,1.019c-1.125,0.19-2.17,0.201-3.142,0.031c-0.962-0.173-1.766-0.52-2.424-1.022
			c-0.642-0.499-1.153-1.133-1.521-1.868c-0.524-1.019-0.781-2.221-0.781-3.58c0-1.15,0.186-2.27,0.569-3.327
			c0.371-1.067,0.885-1.989,1.551-2.779c0.648-0.78,1.375-1.417,2.174-1.902c1.025-0.603,2.141-1.012,3.387-1.224
			c1.074-0.18,2.086-0.187,3.02-0.024c0.949,0.159,1.732,0.502,2.338,1.015c0.604,0.516,1.079,1.144,1.395,1.892
			C53.157,123.299,53.307,123.961,53.39,124.754L53.39,124.754z"/>
		<path fill-rule="evenodd" clip-rule="evenodd" fill="#FFFFFF" d="M68.561,122.18l-4.611,0.776c-0.1-0.731-0.367-1.261-0.812-1.594
			c-0.441-0.34-1.016-0.464-1.703-0.336c-0.862,0.142-1.562,0.6-2.111,1.362c-0.543,0.77-0.814,1.899-0.814,3.406
			c0,1.029,0.121,1.795,0.346,2.301c0.242,0.502,0.552,0.845,0.973,1.04c0.414,0.19,0.938,0.229,1.544,0.135
			c0.75-0.138,1.35-0.443,1.799-0.932c0.441-0.488,0.701-1.147,0.793-1.975l4.689-0.797c-0.092,0.936-0.275,1.75-0.541,2.419
			c-0.266,0.672-0.727,1.379-1.355,2.121c-0.621,0.734-1.361,1.348-2.236,1.847c-0.863,0.492-1.861,0.828-2.996,1.022
			c-1.132,0.19-2.182,0.201-3.144,0.031c-0.956-0.18-1.762-0.52-2.432-1.019c-0.633-0.516-1.148-1.133-1.518-1.871
			c-0.523-1.022-0.783-2.221-0.783-3.58c0-1.157,0.18-2.27,0.564-3.333c0.373-1.06,0.885-1.985,1.553-2.772
			c0.658-0.793,1.384-1.424,2.183-1.896c1.009-0.61,2.14-1.015,3.381-1.227c1.074-0.188,2.092-0.191,3.033-0.031
			c0.949,0.159,1.725,0.496,2.324,1.015c0.613,0.513,1.076,1.144,1.4,1.899C68.326,120.725,68.475,121.386,68.561,122.18
			L68.561,122.18z"/>
		<polygon fill-rule="evenodd" clip-rule="evenodd" fill="#FFFFFF" points="69.594,131.193 69.594,116.3 75.502,115.298 
			78.127,124.152 80.732,114.408 86.639,113.41 86.639,128.292 82.211,129.048 82.211,120.693 79.803,129.454 76.406,130.032 
			73.992,122.09 73.992,130.441 69.594,131.193 		"/>
		<polygon fill-rule="evenodd" clip-rule="evenodd" fill="#ED1C24" points="20.44,53.354 89.164,40 89.164,46.833 20.44,60.178 
			20.44,53.354 		"/>
		<polygon fill-rule="evenodd" clip-rule="evenodd" fill="#FFE100" points="20.44,55.565 89.164,42.217 89.164,44.74 20.44,58.084 
			20.44,55.565 		"/>
		<polygon fill="#005CAB" points="52.256,11.918 49.315,10.082 51.148,7.146 54.09,8.973 52.256,11.918 		"/>
		<path fill="#005CAB" d="M60.362,33.007l-1.048-4.965c3.407-0.069,6.038-2.724,6.038-6.009c0-3.299-2.686-5.984-5.996-5.984
			c-0.953,0-1.834,0.253-2.651,0.651c-0.407,0.226-0.808,0.613-1.291,0.984c-0.582,0.468-1.249,1.483-1.522,1.902l-0.317,0.01
			l-0.296-0.26c-0.445-0.413-0.671-0.527-0.938-0.641c-0.6-0.267-1.418-0.471-2.435-0.717c-0.165-0.017-0.315-0.045-0.481-0.045
			c-3.308,0-5.986,2.675-5.986,5.988c0,3.316,2.679,5.995,5.986,5.995l0.389-0.017l1.311,6.168
			c-1.768,2.127-4.434,3.482-7.424,3.482c-5.326,0-9.656-4.314-9.656-9.658c0-3.833,2.251-7.145,5.491-8.704
			c1.192-4.332,5.167-7.53,9.89-7.53c1.16,0,2.256,0.201,3.295,0.548c1.795-1.511,4.127-2.419,6.637-2.419
			c3.21,0,6.064,1.466,7.955,3.76c4.658,0.683,8.244,4.702,8.244,9.554c0,5.329-4.32,9.661-9.66,9.661
			C63.838,34.76,61.938,34.109,60.362,33.007L60.362,33.007z M69.543,20.799c0.051,0.402,0.076,0.821,0.076,1.233
			c0,3.614-1.863,6.795-4.689,8.625c0.32,0.052,0.641,0.076,0.965,0.076c3.117,0,5.641-2.522,5.641-5.634
			C71.535,23.374,70.764,21.832,69.543,20.799L69.543,20.799z M39.422,26.219c-0.85,0.988-1.357,2.277-1.357,3.673
			c0,3.115,2.528,5.638,5.635,5.638c1.479,0,2.847-0.572,3.845-1.518C43.534,33.271,40.327,30.183,39.422,26.219L39.422,26.219z"/>
		<path fill="#005CAB" d="M60.204,107.262c-0.117,1.313-0.377,2.533-0.824,3.68c-0.57,1.504-1.441,2.703-2.611,3.583
			c-0.088,0.059-0.171,0.111-0.256,0.16c2.493-0.368,4.908-0.742,7.201-1.095c-0.486-0.229-0.918-0.53-1.311-0.908
			C61.1,111.417,60.379,109.612,60.204,107.262L60.204,107.262z"/>
		<path fill="#005CAB" d="M24.48,89.108c0.591-0.125,1.142-0.426,1.646-0.908c0.502-0.485,0.9-1.212,1.194-2.152
			c0.284-0.953,0.438-2.079,0.438-3.368c0-0.921-0.08-1.729-0.229-2.418c-0.143-0.696-0.326-1.244-0.566-1.643
			c-0.25-0.388-0.574-0.696-1-0.922c-0.406-0.222-0.877-0.277-1.396-0.173c-0.57,0.114-1.119,0.43-1.633,0.953
			c-0.508,0.517-0.912,1.241-1.211,2.183c-0.31,0.929-0.451,2.034-0.451,3.323c0,1.934,0.35,3.365,1.039,4.307
			C22.85,89.025,23.569,89.295,24.48,89.108L24.48,89.108z"/>
		<path fill="#005CAB" d="M85.082,65.788c-0.338-0.243-0.818-0.294-1.426-0.173c-0.6,0.118-1.057,0.364-1.383,0.742
			c-0.24,0.291-0.346,0.617-0.346,0.995c0,0.315,0.088,0.561,0.264,0.724c0.248,0.235,0.85,0.405,1.795,0.502l2.045,0.239
			c1.291,0.135,2.303,0.454,3.066,0.921l-0.014-3.423l-3.334,0.665C85.629,66.411,85.41,66.013,85.082,65.788L85.082,65.788z"/>
		<path fill="#005CAB" d="M84.178,97.861c-0.375-0.236-0.809-0.322-1.312-0.256c-0.703,0.104-1.236,0.45-1.609,1.043
			c-0.582,0.936-0.881,2.398-0.881,4.397c0,1.424,0.141,2.557,0.391,3.385c0.184,0.638,0.473,1.078,0.834,1.296
			c0.369,0.226,0.791,0.305,1.236,0.246c0.449-0.066,0.867-0.263,1.238-0.582c0.365-0.326,0.658-0.863,0.861-1.611
			c0.279-1.001,0.396-2.221,0.396-3.687c0-1.123-0.092-2.044-0.291-2.769C84.857,98.585,84.566,98.094,84.178,97.861L84.178,97.861z
			"/>
		<polygon fill="#005CAB" points="68.061,77.639 71.426,76.97 69.719,69.842 68.061,77.639 		"/>
		<path fill="#005CAB" d="M75.309,105.159c-0.109,1.31-0.383,2.536-0.816,3.676c-0.545,1.424-1.367,2.558-2.449,3.438
			c2.721-0.458,4.873-0.842,6.199-1.123c-0.252-0.167-0.518-0.354-0.732-0.575C76.213,109.317,75.484,107.508,75.309,105.159
			L75.309,105.159z"/>
		<path fill="#FFFFFF" d="M21.272,83.983c0-1.289,0.142-2.395,0.451-3.323c0.299-0.942,0.703-1.667,1.211-2.183
			c0.514-0.523,1.062-0.838,1.633-0.953c0.52-0.104,0.99-0.049,1.396,0.173c0.426,0.226,0.75,0.534,1,0.922
			c0.24,0.398,0.424,0.946,0.566,1.643c0.148,0.689,0.229,1.497,0.229,2.418c0,1.289-0.154,2.416-0.438,3.368
			c-0.294,0.939-0.692,1.667-1.194,2.152c-0.504,0.482-1.055,0.783-1.646,0.908c-0.911,0.187-1.63-0.083-2.169-0.818
			C21.622,87.348,21.272,85.917,21.272,83.983L21.272,83.983z M24.538,94.164c1.838-0.36,3.382-1.182,4.65-2.457
			c1.273-1.271,2.223-2.793,2.858-4.55c0.269-0.797,0.478-1.632,0.64-2.481v-6.265c-0.191-0.866-0.44-1.66-0.787-2.36
			c-0.696-1.497-1.729-2.529-3.074-3.104c-1.319-0.586-2.787-0.714-4.387-0.398c-0.828,0.163-1.637,0.457-2.413,0.863
			c-0.569,0.294-1.099,0.672-1.606,1.071l-0.014,19.412C21.592,94.389,22.967,94.486,24.538,94.164L24.538,94.164z"/>
		<path fill="#FFFFFF" d="M68.061,77.639l1.658-7.797l1.707,7.128L68.061,77.639L68.061,77.639z M67.086,64.187l-4.127,15.531
			c-0.023,1.088-0.213,2.11-0.598,3.087c-0.166,0.398-0.336,0.762-0.523,1.112l-0.529,1.982l5.176-1.025l0.602-2.814l5.26-1.053
			l0.613,2.564l5.27-1.053l-0.559-1.892c-0.264-0.374-0.49-0.79-0.678-1.254c-0.225-0.596-0.375-1.355-0.461-2.276l0.086-0.018
			l-4.158-13.968L67.086,64.187L67.086,64.187z"/>
		<path fill="#FFFFFF" d="M62.959,79.572c0-1.417-0.393-2.585-1.145-3.507c-0.781-0.922-2.109-1.487-4.019-1.694l-2.057-0.226
			c-0.934-0.104-1.536-0.281-1.791-0.509c-0.17-0.163-0.258-0.398-0.258-0.728c0-0.378,0.117-0.704,0.348-0.995
			c0.317-0.367,0.783-0.617,1.376-0.738c0.624-0.125,1.083-0.065,1.433,0.173c0.32,0.226,0.551,0.621,0.668,1.199l5.023-1.012
			c-0.1-0.735-0.242-1.362-0.42-1.889c-0.166-0.53-0.412-1.026-0.721-1.504c-0.309-0.499-0.722-0.894-1.212-1.206
			c-0.502-0.333-1.179-0.534-2.004-0.624c-0.833-0.087-1.758-0.042-2.771,0.156c-0.848,0.177-1.668,0.451-2.461,0.839
			c-0.793,0.377-1.521,0.911-2.165,1.59c-0.655,0.683-1.166,1.504-1.554,2.481c-0.397,0.974-0.581,2.041-0.581,3.188
			c0,1.175,0.222,2.127,0.655,2.873c0.426,0.728,1.055,1.275,1.898,1.618c0.854,0.354,1.756,0.579,2.717,0.683l1.846,0.208
			c0.954,0.111,1.521,0.264,1.732,0.468c0.217,0.222,0.329,0.534,0.329,0.95c0,0.405-0.112,0.749-0.354,1.022
			c-0.306,0.36-0.815,0.617-1.534,0.755c-0.803,0.173-1.424,0.111-1.807-0.163c-0.391-0.271-0.658-0.714-0.768-1.348l-5.082,1.022
			c0.096,0.921,0.246,1.688,0.476,2.276c0.317,0.846,0.804,1.553,1.441,2.117c0.634,0.558,1.446,0.925,2.424,1.095
			c0.976,0.177,2.025,0.146,3.132-0.069c1.026-0.205,1.984-0.554,2.908-1.067c0.908-0.492,1.668-1.067,2.242-1.715
			c0.341-0.392,0.65-0.859,0.933-1.375l1.121-4.2C62.959,79.673,62.959,79.627,62.959,79.572L62.959,79.572z"/>
		<path fill="#FFFFFF" d="M62.959,79.718l-1.121,4.2c0.188-0.35,0.357-0.714,0.523-1.112C62.746,81.828,62.936,80.806,62.959,79.718
			L62.959,79.718z"/>
		<path fill="#FFFFFF" d="M86.031,68.816l-2.045-0.239c-0.945-0.097-1.547-0.267-1.795-0.502c-0.176-0.163-0.264-0.409-0.264-0.724
			c0-0.378,0.105-0.704,0.346-0.995c0.326-0.378,0.783-0.624,1.383-0.742c0.607-0.121,1.088-0.069,1.426,0.173
			c0.328,0.225,0.547,0.624,0.668,1.192l3.334-0.665l-0.018-4.425c-0.189-0.184-0.41-0.357-0.645-0.509
			c-0.5-0.333-1.174-0.537-2.01-0.627c-0.836-0.097-1.748-0.038-2.768,0.159c-0.84,0.173-1.67,0.443-2.471,0.835
			c-0.787,0.378-1.512,0.918-2.174,1.591c-0.643,0.683-1.146,1.504-1.533,2.474c-0.385,0.98-0.58,2.048-0.58,3.202
			c0,1.165,0.219,2.124,0.641,2.852c0.434,0.734,1.074,1.282,1.918,1.632c0.846,0.36,1.75,0.568,2.717,0.689l1.842,0.201
			c0.943,0.111,1.52,0.263,1.727,0.471c0.225,0.222,0.33,0.534,0.33,0.953c0,0.402-0.111,0.734-0.346,1.015
			c-0.305,0.357-0.822,0.613-1.537,0.762c-0.809,0.16-1.412,0.104-1.803-0.169c-0.4-0.267-0.656-0.717-0.775-1.345l-4.982,1.001
			l1.053,3.548c0.23,0.309,0.471,0.603,0.771,0.856c0.625,0.565,1.43,0.932,2.416,1.105c0.982,0.173,2.021,0.142,3.137-0.08
			c1.018-0.194,1.979-0.548,2.895-1.057c0.918-0.489,1.672-1.074,2.242-1.726c0.008-0.007,0.016-0.007,0.016-0.007l-0.049-9.98
			C88.334,69.27,87.322,68.951,86.031,68.816L86.031,68.816z"/>
		<path fill="#FFFFFF" d="M76.992,79.371c0.188,0.464,0.414,0.88,0.678,1.254l-1.053-3.548l-0.086,0.018
			C76.617,78.016,76.768,78.775,76.992,79.371L76.992,79.371z"/>
		<path fill="#FFFFFF" d="M32.686,84.676v7.721l5.273-1.061V83.37l4.967-0.984v7.959l5.311-1.057V68.716l-5.311,1.063v6.965
			l-4.967,0.98v-6.955l-5.273,1.057v6.583c0.188,0.912,0.287,1.917,0.287,3.004C32.973,82.542,32.86,83.626,32.686,84.676
			L32.686,84.676z"/>
		<path fill="#FFFFFF" d="M32.973,81.416c0-1.088-0.099-2.093-0.287-3.004v6.265C32.86,83.626,32.973,82.542,32.973,81.416
			L32.973,81.416z"/>
		<path fill-rule="evenodd" clip-rule="evenodd" fill="#005CAB" d="M20.846,49.893c0.015,0.242,0.062,0.433,0.154,0.579
			c0.172,0.253,0.472,0.339,0.91,0.253c0.186-0.038,0.362-0.104,0.523-0.205c0.305-0.184,0.457-0.44,0.457-0.762
			c0-0.243-0.054-0.395-0.186-0.464c-0.139-0.08-0.343-0.128-0.62-0.142l-0.528-0.035c-0.328-0.01-0.557-0.062-0.699-0.142
			c-0.252-0.142-0.369-0.388-0.369-0.752c0-0.398,0.117-0.749,0.357-1.057c0.24-0.291,0.567-0.492,1.006-0.575
			c0.398-0.09,0.741-0.038,1.02,0.139c0.271,0.163,0.408,0.496,0.408,0.978l-0.475,0.1c-0.02-0.225-0.088-0.402-0.167-0.506
			c-0.157-0.201-0.44-0.267-0.802-0.19c-0.305,0.055-0.514,0.173-0.664,0.354c-0.13,0.18-0.188,0.36-0.188,0.554
			c0,0.222,0.072,0.364,0.238,0.433c0.1,0.042,0.327,0.069,0.688,0.097l0.531,0.038c0.256,0.01,0.449,0.062,0.588,0.156
			c0.246,0.153,0.365,0.434,0.365,0.821c0,0.492-0.157,0.874-0.461,1.137c-0.296,0.284-0.661,0.458-1.076,0.534
			c-0.451,0.104-0.831,0.035-1.098-0.198c-0.271-0.225-0.412-0.575-0.396-1.053L20.846,49.893L20.846,49.893z"/>
		<polygon fill-rule="evenodd" clip-rule="evenodd" fill="#005CAB" points="23.985,46.272 26.758,45.724 26.758,46.261 
			24.489,46.715 24.489,48.049 26.579,47.633 26.579,48.143 24.489,48.566 24.489,50.056 26.796,49.595 26.796,50.122 
			23.985,50.687 23.985,46.272 		"/>
		<path fill-rule="evenodd" clip-rule="evenodd" fill="#005CAB" d="M29.938,45.211c0.365,0.163,0.6,0.516,0.682,1.074l-0.512,0.097
			c-0.076-0.305-0.193-0.513-0.385-0.624c-0.195-0.107-0.443-0.131-0.744-0.073c-0.359,0.066-0.643,0.288-0.892,0.638
			c-0.232,0.35-0.356,0.832-0.356,1.445c0,0.52,0.102,0.929,0.297,1.22c0.193,0.288,0.534,0.388,0.979,0.295
			c0.343-0.069,0.622-0.232,0.851-0.513c0.225-0.277,0.336-0.672,0.347-1.188l-1.197,0.236v-0.499l1.675-0.329v2.359l-0.338,0.062
			l-0.124-0.544c-0.17,0.263-0.329,0.447-0.448,0.551c-0.23,0.208-0.523,0.33-0.874,0.398c-0.452,0.087-0.831,0-1.167-0.273
			c-0.348-0.354-0.527-0.904-0.527-1.643s0.168-1.358,0.521-1.861c0.326-0.485,0.75-0.78,1.27-0.88
			C29.354,45.08,29.653,45.101,29.938,45.211L29.938,45.211z"/>
		<path fill-rule="evenodd" clip-rule="evenodd" fill="#005CAB" d="M31.92,44.685v2.73c0,0.319,0.055,0.575,0.157,0.766
			c0.142,0.291,0.409,0.395,0.779,0.319c0.429-0.083,0.733-0.305,0.893-0.69c0.074-0.211,0.116-0.468,0.116-0.793v-2.72l0.523-0.107
			v2.478c0,0.541-0.061,0.98-0.188,1.292c-0.224,0.582-0.656,0.936-1.303,1.06c-0.641,0.132-1.083-0.045-1.309-0.537
			c-0.125-0.27-0.188-0.672-0.188-1.216v-2.474L31.92,44.685L31.92,44.685z"/>
		<path fill-rule="evenodd" clip-rule="evenodd" fill="#005CAB" d="M36.834,45.728c0.25-0.052,0.447-0.146,0.576-0.284
			c0.142-0.138,0.217-0.364,0.217-0.651c0-0.315-0.102-0.506-0.309-0.582c-0.092-0.038-0.234-0.042-0.409-0.01l-1.261,0.253v1.507
			L36.834,45.728L36.834,45.728z M35.135,44.047l1.759-0.35c0.291-0.066,0.537-0.066,0.72,0c0.346,0.121,0.545,0.426,0.545,0.936
			c0,0.27-0.066,0.485-0.146,0.672c-0.092,0.187-0.224,0.35-0.399,0.488c0.153,0.042,0.263,0.107,0.33,0.211
			c0.084,0.097,0.121,0.271,0.132,0.52l0.013,0.592c0.004,0.167,0.029,0.291,0.041,0.371c0.029,0.139,0.09,0.211,0.168,0.239v0.09
			l-0.638,0.131c-0.012-0.031-0.024-0.076-0.032-0.139c-0.018-0.059-0.018-0.166-0.033-0.346l-0.029-0.728
			c-0.013-0.277-0.105-0.46-0.279-0.52c-0.101-0.031-0.246-0.031-0.468,0.01l-1.169,0.239v1.881l-0.514,0.111V44.047L35.135,44.047z
			"/>
		<polygon fill-rule="evenodd" clip-rule="evenodd" fill="#005CAB" points="38.903,43.292 39.422,43.188 39.422,47.599 
			38.903,47.699 38.903,43.292 		"/>
		<path fill-rule="evenodd" clip-rule="evenodd" fill="#005CAB" d="M41.602,46.649c0.173-0.031,0.32-0.083,0.433-0.149
			c0.202-0.118,0.362-0.291,0.49-0.555c0.101-0.194,0.171-0.44,0.217-0.721c0.031-0.169,0.042-0.322,0.042-0.471
			c0-0.544-0.088-0.957-0.283-1.22c-0.184-0.256-0.492-0.354-0.904-0.263l-0.92,0.18v3.382L41.602,46.649L41.602,46.649z
			 M40.161,43.039l1.543-0.305c0.533-0.104,0.922,0.031,1.213,0.395c0.264,0.339,0.392,0.811,0.392,1.42
			c0,0.464-0.071,0.908-0.233,1.31c-0.257,0.724-0.725,1.154-1.378,1.282l-1.536,0.308V43.039L40.161,43.039z"/>
		<path fill-rule="evenodd" clip-rule="evenodd" fill="#005CAB" d="M45.808,44.511l-0.575-1.83l-0.611,2.072L45.808,44.511
			L45.808,44.511z M44.961,42.079l0.584-0.115l1.379,4.138l-0.566,0.111l-0.387-1.251l-1.5,0.305l-0.422,1.407l-0.523,0.097
			L44.961,42.079L44.961,42.079z"/>
		<path fill-rule="evenodd" clip-rule="evenodd" fill="#005CAB" d="M48.737,45.225c0.171-0.035,0.316-0.083,0.435-0.146
			c0.199-0.125,0.362-0.301,0.493-0.554c0.087-0.198,0.167-0.433,0.213-0.728c0.021-0.169,0.028-0.329,0.028-0.468
			c0-0.544-0.09-0.956-0.271-1.216c-0.182-0.26-0.494-0.35-0.908-0.274l-0.916,0.18v3.389L48.737,45.225L48.737,45.225z
			 M47.292,41.618l1.54-0.315c0.524-0.104,0.938,0.028,1.222,0.398c0.253,0.339,0.383,0.818,0.383,1.428
			c0,0.464-0.066,0.897-0.229,1.306c-0.264,0.724-0.734,1.15-1.376,1.282l-1.54,0.301V41.618L47.292,41.618z"/>
		<path fill-rule="evenodd" clip-rule="evenodd" fill="#005CAB" d="M55.473,40.613c0.249,0.333,0.379,0.811,0.379,1.424
			c0,0.648-0.15,1.223-0.438,1.722c-0.336,0.586-0.815,0.932-1.448,1.057c-0.584,0.114-1.043-0.014-1.381-0.398
			c-0.291-0.371-0.439-0.887-0.439-1.542c0-0.603,0.119-1.133,0.379-1.615c0.342-0.606,0.816-0.978,1.461-1.109
			C54.648,40.024,55.153,40.173,55.473,40.613L55.473,40.613z M55.004,43.506c0.219-0.416,0.314-0.87,0.314-1.362
			c0-0.516-0.109-0.915-0.333-1.178c-0.247-0.27-0.568-0.364-0.967-0.284c-0.396,0.073-0.716,0.294-0.972,0.665
			c-0.25,0.354-0.373,0.846-0.373,1.456c0,0.488,0.113,0.88,0.324,1.175c0.215,0.291,0.549,0.384,1.033,0.291
			C54.494,44.186,54.821,43.926,55.004,43.506L55.004,43.506z"/>
		<path fill-rule="evenodd" clip-rule="evenodd" fill="#005CAB" d="M59.073,39.577c0.269,0.242,0.414,0.547,0.449,0.918
			l-0.517,0.107c-0.05-0.284-0.167-0.481-0.343-0.613c-0.158-0.139-0.404-0.17-0.716-0.111c-0.358,0.076-0.661,0.288-0.899,0.648
			c-0.225,0.35-0.343,0.835-0.343,1.469c0,0.517,0.101,0.915,0.313,1.192c0.195,0.274,0.512,0.381,0.929,0.295
			c0.38-0.076,0.671-0.302,0.866-0.679c0.109-0.201,0.176-0.451,0.234-0.752l0.5-0.097c-0.034,0.468-0.191,0.891-0.451,1.254
			c-0.299,0.443-0.693,0.71-1.209,0.811c-0.448,0.09-0.811,0.007-1.106-0.243c-0.403-0.326-0.6-0.925-0.6-1.781
			c0-0.648,0.142-1.216,0.437-1.684c0.32-0.52,0.771-0.838,1.329-0.949C58.43,39.272,58.797,39.334,59.073,39.577L59.073,39.577z"/>
		<path fill-rule="evenodd" clip-rule="evenodd" fill="#005CAB" d="M60.614,38.95v2.724c0,0.322,0.061,0.579,0.166,0.766
			c0.15,0.294,0.412,0.398,0.775,0.326c0.432-0.083,0.732-0.326,0.883-0.697c0.092-0.204,0.129-0.471,0.129-0.787v-2.724
			l0.529-0.101v2.475c0,0.541-0.068,0.98-0.191,1.285c-0.23,0.586-0.672,0.925-1.312,1.064c-0.646,0.125-1.08-0.052-1.304-0.537
			c-0.125-0.27-0.201-0.672-0.201-1.216v-2.471L60.614,38.95L60.614,38.95z"/>
		<path fill-rule="evenodd" clip-rule="evenodd" fill="#005CAB" d="M63.82,38.309l1.715-0.343c0.34-0.066,0.613-0.014,0.822,0.163
			c0.203,0.184,0.295,0.475,0.295,0.88c0,0.339-0.092,0.655-0.266,0.953c-0.184,0.281-0.475,0.475-0.852,0.551l-1.193,0.239v1.864
			l-0.521,0.111V38.309L63.82,38.309z M65.82,38.51c-0.105-0.031-0.266-0.031-0.455,0l-1.023,0.208v1.521l1.023-0.197
			c0.23-0.045,0.412-0.139,0.555-0.281c0.15-0.142,0.229-0.364,0.229-0.651C66.148,38.787,66.035,38.589,65.82,38.51L65.82,38.51z"
			/>
		<path fill-rule="evenodd" clip-rule="evenodd" fill="#005CAB" d="M68.752,39.923l-0.584-1.83l-0.615,2.072L68.752,39.923
			L68.752,39.923z M67.906,37.491l0.58-0.118l1.391,4.134l-0.574,0.114l-0.381-1.248l-1.504,0.309l-0.416,1.396l-0.527,0.114
			L67.906,37.491L67.906,37.491z"/>
		<path fill-rule="evenodd" clip-rule="evenodd" fill="#005CAB" d="M72.951,36.805c0.264,0.239,0.4,0.551,0.434,0.918l-0.5,0.097
			c-0.053-0.271-0.176-0.471-0.338-0.61c-0.168-0.132-0.408-0.167-0.717-0.104c-0.375,0.073-0.686,0.288-0.904,0.645
			c-0.242,0.35-0.354,0.838-0.354,1.473c0,0.506,0.111,0.904,0.311,1.185c0.219,0.288,0.518,0.381,0.936,0.301
			c0.385-0.073,0.666-0.301,0.871-0.686c0.104-0.201,0.188-0.447,0.229-0.741l0.508-0.104c-0.041,0.475-0.195,0.89-0.445,1.258
			c-0.303,0.44-0.715,0.703-1.229,0.807c-0.441,0.087-0.816,0.003-1.105-0.232c-0.395-0.333-0.604-0.932-0.604-1.788
			c0-0.651,0.166-1.213,0.455-1.694c0.328-0.51,0.768-0.825,1.32-0.943C72.309,36.493,72.678,36.566,72.951,36.805L72.951,36.805z"
			/>
		<polygon fill-rule="evenodd" clip-rule="evenodd" fill="#005CAB" points="74.045,36.261 74.566,36.157 74.566,40.568 
			74.045,40.679 74.045,36.261 		"/>
		<path fill-rule="evenodd" clip-rule="evenodd" fill="#005CAB" d="M78.424,36.022c0.26,0.336,0.379,0.811,0.379,1.424
			c0,0.655-0.148,1.23-0.424,1.729c-0.35,0.579-0.828,0.921-1.463,1.053c-0.582,0.118-1.041-0.018-1.373-0.392
			c-0.309-0.381-0.451-0.887-0.451-1.552c0-0.6,0.135-1.133,0.383-1.618c0.324-0.6,0.812-0.974,1.455-1.095
			C77.604,35.443,78.096,35.578,78.424,36.022L78.424,36.022z M77.961,38.926c0.211-0.423,0.305-0.88,0.305-1.369
			c0-0.52-0.115-0.915-0.34-1.178c-0.24-0.27-0.559-0.367-0.967-0.288c-0.393,0.08-0.713,0.302-0.967,0.662
			c-0.238,0.357-0.367,0.849-0.367,1.462c0,0.488,0.1,0.883,0.318,1.171c0.217,0.291,0.564,0.392,1.031,0.291
			C77.441,39.584,77.766,39.331,77.961,38.926L77.961,38.926z"/>
		<polygon fill-rule="evenodd" clip-rule="evenodd" fill="#005CAB" points="79.295,35.211 79.9,35.086 81.824,38.285 81.824,34.708 
			82.314,34.611 82.314,39.016 81.732,39.133 79.783,35.953 79.783,39.525 79.295,39.622 79.295,35.211 		"/>
		<path fill-rule="evenodd" clip-rule="evenodd" fill="#005CAB" d="M84.967,36.68l-0.584-1.83l-0.609,2.076L84.967,36.68
			L84.967,36.68z M84.107,34.244l0.584-0.107l1.383,4.13l-0.559,0.111l-0.379-1.233l-1.512,0.301l-0.404,1.393l-0.529,0.111
			L84.107,34.244L84.107,34.244z"/>
		<polygon fill-rule="evenodd" clip-rule="evenodd" fill="#005CAB" points="86.428,33.793 86.939,33.689 86.939,37.571 
			88.877,37.186 88.877,37.713 86.428,38.194 86.428,33.793 		"/>
		<path fill="#005CAB" d="M86.979,104.376c1.344-2.512,2.225-5.884,2.225-10.389c0-0.069,0.012-0.135,0.012-0.211l-0.068-14.062
			c0,0-0.008,0.003-0.016,0.01c-0.57,0.651-1.324,1.237-2.242,1.726c-0.916,0.509-1.877,0.863-2.895,1.057
			c-1.115,0.222-2.154,0.253-3.137,0.08c-0.986-0.173-1.791-0.541-2.416-1.105c-0.301-0.253-0.541-0.547-0.771-0.856l0.559,1.892
			l-5.27,1.053l-0.613-2.564l-5.26,1.053l-0.602,2.814l-5.176,1.025l0.529-1.982c-0.283,0.516-0.592,0.984-0.933,1.375
			c-0.574,0.648-1.334,1.223-2.242,1.715c-0.924,0.513-1.882,0.863-2.908,1.067c-1.106,0.215-2.156,0.246-3.132,0.069
			c-0.978-0.17-1.79-0.537-2.424-1.095c-0.638-0.564-1.124-1.271-1.441-2.117c-0.229-0.589-0.38-1.355-0.476-2.276l5.082-1.022
			c0.109,0.634,0.377,1.078,0.768,1.348c0.383,0.273,1.004,0.336,1.807,0.163c0.719-0.138,1.229-0.395,1.534-0.755
			c0.241-0.273,0.354-0.617,0.354-1.022c0-0.416-0.112-0.728-0.329-0.95c-0.211-0.204-0.778-0.357-1.732-0.468l-1.846-0.208
			c-0.961-0.104-1.862-0.329-2.717-0.683c-0.844-0.343-1.473-0.89-1.898-1.618c-0.434-0.745-0.655-1.698-0.655-2.873
			c0-1.147,0.184-2.214,0.581-3.188c0.388-0.977,0.898-1.798,1.554-2.481c0.645-0.679,1.372-1.213,2.165-1.59
			c0.793-0.388,1.613-0.662,2.461-0.839c1.014-0.197,1.938-0.243,2.771-0.156c0.825,0.09,1.502,0.291,2.004,0.624
			c0.49,0.312,0.904,0.707,1.212,1.206c0.309,0.478,0.555,0.974,0.721,1.504c0.178,0.526,0.32,1.154,0.42,1.889l-5.023,1.012
			c-0.117-0.579-0.348-0.974-0.668-1.199c-0.35-0.239-0.809-0.298-1.433-0.173c-0.593,0.122-1.059,0.371-1.376,0.738
			c-0.23,0.291-0.348,0.617-0.348,0.995c0,0.329,0.088,0.565,0.258,0.728c0.255,0.229,0.857,0.405,1.791,0.509l2.057,0.226
			c1.91,0.208,3.238,0.772,4.019,1.694c0.752,0.922,1.145,2.089,1.145,3.507c0,0.055,0,0.101,0,0.146l4.127-15.531l5.373-1.078
			l4.158,13.968l4.982-1.001c0.119,0.627,0.375,1.078,0.775,1.345c0.391,0.273,0.994,0.329,1.803,0.169
			c0.715-0.149,1.232-0.405,1.537-0.762c0.234-0.281,0.346-0.613,0.346-1.015c0-0.419-0.105-0.731-0.33-0.953
			c-0.207-0.208-0.783-0.36-1.727-0.471l-1.842-0.201c-0.967-0.121-1.871-0.329-2.717-0.689c-0.844-0.35-1.484-0.897-1.918-1.632
			c-0.422-0.728-0.641-1.688-0.641-2.852c0-1.154,0.195-2.221,0.58-3.202c0.387-0.97,0.891-1.792,1.533-2.474
			c0.662-0.672,1.387-1.213,2.174-1.591c0.801-0.392,1.631-0.662,2.471-0.835c1.02-0.197,1.932-0.256,2.768-0.159
			c0.836,0.09,1.51,0.294,2.01,0.627c0.234,0.152,0.455,0.326,0.645,0.509l-0.053-11.768L20.422,64l-0.004,10.482
			c0.508-0.398,1.037-0.776,1.606-1.071c0.776-0.406,1.585-0.7,2.413-0.863c1.6-0.315,3.067-0.188,4.387,0.398
			c1.346,0.575,2.378,1.608,3.074,3.104c0.347,0.7,0.596,1.494,0.787,2.36v-6.583l5.273-1.057v6.955l4.967-0.98v-6.965l5.311-1.063
			v20.573l-5.311,1.057v-7.959l-4.967,0.984v7.966l-5.273,1.061v-7.721c-0.162,0.849-0.371,1.684-0.64,2.481
			c-0.636,1.757-1.585,3.278-2.858,4.55c-1.269,1.275-2.812,2.097-4.65,2.457c-1.57,0.322-2.945,0.225-4.133-0.271l-0.007,4.432
			l-0.142,0.021v21.588l7.798-1.112v0.028c1.563-0.226,3.29-0.475,5.165-0.745c-0.024-0.003-0.024-0.014-0.024-0.014l8.802-1.262
			l-0.021,0.003c0.701-0.104,1.42-0.197,2.139-0.308l18.626-2.654l11.602-2.128c0,0,2.418,0.097,5.299-0.974
			C83.16,109.66,85.492,107.377,86.979,104.376L86.979,104.376z"/>
		<path fill="#005CAB" d="M35.049,107.242c0.369,0.288,0.91,0.377,1.611,0.288c0.711-0.111,1.273-0.36,1.643-0.776
			c0.391-0.409,0.6-0.894,0.6-1.452c0-0.534-0.209-0.953-0.6-1.258c-0.359-0.298-0.901-0.399-1.602-0.298
			c-0.674,0.087-1.225,0.354-1.634,0.776c-0.382,0.426-0.585,0.918-0.585,1.476C34.483,106.538,34.667,106.947,35.049,107.242
			L35.049,107.242z"/>
		<path fill="#FFFFFF" d="M23.293,102.682c-0.105,0.627-0.338,1.25-0.7,1.899c-0.255,0.457-0.562,0.849-0.922,1.178
			c-0.339,0.33-0.833,0.631-1.457,0.908c-0.204,0.083-0.421,0.149-0.638,0.222v3.711l2.455-0.339v9.484
			c1.307-0.184,3.08-0.43,5.205-0.735V102.13L23.293,102.682L23.293,102.682z"/>
		<path fill="#FFFFFF" d="M38.584,113.943c-0.417,0.443-1.043,0.707-1.86,0.825c-0.797,0.111-1.413,0-1.842-0.347
			c-0.456-0.339-0.658-0.832-0.658-1.469c0-0.672,0.217-1.248,0.661-1.726c0.442-0.499,1.055-0.79,1.839-0.901
			c0.761-0.107,1.364,0.028,1.819,0.402c0.449,0.371,0.683,0.887,0.683,1.556C39.226,112.945,39.01,113.493,38.584,113.943
			L38.584,113.943z M35.068,104.521c0.409-0.423,0.96-0.689,1.634-0.776c0.7-0.101,1.242,0,1.602,0.298
			c0.391,0.305,0.6,0.724,0.6,1.258c0,0.558-0.209,1.043-0.6,1.452c-0.369,0.416-0.932,0.666-1.643,0.776
			c-0.701,0.09-1.242,0-1.611-0.288c-0.382-0.294-0.566-0.704-0.566-1.244C34.483,105.44,34.686,104.948,35.068,104.521
			L35.068,104.521z M43.696,114.387c0.418-0.772,0.613-1.646,0.613-2.626c0-0.946-0.242-1.736-0.701-2.346
			c-0.475-0.617-1.223-1.043-2.249-1.31c0.733-0.395,1.308-0.912,1.716-1.577c0.426-0.658,0.621-1.383,0.621-2.18
			c0-0.863-0.174-1.604-0.555-2.238c-0.291-0.464-0.695-0.874-1.248-1.213c-0.547-0.35-1.217-0.593-1.979-0.717
			c-1.012-0.153-2.064-0.153-3.19,0c-1.491,0.211-2.784,0.63-3.867,1.251c-1.088,0.617-1.884,1.351-2.399,2.207
			c-0.513,0.842-0.779,1.695-0.779,2.561c0,0.863,0.225,1.601,0.678,2.187c0.318,0.426,0.855,0.8,1.605,1.116
			c-0.617,0.398-1.1,0.752-1.437,1.074c-0.475,0.461-0.829,0.957-1.067,1.479c-0.229,0.53-0.363,1.161-0.363,1.906
			c0,0.957,0.186,1.729,0.535,2.297c0.357,0.575,0.854,1.067,1.498,1.473c0.377,0.229,0.816,0.399,1.279,0.544
			c2.688-0.392,5.658-0.825,8.756-1.272c0.321-0.197,0.629-0.409,0.904-0.641C42.742,115.811,43.284,115.153,43.696,114.387
			L43.696,114.387z"/>
		<path fill="#FFFFFF" d="M54.889,110.152c-0.212,0.749-0.496,1.289-0.867,1.611c-0.375,0.322-0.783,0.516-1.234,0.589
			c-0.456,0.056-0.859-0.027-1.239-0.246c-0.374-0.226-0.645-0.655-0.841-1.293c-0.25-0.828-0.375-1.961-0.375-3.399
			c0-1.986,0.291-3.444,0.869-4.394c0.376-0.585,0.913-0.939,1.607-1.033c0.498-0.062,0.955,0.01,1.322,0.253
			c0.383,0.229,0.674,0.717,0.867,1.462c0.195,0.721,0.291,1.649,0.291,2.765C55.29,107.931,55.156,109.158,54.889,110.152
			L54.889,110.152z M60.311,106.275c0-0.35,0.02-0.71,0.047-1.064c-0.053-0.825-0.154-1.635-0.361-2.398
			c-0.264-1.053-0.709-1.972-1.334-2.769c-0.592-0.818-1.377-1.396-2.298-1.74c-0.931-0.339-2.083-0.419-3.442-0.232
			c-1.833,0.256-3.332,0.887-4.5,1.902c-1.172,1.005-1.998,2.266-2.489,3.773c-0.475,1.518-0.724,3.063-0.724,4.626
			c0,2.925,0.753,5.118,2.248,6.581c0.463,0.447,0.991,0.787,1.578,1.033c2.555-0.375,5.129-0.752,7.641-1.137
			c0.08-0.052,0.17-0.101,0.246-0.166c1.176-0.874,2.054-2.08,2.625-3.576c0.438-1.147,0.707-2.363,0.814-3.69
			C60.331,107.051,60.311,106.67,60.311,106.275L60.311,106.275z"/>
		<path fill="#FFFFFF" d="M70.803,108.049c-0.209,0.749-0.492,1.286-0.859,1.608c-0.365,0.329-0.783,0.517-1.232,0.586
			c-0.459,0.059-0.863-0.011-1.232-0.236c-0.375-0.229-0.66-0.662-0.85-1.303c-0.242-0.825-0.377-1.958-0.377-3.393
			c0-1.993,0.301-3.451,0.887-4.391c0.359-0.596,0.902-0.942,1.598-1.043c0.498-0.073,0.932,0.011,1.318,0.253
			c0.385,0.236,0.672,0.725,0.871,1.456c0.186,0.734,0.279,1.656,0.279,2.779C71.205,105.824,71.076,107.058,70.803,108.049
			L70.803,108.049z M75.475,108.999c0.426-1.137,0.703-2.363,0.812-3.677c-0.033-0.377-0.049-0.755-0.049-1.15
			c0-0.357,0.016-0.714,0.049-1.067c-0.062-0.835-0.16-1.635-0.361-2.405c-0.258-1.04-0.717-1.965-1.324-2.769
			c-0.609-0.814-1.385-1.39-2.309-1.729c-0.941-0.347-2.084-0.426-3.439-0.229c-1.83,0.246-3.338,0.884-4.512,1.896
			c-1.172,0.995-1.996,2.263-2.475,3.777c-0.389,1.171-0.605,2.353-0.689,3.565c0.02,0.309,0.051,0.62,0.051,0.939
			c0,0.43-0.008,0.849-0.051,1.269c0.166,2.36,0.9,4.165,2.203,5.423c0.389,0.385,0.83,0.683,1.307,0.918
			c3.107-0.485,5.936-0.925,8.334-1.327C74.105,111.566,74.926,110.419,75.475,108.999L75.475,108.999z"/>
		<path d="M60.362,107.418c0.029-0.419,0.043-0.839,0.043-1.269c0-0.319-0.02-0.63-0.047-0.939
			c-0.027,0.354-0.047,0.714-0.047,1.064C60.311,106.67,60.331,107.051,60.362,107.418L60.362,107.418z"/>
		<path fill="#FFFFFF" d="M80.797,93.897c-0.105,0.621-0.338,1.262-0.701,1.899c-0.26,0.454-0.555,0.846-0.93,1.175
			c-0.334,0.336-0.816,0.634-1.457,0.915c-0.199,0.086-0.422,0.146-0.627,0.218v3.718l2.459-0.343v9.491
			c1.309-0.184,3.074-0.444,5.203-0.738V93.353L80.797,93.897L80.797,93.897z"/>
		<path fill="#005CAB" d="M22.967,147.822c0.221-0.604,0.309-1.275,0.297-2.01c-0.026-0.773-0.158-1.386-0.427-1.812
			c-0.271-0.43-0.624-0.614-1.065-0.544c-0.43,0.066-0.771,0.357-1.039,0.87c-0.272,0.513-0.396,1.23-0.369,2.138
			c0.012,0.745,0.146,1.341,0.385,1.81c0.252,0.461,0.635,0.658,1.148,0.568C22.401,148.769,22.756,148.418,22.967,147.822
			L22.967,147.822z M23.379,143.529c0.283,0.541,0.439,1.272,0.469,2.176c0.01,0.991-0.136,1.833-0.43,2.54
			c-0.363,0.831-0.889,1.3-1.566,1.407c-0.645,0.107-1.154-0.149-1.543-0.766c-0.344-0.59-0.516-1.387-0.533-2.377
			c-0.02-0.898,0.101-1.692,0.376-2.36c0.337-0.877,0.862-1.379,1.571-1.483C22.465,142.545,23.014,142.836,23.379,143.529
			L23.379,143.529z"/>
		<path fill="#005CAB" d="M30.05,147.417c0.112,0.118,0.244,0.163,0.386,0.139c0.18-0.028,0.35-0.122,0.525-0.277
			c0.268-0.263,0.407-0.651,0.407-1.147l-0.024-0.651c-0.053,0.077-0.133,0.139-0.232,0.201c-0.1,0.062-0.2,0.104-0.281,0.132
			l-0.319,0.114c-0.175,0.069-0.317,0.149-0.403,0.249c-0.163,0.167-0.238,0.41-0.234,0.718
			C29.879,147.126,29.945,147.303,30.05,147.417L30.05,147.417z M31.086,145.057c0.116-0.048,0.184-0.139,0.229-0.271
			c0.021-0.08,0.029-0.187,0.029-0.322c-0.008-0.273-0.074-0.464-0.19-0.564c-0.142-0.114-0.313-0.149-0.538-0.114
			c-0.271,0.045-0.453,0.187-0.565,0.437c-0.063,0.139-0.093,0.326-0.105,0.589l-0.479,0.073c-0.009-0.596,0.112-1.025,0.337-1.303
			c0.229-0.267,0.5-0.43,0.805-0.475c0.354-0.062,0.648,0,0.879,0.18c0.217,0.184,0.338,0.499,0.342,0.953l0.066,2.793
			c0,0.073,0.008,0.136,0.025,0.187c0.032,0.046,0.074,0.066,0.148,0.06c0,0,0.051-0.014,0.076-0.024
			c0.021-0.014,0.059-0.018,0.096-0.035l0.005,0.6c-0.079,0.042-0.139,0.08-0.177,0.104c-0.037,0.003-0.094,0.021-0.174,0.038
			c-0.176,0.024-0.305-0.059-0.391-0.236c-0.039-0.107-0.076-0.245-0.094-0.439c-0.096,0.242-0.244,0.439-0.438,0.641
			c-0.191,0.191-0.402,0.302-0.637,0.336c-0.286,0.043-0.523-0.048-0.707-0.294c-0.176-0.243-0.279-0.565-0.279-0.974
			c-0.012-0.451,0.062-0.807,0.238-1.078c0.172-0.273,0.398-0.464,0.682-0.568L31.086,145.057L31.086,145.057z"/>
		<path fill="#005CAB" d="M32.594,142.909l0.477-0.076l0.019,0.679c0.13-0.309,0.288-0.527,0.456-0.679
			c0.141-0.146,0.32-0.239,0.524-0.271c0.425-0.069,0.729,0.125,0.891,0.579c0.089,0.246,0.134,0.606,0.151,1.095l0.053,3.09
			l-0.516,0.084l-0.068-3.036c0-0.294-0.035-0.53-0.095-0.696c-0.097-0.284-0.262-0.406-0.495-0.375
			c-0.125,0.024-0.23,0.048-0.305,0.107c-0.129,0.086-0.246,0.239-0.359,0.458c-0.083,0.163-0.132,0.347-0.154,0.509
			c-0.016,0.187-0.027,0.43-0.027,0.742l0.05,2.526l-0.504,0.079L32.594,142.909L32.594,142.909z"/>
		<path fill="#005CAB" d="M35.764,142.42l0.53-0.083l0.091,4.803l-0.521,0.079L35.764,142.42L35.764,142.42z M35.737,140.608
			l0.516-0.08l0.02,0.918l-0.52,0.08L35.737,140.608L35.737,140.608z"/>
		<path fill="#005CAB" d="M37.372,145.456c0.03,0.277,0.068,0.471,0.151,0.61c0.132,0.235,0.354,0.325,0.683,0.277
			c0.188-0.028,0.367-0.122,0.512-0.277c0.15-0.149,0.218-0.367,0.201-0.641c-0.016-0.215-0.062-0.346-0.188-0.437
			c-0.071-0.059-0.213-0.107-0.438-0.17l-0.417-0.093c-0.267-0.059-0.466-0.139-0.591-0.25c-0.222-0.184-0.35-0.468-0.362-0.856
			c-0.003-0.454,0.096-0.842,0.292-1.157c0.216-0.315,0.478-0.51,0.85-0.558c0.463-0.073,0.803,0.094,1.012,0.475
			c0.149,0.253,0.205,0.534,0.205,0.853l-0.488,0.073c-0.006-0.184-0.051-0.339-0.125-0.471c-0.125-0.198-0.344-0.271-0.641-0.225
			c-0.193,0.035-0.335,0.121-0.442,0.25c-0.101,0.128-0.146,0.294-0.134,0.485c0,0.211,0.071,0.36,0.203,0.471
			c0.08,0.059,0.195,0.111,0.343,0.139l0.356,0.076c0.377,0.083,0.623,0.184,0.754,0.291c0.207,0.173,0.314,0.489,0.322,0.922
			c0,0.44-0.097,0.825-0.293,1.175c-0.202,0.346-0.52,0.547-0.943,0.619c-0.449,0.07-0.783-0.041-0.979-0.339
			c-0.196-0.284-0.306-0.687-0.334-1.15L37.372,145.456L37.372,145.456z"/>
		<path fill="#005CAB" d="M39.852,141.748l0.504-0.087l0.021,0.689c0.11-0.26,0.233-0.447,0.307-0.575
			c0.169-0.204,0.36-0.329,0.575-0.364c0.246-0.038,0.438,0.024,0.593,0.188c0.083,0.086,0.157,0.242,0.237,0.437
			c0.113-0.274,0.237-0.485,0.383-0.638c0.154-0.139,0.32-0.232,0.525-0.263c0.398-0.069,0.691,0.128,0.842,0.568
			c0.086,0.243,0.131,0.572,0.144,1.001l0.056,3.212l-0.516,0.08l-0.072-3.351c-0.012-0.326-0.066-0.53-0.17-0.634
			c-0.1-0.104-0.225-0.142-0.375-0.128c-0.209,0.042-0.369,0.17-0.52,0.409c-0.136,0.232-0.196,0.603-0.178,1.102l0.047,2.799
			l-0.521,0.094l-0.057-3.15c-0.008-0.329-0.042-0.568-0.101-0.7c-0.071-0.222-0.217-0.312-0.433-0.284
			c-0.199,0.038-0.371,0.184-0.521,0.454c-0.154,0.256-0.23,0.7-0.208,1.32l0.054,2.557l-0.517,0.084L39.852,141.748L39.852,141.748
			z"/>
		<path fill="#005CAB" d="M46.604,144.364c0.109-0.419,0.17-0.894,0.162-1.396c-0.012-0.444-0.065-0.797-0.162-1.064
			c-0.151-0.416-0.404-0.6-0.746-0.551c-0.308,0.045-0.537,0.273-0.666,0.683c-0.134,0.402-0.193,0.859-0.193,1.396
			c0.018,0.513,0.094,0.929,0.248,1.251c0.145,0.312,0.378,0.447,0.671,0.398C46.26,145.033,46.483,144.794,46.604,144.364
			L46.604,144.364z M46.85,141.107c0.283,0.371,0.428,0.956,0.441,1.76c0.012,0.783-0.092,1.441-0.312,1.985
			c-0.23,0.544-0.592,0.853-1.092,0.942c-0.414,0.059-0.746-0.114-0.996-0.52c-0.266-0.416-0.391-0.987-0.415-1.753
			c-0.005-0.804,0.107-1.469,0.356-1.989c0.242-0.523,0.584-0.814,1.025-0.894C46.245,140.577,46.575,140.732,46.85,141.107
			L46.85,141.107z"/>
		<path fill="#005CAB" d="M49.982,143.907c0.146,0.315,0.356,0.458,0.671,0.412c0.237-0.042,0.437-0.229,0.574-0.575
			c0.138-0.346,0.209-0.825,0.188-1.428c0-0.613-0.092-1.043-0.249-1.313c-0.163-0.271-0.362-0.392-0.593-0.347
			c-0.25,0.035-0.466,0.225-0.606,0.568c-0.153,0.329-0.226,0.811-0.226,1.417C49.77,143.158,49.834,143.578,49.982,143.907
			L49.982,143.907z M51.041,140.102c0.104,0.083,0.208,0.222,0.324,0.43l-0.042-2.443l0.484-0.073l0.137,6.628l-0.453,0.08
			l-0.018-0.672c-0.124,0.319-0.246,0.547-0.417,0.71c-0.152,0.156-0.333,0.253-0.544,0.288c-0.344,0.055-0.643-0.122-0.896-0.537
			c-0.261-0.413-0.388-0.991-0.411-1.747c-0.016-0.704,0.098-1.32,0.305-1.881c0.223-0.548,0.531-0.849,0.947-0.922
			C50.682,139.925,50.89,139.97,51.041,140.102L51.041,140.102z"/>
		<path fill="#005CAB" d="M54.648,141.412c-0.022-0.35-0.067-0.62-0.147-0.818c-0.146-0.374-0.387-0.53-0.712-0.478
			c-0.241,0.038-0.425,0.208-0.575,0.496c-0.154,0.298-0.237,0.651-0.237,1.067L54.648,141.412L54.648,141.412z M54.434,139.544
			c0.214,0.135,0.365,0.319,0.477,0.555c0.094,0.225,0.17,0.495,0.225,0.814c0.021,0.222,0.045,0.575,0.059,1.057l-2.218,0.35
			c0.022,0.492,0.101,0.873,0.247,1.15c0.141,0.273,0.351,0.388,0.642,0.343c0.267-0.038,0.466-0.215,0.629-0.523
			c0.079-0.17,0.132-0.371,0.163-0.586l0.499-0.09c0,0.18-0.046,0.388-0.104,0.617c-0.065,0.225-0.154,0.419-0.246,0.575
			c-0.157,0.263-0.334,0.454-0.561,0.572c-0.131,0.069-0.26,0.121-0.418,0.142c-0.379,0.066-0.703-0.104-0.953-0.502
			c-0.289-0.398-0.426-0.984-0.447-1.774c-0.012-0.772,0.104-1.427,0.361-1.951c0.26-0.52,0.594-0.821,1.02-0.894
			C54.022,139.374,54.231,139.419,54.434,139.544L54.434,139.544z"/>
		<path fill="#005CAB" d="M60.279,137.157c0.293,0.402,0.462,0.883,0.501,1.438l-0.539,0.086c-0.064-0.419-0.203-0.734-0.377-0.957
			c-0.2-0.222-0.463-0.305-0.791-0.25c-0.41,0.069-0.726,0.347-0.963,0.846c-0.246,0.496-0.35,1.213-0.333,2.166
			c0.019,0.776,0.149,1.383,0.378,1.83c0.237,0.451,0.575,0.638,1.018,0.568c0.412-0.073,0.719-0.374,0.914-0.915
			c0.117-0.288,0.186-0.645,0.244-1.092l0.539-0.09c-0.022,0.7-0.182,1.313-0.437,1.826c-0.321,0.627-0.761,0.98-1.312,1.064
			c-0.483,0.073-0.884-0.094-1.22-0.499c-0.447-0.548-0.688-1.477-0.7-2.758c-0.022-0.974,0.125-1.802,0.428-2.474
			c0.333-0.735,0.808-1.154,1.418-1.254C59.571,136.616,59.985,136.772,60.279,137.157L60.279,137.157z"/>
		<path fill="#005CAB" d="M63.535,139.991c-0.031-0.354-0.086-0.617-0.16-0.814c-0.148-0.375-0.379-0.53-0.709-0.482
			c-0.229,0.042-0.418,0.208-0.578,0.502c-0.15,0.292-0.234,0.645-0.234,1.064L63.535,139.991L63.535,139.991z M63.307,138.13
			c0.213,0.118,0.365,0.308,0.48,0.547c0.107,0.229,0.176,0.502,0.223,0.825c0.018,0.211,0.061,0.562,0.061,1.05l-2.217,0.357
			c0.018,0.479,0.109,0.866,0.246,1.144c0.148,0.271,0.361,0.392,0.641,0.343c0.264-0.042,0.48-0.211,0.623-0.527
			c0.086-0.17,0.141-0.367,0.172-0.589l0.506-0.083c-0.014,0.18-0.043,0.381-0.121,0.61c-0.07,0.229-0.146,0.43-0.236,0.572
			c-0.148,0.267-0.33,0.461-0.562,0.586c-0.117,0.069-0.26,0.118-0.416,0.138c-0.377,0.062-0.701-0.107-0.969-0.502
			c-0.271-0.402-0.412-0.987-0.428-1.781c-0.014-0.773,0.104-1.421,0.363-1.94c0.256-0.53,0.584-0.825,1.023-0.887
			C62.895,137.954,63.104,138.002,63.307,138.13L63.307,138.13z"/>
		<path fill="#005CAB" d="M64.623,137.78l0.488-0.066l0.018,0.828c0.027-0.173,0.121-0.388,0.275-0.645
			c0.15-0.253,0.326-0.398,0.531-0.426l0.053-0.01c0,0,0.057,0,0.109,0l0.018,0.859c-0.029-0.007-0.055-0.007-0.055-0.007
			c-0.055,0-0.072,0.007-0.107,0.01c-0.258,0.045-0.457,0.205-0.588,0.492c-0.143,0.288-0.199,0.592-0.188,0.932l0.045,2.775
			l-0.5,0.083L64.623,137.78L64.623,137.78z"/>
		<path fill="#005CAB" d="M66.561,136.117l0.525-0.077l0.018,1.355l0.492-0.083l0.006,0.658l-0.475,0.08l0.051,3.146
			c0.012,0.173,0.051,0.274,0.121,0.315c0.041,0.031,0.104,0.038,0.199,0.021l0.055-0.007c0.049-0.014,0.088-0.024,0.115-0.038
			l0.018,0.648c-0.059,0.035-0.117,0.059-0.178,0.083c-0.062,0.021-0.131,0.042-0.209,0.055c-0.236,0.038-0.4-0.035-0.496-0.215
			c-0.088-0.18-0.133-0.426-0.139-0.731l-0.061-3.198l-0.4,0.066l-0.027-0.662l0.428-0.062L66.561,136.117L66.561,136.117z"/>
		<path fill="#005CAB" d="M68.045,137.257l0.527-0.076l0.092,4.792l-0.512,0.086L68.045,137.257L68.045,137.257z M68.018,135.448
			l0.518-0.076l0.016,0.911l-0.521,0.076L68.018,135.448L68.018,135.448z"/>
		<path fill="#005CAB" d="M69.494,135.531c0.109-0.291,0.332-0.471,0.678-0.523c0.037-0.007,0.064-0.007,0.064-0.007
			c0.064-0.007,0.111-0.007,0.15-0.007l0.012,0.735c-0.047,0-0.088,0-0.109,0.01c-0.029,0-0.053,0-0.076,0
			c-0.158,0.031-0.244,0.107-0.27,0.239c-0.041,0.135-0.041,0.46-0.041,0.98l0.521-0.076l0.016,0.638l-0.512,0.08l0.078,4.162
			l-0.504,0.08l-0.078-4.155l-0.422,0.062l-0.012-0.638l0.41-0.076l-0.006-0.749C69.4,135.947,69.424,135.705,69.494,135.531
			L69.494,135.531z"/>
		<path fill="#005CAB" d="M70.836,136.813l0.516-0.08l0.104,4.799l-0.52,0.08L70.836,136.813L70.836,136.813z M70.803,135.001
			l0.525-0.08l0.012,0.918l-0.514,0.076L70.803,135.001L70.803,135.001z"/>
		<path fill="#005CAB" d="M74.08,136.533c0.225,0.222,0.363,0.662,0.42,1.307l-0.498,0.073c-0.037-0.292-0.096-0.53-0.219-0.714
			c-0.115-0.17-0.297-0.243-0.52-0.201c-0.33,0.048-0.555,0.333-0.688,0.866c-0.092,0.336-0.133,0.755-0.117,1.223
			c0.014,0.489,0.088,0.884,0.219,1.192c0.139,0.315,0.344,0.44,0.619,0.398c0.217-0.038,0.383-0.16,0.496-0.385
			c0.127-0.232,0.199-0.523,0.232-0.894l0.51-0.073c-0.051,0.648-0.184,1.14-0.408,1.469c-0.207,0.34-0.5,0.534-0.85,0.582
			c-0.4,0.069-0.73-0.114-0.969-0.537c-0.248-0.426-0.373-0.977-0.391-1.663c-0.014-0.853,0.102-1.532,0.348-2.044
			c0.252-0.509,0.572-0.8,0.969-0.866C73.588,136.217,73.867,136.304,74.08,136.533L74.08,136.533z"/>
		<path fill="#005CAB" d="M75.559,140.144c0.109,0.118,0.24,0.17,0.385,0.142c0.184-0.038,0.357-0.122,0.52-0.284
			c0.283-0.267,0.418-0.648,0.404-1.14l-0.01-0.658c-0.061,0.083-0.141,0.146-0.24,0.208c-0.086,0.052-0.193,0.097-0.283,0.131
			l-0.316,0.118c-0.178,0.069-0.316,0.152-0.414,0.246c-0.146,0.16-0.215,0.402-0.215,0.714
			C75.389,139.853,75.457,140.022,75.559,140.144L75.559,140.144z M76.592,137.78c0.117-0.042,0.191-0.135,0.229-0.274
			c0.018-0.069,0.037-0.18,0.037-0.312c-0.02-0.281-0.074-0.468-0.211-0.572c-0.115-0.115-0.297-0.139-0.52-0.101
			c-0.275,0.035-0.459,0.184-0.568,0.433c-0.066,0.132-0.096,0.322-0.102,0.579l-0.486,0.083c0-0.603,0.113-1.032,0.338-1.31
			c0.23-0.267,0.504-0.419,0.807-0.482c0.352-0.052,0.652,0.014,0.877,0.191c0.232,0.18,0.34,0.492,0.357,0.956l0.051,2.776
			c0.006,0.093,0.006,0.156,0.041,0.201c0.021,0.045,0.068,0.066,0.133,0.052c0.021-0.007,0.051-0.01,0.076-0.024
			c0,0,0.059-0.014,0.1-0.028v0.603c-0.074,0.042-0.133,0.08-0.176,0.087c-0.047,0.024-0.107,0.038-0.168,0.048
			c-0.182,0.024-0.301-0.052-0.385-0.239c-0.051-0.097-0.09-0.25-0.105-0.43c-0.096,0.229-0.25,0.444-0.436,0.634
			c-0.193,0.187-0.402,0.305-0.641,0.34c-0.281,0.045-0.516-0.052-0.697-0.298c-0.191-0.246-0.285-0.568-0.293-0.974
			c-0.012-0.443,0.068-0.807,0.242-1.081c0.168-0.271,0.4-0.464,0.701-0.568L76.592,137.78L76.592,137.78z"/>
		<path fill="#005CAB" d="M80.115,135.573c0.219,0.229,0.35,0.662,0.41,1.303l-0.494,0.073c-0.041-0.291-0.107-0.527-0.229-0.707
			c-0.096-0.177-0.279-0.25-0.52-0.215c-0.326,0.052-0.545,0.343-0.682,0.876c-0.088,0.33-0.125,0.742-0.119,1.227
			c0.025,0.488,0.084,0.883,0.227,1.188c0.133,0.305,0.34,0.44,0.607,0.395c0.225-0.035,0.391-0.167,0.51-0.388
			s0.199-0.513,0.24-0.88l0.486-0.077c-0.037,0.648-0.166,1.137-0.385,1.473c-0.223,0.322-0.527,0.523-0.873,0.572
			c-0.396,0.069-0.721-0.114-0.961-0.533c-0.238-0.423-0.373-0.978-0.4-1.677c-0.008-0.849,0.115-1.521,0.359-2.034
			c0.248-0.506,0.578-0.797,0.979-0.866C79.611,135.25,79.896,135.331,80.115,135.573L80.115,135.573z"/>
		<path fill="#005CAB" d="M80.949,135.202l0.518-0.09l0.102,4.807l-0.527,0.076L80.949,135.202L80.949,135.202z M80.918,133.383
			l0.52-0.086l0.008,0.925l-0.512,0.076L80.918,133.383L80.918,133.383z"/>
		<path fill="#005CAB" d="M83.961,132.752l-0.729,1.41l-0.393,0.073l0.5-1.39L83.961,132.752L83.961,132.752z M84.148,138.366
			c0.109-0.43,0.158-0.891,0.15-1.386c-0.004-0.447-0.047-0.811-0.15-1.082c-0.145-0.416-0.4-0.603-0.744-0.544
			c-0.314,0.052-0.539,0.271-0.672,0.672s-0.191,0.876-0.176,1.403c0.01,0.506,0.088,0.936,0.234,1.248
			c0.15,0.312,0.369,0.458,0.676,0.405C83.803,139.031,84.033,138.789,84.148,138.366L84.148,138.366z M84.389,135.108
			c0.293,0.371,0.434,0.96,0.453,1.768c0.016,0.769-0.098,1.435-0.318,1.982c-0.229,0.537-0.6,0.849-1.09,0.939
			c-0.418,0.066-0.742-0.114-1.006-0.52c-0.252-0.409-0.379-0.991-0.4-1.75c-0.012-0.814,0.096-1.473,0.348-1.996
			c0.24-0.523,0.59-0.818,1.029-0.891C83.789,134.585,84.107,134.734,84.389,135.108L84.389,135.108z"/>
		<path fill="#005CAB" d="M85.369,134.467l0.479-0.076l0.018,0.687c0.133-0.302,0.283-0.53,0.445-0.687
			c0.154-0.146,0.338-0.232,0.529-0.256c0.428-0.076,0.732,0.111,0.893,0.572c0.082,0.25,0.127,0.606,0.148,1.099l0.057,3.098
			l-0.523,0.076l-0.057-3.039c-0.008-0.292-0.041-0.523-0.09-0.693c-0.104-0.288-0.271-0.419-0.508-0.371
			c-0.121,0.014-0.221,0.048-0.295,0.101c-0.133,0.093-0.26,0.242-0.359,0.454c-0.096,0.173-0.133,0.343-0.156,0.52
			c-0.027,0.167-0.043,0.419-0.027,0.731l0.051,2.53l-0.516,0.083L85.369,134.467L85.369,134.467z"/>
		<path fill="#005CAB" d="M24.368,144.222l0.492-0.08l0.003,0.825c0.054-0.159,0.149-0.371,0.292-0.63
			c0.153-0.256,0.328-0.409,0.525-0.43l0.049-0.007c0,0,0.066,0,0.131,0l0.012,0.856c-0.029-0.014-0.066-0.014-0.066-0.014
			c-0.059,0.007-0.076,0.014-0.076,0.014c-0.291,0.045-0.479,0.201-0.617,0.485c-0.131,0.291-0.195,0.603-0.189,0.947l0.059,2.775
			l-0.501,0.076L24.368,144.222L24.368,144.222z"/>
		<path fill="#005CAB" d="M28.012,144.697c-0.157-0.26-0.365-0.374-0.609-0.333c-0.35,0.059-0.591,0.36-0.703,0.918
			c-0.072,0.298-0.096,0.669-0.084,1.137c0.012,0.544,0.092,0.942,0.227,1.213c0.15,0.253,0.341,0.374,0.561,0.336
			c0.369-0.065,0.625-0.367,0.761-0.911c0.083-0.312,0.112-0.669,0.112-1.064C28.258,145.396,28.17,144.963,28.012,144.697
			L28.012,144.697z M27.93,143.844c0.098,0.087,0.199,0.229,0.291,0.416v-0.61l0.475-0.073l0.083,4.383
			c0.021,0.606-0.021,1.099-0.128,1.469c-0.213,0.689-0.6,1.078-1.184,1.182c-0.32,0.049-0.608-0.023-0.834-0.225
			c-0.221-0.194-0.361-0.541-0.4-1.025l0.525-0.084c0.029,0.201,0.076,0.361,0.154,0.475c0.117,0.152,0.305,0.223,0.555,0.184
			c0.388-0.059,0.641-0.322,0.744-0.783c0.064-0.266,0.096-0.734,0.076-1.393c-0.092,0.26-0.221,0.457-0.357,0.609
			c-0.136,0.139-0.326,0.223-0.568,0.268c-0.32,0.052-0.615-0.094-0.879-0.42c-0.25-0.332-0.379-0.925-0.402-1.781
			c-0.01-0.807,0.1-1.448,0.351-1.95c0.215-0.496,0.532-0.766,0.873-0.825C27.53,143.626,27.747,143.688,27.93,143.844
			L27.93,143.844z"/>
	</g>
</g>
</svg>
