<?xml version="1.0" encoding="utf-8"?>
<!-- Generator: Adobe Illustrator 16.0.0, SVG Export Plug-In . SVG Version: 6.00 Build 0)  -->
<!DOCTYPE svg PUBLIC "-//W3C//DTD SVG 1.1//EN" "http://www.w3.org/Graphics/SVG/1.1/DTD/svg11.dtd">
<svg version="1.1" id="Layer_1" xmlns="http://www.w3.org/2000/svg" xmlns:xlink="http://www.w3.org/1999/xlink" x="0px" y="0px"
	 width="110.5px" height="158.546px" viewBox="0 0 110.5 158.546" enable-background="new 0 0 110.5 158.546" xml:space="preserve">
<g>
	<g>
		<defs>
			<rect id="SVGID_13_" x="19.372" y="6.942" width="69.016" height="144.661"/>
		</defs>
		<clipPath id="SVGID_2_">
			<use xlink:href="#SVGID_13_"  overflow="visible"/>
		</clipPath>
	</g>
	<g>
		
			<polygon fill="#FFFFFF" stroke="#FFFFFF" stroke-width="5" stroke-linecap="round" stroke-linejoin="round" stroke-miterlimit="10" points="
			21.538,64.745 85.973,51.678 85.973,86.597 22.255,100.073 21.538,64.745 		"/>
		
			<path fill-rule="evenodd" clip-rule="evenodd" fill="#005CAB" stroke="#FFFFFF" stroke-width="5" stroke-linecap="round" stroke-linejoin="round" stroke-miterlimit="10" d="
			M19.372,123.22l59.819-9.585c4.907-1.071,6.844-2.353,8.772-7.918c0,9.848,0,15.011,0,15.011c-0.09,4.699-1.284,8.556-6.606,9.772
			c-7.307,1.147-61.985,9.997-61.985,9.997V123.22L19.372,123.22z"/>
		
			<path fill="#005CAB" stroke="#FFFFFF" stroke-width="5" stroke-linecap="round" stroke-linejoin="round" stroke-miterlimit="10" d="
			M76.345,100.901v-3.715c0.795-0.159,1.488-0.395,2.088-0.7c0.591-0.309,1.062-0.638,1.385-0.984
			c0.34-0.357,0.615-0.78,0.855-1.258c0.344-0.689,0.575-1.358,0.676-2.02l3.74-0.669v14.058c1.716-3.06,2.434-6.965,2.533-11.175
			L87.427,51.38l-10.201,2.062c0.732,0.09,1.424,0.26,2.039,0.541c1.484,0.662,2.725,1.774,3.693,3.357
			c0.994,1.563,1.698,3.375,2.131,5.413c0.43,2.044,0.639,4.221,0.626,6.511c-0.018,3.514-0.485,6.747-1.423,9.675
			c-0.936,2.938-2.352,5.274-4.26,7.006c-1.875,1.743-4.095,2.821-6.662,3.261c-3.647,0.621-6.501-0.277-8.568-2.72
			c-2.402-2.849-3.586-7.118-3.57-12.818c0.018-3.07,0.418-6.078,1.209-9.037c0.791-2.963,2.131-5.419,4.015-7.377
			c0.854-0.897,1.829-1.629,2.903-2.211l-13.565,2.734c0.054,0.038,0.128,0.073,0.196,0.107c0.881,0.558,1.604,1.25,2.156,2.093
			c0.555,0.814,0.976,1.681,1.273,2.588c0.324,0.894,0.568,1.965,0.756,3.223l-8.985,1.532c-0.203-0.97-0.617-1.656-1.204-2.051
			c-0.579-0.423-1.437-0.523-2.528-0.343c-1.076,0.184-1.896,0.585-2.462,1.216c-0.43,0.481-0.641,1.033-0.641,1.674
			c0,0.547,0.144,0.967,0.478,1.24c0.442,0.409,1.518,0.714,3.186,0.922l3.661,0.461c3.401,0.409,5.782,1.424,7.148,3.011
			c1.367,1.597,2.06,3.597,2.041,6.005c-0.016,1.923-0.374,3.75-1.091,5.455c-0.709,1.698-1.582,3.087-2.615,4.182
			c-1.043,1.085-2.384,2.041-4.016,2.849c-1.65,0.828-3.382,1.393-5.191,1.708c-1.991,0.33-3.866,0.343-5.614,0.021
			c-1.74-0.336-3.179-0.984-4.309-1.958c-1.129-0.98-1.977-2.187-2.564-3.635c-0.397-1.022-0.678-2.322-0.83-3.895l9.085-1.552
			c0.2,1.067,0.659,1.836,1.357,2.322c0.7,0.471,1.776,0.582,3.233,0.333c1.275-0.222,2.197-0.627,2.75-1.237
			c0.413-0.458,0.615-1.026,0.615-1.726c0-0.696-0.183-1.24-0.565-1.608c-0.361-0.367-1.399-0.658-3.096-0.87l-3.29-0.419
			c-1.72-0.201-3.342-0.617-4.853-1.237c-1.492-0.634-2.632-1.577-3.408-2.838c-0.748-1.265-1.142-2.897-1.124-4.886
			c0.008-1.958,0.354-3.756,1.05-5.398c0.641-1.518,1.486-2.803,2.516-3.871l-6.282,1.268l-0.12,32.857l-9.462,1.618l0.126-32.562
			l-3.396,0.693l-0.045,55.166c0,0,2.041-0.291,5.352-0.762v-9.661l-3.815,0.69v-3.725c0.804-0.16,1.499-0.398,2.086-0.697
			c0.6-0.312,1.059-0.638,1.383-0.987c0.334-0.357,0.636-0.773,0.876-1.261c0.333-0.683,0.562-1.355,0.667-2.017l3.715-0.672v17.63
			c2.632-0.367,5.586-0.807,8.748-1.258v-2.956l-7.63,1.372v-4.366l7.796-11.691l4.515-0.814v10.604l2.041-0.374v4.058l-2.041,0.367
			v3.119c1.899-0.273,3.815-0.558,5.74-0.845c-0.504-0.246-0.965-0.572-1.386-1.005c-1.409-1.497-2.124-3.788-2.124-6.858
			c0-1.639,0.234-3.264,0.696-4.882c0.456-1.597,1.241-2.938,2.339-4.023c1.109-1.084,2.535-1.792,4.259-2.104
			c1.281-0.225,2.377-0.177,3.256,0.17c0.876,0.339,1.614,0.918,2.191,1.76c0.571,0.832,0.992,1.795,1.25,2.887
			c0.259,1.091,0.383,2.259,0.383,3.489c0,1.896-0.266,3.642-0.815,5.229c-0.548,1.597-1.363,2.876-2.491,3.833
			c-0.184,0.173-0.395,0.319-0.602,0.468c2.949-0.447,5.793-0.887,8.424-1.292c-0.838-0.222-1.572-0.659-2.187-1.299
			c-1.408-1.504-2.112-3.788-2.112-6.848c0-1.656,0.217-3.285,0.674-4.889c0.467-1.604,1.242-2.945,2.35-4.023
			c1.109-1.088,2.529-1.792,4.248-2.104c1.307-0.232,2.385-0.18,3.26,0.167c0.883,0.333,1.611,0.921,2.184,1.757
			c0.584,0.835,1.012,1.785,1.258,2.89c0.258,1.095,0.395,2.259,0.395,3.49c0,1.896-0.279,3.645-0.821,5.232
			c-0.536,1.59-1.365,2.869-2.489,3.825c-0.413,0.375-0.885,0.672-1.367,0.943c3.408-0.565,6.012-1.019,7.332-1.324
			c1.049-0.25,2.023-0.617,2.891-1.054v-10.198L76.345,100.901L76.345,100.901z"/>
		
			<path fill="#005CAB" stroke="#FFFFFF" stroke-width="5" stroke-linecap="round" stroke-linejoin="round" stroke-miterlimit="10" d="
			M71.417,80.92c0.593,0.437,1.264,0.579,1.982,0.458c0.734-0.125,1.396-0.496,1.992-1.129c0.6-0.634,1.066-1.684,1.395-3.15
			c0.439-1.941,0.68-4.338,0.68-7.19c0.012-2.187-0.133-3.981-0.454-5.406c-0.291-1.441-0.753-2.398-1.379-2.852
			c-0.6-0.458-1.315-0.613-2.116-0.482c-1.129,0.201-1.998,0.87-2.586,2.034c-0.946,1.83-1.43,4.685-1.437,8.573
			c-0.022,2.79,0.173,4.997,0.582,6.608C70.376,79.631,70.815,80.48,71.417,80.92L71.417,80.92z"/>
		
			<path fill="#005CAB" stroke="#FFFFFF" stroke-width="5" stroke-linecap="round" stroke-linejoin="round" stroke-miterlimit="10" d="
			M54.093,101.458c-0.363-0.232-0.771-0.312-1.242-0.222c-0.67,0.114-1.171,0.492-1.527,1.13c-0.559,1.001-0.825,2.54-0.825,4.626
			c0,1.507,0.116,2.689,0.367,3.555c0.173,0.666,0.442,1.116,0.792,1.348c0.35,0.225,0.73,0.294,1.157,0.218
			c0.432-0.08,0.825-0.288,1.175-0.634c0.35-0.357,0.623-0.915,0.816-1.719c0.252-1.046,0.388-2.342,0.388-3.884
			c0-1.178-0.097-2.145-0.293-2.907C54.722,102.2,54.464,101.691,54.093,101.458L54.093,101.458z"/>
		
			<polygon fill="#005CAB" stroke="#FFFFFF" stroke-width="5" stroke-linecap="round" stroke-linejoin="round" stroke-miterlimit="10" points="
			38.858,110.482 38.858,104.823 34.827,111.209 38.858,110.482 		"/>
		
			<path fill="#005CAB" stroke="#FFFFFF" stroke-width="5" stroke-linecap="round" stroke-linejoin="round" stroke-miterlimit="10" d="
			M68.669,98.839c-0.357-0.239-0.771-0.312-1.247-0.225c-0.671,0.111-1.169,0.492-1.517,1.133c-0.554,0.987-0.836,2.533-0.836,4.629
			c0,1.5,0.139,2.686,0.365,3.548c0.189,0.668,0.451,1.116,0.793,1.348c0.359,0.226,0.746,0.292,1.165,0.222
			c0.427-0.08,0.825-0.302,1.167-0.645c0.357-0.347,0.633-0.922,0.826-1.708c0.248-1.061,0.383-2.346,0.383-3.884
			c0-1.178-0.084-2.145-0.274-2.908C69.317,99.581,69.038,99.068,68.669,98.839L68.669,98.839z"/>
		
			<path fill="#FFFFFF" stroke="#FFFFFF" stroke-width="5" stroke-linecap="round" stroke-linejoin="round" stroke-miterlimit="10" d="
			M26.28,101.812c-0.105,0.662-0.334,1.334-0.667,2.017c-0.241,0.488-0.542,0.904-0.876,1.261c-0.324,0.35-0.783,0.676-1.383,0.987
			c-0.587,0.298-1.282,0.537-2.086,0.697v3.725l3.815-0.69v9.661c1.43-0.201,3.084-0.44,4.912-0.7v-17.63L26.28,101.812
			L26.28,101.812z"/>
		
			<path fill="#FFFFFF" stroke="#FFFFFF" stroke-width="5" stroke-linecap="round" stroke-linejoin="round" stroke-miterlimit="10" d="
			M38.858,110.482l-4.032,0.728l4.032-6.386V110.482L38.858,110.482z M45.465,113.344v-4.058l-2.041,0.374V99.057l-4.515,0.814
			l-7.796,11.691v4.366l7.63-1.372v2.956c1.521-0.222,3.091-0.447,4.682-0.683v-3.119L45.465,113.344L45.465,113.344z"/>
		
			<path fill="#FFFFFF" stroke="#FFFFFF" stroke-width="5" stroke-linecap="round" stroke-linejoin="round" stroke-miterlimit="10" d="
			M54.806,109.761c-0.193,0.804-0.467,1.362-0.816,1.719c-0.35,0.347-0.743,0.555-1.175,0.634c-0.427,0.076-0.808,0.007-1.157-0.218
			c-0.35-0.232-0.619-0.683-0.792-1.348c-0.251-0.866-0.367-2.048-0.367-3.555c0-2.086,0.267-3.625,0.825-4.626
			c0.356-0.638,0.857-1.016,1.527-1.13c0.472-0.09,0.879-0.01,1.242,0.222c0.371,0.232,0.629,0.742,0.808,1.511
			c0.196,0.762,0.293,1.729,0.293,2.907C55.193,107.419,55.058,108.715,54.806,109.761L54.806,109.761z M59.213,110.648
			c0.55-1.587,0.815-3.333,0.815-5.229c0-1.23-0.124-2.398-0.383-3.489c-0.258-1.092-0.679-2.055-1.25-2.887
			c-0.577-0.842-1.315-1.421-2.191-1.76c-0.879-0.347-1.975-0.395-3.256-0.17c-1.725,0.312-3.15,1.019-4.259,2.104
			c-1.098,1.084-1.883,2.426-2.339,4.023c-0.462,1.618-0.696,3.244-0.696,4.882c0,3.07,0.715,5.361,2.124,6.858
			c0.421,0.433,0.882,0.759,1.386,1.005c2.349-0.347,4.692-0.693,6.956-1.036c0.207-0.149,0.418-0.294,0.602-0.468
			C57.85,113.524,58.665,112.246,59.213,110.648L59.213,110.648z"/>
		
			<path fill="#FFFFFF" stroke="#FFFFFF" stroke-width="5" stroke-linecap="round" stroke-linejoin="round" stroke-miterlimit="10" d="
			M69.386,107.142c-0.193,0.787-0.469,1.362-0.826,1.708c-0.342,0.343-0.74,0.564-1.167,0.645c-0.419,0.069-0.806,0.003-1.165-0.222
			c-0.342-0.232-0.604-0.679-0.793-1.348c-0.227-0.863-0.365-2.048-0.365-3.548c0-2.097,0.282-3.642,0.836-4.629
			c0.348-0.641,0.846-1.022,1.517-1.133c0.476-0.086,0.89-0.014,1.247,0.225c0.369,0.229,0.648,0.742,0.825,1.511
			c0.19,0.763,0.274,1.729,0.274,2.908C69.769,104.795,69.634,106.081,69.386,107.142L69.386,107.142z M73.791,108.029
			c0.542-1.587,0.821-3.337,0.821-5.232c0-1.23-0.137-2.395-0.395-3.49c-0.246-1.105-0.674-2.055-1.258-2.89
			c-0.572-0.835-1.301-1.424-2.184-1.757c-0.875-0.347-1.953-0.398-3.26-0.167c-1.719,0.312-3.139,1.015-4.248,2.104
			c-1.107,1.078-1.883,2.418-2.35,4.023c-0.457,1.604-0.674,3.233-0.674,4.889c0,3.06,0.704,5.344,2.112,6.848
			c0.614,0.641,1.349,1.078,2.187,1.299c1.949-0.309,3.764-0.6,5.391-0.859c0.482-0.271,0.954-0.568,1.367-0.943
			C72.426,110.898,73.255,109.619,73.791,108.029L73.791,108.029z"/>
		
			<path fill="#FFFFFF" stroke="#FFFFFF" stroke-width="5" stroke-linecap="round" stroke-linejoin="round" stroke-miterlimit="10" d="
			M85.089,105.613V91.555l-3.74,0.669c-0.101,0.662-0.332,1.331-0.676,2.02c-0.24,0.478-0.516,0.901-0.855,1.258
			c-0.322,0.347-0.794,0.676-1.385,0.984c-0.6,0.305-1.293,0.541-2.088,0.7v3.715l3.812-0.679v10.198
			C82.333,109.321,83.923,107.661,85.089,105.613L85.089,105.613z"/>
		
			<path fill-rule="evenodd" clip-rule="evenodd" fill="#FFFFFF" stroke="#FFFFFF" stroke-width="5" stroke-linecap="round" stroke-linejoin="round" stroke-miterlimit="10" d="
			M22.266,139.149l5.25-15.576l4.909-0.825l5.245,13.788l-4.791,0.821l-0.566-1.833l-4.796,0.818l-0.537,2.02L22.266,139.149
			L22.266,139.149z M29.912,127.586l-1.508,5.589l3.077-0.52L29.912,127.586L29.912,127.586z"/>
		
			<path fill-rule="evenodd" clip-rule="evenodd" fill="#FFFFFF" stroke="#FFFFFF" stroke-width="5" stroke-linecap="round" stroke-linejoin="round" stroke-miterlimit="10" d="
			M52.29,124.98l-4.554,0.772c-0.083-0.717-0.354-1.244-0.792-1.57c-0.44-0.339-0.996-0.457-1.688-0.333
			c-0.842,0.142-1.532,0.589-2.074,1.348c-0.534,0.749-0.799,1.868-0.799,3.354c0,1.019,0.106,1.774,0.34,2.267
			c0.23,0.502,0.549,0.835,0.955,1.029c0.412,0.191,0.913,0.236,1.53,0.128c0.74-0.128,1.337-0.43,1.774-0.904
			c0.433-0.492,0.69-1.137,0.77-1.961l4.636-0.783c-0.098,0.932-0.281,1.719-0.531,2.388c-0.275,0.662-0.716,1.369-1.329,2.096
			c-0.629,0.717-1.363,1.32-2.212,1.819c-0.857,0.478-1.84,0.821-2.966,1.012c-1.112,0.184-2.15,0.194-3.1,0.024
			c-0.949-0.17-1.741-0.513-2.38-1.005c-0.648-0.502-1.152-1.116-1.514-1.844c-0.517-1.019-0.78-2.193-0.78-3.534
			c0-1.14,0.196-2.231,0.568-3.278c0.365-1.053,0.882-1.961,1.524-2.741c0.653-0.783,1.365-1.403,2.163-1.871
			c1.003-0.593,2.11-0.998,3.332-1.209c1.054-0.18,2.059-0.194,2.992-0.031c0.936,0.16,1.694,0.496,2.294,1.012
			c0.591,0.502,1.059,1.123,1.368,1.864C52.052,123.553,52.21,124.211,52.29,124.98L52.29,124.98z"/>
		
			<path fill-rule="evenodd" clip-rule="evenodd" fill="#FFFFFF" stroke="#FFFFFF" stroke-width="5" stroke-linecap="round" stroke-linejoin="round" stroke-miterlimit="10" d="
			M67.235,122.44l-4.54,0.78c-0.093-0.721-0.35-1.248-0.8-1.58c-0.439-0.34-0.984-0.444-1.683-0.33
			c-0.846,0.142-1.528,0.586-2.074,1.341c-0.53,0.759-0.81,1.878-0.81,3.354c0,1.022,0.12,1.781,0.351,2.273
			c0.226,0.492,0.542,0.832,0.949,1.033c0.409,0.19,0.925,0.225,1.524,0.128c0.758-0.135,1.345-0.433,1.777-0.908
			c0.439-0.492,0.697-1.14,0.777-1.961l4.64-0.783c-0.112,0.922-0.292,1.722-0.555,2.391c-0.257,0.669-0.707,1.358-1.323,2.086
			c-0.611,0.728-1.35,1.327-2.201,1.823c-0.849,0.478-1.831,0.818-2.957,1.001c-1.125,0.198-2.154,0.205-3.115,0.035
			c-0.929-0.173-1.728-0.509-2.379-1.008c-0.645-0.499-1.145-1.112-1.516-1.84c-0.512-1.015-0.763-2.19-0.763-3.538
			c0-1.133,0.181-2.228,0.558-3.271c0.371-1.057,0.893-1.968,1.528-2.741c0.655-0.783,1.364-1.403,2.147-1.875
			c1.008-0.6,2.123-1.005,3.34-1.203c1.062-0.19,2.049-0.197,2.99-0.038c0.926,0.156,1.699,0.499,2.301,0.998
			c0.604,0.513,1.052,1.133,1.383,1.878C67.011,121.016,67.16,121.667,67.235,122.44L67.235,122.44z"/>
		
			<polygon fill-rule="evenodd" clip-rule="evenodd" fill="#FFFFFF" stroke="#FFFFFF" stroke-width="5" stroke-linecap="round" stroke-linejoin="round" stroke-miterlimit="10" points="
			68.266,131.335 68.266,116.653 74.089,115.659 76.676,124.384 79.241,114.782 85.089,113.788 85.089,128.477 80.708,129.222 
			80.708,120.985 78.334,129.62 74.974,130.192 72.612,122.357 72.612,130.594 68.266,131.335 		"/>
		
			<polygon fill-rule="evenodd" clip-rule="evenodd" fill="#ED1C24" stroke="#FFFFFF" stroke-width="5" stroke-linecap="round" stroke-linejoin="round" stroke-miterlimit="10" points="
			19.784,54.561 87.571,41.39 87.571,48.129 19.784,61.291 19.784,54.561 		"/>
		
			<polygon fill-rule="evenodd" clip-rule="evenodd" fill="#FFE100" stroke="#FFFFFF" stroke-width="5" stroke-linecap="round" stroke-linejoin="round" stroke-miterlimit="10" points="
			19.784,56.748 87.571,43.576 87.571,46.068 19.784,59.222 19.784,56.748 		"/>
		
			<polygon fill="#005CAB" stroke="#FFFFFF" stroke-width="5" stroke-linecap="round" stroke-linejoin="round" stroke-miterlimit="10" points="
			51.169,11.666 48.261,9.85 50.072,6.942 52.979,8.765 51.169,11.666 		"/>
		
			<path fill="#005CAB" stroke="#FFFFFF" stroke-width="5" stroke-linecap="round" stroke-linejoin="round" stroke-miterlimit="10" d="
			M59.163,32.467l-1.043-4.92c3.378-0.052,5.958-2.668,5.958-5.901c0-3.264-2.634-5.912-5.906-5.912
			c-0.96,0-1.826,0.246-2.616,0.641c-0.4,0.229-0.806,0.6-1.277,0.97c-0.576,0.461-1.238,1.462-1.488,1.875l-0.313,0.01
			l-0.304-0.256c-0.438-0.398-0.66-0.523-0.93-0.638c-0.587-0.253-1.395-0.458-2.391-0.704c-0.163-0.003-0.312-0.045-0.487-0.045
			c-3.257,0-5.903,2.651-5.903,5.915c0,3.271,2.646,5.915,5.903,5.915l0.392-0.024l1.291,6.082c-1.746,2.1-4.364,3.431-7.323,3.431
			c-5.248,0-9.518-4.249-9.518-9.512c0-3.784,2.211-7.058,5.42-8.59c1.182-4.276,5.099-7.419,9.739-7.419
			c1.145,0,2.225,0.187,3.254,0.537c1.771-1.497,4.064-2.398,6.553-2.398c3.147,0,5.981,1.445,7.835,3.718
			c4.598,0.676,8.135,4.626,8.135,9.418c0,5.26-4.27,9.522-9.521,9.522C62.591,34.182,60.703,33.552,59.163,32.467L59.163,32.467z
			 M68.218,20.425c0.048,0.398,0.082,0.804,0.082,1.22c0,3.556-1.848,6.688-4.636,8.5c0.322,0.045,0.629,0.08,0.956,0.08
			c3.07,0,5.561-2.499,5.561-5.565C70.181,22.955,69.418,21.444,68.218,20.425L68.218,20.425z M38.508,25.762
			c-0.84,0.974-1.341,2.252-1.341,3.631c0,3.074,2.486,5.559,5.557,5.559c1.467,0,2.808-0.565,3.803-1.5
			C42.558,32.716,39.401,29.677,38.508,25.762L38.508,25.762z"/>
		
			<path fill-rule="evenodd" clip-rule="evenodd" fill="#005CAB" stroke="#FFFFFF" stroke-width="5" stroke-linecap="round" stroke-linejoin="round" stroke-miterlimit="10" d="
			M22.504,47.412c0.394,0.139,0.624,0.458,0.717,0.957l-0.53,0.104c-0.069-0.281-0.205-0.468-0.413-0.565
			c-0.19-0.086-0.466-0.107-0.768-0.042c-0.366,0.062-0.677,0.263-0.93,0.579c-0.251,0.333-0.381,0.766-0.381,1.31
			c0,0.475,0.109,0.842,0.322,1.098c0.206,0.256,0.546,0.343,1.012,0.243c0.354-0.062,0.659-0.215,0.893-0.471
			c0.241-0.256,0.357-0.62,0.357-1.078l-1.246,0.235v-0.457l1.752-0.322v2.124l-0.352,0.069l-0.125-0.482
			c-0.179,0.226-0.35,0.399-0.492,0.496c-0.232,0.191-0.534,0.312-0.892,0.375c-0.478,0.097-0.877,0.017-1.216-0.222
			c-0.369-0.315-0.558-0.808-0.558-1.466c0-0.676,0.189-1.234,0.546-1.695c0.333-0.447,0.785-0.714,1.322-0.817
			C21.888,47.308,22.22,47.326,22.504,47.412L22.504,47.412z"/>
		
			<polygon fill-rule="evenodd" clip-rule="evenodd" fill="#005CAB" stroke="#FFFFFF" stroke-width="5" stroke-linecap="round" stroke-linejoin="round" stroke-miterlimit="10" points="
			23.812,47.055 26.725,46.498 26.725,46.99 24.345,47.447 24.345,48.643 26.533,48.23 26.533,48.691 24.345,49.11 24.345,50.451 
			26.754,49.994 26.754,50.469 23.812,51.03 23.812,47.055 		"/>
		
			<path fill-rule="evenodd" clip-rule="evenodd" fill="#005CAB" stroke="#FFFFFF" stroke-width="5" stroke-linecap="round" stroke-linejoin="round" stroke-miterlimit="10" d="
			M27.467,49.055c0.003,0.222,0.057,0.395,0.154,0.52c0.173,0.225,0.49,0.294,0.949,0.208c0.19-0.031,0.383-0.093,0.549-0.187
			c0.32-0.17,0.478-0.398,0.478-0.7c0-0.205-0.061-0.354-0.203-0.419c-0.137-0.062-0.35-0.101-0.641-0.114l-0.534-0.011
			c-0.358-0.021-0.604-0.059-0.753-0.125c-0.25-0.114-0.376-0.343-0.376-0.676c0-0.35,0.126-0.672,0.367-0.942
			c0.25-0.281,0.603-0.461,1.059-0.541c0.411-0.087,0.77-0.056,1.052,0.097c0.296,0.149,0.426,0.44,0.426,0.877l-0.492,0.097
			c-0.021-0.201-0.083-0.36-0.175-0.458c-0.17-0.17-0.442-0.229-0.828-0.146c-0.321,0.052-0.551,0.159-0.691,0.326
			c-0.13,0.156-0.209,0.326-0.209,0.499c0,0.197,0.08,0.329,0.254,0.385c0.095,0.038,0.333,0.065,0.717,0.08l0.549,0.021
			c0.271,0.011,0.478,0.056,0.629,0.135c0.246,0.142,0.376,0.381,0.376,0.738c0,0.44-0.154,0.787-0.489,1.033
			c-0.317,0.25-0.683,0.422-1.107,0.495c-0.492,0.104-0.884,0.045-1.159-0.156c-0.279-0.194-0.424-0.506-0.412-0.949L27.467,49.055
			L27.467,49.055z"/>
		
			<polygon fill-rule="evenodd" clip-rule="evenodd" fill="#005CAB" stroke="#FFFFFF" stroke-width="5" stroke-linecap="round" stroke-linejoin="round" stroke-miterlimit="10" points="
			33.344,45.233 33.344,45.718 31.998,45.978 31.998,49.471 31.462,49.582 31.462,46.078 30.125,46.328 30.125,45.853 
			33.344,45.233 		"/>
		
			<polygon fill-rule="evenodd" clip-rule="evenodd" fill="#005CAB" stroke="#FFFFFF" stroke-width="5" stroke-linecap="round" stroke-linejoin="round" stroke-miterlimit="10" points="
			33.602,45.198 34.151,45.087 34.151,49.065 33.602,49.169 33.602,45.198 		"/>
		
			<path fill-rule="evenodd" clip-rule="evenodd" fill="#005CAB" stroke="#FFFFFF" stroke-width="5" stroke-linecap="round" stroke-linejoin="round" stroke-miterlimit="10" d="
			M37.944,44.938c0.265,0.295,0.398,0.724,0.398,1.275c0,0.596-0.149,1.112-0.447,1.566c-0.369,0.533-0.87,0.855-1.526,0.984
			c-0.598,0.107-1.088,0-1.429-0.339c-0.321-0.33-0.463-0.794-0.463-1.386c0-0.541,0.126-1.033,0.392-1.452
			c0.341-0.558,0.851-0.904,1.525-1.025C37.089,44.422,37.613,44.546,37.944,44.938L37.944,44.938z M37.476,47.558
			c0.213-0.377,0.313-0.79,0.313-1.237c0-0.464-0.121-0.814-0.373-1.061c-0.241-0.232-0.577-0.315-1.003-0.232
			c-0.405,0.086-0.738,0.284-1,0.62c-0.262,0.329-0.385,0.766-0.385,1.32c0,0.44,0.113,0.787,0.338,1.053
			c0.213,0.253,0.577,0.34,1.074,0.246C36.917,48.175,37.263,47.942,37.476,47.558L37.476,47.558z M37.126,43.323l-0.721,0.915
			l-0.371,0.076l0.491-0.88L37.126,43.323L37.126,43.323z"/>
		
			<polygon fill-rule="evenodd" clip-rule="evenodd" fill="#005CAB" stroke="#FFFFFF" stroke-width="5" stroke-linecap="round" stroke-linejoin="round" stroke-miterlimit="10" points="
			38.633,44.238 39.276,44.12 41.262,46.958 41.262,43.739 41.787,43.646 41.787,47.61 41.175,47.728 39.134,44.896 39.134,48.123 
			38.633,48.213 38.633,44.238 		"/>
		
			<path fill-rule="evenodd" clip-rule="evenodd" fill="#005CAB" stroke="#FFFFFF" stroke-width="5" stroke-linecap="round" stroke-linejoin="round" stroke-miterlimit="10" d="
			M43.458,43.323l0.757-0.142l1.145,3.14l1.144-3.576l0.77-0.152v3.988l-0.517,0.087v-2.346c0-0.073,0-0.208,0-0.398s0-0.392,0-0.6
			l-1.126,3.566l-0.532,0.097l-1.145-3.136v0.121c0,0.097,0.009,0.243,0.009,0.444c0,0.197,0.003,0.343,0.003,0.44v2.35
			l-0.508,0.097V43.323L43.458,43.323z"/>
		
			<polygon fill-rule="evenodd" clip-rule="evenodd" fill="#005CAB" stroke="#FFFFFF" stroke-width="5" stroke-linecap="round" stroke-linejoin="round" stroke-miterlimit="10" points="
			47.778,42.499 50.676,41.948 50.676,42.436 48.301,42.89 48.301,44.093 50.498,43.68 50.498,44.138 48.301,44.561 48.301,45.901 
			50.723,45.447 50.723,45.922 47.778,46.477 47.778,42.499 		"/>
		
			<path fill-rule="evenodd" clip-rule="evenodd" fill="#005CAB" stroke="#FFFFFF" stroke-width="5" stroke-linecap="round" stroke-linejoin="round" stroke-miterlimit="10" d="
			M52.606,45.101c0.184-0.038,0.324-0.073,0.434-0.142c0.232-0.111,0.391-0.277,0.528-0.499c0.104-0.187,0.184-0.409,0.22-0.658
			c0.035-0.156,0.041-0.305,0.041-0.437c0-0.485-0.1-0.849-0.285-1.091c-0.201-0.232-0.513-0.305-0.938-0.225l-0.963,0.18v3.053
			L52.606,45.101L52.606,45.101z M51.093,41.875L52.7,41.57c0.546-0.114,0.973,0.007,1.289,0.333
			c0.258,0.298,0.398,0.728,0.398,1.271c0,0.423-0.083,0.821-0.25,1.188c-0.281,0.666-0.757,1.046-1.438,1.175l-1.607,0.309V41.875
			L51.093,41.875z"/>
		
			<polygon fill-rule="evenodd" clip-rule="evenodd" fill="#005CAB" stroke="#FFFFFF" stroke-width="5" stroke-linecap="round" stroke-linejoin="round" stroke-miterlimit="10" points="
			54.839,41.165 55.393,41.057 55.393,45.035 54.839,45.136 54.839,41.165 		"/>
		
			<path fill-rule="evenodd" clip-rule="evenodd" fill="#005CAB" stroke="#FFFFFF" stroke-width="5" stroke-linecap="round" stroke-linejoin="round" stroke-miterlimit="10" d="
			M59.187,40.908c0.264,0.298,0.393,0.721,0.393,1.268c0,0.593-0.16,1.123-0.458,1.566c-0.351,0.53-0.866,0.863-1.509,0.98
			c-0.606,0.111-1.09,0-1.437-0.333c-0.309-0.336-0.475-0.793-0.475-1.386c0-0.537,0.134-1.029,0.396-1.462
			c0.352-0.544,0.855-0.894,1.525-1.019C58.321,40.392,58.851,40.517,59.187,40.908L59.187,40.908z M58.712,43.524
			c0.199-0.375,0.316-0.793,0.316-1.23c0-0.468-0.133-0.821-0.373-1.064c-0.252-0.232-0.577-0.309-1.002-0.232
			c-0.412,0.08-0.74,0.277-1.006,0.617c-0.264,0.326-0.38,0.769-0.38,1.32c0,0.437,0.104,0.79,0.327,1.054
			c0.223,0.26,0.584,0.336,1.085,0.243C58.157,44.141,58.495,43.902,58.712,43.524L58.712,43.524z"/>
		
			<path fill-rule="evenodd" clip-rule="evenodd" fill="#005CAB" stroke="#FFFFFF" stroke-width="5" stroke-linecap="round" stroke-linejoin="round" stroke-miterlimit="10" d="
			M62.79,41.993l-0.599-1.636l-0.642,1.872L62.79,41.993L62.79,41.993z M61.896,39.82l0.616-0.118l1.441,3.705l-0.591,0.107
			l-0.402-1.109l-1.574,0.301l-0.423,1.268l-0.546,0.104L61.896,39.82L61.896,39.82z"/>
		
			<path fill-rule="evenodd" clip-rule="evenodd" fill="#005CAB" stroke="#FFFFFF" stroke-width="5" stroke-linecap="round" stroke-linejoin="round" stroke-miterlimit="10" d="
			M64.078,39.411l0.78-0.156l1.133,3.15l1.127-3.573l0.775-0.146v3.975l-0.523,0.093v-2.349c0-0.083,0-0.211,0.016-0.402
			c0-0.191,0-0.385,0-0.6l-1.133,3.559l-0.529,0.114l-1.145-3.139v0.121c0,0.097,0,0.239,0,0.44c0,0.194,0,0.343,0,0.44v2.342
			l-0.501,0.101V39.411L64.078,39.411z"/>
		
			<path fill-rule="evenodd" clip-rule="evenodd" fill="#005CAB" stroke="#FFFFFF" stroke-width="5" stroke-linecap="round" stroke-linejoin="round" stroke-miterlimit="10" d="
			M69.851,39.99c0.226-0.045,0.404-0.111,0.539-0.197c0.186-0.135,0.303-0.329,0.303-0.586c0-0.267-0.133-0.419-0.34-0.468
			c-0.104-0.031-0.289-0.021-0.52,0.024l-0.961,0.177v1.248L69.851,39.99L69.851,39.99z M70.03,41.788
			c0.322-0.062,0.562-0.201,0.713-0.422c0.084-0.135,0.125-0.284,0.125-0.458c0-0.291-0.125-0.464-0.383-0.517
			c-0.15-0.031-0.326-0.027-0.551,0.014l-1.062,0.211v1.396L70.03,41.788L70.03,41.788z M68.339,38.593l1.713-0.319
			c0.467-0.086,0.791-0.017,0.998,0.226c0.109,0.138,0.168,0.315,0.168,0.537c0,0.25-0.074,0.468-0.213,0.662
			c-0.074,0.094-0.189,0.194-0.312,0.281c0.203,0.042,0.351,0.107,0.451,0.184c0.17,0.135,0.262,0.36,0.262,0.669
			c0,0.253-0.076,0.496-0.246,0.741c-0.229,0.35-0.607,0.586-1.133,0.679l-1.688,0.315V38.593L68.339,38.593z"/>
		
			<polygon fill-rule="evenodd" clip-rule="evenodd" fill="#005CAB" stroke="#FFFFFF" stroke-width="5" stroke-linecap="round" stroke-linejoin="round" stroke-miterlimit="10" points="
			71.821,37.938 72.366,37.841 72.366,41.816 71.821,41.917 71.821,37.938 		"/>
		
			<polygon fill-rule="evenodd" clip-rule="evenodd" fill="#005CAB" stroke="#FFFFFF" stroke-width="5" stroke-linecap="round" stroke-linejoin="round" stroke-miterlimit="10" points="
			72.93,37.724 75.841,37.173 75.841,37.658 73.464,38.112 73.464,39.321 75.655,38.902 75.655,39.37 73.464,39.771 73.464,41.126 
			75.87,40.669 75.87,41.14 72.93,41.698 72.93,37.724 		"/>
		
			<polygon fill-rule="evenodd" clip-rule="evenodd" fill="#005CAB" stroke="#FFFFFF" stroke-width="5" stroke-linecap="round" stroke-linejoin="round" stroke-miterlimit="10" points="
			76.232,37.1 76.861,36.979 78.874,39.813 78.874,36.598 79.382,36.504 79.382,40.475 78.786,40.589 76.749,37.758 76.749,40.974 
			76.232,41.078 76.232,37.1 		"/>
		
			<polygon fill-rule="evenodd" clip-rule="evenodd" fill="#005CAB" stroke="#FFFFFF" stroke-width="5" stroke-linecap="round" stroke-linejoin="round" stroke-miterlimit="10" points="
			82.772,35.853 82.772,36.324 81.432,36.583 81.432,40.087 80.882,40.194 80.882,36.698 79.542,36.94 79.542,36.466 82.772,35.853 
					"/>
		
			<path fill-rule="evenodd" clip-rule="evenodd" fill="#005CAB" stroke="#FFFFFF" stroke-width="5" stroke-linecap="round" stroke-linejoin="round" stroke-miterlimit="10" d="
			M84.544,37.866l-0.613-1.632l-0.641,1.875L84.544,37.866L84.544,37.866z M83.647,35.683l0.609-0.111l1.44,3.708l-0.581,0.107
			l-0.401-1.112l-1.571,0.295l-0.434,1.278l-0.549,0.097L83.647,35.683L83.647,35.683z"/>
		
			<polygon fill-rule="evenodd" clip-rule="evenodd" fill="#005CAB" stroke="#FFFFFF" stroke-width="5" stroke-linecap="round" stroke-linejoin="round" stroke-miterlimit="10" points="
			85.849,35.274 86.389,35.17 86.389,38.677 88.388,38.285 88.388,38.763 85.849,39.252 85.849,35.274 		"/>
		
			<path fill="#005CAB" stroke="#FFFFFF" stroke-width="5" stroke-linecap="round" stroke-linejoin="round" stroke-miterlimit="10" d="
			M22.73,148.831c0.208-0.606,0.3-1.271,0.296-2c-0.022-0.776-0.154-1.375-0.421-1.805c-0.258-0.437-0.619-0.613-1.067-0.537
			c-0.421,0.059-0.768,0.354-1.024,0.866c-0.26,0.502-0.384,1.227-0.365,2.131c0.007,0.728,0.131,1.324,0.384,1.781
			c0.237,0.464,0.622,0.655,1.147,0.579C22.172,149.76,22.529,149.427,22.73,148.831L22.73,148.831z M23.128,144.562
			c0.296,0.53,0.459,1.248,0.468,2.162c0.029,0.978-0.107,1.819-0.425,2.52c-0.346,0.828-0.868,1.286-1.547,1.393
			c-0.64,0.107-1.146-0.142-1.518-0.763c-0.343-0.585-0.53-1.375-0.542-2.363c-0.026-0.88,0.099-1.663,0.369-2.346
			c0.346-0.863,0.863-1.348,1.559-1.466C22.22,143.582,22.77,143.869,23.128,144.562L23.128,144.562z"/>
		
			<path fill="#005CAB" stroke="#FFFFFF" stroke-width="5" stroke-linecap="round" stroke-linejoin="round" stroke-miterlimit="10" d="
			M29.764,148.422c0.118,0.118,0.23,0.163,0.398,0.142c0.167-0.035,0.343-0.122,0.497-0.284c0.279-0.256,0.423-0.645,0.418-1.133
			l-0.018-0.648c-0.066,0.083-0.14,0.135-0.241,0.198c-0.088,0.059-0.189,0.111-0.291,0.135l-0.29,0.107
			c-0.194,0.069-0.327,0.153-0.416,0.25c-0.154,0.167-0.232,0.402-0.226,0.71C29.598,148.131,29.662,148.305,29.764,148.422
			L29.764,148.422z M30.798,146.076c0.122-0.038,0.192-0.131,0.22-0.27c0.026-0.073,0.042-0.18,0.033-0.319
			c0-0.263-0.074-0.461-0.199-0.568c-0.121-0.097-0.298-0.139-0.534-0.097c-0.258,0.038-0.445,0.184-0.554,0.43
			c-0.054,0.135-0.078,0.33-0.102,0.579l-0.479,0.083c0-0.6,0.116-1.033,0.34-1.292c0.225-0.277,0.492-0.44,0.795-0.482
			c0.36-0.062,0.655,0,0.88,0.184c0.222,0.173,0.328,0.499,0.347,0.953l0.052,2.755c0.005,0.086,0.018,0.149,0.043,0.194
			c0.017,0.052,0.062,0.069,0.128,0.056c0,0,0.05-0.007,0.075-0.018c0.038-0.014,0.059-0.021,0.101-0.038v0.593
			c-0.075,0.055-0.125,0.08-0.175,0.101c-0.038,0.017-0.095,0.038-0.166,0.042c-0.182,0.024-0.3-0.052-0.388-0.236
			c-0.048-0.101-0.071-0.243-0.092-0.43c-0.104,0.232-0.244,0.44-0.444,0.627c-0.184,0.194-0.402,0.301-0.634,0.343
			c-0.274,0.042-0.508-0.052-0.679-0.298c-0.196-0.236-0.284-0.565-0.294-0.967c-0.019-0.443,0.074-0.797,0.235-1.078
			c0.175-0.267,0.388-0.454,0.688-0.554L30.798,146.076L30.798,146.076z"/>
		
			<path fill="#005CAB" stroke="#FFFFFF" stroke-width="5" stroke-linecap="round" stroke-linejoin="round" stroke-miterlimit="10" d="
			M32.302,143.938l0.479-0.083l0.008,0.69c0.139-0.305,0.288-0.53,0.437-0.676c0.168-0.146,0.343-0.243,0.542-0.271
			c0.417-0.076,0.717,0.125,0.884,0.572c0.08,0.243,0.133,0.61,0.14,1.095l0.059,3.074l-0.517,0.083l-0.054-3.021
			c-0.008-0.295-0.046-0.527-0.1-0.697c-0.092-0.281-0.258-0.402-0.492-0.364c-0.137,0.01-0.224,0.059-0.303,0.104
			c-0.142,0.093-0.258,0.239-0.358,0.45c-0.087,0.173-0.128,0.34-0.149,0.51c-0.021,0.177-0.042,0.422-0.021,0.734l0.042,2.509
			l-0.513,0.083L32.302,143.938L32.302,143.938z"/>
		
			<path fill="#005CAB" stroke="#FFFFFF" stroke-width="5" stroke-linecap="round" stroke-linejoin="round" stroke-miterlimit="10" d="
			M35.451,143.457l0.509-0.076l0.104,4.761l-0.52,0.083L35.451,143.457L35.451,143.457z M35.414,141.658l0.52-0.083l0.01,0.915
			l-0.513,0.076L35.414,141.658L35.414,141.658z"/>
		
			<path fill="#005CAB" stroke="#FFFFFF" stroke-width="5" stroke-linecap="round" stroke-linejoin="round" stroke-miterlimit="10" d="
			M37.034,146.485c0.043,0.253,0.066,0.454,0.142,0.589c0.15,0.239,0.371,0.336,0.703,0.281c0.18-0.031,0.359-0.125,0.504-0.281
			c0.14-0.152,0.201-0.36,0.192-0.634c0-0.201-0.052-0.347-0.18-0.434c-0.078-0.055-0.215-0.114-0.44-0.159l-0.421-0.101
			c-0.272-0.055-0.457-0.142-0.58-0.246c-0.227-0.187-0.345-0.464-0.359-0.845c0-0.461,0.094-0.839,0.298-1.154
			c0.207-0.312,0.479-0.499,0.837-0.558c0.458-0.076,0.793,0.086,1.012,0.471c0.134,0.256,0.196,0.534,0.196,0.839l-0.478,0.086
			c-0.014-0.194-0.052-0.343-0.142-0.485c-0.109-0.184-0.326-0.256-0.622-0.211c-0.196,0.034-0.339,0.111-0.433,0.249
			c-0.099,0.128-0.163,0.288-0.151,0.475c0,0.204,0.077,0.364,0.215,0.468c0.078,0.073,0.173,0.107,0.331,0.149l0.343,0.076
			c0.383,0.076,0.632,0.173,0.771,0.281c0.199,0.173,0.294,0.485,0.317,0.932c0,0.423-0.093,0.807-0.296,1.157
			c-0.196,0.333-0.513,0.537-0.934,0.606c-0.454,0.076-0.781-0.042-0.974-0.329c-0.196-0.298-0.3-0.676-0.331-1.147L37.034,146.485
			L37.034,146.485z"/>
		
			<path fill="#005CAB" stroke="#FFFFFF" stroke-width="5" stroke-linecap="round" stroke-linejoin="round" stroke-miterlimit="10" d="
			M39.5,142.792l0.501-0.08l0.029,0.676c0.112-0.25,0.224-0.443,0.313-0.568c0.161-0.208,0.357-0.326,0.562-0.364
			c0.241-0.042,0.437,0.028,0.579,0.184c0.083,0.101,0.17,0.25,0.243,0.444c0.107-0.271,0.237-0.489,0.392-0.634
			c0.146-0.146,0.315-0.232,0.504-0.267c0.411-0.062,0.695,0.121,0.847,0.564c0.08,0.239,0.125,0.568,0.135,0.991l0.069,3.185
			l-0.523,0.086l-0.08-3.326c0-0.322-0.05-0.52-0.151-0.631c-0.112-0.107-0.237-0.146-0.388-0.118
			c-0.196,0.027-0.366,0.166-0.494,0.395c-0.146,0.235-0.208,0.599-0.204,1.095l0.059,2.786l-0.518,0.086l-0.062-3.125
			c-0.012-0.322-0.038-0.558-0.08-0.696c-0.086-0.215-0.232-0.309-0.445-0.271c-0.195,0.028-0.369,0.177-0.523,0.433
			c-0.147,0.264-0.222,0.704-0.209,1.324l0.052,2.537l-0.5,0.083L39.5,142.792L39.5,142.792z"/>
		
			<path fill="#005CAB" stroke="#FFFFFF" stroke-width="5" stroke-linecap="round" stroke-linejoin="round" stroke-miterlimit="10" d="
			M46.215,145.39c0.109-0.426,0.166-0.883,0.154-1.382c-0.007-0.444-0.067-0.801-0.154-1.064c-0.151-0.419-0.404-0.6-0.75-0.547
			c-0.303,0.052-0.52,0.273-0.658,0.676c-0.125,0.402-0.191,0.855-0.173,1.393c0.007,0.502,0.083,0.922,0.225,1.234
			c0.154,0.315,0.375,0.458,0.674,0.402C45.874,146.049,46.094,145.806,46.215,145.39L46.215,145.39z M46.453,142.147
			c0.289,0.374,0.43,0.96,0.437,1.757c0.035,0.769-0.078,1.431-0.302,1.968c-0.225,0.534-0.583,0.852-1.084,0.936
			c-0.421,0.062-0.75-0.111-1.005-0.517c-0.241-0.398-0.369-0.977-0.386-1.729c-0.021-0.814,0.095-1.473,0.345-1.982
			c0.237-0.523,0.584-0.814,1.008-0.88C45.856,141.627,46.191,141.783,46.453,142.147L46.453,142.147z"/>
		
			<path fill="#005CAB" stroke="#FFFFFF" stroke-width="5" stroke-linecap="round" stroke-linejoin="round" stroke-miterlimit="10" d="
			M49.561,144.922c0.142,0.333,0.379,0.468,0.688,0.419c0.215-0.035,0.407-0.229,0.549-0.568c0.14-0.347,0.208-0.821,0.208-1.414
			c-0.019-0.61-0.116-1.043-0.267-1.313c-0.166-0.267-0.35-0.378-0.573-0.347c-0.267,0.045-0.468,0.229-0.617,0.565
			c-0.154,0.329-0.216,0.818-0.204,1.407C49.353,144.188,49.424,144.607,49.561,144.922L49.561,144.922z M50.637,141.163
			c0.086,0.069,0.196,0.201,0.301,0.419l-0.048-2.422l0.492-0.083l0.131,6.594l-0.448,0.076l-0.026-0.668
			c-0.107,0.312-0.244,0.558-0.392,0.707c-0.161,0.16-0.35,0.253-0.558,0.288c-0.324,0.056-0.633-0.125-0.884-0.534
			c-0.25-0.412-0.398-0.991-0.398-1.732c-0.018-0.7,0.074-1.32,0.303-1.868c0.196-0.551,0.525-0.853,0.937-0.922
			C50.274,140.982,50.463,141.028,50.637,141.163L50.637,141.163z"/>
		
			<path fill="#005CAB" stroke="#FFFFFF" stroke-width="5" stroke-linecap="round" stroke-linejoin="round" stroke-miterlimit="10" d="
			M54.214,142.455c-0.029-0.35-0.079-0.613-0.162-0.811c-0.143-0.368-0.379-0.52-0.709-0.479c-0.225,0.042-0.428,0.198-0.562,0.502
			c-0.154,0.281-0.238,0.645-0.238,1.05L54.214,142.455L54.214,142.455z M53.989,140.594c0.203,0.139,0.354,0.319,0.475,0.558
			c0.101,0.211,0.176,0.502,0.221,0.814c0.037,0.215,0.037,0.564,0.053,1.04l-2.195,0.354c0.026,0.492,0.105,0.866,0.248,1.136
			c0.125,0.277,0.357,0.398,0.629,0.354c0.266-0.045,0.475-0.218,0.633-0.527c0.083-0.176,0.133-0.374,0.17-0.585l0.5-0.083
			c-0.006,0.177-0.045,0.388-0.125,0.61c-0.074,0.229-0.145,0.419-0.242,0.568c-0.141,0.26-0.332,0.457-0.551,0.572
			c-0.131,0.073-0.253,0.111-0.414,0.146c-0.385,0.052-0.689-0.115-0.96-0.51c-0.275-0.384-0.423-0.97-0.433-1.76
			c-0.013-0.766,0.109-1.414,0.363-1.93c0.246-0.517,0.582-0.814,1.004-0.891C53.581,140.432,53.788,140.473,53.989,140.594
			L53.989,140.594z"/>
		
			<path fill="#005CAB" stroke="#FFFFFF" stroke-width="5" stroke-linecap="round" stroke-linejoin="round" stroke-miterlimit="10" d="
			M59.804,138.242c0.293,0.392,0.451,0.863,0.504,1.417l-0.555,0.087c-0.065-0.416-0.187-0.731-0.373-0.953
			c-0.193-0.208-0.451-0.301-0.775-0.246c-0.408,0.066-0.726,0.34-0.959,0.835c-0.241,0.499-0.351,1.212-0.328,2.155
			c0.012,0.766,0.141,1.375,0.369,1.823c0.227,0.447,0.568,0.63,1.014,0.558c0.41-0.066,0.712-0.371,0.908-0.911
			c0.115-0.274,0.17-0.641,0.236-1.085l0.55-0.08c-0.048,0.7-0.19,1.299-0.452,1.812c-0.313,0.613-0.746,0.963-1.313,1.057
			c-0.457,0.073-0.866-0.093-1.198-0.502c-0.425-0.541-0.668-1.458-0.693-2.734c-0.021-0.967,0.117-1.792,0.441-2.46
			c0.326-0.731,0.792-1.144,1.4-1.24C59.092,137.69,59.503,137.85,59.804,138.242L59.804,138.242z"/>
		
			<path fill="#005CAB" stroke="#FFFFFF" stroke-width="5" stroke-linecap="round" stroke-linejoin="round" stroke-miterlimit="10" d="
			M63.022,141.048c-0.023-0.35-0.078-0.617-0.148-0.811c-0.154-0.371-0.389-0.533-0.713-0.471c-0.219,0.028-0.42,0.201-0.572,0.492
			c-0.145,0.291-0.226,0.645-0.226,1.05L63.022,141.048L63.022,141.048z M62.803,139.191c0.21,0.132,0.368,0.312,0.479,0.555
			c0.1,0.222,0.17,0.492,0.215,0.811c0.031,0.208,0.051,0.568,0.08,1.043l-2.214,0.35c0.022,0.492,0.099,0.87,0.241,1.14
			c0.137,0.271,0.35,0.392,0.632,0.347c0.263-0.038,0.472-0.222,0.622-0.517c0.086-0.18,0.141-0.377,0.177-0.596l0.493-0.076
			c0,0.173-0.037,0.374-0.105,0.61c-0.074,0.225-0.16,0.416-0.244,0.572c-0.156,0.256-0.343,0.45-0.566,0.564
			c-0.113,0.076-0.255,0.122-0.408,0.139c-0.375,0.062-0.695-0.101-0.955-0.496c-0.279-0.388-0.416-0.98-0.434-1.764
			c-0.01-0.769,0.104-1.414,0.347-1.934c0.259-0.52,0.597-0.814,1.029-0.883C62.399,139.018,62.603,139.073,62.803,139.191
			L62.803,139.191z"/>
		
			<path fill="#005CAB" stroke="#FFFFFF" stroke-width="5" stroke-linecap="round" stroke-linejoin="round" stroke-miterlimit="10" d="
			M64.12,138.852l0.459-0.073l0.027,0.828c0.037-0.17,0.139-0.378,0.271-0.631c0.159-0.26,0.338-0.405,0.538-0.44h0.045
			c0,0,0.06,0,0.117,0l0.018,0.846c-0.03-0.003-0.06-0.007-0.06-0.007c-0.065,0.007-0.075,0.007-0.112,0.011
			c-0.244,0.042-0.445,0.208-0.579,0.488c-0.121,0.288-0.19,0.593-0.19,0.936l0.069,2.755l-0.508,0.08L64.12,138.852L64.12,138.852z
			"/>
		
			<path fill="#005CAB" stroke="#FFFFFF" stroke-width="5" stroke-linecap="round" stroke-linejoin="round" stroke-miterlimit="10" d="
			M66.036,137.209l0.516-0.086l0.026,1.341l0.478-0.076l0.021,0.655l-0.49,0.073l0.064,3.133c0,0.166,0.041,0.267,0.112,0.318
			c0.038,0.024,0.105,0.028,0.206,0.021c0.02-0.007,0.049-0.017,0.049-0.017c0.059-0.007,0.083-0.021,0.121-0.039l0.021,0.641
			c-0.062,0.035-0.134,0.062-0.179,0.09c-0.076,0.017-0.139,0.042-0.204,0.052c-0.246,0.035-0.412-0.035-0.495-0.211
			c-0.084-0.184-0.137-0.43-0.143-0.734l-0.062-3.171l-0.408,0.066l-0.016-0.651l0.416-0.069L66.036,137.209L66.036,137.209z"/>
		
			<path fill="#005CAB" stroke="#FFFFFF" stroke-width="5" stroke-linecap="round" stroke-linejoin="round" stroke-miterlimit="10" d="
			M67.511,138.332l0.516-0.073l0.098,4.754l-0.531,0.09L67.511,138.332L67.511,138.332z M67.472,136.533l0.514-0.083l0.025,0.918
			l-0.513,0.083L67.472,136.533L67.472,136.533z"/>
		
			<path fill="#005CAB" stroke="#FFFFFF" stroke-width="5" stroke-linecap="round" stroke-linejoin="round" stroke-miterlimit="10" d="
			M68.943,136.616c0.108-0.294,0.333-0.464,0.675-0.516c0.033-0.014,0.072-0.014,0.072-0.014c0.057-0.003,0.112-0.003,0.143-0.011
			l0.018,0.738c-0.041,0.003-0.086,0.003-0.086,0.003c-0.059,0-0.074,0.007-0.074,0.007c-0.178,0.035-0.272,0.104-0.305,0.236
			c-0.016,0.131-0.033,0.461-0.016,0.98l0.502-0.086l0.014,0.638l-0.504,0.08l0.078,4.134l-0.5,0.083l-0.082-4.144l-0.418,0.073
			l-0.024-0.624l0.425-0.073l-0.018-0.752C68.843,137.032,68.878,136.779,68.943,136.616L68.943,136.616z"/>
		
			<path fill="#005CAB" stroke="#FFFFFF" stroke-width="5" stroke-linecap="round" stroke-linejoin="round" stroke-miterlimit="10" d="
			M70.29,137.885l0.51-0.076l0.096,4.771l-0.506,0.076L70.29,137.885L70.29,137.885z M70.255,136.086l0.51-0.087l0.012,0.925
			l-0.517,0.076L70.255,136.086L70.255,136.086z"/>
		
			<path fill="#005CAB" stroke="#FFFFFF" stroke-width="5" stroke-linecap="round" stroke-linejoin="round" stroke-miterlimit="10" d="
			M73.501,137.607c0.232,0.225,0.357,0.658,0.414,1.296l-0.49,0.08c-0.032-0.291-0.108-0.526-0.225-0.7
			c-0.096-0.184-0.271-0.256-0.52-0.218c-0.314,0.055-0.546,0.336-0.671,0.866c-0.093,0.333-0.112,0.742-0.112,1.223
			c0.012,0.478,0.086,0.874,0.225,1.171c0.129,0.319,0.333,0.447,0.604,0.398c0.204-0.024,0.379-0.152,0.5-0.388
			c0.117-0.222,0.183-0.502,0.238-0.87l0.49-0.08c-0.055,0.645-0.186,1.133-0.404,1.466c-0.207,0.322-0.5,0.516-0.857,0.579
			c-0.389,0.062-0.709-0.118-0.955-0.534c-0.24-0.423-0.37-0.974-0.386-1.66c-0.016-0.852,0.107-1.521,0.341-2.03
			c0.25-0.506,0.574-0.797,0.988-0.856C73.008,137.299,73.294,137.375,73.501,137.607L73.501,137.607z"/>
		
			<path fill="#005CAB" stroke="#FFFFFF" stroke-width="5" stroke-linecap="round" stroke-linejoin="round" stroke-miterlimit="10" d="
			M74.974,141.197c0.113,0.118,0.227,0.167,0.393,0.139c0.176-0.028,0.343-0.125,0.497-0.277c0.282-0.263,0.421-0.641,0.411-1.136
			l-0.016-0.645c-0.051,0.073-0.138,0.142-0.229,0.184c-0.092,0.069-0.204,0.114-0.296,0.146l-0.297,0.114
			c-0.195,0.062-0.32,0.146-0.42,0.246c-0.158,0.163-0.221,0.402-0.221,0.707C74.805,140.913,74.858,141.083,74.974,141.197
			L74.974,141.197z M75.991,138.852c0.116-0.042,0.192-0.132,0.241-0.267c0.017-0.076,0.026-0.184,0.026-0.319
			c-0.01-0.273-0.075-0.464-0.199-0.564c-0.122-0.107-0.309-0.153-0.527-0.107c-0.273,0.038-0.465,0.184-0.564,0.433
			c-0.068,0.139-0.092,0.333-0.109,0.585l-0.475,0.069c0-0.596,0.115-1.022,0.342-1.289c0.221-0.27,0.49-0.426,0.807-0.485
			c0.35-0.049,0.635,0.017,0.868,0.194c0.216,0.177,0.333,0.492,0.349,0.949l0.051,2.755c0,0.087,0.008,0.153,0.039,0.198
			c0.022,0.048,0.061,0.069,0.135,0.055c0,0,0.041-0.01,0.076-0.024c0.029-0.003,0.049-0.018,0.09-0.028l0.023,0.592
			c-0.084,0.056-0.151,0.077-0.189,0.101c-0.036,0.014-0.102,0.024-0.174,0.031c-0.171,0.035-0.301-0.048-0.371-0.229
			c-0.055-0.097-0.084-0.246-0.113-0.43c-0.096,0.232-0.237,0.433-0.423,0.627c-0.2,0.198-0.401,0.309-0.651,0.34
			c-0.268,0.042-0.504-0.049-0.683-0.294c-0.184-0.243-0.274-0.562-0.3-0.974c0-0.44,0.074-0.797,0.255-1.067
			c0.169-0.271,0.386-0.468,0.679-0.562L75.991,138.852L75.991,138.852z"/>
		
			<path fill="#005CAB" stroke="#FFFFFF" stroke-width="5" stroke-linecap="round" stroke-linejoin="round" stroke-miterlimit="10" d="
			M79.495,136.647c0.221,0.232,0.358,0.662,0.42,1.296l-0.5,0.077c-0.041-0.288-0.116-0.52-0.215-0.7
			c-0.109-0.177-0.284-0.246-0.525-0.211c-0.334,0.052-0.556,0.347-0.681,0.863c-0.077,0.343-0.128,0.749-0.112,1.22
			c0.01,0.482,0.076,0.884,0.219,1.178c0.137,0.319,0.332,0.44,0.611,0.395c0.213-0.031,0.379-0.152,0.488-0.377
			c0.125-0.222,0.208-0.52,0.248-0.884l0.494-0.069c-0.047,0.641-0.178,1.126-0.4,1.459c-0.217,0.322-0.502,0.523-0.858,0.582
			c-0.384,0.059-0.708-0.121-0.956-0.541c-0.25-0.423-0.375-0.98-0.395-1.656c-0.016-0.842,0.108-1.528,0.341-2.024
			c0.26-0.513,0.584-0.793,0.983-0.863C79.005,136.336,79.278,136.422,79.495,136.647L79.495,136.647z"/>
		
			<path fill="#005CAB" stroke="#FFFFFF" stroke-width="5" stroke-linecap="round" stroke-linejoin="round" stroke-miterlimit="10" d="
			M80.333,136.287l0.517-0.086l0.09,4.765l-0.52,0.086L80.333,136.287L80.333,136.287z M80.295,134.482l0.513-0.087l0.016,0.922
			l-0.51,0.08L80.295,134.482L80.295,134.482z"/>
		
			<path fill="#005CAB" stroke="#FFFFFF" stroke-width="5" stroke-linecap="round" stroke-linejoin="round" stroke-miterlimit="10" d="
			M83.323,133.848l-0.715,1.411l-0.402,0.069l0.488-1.375L83.323,133.848L83.323,133.848z M83.497,139.427
			c0.117-0.413,0.177-0.88,0.15-1.372c0-0.454-0.049-0.801-0.15-1.071c-0.141-0.419-0.398-0.61-0.734-0.548
			c-0.305,0.052-0.531,0.274-0.655,0.672c-0.142,0.398-0.196,0.863-0.188,1.386c0.012,0.52,0.088,0.929,0.23,1.237
			c0.148,0.322,0.369,0.464,0.682,0.413C83.161,140.085,83.384,139.853,83.497,139.427L83.497,139.427z M83.753,136.197
			c0.271,0.36,0.422,0.953,0.443,1.746c0.01,0.773-0.107,1.431-0.318,1.972c-0.23,0.541-0.596,0.849-1.088,0.929
			c-0.404,0.069-0.75-0.097-1-0.513c-0.236-0.405-0.379-0.98-0.391-1.732c-0.027-0.797,0.092-1.469,0.357-1.982
			c0.232-0.516,0.576-0.811,1.006-0.883C83.147,135.681,83.475,135.826,83.753,136.197L83.753,136.197z"/>
		
			<path fill="#005CAB" stroke="#FFFFFF" stroke-width="5" stroke-linecap="round" stroke-linejoin="round" stroke-miterlimit="10" d="
			M84.706,135.553l0.479-0.073l0.022,0.686c0.132-0.302,0.282-0.523,0.44-0.683c0.159-0.139,0.343-0.229,0.527-0.264
			c0.43-0.065,0.738,0.125,0.881,0.576c0.086,0.246,0.133,0.613,0.15,1.091l0.066,3.067l-0.521,0.08l-0.058-3.015
			c-0.014-0.291-0.038-0.523-0.104-0.693c-0.083-0.281-0.261-0.398-0.487-0.357c-0.123,0.007-0.23,0.045-0.296,0.094
			c-0.142,0.09-0.264,0.239-0.358,0.451c-0.092,0.18-0.134,0.346-0.166,0.52c-0.018,0.177-0.018,0.423-0.018,0.735l0.055,2.509
			l-0.513,0.083L84.706,135.553L84.706,135.553z"/>
		
			<path fill="#005CAB" stroke="#FFFFFF" stroke-width="5" stroke-linecap="round" stroke-linejoin="round" stroke-miterlimit="10" d="
			M24.13,145.248l0.49-0.083l0.01,0.828c0.04-0.167,0.128-0.371,0.274-0.638c0.159-0.25,0.333-0.395,0.537-0.433l0.017-0.003
			c0.042,0,0.087,0,0.141,0l0.017,0.859c-0.029-0.01-0.059-0.01-0.059-0.01c-0.058,0.01-0.075,0.01-0.075,0.01
			c-0.294,0.031-0.487,0.205-0.629,0.485c-0.125,0.28-0.175,0.592-0.175,0.939l0.05,2.748l-0.516,0.083L24.13,145.248L24.13,145.248
			z"/>
		
			<path fill="#005CAB" stroke="#FFFFFF" stroke-width="5" stroke-linecap="round" stroke-linejoin="round" stroke-miterlimit="10" d="
			M27.749,145.727c-0.163-0.253-0.354-0.371-0.596-0.336c-0.357,0.056-0.6,0.357-0.716,0.908c-0.067,0.294-0.093,0.683-0.083,1.133
			c0.012,0.537,0.083,0.939,0.232,1.196c0.142,0.267,0.326,0.377,0.56,0.339c0.369-0.059,0.606-0.357,0.757-0.911
			c0.071-0.298,0.101-0.655,0.101-1.05C27.99,146.406,27.903,145.99,27.749,145.727L27.749,145.727z M27.678,144.871
			c0.074,0.09,0.184,0.222,0.296,0.409l-0.017-0.606l0.471-0.066l0.088,4.353c0,0.603-0.038,1.095-0.139,1.466
			c-0.211,0.683-0.591,1.074-1.175,1.164c-0.333,0.056-0.603-0.014-0.833-0.218c-0.217-0.19-0.347-0.527-0.392-1.022l0.525-0.077
			c0.029,0.201,0.075,0.357,0.149,0.464c0.118,0.156,0.305,0.226,0.551,0.184c0.383-0.059,0.633-0.319,0.745-0.773
			c0.056-0.274,0.088-0.721,0.068-1.383c-0.104,0.253-0.208,0.451-0.35,0.6c-0.142,0.146-0.334,0.236-0.566,0.267
			c-0.33,0.048-0.612-0.083-0.872-0.416c-0.25-0.326-0.381-0.918-0.404-1.764c-0.012-0.811,0.097-1.452,0.338-1.944
			c0.243-0.496,0.528-0.766,0.882-0.814C27.271,144.656,27.486,144.714,27.678,144.871L27.678,144.871z"/>
	</g>
	<g>
		<polygon fill="#FFFFFF" points="21.538,64.745 85.973,51.678 85.973,86.597 22.255,100.073 21.538,64.745 		"/>
		<path fill-rule="evenodd" clip-rule="evenodd" fill="#005CAB" d="M19.372,123.22l59.819-9.585
			c4.907-1.071,6.844-2.353,8.772-7.918c0,9.848,0,15.011,0,15.011c-0.09,4.699-1.284,8.556-6.606,9.772
			c-7.307,1.147-61.985,9.997-61.985,9.997V123.22L19.372,123.22z"/>
		<path fill="#005CAB" d="M76.345,100.901v-3.715c0.795-0.159,1.488-0.395,2.088-0.7c0.591-0.309,1.062-0.638,1.385-0.984
			c0.34-0.357,0.615-0.78,0.855-1.258c0.344-0.689,0.575-1.358,0.676-2.02l3.74-0.669v14.058c1.716-3.06,2.434-6.965,2.533-11.175
			L87.427,51.38l-10.201,2.062c0.732,0.09,1.424,0.26,2.039,0.541c1.484,0.662,2.725,1.774,3.693,3.357
			c0.994,1.563,1.698,3.375,2.131,5.413c0.43,2.044,0.639,4.221,0.626,6.511c-0.018,3.514-0.485,6.747-1.423,9.675
			c-0.936,2.938-2.352,5.274-4.26,7.006c-1.875,1.743-4.095,2.821-6.662,3.261c-3.647,0.621-6.501-0.277-8.568-2.72
			c-2.402-2.849-3.586-7.118-3.57-12.818c0.018-3.07,0.418-6.078,1.209-9.037c0.791-2.963,2.131-5.419,4.015-7.377
			c0.854-0.897,1.829-1.629,2.903-2.211l-13.565,2.734c0.054,0.038,0.128,0.073,0.196,0.107c0.881,0.558,1.604,1.25,2.156,2.093
			c0.555,0.814,0.976,1.681,1.273,2.588c0.324,0.894,0.568,1.965,0.756,3.223l-8.985,1.532c-0.203-0.97-0.617-1.656-1.204-2.051
			c-0.579-0.423-1.437-0.523-2.528-0.343c-1.076,0.184-1.896,0.585-2.462,1.216c-0.43,0.481-0.641,1.033-0.641,1.674
			c0,0.547,0.144,0.967,0.478,1.24c0.442,0.409,1.518,0.714,3.186,0.922l3.661,0.461c3.401,0.409,5.782,1.424,7.148,3.011
			c1.367,1.597,2.06,3.597,2.041,6.005c-0.016,1.923-0.374,3.75-1.091,5.455c-0.709,1.698-1.582,3.087-2.615,4.182
			c-1.043,1.085-2.384,2.041-4.016,2.849c-1.65,0.828-3.382,1.393-5.191,1.708c-1.991,0.33-3.866,0.343-5.614,0.021
			c-1.74-0.336-3.179-0.984-4.309-1.958c-1.129-0.98-1.977-2.187-2.564-3.635c-0.397-1.022-0.678-2.322-0.83-3.895l9.085-1.552
			c0.2,1.067,0.659,1.836,1.357,2.322c0.7,0.471,1.776,0.582,3.233,0.333c1.275-0.222,2.197-0.627,2.75-1.237
			c0.413-0.458,0.615-1.026,0.615-1.726c0-0.696-0.183-1.24-0.565-1.608c-0.361-0.367-1.399-0.658-3.096-0.87l-3.29-0.419
			c-1.72-0.201-3.342-0.617-4.853-1.237c-1.492-0.634-2.632-1.577-3.408-2.838c-0.748-1.265-1.142-2.897-1.124-4.886
			c0.008-1.958,0.354-3.756,1.05-5.398c0.641-1.518,1.486-2.803,2.516-3.871l-6.282,1.268l-0.12,32.857l-9.462,1.618l0.126-32.562
			l-3.396,0.693l-0.045,55.166c0,0,2.041-0.291,5.352-0.762v-9.661l-3.815,0.69v-3.725c0.804-0.16,1.499-0.398,2.086-0.697
			c0.6-0.312,1.059-0.638,1.383-0.987c0.334-0.357,0.636-0.773,0.876-1.261c0.333-0.683,0.562-1.355,0.667-2.017l3.715-0.672v17.63
			c2.632-0.367,5.586-0.807,8.748-1.258v-2.956l-7.63,1.372v-4.366l7.796-11.691l4.515-0.814v10.604l2.041-0.374v4.058l-2.041,0.367
			v3.119c1.899-0.273,3.815-0.558,5.74-0.845c-0.504-0.246-0.965-0.572-1.386-1.005c-1.409-1.497-2.124-3.788-2.124-6.858
			c0-1.639,0.234-3.264,0.696-4.882c0.456-1.597,1.241-2.938,2.339-4.023c1.109-1.084,2.535-1.792,4.259-2.104
			c1.281-0.225,2.377-0.177,3.256,0.17c0.876,0.339,1.614,0.918,2.191,1.76c0.571,0.832,0.992,1.795,1.25,2.887
			c0.259,1.091,0.383,2.259,0.383,3.489c0,1.896-0.266,3.642-0.815,5.229c-0.548,1.597-1.363,2.876-2.491,3.833
			c-0.184,0.173-0.395,0.319-0.602,0.468c2.949-0.447,5.793-0.887,8.424-1.292c-0.838-0.222-1.572-0.659-2.187-1.299
			c-1.408-1.504-2.112-3.788-2.112-6.848c0-1.656,0.217-3.285,0.674-4.889c0.467-1.604,1.242-2.945,2.35-4.023
			c1.109-1.088,2.529-1.792,4.248-2.104c1.307-0.232,2.385-0.18,3.26,0.167c0.883,0.333,1.611,0.921,2.184,1.757
			c0.584,0.835,1.012,1.785,1.258,2.89c0.258,1.095,0.395,2.259,0.395,3.49c0,1.896-0.279,3.645-0.821,5.232
			c-0.536,1.59-1.365,2.869-2.489,3.825c-0.413,0.375-0.885,0.672-1.367,0.943c3.408-0.565,6.012-1.019,7.332-1.324
			c1.049-0.25,2.023-0.617,2.891-1.054v-10.198L76.345,100.901L76.345,100.901z"/>
		<path fill="#005CAB" d="M71.417,80.92c0.593,0.437,1.264,0.579,1.982,0.458c0.734-0.125,1.396-0.496,1.992-1.129
			c0.6-0.634,1.066-1.684,1.395-3.15c0.439-1.941,0.68-4.338,0.68-7.19c0.012-2.187-0.133-3.981-0.454-5.406
			c-0.291-1.441-0.753-2.398-1.379-2.852c-0.6-0.458-1.315-0.613-2.116-0.482c-1.129,0.201-1.998,0.87-2.586,2.034
			c-0.946,1.83-1.43,4.685-1.437,8.573c-0.022,2.79,0.173,4.997,0.582,6.608C70.376,79.631,70.815,80.48,71.417,80.92L71.417,80.92z
			"/>
		<path fill="#005CAB" d="M54.093,101.458c-0.363-0.232-0.771-0.312-1.242-0.222c-0.67,0.114-1.171,0.492-1.527,1.13
			c-0.559,1.001-0.825,2.54-0.825,4.626c0,1.507,0.116,2.689,0.367,3.555c0.173,0.666,0.442,1.116,0.792,1.348
			c0.35,0.225,0.73,0.294,1.157,0.218c0.432-0.08,0.825-0.288,1.175-0.634c0.35-0.357,0.623-0.915,0.816-1.719
			c0.252-1.046,0.388-2.342,0.388-3.884c0-1.178-0.097-2.145-0.293-2.907C54.722,102.2,54.464,101.691,54.093,101.458
			L54.093,101.458z"/>
		<polygon fill="#005CAB" points="38.858,110.482 38.858,104.823 34.827,111.209 38.858,110.482 		"/>
		<path fill="#005CAB" d="M68.669,98.839c-0.357-0.239-0.771-0.312-1.247-0.225c-0.671,0.111-1.169,0.492-1.517,1.133
			c-0.554,0.987-0.836,2.533-0.836,4.629c0,1.5,0.139,2.686,0.365,3.548c0.189,0.668,0.451,1.116,0.793,1.348
			c0.359,0.226,0.746,0.292,1.165,0.222c0.427-0.08,0.825-0.302,1.167-0.645c0.357-0.347,0.633-0.922,0.826-1.708
			c0.248-1.061,0.383-2.346,0.383-3.884c0-1.178-0.084-2.145-0.274-2.908C69.317,99.581,69.038,99.068,68.669,98.839L68.669,98.839z
			"/>
		<path fill="#FFFFFF" d="M26.28,101.812c-0.105,0.662-0.334,1.334-0.667,2.017c-0.241,0.488-0.542,0.904-0.876,1.261
			c-0.324,0.35-0.783,0.676-1.383,0.987c-0.587,0.298-1.282,0.537-2.086,0.697v3.725l3.815-0.69v9.661
			c1.43-0.201,3.084-0.44,4.912-0.7v-17.63L26.28,101.812L26.28,101.812z"/>
		<path fill="#FFFFFF" d="M38.858,110.482l-4.032,0.728l4.032-6.386V110.482L38.858,110.482z M45.465,113.344v-4.058l-2.041,0.374
			V99.057l-4.515,0.814l-7.796,11.691v4.366l7.63-1.372v2.956c1.521-0.222,3.091-0.447,4.682-0.683v-3.119L45.465,113.344
			L45.465,113.344z"/>
		<path fill="#FFFFFF" d="M54.806,109.761c-0.193,0.804-0.467,1.362-0.816,1.719c-0.35,0.347-0.743,0.555-1.175,0.634
			c-0.427,0.076-0.808,0.007-1.157-0.218c-0.35-0.232-0.619-0.683-0.792-1.348c-0.251-0.866-0.367-2.048-0.367-3.555
			c0-2.086,0.267-3.625,0.825-4.626c0.356-0.638,0.857-1.016,1.527-1.13c0.472-0.09,0.879-0.01,1.242,0.222
			c0.371,0.232,0.629,0.742,0.808,1.511c0.196,0.762,0.293,1.729,0.293,2.907C55.193,107.419,55.058,108.715,54.806,109.761
			L54.806,109.761z M59.213,110.648c0.55-1.587,0.815-3.333,0.815-5.229c0-1.23-0.124-2.398-0.383-3.489
			c-0.258-1.092-0.679-2.055-1.25-2.887c-0.577-0.842-1.315-1.421-2.191-1.76c-0.879-0.347-1.975-0.395-3.256-0.17
			c-1.725,0.312-3.15,1.019-4.259,2.104c-1.098,1.084-1.883,2.426-2.339,4.023c-0.462,1.618-0.696,3.244-0.696,4.882
			c0,3.07,0.715,5.361,2.124,6.858c0.421,0.433,0.882,0.759,1.386,1.005c2.349-0.347,4.692-0.693,6.956-1.036
			c0.207-0.149,0.418-0.294,0.602-0.468C57.85,113.524,58.665,112.246,59.213,110.648L59.213,110.648z"/>
		<path fill="#FFFFFF" d="M69.386,107.142c-0.193,0.787-0.469,1.362-0.826,1.708c-0.342,0.343-0.74,0.564-1.167,0.645
			c-0.419,0.069-0.806,0.003-1.165-0.222c-0.342-0.232-0.604-0.679-0.793-1.348c-0.227-0.863-0.365-2.048-0.365-3.548
			c0-2.097,0.282-3.642,0.836-4.629c0.348-0.641,0.846-1.022,1.517-1.133c0.476-0.086,0.89-0.014,1.247,0.225
			c0.369,0.229,0.648,0.742,0.825,1.511c0.19,0.763,0.274,1.729,0.274,2.908C69.769,104.795,69.634,106.081,69.386,107.142
			L69.386,107.142z M73.791,108.029c0.542-1.587,0.821-3.337,0.821-5.232c0-1.23-0.137-2.395-0.395-3.49
			c-0.246-1.105-0.674-2.055-1.258-2.89c-0.572-0.835-1.301-1.424-2.184-1.757c-0.875-0.347-1.953-0.398-3.26-0.167
			c-1.719,0.312-3.139,1.015-4.248,2.104c-1.107,1.078-1.883,2.418-2.35,4.023c-0.457,1.604-0.674,3.233-0.674,4.889
			c0,3.06,0.704,5.344,2.112,6.848c0.614,0.641,1.349,1.078,2.187,1.299c1.949-0.309,3.764-0.6,5.391-0.859
			c0.482-0.271,0.954-0.568,1.367-0.943C72.426,110.898,73.255,109.619,73.791,108.029L73.791,108.029z"/>
		<path fill="#FFFFFF" d="M85.089,105.613V91.555l-3.74,0.669c-0.101,0.662-0.332,1.331-0.676,2.02
			c-0.24,0.478-0.516,0.901-0.855,1.258c-0.322,0.347-0.794,0.676-1.385,0.984c-0.6,0.305-1.293,0.541-2.088,0.7v3.715l3.812-0.679
			v10.198C82.333,109.321,83.923,107.661,85.089,105.613L85.089,105.613z"/>
		<path fill-rule="evenodd" clip-rule="evenodd" fill="#FFFFFF" d="M22.266,139.149l5.25-15.576l4.909-0.825l5.245,13.788
			l-4.791,0.821l-0.566-1.833l-4.796,0.818l-0.537,2.02L22.266,139.149L22.266,139.149z M29.912,127.586l-1.508,5.589l3.077-0.52
			L29.912,127.586L29.912,127.586z"/>
		<path fill-rule="evenodd" clip-rule="evenodd" fill="#FFFFFF" d="M52.29,124.98l-4.554,0.772c-0.083-0.717-0.354-1.244-0.792-1.57
			c-0.44-0.339-0.996-0.457-1.688-0.333c-0.842,0.142-1.532,0.589-2.074,1.348c-0.534,0.749-0.799,1.868-0.799,3.354
			c0,1.019,0.106,1.774,0.34,2.267c0.23,0.502,0.549,0.835,0.955,1.029c0.412,0.191,0.913,0.236,1.53,0.128
			c0.74-0.128,1.337-0.43,1.774-0.904c0.433-0.492,0.69-1.137,0.77-1.961l4.636-0.783c-0.098,0.932-0.281,1.719-0.531,2.388
			c-0.275,0.662-0.716,1.369-1.329,2.096c-0.629,0.717-1.363,1.32-2.212,1.819c-0.857,0.478-1.84,0.821-2.966,1.012
			c-1.112,0.184-2.15,0.194-3.1,0.024c-0.949-0.17-1.741-0.513-2.38-1.005c-0.648-0.502-1.152-1.116-1.514-1.844
			c-0.517-1.019-0.78-2.193-0.78-3.534c0-1.14,0.196-2.231,0.568-3.278c0.365-1.053,0.882-1.961,1.524-2.741
			c0.653-0.783,1.365-1.403,2.163-1.871c1.003-0.593,2.11-0.998,3.332-1.209c1.054-0.18,2.059-0.194,2.992-0.031
			c0.936,0.16,1.694,0.496,2.294,1.012c0.591,0.502,1.059,1.123,1.368,1.864C52.052,123.553,52.21,124.211,52.29,124.98
			L52.29,124.98z"/>
		<path fill-rule="evenodd" clip-rule="evenodd" fill="#FFFFFF" d="M67.235,122.44l-4.54,0.78c-0.093-0.721-0.35-1.248-0.8-1.58
			c-0.439-0.34-0.984-0.444-1.683-0.33c-0.846,0.142-1.528,0.586-2.074,1.341c-0.53,0.759-0.81,1.878-0.81,3.354
			c0,1.022,0.12,1.781,0.351,2.273c0.226,0.492,0.542,0.832,0.949,1.033c0.409,0.19,0.925,0.225,1.524,0.128
			c0.758-0.135,1.345-0.433,1.777-0.908c0.439-0.492,0.697-1.14,0.777-1.961l4.64-0.783c-0.112,0.922-0.292,1.722-0.555,2.391
			c-0.257,0.669-0.707,1.358-1.323,2.086c-0.611,0.728-1.35,1.327-2.201,1.823c-0.849,0.478-1.831,0.818-2.957,1.001
			c-1.125,0.198-2.154,0.205-3.115,0.035c-0.929-0.173-1.728-0.509-2.379-1.008c-0.645-0.499-1.145-1.112-1.516-1.84
			c-0.512-1.015-0.763-2.19-0.763-3.538c0-1.133,0.181-2.228,0.558-3.271c0.371-1.057,0.893-1.968,1.528-2.741
			c0.655-0.783,1.364-1.403,2.147-1.875c1.008-0.6,2.123-1.005,3.34-1.203c1.062-0.19,2.049-0.197,2.99-0.038
			c0.926,0.156,1.699,0.499,2.301,0.998c0.604,0.513,1.052,1.133,1.383,1.878C67.011,121.016,67.16,121.667,67.235,122.44
			L67.235,122.44z"/>
		<polygon fill-rule="evenodd" clip-rule="evenodd" fill="#FFFFFF" points="68.266,131.335 68.266,116.653 74.089,115.659 
			76.676,124.384 79.241,114.782 85.089,113.788 85.089,128.477 80.708,129.222 80.708,120.985 78.334,129.62 74.974,130.192 
			72.612,122.357 72.612,130.594 68.266,131.335 		"/>
		<polygon fill-rule="evenodd" clip-rule="evenodd" fill="#ED1C24" points="19.784,54.561 87.571,41.39 87.571,48.129 
			19.784,61.291 19.784,54.561 		"/>
		<polygon fill-rule="evenodd" clip-rule="evenodd" fill="#FFE100" points="19.784,56.748 87.571,43.576 87.571,46.068 
			19.784,59.222 19.784,56.748 		"/>
		<polygon fill="#005CAB" points="51.169,11.666 48.261,9.85 50.072,6.942 52.979,8.765 51.169,11.666 		"/>
		<path fill="#005CAB" d="M59.163,32.467l-1.043-4.92c3.378-0.052,5.958-2.668,5.958-5.901c0-3.264-2.634-5.912-5.906-5.912
			c-0.96,0-1.826,0.246-2.616,0.641c-0.4,0.229-0.806,0.6-1.277,0.97c-0.576,0.461-1.238,1.462-1.488,1.875l-0.313,0.01
			l-0.304-0.256c-0.438-0.398-0.66-0.523-0.93-0.638c-0.587-0.253-1.395-0.458-2.391-0.704c-0.163-0.003-0.312-0.045-0.487-0.045
			c-3.257,0-5.903,2.651-5.903,5.915c0,3.271,2.646,5.915,5.903,5.915l0.392-0.024l1.291,6.082c-1.746,2.1-4.364,3.431-7.323,3.431
			c-5.248,0-9.518-4.249-9.518-9.512c0-3.784,2.211-7.058,5.42-8.59c1.182-4.276,5.099-7.419,9.739-7.419
			c1.145,0,2.225,0.187,3.254,0.537c1.771-1.497,4.064-2.398,6.553-2.398c3.147,0,5.981,1.445,7.835,3.718
			c4.598,0.676,8.135,4.626,8.135,9.418c0,5.26-4.27,9.522-9.521,9.522C62.591,34.182,60.703,33.552,59.163,32.467L59.163,32.467z
			 M68.218,20.425c0.048,0.398,0.082,0.804,0.082,1.22c0,3.556-1.848,6.688-4.636,8.5c0.322,0.045,0.629,0.08,0.956,0.08
			c3.07,0,5.561-2.499,5.561-5.565C70.181,22.955,69.418,21.444,68.218,20.425L68.218,20.425z M38.508,25.762
			c-0.84,0.974-1.341,2.252-1.341,3.631c0,3.074,2.486,5.559,5.557,5.559c1.467,0,2.808-0.565,3.803-1.5
			C42.558,32.716,39.401,29.677,38.508,25.762L38.508,25.762z"/>
		<path fill-rule="evenodd" clip-rule="evenodd" fill="#005CAB" d="M22.504,47.412c0.394,0.139,0.624,0.458,0.717,0.957l-0.53,0.104
			c-0.069-0.281-0.205-0.468-0.413-0.565c-0.19-0.086-0.466-0.107-0.768-0.042c-0.366,0.062-0.677,0.263-0.93,0.579
			c-0.251,0.333-0.381,0.766-0.381,1.31c0,0.475,0.109,0.842,0.322,1.098c0.206,0.256,0.546,0.343,1.012,0.243
			c0.354-0.062,0.659-0.215,0.893-0.471c0.241-0.256,0.357-0.62,0.357-1.078l-1.246,0.235v-0.457l1.752-0.322v2.124l-0.352,0.069
			l-0.125-0.482c-0.179,0.226-0.35,0.399-0.492,0.496c-0.232,0.191-0.534,0.312-0.892,0.375c-0.478,0.097-0.877,0.017-1.216-0.222
			c-0.369-0.315-0.558-0.808-0.558-1.466c0-0.676,0.189-1.234,0.546-1.695c0.333-0.447,0.785-0.714,1.322-0.817
			C21.888,47.308,22.22,47.326,22.504,47.412L22.504,47.412z"/>
		<polygon fill-rule="evenodd" clip-rule="evenodd" fill="#005CAB" points="23.812,47.055 26.725,46.498 26.725,46.99 
			24.345,47.447 24.345,48.643 26.533,48.23 26.533,48.691 24.345,49.11 24.345,50.451 26.754,49.994 26.754,50.469 23.812,51.03 
			23.812,47.055 		"/>
		<path fill-rule="evenodd" clip-rule="evenodd" fill="#005CAB" d="M27.467,49.055c0.003,0.222,0.057,0.395,0.154,0.52
			c0.173,0.225,0.49,0.294,0.949,0.208c0.19-0.031,0.383-0.093,0.549-0.187c0.32-0.17,0.478-0.398,0.478-0.7
			c0-0.205-0.061-0.354-0.203-0.419c-0.137-0.062-0.35-0.101-0.641-0.114l-0.534-0.011c-0.358-0.021-0.604-0.059-0.753-0.125
			c-0.25-0.114-0.376-0.343-0.376-0.676c0-0.35,0.126-0.672,0.367-0.942c0.25-0.281,0.603-0.461,1.059-0.541
			c0.411-0.087,0.77-0.056,1.052,0.097c0.296,0.149,0.426,0.44,0.426,0.877l-0.492,0.097c-0.021-0.201-0.083-0.36-0.175-0.458
			c-0.17-0.17-0.442-0.229-0.828-0.146c-0.321,0.052-0.551,0.159-0.691,0.326c-0.13,0.156-0.209,0.326-0.209,0.499
			c0,0.197,0.08,0.329,0.254,0.385c0.095,0.038,0.333,0.065,0.717,0.08l0.549,0.021c0.271,0.011,0.478,0.056,0.629,0.135
			c0.246,0.142,0.376,0.381,0.376,0.738c0,0.44-0.154,0.787-0.489,1.033c-0.317,0.25-0.683,0.422-1.107,0.495
			c-0.492,0.104-0.884,0.045-1.159-0.156c-0.279-0.194-0.424-0.506-0.412-0.949L27.467,49.055L27.467,49.055z"/>
		<polygon fill-rule="evenodd" clip-rule="evenodd" fill="#005CAB" points="33.344,45.233 33.344,45.718 31.998,45.978 
			31.998,49.471 31.462,49.582 31.462,46.078 30.125,46.328 30.125,45.853 33.344,45.233 		"/>
		<polygon fill-rule="evenodd" clip-rule="evenodd" fill="#005CAB" points="33.602,45.198 34.151,45.087 34.151,49.065 
			33.602,49.169 33.602,45.198 		"/>
		<path fill-rule="evenodd" clip-rule="evenodd" fill="#005CAB" d="M37.944,44.938c0.265,0.295,0.398,0.724,0.398,1.275
			c0,0.596-0.149,1.112-0.447,1.566c-0.369,0.533-0.87,0.855-1.526,0.984c-0.598,0.107-1.088,0-1.429-0.339
			c-0.321-0.33-0.463-0.794-0.463-1.386c0-0.541,0.126-1.033,0.392-1.452c0.341-0.558,0.851-0.904,1.525-1.025
			C37.089,44.422,37.613,44.546,37.944,44.938L37.944,44.938z M37.476,47.558c0.213-0.377,0.313-0.79,0.313-1.237
			c0-0.464-0.121-0.814-0.373-1.061c-0.241-0.232-0.577-0.315-1.003-0.232c-0.405,0.086-0.738,0.284-1,0.62
			c-0.262,0.329-0.385,0.766-0.385,1.32c0,0.44,0.113,0.787,0.338,1.053c0.213,0.253,0.577,0.34,1.074,0.246
			C36.917,48.175,37.263,47.942,37.476,47.558L37.476,47.558z M37.126,43.323l-0.721,0.915l-0.371,0.076l0.491-0.88L37.126,43.323
			L37.126,43.323z"/>
		<polygon fill-rule="evenodd" clip-rule="evenodd" fill="#005CAB" points="38.633,44.238 39.276,44.12 41.262,46.958 
			41.262,43.739 41.787,43.646 41.787,47.61 41.175,47.728 39.134,44.896 39.134,48.123 38.633,48.213 38.633,44.238 		"/>
		<path fill-rule="evenodd" clip-rule="evenodd" fill="#005CAB" d="M43.458,43.323l0.757-0.142l1.145,3.14l1.144-3.576l0.77-0.152
			v3.988l-0.517,0.087v-2.346c0-0.073,0-0.208,0-0.398s0-0.392,0-0.6l-1.126,3.566l-0.532,0.097l-1.145-3.136v0.121
			c0,0.097,0.009,0.243,0.009,0.444c0,0.197,0.003,0.343,0.003,0.44v2.35l-0.508,0.097V43.323L43.458,43.323z"/>
		<polygon fill-rule="evenodd" clip-rule="evenodd" fill="#005CAB" points="47.778,42.499 50.676,41.948 50.676,42.436 
			48.301,42.89 48.301,44.093 50.498,43.68 50.498,44.138 48.301,44.561 48.301,45.901 50.723,45.447 50.723,45.922 47.778,46.477 
			47.778,42.499 		"/>
		<path fill-rule="evenodd" clip-rule="evenodd" fill="#005CAB" d="M52.606,45.101c0.184-0.038,0.324-0.073,0.434-0.142
			c0.232-0.111,0.391-0.277,0.528-0.499c0.104-0.187,0.184-0.409,0.22-0.658c0.035-0.156,0.041-0.305,0.041-0.437
			c0-0.485-0.1-0.849-0.285-1.091c-0.201-0.232-0.513-0.305-0.938-0.225l-0.963,0.18v3.053L52.606,45.101L52.606,45.101z
			 M51.093,41.875L52.7,41.57c0.546-0.114,0.973,0.007,1.289,0.333c0.258,0.298,0.398,0.728,0.398,1.271
			c0,0.423-0.083,0.821-0.25,1.188c-0.281,0.666-0.757,1.046-1.438,1.175l-1.607,0.309V41.875L51.093,41.875z"/>
		<polygon fill-rule="evenodd" clip-rule="evenodd" fill="#005CAB" points="54.839,41.165 55.393,41.057 55.393,45.035 
			54.839,45.136 54.839,41.165 		"/>
		<path fill-rule="evenodd" clip-rule="evenodd" fill="#005CAB" d="M59.187,40.908c0.264,0.298,0.393,0.721,0.393,1.268
			c0,0.593-0.16,1.123-0.458,1.566c-0.351,0.53-0.866,0.863-1.509,0.98c-0.606,0.111-1.09,0-1.437-0.333
			c-0.309-0.336-0.475-0.793-0.475-1.386c0-0.537,0.134-1.029,0.396-1.462c0.352-0.544,0.855-0.894,1.525-1.019
			C58.321,40.392,58.851,40.517,59.187,40.908L59.187,40.908z M58.712,43.524c0.199-0.375,0.316-0.793,0.316-1.23
			c0-0.468-0.133-0.821-0.373-1.064c-0.252-0.232-0.577-0.309-1.002-0.232c-0.412,0.08-0.74,0.277-1.006,0.617
			c-0.264,0.326-0.38,0.769-0.38,1.32c0,0.437,0.104,0.79,0.327,1.054c0.223,0.26,0.584,0.336,1.085,0.243
			C58.157,44.141,58.495,43.902,58.712,43.524L58.712,43.524z"/>
		<path fill-rule="evenodd" clip-rule="evenodd" fill="#005CAB" d="M62.79,41.993l-0.599-1.636l-0.642,1.872L62.79,41.993
			L62.79,41.993z M61.896,39.82l0.616-0.118l1.441,3.705l-0.591,0.107l-0.402-1.109l-1.574,0.301l-0.423,1.268l-0.546,0.104
			L61.896,39.82L61.896,39.82z"/>
		<path fill-rule="evenodd" clip-rule="evenodd" fill="#005CAB" d="M64.078,39.411l0.78-0.156l1.133,3.15l1.127-3.573l0.775-0.146
			v3.975l-0.523,0.093v-2.349c0-0.083,0-0.211,0.016-0.402c0-0.191,0-0.385,0-0.6l-1.133,3.559l-0.529,0.114l-1.145-3.139v0.121
			c0,0.097,0,0.239,0,0.44c0,0.194,0,0.343,0,0.44v2.342l-0.501,0.101V39.411L64.078,39.411z"/>
		<path fill-rule="evenodd" clip-rule="evenodd" fill="#005CAB" d="M69.851,39.99c0.226-0.045,0.404-0.111,0.539-0.197
			c0.186-0.135,0.303-0.329,0.303-0.586c0-0.267-0.133-0.419-0.34-0.468c-0.104-0.031-0.289-0.021-0.52,0.024l-0.961,0.177v1.248
			L69.851,39.99L69.851,39.99z M70.03,41.788c0.322-0.062,0.562-0.201,0.713-0.422c0.084-0.135,0.125-0.284,0.125-0.458
			c0-0.291-0.125-0.464-0.383-0.517c-0.15-0.031-0.326-0.027-0.551,0.014l-1.062,0.211v1.396L70.03,41.788L70.03,41.788z
			 M68.339,38.593l1.713-0.319c0.467-0.086,0.791-0.017,0.998,0.226c0.109,0.138,0.168,0.315,0.168,0.537
			c0,0.25-0.074,0.468-0.213,0.662c-0.074,0.094-0.189,0.194-0.312,0.281c0.203,0.042,0.351,0.107,0.451,0.184
			c0.17,0.135,0.262,0.36,0.262,0.669c0,0.253-0.076,0.496-0.246,0.741c-0.229,0.35-0.607,0.586-1.133,0.679l-1.688,0.315V38.593
			L68.339,38.593z"/>
		<polygon fill-rule="evenodd" clip-rule="evenodd" fill="#005CAB" points="71.821,37.938 72.366,37.841 72.366,41.816 
			71.821,41.917 71.821,37.938 		"/>
		<polygon fill-rule="evenodd" clip-rule="evenodd" fill="#005CAB" points="72.93,37.724 75.841,37.173 75.841,37.658 
			73.464,38.112 73.464,39.321 75.655,38.902 75.655,39.37 73.464,39.771 73.464,41.126 75.87,40.669 75.87,41.14 72.93,41.698 
			72.93,37.724 		"/>
		<polygon fill-rule="evenodd" clip-rule="evenodd" fill="#005CAB" points="76.232,37.1 76.861,36.979 78.874,39.813 78.874,36.598 
			79.382,36.504 79.382,40.475 78.786,40.589 76.749,37.758 76.749,40.974 76.232,41.078 76.232,37.1 		"/>
		<polygon fill-rule="evenodd" clip-rule="evenodd" fill="#005CAB" points="82.772,35.853 82.772,36.324 81.432,36.583 
			81.432,40.087 80.882,40.194 80.882,36.698 79.542,36.94 79.542,36.466 82.772,35.853 		"/>
		<path fill-rule="evenodd" clip-rule="evenodd" fill="#005CAB" d="M84.544,37.866l-0.613-1.632l-0.641,1.875L84.544,37.866
			L84.544,37.866z M83.647,35.683l0.609-0.111l1.44,3.708l-0.581,0.107l-0.401-1.112l-1.571,0.295l-0.434,1.278l-0.549,0.097
			L83.647,35.683L83.647,35.683z"/>
		<polygon fill-rule="evenodd" clip-rule="evenodd" fill="#005CAB" points="85.849,35.274 86.389,35.17 86.389,38.677 
			88.388,38.285 88.388,38.763 85.849,39.252 85.849,35.274 		"/>
		<path fill="#005CAB" d="M22.73,148.831c0.208-0.606,0.3-1.271,0.296-2c-0.022-0.776-0.154-1.375-0.421-1.805
			c-0.258-0.437-0.619-0.613-1.067-0.537c-0.421,0.059-0.768,0.354-1.024,0.866c-0.26,0.502-0.384,1.227-0.365,2.131
			c0.007,0.728,0.131,1.324,0.384,1.781c0.237,0.464,0.622,0.655,1.147,0.579C22.172,149.76,22.529,149.427,22.73,148.831
			L22.73,148.831z M23.128,144.562c0.296,0.53,0.459,1.248,0.468,2.162c0.029,0.978-0.107,1.819-0.425,2.52
			c-0.346,0.828-0.868,1.286-1.547,1.393c-0.64,0.107-1.146-0.142-1.518-0.763c-0.343-0.585-0.53-1.375-0.542-2.363
			c-0.026-0.88,0.099-1.663,0.369-2.346c0.346-0.863,0.863-1.348,1.559-1.466C22.22,143.582,22.77,143.869,23.128,144.562
			L23.128,144.562z"/>
		<path fill="#005CAB" d="M29.764,148.422c0.118,0.118,0.23,0.163,0.398,0.142c0.167-0.035,0.343-0.122,0.497-0.284
			c0.279-0.256,0.423-0.645,0.418-1.133l-0.018-0.648c-0.066,0.083-0.14,0.135-0.241,0.198c-0.088,0.059-0.189,0.111-0.291,0.135
			l-0.29,0.107c-0.194,0.069-0.327,0.153-0.416,0.25c-0.154,0.167-0.232,0.402-0.226,0.71
			C29.598,148.131,29.662,148.305,29.764,148.422L29.764,148.422z M30.798,146.076c0.122-0.038,0.192-0.131,0.22-0.27
			c0.026-0.073,0.042-0.18,0.033-0.319c0-0.263-0.074-0.461-0.199-0.568c-0.121-0.097-0.298-0.139-0.534-0.097
			c-0.258,0.038-0.445,0.184-0.554,0.43c-0.054,0.135-0.078,0.33-0.102,0.579l-0.479,0.083c0-0.6,0.116-1.033,0.34-1.292
			c0.225-0.277,0.492-0.44,0.795-0.482c0.36-0.062,0.655,0,0.88,0.184c0.222,0.173,0.328,0.499,0.347,0.953l0.052,2.755
			c0.005,0.086,0.018,0.149,0.043,0.194c0.017,0.052,0.062,0.069,0.128,0.056c0,0,0.05-0.007,0.075-0.018
			c0.038-0.014,0.059-0.021,0.101-0.038v0.593c-0.075,0.055-0.125,0.08-0.175,0.101c-0.038,0.017-0.095,0.038-0.166,0.042
			c-0.182,0.024-0.3-0.052-0.388-0.236c-0.048-0.101-0.071-0.243-0.092-0.43c-0.104,0.232-0.244,0.44-0.444,0.627
			c-0.184,0.194-0.402,0.301-0.634,0.343c-0.274,0.042-0.508-0.052-0.679-0.298c-0.196-0.236-0.284-0.565-0.294-0.967
			c-0.019-0.443,0.074-0.797,0.235-1.078c0.175-0.267,0.388-0.454,0.688-0.554L30.798,146.076L30.798,146.076z"/>
		<path fill="#005CAB" d="M32.302,143.938l0.479-0.083l0.008,0.69c0.139-0.305,0.288-0.53,0.437-0.676
			c0.168-0.146,0.343-0.243,0.542-0.271c0.417-0.076,0.717,0.125,0.884,0.572c0.08,0.243,0.133,0.61,0.14,1.095l0.059,3.074
			l-0.517,0.083l-0.054-3.021c-0.008-0.295-0.046-0.527-0.1-0.697c-0.092-0.281-0.258-0.402-0.492-0.364
			c-0.137,0.01-0.224,0.059-0.303,0.104c-0.142,0.093-0.258,0.239-0.358,0.45c-0.087,0.173-0.128,0.34-0.149,0.51
			c-0.021,0.177-0.042,0.422-0.021,0.734l0.042,2.509l-0.513,0.083L32.302,143.938L32.302,143.938z"/>
		<path fill="#005CAB" d="M35.451,143.457l0.509-0.076l0.104,4.761l-0.52,0.083L35.451,143.457L35.451,143.457z M35.414,141.658
			l0.52-0.083l0.01,0.915l-0.513,0.076L35.414,141.658L35.414,141.658z"/>
		<path fill="#005CAB" d="M37.034,146.485c0.043,0.253,0.066,0.454,0.142,0.589c0.15,0.239,0.371,0.336,0.703,0.281
			c0.18-0.031,0.359-0.125,0.504-0.281c0.14-0.152,0.201-0.36,0.192-0.634c0-0.201-0.052-0.347-0.18-0.434
			c-0.078-0.055-0.215-0.114-0.44-0.159l-0.421-0.101c-0.272-0.055-0.457-0.142-0.58-0.246c-0.227-0.187-0.345-0.464-0.359-0.845
			c0-0.461,0.094-0.839,0.298-1.154c0.207-0.312,0.479-0.499,0.837-0.558c0.458-0.076,0.793,0.086,1.012,0.471
			c0.134,0.256,0.196,0.534,0.196,0.839l-0.478,0.086c-0.014-0.194-0.052-0.343-0.142-0.485c-0.109-0.184-0.326-0.256-0.622-0.211
			c-0.196,0.034-0.339,0.111-0.433,0.249c-0.099,0.128-0.163,0.288-0.151,0.475c0,0.204,0.077,0.364,0.215,0.468
			c0.078,0.073,0.173,0.107,0.331,0.149l0.343,0.076c0.383,0.076,0.632,0.173,0.771,0.281c0.199,0.173,0.294,0.485,0.317,0.932
			c0,0.423-0.093,0.807-0.296,1.157c-0.196,0.333-0.513,0.537-0.934,0.606c-0.454,0.076-0.781-0.042-0.974-0.329
			c-0.196-0.298-0.3-0.676-0.331-1.147L37.034,146.485L37.034,146.485z"/>
		<path fill="#005CAB" d="M39.5,142.792l0.501-0.08l0.029,0.676c0.112-0.25,0.224-0.443,0.313-0.568
			c0.161-0.208,0.357-0.326,0.562-0.364c0.241-0.042,0.437,0.028,0.579,0.184c0.083,0.101,0.17,0.25,0.243,0.444
			c0.107-0.271,0.237-0.489,0.392-0.634c0.146-0.146,0.315-0.232,0.504-0.267c0.411-0.062,0.695,0.121,0.847,0.564
			c0.08,0.239,0.125,0.568,0.135,0.991l0.069,3.185l-0.523,0.086l-0.08-3.326c0-0.322-0.05-0.52-0.151-0.631
			c-0.112-0.107-0.237-0.146-0.388-0.118c-0.196,0.027-0.366,0.166-0.494,0.395c-0.146,0.235-0.208,0.599-0.204,1.095l0.059,2.786
			l-0.518,0.086l-0.062-3.125c-0.012-0.322-0.038-0.558-0.08-0.696c-0.086-0.215-0.232-0.309-0.445-0.271
			c-0.195,0.028-0.369,0.177-0.523,0.433c-0.147,0.264-0.222,0.704-0.209,1.324l0.052,2.537l-0.5,0.083L39.5,142.792L39.5,142.792z"
			/>
		<path fill="#005CAB" d="M46.215,145.39c0.109-0.426,0.166-0.883,0.154-1.382c-0.007-0.444-0.067-0.801-0.154-1.064
			c-0.151-0.419-0.404-0.6-0.75-0.547c-0.303,0.052-0.52,0.273-0.658,0.676c-0.125,0.402-0.191,0.855-0.173,1.393
			c0.007,0.502,0.083,0.922,0.225,1.234c0.154,0.315,0.375,0.458,0.674,0.402C45.874,146.049,46.094,145.806,46.215,145.39
			L46.215,145.39z M46.453,142.147c0.289,0.374,0.43,0.96,0.437,1.757c0.035,0.769-0.078,1.431-0.302,1.968
			c-0.225,0.534-0.583,0.852-1.084,0.936c-0.421,0.062-0.75-0.111-1.005-0.517c-0.241-0.398-0.369-0.977-0.386-1.729
			c-0.021-0.814,0.095-1.473,0.345-1.982c0.237-0.523,0.584-0.814,1.008-0.88C45.856,141.627,46.191,141.783,46.453,142.147
			L46.453,142.147z"/>
		<path fill="#005CAB" d="M49.561,144.922c0.142,0.333,0.379,0.468,0.688,0.419c0.215-0.035,0.407-0.229,0.549-0.568
			c0.14-0.347,0.208-0.821,0.208-1.414c-0.019-0.61-0.116-1.043-0.267-1.313c-0.166-0.267-0.35-0.378-0.573-0.347
			c-0.267,0.045-0.468,0.229-0.617,0.565c-0.154,0.329-0.216,0.818-0.204,1.407C49.353,144.188,49.424,144.607,49.561,144.922
			L49.561,144.922z M50.637,141.163c0.086,0.069,0.196,0.201,0.301,0.419l-0.048-2.422l0.492-0.083l0.131,6.594l-0.448,0.076
			l-0.026-0.668c-0.107,0.312-0.244,0.558-0.392,0.707c-0.161,0.16-0.35,0.253-0.558,0.288c-0.324,0.056-0.633-0.125-0.884-0.534
			c-0.25-0.412-0.398-0.991-0.398-1.732c-0.018-0.7,0.074-1.32,0.303-1.868c0.196-0.551,0.525-0.853,0.937-0.922
			C50.274,140.982,50.463,141.028,50.637,141.163L50.637,141.163z"/>
		<path fill="#005CAB" d="M54.214,142.455c-0.029-0.35-0.079-0.613-0.162-0.811c-0.143-0.368-0.379-0.52-0.709-0.479
			c-0.225,0.042-0.428,0.198-0.562,0.502c-0.154,0.281-0.238,0.645-0.238,1.05L54.214,142.455L54.214,142.455z M53.989,140.594
			c0.203,0.139,0.354,0.319,0.475,0.558c0.101,0.211,0.176,0.502,0.221,0.814c0.037,0.215,0.037,0.564,0.053,1.04l-2.195,0.354
			c0.026,0.492,0.105,0.866,0.248,1.136c0.125,0.277,0.357,0.398,0.629,0.354c0.266-0.045,0.475-0.218,0.633-0.527
			c0.083-0.176,0.133-0.374,0.17-0.585l0.5-0.083c-0.006,0.177-0.045,0.388-0.125,0.61c-0.074,0.229-0.145,0.419-0.242,0.568
			c-0.141,0.26-0.332,0.457-0.551,0.572c-0.131,0.073-0.253,0.111-0.414,0.146c-0.385,0.052-0.689-0.115-0.96-0.51
			c-0.275-0.384-0.423-0.97-0.433-1.76c-0.013-0.766,0.109-1.414,0.363-1.93c0.246-0.517,0.582-0.814,1.004-0.891
			C53.581,140.432,53.788,140.473,53.989,140.594L53.989,140.594z"/>
		<path fill="#005CAB" d="M59.804,138.242c0.293,0.392,0.451,0.863,0.504,1.417l-0.555,0.087c-0.065-0.416-0.187-0.731-0.373-0.953
			c-0.193-0.208-0.451-0.301-0.775-0.246c-0.408,0.066-0.726,0.34-0.959,0.835c-0.241,0.499-0.351,1.212-0.328,2.155
			c0.012,0.766,0.141,1.375,0.369,1.823c0.227,0.447,0.568,0.63,1.014,0.558c0.41-0.066,0.712-0.371,0.908-0.911
			c0.115-0.274,0.17-0.641,0.236-1.085l0.55-0.08c-0.048,0.7-0.19,1.299-0.452,1.812c-0.313,0.613-0.746,0.963-1.313,1.057
			c-0.457,0.073-0.866-0.093-1.198-0.502c-0.425-0.541-0.668-1.458-0.693-2.734c-0.021-0.967,0.117-1.792,0.441-2.46
			c0.326-0.731,0.792-1.144,1.4-1.24C59.092,137.69,59.503,137.85,59.804,138.242L59.804,138.242z"/>
		<path fill="#005CAB" d="M63.022,141.048c-0.023-0.35-0.078-0.617-0.148-0.811c-0.154-0.371-0.389-0.533-0.713-0.471
			c-0.219,0.028-0.42,0.201-0.572,0.492c-0.145,0.291-0.226,0.645-0.226,1.05L63.022,141.048L63.022,141.048z M62.803,139.191
			c0.21,0.132,0.368,0.312,0.479,0.555c0.1,0.222,0.17,0.492,0.215,0.811c0.031,0.208,0.051,0.568,0.08,1.043l-2.214,0.35
			c0.022,0.492,0.099,0.87,0.241,1.14c0.137,0.271,0.35,0.392,0.632,0.347c0.263-0.038,0.472-0.222,0.622-0.517
			c0.086-0.18,0.141-0.377,0.177-0.596l0.493-0.076c0,0.173-0.037,0.374-0.105,0.61c-0.074,0.225-0.16,0.416-0.244,0.572
			c-0.156,0.256-0.343,0.45-0.566,0.564c-0.113,0.076-0.255,0.122-0.408,0.139c-0.375,0.062-0.695-0.101-0.955-0.496
			c-0.279-0.388-0.416-0.98-0.434-1.764c-0.01-0.769,0.104-1.414,0.347-1.934c0.259-0.52,0.597-0.814,1.029-0.883
			C62.399,139.018,62.603,139.073,62.803,139.191L62.803,139.191z"/>
		<path fill="#005CAB" d="M64.12,138.852l0.459-0.073l0.027,0.828c0.037-0.17,0.139-0.378,0.271-0.631
			c0.159-0.26,0.338-0.405,0.538-0.44h0.045c0,0,0.06,0,0.117,0l0.018,0.846c-0.03-0.003-0.06-0.007-0.06-0.007
			c-0.065,0.007-0.075,0.007-0.112,0.011c-0.244,0.042-0.445,0.208-0.579,0.488c-0.121,0.288-0.19,0.593-0.19,0.936l0.069,2.755
			l-0.508,0.08L64.12,138.852L64.12,138.852z"/>
		<path fill="#005CAB" d="M66.036,137.209l0.516-0.086l0.026,1.341l0.478-0.076l0.021,0.655l-0.49,0.073l0.064,3.133
			c0,0.166,0.041,0.267,0.112,0.318c0.038,0.024,0.105,0.028,0.206,0.021c0.02-0.007,0.049-0.017,0.049-0.017
			c0.059-0.007,0.083-0.021,0.121-0.039l0.021,0.641c-0.062,0.035-0.134,0.062-0.179,0.09c-0.076,0.017-0.139,0.042-0.204,0.052
			c-0.246,0.035-0.412-0.035-0.495-0.211c-0.084-0.184-0.137-0.43-0.143-0.734l-0.062-3.171l-0.408,0.066l-0.016-0.651l0.416-0.069
			L66.036,137.209L66.036,137.209z"/>
		<path fill="#005CAB" d="M67.511,138.332l0.516-0.073l0.098,4.754l-0.531,0.09L67.511,138.332L67.511,138.332z M67.472,136.533
			l0.514-0.083l0.025,0.918l-0.513,0.083L67.472,136.533L67.472,136.533z"/>
		<path fill="#005CAB" d="M68.943,136.616c0.108-0.294,0.333-0.464,0.675-0.516c0.033-0.014,0.072-0.014,0.072-0.014
			c0.057-0.003,0.112-0.003,0.143-0.011l0.018,0.738c-0.041,0.003-0.086,0.003-0.086,0.003c-0.059,0-0.074,0.007-0.074,0.007
			c-0.178,0.035-0.272,0.104-0.305,0.236c-0.016,0.131-0.033,0.461-0.016,0.98l0.502-0.086l0.014,0.638l-0.504,0.08l0.078,4.134
			l-0.5,0.083l-0.082-4.144l-0.418,0.073l-0.024-0.624l0.425-0.073l-0.018-0.752C68.843,137.032,68.878,136.779,68.943,136.616
			L68.943,136.616z"/>
		<path fill="#005CAB" d="M70.29,137.885l0.51-0.076l0.096,4.771l-0.506,0.076L70.29,137.885L70.29,137.885z M70.255,136.086
			l0.51-0.087l0.012,0.925l-0.517,0.076L70.255,136.086L70.255,136.086z"/>
		<path fill="#005CAB" d="M73.501,137.607c0.232,0.225,0.357,0.658,0.414,1.296l-0.49,0.08c-0.032-0.291-0.108-0.526-0.225-0.7
			c-0.096-0.184-0.271-0.256-0.52-0.218c-0.314,0.055-0.546,0.336-0.671,0.866c-0.093,0.333-0.112,0.742-0.112,1.223
			c0.012,0.478,0.086,0.874,0.225,1.171c0.129,0.319,0.333,0.447,0.604,0.398c0.204-0.024,0.379-0.152,0.5-0.388
			c0.117-0.222,0.183-0.502,0.238-0.87l0.49-0.08c-0.055,0.645-0.186,1.133-0.404,1.466c-0.207,0.322-0.5,0.516-0.857,0.579
			c-0.389,0.062-0.709-0.118-0.955-0.534c-0.24-0.423-0.37-0.974-0.386-1.66c-0.016-0.852,0.107-1.521,0.341-2.03
			c0.25-0.506,0.574-0.797,0.988-0.856C73.008,137.299,73.294,137.375,73.501,137.607L73.501,137.607z"/>
		<path fill="#005CAB" d="M74.974,141.197c0.113,0.118,0.227,0.167,0.393,0.139c0.176-0.028,0.343-0.125,0.497-0.277
			c0.282-0.263,0.421-0.641,0.411-1.136l-0.016-0.645c-0.051,0.073-0.138,0.142-0.229,0.184c-0.092,0.069-0.204,0.114-0.296,0.146
			l-0.297,0.114c-0.195,0.062-0.32,0.146-0.42,0.246c-0.158,0.163-0.221,0.402-0.221,0.707
			C74.805,140.913,74.858,141.083,74.974,141.197L74.974,141.197z M75.991,138.852c0.116-0.042,0.192-0.132,0.241-0.267
			c0.017-0.076,0.026-0.184,0.026-0.319c-0.01-0.273-0.075-0.464-0.199-0.564c-0.122-0.107-0.309-0.153-0.527-0.107
			c-0.273,0.038-0.465,0.184-0.564,0.433c-0.068,0.139-0.092,0.333-0.109,0.585l-0.475,0.069c0-0.596,0.115-1.022,0.342-1.289
			c0.221-0.27,0.49-0.426,0.807-0.485c0.35-0.049,0.635,0.017,0.868,0.194c0.216,0.177,0.333,0.492,0.349,0.949l0.051,2.755
			c0,0.087,0.008,0.153,0.039,0.198c0.022,0.048,0.061,0.069,0.135,0.055c0,0,0.041-0.01,0.076-0.024
			c0.029-0.003,0.049-0.018,0.09-0.028l0.023,0.592c-0.084,0.056-0.151,0.077-0.189,0.101c-0.036,0.014-0.102,0.024-0.174,0.031
			c-0.171,0.035-0.301-0.048-0.371-0.229c-0.055-0.097-0.084-0.246-0.113-0.43c-0.096,0.232-0.237,0.433-0.423,0.627
			c-0.2,0.198-0.401,0.309-0.651,0.34c-0.268,0.042-0.504-0.049-0.683-0.294c-0.184-0.243-0.274-0.562-0.3-0.974
			c0-0.44,0.074-0.797,0.255-1.067c0.169-0.271,0.386-0.468,0.679-0.562L75.991,138.852L75.991,138.852z"/>
		<path fill="#005CAB" d="M79.495,136.647c0.221,0.232,0.358,0.662,0.42,1.296l-0.5,0.077c-0.041-0.288-0.116-0.52-0.215-0.7
			c-0.109-0.177-0.284-0.246-0.525-0.211c-0.334,0.052-0.556,0.347-0.681,0.863c-0.077,0.343-0.128,0.749-0.112,1.22
			c0.01,0.482,0.076,0.884,0.219,1.178c0.137,0.319,0.332,0.44,0.611,0.395c0.213-0.031,0.379-0.152,0.488-0.377
			c0.125-0.222,0.208-0.52,0.248-0.884l0.494-0.069c-0.047,0.641-0.178,1.126-0.4,1.459c-0.217,0.322-0.502,0.523-0.858,0.582
			c-0.384,0.059-0.708-0.121-0.956-0.541c-0.25-0.423-0.375-0.98-0.395-1.656c-0.016-0.842,0.108-1.528,0.341-2.024
			c0.26-0.513,0.584-0.793,0.983-0.863C79.005,136.336,79.278,136.422,79.495,136.647L79.495,136.647z"/>
		<path fill="#005CAB" d="M80.333,136.287l0.517-0.086l0.09,4.765l-0.52,0.086L80.333,136.287L80.333,136.287z M80.295,134.482
			l0.513-0.087l0.016,0.922l-0.51,0.08L80.295,134.482L80.295,134.482z"/>
		<path fill="#005CAB" d="M83.323,133.848l-0.715,1.411l-0.402,0.069l0.488-1.375L83.323,133.848L83.323,133.848z M83.497,139.427
			c0.117-0.413,0.177-0.88,0.15-1.372c0-0.454-0.049-0.801-0.15-1.071c-0.141-0.419-0.398-0.61-0.734-0.548
			c-0.305,0.052-0.531,0.274-0.655,0.672c-0.142,0.398-0.196,0.863-0.188,1.386c0.012,0.52,0.088,0.929,0.23,1.237
			c0.148,0.322,0.369,0.464,0.682,0.413C83.161,140.085,83.384,139.853,83.497,139.427L83.497,139.427z M83.753,136.197
			c0.271,0.36,0.422,0.953,0.443,1.746c0.01,0.773-0.107,1.431-0.318,1.972c-0.23,0.541-0.596,0.849-1.088,0.929
			c-0.404,0.069-0.75-0.097-1-0.513c-0.236-0.405-0.379-0.98-0.391-1.732c-0.027-0.797,0.092-1.469,0.357-1.982
			c0.232-0.516,0.576-0.811,1.006-0.883C83.147,135.681,83.475,135.826,83.753,136.197L83.753,136.197z"/>
		<path fill="#005CAB" d="M84.706,135.553l0.479-0.073l0.022,0.686c0.132-0.302,0.282-0.523,0.44-0.683
			c0.159-0.139,0.343-0.229,0.527-0.264c0.43-0.065,0.738,0.125,0.881,0.576c0.086,0.246,0.133,0.613,0.15,1.091l0.066,3.067
			l-0.521,0.08l-0.058-3.015c-0.014-0.291-0.038-0.523-0.104-0.693c-0.083-0.281-0.261-0.398-0.487-0.357
			c-0.123,0.007-0.23,0.045-0.296,0.094c-0.142,0.09-0.264,0.239-0.358,0.451c-0.092,0.18-0.134,0.346-0.166,0.52
			c-0.018,0.177-0.018,0.423-0.018,0.735l0.055,2.509l-0.513,0.083L84.706,135.553L84.706,135.553z"/>
		<path fill="#005CAB" d="M24.13,145.248l0.49-0.083l0.01,0.828c0.04-0.167,0.128-0.371,0.274-0.638
			c0.159-0.25,0.333-0.395,0.537-0.433l0.017-0.003c0.042,0,0.087,0,0.141,0l0.017,0.859c-0.029-0.01-0.059-0.01-0.059-0.01
			c-0.058,0.01-0.075,0.01-0.075,0.01c-0.294,0.031-0.487,0.205-0.629,0.485c-0.125,0.28-0.175,0.592-0.175,0.939l0.05,2.748
			l-0.516,0.083L24.13,145.248L24.13,145.248z"/>
		<path fill="#005CAB" d="M27.749,145.727c-0.163-0.253-0.354-0.371-0.596-0.336c-0.357,0.056-0.6,0.357-0.716,0.908
			c-0.067,0.294-0.093,0.683-0.083,1.133c0.012,0.537,0.083,0.939,0.232,1.196c0.142,0.267,0.326,0.377,0.56,0.339
			c0.369-0.059,0.606-0.357,0.757-0.911c0.071-0.298,0.101-0.655,0.101-1.05C27.99,146.406,27.903,145.99,27.749,145.727
			L27.749,145.727z M27.678,144.871c0.074,0.09,0.184,0.222,0.296,0.409l-0.017-0.606l0.471-0.066l0.088,4.353
			c0,0.603-0.038,1.095-0.139,1.466c-0.211,0.683-0.591,1.074-1.175,1.164c-0.333,0.056-0.603-0.014-0.833-0.218
			c-0.217-0.19-0.347-0.527-0.392-1.022l0.525-0.077c0.029,0.201,0.075,0.357,0.149,0.464c0.118,0.156,0.305,0.226,0.551,0.184
			c0.383-0.059,0.633-0.319,0.745-0.773c0.056-0.274,0.088-0.721,0.068-1.383c-0.104,0.253-0.208,0.451-0.35,0.6
			c-0.142,0.146-0.334,0.236-0.566,0.267c-0.33,0.048-0.612-0.083-0.872-0.416c-0.25-0.326-0.381-0.918-0.404-1.764
			c-0.012-0.811,0.097-1.452,0.338-1.944c0.243-0.496,0.528-0.766,0.882-0.814C27.271,144.656,27.486,144.714,27.678,144.871
			L27.678,144.871z"/>
	</g>
</g>
</svg>
