<?xml version="1.0" encoding="utf-8"?>
<!-- Generator: Adobe Illustrator 16.0.0, SVG Export Plug-In . SVG Version: 6.00 Build 0)  -->
<!DOCTYPE svg PUBLIC "-//W3C//DTD SVG 1.1//EN" "http://www.w3.org/Graphics/SVG/1.1/DTD/svg11.dtd">
<svg version="1.1" id="Layer_1" xmlns="http://www.w3.org/2000/svg" xmlns:xlink="http://www.w3.org/1999/xlink" x="0px" y="0px"
	 width="110.5px" height="158.546px" viewBox="0 0 110.5 158.546" enable-background="new 0 0 110.5 158.546" xml:space="preserve">
<g>
	<g>
		<defs>
			<rect id="SVGID_9_" x="21.827" y="4.544" width="69.611" height="143.458"/>
		</defs>
		<clipPath id="SVGID_2_">
			<use xlink:href="#SVGID_9_"  overflow="visible"/>
		</clipPath>
	</g>
	<g>
		<defs>
			<rect id="SVGID_11_" x="21.827" y="4.544" width="69.611" height="143.458"/>
		</defs>
		<clipPath id="SVGID_4_">
			<use xlink:href="#SVGID_11_"  overflow="visible"/>
		</clipPath>
	</g>
	<g>
		
			<path fill-rule="evenodd" clip-rule="evenodd" fill="#005CAB" stroke="#FFFFFF" stroke-width="5" stroke-linecap="round" stroke-linejoin="round" stroke-miterlimit="10" d="
			M21.827,120.485l60.705-9.723c4.987-1.092,6.952-2.388,8.906-8.043c0,9.997,0,15.244,0,15.244
			c-0.105,4.771-1.312,8.68-6.721,9.917c-7.414,1.157-62.891,10.146-62.891,10.146V120.485L21.827,120.485z"/>
		
			<path fill="#005CAB" stroke="#FFFFFF" stroke-width="5" stroke-linecap="round" stroke-linejoin="round" stroke-miterlimit="10" d="
			M26.116,109.123c1.359-1.227,2.199-2.096,2.516-2.633c0.326-0.551,0.492-1.099,0.492-1.67c0-0.634-0.191-1.109-0.54-1.441
			c-0.353-0.329-0.868-0.44-1.507-0.347c-0.565,0.087-1.04,0.329-1.414,0.707c-0.38,0.381-0.639,0.863-0.791,1.438
			c-0.131,0.426-0.188,1.033-0.191,1.816l-2.497,0.398v5.621c0.272-0.326,0.575-0.666,0.913-1.022
			C23.755,111.285,24.772,110.329,26.116,109.123L26.116,109.123z"/>
		
			<path fill="#005CAB" stroke="#FFFFFF" stroke-width="5" stroke-linecap="round" stroke-linejoin="round" stroke-miterlimit="10" d="
			M74.644,77.559c0.603,0.447,1.263,0.593,2.012,0.464c0.736-0.125,1.408-0.509,2.016-1.147c0.617-0.634,1.087-1.711,1.424-3.198
			c0.455-1.958,0.68-4.397,0.691-7.308c0.01-2.207-0.15-4.037-0.462-5.482c-0.309-1.462-0.77-2.425-1.396-2.883
			c-0.633-0.461-1.351-0.627-2.165-0.489c-1.144,0.198-2.01,0.884-2.625,2.059c-0.96,1.864-1.444,4.761-1.457,8.708
			c-0.017,2.827,0.186,5.062,0.591,6.705C73.585,76.249,74.03,77.112,74.644,77.559L74.644,77.559z"/>
		
			<path fill="#005CAB" stroke="#FFFFFF" stroke-width="5" stroke-linecap="round" stroke-linejoin="round" stroke-miterlimit="10" d="
			M90.884,47.575l-10.347,2.089c0.739,0.104,1.443,0.271,2.06,0.551c1.52,0.676,2.762,1.802,3.757,3.42
			c1.007,1.583,1.726,3.417,2.161,5.489c0.438,2.072,0.645,4.279,0.641,6.611c-0.007,3.562-0.504,6.844-1.453,9.821
			c-0.95,2.977-2.393,5.34-4.322,7.11c-1.903,1.753-4.168,2.862-6.758,3.306c-3.708,0.627-6.595-0.291-8.707-2.765
			c-2.429-2.89-3.633-7.229-3.609-13.008c0.012-3.115,0.418-6.175,1.23-9.176c0.799-3.004,2.152-5.496,4.064-7.478
			c0.872-0.915,1.865-1.656,2.955-2.259l-13.774,2.783c0.061,0.038,0.128,0.069,0.202,0.114c0.883,0.565,1.617,1.268,2.182,2.107
			c0.568,0.838,1.01,1.719,1.297,2.644c0.325,0.904,0.57,1.996,0.758,3.257l-9.117,1.569c-0.215-0.998-0.617-1.691-1.213-2.086
			c-0.601-0.426-1.449-0.541-2.566-0.347c-1.09,0.184-1.918,0.6-2.496,1.227c-0.439,0.492-0.652,1.063-0.652,1.705
			c-0.012,0.551,0.145,0.974,0.479,1.261c0.449,0.416,1.538,0.731,3.241,0.939l3.72,0.457c3.444,0.43,5.873,1.442,7.251,3.06
			c1.384,1.625,2.075,3.649,2.067,6.095c-0.011,1.951-0.371,3.798-1.107,5.537c-0.717,1.719-1.6,3.129-2.658,4.238
			c-1.047,1.109-2.408,2.076-4.074,2.897c-1.684,0.845-3.439,1.41-5.27,1.729c-2.02,0.343-3.918,0.357-5.686,0.024
			c-1.775-0.343-3.24-0.998-4.391-1.992c-1.137-0.991-1.991-2.214-2.591-3.68c-0.409-1.04-0.692-2.349-0.839-3.957l9.22-1.577
			c0.208,1.088,0.661,1.875,1.379,2.349c0.716,0.482,1.795,0.6,3.278,0.343c1.281-0.222,2.216-0.634,2.795-1.265
			c0.412-0.451,0.611-1.033,0.625-1.736c0-0.71-0.205-1.261-0.572-1.628c-0.383-0.378-1.424-0.679-3.147-0.884l-3.346-0.43
			c-1.747-0.211-3.386-0.631-4.919-1.261c-1.527-0.638-2.684-1.598-3.449-2.869c-0.783-1.292-1.16-2.945-1.154-4.966
			c0.009-1.985,0.367-3.822,1.076-5.482c0.645-1.528,1.495-2.831,2.535-3.933l-6.369,1.3L35.14,92.178l-9.581,1.629l0.109-33.037
			l-3.442,0.696l-0.033,40.058c1.233-1.462,2.921-2.356,5.103-2.699c1.013-0.156,1.954-0.17,2.806-0.018
			c0.881,0.142,1.594,0.433,2.147,0.874c0.56,0.433,1.001,0.991,1.325,1.681c0.342,0.668,0.492,1.486,0.492,2.45
			c0,0.772-0.1,1.473-0.338,2.104c-0.221,0.624-0.542,1.233-0.972,1.795c-0.415,0.554-1.241,1.358-2.448,2.408
			c-0.207,0.19-1.566,1.303-4.058,3.354l7.798-1.209v3.507c0.072-0.011,0.143-0.014,0.212-0.028c0.044-0.517,0.118-1.029,0.239-1.49
			c0.215-0.734,0.531-1.448,0.961-2.114c0.413-0.679,1.054-1.462,1.913-2.374c0.662-0.707,1.674-1.653,3.023-2.862
			c1.358-1.227,2.2-2.1,2.517-2.641c0.325-0.537,0.475-1.091,0.486-1.663c0-0.634-0.191-1.109-0.541-1.448
			c-0.361-0.319-0.863-0.44-1.504-0.336c-0.573,0.087-1.032,0.322-1.424,0.7c-0.376,0.392-0.622,0.87-0.783,1.441
			c-0.116,0.43-0.177,1.033-0.184,1.812l-4.465,0.7c0-2.488,0.619-4.501,1.849-6.029c1.226-1.542,2.966-2.492,5.229-2.841
			c1.01-0.16,1.952-0.16,2.812-0.018c0.859,0.146,1.58,0.437,2.147,0.884c0.549,0.419,0.982,0.987,1.308,1.677
			c0.333,0.668,0.508,1.483,0.508,2.45c0,0.773-0.121,1.462-0.35,2.1c-0.217,0.637-0.541,1.23-0.979,1.795
			c-0.404,0.558-1.223,1.362-2.432,2.412c-0.203,0.184-1.562,1.299-4.056,3.358l7.792-1.22v3.663
			c1.031-0.156,2.094-0.302,3.141-0.468c-0.376-0.226-0.727-0.513-1.041-0.846c-1.438-1.559-2.15-3.895-2.15-7
			c0-1.67,0.225-3.32,0.695-4.931c0.455-1.611,1.258-2.949,2.38-4.02c1.116-1.078,2.558-1.753,4.31-2.023
			c1.312-0.211,2.41-0.128,3.303,0.246c0.888,0.36,1.619,0.978,2.199,1.84c0.602,0.849,1.018,1.833,1.284,2.952
			c0.108,0.479,0.188,0.981,0.249,1.483c0.123-0.901,0.302-1.806,0.551-2.7c0.467-1.615,1.25-2.956,2.376-4.023
			c1.133-1.081,2.563-1.75,4.326-2.024c1.305-0.204,2.403-0.121,3.296,0.25c0.892,0.364,1.619,0.974,2.199,1.837
			c0.6,0.849,1.021,1.836,1.285,2.952c0.111,0.485,0.185,0.977,0.26,1.487c0.097-0.908,0.275-1.809,0.538-2.703
			c0.454-1.611,1.259-2.952,2.379-4.02c1.12-1.084,2.56-1.753,4.31-2.023c1.31-0.208,2.411-0.125,3.295,0.246
			c0.889,0.364,1.636,0.981,2.223,1.84c0.496,0.717,0.873,1.545,1.132,2.457c0.122-1.053,0.177-2.131,0.216-3.226L90.884,47.575
			L90.884,47.575z"/>
		
			<path fill="#005CAB" stroke="#FFFFFF" stroke-width="5" stroke-linecap="round" stroke-linejoin="round" stroke-miterlimit="10" d="
			M62.683,105.315c-0.128,1.029-0.358,2.027-0.666,2.966c-0.543,1.556-1.362,2.813-2.449,3.746c2.166-0.326,4.278-0.651,6.277-0.96
			c-0.421-0.242-0.791-0.537-1.137-0.911C63.62,108.981,62.94,107.356,62.683,105.315L62.683,105.315z"/>
		
			<path fill="#005CAB" stroke="#FFFFFF" stroke-width="5" stroke-linecap="round" stroke-linejoin="round" stroke-miterlimit="10" d="
			M71.097,96.617c-0.362-0.246-0.773-0.339-1.266-0.267c-0.658,0.104-1.183,0.475-1.533,1.112c-0.558,0.991-0.836,2.554-0.836,4.671
			c0,1.518,0.121,2.72,0.365,3.604c0.172,0.689,0.438,1.147,0.804,1.393c0.351,0.225,0.745,0.315,1.185,0.246
			c0.427-0.069,0.818-0.273,1.179-0.617c0.362-0.346,0.629-0.915,0.828-1.715c0.255-1.063,0.385-2.367,0.385-3.926
			c0-1.192-0.091-2.176-0.286-2.949C71.739,97.387,71.472,96.867,71.097,96.617L71.097,96.617z"/>
		
			<path fill="#005CAB" stroke="#FFFFFF" stroke-width="5" stroke-linecap="round" stroke-linejoin="round" stroke-miterlimit="10" d="
			M56.827,98.832c-0.377-0.25-0.792-0.333-1.268-0.253c-0.666,0.101-1.188,0.471-1.536,1.102c-0.563,0.998-0.842,2.557-0.842,4.678
			c0,1.528,0.128,2.727,0.362,3.607c0.187,0.676,0.445,1.144,0.807,1.386c0.359,0.232,0.747,0.315,1.172,0.246
			c0.445-0.059,0.84-0.277,1.187-0.617c0.358-0.347,0.634-0.915,0.833-1.712c0.255-1.063,0.389-2.37,0.389-3.926
			c0-1.199-0.092-2.173-0.284-2.949C57.468,99.608,57.188,99.088,56.827,98.832L56.827,98.832z"/>
		
			<path fill="#005CAB" stroke="#FFFFFF" stroke-width="5" stroke-linecap="round" stroke-linejoin="round" stroke-miterlimit="10" d="
			M76.958,103.076c-0.129,1.043-0.346,2.041-0.671,2.98c-0.532,1.552-1.345,2.792-2.437,3.735c2.62-0.44,4.729-0.808,6.058-1.081
			c-0.329-0.222-0.643-0.479-0.925-0.776C77.896,106.76,77.225,105.145,76.958,103.076L76.958,103.076z"/>
		
			<path fill="#005CAB" stroke="#FFFFFF" stroke-width="5" stroke-linecap="round" stroke-linejoin="round" stroke-miterlimit="10" d="
			M85.382,94.389c-0.365-0.25-0.787-0.329-1.266-0.26c-0.682,0.104-1.178,0.471-1.549,1.105c-0.551,0.998-0.83,2.557-0.83,4.678
			c0,1.521,0.117,2.724,0.371,3.611c0.178,0.679,0.445,1.147,0.805,1.382c0.352,0.239,0.754,0.319,1.174,0.246
			c0.436-0.065,0.841-0.267,1.176-0.613c0.381-0.346,0.641-0.918,0.84-1.719c0.262-1.053,0.389-2.367,0.389-3.919
			c0-1.192-0.098-2.18-0.279-2.959C86.026,95.148,85.751,94.642,85.382,94.389L85.382,94.389z"/>
		
			<path fill="#FFFFFF" stroke="#FFFFFF" stroke-width="5" stroke-linecap="round" stroke-linejoin="round" stroke-miterlimit="10" d="
			M26.25,113.472c2.491-2.052,3.851-3.164,4.058-3.354c1.207-1.05,2.033-1.854,2.448-2.408c0.43-0.562,0.751-1.171,0.972-1.795
			c0.238-0.631,0.338-1.331,0.338-2.104c0-0.963-0.15-1.781-0.492-2.45c-0.324-0.69-0.766-1.248-1.325-1.681
			c-0.554-0.44-1.267-0.731-2.147-0.874c-0.852-0.152-1.793-0.139-2.806,0.018c-2.182,0.343-3.869,1.237-5.103,2.699l-0.009,5.867
			l2.497-0.398c0.003-0.783,0.061-1.39,0.191-1.816c0.152-0.575,0.411-1.057,0.791-1.438c0.374-0.378,0.849-0.62,1.414-0.707
			c0.639-0.093,1.154,0.018,1.507,0.347c0.349,0.333,0.54,0.807,0.54,1.441c0,0.572-0.166,1.119-0.492,1.67
			c-0.316,0.537-1.156,1.407-2.516,2.633c-1.344,1.206-2.361,2.162-3.02,2.866c-0.338,0.357-0.641,0.697-0.913,1.022v4.446
			c0,0,4.894-0.679,11.864-1.688v-3.507L26.25,113.472L26.25,113.472z"/>
		
			<path fill="#FFFFFF" stroke="#FFFFFF" stroke-width="5" stroke-linecap="round" stroke-linejoin="round" stroke-miterlimit="10" d="
			M40.537,111.254c2.493-2.059,3.853-3.174,4.056-3.358c1.209-1.05,2.027-1.854,2.432-2.412c0.438-0.565,0.762-1.158,0.979-1.795
			c0.229-0.638,0.35-1.327,0.35-2.1c0-0.967-0.175-1.781-0.508-2.45c-0.325-0.69-0.759-1.258-1.308-1.677
			c-0.567-0.447-1.288-0.738-2.147-0.884c-0.86-0.142-1.803-0.142-2.812,0.018c-2.264,0.35-4.004,1.299-5.229,2.841
			c-1.229,1.528-1.849,3.542-1.849,6.029l4.465-0.7c0.007-0.78,0.067-1.383,0.184-1.812c0.161-0.572,0.407-1.05,0.783-1.441
			c0.392-0.378,0.851-0.613,1.424-0.7c0.641-0.104,1.143,0.018,1.504,0.336c0.35,0.339,0.541,0.814,0.541,1.448
			c-0.012,0.572-0.161,1.126-0.486,1.663c-0.316,0.541-1.158,1.414-2.517,2.641c-1.35,1.209-2.361,2.155-3.023,2.862
			c-0.859,0.911-1.5,1.694-1.913,2.374c-0.43,0.666-0.746,1.379-0.961,2.114c-0.121,0.461-0.195,0.974-0.239,1.49
			c4.153-0.593,9.037-1.307,14.069-2.044v-3.663L40.537,111.254L40.537,111.254z"/>
		
			<path fill="#FFFFFF" stroke="#FFFFFF" stroke-width="5" stroke-linecap="round" stroke-linejoin="round" stroke-miterlimit="10" d="
			M57.542,107.269c-0.199,0.797-0.475,1.365-0.833,1.712c-0.347,0.34-0.741,0.558-1.187,0.617c-0.425,0.069-0.812-0.014-1.172-0.246
			c-0.361-0.243-0.62-0.71-0.807-1.386c-0.234-0.88-0.362-2.079-0.362-3.607c0-2.121,0.278-3.68,0.842-4.678
			c0.349-0.631,0.87-1.001,1.536-1.102c0.476-0.08,0.891,0.003,1.268,0.253c0.361,0.256,0.641,0.776,0.819,1.563
			c0.192,0.776,0.284,1.75,0.284,2.949C57.931,104.899,57.797,106.206,57.542,107.269L57.542,107.269z M62.017,108.281
			c0.308-0.939,0.538-1.937,0.666-2.966c-0.083-0.679-0.128-1.396-0.128-2.152c0-0.752,0.054-1.497,0.144-2.231
			c-0.061-0.502-0.141-1.005-0.249-1.483c-0.267-1.119-0.683-2.103-1.284-2.952c-0.58-0.863-1.312-1.48-2.199-1.84
			c-0.893-0.374-1.99-0.457-3.303-0.246c-1.752,0.27-3.193,0.946-4.31,2.023c-1.122,1.071-1.925,2.408-2.38,4.02
			c-0.471,1.611-0.695,3.261-0.695,4.931c0,3.104,0.712,5.44,2.15,7c0.314,0.333,0.665,0.62,1.041,0.846
			c2.732-0.392,5.455-0.804,8.098-1.203C60.654,111.095,61.474,109.837,62.017,108.281L62.017,108.281z"/>
		
			<path fill="#FFFFFF" stroke="#FFFFFF" stroke-width="5" stroke-linecap="round" stroke-linejoin="round" stroke-miterlimit="10" d="
			M71.822,105.044c-0.199,0.801-0.466,1.369-0.828,1.715c-0.36,0.343-0.752,0.547-1.179,0.617c-0.439,0.069-0.834-0.021-1.185-0.246
			c-0.366-0.246-0.632-0.704-0.804-1.393c-0.244-0.884-0.365-2.086-0.365-3.604c0-2.117,0.278-3.68,0.836-4.671
			c0.351-0.638,0.875-1.008,1.533-1.112c0.492-0.073,0.903,0.021,1.266,0.267c0.375,0.25,0.643,0.77,0.824,1.552
			c0.195,0.773,0.286,1.757,0.286,2.949C72.207,102.678,72.077,103.981,71.822,105.044L71.822,105.044z M76.287,106.057
			c0.325-0.939,0.542-1.937,0.671-2.98c-0.092-0.665-0.115-1.382-0.115-2.134c0-0.755,0.046-1.494,0.148-2.231
			c-0.075-0.51-0.148-1.001-0.26-1.487c-0.264-1.116-0.686-2.104-1.285-2.952c-0.58-0.863-1.308-1.473-2.199-1.837
			c-0.893-0.371-1.991-0.454-3.296-0.25c-1.763,0.274-3.193,0.943-4.326,2.024c-1.126,1.067-1.909,2.408-2.376,4.023
			c-0.249,0.894-0.428,1.798-0.551,2.7c0.089,0.675,0.15,1.351,0.15,2.065c0,0.804-0.062,1.563-0.166,2.318
			c0.258,2.041,0.938,3.666,2.025,4.841c0.346,0.374,0.716,0.669,1.137,0.911c2.967-0.46,5.686-0.894,8.006-1.275
			C74.942,108.849,75.755,107.609,76.287,106.057L76.287,106.057z"/>
		
			<path fill="#FFFFFF" stroke="#FFFFFF" stroke-width="5" stroke-linecap="round" stroke-linejoin="round" stroke-miterlimit="10" d="
			M62.683,105.315c0.104-0.755,0.166-1.514,0.166-2.318c0-0.714-0.062-1.39-0.15-2.065c-0.09,0.734-0.144,1.479-0.144,2.231
			C62.555,103.918,62.6,104.636,62.683,105.315L62.683,105.315z"/>
		
			<path fill="#FFFFFF" stroke="#FFFFFF" stroke-width="5" stroke-linecap="round" stroke-linejoin="round" stroke-miterlimit="10" d="
			M86.103,102.82c-0.199,0.801-0.459,1.373-0.84,1.719c-0.335,0.347-0.74,0.548-1.176,0.613c-0.42,0.073-0.822-0.007-1.174-0.246
			c-0.359-0.235-0.627-0.703-0.805-1.382c-0.254-0.887-0.371-2.089-0.371-3.611c0-2.121,0.279-3.68,0.83-4.678
			c0.371-0.634,0.867-1.001,1.549-1.105c0.479-0.069,0.9,0.01,1.266,0.26c0.369,0.253,0.645,0.759,0.83,1.552
			c0.182,0.78,0.279,1.768,0.279,2.959C86.491,100.453,86.364,101.767,86.103,102.82L86.103,102.82z M87.513,90.21
			c-0.884-0.371-1.985-0.454-3.295-0.246c-1.75,0.27-3.189,0.939-4.31,2.023c-1.12,1.067-1.925,2.408-2.379,4.02
			c-0.263,0.894-0.441,1.795-0.538,2.703c0.07,0.665,0.121,1.351,0.121,2.065c0,0.797-0.055,1.563-0.154,2.301
			c0.267,2.069,0.938,3.684,2.025,4.858c0.282,0.298,0.596,0.554,0.925,0.776c0.246-0.052,0.466-0.097,0.657-0.146
			c6.771-1.591,9.562-7.194,10.302-14.059c-0.259-0.911-0.636-1.739-1.132-2.457C89.148,91.191,88.401,90.574,87.513,90.21
			L87.513,90.21z"/>
		
			<path fill="#FFFFFF" stroke="#FFFFFF" stroke-width="5" stroke-linecap="round" stroke-linejoin="round" stroke-miterlimit="10" d="
			M76.958,103.076c0.1-0.738,0.154-1.504,0.154-2.301c0-0.714-0.051-1.4-0.121-2.065c-0.103,0.738-0.148,1.476-0.148,2.231
			C76.843,101.694,76.866,102.411,76.958,103.076L76.958,103.076z"/>
		
			<polygon fill="#FFFFFF" stroke="#FFFFFF" stroke-width="5" stroke-linecap="round" stroke-linejoin="round" stroke-miterlimit="10" points="
			35.14,92.178 35.269,58.83 25.668,60.77 25.559,93.807 35.14,92.178 		"/>
		
			<path fill="#FFFFFF" stroke="#FFFFFF" stroke-width="5" stroke-linecap="round" stroke-linejoin="round" stroke-miterlimit="10" d="
			M38.026,66.945c-0.006,2.021,0.371,3.673,1.154,4.966c0.766,1.271,1.922,2.231,3.449,2.869c1.533,0.63,3.172,1.05,4.919,1.261
			l3.346,0.43c1.724,0.205,2.765,0.506,3.147,0.884c0.367,0.367,0.572,0.918,0.572,1.628c-0.014,0.704-0.213,1.286-0.625,1.736
			c-0.579,0.63-1.514,1.043-2.795,1.265c-1.483,0.256-2.562,0.139-3.278-0.343c-0.718-0.475-1.171-1.261-1.379-2.349l-9.22,1.577
			c0.146,1.608,0.43,2.917,0.839,3.957c0.6,1.466,1.454,2.689,2.591,3.68c1.15,0.995,2.615,1.649,4.391,1.992
			c1.768,0.333,3.666,0.319,5.686-0.024c1.83-0.319,3.586-0.884,5.27-1.729c1.666-0.821,3.027-1.788,4.074-2.897
			c1.059-1.109,1.941-2.52,2.658-4.238c0.736-1.739,1.097-3.586,1.107-5.537c0.008-2.446-0.684-4.47-2.067-6.095
			c-1.378-1.618-3.807-2.63-7.251-3.06l-3.72-0.457c-1.703-0.208-2.792-0.523-3.241-0.939c-0.334-0.288-0.49-0.71-0.479-1.261
			c0-0.641,0.213-1.213,0.652-1.705c0.578-0.627,1.406-1.043,2.496-1.227c1.117-0.194,1.966-0.08,2.566,0.347
			c0.596,0.395,0.998,1.088,1.213,2.086l9.117-1.569c-0.188-1.262-0.433-2.353-0.758-3.257c-0.287-0.925-0.729-1.806-1.297-2.644
			c-0.564-0.839-1.299-1.542-2.182-2.107c-0.074-0.045-0.142-0.076-0.202-0.114L41.638,57.53c-1.04,1.102-1.891,2.405-2.535,3.933
			C38.394,63.123,38.035,64.959,38.026,66.945L38.026,66.945z"/>
		
			<path fill="#FFFFFF" stroke="#FFFFFF" stroke-width="5" stroke-linecap="round" stroke-linejoin="round" stroke-miterlimit="10" d="
			M74.139,59.575c0.615-1.175,1.481-1.861,2.625-2.059c0.814-0.139,1.532,0.028,2.165,0.489c0.626,0.458,1.087,1.42,1.396,2.883
			c0.312,1.445,0.472,3.275,0.462,5.482c-0.012,2.911-0.236,5.35-0.691,7.308c-0.337,1.487-0.807,2.564-1.424,3.198
			c-0.607,0.638-1.279,1.022-2.016,1.147c-0.749,0.128-1.409-0.017-2.012-0.464c-0.613-0.447-1.059-1.31-1.371-2.571
			c-0.405-1.643-0.607-3.878-0.591-6.705C72.694,64.335,73.179,61.439,74.139,59.575L74.139,59.575z M65.536,61.023
			c-0.812,3.001-1.219,6.061-1.23,9.176c-0.023,5.78,1.181,10.118,3.609,13.008c2.112,2.474,4.999,3.393,8.707,2.765
			c2.59-0.443,4.854-1.552,6.758-3.306c1.93-1.771,3.372-4.134,4.322-7.11c0.949-2.977,1.446-6.258,1.453-9.821
			c0.004-2.332-0.203-4.539-0.641-6.611c-0.436-2.072-1.154-3.905-2.161-5.489c-0.995-1.618-2.237-2.745-3.757-3.42
			c-0.616-0.28-1.32-0.447-2.06-0.551l-7.981,1.622c-1.09,0.603-2.083,1.345-2.955,2.259C67.688,55.527,66.335,58.019,65.536,61.023
			L65.536,61.023z"/>
		
			<path fill-rule="evenodd" clip-rule="evenodd" fill="#FFFFFF" stroke="#FFFFFF" stroke-width="5" stroke-linecap="round" stroke-linejoin="round" stroke-miterlimit="10" d="
			M24.741,136.668l5.348-15.822l4.968-0.838l5.333,13.999l-4.867,0.832l-0.574-1.854l-4.859,0.825l-0.564,2.044L24.741,136.668
			L24.741,136.668z M32.515,124.917l-1.521,5.676l3.104-0.534L32.515,124.917L32.515,124.917z"/>
		
			<path fill-rule="evenodd" clip-rule="evenodd" fill="#FFFFFF" stroke="#FFFFFF" stroke-width="5" stroke-linecap="round" stroke-linejoin="round" stroke-miterlimit="10" d="
			M55.218,122.277l-4.611,0.787c-0.088-0.728-0.354-1.261-0.804-1.594c-0.454-0.343-1.017-0.454-1.717-0.343
			c-0.849,0.152-1.549,0.606-2.104,1.362c-0.542,0.773-0.821,1.906-0.821,3.413c0,1.033,0.125,1.798,0.352,2.301
			c0.241,0.502,0.559,0.855,0.971,1.053c0.422,0.18,0.945,0.222,1.553,0.125c0.75-0.125,1.352-0.44,1.797-0.925
			c0.445-0.496,0.699-1.151,0.785-1.986l4.708-0.793c-0.108,0.939-0.282,1.75-0.558,2.426c-0.268,0.668-0.7,1.375-1.343,2.117
			c-0.622,0.734-1.365,1.355-2.24,1.85c-0.862,0.492-1.862,0.825-2.995,1.026c-1.134,0.187-2.195,0.194-3.16,0.024
			c-0.951-0.173-1.763-0.52-2.409-1.019c-0.658-0.513-1.166-1.133-1.546-1.871c-0.512-1.022-0.775-2.218-0.775-3.586
			c0-1.147,0.188-2.266,0.564-3.32c0.375-1.081,0.891-1.996,1.549-2.786c0.662-0.787,1.387-1.428,2.184-1.902
			c1.032-0.61,2.166-1.012,3.395-1.22c1.078-0.191,2.094-0.191,3.035-0.039c0.939,0.163,1.726,0.502,2.326,1.022
			c0.607,0.513,1.074,1.144,1.398,1.896C54.977,120.829,55.143,121.494,55.218,122.277L55.218,122.277z"/>
		
			<path fill-rule="evenodd" clip-rule="evenodd" fill="#FFFFFF" stroke="#FFFFFF" stroke-width="5" stroke-linecap="round" stroke-linejoin="round" stroke-miterlimit="10" d="
			M70.413,119.702l-4.631,0.783c-0.086-0.731-0.358-1.261-0.799-1.597c-0.447-0.34-1.027-0.451-1.713-0.34
			c-0.863,0.142-1.566,0.603-2.112,1.369c-0.542,0.77-0.808,1.902-0.808,3.406c0,1.029,0.113,1.795,0.34,2.297
			c0.234,0.506,0.564,0.849,0.963,1.05c0.422,0.19,0.946,0.239,1.553,0.125c0.75-0.125,1.355-0.426,1.793-0.918
			c0.451-0.496,0.719-1.154,0.805-1.986l4.705-0.793c-0.096,0.942-0.295,1.743-0.558,2.429c-0.262,0.669-0.716,1.382-1.345,2.11
			c-0.629,0.734-1.373,1.355-2.248,1.843c-0.858,0.496-1.859,0.835-2.992,1.022c-1.143,0.204-2.19,0.218-3.15,0.038
			c-0.96-0.177-1.774-0.513-2.419-1.033c-0.661-0.496-1.171-1.116-1.536-1.861c-0.527-1.033-0.783-2.221-0.783-3.586
			c0-1.15,0.195-2.263,0.573-3.33c0.376-1.057,0.88-1.982,1.54-2.779c0.66-0.791,1.393-1.421,2.188-1.896
			c1.021-0.61,2.159-1.019,3.396-1.224c1.066-0.184,2.078-0.194,3.029-0.034c0.945,0.156,1.711,0.495,2.328,1.022
			c0.617,0.516,1.068,1.144,1.4,1.899C70.166,118.247,70.323,118.912,70.413,119.702L70.413,119.702z"/>
		
			<polygon fill-rule="evenodd" clip-rule="evenodd" fill="#FFFFFF" stroke="#FFFFFF" stroke-width="5" stroke-linecap="round" stroke-linejoin="round" stroke-miterlimit="10" points="
			71.437,128.729 71.437,113.825 77.349,112.817 79.983,121.677 82.587,111.923 88.505,110.925 88.505,125.829 84.077,126.584 
			84.077,118.219 81.669,126.99 78.245,127.572 75.842,119.619 75.842,127.988 71.437,128.729 		"/>
		
			<polygon fill-rule="evenodd" clip-rule="evenodd" fill="#ED1C24" stroke="#FFFFFF" stroke-width="5" stroke-linecap="round" stroke-linejoin="round" stroke-miterlimit="10" points="
			22.233,50.797 91.026,37.439 91.026,44.276 22.233,57.637 22.233,50.797 		"/>
		
			<polygon fill-rule="evenodd" clip-rule="evenodd" fill="#FFE100" stroke="#FFFFFF" stroke-width="5" stroke-linecap="round" stroke-linejoin="round" stroke-miterlimit="10" points="
			22.233,53.022 91.026,39.664 91.026,42.183 22.233,55.544 22.233,53.022 		"/>
		
			<polygon fill="#005CAB" stroke="#FFFFFF" stroke-width="5" stroke-linecap="round" stroke-linejoin="round" stroke-miterlimit="10" points="
			54.077,9.33 51.136,7.493 52.985,4.544 55.919,6.38 54.077,9.33 		"/>
		
			<path fill="#005CAB" stroke="#FFFFFF" stroke-width="5" stroke-linecap="round" stroke-linejoin="round" stroke-miterlimit="10" d="
			M62.208,30.446l-1.05-4.986c3.403-0.052,6.028-2.717,6.028-5.995c0-3.316-2.688-5.998-5.992-5.998c-0.953,0-1.84,0.25-2.661,0.648
			c-0.396,0.225-0.811,0.603-1.282,0.988c-0.59,0.46-1.268,1.479-1.527,1.899l-0.306,0.014l-0.302-0.256
			c-0.448-0.416-0.689-0.541-0.953-0.651c-0.59-0.264-1.411-0.468-2.428-0.714c-0.162-0.014-0.324-0.042-0.487-0.042
			c-3.312,0-5.999,2.678-5.999,5.995c0,3.316,2.688,6.001,5.999,6.001l0.388-0.017l1.318,6.171
			c-1.781,2.131-4.451,3.482-7.441,3.482c-5.326,0-9.654-4.314-9.654-9.654c0-3.846,2.239-7.173,5.496-8.726
			c1.197-4.342,5.183-7.53,9.894-7.53c1.146,0,2.263,0.194,3.296,0.544c1.809-1.524,4.123-2.425,6.65-2.425
			c3.209,0,6.071,1.469,7.961,3.763c4.666,0.686,8.24,4.712,8.24,9.564c0,5.336-4.315,9.671-9.655,9.671
			C65.686,32.193,63.774,31.544,62.208,30.446L62.208,30.446z M71.397,18.218c0.039,0.419,0.068,0.821,0.068,1.247
			c0,3.614-1.865,6.789-4.692,8.615c0.315,0.066,0.644,0.09,0.967,0.09c3.115,0,5.64-2.522,5.64-5.648
			C73.38,20.803,72.618,19.261,71.397,18.218L71.397,18.218z M41.239,23.647c-0.85,0.988-1.367,2.277-1.367,3.684
			c0,3.115,2.523,5.634,5.641,5.634c1.499,0,2.857-0.575,3.863-1.511C45.351,30.709,42.146,27.612,41.239,23.647L41.239,23.647z"/>
		
			<polygon fill-rule="evenodd" clip-rule="evenodd" fill="#005CAB" stroke="#FFFFFF" stroke-width="5" stroke-linecap="round" stroke-linejoin="round" stroke-miterlimit="10" points="
			22.523,45 23.075,44.896 23.075,48.995 22.523,49.099 22.523,45 		"/>
		
			<polygon fill-rule="evenodd" clip-rule="evenodd" fill="#005CAB" stroke="#FFFFFF" stroke-width="5" stroke-linecap="round" stroke-linejoin="round" stroke-miterlimit="10" points="
			23.894,44.74 24.558,44.615 26.624,47.54 26.624,44.224 27.159,44.12 27.159,48.216 26.517,48.33 24.429,45.419 24.429,48.732 
			23.894,48.833 23.894,44.74 		"/>
		
			<path fill-rule="evenodd" clip-rule="evenodd" fill="#005CAB" stroke="#FFFFFF" stroke-width="5" stroke-linecap="round" stroke-linejoin="round" stroke-miterlimit="10" d="
			M31.306,43.912c0.275,0.312,0.4,0.756,0.4,1.324c0,0.606-0.145,1.144-0.449,1.611c-0.358,0.544-0.893,0.88-1.559,1.005
			c-0.64,0.125-1.114,0.011-1.499-0.339c-0.317-0.329-0.458-0.818-0.458-1.424c0-0.558,0.125-1.053,0.397-1.507
			c0.343-0.572,0.882-0.929,1.564-1.05C30.429,43.385,30.963,43.517,31.306,43.912L31.306,43.912z M30.815,46.622
			c0.225-0.398,0.344-0.818,0.344-1.271c0-0.485-0.127-0.849-0.389-1.095c-0.255-0.246-0.588-0.322-1.038-0.246
			c-0.412,0.083-0.766,0.294-1.036,0.638c-0.264,0.339-0.392,0.793-0.392,1.362c0,0.451,0.112,0.811,0.341,1.084
			c0.238,0.267,0.604,0.35,1.113,0.256C30.249,47.263,30.603,47.017,30.815,46.622L30.815,46.622z"/>
		
			<path fill-rule="evenodd" clip-rule="evenodd" fill="#005CAB" stroke="#FFFFFF" stroke-width="5" stroke-linecap="round" stroke-linejoin="round" stroke-miterlimit="10" d="
			M35.231,42.883c0.291,0.225,0.457,0.502,0.475,0.842l-0.54,0.101c-0.056-0.25-0.181-0.43-0.36-0.554
			c-0.195-0.122-0.449-0.146-0.781-0.083c-0.396,0.073-0.734,0.284-0.979,0.617c-0.238,0.33-0.365,0.78-0.365,1.366
			c0,0.475,0.109,0.856,0.342,1.105c0.208,0.26,0.551,0.347,0.984,0.26c0.418-0.08,0.732-0.298,0.941-0.648
			c0.117-0.198,0.191-0.426,0.26-0.7l0.535-0.104c-0.055,0.433-0.199,0.828-0.475,1.165c-0.324,0.419-0.77,0.683-1.318,0.776
			c-0.472,0.101-0.877,0.038-1.194-0.201c-0.433-0.295-0.642-0.846-0.642-1.636c0-0.606,0.16-1.133,0.475-1.58
			c0.351-0.481,0.834-0.787,1.436-0.904C34.553,42.605,34.944,42.668,35.231,42.883L35.231,42.883z"/>
		
			<path fill-rule="evenodd" clip-rule="evenodd" fill="#005CAB" stroke="#FFFFFF" stroke-width="5" stroke-linecap="round" stroke-linejoin="round" stroke-miterlimit="10" d="
			M36.94,42.266v2.529c0,0.294,0.049,0.53,0.166,0.714c0.166,0.263,0.434,0.357,0.824,0.281c0.482-0.08,0.81-0.309,0.967-0.666
			c0.09-0.187,0.141-0.43,0.141-0.724v-2.537l0.572-0.104v2.298c0,0.499-0.071,0.904-0.21,1.206
			c-0.253,0.541-0.728,0.87-1.409,1.008c-0.694,0.128-1.164-0.027-1.4-0.481c-0.143-0.236-0.205-0.62-0.205-1.123v-2.301
			L36.94,42.266L36.94,42.266z"/>
		
			<polygon fill-rule="evenodd" clip-rule="evenodd" fill="#005CAB" stroke="#FFFFFF" stroke-width="5" stroke-linecap="round" stroke-linejoin="round" stroke-miterlimit="10" points="
			40.509,41.583 41.063,41.483 41.063,45.579 40.509,45.686 40.509,41.583 		"/>
		
			<path fill-rule="evenodd" clip-rule="evenodd" fill="#005CAB" stroke="#FFFFFF" stroke-width="5" stroke-linecap="round" stroke-linejoin="round" stroke-miterlimit="10" d="
			M43.454,44.65c0.188-0.035,0.346-0.094,0.472-0.149c0.208-0.118,0.382-0.288,0.528-0.52c0.113-0.18,0.188-0.405,0.232-0.672
			c0.025-0.167,0.043-0.312,0.043-0.444c0-0.513-0.095-0.883-0.298-1.126c-0.212-0.239-0.535-0.322-0.985-0.239l-0.984,0.187v3.15
			L43.454,44.65L43.454,44.65z M41.921,41.316l1.645-0.309c0.568-0.111,1.005,0,1.313,0.347c0.275,0.305,0.415,0.742,0.415,1.303
			c0,0.433-0.082,0.852-0.248,1.23c-0.283,0.668-0.791,1.084-1.48,1.209l-1.645,0.322V41.316L41.921,41.316z"/>
		
			<path fill-rule="evenodd" clip-rule="evenodd" fill="#005CAB" stroke="#FFFFFF" stroke-width="5" stroke-linecap="round" stroke-linejoin="round" stroke-miterlimit="10" d="
			M48.028,42.574l-0.616-1.688l-0.667,1.934L48.028,42.574L48.028,42.574z M47.112,40.336l0.633-0.125l1.488,3.805l-0.602,0.118
			l-0.43-1.137l-1.606,0.298l-0.45,1.32l-0.566,0.101L47.112,40.336L47.112,40.336z"/>
		
			<path fill-rule="evenodd" clip-rule="evenodd" fill="#005CAB" stroke="#FFFFFF" stroke-width="5" stroke-linecap="round" stroke-linejoin="round" stroke-miterlimit="10" d="
			M51.218,43.17c0.193-0.035,0.344-0.083,0.469-0.149c0.225-0.104,0.391-0.281,0.533-0.513c0.107-0.19,0.191-0.412,0.237-0.683
			c0.019-0.163,0.042-0.308,0.042-0.44c0-0.499-0.105-0.876-0.314-1.119c-0.199-0.239-0.522-0.319-0.973-0.239l-0.977,0.184v3.153
			L51.218,43.17L51.218,43.17z M49.682,39.847l1.653-0.319c0.568-0.101,0.992,0.01,1.312,0.347c0.272,0.319,0.404,0.752,0.404,1.31
			c0,0.433-0.066,0.846-0.232,1.224c-0.291,0.679-0.776,1.084-1.484,1.223l-1.653,0.308V39.847L49.682,39.847z"/>
		
			<path fill-rule="evenodd" clip-rule="evenodd" fill="#005CAB" stroke="#FFFFFF" stroke-width="5" stroke-linecap="round" stroke-linejoin="round" stroke-miterlimit="10" d="
			M56.976,40.873l-0.613-1.688l-0.658,1.934L56.976,40.873L56.976,40.873z M56.064,38.624l0.638-0.111l1.482,3.808l-0.601,0.122
			l-0.416-1.151l-1.625,0.309l-0.445,1.313l-0.571,0.104L56.064,38.624L56.064,38.624z"/>
		
			<polygon fill-rule="evenodd" clip-rule="evenodd" fill="#005CAB" stroke="#FFFFFF" stroke-width="5" stroke-linecap="round" stroke-linejoin="round" stroke-miterlimit="10" points="
			58.618,38.146 59.162,38.045 59.162,41.656 61.241,41.25 61.241,41.739 58.618,42.249 58.618,38.146 		"/>
		
			<polygon fill-rule="evenodd" clip-rule="evenodd" fill="#005CAB" stroke="#FFFFFF" stroke-width="5" stroke-linecap="round" stroke-linejoin="round" stroke-miterlimit="10" points="
			61.825,37.536 62.388,37.432 62.388,41.528 61.825,41.635 61.825,37.536 		"/>
		
			<path fill-rule="evenodd" clip-rule="evenodd" fill="#005CAB" stroke="#FFFFFF" stroke-width="5" stroke-linecap="round" stroke-linejoin="round" stroke-miterlimit="10" d="
			M63.196,37.276l0.795-0.152l1.17,3.236l1.174-3.683l0.779-0.142v4.092l-0.522,0.101v-2.419c0-0.083,0-0.215,0-0.416
			c0.013-0.191,0.013-0.406,0.013-0.624l-1.181,3.684l-0.534,0.094l-1.178-3.223v0.125c0,0.097,0,0.253,0.004,0.454
			c0,0.211,0,0.36,0,0.45v2.419l-0.52,0.111V37.276L63.196,37.276z"/>
		
			<polygon fill-rule="evenodd" clip-rule="evenodd" fill="#005CAB" stroke="#FFFFFF" stroke-width="5" stroke-linecap="round" stroke-linejoin="round" stroke-miterlimit="10" points="
			67.939,36.375 70.919,35.807 70.919,36.316 68.476,36.777 68.476,38.028 70.734,37.588 70.734,38.07 68.476,38.492 68.476,39.875 
			70.962,39.411 70.962,39.903 67.939,40.478 67.939,36.375 		"/>
		
			<polygon fill-rule="evenodd" clip-rule="evenodd" fill="#005CAB" stroke="#FFFFFF" stroke-width="5" stroke-linecap="round" stroke-linejoin="round" stroke-miterlimit="10" points="
			71.603,35.682 72.261,35.557 74.321,38.479 74.321,35.166 74.854,35.062 74.854,39.161 74.237,39.275 72.131,36.365 
			72.131,39.677 71.603,39.781 71.603,35.682 		"/>
		
			<polygon fill-rule="evenodd" clip-rule="evenodd" fill="#005CAB" stroke="#FFFFFF" stroke-width="5" stroke-linecap="round" stroke-linejoin="round" stroke-miterlimit="10" points="
			78.63,34.345 78.63,34.836 77.254,35.104 77.254,38.71 76.679,38.814 76.679,35.2 75.305,35.467 75.305,34.982 78.63,34.345 		"/>
		
			<path fill-rule="evenodd" clip-rule="evenodd" fill="#005CAB" stroke="#FFFFFF" stroke-width="5" stroke-linecap="round" stroke-linejoin="round" stroke-miterlimit="10" d="
			M80.738,36.365l-0.631-1.691l-0.658,1.937L80.738,36.365L80.738,36.365z M79.823,34.119l0.625-0.118l1.496,3.822l-0.615,0.107
			l-0.418-1.144L79.3,37.092l-0.445,1.31l-0.571,0.111L79.823,34.119L79.823,34.119z"/>
		
			<path fill-rule="evenodd" clip-rule="evenodd" fill="#005CAB" stroke="#FFFFFF" stroke-width="5" stroke-linecap="round" stroke-linejoin="round" stroke-miterlimit="10" d="
			M84.261,35.152c0.254-0.045,0.457-0.142,0.613-0.27c0.148-0.135,0.229-0.34,0.229-0.606c0-0.298-0.105-0.468-0.309-0.541
			c-0.123-0.031-0.271-0.031-0.457,0l-1.355,0.26v1.407L84.261,35.152L84.261,35.152z M82.438,33.627l1.885-0.357
			c0.312-0.066,0.573-0.069,0.779-0.018c0.373,0.104,0.562,0.392,0.562,0.866c0,0.246-0.054,0.451-0.149,0.627
			c-0.1,0.173-0.238,0.329-0.412,0.454c0.148,0.035,0.275,0.101,0.359,0.191c0.076,0.086,0.115,0.25,0.129,0.485l0.02,0.548
			c0,0.152,0.033,0.273,0.033,0.343c0.043,0.122,0.097,0.198,0.184,0.208v0.097l-0.674,0.135c-0.033-0.024-0.04-0.073-0.051-0.135
			c-0.02-0.042-0.033-0.153-0.033-0.312l-0.033-0.679c-0.014-0.271-0.108-0.426-0.292-0.475c-0.109-0.028-0.284-0.024-0.501,0.017
			l-1.262,0.232v1.764l-0.543,0.104V33.627L82.438,33.627z"/>
		
			<polygon fill-rule="evenodd" clip-rule="evenodd" fill="#005CAB" stroke="#FFFFFF" stroke-width="5" stroke-linecap="round" stroke-linejoin="round" stroke-miterlimit="10" points="
			86.521,32.848 87.089,32.744 87.089,36.836 86.521,36.94 86.521,32.848 		"/>
		
			<path fill-rule="evenodd" clip-rule="evenodd" fill="#005CAB" stroke="#FFFFFF" stroke-width="5" stroke-linecap="round" stroke-linejoin="round" stroke-miterlimit="10" d="
			M90.008,34.601l-0.624-1.684l-0.656,1.93L90.008,34.601L90.008,34.601z M89.097,32.362l0.632-0.121l1.481,3.808l-0.602,0.121
			l-0.432-1.143l-1.623,0.298l-0.428,1.313l-0.566,0.114L89.097,32.362L89.097,32.362z"/>
		
			<path fill="#005CAB" stroke="#FFFFFF" stroke-width="5" stroke-linecap="round" stroke-linejoin="round" stroke-miterlimit="10" d="
			M25.238,145.175c0.212-0.61,0.32-1.282,0.305-2.013c-0.022-0.783-0.161-1.4-0.43-1.84c-0.278-0.434-0.64-0.617-1.083-0.544
			c-0.438,0.069-0.779,0.357-1.047,0.877c-0.264,0.513-0.386,1.241-0.361,2.159c0.004,0.742,0.137,1.352,0.379,1.816
			c0.25,0.475,0.626,0.665,1.166,0.579C24.663,146.125,25.024,145.785,25.238,145.175L25.238,145.175z M25.65,140.847
			c0.291,0.544,0.45,1.279,0.466,2.197c0.014,0.998-0.112,1.85-0.426,2.561c-0.365,0.838-0.882,1.303-1.582,1.421
			c-0.641,0.093-1.157-0.16-1.549-0.776c-0.334-0.603-0.518-1.403-0.543-2.398c-0.006-0.904,0.109-1.698,0.382-2.38
			c0.34-0.887,0.878-1.376,1.579-1.49C24.73,139.863,25.283,140.157,25.65,140.847L25.65,140.847z"/>
		
			<path fill="#005CAB" stroke="#FFFFFF" stroke-width="5" stroke-linecap="round" stroke-linejoin="round" stroke-miterlimit="10" d="
			M32.364,144.77c0.125,0.121,0.252,0.17,0.4,0.142c0.184-0.031,0.354-0.128,0.521-0.284c0.287-0.267,0.412-0.651,0.412-1.147
			l-0.012-0.666c-0.059,0.08-0.154,0.149-0.238,0.194c-0.1,0.066-0.199,0.114-0.292,0.142l-0.307,0.118
			c-0.184,0.066-0.335,0.149-0.427,0.246c-0.148,0.173-0.229,0.416-0.22,0.724C32.203,144.471,32.266,144.645,32.364,144.77
			L32.364,144.77z M33.423,142.385c0.109-0.038,0.188-0.135,0.225-0.27c0.016-0.08,0.039-0.184,0.039-0.315
			c-0.023-0.284-0.08-0.478-0.208-0.589c-0.13-0.1-0.306-0.138-0.546-0.097c-0.26,0.045-0.455,0.184-0.568,0.43
			c-0.049,0.146-0.09,0.339-0.099,0.603l-0.485,0.076c0-0.61,0.109-1.046,0.347-1.32c0.237-0.271,0.492-0.43,0.806-0.478
			c0.357-0.066,0.656,0.003,0.882,0.184c0.233,0.18,0.358,0.502,0.358,0.959l0.066,2.811c0,0.076,0,0.142,0.034,0.187
			c0.016,0.056,0.067,0.066,0.128,0.062c0.023-0.007,0.057-0.007,0.087-0.024c0.026-0.007,0.064-0.017,0.083-0.038l0.02,0.61
			c-0.08,0.045-0.133,0.076-0.189,0.097c-0.045,0.017-0.086,0.024-0.162,0.045c-0.179,0.021-0.309-0.066-0.398-0.243
			c-0.042-0.097-0.08-0.25-0.094-0.433c-0.1,0.236-0.25,0.447-0.44,0.645c-0.188,0.18-0.409,0.298-0.641,0.336
			c-0.302,0.045-0.525-0.056-0.709-0.295c-0.199-0.253-0.282-0.575-0.3-0.984c0-0.451,0.078-0.811,0.241-1.095
			c0.184-0.27,0.417-0.46,0.69-0.568L33.423,142.385L33.423,142.385z"/>
		
			<path fill="#005CAB" stroke="#FFFFFF" stroke-width="5" stroke-linecap="round" stroke-linejoin="round" stroke-miterlimit="10" d="
			M34.933,140.223l0.49-0.076l0.016,0.686c0.142-0.315,0.285-0.534,0.455-0.686c0.154-0.149,0.328-0.239,0.53-0.277
			c0.433-0.062,0.743,0.128,0.904,0.582c0.078,0.253,0.128,0.621,0.147,1.109l0.059,3.115l-0.529,0.094l-0.064-3.07
			c0-0.294-0.035-0.53-0.094-0.696c-0.09-0.288-0.256-0.419-0.499-0.381c-0.134,0.028-0.226,0.056-0.3,0.111
			c-0.146,0.09-0.268,0.239-0.359,0.458c-0.086,0.173-0.141,0.35-0.156,0.523c-0.033,0.176-0.039,0.419-0.033,0.738l0.049,2.543
			l-0.505,0.08L34.933,140.223L34.933,140.223z"/>
		
			<path fill="#005CAB" stroke="#FFFFFF" stroke-width="5" stroke-linecap="round" stroke-linejoin="round" stroke-miterlimit="10" d="
			M38.14,139.728l0.529-0.076l0.094,4.831l-0.528,0.083L38.14,139.728L38.14,139.728z M38.098,137.901l0.524-0.086l0.024,0.929
			l-0.528,0.083L38.098,137.901L38.098,137.901z"/>
		
			<path fill="#005CAB" stroke="#FFFFFF" stroke-width="5" stroke-linecap="round" stroke-linejoin="round" stroke-miterlimit="10" d="
			M39.759,142.801c0.021,0.267,0.071,0.468,0.139,0.6c0.146,0.242,0.369,0.333,0.7,0.288c0.202-0.035,0.366-0.128,0.517-0.288
			c0.142-0.153,0.215-0.36,0.199-0.638c0-0.211-0.058-0.364-0.179-0.454c-0.089-0.052-0.239-0.104-0.462-0.156l-0.418-0.097
			c-0.268-0.066-0.453-0.146-0.588-0.25c-0.225-0.194-0.354-0.471-0.358-0.866c-0.011-0.464,0.092-0.846,0.288-1.171
			c0.213-0.315,0.496-0.499,0.854-0.558c0.463-0.073,0.812,0.086,1.021,0.481c0.142,0.256,0.201,0.537,0.208,0.849l-0.475,0.08
			c-0.024-0.187-0.069-0.347-0.141-0.475c-0.13-0.198-0.338-0.277-0.643-0.232c-0.199,0.038-0.35,0.122-0.449,0.253
			c-0.1,0.142-0.142,0.305-0.142,0.496c0.009,0.205,0.067,0.375,0.213,0.471c0.08,0.062,0.192,0.115,0.347,0.142l0.344,0.08
			c0.387,0.08,0.647,0.184,0.771,0.294c0.199,0.177,0.301,0.481,0.316,0.932c0.012,0.44-0.078,0.818-0.286,1.171
			c-0.206,0.35-0.523,0.555-0.946,0.627c-0.466,0.073-0.787-0.035-0.992-0.34c-0.196-0.291-0.317-0.683-0.34-1.167L39.759,142.801
			L39.759,142.801z"/>
		
			<path fill="#005CAB" stroke="#FFFFFF" stroke-width="5" stroke-linecap="round" stroke-linejoin="round" stroke-miterlimit="10" d="
			M42.259,139.048l0.512-0.08v0.696c0.125-0.263,0.23-0.454,0.33-0.589c0.167-0.198,0.354-0.326,0.57-0.36
			c0.241-0.038,0.434,0.024,0.6,0.187c0.078,0.101,0.176,0.239,0.232,0.44c0.117-0.27,0.242-0.492,0.392-0.634
			c0.163-0.153,0.327-0.239,0.517-0.277c0.417-0.059,0.709,0.135,0.855,0.579c0.086,0.239,0.143,0.575,0.148,0.998l0.068,3.24
			l-0.546,0.087l-0.067-3.378c0-0.322-0.068-0.53-0.166-0.638c-0.102-0.104-0.226-0.149-0.366-0.128
			c-0.206,0.031-0.392,0.17-0.526,0.413c-0.143,0.235-0.203,0.603-0.191,1.112l0.049,2.824l-0.523,0.087l-0.057-3.178
			c-0.01-0.329-0.035-0.558-0.09-0.707c-0.087-0.215-0.227-0.305-0.438-0.271c-0.199,0.035-0.381,0.18-0.531,0.443
			c-0.154,0.267-0.225,0.707-0.219,1.334l0.056,2.578l-0.507,0.087L42.259,139.048L42.259,139.048z"/>
		
			<path fill="#005CAB" stroke="#FFFFFF" stroke-width="5" stroke-linecap="round" stroke-linejoin="round" stroke-miterlimit="10" d="
			M49.062,141.692c0.107-0.433,0.172-0.891,0.157-1.393c-0.015-0.461-0.058-0.818-0.157-1.088c-0.154-0.433-0.416-0.61-0.75-0.548
			c-0.32,0.045-0.547,0.271-0.674,0.676c-0.137,0.402-0.201,0.866-0.18,1.403c0.004,0.523,0.091,0.946,0.228,1.262
			c0.154,0.326,0.385,0.464,0.685,0.419C48.72,142.358,48.937,142.115,49.062,141.692L49.062,141.692z M49.312,138.411
			c0.278,0.368,0.423,0.97,0.448,1.774c0.018,0.783-0.092,1.445-0.332,2c-0.225,0.547-0.584,0.859-1.088,0.939
			c-0.41,0.073-0.761-0.101-1.021-0.513c-0.248-0.413-0.383-0.998-0.395-1.764c-0.02-0.811,0.1-1.486,0.35-2.01
			c0.245-0.526,0.588-0.825,1.037-0.894C48.699,137.884,49.026,138.03,49.312,138.411L49.312,138.411z"/>
		
			<path fill="#005CAB" stroke="#FFFFFF" stroke-width="5" stroke-linecap="round" stroke-linejoin="round" stroke-miterlimit="10" d="
			M52.464,141.221c0.141,0.336,0.377,0.471,0.676,0.43c0.241-0.045,0.434-0.236,0.57-0.586c0.148-0.346,0.217-0.835,0.208-1.438
			c-0.007-0.613-0.091-1.057-0.259-1.324c-0.174-0.273-0.365-0.384-0.607-0.354c-0.248,0.045-0.457,0.236-0.608,0.579
			c-0.154,0.333-0.224,0.811-0.217,1.424C52.247,140.473,52.315,140.896,52.464,141.221L52.464,141.221z M53.544,137.392
			c0.084,0.076,0.195,0.218,0.314,0.437l-0.041-2.46l0.484-0.08l0.133,6.691l-0.458,0.076l-0.017-0.676
			c-0.104,0.312-0.25,0.555-0.416,0.717c-0.149,0.153-0.342,0.25-0.551,0.288c-0.34,0.045-0.642-0.128-0.891-0.541
			c-0.268-0.423-0.398-1.001-0.416-1.76c-0.024-0.696,0.083-1.341,0.299-1.899c0.217-0.547,0.543-0.866,0.959-0.929
			C53.185,137.215,53.381,137.271,53.544,137.392L53.544,137.392z"/>
		
			<path fill="#005CAB" stroke="#FFFFFF" stroke-width="5" stroke-linecap="round" stroke-linejoin="round" stroke-miterlimit="10" d="
			M57.177,138.716c-0.029-0.357-0.083-0.62-0.159-0.828c-0.154-0.371-0.392-0.527-0.72-0.479c-0.233,0.042-0.426,0.211-0.574,0.499
			c-0.164,0.298-0.238,0.662-0.238,1.078L57.177,138.716L57.177,138.716z M56.955,136.837c0.199,0.128,0.362,0.312,0.475,0.555
			c0.104,0.229,0.187,0.506,0.217,0.818c0.042,0.222,0.054,0.579,0.076,1.063l-2.237,0.361c0.016,0.499,0.103,0.876,0.248,1.154
			c0.139,0.281,0.35,0.395,0.641,0.346c0.272-0.045,0.477-0.211,0.631-0.526c0.089-0.177,0.143-0.378,0.184-0.6l0.5-0.08
			c-0.018,0.19-0.057,0.388-0.12,0.62c-0.076,0.229-0.151,0.423-0.237,0.579c-0.154,0.264-0.355,0.461-0.58,0.582
			c-0.117,0.059-0.259,0.107-0.398,0.142c-0.393,0.052-0.718-0.114-0.992-0.513c-0.266-0.395-0.414-0.991-0.426-1.781
			c-0.021-0.783,0.096-1.435,0.359-1.968c0.249-0.53,0.59-0.825,1.023-0.89C56.536,136.661,56.747,136.709,56.955,136.837
			L56.955,136.837z"/>
		
			<path fill="#005CAB" stroke="#FFFFFF" stroke-width="5" stroke-linecap="round" stroke-linejoin="round" stroke-miterlimit="10" d="
			M62.849,134.436c0.301,0.402,0.467,0.88,0.508,1.438l-0.549,0.086c-0.083-0.416-0.199-0.745-0.389-0.967
			c-0.195-0.222-0.451-0.298-0.789-0.25c-0.404,0.066-0.73,0.35-0.976,0.849c-0.229,0.506-0.355,1.23-0.321,2.19
			c0,0.783,0.131,1.4,0.357,1.843c0.248,0.451,0.593,0.641,1.027,0.572c0.416-0.066,0.731-0.371,0.932-0.925
			c0.113-0.284,0.199-0.651,0.232-1.095l0.568-0.094c-0.034,0.714-0.188,1.324-0.45,1.844c-0.325,0.627-0.763,0.984-1.317,1.074
			c-0.498,0.076-0.907-0.101-1.232-0.52c-0.453-0.544-0.684-1.466-0.717-2.765c-0.012-0.991,0.133-1.816,0.445-2.502
			c0.33-0.738,0.81-1.147,1.422-1.254C62.134,133.882,62.555,134.034,62.849,134.436L62.849,134.436z"/>
		
			<path fill="#005CAB" stroke="#FFFFFF" stroke-width="5" stroke-linecap="round" stroke-linejoin="round" stroke-miterlimit="10" d="
			M66.12,137.292c-0.029-0.357-0.081-0.63-0.157-0.835c-0.147-0.371-0.398-0.523-0.71-0.479c-0.238,0.045-0.438,0.208-0.586,0.499
			c-0.168,0.295-0.234,0.662-0.234,1.078L66.12,137.292L66.12,137.292z M65.896,135.407c0.211,0.131,0.369,0.315,0.479,0.554
			c0.108,0.225,0.184,0.496,0.23,0.825c0.029,0.218,0.048,0.575,0.064,1.061l-2.236,0.357c0.024,0.492,0.104,0.873,0.25,1.157
			c0.133,0.274,0.343,0.395,0.637,0.347c0.262-0.042,0.484-0.219,0.637-0.523c0.076-0.18,0.135-0.381,0.176-0.606l0.502-0.08
			c-0.011,0.187-0.042,0.395-0.118,0.617c-0.065,0.229-0.157,0.43-0.241,0.579c-0.154,0.267-0.338,0.464-0.575,0.582
			c-0.118,0.073-0.255,0.122-0.403,0.135c-0.389,0.066-0.714-0.101-0.979-0.496c-0.285-0.398-0.427-0.991-0.441-1.792
			c-0.019-0.779,0.115-1.427,0.365-1.961c0.249-0.53,0.599-0.835,1.025-0.901C65.486,135.233,65.696,135.278,65.896,135.407
			L65.896,135.407z"/>
		
			<path fill="#005CAB" stroke="#FFFFFF" stroke-width="5" stroke-linecap="round" stroke-linejoin="round" stroke-miterlimit="10" d="
			M67.224,135.06l0.487-0.073l0.003,0.832c0.042-0.167,0.139-0.378,0.293-0.638c0.149-0.263,0.324-0.409,0.541-0.437
			c0,0,0.025-0.017,0.047-0.017c0,0,0.054,0,0.115,0l0.013,0.866c-0.029,0-0.054-0.003-0.087,0c0,0-0.041,0-0.079,0
			c-0.259,0.045-0.454,0.211-0.597,0.502c-0.128,0.281-0.189,0.603-0.187,0.949l0.059,2.793l-0.513,0.076L67.224,135.06
			L67.224,135.06z"/>
		
			<path fill="#005CAB" stroke="#FFFFFF" stroke-width="5" stroke-linecap="round" stroke-linejoin="round" stroke-miterlimit="10" d="
			M69.173,133.386l0.525-0.083l0.027,1.358l0.475-0.076l0.026,0.668l-0.487,0.073l0.051,3.171c0.012,0.173,0.054,0.281,0.125,0.326
			c0.036,0.024,0.112,0.028,0.199,0.024c0.025-0.011,0.059-0.011,0.074-0.021c0.038-0.01,0.068-0.01,0.102-0.028l0.02,0.645
			c-0.067,0.038-0.121,0.066-0.182,0.09c-0.064,0.024-0.13,0.042-0.206,0.052c-0.232,0.031-0.416-0.042-0.497-0.222
			c-0.094-0.18-0.135-0.423-0.135-0.728l-0.072-3.226l-0.419,0.069v-0.669l0.398-0.066L69.173,133.386L69.173,133.386z"/>
		
			<path fill="#005CAB" stroke="#FFFFFF" stroke-width="5" stroke-linecap="round" stroke-linejoin="round" stroke-miterlimit="10" d="
			M70.663,134.537l0.517-0.086l0.112,4.841l-0.523,0.09L70.663,134.537L70.663,134.537z M70.634,132.704l0.527-0.08l0.012,0.925
			l-0.517,0.083L70.634,132.704L70.634,132.704z"/>
		
			<path fill="#005CAB" stroke="#FFFFFF" stroke-width="5" stroke-linecap="round" stroke-linejoin="round" stroke-miterlimit="10" d="
			M72.131,132.791c0.107-0.295,0.333-0.475,0.679-0.523c0.039-0.014,0.071-0.018,0.104-0.018c0.029,0,0.065-0.007,0.118-0.01
			l0.006,0.749c-0.05,0.003-0.082,0.003-0.082,0.003c-0.055,0.003-0.075,0.003-0.096,0.018c-0.156,0.024-0.255,0.107-0.279,0.232
			c-0.025,0.128-0.041,0.464-0.021,0.988l0.506-0.083l0.014,0.652l-0.517,0.076l0.089,4.196l-0.513,0.073l-0.087-4.186l-0.43,0.076
			l-0.011-0.645l0.44-0.073l-0.029-0.762C72.039,133.206,72.065,132.963,72.131,132.791L72.131,132.791z"/>
		
			<path fill="#005CAB" stroke="#FFFFFF" stroke-width="5" stroke-linecap="round" stroke-linejoin="round" stroke-miterlimit="10" d="
			M73.483,134.08l0.521-0.083l0.107,4.841l-0.527,0.087L73.483,134.08L73.483,134.08z M73.448,132.253l0.529-0.083l0.016,0.925
			l-0.521,0.086L73.448,132.253L73.448,132.253z"/>
		
			<path fill="#005CAB" stroke="#FFFFFF" stroke-width="5" stroke-linecap="round" stroke-linejoin="round" stroke-miterlimit="10" d="
			M76.764,133.795c0.228,0.229,0.349,0.668,0.407,1.32l-0.492,0.077c-0.041-0.298-0.107-0.53-0.234-0.717
			c-0.105-0.18-0.291-0.253-0.52-0.208c-0.34,0.048-0.555,0.346-0.696,0.873c-0.073,0.34-0.12,0.759-0.105,1.237
			c0.011,0.485,0.074,0.883,0.206,1.199c0.145,0.312,0.359,0.447,0.635,0.392c0.207-0.024,0.388-0.163,0.491-0.381
			c0.132-0.225,0.208-0.526,0.253-0.887l0.501-0.083c-0.056,0.655-0.181,1.144-0.403,1.483c-0.219,0.329-0.519,0.523-0.867,0.585
			c-0.408,0.066-0.723-0.114-0.967-0.541c-0.254-0.43-0.388-0.988-0.396-1.688c-0.021-0.849,0.096-1.535,0.342-2.051
			c0.254-0.51,0.578-0.808,0.989-0.874C76.263,133.477,76.53,133.566,76.764,133.795L76.764,133.795z"/>
		
			<path fill="#005CAB" stroke="#FFFFFF" stroke-width="5" stroke-linecap="round" stroke-linejoin="round" stroke-miterlimit="10" d="
			M78.241,137.437c0.104,0.118,0.234,0.17,0.389,0.146c0.184-0.031,0.354-0.128,0.523-0.288c0.283-0.267,0.417-0.645,0.414-1.15
			l-0.023-0.658c-0.053,0.08-0.14,0.146-0.231,0.201c-0.101,0.062-0.188,0.101-0.296,0.132l-0.304,0.118
			c-0.186,0.073-0.333,0.16-0.427,0.25c-0.154,0.17-0.223,0.416-0.223,0.725C78.063,137.139,78.132,137.316,78.241,137.437
			L78.241,137.437z M79.288,135.057c0.099-0.042,0.186-0.132,0.237-0.271c0.003-0.083,0.019-0.184,0.016-0.322
			c0-0.281-0.075-0.478-0.199-0.582c-0.13-0.107-0.302-0.135-0.534-0.101c-0.28,0.049-0.462,0.194-0.566,0.44
			c-0.064,0.142-0.095,0.326-0.109,0.589l-0.486,0.08c-0.004-0.61,0.109-1.04,0.338-1.317c0.237-0.27,0.51-0.433,0.824-0.478
			c0.359-0.059,0.658,0,0.875,0.184c0.241,0.18,0.348,0.496,0.363,0.97l0.049,2.796c0,0.08,0.013,0.146,0.037,0.198
			c0.022,0.048,0.076,0.066,0.139,0.052c0,0,0.054-0.003,0.083-0.017c0,0,0.05-0.021,0.083-0.035l0.016,0.603
			c-0.078,0.052-0.141,0.076-0.182,0.097c-0.033,0.011-0.101,0.024-0.176,0.042c-0.171,0.028-0.299-0.055-0.391-0.239
			c-0.042-0.107-0.076-0.243-0.101-0.433c-0.078,0.232-0.241,0.447-0.437,0.637c-0.188,0.194-0.406,0.302-0.64,0.343
			c-0.286,0.042-0.526-0.048-0.706-0.294c-0.183-0.243-0.292-0.572-0.292-0.984c-0.009-0.447,0.071-0.811,0.241-1.088
			c0.166-0.288,0.406-0.468,0.693-0.572L79.288,135.057L79.288,135.057z"/>
		
			<path fill="#005CAB" stroke="#FFFFFF" stroke-width="5" stroke-linecap="round" stroke-linejoin="round" stroke-miterlimit="10" d="
			M82.837,132.821c0.218,0.232,0.357,0.669,0.417,1.317l-0.504,0.083c-0.033-0.298-0.109-0.533-0.218-0.713
			c-0.117-0.188-0.29-0.257-0.536-0.219c-0.327,0.052-0.558,0.347-0.692,0.88c-0.091,0.347-0.109,0.755-0.109,1.237
			c0.008,0.492,0.082,0.887,0.225,1.195c0.134,0.315,0.338,0.447,0.621,0.402c0.209-0.035,0.379-0.167,0.495-0.388
			c0.108-0.235,0.208-0.52,0.247-0.887l0.5-0.09c-0.044,0.658-0.181,1.15-0.398,1.487c-0.24,0.336-0.516,0.533-0.881,0.589
			c-0.395,0.059-0.727-0.111-0.965-0.544c-0.252-0.426-0.376-0.988-0.402-1.684c-0.01-0.849,0.113-1.542,0.367-2.055
			c0.25-0.516,0.576-0.8,0.978-0.87C82.329,132.502,82.611,132.593,82.837,132.821L82.837,132.821z"/>
		
			<path fill="#005CAB" stroke="#FFFFFF" stroke-width="5" stroke-linecap="round" stroke-linejoin="round" stroke-miterlimit="10" d="
			M83.677,132.451l0.52-0.08l0.113,4.841l-0.541,0.08L83.677,132.451L83.677,132.451z M83.642,130.628l0.521-0.086l0.014,0.922
			l-0.51,0.09L83.642,130.628L83.642,130.628z"/>
		
			<path fill="#005CAB" stroke="#FFFFFF" stroke-width="5" stroke-linecap="round" stroke-linejoin="round" stroke-miterlimit="10" d="
			M86.712,129.983l-0.736,1.435l-0.398,0.059l0.504-1.396L86.712,129.983L86.712,129.983z M86.893,135.639
			c0.116-0.423,0.175-0.894,0.168-1.39c-0.013-0.454-0.065-0.818-0.168-1.088c-0.141-0.419-0.401-0.613-0.757-0.551
			c-0.309,0.052-0.525,0.274-0.668,0.672c-0.133,0.413-0.191,0.88-0.17,1.421c0.008,0.513,0.084,0.936,0.229,1.254
			c0.15,0.319,0.376,0.461,0.69,0.412C86.546,136.311,86.772,136.072,86.893,135.639L86.893,135.639z M87.147,132.364
			c0.279,0.377,0.424,0.956,0.445,1.774c0.019,0.783-0.09,1.452-0.316,1.993c-0.229,0.554-0.594,0.87-1.091,0.942
			c-0.432,0.066-0.771-0.104-1.022-0.506c-0.253-0.423-0.391-1.001-0.405-1.767c-0.014-0.821,0.094-1.483,0.355-2.01
			c0.245-0.523,0.591-0.818,1.022-0.894C86.534,131.827,86.878,131.986,87.147,132.364L87.147,132.364z"/>
		
			<path fill="#005CAB" stroke="#FFFFFF" stroke-width="5" stroke-linecap="round" stroke-linejoin="round" stroke-miterlimit="10" d="
			M88.126,131.723l0.485-0.087l0.011,0.693c0.139-0.302,0.287-0.534,0.443-0.686c0.17-0.142,0.361-0.236,0.543-0.274
			c0.436-0.066,0.725,0.132,0.891,0.589c0.109,0.246,0.15,0.613,0.16,1.105l0.059,3.119l-0.526,0.087l-0.054-3.067
			c-0.011-0.294-0.043-0.527-0.1-0.704c-0.096-0.291-0.27-0.422-0.514-0.374c-0.116,0.021-0.217,0.048-0.289,0.104
			c-0.139,0.094-0.27,0.239-0.369,0.464c-0.08,0.177-0.139,0.346-0.165,0.52c-0.024,0.177-0.031,0.423-0.024,0.745l0.058,2.54
			l-0.522,0.086L88.126,131.723L88.126,131.723z"/>
		
			<path fill="#005CAB" stroke="#FFFFFF" stroke-width="5" stroke-linecap="round" stroke-linejoin="round" stroke-miterlimit="10" d="
			M26.659,141.543l0.475-0.08l0.025,0.845c0.033-0.177,0.129-0.392,0.277-0.651c0.154-0.26,0.338-0.398,0.543-0.437
			c0,0,0.023,0,0.047-0.003c0,0,0.074,0,0.112,0l0.019,0.863l-0.057-0.007c-0.041,0.003-0.074,0.003-0.118,0.007
			c-0.241,0.045-0.45,0.218-0.582,0.496c-0.136,0.291-0.192,0.61-0.188,0.946l0.053,2.8l-0.516,0.083L26.659,141.543L26.659,141.543
			z"/>
		
			<path fill="#005CAB" stroke="#FFFFFF" stroke-width="5" stroke-linecap="round" stroke-linejoin="round" stroke-miterlimit="10" d="
			M30.319,142.032c-0.162-0.263-0.357-0.377-0.6-0.339c-0.357,0.059-0.596,0.364-0.737,0.929c-0.054,0.294-0.091,0.676-0.075,1.147
			c0.015,0.541,0.098,0.949,0.241,1.209c0.142,0.267,0.325,0.381,0.571,0.339c0.369-0.066,0.621-0.364,0.754-0.915
			c0.074-0.315,0.117-0.669,0.117-1.074C30.583,142.732,30.491,142.302,30.319,142.032L30.319,142.032z M30.249,141.169
			c0.092,0.09,0.19,0.222,0.299,0.413l-0.015-0.613l0.475-0.073l0.092,4.421c0.016,0.613-0.034,1.109-0.142,1.483
			c-0.201,0.697-0.594,1.085-1.192,1.178c-0.327,0.056-0.606-0.014-0.833-0.215c-0.236-0.201-0.349-0.544-0.398-1.043l0.524-0.08
			c0.021,0.215,0.078,0.381,0.152,0.478c0.13,0.167,0.313,0.222,0.555,0.18c0.392-0.052,0.655-0.319,0.75-0.779
			c0.075-0.271,0.092-0.742,0.075-1.407c-0.091,0.264-0.227,0.468-0.351,0.614c-0.151,0.142-0.333,0.232-0.573,0.273
			c-0.326,0.052-0.626-0.086-0.881-0.43c-0.252-0.333-0.379-0.929-0.406-1.792c-0.018-0.814,0.09-1.469,0.339-1.965
			c0.239-0.496,0.53-0.772,0.89-0.828C29.849,140.944,30.062,141.01,30.249,141.169L30.249,141.169z"/>
	</g>
	<g>
		<path fill-rule="evenodd" clip-rule="evenodd" fill="#005CAB" d="M21.827,120.485l60.705-9.723
			c4.987-1.092,6.952-2.388,8.906-8.043c0,9.997,0,15.244,0,15.244c-0.105,4.771-1.312,8.68-6.721,9.917
			c-7.414,1.157-62.891,10.146-62.891,10.146V120.485L21.827,120.485z"/>
		<path fill="#005CAB" d="M26.116,109.123c1.359-1.227,2.199-2.096,2.516-2.633c0.326-0.551,0.492-1.099,0.492-1.67
			c0-0.634-0.191-1.109-0.54-1.441c-0.353-0.329-0.868-0.44-1.507-0.347c-0.565,0.087-1.04,0.329-1.414,0.707
			c-0.38,0.381-0.639,0.863-0.791,1.438c-0.131,0.426-0.188,1.033-0.191,1.816l-2.497,0.398v5.621
			c0.272-0.326,0.575-0.666,0.913-1.022C23.755,111.285,24.772,110.329,26.116,109.123L26.116,109.123z"/>
		<path fill="#005CAB" d="M74.644,77.559c0.603,0.447,1.263,0.593,2.012,0.464c0.736-0.125,1.408-0.509,2.016-1.147
			c0.617-0.634,1.087-1.711,1.424-3.198c0.455-1.958,0.68-4.397,0.691-7.308c0.01-2.207-0.15-4.037-0.462-5.482
			c-0.309-1.462-0.77-2.425-1.396-2.883c-0.633-0.461-1.351-0.627-2.165-0.489c-1.144,0.198-2.01,0.884-2.625,2.059
			c-0.96,1.864-1.444,4.761-1.457,8.708c-0.017,2.827,0.186,5.062,0.591,6.705C73.585,76.249,74.03,77.112,74.644,77.559
			L74.644,77.559z"/>
		<path fill="#005CAB" d="M90.884,47.575l-10.347,2.089c0.739,0.104,1.443,0.271,2.06,0.551c1.52,0.676,2.762,1.802,3.757,3.42
			c1.007,1.583,1.726,3.417,2.161,5.489c0.438,2.072,0.645,4.279,0.641,6.611c-0.007,3.562-0.504,6.844-1.453,9.821
			c-0.95,2.977-2.393,5.34-4.322,7.11c-1.903,1.753-4.168,2.862-6.758,3.306c-3.708,0.627-6.595-0.291-8.707-2.765
			c-2.429-2.89-3.633-7.229-3.609-13.008c0.012-3.115,0.418-6.175,1.23-9.176c0.799-3.004,2.152-5.496,4.064-7.478
			c0.872-0.915,1.865-1.656,2.955-2.259l-13.774,2.783c0.061,0.038,0.128,0.069,0.202,0.114c0.883,0.565,1.617,1.268,2.182,2.107
			c0.568,0.838,1.01,1.719,1.297,2.644c0.325,0.904,0.57,1.996,0.758,3.257l-9.117,1.569c-0.215-0.998-0.617-1.691-1.213-2.086
			c-0.601-0.426-1.449-0.541-2.566-0.347c-1.09,0.184-1.918,0.6-2.496,1.227c-0.439,0.492-0.652,1.063-0.652,1.705
			c-0.012,0.551,0.145,0.974,0.479,1.261c0.449,0.416,1.538,0.731,3.241,0.939l3.72,0.457c3.444,0.43,5.873,1.442,7.251,3.06
			c1.384,1.625,2.075,3.649,2.067,6.095c-0.011,1.951-0.371,3.798-1.107,5.537c-0.717,1.719-1.6,3.129-2.658,4.238
			c-1.047,1.109-2.408,2.076-4.074,2.897c-1.684,0.845-3.439,1.41-5.27,1.729c-2.02,0.343-3.918,0.357-5.686,0.024
			c-1.775-0.343-3.24-0.998-4.391-1.992c-1.137-0.991-1.991-2.214-2.591-3.68c-0.409-1.04-0.692-2.349-0.839-3.957l9.22-1.577
			c0.208,1.088,0.661,1.875,1.379,2.349c0.716,0.482,1.795,0.6,3.278,0.343c1.281-0.222,2.216-0.634,2.795-1.265
			c0.412-0.451,0.611-1.033,0.625-1.736c0-0.71-0.205-1.261-0.572-1.628c-0.383-0.378-1.424-0.679-3.147-0.884l-3.346-0.43
			c-1.747-0.211-3.386-0.631-4.919-1.261c-1.527-0.638-2.684-1.598-3.449-2.869c-0.783-1.292-1.16-2.945-1.154-4.966
			c0.009-1.985,0.367-3.822,1.076-5.482c0.645-1.528,1.495-2.831,2.535-3.933l-6.369,1.3L35.14,92.178l-9.581,1.629l0.109-33.037
			l-3.442,0.696l-0.033,40.058c1.233-1.462,2.921-2.356,5.103-2.699c1.013-0.156,1.954-0.17,2.806-0.018
			c0.881,0.142,1.594,0.433,2.147,0.874c0.56,0.433,1.001,0.991,1.325,1.681c0.342,0.668,0.492,1.486,0.492,2.45
			c0,0.772-0.1,1.473-0.338,2.104c-0.221,0.624-0.542,1.233-0.972,1.795c-0.415,0.554-1.241,1.358-2.448,2.408
			c-0.207,0.19-1.566,1.303-4.058,3.354l7.798-1.209v3.507c0.072-0.011,0.143-0.014,0.212-0.028c0.044-0.517,0.118-1.029,0.239-1.49
			c0.215-0.734,0.531-1.448,0.961-2.114c0.413-0.679,1.054-1.462,1.913-2.374c0.662-0.707,1.674-1.653,3.023-2.862
			c1.358-1.227,2.2-2.1,2.517-2.641c0.325-0.537,0.475-1.091,0.486-1.663c0-0.634-0.191-1.109-0.541-1.448
			c-0.361-0.319-0.863-0.44-1.504-0.336c-0.573,0.087-1.032,0.322-1.424,0.7c-0.376,0.392-0.622,0.87-0.783,1.441
			c-0.116,0.43-0.177,1.033-0.184,1.812l-4.465,0.7c0-2.488,0.619-4.501,1.849-6.029c1.226-1.542,2.966-2.492,5.229-2.841
			c1.01-0.16,1.952-0.16,2.812-0.018c0.859,0.146,1.58,0.437,2.147,0.884c0.549,0.419,0.982,0.987,1.308,1.677
			c0.333,0.668,0.508,1.483,0.508,2.45c0,0.773-0.121,1.462-0.35,2.1c-0.217,0.637-0.541,1.23-0.979,1.795
			c-0.404,0.558-1.223,1.362-2.432,2.412c-0.203,0.184-1.562,1.299-4.056,3.358l7.792-1.22v3.663
			c1.031-0.156,2.094-0.302,3.141-0.468c-0.376-0.226-0.727-0.513-1.041-0.846c-1.438-1.559-2.15-3.895-2.15-7
			c0-1.67,0.225-3.32,0.695-4.931c0.455-1.611,1.258-2.949,2.38-4.02c1.116-1.078,2.558-1.753,4.31-2.023
			c1.312-0.211,2.41-0.128,3.303,0.246c0.888,0.36,1.619,0.978,2.199,1.84c0.602,0.849,1.018,1.833,1.284,2.952
			c0.108,0.479,0.188,0.981,0.249,1.483c0.123-0.901,0.302-1.806,0.551-2.7c0.467-1.615,1.25-2.956,2.376-4.023
			c1.133-1.081,2.563-1.75,4.326-2.024c1.305-0.204,2.403-0.121,3.296,0.25c0.892,0.364,1.619,0.974,2.199,1.837
			c0.6,0.849,1.021,1.836,1.285,2.952c0.111,0.485,0.185,0.977,0.26,1.487c0.097-0.908,0.275-1.809,0.538-2.703
			c0.454-1.611,1.259-2.952,2.379-4.02c1.12-1.084,2.56-1.753,4.31-2.023c1.31-0.208,2.411-0.125,3.295,0.246
			c0.889,0.364,1.636,0.981,2.223,1.84c0.496,0.717,0.873,1.545,1.132,2.457c0.122-1.053,0.177-2.131,0.216-3.226L90.884,47.575
			L90.884,47.575z"/>
		<path fill="#005CAB" d="M62.683,105.315c-0.128,1.029-0.358,2.027-0.666,2.966c-0.543,1.556-1.362,2.813-2.449,3.746
			c2.166-0.326,4.278-0.651,6.277-0.96c-0.421-0.242-0.791-0.537-1.137-0.911C63.62,108.981,62.94,107.356,62.683,105.315
			L62.683,105.315z"/>
		<path fill="#005CAB" d="M71.097,96.617c-0.362-0.246-0.773-0.339-1.266-0.267c-0.658,0.104-1.183,0.475-1.533,1.112
			c-0.558,0.991-0.836,2.554-0.836,4.671c0,1.518,0.121,2.72,0.365,3.604c0.172,0.689,0.438,1.147,0.804,1.393
			c0.351,0.225,0.745,0.315,1.185,0.246c0.427-0.069,0.818-0.273,1.179-0.617c0.362-0.346,0.629-0.915,0.828-1.715
			c0.255-1.063,0.385-2.367,0.385-3.926c0-1.192-0.091-2.176-0.286-2.949C71.739,97.387,71.472,96.867,71.097,96.617L71.097,96.617z
			"/>
		<path fill="#005CAB" d="M56.827,98.832c-0.377-0.25-0.792-0.333-1.268-0.253c-0.666,0.101-1.188,0.471-1.536,1.102
			c-0.563,0.998-0.842,2.557-0.842,4.678c0,1.528,0.128,2.727,0.362,3.607c0.187,0.676,0.445,1.144,0.807,1.386
			c0.359,0.232,0.747,0.315,1.172,0.246c0.445-0.059,0.84-0.277,1.187-0.617c0.358-0.347,0.634-0.915,0.833-1.712
			c0.255-1.063,0.389-2.37,0.389-3.926c0-1.199-0.092-2.173-0.284-2.949C57.468,99.608,57.188,99.088,56.827,98.832L56.827,98.832z"
			/>
		<path fill="#005CAB" d="M76.958,103.076c-0.129,1.043-0.346,2.041-0.671,2.98c-0.532,1.552-1.345,2.792-2.437,3.735
			c2.62-0.44,4.729-0.808,6.058-1.081c-0.329-0.222-0.643-0.479-0.925-0.776C77.896,106.76,77.225,105.145,76.958,103.076
			L76.958,103.076z"/>
		<path fill="#005CAB" d="M85.382,94.389c-0.365-0.25-0.787-0.329-1.266-0.26c-0.682,0.104-1.178,0.471-1.549,1.105
			c-0.551,0.998-0.83,2.557-0.83,4.678c0,1.521,0.117,2.724,0.371,3.611c0.178,0.679,0.445,1.147,0.805,1.382
			c0.352,0.239,0.754,0.319,1.174,0.246c0.436-0.065,0.841-0.267,1.176-0.613c0.381-0.346,0.641-0.918,0.84-1.719
			c0.262-1.053,0.389-2.367,0.389-3.919c0-1.192-0.098-2.18-0.279-2.959C86.026,95.148,85.751,94.642,85.382,94.389L85.382,94.389z"
			/>
		<path fill="#FFFFFF" d="M26.25,113.472c2.491-2.052,3.851-3.164,4.058-3.354c1.207-1.05,2.033-1.854,2.448-2.408
			c0.43-0.562,0.751-1.171,0.972-1.795c0.238-0.631,0.338-1.331,0.338-2.104c0-0.963-0.15-1.781-0.492-2.45
			c-0.324-0.69-0.766-1.248-1.325-1.681c-0.554-0.44-1.267-0.731-2.147-0.874c-0.852-0.152-1.793-0.139-2.806,0.018
			c-2.182,0.343-3.869,1.237-5.103,2.699l-0.009,5.867l2.497-0.398c0.003-0.783,0.061-1.39,0.191-1.816
			c0.152-0.575,0.411-1.057,0.791-1.438c0.374-0.378,0.849-0.62,1.414-0.707c0.639-0.093,1.154,0.018,1.507,0.347
			c0.349,0.333,0.54,0.807,0.54,1.441c0,0.572-0.166,1.119-0.492,1.67c-0.316,0.537-1.156,1.407-2.516,2.633
			c-1.344,1.206-2.361,2.162-3.02,2.866c-0.338,0.357-0.641,0.697-0.913,1.022v4.446c0,0,4.894-0.679,11.864-1.688v-3.507
			L26.25,113.472L26.25,113.472z"/>
		<path fill="#FFFFFF" d="M40.537,111.254c2.493-2.059,3.853-3.174,4.056-3.358c1.209-1.05,2.027-1.854,2.432-2.412
			c0.438-0.565,0.762-1.158,0.979-1.795c0.229-0.638,0.35-1.327,0.35-2.1c0-0.967-0.175-1.781-0.508-2.45
			c-0.325-0.69-0.759-1.258-1.308-1.677c-0.567-0.447-1.288-0.738-2.147-0.884c-0.86-0.142-1.803-0.142-2.812,0.018
			c-2.264,0.35-4.004,1.299-5.229,2.841c-1.229,1.528-1.849,3.542-1.849,6.029l4.465-0.7c0.007-0.78,0.067-1.383,0.184-1.812
			c0.161-0.572,0.407-1.05,0.783-1.441c0.392-0.378,0.851-0.613,1.424-0.7c0.641-0.104,1.143,0.018,1.504,0.336
			c0.35,0.339,0.541,0.814,0.541,1.448c-0.012,0.572-0.161,1.126-0.486,1.663c-0.316,0.541-1.158,1.414-2.517,2.641
			c-1.35,1.209-2.361,2.155-3.023,2.862c-0.859,0.911-1.5,1.694-1.913,2.374c-0.43,0.666-0.746,1.379-0.961,2.114
			c-0.121,0.461-0.195,0.974-0.239,1.49c4.153-0.593,9.037-1.307,14.069-2.044v-3.663L40.537,111.254L40.537,111.254z"/>
		<path fill="#FFFFFF" d="M57.542,107.269c-0.199,0.797-0.475,1.365-0.833,1.712c-0.347,0.34-0.741,0.558-1.187,0.617
			c-0.425,0.069-0.812-0.014-1.172-0.246c-0.361-0.243-0.62-0.71-0.807-1.386c-0.234-0.88-0.362-2.079-0.362-3.607
			c0-2.121,0.278-3.68,0.842-4.678c0.349-0.631,0.87-1.001,1.536-1.102c0.476-0.08,0.891,0.003,1.268,0.253
			c0.361,0.256,0.641,0.776,0.819,1.563c0.192,0.776,0.284,1.75,0.284,2.949C57.931,104.899,57.797,106.206,57.542,107.269
			L57.542,107.269z M62.017,108.281c0.308-0.939,0.538-1.937,0.666-2.966c-0.083-0.679-0.128-1.396-0.128-2.152
			c0-0.752,0.054-1.497,0.144-2.231c-0.061-0.502-0.141-1.005-0.249-1.483c-0.267-1.119-0.683-2.103-1.284-2.952
			c-0.58-0.863-1.312-1.48-2.199-1.84c-0.893-0.374-1.99-0.457-3.303-0.246c-1.752,0.27-3.193,0.946-4.31,2.023
			c-1.122,1.071-1.925,2.408-2.38,4.02c-0.471,1.611-0.695,3.261-0.695,4.931c0,3.104,0.712,5.44,2.15,7
			c0.314,0.333,0.665,0.62,1.041,0.846c2.732-0.392,5.455-0.804,8.098-1.203C60.654,111.095,61.474,109.837,62.017,108.281
			L62.017,108.281z"/>
		<path fill="#FFFFFF" d="M71.822,105.044c-0.199,0.801-0.466,1.369-0.828,1.715c-0.36,0.343-0.752,0.547-1.179,0.617
			c-0.439,0.069-0.834-0.021-1.185-0.246c-0.366-0.246-0.632-0.704-0.804-1.393c-0.244-0.884-0.365-2.086-0.365-3.604
			c0-2.117,0.278-3.68,0.836-4.671c0.351-0.638,0.875-1.008,1.533-1.112c0.492-0.073,0.903,0.021,1.266,0.267
			c0.375,0.25,0.643,0.77,0.824,1.552c0.195,0.773,0.286,1.757,0.286,2.949C72.207,102.678,72.077,103.981,71.822,105.044
			L71.822,105.044z M76.287,106.057c0.325-0.939,0.542-1.937,0.671-2.98c-0.092-0.665-0.115-1.382-0.115-2.134
			c0-0.755,0.046-1.494,0.148-2.231c-0.075-0.51-0.148-1.001-0.26-1.487c-0.264-1.116-0.686-2.104-1.285-2.952
			c-0.58-0.863-1.308-1.473-2.199-1.837c-0.893-0.371-1.991-0.454-3.296-0.25c-1.763,0.274-3.193,0.943-4.326,2.024
			c-1.126,1.067-1.909,2.408-2.376,4.023c-0.249,0.894-0.428,1.798-0.551,2.7c0.089,0.675,0.15,1.351,0.15,2.065
			c0,0.804-0.062,1.563-0.166,2.318c0.258,2.041,0.938,3.666,2.025,4.841c0.346,0.374,0.716,0.669,1.137,0.911
			c2.967-0.46,5.686-0.894,8.006-1.275C74.942,108.849,75.755,107.609,76.287,106.057L76.287,106.057z"/>
		<path fill="#FFFFFF" d="M62.683,105.315c0.104-0.755,0.166-1.514,0.166-2.318c0-0.714-0.062-1.39-0.15-2.065
			c-0.09,0.734-0.144,1.479-0.144,2.231C62.555,103.918,62.6,104.636,62.683,105.315L62.683,105.315z"/>
		<path fill="#FFFFFF" d="M86.103,102.82c-0.199,0.801-0.459,1.373-0.84,1.719c-0.335,0.347-0.74,0.548-1.176,0.613
			c-0.42,0.073-0.822-0.007-1.174-0.246c-0.359-0.235-0.627-0.703-0.805-1.382c-0.254-0.887-0.371-2.089-0.371-3.611
			c0-2.121,0.279-3.68,0.83-4.678c0.371-0.634,0.867-1.001,1.549-1.105c0.479-0.069,0.9,0.01,1.266,0.26
			c0.369,0.253,0.645,0.759,0.83,1.552c0.182,0.78,0.279,1.768,0.279,2.959C86.491,100.453,86.364,101.767,86.103,102.82
			L86.103,102.82z M87.513,90.21c-0.884-0.371-1.985-0.454-3.295-0.246c-1.75,0.27-3.189,0.939-4.31,2.023
			c-1.12,1.067-1.925,2.408-2.379,4.02c-0.263,0.894-0.441,1.795-0.538,2.703c0.07,0.665,0.121,1.351,0.121,2.065
			c0,0.797-0.055,1.563-0.154,2.301c0.267,2.069,0.938,3.684,2.025,4.858c0.282,0.298,0.596,0.554,0.925,0.776
			c0.246-0.052,0.466-0.097,0.657-0.146c6.771-1.591,9.562-7.194,10.302-14.059c-0.259-0.911-0.636-1.739-1.132-2.457
			C89.148,91.191,88.401,90.574,87.513,90.21L87.513,90.21z"/>
		<path fill="#FFFFFF" d="M76.958,103.076c0.1-0.738,0.154-1.504,0.154-2.301c0-0.714-0.051-1.4-0.121-2.065
			c-0.103,0.738-0.148,1.476-0.148,2.231C76.843,101.694,76.866,102.411,76.958,103.076L76.958,103.076z"/>
		<polygon fill="#FFFFFF" points="35.14,92.178 35.269,58.83 25.668,60.77 25.559,93.807 35.14,92.178 		"/>
		<path fill="#FFFFFF" d="M38.026,66.945c-0.006,2.021,0.371,3.673,1.154,4.966c0.766,1.271,1.922,2.231,3.449,2.869
			c1.533,0.63,3.172,1.05,4.919,1.261l3.346,0.43c1.724,0.205,2.765,0.506,3.147,0.884c0.367,0.367,0.572,0.918,0.572,1.628
			c-0.014,0.704-0.213,1.286-0.625,1.736c-0.579,0.63-1.514,1.043-2.795,1.265c-1.483,0.256-2.562,0.139-3.278-0.343
			c-0.718-0.475-1.171-1.261-1.379-2.349l-9.22,1.577c0.146,1.608,0.43,2.917,0.839,3.957c0.6,1.466,1.454,2.689,2.591,3.68
			c1.15,0.995,2.615,1.649,4.391,1.992c1.768,0.333,3.666,0.319,5.686-0.024c1.83-0.319,3.586-0.884,5.27-1.729
			c1.666-0.821,3.027-1.788,4.074-2.897c1.059-1.109,1.941-2.52,2.658-4.238c0.736-1.739,1.097-3.586,1.107-5.537
			c0.008-2.446-0.684-4.47-2.067-6.095c-1.378-1.618-3.807-2.63-7.251-3.06l-3.72-0.457c-1.703-0.208-2.792-0.523-3.241-0.939
			c-0.334-0.288-0.49-0.71-0.479-1.261c0-0.641,0.213-1.213,0.652-1.705c0.578-0.627,1.406-1.043,2.496-1.227
			c1.117-0.194,1.966-0.08,2.566,0.347c0.596,0.395,0.998,1.088,1.213,2.086l9.117-1.569c-0.188-1.262-0.433-2.353-0.758-3.257
			c-0.287-0.925-0.729-1.806-1.297-2.644c-0.564-0.839-1.299-1.542-2.182-2.107c-0.074-0.045-0.142-0.076-0.202-0.114L41.638,57.53
			c-1.04,1.102-1.891,2.405-2.535,3.933C38.394,63.123,38.035,64.959,38.026,66.945L38.026,66.945z"/>
		<path fill="#FFFFFF" d="M74.139,59.575c0.615-1.175,1.481-1.861,2.625-2.059c0.814-0.139,1.532,0.028,2.165,0.489
			c0.626,0.458,1.087,1.42,1.396,2.883c0.312,1.445,0.472,3.275,0.462,5.482c-0.012,2.911-0.236,5.35-0.691,7.308
			c-0.337,1.487-0.807,2.564-1.424,3.198c-0.607,0.638-1.279,1.022-2.016,1.147c-0.749,0.128-1.409-0.017-2.012-0.464
			c-0.613-0.447-1.059-1.31-1.371-2.571c-0.405-1.643-0.607-3.878-0.591-6.705C72.694,64.335,73.179,61.439,74.139,59.575
			L74.139,59.575z M65.536,61.023c-0.812,3.001-1.219,6.061-1.23,9.176c-0.023,5.78,1.181,10.118,3.609,13.008
			c2.112,2.474,4.999,3.393,8.707,2.765c2.59-0.443,4.854-1.552,6.758-3.306c1.93-1.771,3.372-4.134,4.322-7.11
			c0.949-2.977,1.446-6.258,1.453-9.821c0.004-2.332-0.203-4.539-0.641-6.611c-0.436-2.072-1.154-3.905-2.161-5.489
			c-0.995-1.618-2.237-2.745-3.757-3.42c-0.616-0.28-1.32-0.447-2.06-0.551l-7.981,1.622c-1.09,0.603-2.083,1.345-2.955,2.259
			C67.688,55.527,66.335,58.019,65.536,61.023L65.536,61.023z"/>
		<path fill-rule="evenodd" clip-rule="evenodd" fill="#FFFFFF" d="M24.741,136.668l5.348-15.822l4.968-0.838l5.333,13.999
			l-4.867,0.832l-0.574-1.854l-4.859,0.825l-0.564,2.044L24.741,136.668L24.741,136.668z M32.515,124.917l-1.521,5.676l3.104-0.534
			L32.515,124.917L32.515,124.917z"/>
		<path fill-rule="evenodd" clip-rule="evenodd" fill="#FFFFFF" d="M55.218,122.277l-4.611,0.787
			c-0.088-0.728-0.354-1.261-0.804-1.594c-0.454-0.343-1.017-0.454-1.717-0.343c-0.849,0.152-1.549,0.606-2.104,1.362
			c-0.542,0.773-0.821,1.906-0.821,3.413c0,1.033,0.125,1.798,0.352,2.301c0.241,0.502,0.559,0.855,0.971,1.053
			c0.422,0.18,0.945,0.222,1.553,0.125c0.75-0.125,1.352-0.44,1.797-0.925c0.445-0.496,0.699-1.151,0.785-1.986l4.708-0.793
			c-0.108,0.939-0.282,1.75-0.558,2.426c-0.268,0.668-0.7,1.375-1.343,2.117c-0.622,0.734-1.365,1.355-2.24,1.85
			c-0.862,0.492-1.862,0.825-2.995,1.026c-1.134,0.187-2.195,0.194-3.16,0.024c-0.951-0.173-1.763-0.52-2.409-1.019
			c-0.658-0.513-1.166-1.133-1.546-1.871c-0.512-1.022-0.775-2.218-0.775-3.586c0-1.147,0.188-2.266,0.564-3.32
			c0.375-1.081,0.891-1.996,1.549-2.786c0.662-0.787,1.387-1.428,2.184-1.902c1.032-0.61,2.166-1.012,3.395-1.22
			c1.078-0.191,2.094-0.191,3.035-0.039c0.939,0.163,1.726,0.502,2.326,1.022c0.607,0.513,1.074,1.144,1.398,1.896
			C54.977,120.829,55.143,121.494,55.218,122.277L55.218,122.277z"/>
		<path fill-rule="evenodd" clip-rule="evenodd" fill="#FFFFFF" d="M70.413,119.702l-4.631,0.783
			c-0.086-0.731-0.358-1.261-0.799-1.597c-0.447-0.34-1.027-0.451-1.713-0.34c-0.863,0.142-1.566,0.603-2.112,1.369
			c-0.542,0.77-0.808,1.902-0.808,3.406c0,1.029,0.113,1.795,0.34,2.297c0.234,0.506,0.564,0.849,0.963,1.05
			c0.422,0.19,0.946,0.239,1.553,0.125c0.75-0.125,1.355-0.426,1.793-0.918c0.451-0.496,0.719-1.154,0.805-1.986l4.705-0.793
			c-0.096,0.942-0.295,1.743-0.558,2.429c-0.262,0.669-0.716,1.382-1.345,2.11c-0.629,0.734-1.373,1.355-2.248,1.843
			c-0.858,0.496-1.859,0.835-2.992,1.022c-1.143,0.204-2.19,0.218-3.15,0.038c-0.96-0.177-1.774-0.513-2.419-1.033
			c-0.661-0.496-1.171-1.116-1.536-1.861c-0.527-1.033-0.783-2.221-0.783-3.586c0-1.15,0.195-2.263,0.573-3.33
			c0.376-1.057,0.88-1.982,1.54-2.779c0.66-0.791,1.393-1.421,2.188-1.896c1.021-0.61,2.159-1.019,3.396-1.224
			c1.066-0.184,2.078-0.194,3.029-0.034c0.945,0.156,1.711,0.495,2.328,1.022c0.617,0.516,1.068,1.144,1.4,1.899
			C70.166,118.247,70.323,118.912,70.413,119.702L70.413,119.702z"/>
		<polygon fill-rule="evenodd" clip-rule="evenodd" fill="#FFFFFF" points="71.437,128.729 71.437,113.825 77.349,112.817 
			79.983,121.677 82.587,111.923 88.505,110.925 88.505,125.829 84.077,126.584 84.077,118.219 81.669,126.99 78.245,127.572 
			75.842,119.619 75.842,127.988 71.437,128.729 		"/>
		<polygon fill-rule="evenodd" clip-rule="evenodd" fill="#ED1C24" points="22.233,50.797 91.026,37.439 91.026,44.276 
			22.233,57.637 22.233,50.797 		"/>
		<polygon fill-rule="evenodd" clip-rule="evenodd" fill="#FFE100" points="22.233,53.022 91.026,39.664 91.026,42.183 
			22.233,55.544 22.233,53.022 		"/>
		<polygon fill="#005CAB" points="54.077,9.33 51.136,7.493 52.985,4.544 55.919,6.38 54.077,9.33 		"/>
		<path fill="#005CAB" d="M62.208,30.446l-1.05-4.986c3.403-0.052,6.028-2.717,6.028-5.995c0-3.316-2.688-5.998-5.992-5.998
			c-0.953,0-1.84,0.25-2.661,0.648c-0.396,0.225-0.811,0.603-1.282,0.988c-0.59,0.46-1.268,1.479-1.527,1.899l-0.306,0.014
			l-0.302-0.256c-0.448-0.416-0.689-0.541-0.953-0.651c-0.59-0.264-1.411-0.468-2.428-0.714c-0.162-0.014-0.324-0.042-0.487-0.042
			c-3.312,0-5.999,2.678-5.999,5.995c0,3.316,2.688,6.001,5.999,6.001l0.388-0.017l1.318,6.171
			c-1.781,2.131-4.451,3.482-7.441,3.482c-5.326,0-9.654-4.314-9.654-9.654c0-3.846,2.239-7.173,5.496-8.726
			c1.197-4.342,5.183-7.53,9.894-7.53c1.146,0,2.263,0.194,3.296,0.544c1.809-1.524,4.123-2.425,6.65-2.425
			c3.209,0,6.071,1.469,7.961,3.763c4.666,0.686,8.24,4.712,8.24,9.564c0,5.336-4.315,9.671-9.655,9.671
			C65.686,32.193,63.774,31.544,62.208,30.446L62.208,30.446z M71.397,18.218c0.039,0.419,0.068,0.821,0.068,1.247
			c0,3.614-1.865,6.789-4.692,8.615c0.315,0.066,0.644,0.09,0.967,0.09c3.115,0,5.64-2.522,5.64-5.648
			C73.38,20.803,72.618,19.261,71.397,18.218L71.397,18.218z M41.239,23.647c-0.85,0.988-1.367,2.277-1.367,3.684
			c0,3.115,2.523,5.634,5.641,5.634c1.499,0,2.857-0.575,3.863-1.511C45.351,30.709,42.146,27.612,41.239,23.647L41.239,23.647z"/>
		<polygon fill-rule="evenodd" clip-rule="evenodd" fill="#005CAB" points="22.523,45 23.075,44.896 23.075,48.995 22.523,49.099 
			22.523,45 		"/>
		<polygon fill-rule="evenodd" clip-rule="evenodd" fill="#005CAB" points="23.894,44.74 24.558,44.615 26.624,47.54 26.624,44.224 
			27.159,44.12 27.159,48.216 26.517,48.33 24.429,45.419 24.429,48.732 23.894,48.833 23.894,44.74 		"/>
		<path fill-rule="evenodd" clip-rule="evenodd" fill="#005CAB" d="M31.306,43.912c0.275,0.312,0.4,0.756,0.4,1.324
			c0,0.606-0.145,1.144-0.449,1.611c-0.358,0.544-0.893,0.88-1.559,1.005c-0.64,0.125-1.114,0.011-1.499-0.339
			c-0.317-0.329-0.458-0.818-0.458-1.424c0-0.558,0.125-1.053,0.397-1.507c0.343-0.572,0.882-0.929,1.564-1.05
			C30.429,43.385,30.963,43.517,31.306,43.912L31.306,43.912z M30.815,46.622c0.225-0.398,0.344-0.818,0.344-1.271
			c0-0.485-0.127-0.849-0.389-1.095c-0.255-0.246-0.588-0.322-1.038-0.246c-0.412,0.083-0.766,0.294-1.036,0.638
			c-0.264,0.339-0.392,0.793-0.392,1.362c0,0.451,0.112,0.811,0.341,1.084c0.238,0.267,0.604,0.35,1.113,0.256
			C30.249,47.263,30.603,47.017,30.815,46.622L30.815,46.622z"/>
		<path fill-rule="evenodd" clip-rule="evenodd" fill="#005CAB" d="M35.231,42.883c0.291,0.225,0.457,0.502,0.475,0.842l-0.54,0.101
			c-0.056-0.25-0.181-0.43-0.36-0.554c-0.195-0.122-0.449-0.146-0.781-0.083c-0.396,0.073-0.734,0.284-0.979,0.617
			c-0.238,0.33-0.365,0.78-0.365,1.366c0,0.475,0.109,0.856,0.342,1.105c0.208,0.26,0.551,0.347,0.984,0.26
			c0.418-0.08,0.732-0.298,0.941-0.648c0.117-0.198,0.191-0.426,0.26-0.7l0.535-0.104c-0.055,0.433-0.199,0.828-0.475,1.165
			c-0.324,0.419-0.77,0.683-1.318,0.776c-0.472,0.101-0.877,0.038-1.194-0.201c-0.433-0.295-0.642-0.846-0.642-1.636
			c0-0.606,0.16-1.133,0.475-1.58c0.351-0.481,0.834-0.787,1.436-0.904C34.553,42.605,34.944,42.668,35.231,42.883L35.231,42.883z"
			/>
		<path fill-rule="evenodd" clip-rule="evenodd" fill="#005CAB" d="M36.94,42.266v2.529c0,0.294,0.049,0.53,0.166,0.714
			c0.166,0.263,0.434,0.357,0.824,0.281c0.482-0.08,0.81-0.309,0.967-0.666c0.09-0.187,0.141-0.43,0.141-0.724v-2.537l0.572-0.104
			v2.298c0,0.499-0.071,0.904-0.21,1.206c-0.253,0.541-0.728,0.87-1.409,1.008c-0.694,0.128-1.164-0.027-1.4-0.481
			c-0.143-0.236-0.205-0.62-0.205-1.123v-2.301L36.94,42.266L36.94,42.266z"/>
		<polygon fill-rule="evenodd" clip-rule="evenodd" fill="#005CAB" points="40.509,41.583 41.063,41.483 41.063,45.579 
			40.509,45.686 40.509,41.583 		"/>
		<path fill-rule="evenodd" clip-rule="evenodd" fill="#005CAB" d="M43.454,44.65c0.188-0.035,0.346-0.094,0.472-0.149
			c0.208-0.118,0.382-0.288,0.528-0.52c0.113-0.18,0.188-0.405,0.232-0.672c0.025-0.167,0.043-0.312,0.043-0.444
			c0-0.513-0.095-0.883-0.298-1.126c-0.212-0.239-0.535-0.322-0.985-0.239l-0.984,0.187v3.15L43.454,44.65L43.454,44.65z
			 M41.921,41.316l1.645-0.309c0.568-0.111,1.005,0,1.313,0.347c0.275,0.305,0.415,0.742,0.415,1.303
			c0,0.433-0.082,0.852-0.248,1.23c-0.283,0.668-0.791,1.084-1.48,1.209l-1.645,0.322V41.316L41.921,41.316z"/>
		<path fill-rule="evenodd" clip-rule="evenodd" fill="#005CAB" d="M48.028,42.574l-0.616-1.688l-0.667,1.934L48.028,42.574
			L48.028,42.574z M47.112,40.336l0.633-0.125l1.488,3.805l-0.602,0.118l-0.43-1.137l-1.606,0.298l-0.45,1.32l-0.566,0.101
			L47.112,40.336L47.112,40.336z"/>
		<path fill-rule="evenodd" clip-rule="evenodd" fill="#005CAB" d="M51.218,43.17c0.193-0.035,0.344-0.083,0.469-0.149
			c0.225-0.104,0.391-0.281,0.533-0.513c0.107-0.19,0.191-0.412,0.237-0.683c0.019-0.163,0.042-0.308,0.042-0.44
			c0-0.499-0.105-0.876-0.314-1.119c-0.199-0.239-0.522-0.319-0.973-0.239l-0.977,0.184v3.153L51.218,43.17L51.218,43.17z
			 M49.682,39.847l1.653-0.319c0.568-0.101,0.992,0.01,1.312,0.347c0.272,0.319,0.404,0.752,0.404,1.31
			c0,0.433-0.066,0.846-0.232,1.224c-0.291,0.679-0.776,1.084-1.484,1.223l-1.653,0.308V39.847L49.682,39.847z"/>
		<path fill-rule="evenodd" clip-rule="evenodd" fill="#005CAB" d="M56.976,40.873l-0.613-1.688l-0.658,1.934L56.976,40.873
			L56.976,40.873z M56.064,38.624l0.638-0.111l1.482,3.808l-0.601,0.122l-0.416-1.151l-1.625,0.309l-0.445,1.313l-0.571,0.104
			L56.064,38.624L56.064,38.624z"/>
		<polygon fill-rule="evenodd" clip-rule="evenodd" fill="#005CAB" points="58.618,38.146 59.162,38.045 59.162,41.656 
			61.241,41.25 61.241,41.739 58.618,42.249 58.618,38.146 		"/>
		<polygon fill-rule="evenodd" clip-rule="evenodd" fill="#005CAB" points="61.825,37.536 62.388,37.432 62.388,41.528 
			61.825,41.635 61.825,37.536 		"/>
		<path fill-rule="evenodd" clip-rule="evenodd" fill="#005CAB" d="M63.196,37.276l0.795-0.152l1.17,3.236l1.174-3.683l0.779-0.142
			v4.092l-0.522,0.101v-2.419c0-0.083,0-0.215,0-0.416c0.013-0.191,0.013-0.406,0.013-0.624l-1.181,3.684l-0.534,0.094l-1.178-3.223
			v0.125c0,0.097,0,0.253,0.004,0.454c0,0.211,0,0.36,0,0.45v2.419l-0.52,0.111V37.276L63.196,37.276z"/>
		<polygon fill-rule="evenodd" clip-rule="evenodd" fill="#005CAB" points="67.939,36.375 70.919,35.807 70.919,36.316 
			68.476,36.777 68.476,38.028 70.734,37.588 70.734,38.07 68.476,38.492 68.476,39.875 70.962,39.411 70.962,39.903 67.939,40.478 
			67.939,36.375 		"/>
		<polygon fill-rule="evenodd" clip-rule="evenodd" fill="#005CAB" points="71.603,35.682 72.261,35.557 74.321,38.479 
			74.321,35.166 74.854,35.062 74.854,39.161 74.237,39.275 72.131,36.365 72.131,39.677 71.603,39.781 71.603,35.682 		"/>
		<polygon fill-rule="evenodd" clip-rule="evenodd" fill="#005CAB" points="78.63,34.345 78.63,34.836 77.254,35.104 77.254,38.71 
			76.679,38.814 76.679,35.2 75.305,35.467 75.305,34.982 78.63,34.345 		"/>
		<path fill-rule="evenodd" clip-rule="evenodd" fill="#005CAB" d="M80.738,36.365l-0.631-1.691l-0.658,1.937L80.738,36.365
			L80.738,36.365z M79.823,34.119l0.625-0.118l1.496,3.822l-0.615,0.107l-0.418-1.144L79.3,37.092l-0.445,1.31l-0.571,0.111
			L79.823,34.119L79.823,34.119z"/>
		<path fill-rule="evenodd" clip-rule="evenodd" fill="#005CAB" d="M84.261,35.152c0.254-0.045,0.457-0.142,0.613-0.27
			c0.148-0.135,0.229-0.34,0.229-0.606c0-0.298-0.105-0.468-0.309-0.541c-0.123-0.031-0.271-0.031-0.457,0l-1.355,0.26v1.407
			L84.261,35.152L84.261,35.152z M82.438,33.627l1.885-0.357c0.312-0.066,0.573-0.069,0.779-0.018
			c0.373,0.104,0.562,0.392,0.562,0.866c0,0.246-0.054,0.451-0.149,0.627c-0.1,0.173-0.238,0.329-0.412,0.454
			c0.148,0.035,0.275,0.101,0.359,0.191c0.076,0.086,0.115,0.25,0.129,0.485l0.02,0.548c0,0.152,0.033,0.273,0.033,0.343
			c0.043,0.122,0.097,0.198,0.184,0.208v0.097l-0.674,0.135c-0.033-0.024-0.04-0.073-0.051-0.135
			c-0.02-0.042-0.033-0.153-0.033-0.312l-0.033-0.679c-0.014-0.271-0.108-0.426-0.292-0.475c-0.109-0.028-0.284-0.024-0.501,0.017
			l-1.262,0.232v1.764l-0.543,0.104V33.627L82.438,33.627z"/>
		<polygon fill-rule="evenodd" clip-rule="evenodd" fill="#005CAB" points="86.521,32.848 87.089,32.744 87.089,36.836 
			86.521,36.94 86.521,32.848 		"/>
		<path fill-rule="evenodd" clip-rule="evenodd" fill="#005CAB" d="M90.008,34.601l-0.624-1.684l-0.656,1.93L90.008,34.601
			L90.008,34.601z M89.097,32.362l0.632-0.121l1.481,3.808l-0.602,0.121l-0.432-1.143l-1.623,0.298l-0.428,1.313l-0.566,0.114
			L89.097,32.362L89.097,32.362z"/>
		<path fill="#005CAB" d="M25.238,145.175c0.212-0.61,0.32-1.282,0.305-2.013c-0.022-0.783-0.161-1.4-0.43-1.84
			c-0.278-0.434-0.64-0.617-1.083-0.544c-0.438,0.069-0.779,0.357-1.047,0.877c-0.264,0.513-0.386,1.241-0.361,2.159
			c0.004,0.742,0.137,1.352,0.379,1.816c0.25,0.475,0.626,0.665,1.166,0.579C24.663,146.125,25.024,145.785,25.238,145.175
			L25.238,145.175z M25.65,140.847c0.291,0.544,0.45,1.279,0.466,2.197c0.014,0.998-0.112,1.85-0.426,2.561
			c-0.365,0.838-0.882,1.303-1.582,1.421c-0.641,0.093-1.157-0.16-1.549-0.776c-0.334-0.603-0.518-1.403-0.543-2.398
			c-0.006-0.904,0.109-1.698,0.382-2.38c0.34-0.887,0.878-1.376,1.579-1.49C24.73,139.863,25.283,140.157,25.65,140.847
			L25.65,140.847z"/>
		<path fill="#005CAB" d="M32.364,144.77c0.125,0.121,0.252,0.17,0.4,0.142c0.184-0.031,0.354-0.128,0.521-0.284
			c0.287-0.267,0.412-0.651,0.412-1.147l-0.012-0.666c-0.059,0.08-0.154,0.149-0.238,0.194c-0.1,0.066-0.199,0.114-0.292,0.142
			l-0.307,0.118c-0.184,0.066-0.335,0.149-0.427,0.246c-0.148,0.173-0.229,0.416-0.22,0.724
			C32.203,144.471,32.266,144.645,32.364,144.77L32.364,144.77z M33.423,142.385c0.109-0.038,0.188-0.135,0.225-0.27
			c0.016-0.08,0.039-0.184,0.039-0.315c-0.023-0.284-0.08-0.478-0.208-0.589c-0.13-0.1-0.306-0.138-0.546-0.097
			c-0.26,0.045-0.455,0.184-0.568,0.43c-0.049,0.146-0.09,0.339-0.099,0.603l-0.485,0.076c0-0.61,0.109-1.046,0.347-1.32
			c0.237-0.271,0.492-0.43,0.806-0.478c0.357-0.066,0.656,0.003,0.882,0.184c0.233,0.18,0.358,0.502,0.358,0.959l0.066,2.811
			c0,0.076,0,0.142,0.034,0.187c0.016,0.056,0.067,0.066,0.128,0.062c0.023-0.007,0.057-0.007,0.087-0.024
			c0.026-0.007,0.064-0.017,0.083-0.038l0.02,0.61c-0.08,0.045-0.133,0.076-0.189,0.097c-0.045,0.017-0.086,0.024-0.162,0.045
			c-0.179,0.021-0.309-0.066-0.398-0.243c-0.042-0.097-0.08-0.25-0.094-0.433c-0.1,0.236-0.25,0.447-0.44,0.645
			c-0.188,0.18-0.409,0.298-0.641,0.336c-0.302,0.045-0.525-0.056-0.709-0.295c-0.199-0.253-0.282-0.575-0.3-0.984
			c0-0.451,0.078-0.811,0.241-1.095c0.184-0.27,0.417-0.46,0.69-0.568L33.423,142.385L33.423,142.385z"/>
		<path fill="#005CAB" d="M34.933,140.223l0.49-0.076l0.016,0.686c0.142-0.315,0.285-0.534,0.455-0.686
			c0.154-0.149,0.328-0.239,0.53-0.277c0.433-0.062,0.743,0.128,0.904,0.582c0.078,0.253,0.128,0.621,0.147,1.109l0.059,3.115
			l-0.529,0.094l-0.064-3.07c0-0.294-0.035-0.53-0.094-0.696c-0.09-0.288-0.256-0.419-0.499-0.381
			c-0.134,0.028-0.226,0.056-0.3,0.111c-0.146,0.09-0.268,0.239-0.359,0.458c-0.086,0.173-0.141,0.35-0.156,0.523
			c-0.033,0.176-0.039,0.419-0.033,0.738l0.049,2.543l-0.505,0.08L34.933,140.223L34.933,140.223z"/>
		<path fill="#005CAB" d="M38.14,139.728l0.529-0.076l0.094,4.831l-0.528,0.083L38.14,139.728L38.14,139.728z M38.098,137.901
			l0.524-0.086l0.024,0.929l-0.528,0.083L38.098,137.901L38.098,137.901z"/>
		<path fill="#005CAB" d="M39.759,142.801c0.021,0.267,0.071,0.468,0.139,0.6c0.146,0.242,0.369,0.333,0.7,0.288
			c0.202-0.035,0.366-0.128,0.517-0.288c0.142-0.153,0.215-0.36,0.199-0.638c0-0.211-0.058-0.364-0.179-0.454
			c-0.089-0.052-0.239-0.104-0.462-0.156l-0.418-0.097c-0.268-0.066-0.453-0.146-0.588-0.25c-0.225-0.194-0.354-0.471-0.358-0.866
			c-0.011-0.464,0.092-0.846,0.288-1.171c0.213-0.315,0.496-0.499,0.854-0.558c0.463-0.073,0.812,0.086,1.021,0.481
			c0.142,0.256,0.201,0.537,0.208,0.849l-0.475,0.08c-0.024-0.187-0.069-0.347-0.141-0.475c-0.13-0.198-0.338-0.277-0.643-0.232
			c-0.199,0.038-0.35,0.122-0.449,0.253c-0.1,0.142-0.142,0.305-0.142,0.496c0.009,0.205,0.067,0.375,0.213,0.471
			c0.08,0.062,0.192,0.115,0.347,0.142l0.344,0.08c0.387,0.08,0.647,0.184,0.771,0.294c0.199,0.177,0.301,0.481,0.316,0.932
			c0.012,0.44-0.078,0.818-0.286,1.171c-0.206,0.35-0.523,0.555-0.946,0.627c-0.466,0.073-0.787-0.035-0.992-0.34
			c-0.196-0.291-0.317-0.683-0.34-1.167L39.759,142.801L39.759,142.801z"/>
		<path fill="#005CAB" d="M42.259,139.048l0.512-0.08v0.696c0.125-0.263,0.23-0.454,0.33-0.589c0.167-0.198,0.354-0.326,0.57-0.36
			c0.241-0.038,0.434,0.024,0.6,0.187c0.078,0.101,0.176,0.239,0.232,0.44c0.117-0.27,0.242-0.492,0.392-0.634
			c0.163-0.153,0.327-0.239,0.517-0.277c0.417-0.059,0.709,0.135,0.855,0.579c0.086,0.239,0.143,0.575,0.148,0.998l0.068,3.24
			l-0.546,0.087l-0.067-3.378c0-0.322-0.068-0.53-0.166-0.638c-0.102-0.104-0.226-0.149-0.366-0.128
			c-0.206,0.031-0.392,0.17-0.526,0.413c-0.143,0.235-0.203,0.603-0.191,1.112l0.049,2.824l-0.523,0.087l-0.057-3.178
			c-0.01-0.329-0.035-0.558-0.09-0.707c-0.087-0.215-0.227-0.305-0.438-0.271c-0.199,0.035-0.381,0.18-0.531,0.443
			c-0.154,0.267-0.225,0.707-0.219,1.334l0.056,2.578l-0.507,0.087L42.259,139.048L42.259,139.048z"/>
		<path fill="#005CAB" d="M49.062,141.692c0.107-0.433,0.172-0.891,0.157-1.393c-0.015-0.461-0.058-0.818-0.157-1.088
			c-0.154-0.433-0.416-0.61-0.75-0.548c-0.32,0.045-0.547,0.271-0.674,0.676c-0.137,0.402-0.201,0.866-0.18,1.403
			c0.004,0.523,0.091,0.946,0.228,1.262c0.154,0.326,0.385,0.464,0.685,0.419C48.72,142.358,48.937,142.115,49.062,141.692
			L49.062,141.692z M49.312,138.411c0.278,0.368,0.423,0.97,0.448,1.774c0.018,0.783-0.092,1.445-0.332,2
			c-0.225,0.547-0.584,0.859-1.088,0.939c-0.41,0.073-0.761-0.101-1.021-0.513c-0.248-0.413-0.383-0.998-0.395-1.764
			c-0.02-0.811,0.1-1.486,0.35-2.01c0.245-0.526,0.588-0.825,1.037-0.894C48.699,137.884,49.026,138.03,49.312,138.411
			L49.312,138.411z"/>
		<path fill="#005CAB" d="M52.464,141.221c0.141,0.336,0.377,0.471,0.676,0.43c0.241-0.045,0.434-0.236,0.57-0.586
			c0.148-0.346,0.217-0.835,0.208-1.438c-0.007-0.613-0.091-1.057-0.259-1.324c-0.174-0.273-0.365-0.384-0.607-0.354
			c-0.248,0.045-0.457,0.236-0.608,0.579c-0.154,0.333-0.224,0.811-0.217,1.424C52.247,140.473,52.315,140.896,52.464,141.221
			L52.464,141.221z M53.544,137.392c0.084,0.076,0.195,0.218,0.314,0.437l-0.041-2.46l0.484-0.08l0.133,6.691l-0.458,0.076
			l-0.017-0.676c-0.104,0.312-0.25,0.555-0.416,0.717c-0.149,0.153-0.342,0.25-0.551,0.288c-0.34,0.045-0.642-0.128-0.891-0.541
			c-0.268-0.423-0.398-1.001-0.416-1.76c-0.024-0.696,0.083-1.341,0.299-1.899c0.217-0.547,0.543-0.866,0.959-0.929
			C53.185,137.215,53.381,137.271,53.544,137.392L53.544,137.392z"/>
		<path fill="#005CAB" d="M57.177,138.716c-0.029-0.357-0.083-0.62-0.159-0.828c-0.154-0.371-0.392-0.527-0.72-0.479
			c-0.233,0.042-0.426,0.211-0.574,0.499c-0.164,0.298-0.238,0.662-0.238,1.078L57.177,138.716L57.177,138.716z M56.955,136.837
			c0.199,0.128,0.362,0.312,0.475,0.555c0.104,0.229,0.187,0.506,0.217,0.818c0.042,0.222,0.054,0.579,0.076,1.063l-2.237,0.361
			c0.016,0.499,0.103,0.876,0.248,1.154c0.139,0.281,0.35,0.395,0.641,0.346c0.272-0.045,0.477-0.211,0.631-0.526
			c0.089-0.177,0.143-0.378,0.184-0.6l0.5-0.08c-0.018,0.19-0.057,0.388-0.12,0.62c-0.076,0.229-0.151,0.423-0.237,0.579
			c-0.154,0.264-0.355,0.461-0.58,0.582c-0.117,0.059-0.259,0.107-0.398,0.142c-0.393,0.052-0.718-0.114-0.992-0.513
			c-0.266-0.395-0.414-0.991-0.426-1.781c-0.021-0.783,0.096-1.435,0.359-1.968c0.249-0.53,0.59-0.825,1.023-0.89
			C56.536,136.661,56.747,136.709,56.955,136.837L56.955,136.837z"/>
		<path fill="#005CAB" d="M62.849,134.436c0.301,0.402,0.467,0.88,0.508,1.438l-0.549,0.086c-0.083-0.416-0.199-0.745-0.389-0.967
			c-0.195-0.222-0.451-0.298-0.789-0.25c-0.404,0.066-0.73,0.35-0.976,0.849c-0.229,0.506-0.355,1.23-0.321,2.19
			c0,0.783,0.131,1.4,0.357,1.843c0.248,0.451,0.593,0.641,1.027,0.572c0.416-0.066,0.731-0.371,0.932-0.925
			c0.113-0.284,0.199-0.651,0.232-1.095l0.568-0.094c-0.034,0.714-0.188,1.324-0.45,1.844c-0.325,0.627-0.763,0.984-1.317,1.074
			c-0.498,0.076-0.907-0.101-1.232-0.52c-0.453-0.544-0.684-1.466-0.717-2.765c-0.012-0.991,0.133-1.816,0.445-2.502
			c0.33-0.738,0.81-1.147,1.422-1.254C62.134,133.882,62.555,134.034,62.849,134.436L62.849,134.436z"/>
		<path fill="#005CAB" d="M66.12,137.292c-0.029-0.357-0.081-0.63-0.157-0.835c-0.147-0.371-0.398-0.523-0.71-0.479
			c-0.238,0.045-0.438,0.208-0.586,0.499c-0.168,0.295-0.234,0.662-0.234,1.078L66.12,137.292L66.12,137.292z M65.896,135.407
			c0.211,0.131,0.369,0.315,0.479,0.554c0.108,0.225,0.184,0.496,0.23,0.825c0.029,0.218,0.048,0.575,0.064,1.061l-2.236,0.357
			c0.024,0.492,0.104,0.873,0.25,1.157c0.133,0.274,0.343,0.395,0.637,0.347c0.262-0.042,0.484-0.219,0.637-0.523
			c0.076-0.18,0.135-0.381,0.176-0.606l0.502-0.08c-0.011,0.187-0.042,0.395-0.118,0.617c-0.065,0.229-0.157,0.43-0.241,0.579
			c-0.154,0.267-0.338,0.464-0.575,0.582c-0.118,0.073-0.255,0.122-0.403,0.135c-0.389,0.066-0.714-0.101-0.979-0.496
			c-0.285-0.398-0.427-0.991-0.441-1.792c-0.019-0.779,0.115-1.427,0.365-1.961c0.249-0.53,0.599-0.835,1.025-0.901
			C65.486,135.233,65.696,135.278,65.896,135.407L65.896,135.407z"/>
		<path fill="#005CAB" d="M67.224,135.06l0.487-0.073l0.003,0.832c0.042-0.167,0.139-0.378,0.293-0.638
			c0.149-0.263,0.324-0.409,0.541-0.437c0,0,0.025-0.017,0.047-0.017c0,0,0.054,0,0.115,0l0.013,0.866c-0.029,0-0.054-0.003-0.087,0
			c0,0-0.041,0-0.079,0c-0.259,0.045-0.454,0.211-0.597,0.502c-0.128,0.281-0.189,0.603-0.187,0.949l0.059,2.793l-0.513,0.076
			L67.224,135.06L67.224,135.06z"/>
		<path fill="#005CAB" d="M69.173,133.386l0.525-0.083l0.027,1.358l0.475-0.076l0.026,0.668l-0.487,0.073l0.051,3.171
			c0.012,0.173,0.054,0.281,0.125,0.326c0.036,0.024,0.112,0.028,0.199,0.024c0.025-0.011,0.059-0.011,0.074-0.021
			c0.038-0.01,0.068-0.01,0.102-0.028l0.02,0.645c-0.067,0.038-0.121,0.066-0.182,0.09c-0.064,0.024-0.13,0.042-0.206,0.052
			c-0.232,0.031-0.416-0.042-0.497-0.222c-0.094-0.18-0.135-0.423-0.135-0.728l-0.072-3.226l-0.419,0.069v-0.669l0.398-0.066
			L69.173,133.386L69.173,133.386z"/>
		<path fill="#005CAB" d="M70.663,134.537l0.517-0.086l0.112,4.841l-0.523,0.09L70.663,134.537L70.663,134.537z M70.634,132.704
			l0.527-0.08l0.012,0.925l-0.517,0.083L70.634,132.704L70.634,132.704z"/>
		<path fill="#005CAB" d="M72.131,132.791c0.107-0.295,0.333-0.475,0.679-0.523c0.039-0.014,0.071-0.018,0.104-0.018
			c0.029,0,0.065-0.007,0.118-0.01l0.006,0.749c-0.05,0.003-0.082,0.003-0.082,0.003c-0.055,0.003-0.075,0.003-0.096,0.018
			c-0.156,0.024-0.255,0.107-0.279,0.232c-0.025,0.128-0.041,0.464-0.021,0.988l0.506-0.083l0.014,0.652l-0.517,0.076l0.089,4.196
			l-0.513,0.073l-0.087-4.186l-0.43,0.076l-0.011-0.645l0.44-0.073l-0.029-0.762C72.039,133.206,72.065,132.963,72.131,132.791
			L72.131,132.791z"/>
		<path fill="#005CAB" d="M73.483,134.08l0.521-0.083l0.107,4.841l-0.527,0.087L73.483,134.08L73.483,134.08z M73.448,132.253
			l0.529-0.083l0.016,0.925l-0.521,0.086L73.448,132.253L73.448,132.253z"/>
		<path fill="#005CAB" d="M76.764,133.795c0.228,0.229,0.349,0.668,0.407,1.32l-0.492,0.077c-0.041-0.298-0.107-0.53-0.234-0.717
			c-0.105-0.18-0.291-0.253-0.52-0.208c-0.34,0.048-0.555,0.346-0.696,0.873c-0.073,0.34-0.12,0.759-0.105,1.237
			c0.011,0.485,0.074,0.883,0.206,1.199c0.145,0.312,0.359,0.447,0.635,0.392c0.207-0.024,0.388-0.163,0.491-0.381
			c0.132-0.225,0.208-0.526,0.253-0.887l0.501-0.083c-0.056,0.655-0.181,1.144-0.403,1.483c-0.219,0.329-0.519,0.523-0.867,0.585
			c-0.408,0.066-0.723-0.114-0.967-0.541c-0.254-0.43-0.388-0.988-0.396-1.688c-0.021-0.849,0.096-1.535,0.342-2.051
			c0.254-0.51,0.578-0.808,0.989-0.874C76.263,133.477,76.53,133.566,76.764,133.795L76.764,133.795z"/>
		<path fill="#005CAB" d="M78.241,137.437c0.104,0.118,0.234,0.17,0.389,0.146c0.184-0.031,0.354-0.128,0.523-0.288
			c0.283-0.267,0.417-0.645,0.414-1.15l-0.023-0.658c-0.053,0.08-0.14,0.146-0.231,0.201c-0.101,0.062-0.188,0.101-0.296,0.132
			l-0.304,0.118c-0.186,0.073-0.333,0.16-0.427,0.25c-0.154,0.17-0.223,0.416-0.223,0.725
			C78.063,137.139,78.132,137.316,78.241,137.437L78.241,137.437z M79.288,135.057c0.099-0.042,0.186-0.132,0.237-0.271
			c0.003-0.083,0.019-0.184,0.016-0.322c0-0.281-0.075-0.478-0.199-0.582c-0.13-0.107-0.302-0.135-0.534-0.101
			c-0.28,0.049-0.462,0.194-0.566,0.44c-0.064,0.142-0.095,0.326-0.109,0.589l-0.486,0.08c-0.004-0.61,0.109-1.04,0.338-1.317
			c0.237-0.27,0.51-0.433,0.824-0.478c0.359-0.059,0.658,0,0.875,0.184c0.241,0.18,0.348,0.496,0.363,0.97l0.049,2.796
			c0,0.08,0.013,0.146,0.037,0.198c0.022,0.048,0.076,0.066,0.139,0.052c0,0,0.054-0.003,0.083-0.017c0,0,0.05-0.021,0.083-0.035
			l0.016,0.603c-0.078,0.052-0.141,0.076-0.182,0.097c-0.033,0.011-0.101,0.024-0.176,0.042c-0.171,0.028-0.299-0.055-0.391-0.239
			c-0.042-0.107-0.076-0.243-0.101-0.433c-0.078,0.232-0.241,0.447-0.437,0.637c-0.188,0.194-0.406,0.302-0.64,0.343
			c-0.286,0.042-0.526-0.048-0.706-0.294c-0.183-0.243-0.292-0.572-0.292-0.984c-0.009-0.447,0.071-0.811,0.241-1.088
			c0.166-0.288,0.406-0.468,0.693-0.572L79.288,135.057L79.288,135.057z"/>
		<path fill="#005CAB" d="M82.837,132.821c0.218,0.232,0.357,0.669,0.417,1.317l-0.504,0.083c-0.033-0.298-0.109-0.533-0.218-0.713
			c-0.117-0.188-0.29-0.257-0.536-0.219c-0.327,0.052-0.558,0.347-0.692,0.88c-0.091,0.347-0.109,0.755-0.109,1.237
			c0.008,0.492,0.082,0.887,0.225,1.195c0.134,0.315,0.338,0.447,0.621,0.402c0.209-0.035,0.379-0.167,0.495-0.388
			c0.108-0.235,0.208-0.52,0.247-0.887l0.5-0.09c-0.044,0.658-0.181,1.15-0.398,1.487c-0.24,0.336-0.516,0.533-0.881,0.589
			c-0.395,0.059-0.727-0.111-0.965-0.544c-0.252-0.426-0.376-0.988-0.402-1.684c-0.01-0.849,0.113-1.542,0.367-2.055
			c0.25-0.516,0.576-0.8,0.978-0.87C82.329,132.502,82.611,132.593,82.837,132.821L82.837,132.821z"/>
		<path fill="#005CAB" d="M83.677,132.451l0.52-0.08l0.113,4.841l-0.541,0.08L83.677,132.451L83.677,132.451z M83.642,130.628
			l0.521-0.086l0.014,0.922l-0.51,0.09L83.642,130.628L83.642,130.628z"/>
		<path fill="#005CAB" d="M86.712,129.983l-0.736,1.435l-0.398,0.059l0.504-1.396L86.712,129.983L86.712,129.983z M86.893,135.639
			c0.116-0.423,0.175-0.894,0.168-1.39c-0.013-0.454-0.065-0.818-0.168-1.088c-0.141-0.419-0.401-0.613-0.757-0.551
			c-0.309,0.052-0.525,0.274-0.668,0.672c-0.133,0.413-0.191,0.88-0.17,1.421c0.008,0.513,0.084,0.936,0.229,1.254
			c0.15,0.319,0.376,0.461,0.69,0.412C86.546,136.311,86.772,136.072,86.893,135.639L86.893,135.639z M87.147,132.364
			c0.279,0.377,0.424,0.956,0.445,1.774c0.019,0.783-0.09,1.452-0.316,1.993c-0.229,0.554-0.594,0.87-1.091,0.942
			c-0.432,0.066-0.771-0.104-1.022-0.506c-0.253-0.423-0.391-1.001-0.405-1.767c-0.014-0.821,0.094-1.483,0.355-2.01
			c0.245-0.523,0.591-0.818,1.022-0.894C86.534,131.827,86.878,131.986,87.147,132.364L87.147,132.364z"/>
		<path fill="#005CAB" d="M88.126,131.723l0.485-0.087l0.011,0.693c0.139-0.302,0.287-0.534,0.443-0.686
			c0.17-0.142,0.361-0.236,0.543-0.274c0.436-0.066,0.725,0.132,0.891,0.589c0.109,0.246,0.15,0.613,0.16,1.105l0.059,3.119
			l-0.526,0.087l-0.054-3.067c-0.011-0.294-0.043-0.527-0.1-0.704c-0.096-0.291-0.27-0.422-0.514-0.374
			c-0.116,0.021-0.217,0.048-0.289,0.104c-0.139,0.094-0.27,0.239-0.369,0.464c-0.08,0.177-0.139,0.346-0.165,0.52
			c-0.024,0.177-0.031,0.423-0.024,0.745l0.058,2.54l-0.522,0.086L88.126,131.723L88.126,131.723z"/>
		<path fill="#005CAB" d="M26.659,141.543l0.475-0.08l0.025,0.845c0.033-0.177,0.129-0.392,0.277-0.651
			c0.154-0.26,0.338-0.398,0.543-0.437c0,0,0.023,0,0.047-0.003c0,0,0.074,0,0.112,0l0.019,0.863l-0.057-0.007
			c-0.041,0.003-0.074,0.003-0.118,0.007c-0.241,0.045-0.45,0.218-0.582,0.496c-0.136,0.291-0.192,0.61-0.188,0.946l0.053,2.8
			l-0.516,0.083L26.659,141.543L26.659,141.543z"/>
		<path fill="#005CAB" d="M30.319,142.032c-0.162-0.263-0.357-0.377-0.6-0.339c-0.357,0.059-0.596,0.364-0.737,0.929
			c-0.054,0.294-0.091,0.676-0.075,1.147c0.015,0.541,0.098,0.949,0.241,1.209c0.142,0.267,0.325,0.381,0.571,0.339
			c0.369-0.066,0.621-0.364,0.754-0.915c0.074-0.315,0.117-0.669,0.117-1.074C30.583,142.732,30.491,142.302,30.319,142.032
			L30.319,142.032z M30.249,141.169c0.092,0.09,0.19,0.222,0.299,0.413l-0.015-0.613l0.475-0.073l0.092,4.421
			c0.016,0.613-0.034,1.109-0.142,1.483c-0.201,0.697-0.594,1.085-1.192,1.178c-0.327,0.056-0.606-0.014-0.833-0.215
			c-0.236-0.201-0.349-0.544-0.398-1.043l0.524-0.08c0.021,0.215,0.078,0.381,0.152,0.478c0.13,0.167,0.313,0.222,0.555,0.18
			c0.392-0.052,0.655-0.319,0.75-0.779c0.075-0.271,0.092-0.742,0.075-1.407c-0.091,0.264-0.227,0.468-0.351,0.614
			c-0.151,0.142-0.333,0.232-0.573,0.273c-0.326,0.052-0.626-0.086-0.881-0.43c-0.252-0.333-0.379-0.929-0.406-1.792
			c-0.018-0.814,0.09-1.469,0.339-1.965c0.239-0.496,0.53-0.772,0.89-0.828C29.849,140.944,30.062,141.01,30.249,141.169
			L30.249,141.169z"/>
	</g>
</g>
</svg>
