<?xml version="1.0" encoding="utf-8"?>
<!-- Generator: Adobe Illustrator 16.0.0, SVG Export Plug-In . SVG Version: 6.00 Build 0)  -->
<!DOCTYPE svg PUBLIC "-//W3C//DTD SVG 1.1//EN" "http://www.w3.org/Graphics/SVG/1.1/DTD/svg11.dtd">
<svg version="1.1" id="Layer_1" xmlns="http://www.w3.org/2000/svg" xmlns:xlink="http://www.w3.org/1999/xlink" x="0px" y="0px"
	 width="110.5px" height="158.546px" viewBox="0 0 110.5 158.546" enable-background="new 0 0 110.5 158.546" xml:space="preserve">
<g>
	<g>
		<defs>
			<rect id="SVGID_15_" x="23.079" y="4.083" width="68.224" height="143.583"/>
		</defs>
		<clipPath id="SVGID_2_">
			<use xlink:href="#SVGID_15_"  overflow="visible"/>
		</clipPath>
	</g>
	<g>
		
			<path fill="#FFFFFF" stroke="#FFFFFF" stroke-width="5" stroke-linecap="round" stroke-linejoin="round" stroke-miterlimit="10" d="
			M26.229,62.689l63.43-12.832l-1.717,49.805v4.162c0,0-1.845,5.146-11.634,5.891l-51.101,7.959L26.229,62.689L26.229,62.689z"/>
		
			<path fill-rule="evenodd" clip-rule="evenodd" fill="#005CAB" stroke="#FFFFFF" stroke-width="5" stroke-linecap="round" stroke-linejoin="round" stroke-miterlimit="10" d="
			M23.441,120.704l59.176-9.48c4.865-1.057,6.79-2.335,8.686-7.838c0,9.748,0,14.855,0,14.855c-0.092,4.653-1.27,8.469-6.541,9.664
			c-7.227,1.133-61.321,9.893-61.321,9.893V120.704L23.441,120.704z"/>
		
			<path fill="#005CAB" stroke="#FFFFFF" stroke-width="5" stroke-linecap="round" stroke-linejoin="round" stroke-miterlimit="10" d="
			M33.396,100.537c-0.679,0.118-1.225,0.485-1.661,1.102c-0.426,0.61-0.634,1.379-0.645,2.284c0,0.908,0.211,1.598,0.622,2.051
			c0.447,0.458,1.021,0.631,1.722,0.506c0.745-0.121,1.336-0.495,1.804-1.109c0.458-0.634,0.678-1.379,0.678-2.256
			c0.01-0.904-0.22-1.59-0.678-2.055C34.796,100.571,34.164,100.401,33.396,100.537L33.396,100.537z M67.496,95.408
			c-0.392-0.298-0.852-0.398-1.365-0.312c-0.733,0.121-1.278,0.561-1.679,1.313c-0.613,1.178-0.922,3.015-0.925,5.523
			c-0.012,1.792,0.126,3.216,0.379,4.252c0.192,0.811,0.483,1.348,0.866,1.639c0.379,0.27,0.818,0.374,1.292,0.291
			c0.458-0.08,0.893-0.322,1.265-0.724c0.392-0.409,0.683-1.088,0.908-2.034c0.293-1.244,0.426-2.796,0.438-4.633
			c0.005-1.407-0.088-2.571-0.288-3.482C68.189,96.309,67.898,95.699,67.496,95.408L67.496,95.408z M90.766,49.633l-10.085,2.031
			c0.729,0.097,1.405,0.267,2.005,0.541c1.474,0.655,2.699,1.757,3.664,3.323c0.979,1.549,1.679,3.333,2.1,5.357
			c0.426,2.02,0.634,4.168,0.631,6.438c-0.014,3.486-0.494,6.674-1.414,9.574c-0.925,2.907-2.32,5.222-4.207,6.93
			c-1.866,1.719-4.073,2.796-6.598,3.237c-3.597,0.603-6.433-0.295-8.474-2.703c-2.382-2.81-3.557-7.048-3.536-12.683
			c0.016-3.032,0.412-6.019,1.193-8.94c0.78-2.925,2.109-5.361,3.977-7.298c0.856-0.887,1.812-1.615,2.866-2.197L59.462,55.96
			c0.057,0.035,0.137,0.066,0.204,0.104c0.877,0.558,1.582,1.237,2.125,2.065c0.549,0.818,0.979,1.667,1.275,2.564
			c0.31,0.891,0.555,1.947,0.731,3.188l-8.885,1.518c-0.211-0.967-0.603-1.639-1.194-2.034c-0.568-0.402-1.405-0.516-2.497-0.336
			c-1.054,0.194-1.88,0.589-2.433,1.202c-0.426,0.472-0.632,1.019-0.641,1.664c0,0.534,0.154,0.942,0.462,1.223
			c0.458,0.402,1.499,0.707,3.169,0.915l3.637,0.45c3.353,0.402,5.708,1.4,7.059,2.987c1.348,1.577,2.034,3.556,2.027,5.936
			c-0.012,1.906-0.371,3.708-1.078,5.402c-0.705,1.67-1.568,3.049-2.592,4.127c-1.034,1.078-2.361,2.027-3.986,2.821
			c-1.629,0.821-3.337,1.382-5.141,1.688c-1.963,0.339-3.812,0.346-5.538,0.021c-1.719-0.326-3.148-0.977-4.276-1.937
			c-1.105-0.967-1.955-2.166-2.522-3.59c-0.407-1.012-0.678-2.301-0.832-3.856l8.998-1.539c0.199,1.063,0.651,1.83,1.341,2.301
			c0.693,0.464,1.75,0.575,3.197,0.329c1.267-0.215,2.166-0.62,2.715-1.223c0.409-0.454,0.612-1.029,0.629-1.702
			c0-0.7-0.199-1.233-0.566-1.59c-0.362-0.367-1.391-0.655-3.067-0.856l-3.257-0.426c-1.707-0.197-3.308-0.617-4.791-1.227
			c-1.499-0.62-2.618-1.556-3.365-2.81c-0.767-1.248-1.133-2.866-1.133-4.827c0.009-1.944,0.366-3.718,1.043-5.343
			c0.639-1.5,1.469-2.765,2.486-3.826l-6.222,1.251L36.434,93.11l-9.351,1.591l0.116-32.212l-3.363,0.679l-0.045,54.587
			c0,0,1.409-0.201,3.753-0.534c-0.196-0.225-0.377-0.485-0.554-0.755c-0.378-0.617-0.653-1.41-0.825-2.37l5.003-1.223
			c0.163,0.534,0.413,0.925,0.762,1.154c0.342,0.229,0.802,0.291,1.379,0.205c0.481-0.09,0.896-0.267,1.22-0.541
			c0.347-0.284,0.632-0.669,0.884-1.147c0.253-0.485,0.424-1.026,0.541-1.629c0.123-0.596,0.187-1.334,0.192-2.204
			c-1.196,1.258-2.551,2.023-4.084,2.287c-1.164,0.188-2.24,0.09-3.24-0.301c-0.982-0.405-1.74-1.116-2.266-2.11
			c-0.52-1.008-0.787-2.231-0.787-3.697c0.012-1.188,0.187-2.329,0.549-3.406c0.359-1.099,0.889-2.044,1.582-2.828
			c0.702-0.8,1.506-1.435,2.399-1.889c0.915-0.443,1.853-0.766,2.835-0.932c1.469-0.253,2.727-0.215,3.756,0.132
			c1.029,0.336,1.891,0.96,2.613,1.892c0.728,0.925,1.254,2.058,1.566,3.396c0.329,1.334,0.49,2.865,0.483,4.602
			c-0.012,2.53-0.385,4.727-1.1,6.587c-0.471,1.223-1.104,2.27-1.857,3.198c1.982-0.288,4.087-0.589,6.241-0.908
			c-0.189-0.173-0.373-0.354-0.546-0.555c-1.533-1.84-2.313-4.591-2.301-8.261c0.022-1.975,0.272-3.926,0.78-5.829
			c0.52-1.906,1.374-3.482,2.59-4.747c1.228-1.279,2.788-2.072,4.687-2.398c1.416-0.243,2.609-0.146,3.569,0.291
			c0.958,0.426,1.755,1.15,2.384,2.162c0.641,1.012,1.09,2.169,1.362,3.486c0.279,1.324,0.421,2.724,0.421,4.2
			c-0.016,2.263-0.32,4.345-0.923,6.234c-0.509,1.607-1.268,2.924-2.233,3.978c2.312-0.34,4.599-0.69,6.821-1.022
			c-0.333-0.243-0.648-0.53-0.927-0.87c-1.56-1.833-2.316-4.591-2.313-8.258c0.008-1.975,0.284-3.909,0.792-5.825
			c0.501-1.906,1.358-3.486,2.587-4.751c1.209-1.271,2.783-2.076,4.678-2.398c1.415-0.239,2.602-0.146,3.571,0.288
			c0.953,0.43,1.745,1.154,2.377,2.166c0.634,1.012,1.091,2.172,1.367,3.493c0.273,1.32,0.421,2.71,0.409,4.2
			c-0.005,2.256-0.309,4.335-0.925,6.22c-0.566,1.798-1.417,3.236-2.55,4.335c4.411-0.704,7.906-1.303,9.741-1.691l0.052-11.844
			l-4.189,0.721l0.005-4.456c0.882-0.167,1.641-0.43,2.297-0.78c0.664-0.346,1.175-0.728,1.533-1.147
			c0.368-0.416,0.688-0.904,0.955-1.476c0.374-0.804,0.622-1.604,0.741-2.388l4.087-0.7l-0.059,19.561
			c3.758-3.115,5.141-8.49,5.283-14.45L90.766,49.633L90.766,49.633z M74.929,78.865c0.585,0.419,1.246,0.568,1.961,0.447
			c0.721-0.125,1.381-0.496,1.972-1.123c0.591-0.617,1.048-1.667,1.382-3.112c0.437-1.919,0.667-4.293,0.679-7.117
			c0.007-2.166-0.142-3.947-0.454-5.351c-0.299-1.428-0.745-2.367-1.367-2.817c-0.608-0.451-1.291-0.613-2.1-0.482
			c-1.112,0.201-1.966,0.866-2.566,2.013c-0.929,1.806-1.409,4.64-1.416,8.483c-0.016,2.762,0.184,4.941,0.579,6.546
			C73.894,77.583,74.328,78.421,74.929,78.865L74.929,78.865z M51.279,98.173c-0.395-0.292-0.844-0.399-1.369-0.309
			c-0.717,0.125-1.284,0.562-1.667,1.306c-0.6,1.182-0.923,3.029-0.929,5.527c-0.008,1.798,0.111,3.215,0.378,4.259
			c0.192,0.804,0.485,1.351,0.863,1.632c0.388,0.284,0.821,0.374,1.284,0.301c0.471-0.08,0.893-0.326,1.279-0.731
			c0.392-0.412,0.688-1.084,0.913-2.023c0.282-1.262,0.43-2.804,0.433-4.64c0-1.414-0.094-2.575-0.305-3.489
			C51.972,99.074,51.684,98.471,51.279,98.173L51.279,98.173z"/>
		
			<path fill-rule="evenodd" clip-rule="evenodd" fill="#FFFFFF" stroke="#FFFFFF" stroke-width="5" stroke-linecap="round" stroke-linejoin="round" stroke-miterlimit="10" d="
			M26.3,136.474l5.194-15.413l4.843-0.832l5.205,13.656l-4.746,0.797l-0.558-1.798l-4.744,0.8l-0.539,2L26.3,136.474L26.3,136.474z
			 M33.868,125.018l-1.485,5.534l3.03-0.516L33.868,125.018L33.868,125.018z"/>
		
			<path fill-rule="evenodd" clip-rule="evenodd" fill="#FFFFFF" stroke="#FFFFFF" stroke-width="5" stroke-linecap="round" stroke-linejoin="round" stroke-miterlimit="10" d="
			M56.009,122.447l-4.517,0.769c-0.071-0.721-0.327-1.23-0.778-1.559c-0.433-0.329-0.979-0.437-1.655-0.326
			c-0.851,0.142-1.524,0.585-2.067,1.331c-0.523,0.742-0.79,1.854-0.79,3.32c0,1.012,0.116,1.76,0.338,2.242
			c0.229,0.489,0.542,0.832,0.946,1.019c0.398,0.19,0.902,0.239,1.516,0.128c0.733-0.132,1.308-0.423,1.749-0.897
			c0.43-0.478,0.693-1.123,0.768-1.934l4.581-0.783c-0.09,0.922-0.282,1.708-0.535,2.367c-0.251,0.666-0.7,1.341-1.313,2.062
			c-0.599,0.717-1.325,1.32-2.178,1.812c-0.851,0.475-1.812,0.804-2.926,0.995c-1.111,0.19-2.143,0.198-3.077,0.024
			c-0.929-0.17-1.717-0.499-2.365-0.995c-0.622-0.496-1.129-1.099-1.492-1.823c-0.516-1.005-0.759-2.166-0.759-3.489
			c0-1.133,0.184-2.221,0.56-3.254c0.357-1.036,0.859-1.944,1.499-2.71c0.641-0.766,1.356-1.386,2.133-1.854
			c0.998-0.583,2.103-0.981,3.311-1.185c1.053-0.18,2.037-0.198,2.959-0.035c0.912,0.156,1.665,0.488,2.273,0.994
			c0.587,0.502,1.041,1.112,1.358,1.851C55.775,121.037,55.926,121.681,56.009,122.447L56.009,122.447z"/>
		
			<path fill-rule="evenodd" clip-rule="evenodd" fill="#FFFFFF" stroke="#FFFFFF" stroke-width="5" stroke-linecap="round" stroke-linejoin="round" stroke-miterlimit="10" d="
			M70.794,119.928l-4.489,0.776c-0.092-0.717-0.35-1.23-0.795-1.559c-0.433-0.336-0.979-0.451-1.663-0.326
			c-0.84,0.135-1.523,0.582-2.065,1.324c-0.52,0.748-0.787,1.854-0.787,3.312c0,1.022,0.116,1.764,0.336,2.249
			c0.229,0.488,0.546,0.835,0.946,1.025c0.405,0.184,0.904,0.226,1.52,0.128c0.734-0.128,1.308-0.43,1.751-0.904
			c0.424-0.475,0.683-1.119,0.766-1.927l4.59-0.787c-0.109,0.922-0.279,1.712-0.541,2.37c-0.269,0.659-0.702,1.345-1.312,2.072
			c-0.613,0.71-1.331,1.31-2.185,1.798c-0.852,0.468-1.811,0.808-2.926,0.995c-1.109,0.187-2.138,0.194-3.081,0.024
			c-0.936-0.17-1.71-0.502-2.351-0.995c-0.643-0.492-1.133-1.105-1.492-1.819c-0.518-1.001-0.764-2.159-0.764-3.493
			c0-1.133,0.18-2.208,0.551-3.254c0.371-1.026,0.861-1.937,1.516-2.707c0.629-0.772,1.346-1.389,2.133-1.854
			c0.991-0.593,2.086-0.995,3.295-1.196c1.05-0.177,2.038-0.18,2.958-0.024c0.922,0.149,1.683,0.485,2.273,0.991
			c0.592,0.502,1.043,1.119,1.367,1.851C70.571,118.528,70.713,119.176,70.794,119.928L70.794,119.928z"/>
		
			<polygon fill-rule="evenodd" clip-rule="evenodd" fill="#FFFFFF" stroke="#FFFFFF" stroke-width="5" stroke-linecap="round" stroke-linejoin="round" stroke-miterlimit="10" points="
			71.812,128.743 71.812,114.207 77.578,113.226 80.144,121.857 82.668,112.363 88.443,111.382 88.443,125.905 84.127,126.64 
			84.127,118.493 81.781,127.038 78.456,127.606 76.095,119.848 76.095,128.008 71.812,128.743 		"/>
		
			<polygon fill-rule="evenodd" clip-rule="evenodd" fill="#ED1C24" stroke="#FFFFFF" stroke-width="5" stroke-linecap="round" stroke-linejoin="round" stroke-miterlimit="10" points="
			23.845,52.769 90.899,39.75 90.899,46.41 23.845,59.439 23.845,52.769 		"/>
		
			<polygon fill-rule="evenodd" clip-rule="evenodd" fill="#FFE100" stroke="#FFFFFF" stroke-width="5" stroke-linecap="round" stroke-linejoin="round" stroke-miterlimit="10" points="
			23.845,54.938 90.899,41.913 90.899,44.366 23.845,57.398 23.845,54.938 		"/>
		
			<polygon fill="#005CAB" stroke="#FFFFFF" stroke-width="5" stroke-linecap="round" stroke-linejoin="round" stroke-miterlimit="10" points="
			54.893,8.747 52.017,6.956 53.817,4.083 56.683,5.881 54.893,8.747 		"/>
		
			<path fill="#005CAB" stroke="#FFFFFF" stroke-width="5" stroke-linecap="round" stroke-linejoin="round" stroke-miterlimit="10" d="
			M62.806,29.331l-1.033-4.855c3.342-0.055,5.906-2.651,5.906-5.849c0-3.226-2.616-5.849-5.853-5.849
			c-0.941,0-1.798,0.25-2.578,0.641c-0.409,0.222-0.807,0.589-1.27,0.953c-0.563,0.458-1.237,1.449-1.492,1.857l-0.305,0.014
			l-0.291-0.263c-0.425-0.392-0.65-0.509-0.922-0.62c-0.577-0.26-1.386-0.464-2.369-0.697c-0.159-0.014-0.305-0.038-0.468-0.038
			c-3.24,0-5.847,2.609-5.847,5.842c0,3.226,2.607,5.842,5.847,5.842l0.376-0.01l1.279,6.019c-1.729,2.076-4.34,3.389-7.248,3.389
			c-5.205,0-9.408-4.207-9.408-9.408c0-3.756,2.179-6.989,5.355-8.503c1.161-4.234,5.047-7.343,9.645-7.343
			c1.118,0,2.192,0.194,3.209,0.527c1.748-1.473,4.033-2.367,6.485-2.367c3.115,0,5.92,1.435,7.751,3.68
			c4.55,0.666,8.044,4.581,8.044,9.318c0,5.205-4.203,9.422-9.408,9.422C66.189,31.028,64.335,30.412,62.806,29.331L62.806,29.331z
			 M71.763,17.42c0.048,0.395,0.083,0.793,0.083,1.206c0,3.521-1.842,6.625-4.583,8.407c0.303,0.052,0.62,0.08,0.951,0.08
			c3.023,0,5.489-2.467,5.489-5.503C73.704,19.937,72.945,18.418,71.763,17.42L71.763,17.42z M42.366,22.708
			c-0.825,0.96-1.325,2.204-1.325,3.59c0,3.032,2.471,5.499,5.499,5.499c1.466,0,2.779-0.564,3.77-1.483
			C46.381,29.587,43.257,26.572,42.366,22.708L42.366,22.708z"/>
		
			<path fill-rule="evenodd" clip-rule="evenodd" fill="#005CAB" stroke="#FFFFFF" stroke-width="5" stroke-linecap="round" stroke-linejoin="round" stroke-miterlimit="10" d="
			M26.349,45.655c0.3,0.232,0.459,0.53,0.49,0.884l-0.565,0.111c-0.059-0.267-0.184-0.464-0.376-0.585
			c-0.199-0.128-0.464-0.156-0.814-0.087c-0.417,0.08-0.755,0.294-1.022,0.645c-0.262,0.343-0.386,0.821-0.386,1.428
			c0,0.506,0.116,0.901,0.333,1.168c0.258,0.253,0.601,0.353,1.065,0.267c0.433-0.086,0.755-0.309,0.976-0.686
			c0.116-0.194,0.216-0.44,0.27-0.731l0.572-0.107c-0.052,0.461-0.225,0.87-0.5,1.23c-0.354,0.44-0.802,0.714-1.383,0.818
			c-0.507,0.093-0.925,0.021-1.267-0.211c-0.441-0.326-0.662-0.891-0.662-1.729c0-0.624,0.17-1.178,0.502-1.656
			c0.36-0.502,0.859-0.821,1.502-0.942C25.619,45.364,26.049,45.419,26.349,45.655L26.349,45.655z"/>
		
			<path fill-rule="evenodd" clip-rule="evenodd" fill="#005CAB" stroke="#FFFFFF" stroke-width="5" stroke-linecap="round" stroke-linejoin="round" stroke-miterlimit="10" d="
			M29.822,47.221l-0.653-1.774l-0.691,2.034L29.822,47.221L29.822,47.221z M28.873,44.868l0.655-0.125l1.544,3.999l-0.624,0.125
			l-0.43-1.203l-1.7,0.315l-0.469,1.369l-0.596,0.118L28.873,44.868L28.873,44.868z"/>
		
			<polygon fill-rule="evenodd" clip-rule="evenodd" fill="#005CAB" stroke="#FFFFFF" stroke-width="5" stroke-linecap="round" stroke-linejoin="round" stroke-miterlimit="10" points="
			31.629,44.338 32.222,44.23 32.222,48.008 34.396,47.609 34.396,48.112 31.629,48.628 31.629,44.338 		"/>
		
			<polygon fill-rule="evenodd" clip-rule="evenodd" fill="#005CAB" stroke="#FFFFFF" stroke-width="5" stroke-linecap="round" stroke-linejoin="round" stroke-miterlimit="10" points="
			35.117,43.683 35.708,43.569 35.708,47.862 35.117,47.973 35.117,43.683 		"/>
		
			<path fill-rule="evenodd" clip-rule="evenodd" fill="#005CAB" stroke="#FFFFFF" stroke-width="5" stroke-linecap="round" stroke-linejoin="round" stroke-miterlimit="10" d="
			M38.33,46.871c0.208-0.042,0.362-0.09,0.487-0.156c0.222-0.122,0.405-0.305,0.553-0.555c0.118-0.184,0.192-0.426,0.256-0.707
			c0.019-0.163,0.036-0.315,0.036-0.454c0-0.53-0.104-0.929-0.32-1.182c-0.205-0.256-0.546-0.34-1.012-0.25l-1.038,0.194v3.306
			L38.33,46.871L38.33,46.871z M36.699,43.378l1.746-0.333c0.593-0.107,1.042,0.014,1.376,0.368
			c0.294,0.326,0.437,0.783,0.437,1.375c0,0.454-0.08,0.88-0.255,1.282c-0.303,0.71-0.83,1.129-1.564,1.271l-1.739,0.336V43.378
			L36.699,43.378z"/>
		
			<path fill-rule="evenodd" clip-rule="evenodd" fill="#005CAB" stroke="#FFFFFF" stroke-width="5" stroke-linecap="round" stroke-linejoin="round" stroke-miterlimit="10" d="
			M43.229,44.674l-0.651-1.778l-0.691,2.027L43.229,44.674L43.229,44.674z M42.273,42.318l0.66-0.121l1.566,3.999l-0.638,0.118
			l-0.45-1.199l-1.684,0.319l-0.466,1.372l-0.599,0.111L42.273,42.318L42.273,42.318z"/>
		
			<path fill-rule="evenodd" clip-rule="evenodd" fill="#005CAB" stroke="#FFFFFF" stroke-width="5" stroke-linecap="round" stroke-linejoin="round" stroke-miterlimit="10" d="
			M46.701,45.288c0.196-0.045,0.359-0.09,0.48-0.163c0.222-0.121,0.413-0.298,0.553-0.544c0.118-0.194,0.201-0.43,0.251-0.71
			c0.028-0.173,0.033-0.326,0.033-0.457c0-0.537-0.101-0.925-0.307-1.182c-0.218-0.26-0.546-0.333-1.026-0.246l-1.024,0.194v3.299
			L46.701,45.288L46.701,45.288z M45.078,41.788l1.733-0.333c0.592-0.111,1.055,0.014,1.375,0.374
			c0.298,0.326,0.44,0.776,0.44,1.376c0,0.45-0.09,0.87-0.263,1.278c-0.298,0.714-0.825,1.13-1.556,1.272l-1.729,0.329V41.788
			L45.078,41.788z"/>
		
			<path fill-rule="evenodd" clip-rule="evenodd" fill="#005CAB" stroke="#FFFFFF" stroke-width="5" stroke-linecap="round" stroke-linejoin="round" stroke-miterlimit="10" d="
			M54.164,40.377c0.3,0.229,0.462,0.52,0.496,0.884l-0.568,0.104c-0.061-0.26-0.199-0.454-0.386-0.589
			c-0.188-0.125-0.461-0.152-0.808-0.083c-0.421,0.08-0.764,0.294-1.029,0.648c-0.254,0.343-0.392,0.814-0.392,1.431
			c0,0.499,0.125,0.891,0.359,1.154c0.237,0.274,0.587,0.364,1.048,0.274c0.443-0.087,0.759-0.302,0.982-0.683
			c0.126-0.194,0.209-0.44,0.269-0.728l0.566-0.111c-0.052,0.461-0.213,0.877-0.504,1.23c-0.338,0.43-0.797,0.704-1.37,0.821
			c-0.508,0.09-0.931,0.018-1.262-0.222c-0.456-0.312-0.681-0.891-0.681-1.719c0-0.634,0.18-1.185,0.507-1.656
			c0.359-0.509,0.867-0.818,1.506-0.95C53.432,40.086,53.866,40.138,54.164,40.377L54.164,40.377z"/>
		
			<polygon fill-rule="evenodd" clip-rule="evenodd" fill="#005CAB" stroke="#FFFFFF" stroke-width="5" stroke-linecap="round" stroke-linejoin="round" stroke-miterlimit="10" points="
			55.492,39.812 58.62,39.213 58.62,39.74 56.054,40.232 56.054,41.535 58.427,41.088 58.427,41.587 56.054,42.03 56.054,43.493 
			58.67,42.99 58.67,43.496 55.492,44.106 55.492,39.812 		"/>
		
			<path fill-rule="evenodd" clip-rule="evenodd" fill="#005CAB" stroke="#FFFFFF" stroke-width="5" stroke-linecap="round" stroke-linejoin="round" stroke-miterlimit="10" d="
			M61.447,40.647c0.275-0.045,0.477-0.149,0.646-0.277c0.154-0.149,0.237-0.364,0.237-0.648c0-0.298-0.104-0.492-0.333-0.562
			c-0.111-0.038-0.275-0.038-0.475,0l-1.42,0.274v1.476L61.447,40.647L61.447,40.647z M59.519,39.047l1.992-0.378
			c0.333-0.062,0.6-0.062,0.802-0.014c0.414,0.114,0.617,0.412,0.617,0.904c0,0.263-0.061,0.475-0.173,0.662
			c-0.097,0.18-0.241,0.346-0.444,0.475c0.173,0.035,0.293,0.097,0.379,0.201c0.088,0.094,0.139,0.267,0.151,0.513l0.012,0.575
			c0,0.152,0.026,0.277,0.033,0.35c0.042,0.135,0.106,0.211,0.196,0.232v0.101l-0.719,0.135c-0.009-0.035-0.026-0.08-0.035-0.135
			c-0.018-0.062-0.03-0.17-0.03-0.336l-0.036-0.703c-0.021-0.284-0.125-0.444-0.313-0.513c-0.107-0.027-0.286-0.024-0.52,0.024
			l-1.329,0.25v1.84l-0.584,0.107V39.047L59.519,39.047z"/>
		
			<polygon fill-rule="evenodd" clip-rule="evenodd" fill="#005CAB" stroke="#FFFFFF" stroke-width="5" stroke-linecap="round" stroke-linejoin="round" stroke-miterlimit="10" points="
			66.813,37.661 66.813,38.173 65.372,38.447 65.372,42.231 64.781,42.342 64.781,38.558 63.334,38.829 63.334,38.323 
			66.813,37.661 		"/>
		
			<polygon fill-rule="evenodd" clip-rule="evenodd" fill="#005CAB" stroke="#FFFFFF" stroke-width="5" stroke-linecap="round" stroke-linejoin="round" stroke-miterlimit="10" points="
			67.51,37.536 68.088,37.429 68.088,41.715 67.51,41.829 67.51,37.536 		"/>
		
			<polygon fill-rule="evenodd" clip-rule="evenodd" fill="#005CAB" stroke="#FFFFFF" stroke-width="5" stroke-linecap="round" stroke-linejoin="round" stroke-miterlimit="10" points="
			69.118,37.224 72.096,36.659 72.096,37.189 69.691,37.65 69.691,38.95 71.812,38.544 71.812,39.057 69.691,39.456 69.691,41.41 
			69.118,41.514 69.118,37.224 		"/>
		
			<polygon fill-rule="evenodd" clip-rule="evenodd" fill="#005CAB" stroke="#FFFFFF" stroke-width="5" stroke-linecap="round" stroke-linejoin="round" stroke-miterlimit="10" points="
			72.879,36.517 73.466,36.403 73.466,40.693 72.879,40.807 72.879,36.517 		"/>
		
			<path fill-rule="evenodd" clip-rule="evenodd" fill="#005CAB" stroke="#FFFFFF" stroke-width="5" stroke-linecap="round" stroke-linejoin="round" stroke-miterlimit="10" d="
			M77.507,35.945c0.305,0.229,0.471,0.523,0.5,0.887l-0.566,0.107c-0.062-0.267-0.192-0.464-0.397-0.596
			c-0.182-0.121-0.449-0.156-0.792-0.086c-0.419,0.086-0.773,0.294-1.033,0.641c-0.258,0.346-0.383,0.828-0.383,1.445
			c0,0.506,0.112,0.887,0.35,1.161c0.234,0.257,0.587,0.354,1.047,0.26c0.433-0.08,0.753-0.298,0.979-0.672
			c0.125-0.197,0.203-0.443,0.265-0.734l0.567-0.107c-0.049,0.447-0.217,0.866-0.508,1.23c-0.341,0.43-0.792,0.7-1.367,0.814
			c-0.504,0.086-0.915,0.024-1.261-0.211c-0.449-0.322-0.679-0.894-0.679-1.726c0-0.634,0.17-1.189,0.513-1.653
			c0.362-0.516,0.866-0.825,1.499-0.953C76.786,35.654,77.212,35.713,77.507,35.945L77.507,35.945z"/>
		
			<path fill-rule="evenodd" clip-rule="evenodd" fill="#005CAB" stroke="#FFFFFF" stroke-width="5" stroke-linecap="round" stroke-linejoin="round" stroke-miterlimit="10" d="
			M80.986,37.512l-0.659-1.778l-0.686,2.031L80.986,37.512L80.986,37.512z M80.022,35.148l0.658-0.118l1.556,4.002l-0.631,0.111
			l-0.438-1.202l-1.694,0.326l-0.468,1.372l-0.603,0.122L80.022,35.148L80.022,35.148z"/>
		
			<path fill-rule="evenodd" clip-rule="evenodd" fill="#005CAB" stroke="#FFFFFF" stroke-width="5" stroke-linecap="round" stroke-linejoin="round" stroke-miterlimit="10" d="
			M84.451,38.111c0.192-0.031,0.35-0.087,0.479-0.149c0.222-0.128,0.417-0.305,0.572-0.544c0.092-0.201,0.182-0.437,0.234-0.714
			c0.031-0.166,0.042-0.322,0.042-0.464c0-0.533-0.101-0.921-0.317-1.178c-0.21-0.257-0.541-0.34-1.016-0.246l-1.043,0.19v3.309
			L84.451,38.111L84.451,38.111z M82.817,34.618l1.743-0.322c0.591-0.114,1.053,0.007,1.374,0.367
			c0.3,0.322,0.433,0.773,0.433,1.366c0,0.45-0.083,0.887-0.246,1.285c-0.312,0.71-0.83,1.133-1.564,1.269l-1.74,0.333V34.618
			L82.817,34.618z"/>
		
			<path fill-rule="evenodd" clip-rule="evenodd" fill="#005CAB" stroke="#FFFFFF" stroke-width="5" stroke-linecap="round" stroke-linejoin="round" stroke-miterlimit="10" d="
			M89.354,35.921l-0.655-1.774l-0.689,2.027L89.354,35.921L89.354,35.921z M88.387,33.568l0.671-0.128l1.554,3.999l-0.641,0.121
			l-0.428-1.202l-1.701,0.315l-0.466,1.383l-0.596,0.114L88.387,33.568L88.387,33.568z"/>
		
			<path fill="#005CAB" stroke="#FFFFFF" stroke-width="5" stroke-linecap="round" stroke-linejoin="round" stroke-miterlimit="10" d="
			M26.364,144.943c0.209-0.586,0.301-1.23,0.284-1.944c-0.009-0.762-0.149-1.348-0.409-1.777c-0.253-0.413-0.606-0.593-1.033-0.527
			c-0.424,0.076-0.753,0.354-1.012,0.849c-0.263,0.502-0.383,1.199-0.358,2.093c0.012,0.71,0.14,1.296,0.374,1.747
			c0.243,0.454,0.617,0.645,1.126,0.558C25.815,145.864,26.165,145.535,26.364,144.943L26.364,144.943z M26.764,140.771
			c0.293,0.527,0.444,1.23,0.451,2.121c0.016,0.96-0.125,1.781-0.407,2.471c-0.36,0.801-0.857,1.265-1.521,1.369
			c-0.638,0.093-1.121-0.149-1.496-0.745c-0.324-0.579-0.492-1.355-0.53-2.322c-0.012-0.87,0.112-1.632,0.362-2.284
			c0.343-0.863,0.842-1.341,1.535-1.452C25.874,139.811,26.406,140.098,26.764,140.771L26.764,140.771z"/>
		
			<path fill="#005CAB" stroke="#FFFFFF" stroke-width="5" stroke-linecap="round" stroke-linejoin="round" stroke-miterlimit="10" d="
			M33.256,144.555c0.102,0.114,0.232,0.159,0.374,0.135c0.175-0.035,0.341-0.122,0.508-0.277c0.267-0.256,0.4-0.624,0.383-1.116
			l-0.003-0.624c-0.062,0.066-0.133,0.135-0.225,0.191c-0.095,0.055-0.187,0.1-0.288,0.135l-0.3,0.101
			c-0.17,0.083-0.309,0.156-0.395,0.243c-0.159,0.17-0.227,0.398-0.222,0.707C33.088,144.274,33.151,144.44,33.256,144.555
			L33.256,144.555z M34.263,142.254c0.109-0.045,0.184-0.125,0.225-0.264c0.021-0.076,0.029-0.166,0.029-0.312
			c-0.009-0.264-0.071-0.458-0.205-0.558c-0.116-0.101-0.288-0.135-0.511-0.094c-0.264,0.042-0.444,0.184-0.546,0.416
			c-0.052,0.142-0.097,0.322-0.105,0.572l-0.47,0.073c-0.009-0.575,0.113-0.995,0.333-1.261c0.225-0.26,0.475-0.419,0.789-0.461
			c0.343-0.062,0.622,0,0.863,0.173c0.211,0.177,0.315,0.481,0.336,0.929l0.045,2.709c0,0.073,0.009,0.132,0.042,0.18
			c0.008,0.049,0.067,0.069,0.13,0.056c0.021-0.007,0.045-0.01,0.069-0.024c0,0,0.052-0.01,0.1-0.031v0.586
			c-0.074,0.055-0.131,0.08-0.178,0.1c-0.037,0.011-0.092,0.024-0.163,0.028c-0.169,0.028-0.299-0.045-0.374-0.222
			c-0.042-0.094-0.075-0.236-0.092-0.419c-0.104,0.226-0.25,0.433-0.421,0.617c-0.188,0.18-0.406,0.291-0.624,0.333
			c-0.279,0.038-0.509-0.056-0.689-0.291c-0.173-0.236-0.274-0.555-0.274-0.939c-0.008-0.454,0.068-0.79,0.229-1.06
			c0.169-0.267,0.404-0.451,0.674-0.547L34.263,142.254L34.263,142.254z"/>
		
			<path fill="#005CAB" stroke="#FFFFFF" stroke-width="5" stroke-linecap="round" stroke-linejoin="round" stroke-miterlimit="10" d="
			M35.73,140.164l0.466-0.076l0.012,0.659c0.128-0.295,0.283-0.51,0.437-0.659c0.159-0.139,0.326-0.229,0.516-0.256
			c0.417-0.069,0.717,0.118,0.866,0.558c0.083,0.239,0.139,0.596,0.151,1.07l0.05,3.011l-0.499,0.077l-0.068-2.953
			c0-0.291-0.033-0.513-0.086-0.676c-0.105-0.277-0.263-0.402-0.492-0.371c-0.112,0.024-0.211,0.059-0.279,0.104
			c-0.151,0.086-0.267,0.243-0.359,0.443c-0.086,0.173-0.142,0.34-0.15,0.502c-0.024,0.177-0.024,0.409-0.024,0.725l0.033,2.453
			l-0.491,0.076L35.73,140.164L35.73,140.164z"/>
		
			<path fill="#005CAB" stroke="#FFFFFF" stroke-width="5" stroke-linecap="round" stroke-linejoin="round" stroke-miterlimit="10" d="
			M38.816,139.689l0.504-0.083l0.104,4.671l-0.516,0.08L38.816,139.689L38.816,139.689z M38.782,137.929l0.513-0.076l0.014,0.891
			l-0.513,0.08L38.782,137.929L38.782,137.929z"/>
		
			<path fill="#005CAB" stroke="#FFFFFF" stroke-width="5" stroke-linecap="round" stroke-linejoin="round" stroke-miterlimit="10" d="
			M40.379,142.649c0.021,0.256,0.066,0.45,0.125,0.582c0.142,0.232,0.371,0.329,0.691,0.281c0.182-0.031,0.347-0.128,0.487-0.274
			c0.142-0.149,0.204-0.364,0.192-0.624c0-0.205-0.05-0.343-0.178-0.433c-0.075-0.052-0.213-0.104-0.421-0.153l-0.404-0.093
			c-0.275-0.059-0.451-0.139-0.584-0.243c-0.222-0.177-0.326-0.458-0.35-0.828c0-0.447,0.104-0.825,0.283-1.126
			c0.208-0.305,0.48-0.488,0.825-0.547c0.442-0.076,0.788,0.08,0.987,0.471c0.128,0.243,0.199,0.513,0.199,0.811l-0.466,0.076
			c-0.016-0.17-0.069-0.326-0.133-0.464c-0.113-0.18-0.338-0.253-0.612-0.208c-0.187,0.035-0.338,0.111-0.43,0.239
			c-0.104,0.139-0.146,0.291-0.146,0.475c0,0.205,0.076,0.354,0.201,0.458c0.083,0.059,0.199,0.101,0.346,0.139l0.331,0.073
			c0.373,0.083,0.613,0.173,0.743,0.284c0.196,0.173,0.3,0.468,0.3,0.904c0.012,0.416-0.088,0.79-0.27,1.133
			c-0.205,0.329-0.501,0.526-0.927,0.599c-0.44,0.066-0.749-0.031-0.953-0.326c-0.188-0.291-0.3-0.665-0.317-1.126L40.379,142.649
			L40.379,142.649z"/>
		
			<path fill="#005CAB" stroke="#FFFFFF" stroke-width="5" stroke-linecap="round" stroke-linejoin="round" stroke-miterlimit="10" d="
			M42.777,139.031l0.497-0.073l0.016,0.668c0.122-0.256,0.222-0.437,0.317-0.558c0.158-0.201,0.338-0.326,0.546-0.364
			c0.241-0.031,0.437,0.027,0.575,0.194c0.086,0.094,0.163,0.236,0.229,0.437c0.107-0.281,0.239-0.481,0.379-0.638
			c0.149-0.131,0.309-0.225,0.499-0.256c0.404-0.062,0.667,0.125,0.83,0.558c0.078,0.232,0.128,0.561,0.138,0.96l0.058,3.129
			l-0.525,0.094l-0.059-3.268c-0.003-0.312-0.045-0.523-0.151-0.624c-0.102-0.101-0.227-0.142-0.377-0.111
			c-0.188,0.028-0.357,0.159-0.492,0.385c-0.137,0.239-0.205,0.589-0.192,1.078l0.056,2.727l-0.501,0.08l-0.066-3.06
			c-0.009-0.315-0.042-0.551-0.088-0.687c-0.071-0.208-0.215-0.291-0.428-0.263c-0.175,0.031-0.35,0.17-0.501,0.433
			c-0.149,0.25-0.216,0.676-0.201,1.289l0.042,2.481l-0.498,0.08L42.777,139.031L42.777,139.031z"/>
		
			<path fill="#005CAB" stroke="#FFFFFF" stroke-width="5" stroke-linecap="round" stroke-linejoin="round" stroke-miterlimit="10" d="
			M49.342,141.585c0.118-0.416,0.177-0.866,0.163-1.348c-0.012-0.433-0.057-0.793-0.163-1.046c-0.141-0.409-0.386-0.585-0.716-0.534
			c-0.3,0.042-0.52,0.267-0.658,0.655c-0.116,0.392-0.178,0.842-0.17,1.362c0.019,0.506,0.087,0.908,0.237,1.216
			c0.142,0.312,0.354,0.444,0.655,0.395C49.018,142.233,49.243,141.997,49.342,141.585L49.342,141.585z M49.602,138.421
			c0.267,0.36,0.407,0.929,0.424,1.711c0.009,0.749-0.095,1.39-0.308,1.923c-0.225,0.534-0.572,0.835-1.057,0.912
			c-0.411,0.062-0.743-0.104-0.968-0.496c-0.267-0.398-0.386-0.963-0.398-1.702c-0.021-0.79,0.097-1.435,0.341-1.944
			c0.237-0.502,0.566-0.793,0.991-0.863C49.002,137.912,49.332,138.054,49.602,138.421L49.602,138.421z"/>
		
			<path fill="#005CAB" stroke="#FFFFFF" stroke-width="5" stroke-linecap="round" stroke-linejoin="round" stroke-miterlimit="10" d="
			M52.637,141.134c0.139,0.322,0.352,0.451,0.648,0.406c0.232-0.042,0.419-0.226,0.553-0.555c0.154-0.336,0.208-0.804,0.208-1.396
			c-0.016-0.589-0.107-1.015-0.258-1.275c-0.16-0.26-0.355-0.378-0.57-0.35c-0.26,0.052-0.459,0.239-0.599,0.562
			c-0.154,0.336-0.218,0.79-0.207,1.379C52.422,140.407,52.495,140.823,52.637,141.134L52.637,141.134z M53.684,137.44
			c0.066,0.076,0.182,0.211,0.309,0.413l-0.054-2.367l0.469-0.076l0.142,6.456l-0.459,0.069l-0.016-0.662
			c-0.107,0.319-0.237,0.551-0.392,0.7c-0.158,0.142-0.338,0.235-0.534,0.281c-0.324,0.048-0.617-0.125-0.866-0.527
			c-0.25-0.405-0.388-0.96-0.4-1.694c-0.016-0.683,0.088-1.289,0.302-1.823c0.208-0.537,0.516-0.846,0.923-0.912
			C53.333,137.271,53.517,137.316,53.684,137.44L53.684,137.44z"/>
		
			<path fill="#005CAB" stroke="#FFFFFF" stroke-width="5" stroke-linecap="round" stroke-linejoin="round" stroke-miterlimit="10" d="
			M57.19,138.706c-0.042-0.333-0.087-0.603-0.167-0.79c-0.142-0.354-0.367-0.51-0.674-0.461c-0.251,0.038-0.424,0.197-0.575,0.481
			c-0.154,0.284-0.222,0.634-0.222,1.033L57.19,138.706L57.19,138.706z M56.961,136.9c0.199,0.118,0.347,0.298,0.463,0.537
			c0.112,0.222,0.175,0.485,0.216,0.79c0.037,0.215,0.054,0.562,0.059,1.029l-2.146,0.347c0.014,0.475,0.097,0.849,0.237,1.112
			c0.135,0.27,0.343,0.377,0.617,0.333c0.26-0.038,0.452-0.208,0.61-0.509c0.083-0.167,0.132-0.36,0.173-0.579l0.487-0.08
			c-0.012,0.177-0.057,0.378-0.128,0.6c-0.061,0.222-0.133,0.416-0.225,0.558c-0.133,0.26-0.329,0.45-0.549,0.561
			c-0.107,0.069-0.25,0.118-0.404,0.135c-0.358,0.062-0.67-0.097-0.937-0.485c-0.258-0.385-0.4-0.953-0.416-1.729
			c-0.017-0.749,0.103-1.382,0.34-1.892c0.254-0.513,0.583-0.794,1.001-0.867C56.562,136.723,56.77,136.779,56.961,136.9
			L56.961,136.9z"/>
		
			<path fill="#005CAB" stroke="#FFFFFF" stroke-width="5" stroke-linecap="round" stroke-linejoin="round" stroke-miterlimit="10" d="
			M62.641,134.585c0.294,0.381,0.466,0.842,0.511,1.389l-0.546,0.083c-0.067-0.402-0.192-0.71-0.371-0.925
			c-0.188-0.215-0.445-0.294-0.763-0.25c-0.392,0.066-0.708,0.333-0.93,0.821c-0.236,0.485-0.343,1.182-0.319,2.107
			c0.012,0.755,0.133,1.351,0.357,1.777c0.23,0.44,0.568,0.624,0.993,0.548c0.392-0.059,0.704-0.354,0.894-0.88
			c0.109-0.284,0.173-0.634,0.225-1.061l0.536-0.093c-0.047,0.686-0.189,1.286-0.433,1.777c-0.309,0.6-0.747,0.946-1.272,1.04
			c-0.475,0.08-0.875-0.093-1.192-0.492c-0.424-0.53-0.662-1.421-0.683-2.675c-0.009-0.946,0.125-1.743,0.419-2.405
			c0.331-0.721,0.779-1.119,1.389-1.216C61.965,134.052,62.366,134.194,62.641,134.585L62.641,134.585z"/>
		
			<path fill="#005CAB" stroke="#FFFFFF" stroke-width="5" stroke-linecap="round" stroke-linejoin="round" stroke-miterlimit="10" d="
			M65.81,137.323c-0.024-0.333-0.075-0.6-0.149-0.783c-0.151-0.357-0.379-0.509-0.697-0.464c-0.225,0.042-0.407,0.198-0.554,0.482
			c-0.149,0.28-0.229,0.634-0.229,1.032L65.81,137.323L65.81,137.323z M65.597,135.524c0.196,0.132,0.359,0.301,0.468,0.53
			c0.087,0.218,0.167,0.488,0.211,0.804c0.038,0.205,0.045,0.547,0.062,1.019l-2.148,0.343c0.01,0.478,0.101,0.849,0.225,1.116
			c0.142,0.267,0.354,0.378,0.617,0.336c0.26-0.039,0.46-0.215,0.615-0.506c0.088-0.173,0.139-0.371,0.175-0.585l0.492-0.076
			c-0.008,0.173-0.05,0.371-0.13,0.592c-0.062,0.226-0.146,0.419-0.229,0.565c-0.146,0.26-0.333,0.44-0.558,0.562
			c-0.105,0.059-0.246,0.104-0.395,0.132c-0.362,0.062-0.679-0.101-0.937-0.489c-0.264-0.378-0.404-0.953-0.413-1.719
			c-0.029-0.755,0.095-1.386,0.348-1.899c0.248-0.509,0.568-0.797,0.979-0.866C65.198,135.348,65.389,135.393,65.597,135.524
			L65.597,135.524z"/>
		
			<path fill="#005CAB" stroke="#FFFFFF" stroke-width="5" stroke-linecap="round" stroke-linejoin="round" stroke-miterlimit="10" d="
			M66.872,135.192l0.477-0.077l0.007,0.808c0.038-0.173,0.116-0.374,0.272-0.617c0.154-0.256,0.319-0.398,0.52-0.423h0.042
			c0.026,0,0.074,0,0.116,0l0.016,0.821h-0.083c0,0-0.048,0-0.075,0.003c-0.253,0.042-0.441,0.194-0.566,0.475
			c-0.128,0.284-0.19,0.589-0.178,0.915l0.05,2.699l-0.496,0.08L66.872,135.192L66.872,135.192z"/>
		
			<path fill="#005CAB" stroke="#FFFFFF" stroke-width="5" stroke-linecap="round" stroke-linejoin="round" stroke-miterlimit="10" d="
			M68.753,133.577l0.501-0.076l0.035,1.3l0.47-0.077l0.012,0.652l-0.475,0.076l0.064,3.053c0,0.167,0.037,0.274,0.113,0.312
			c0.033,0.024,0.099,0.031,0.189,0.01c0,0,0.043,0,0.085-0.01c0,0,0.05-0.014,0.088-0.028l0.019,0.627
			c-0.057,0.031-0.122,0.066-0.182,0.087c-0.067,0.017-0.121,0.038-0.192,0.052c-0.237,0.035-0.398-0.035-0.478-0.208
			c-0.094-0.18-0.135-0.416-0.146-0.717l-0.061-3.101l-0.398,0.062l-0.009-0.645l0.392-0.062L68.753,133.577L68.753,133.577z"/>
		
			<path fill="#005CAB" stroke="#FFFFFF" stroke-width="5" stroke-linecap="round" stroke-linejoin="round" stroke-miterlimit="10" d="
			M70.2,134.682l0.513-0.086l0.081,4.674l-0.507,0.076L70.2,134.682L70.2,134.682z M70.162,132.918l0.501-0.083l0.029,0.894
			l-0.508,0.08L70.162,132.918L70.162,132.918z"/>
		
			<path fill="#005CAB" stroke="#FFFFFF" stroke-width="5" stroke-linecap="round" stroke-linejoin="round" stroke-miterlimit="10" d="
			M71.604,132.991c0.109-0.277,0.326-0.45,0.664-0.502c0.029-0.01,0.057-0.01,0.086-0.014c0.042,0,0.08,0,0.08,0l0.054,0.714
			c-0.05,0-0.092,0.003-0.092,0.003l-0.071,0.017c-0.17,0.021-0.262,0.094-0.279,0.225c-0.042,0.128-0.042,0.444-0.042,0.957
			l0.508-0.083l0.019,0.617l-0.509,0.087l0.086,4.043l-0.499,0.08l-0.067-4.051l-0.425,0.065v-0.62l0.413-0.062l-0.016-0.738
			C71.514,133.4,71.542,133.161,71.604,132.991L71.604,132.991z"/>
		
			<path fill="#005CAB" stroke="#FFFFFF" stroke-width="5" stroke-linecap="round" stroke-linejoin="round" stroke-miterlimit="10" d="
			M72.912,134.242l0.507-0.083l0.088,4.667l-0.496,0.086L72.912,134.242L72.912,134.242z M72.879,132.479l0.511-0.076l0.029,0.897
			l-0.52,0.076L72.879,132.479L72.879,132.479z"/>
		
			<path fill="#005CAB" stroke="#FFFFFF" stroke-width="5" stroke-linecap="round" stroke-linejoin="round" stroke-miterlimit="10" d="
			M76.079,133.976c0.208,0.218,0.339,0.637,0.398,1.258L76,135.31c-0.045-0.277-0.109-0.513-0.226-0.689
			c-0.109-0.17-0.27-0.236-0.513-0.205c-0.312,0.059-0.534,0.329-0.648,0.849c-0.08,0.326-0.126,0.721-0.126,1.192
			c0.009,0.468,0.083,0.853,0.216,1.154c0.134,0.301,0.333,0.44,0.6,0.392c0.211-0.038,0.376-0.163,0.475-0.374
			c0.135-0.222,0.201-0.513,0.246-0.863l0.48-0.073c-0.042,0.627-0.175,1.105-0.388,1.428c-0.213,0.322-0.495,0.509-0.838,0.572
			c-0.385,0.056-0.698-0.121-0.936-0.53c-0.243-0.412-0.371-0.963-0.376-1.622c-0.019-0.832,0.092-1.49,0.343-1.979
			c0.238-0.506,0.555-0.787,0.946-0.853C75.59,133.66,75.861,133.75,76.079,133.976L76.079,133.976z"/>
		
			<path fill="#005CAB" stroke="#FFFFFF" stroke-width="5" stroke-linecap="round" stroke-linejoin="round" stroke-miterlimit="10" d="
			M77.507,137.482c0.104,0.107,0.234,0.156,0.383,0.135c0.167-0.028,0.329-0.114,0.497-0.27c0.269-0.256,0.411-0.631,0.392-1.116
			l-0.017-0.641c-0.05,0.083-0.134,0.142-0.23,0.197c-0.09,0.066-0.177,0.111-0.279,0.135l-0.298,0.111
			c-0.177,0.066-0.319,0.149-0.402,0.239c-0.147,0.169-0.224,0.402-0.215,0.693C77.337,137.194,77.397,137.364,77.507,137.482
			L77.507,137.482z M78.508,135.188c0.111-0.045,0.196-0.131,0.237-0.267c0.016-0.08,0.016-0.177,0.016-0.309
			c0-0.27-0.076-0.464-0.192-0.558c-0.125-0.097-0.298-0.135-0.525-0.097c-0.267,0.038-0.437,0.184-0.537,0.416
			c-0.066,0.135-0.103,0.326-0.109,0.572l-0.469,0.073c0-0.575,0.107-0.998,0.333-1.269c0.23-0.263,0.483-0.419,0.783-0.464
			c0.35-0.052,0.634,0.014,0.845,0.177c0.229,0.187,0.347,0.496,0.347,0.939l0.062,2.696c0,0.083,0.012,0.149,0.027,0.194
			c0.018,0.045,0.077,0.059,0.135,0.056c0.038-0.007,0.049-0.011,0.075-0.024c0.038-0.003,0.057-0.024,0.099-0.031l0.007,0.585
			c-0.08,0.045-0.135,0.073-0.18,0.087c-0.035,0.017-0.092,0.024-0.154,0.042c-0.188,0.028-0.301-0.045-0.379-0.225
			c-0.05-0.097-0.083-0.239-0.095-0.419c-0.086,0.222-0.243,0.43-0.43,0.603c-0.184,0.197-0.395,0.309-0.625,0.339
			c-0.27,0.045-0.499-0.045-0.674-0.288c-0.184-0.232-0.282-0.554-0.282-0.949c-0.014-0.433,0.069-0.783,0.223-1.046
			c0.18-0.271,0.397-0.454,0.679-0.544L78.508,135.188L78.508,135.188z"/>
		
			<path fill="#005CAB" stroke="#FFFFFF" stroke-width="5" stroke-linecap="round" stroke-linejoin="round" stroke-miterlimit="10" d="
			M81.944,133.033c0.199,0.222,0.345,0.641,0.398,1.269l-0.487,0.073c-0.045-0.291-0.113-0.513-0.208-0.69
			c-0.12-0.18-0.288-0.242-0.528-0.204c-0.309,0.048-0.542,0.329-0.66,0.842c-0.09,0.333-0.116,0.728-0.102,1.203
			c0.008,0.461,0.074,0.849,0.211,1.15c0.139,0.298,0.317,0.433,0.599,0.388c0.199-0.031,0.36-0.163,0.48-0.371
			c0.122-0.222,0.201-0.509,0.243-0.863l0.466-0.08c-0.03,0.634-0.165,1.112-0.368,1.431c-0.22,0.322-0.504,0.509-0.853,0.568
			c-0.379,0.059-0.693-0.111-0.942-0.523c-0.232-0.409-0.364-0.953-0.376-1.635c0-0.821,0.092-1.469,0.352-1.972
			c0.232-0.502,0.549-0.776,0.944-0.849C81.443,132.725,81.717,132.811,81.944,133.033L81.944,133.033z"/>
		
			<path fill="#005CAB" stroke="#FFFFFF" stroke-width="5" stroke-linecap="round" stroke-linejoin="round" stroke-miterlimit="10" d="
			M82.743,132.669l0.504-0.076l0.101,4.671l-0.504,0.076L82.743,132.669L82.743,132.669z M82.706,130.909l0.513-0.073l0.016,0.884
			l-0.508,0.076L82.706,130.909L82.706,130.909z"/>
		
			<path fill="#005CAB" stroke="#FFFFFF" stroke-width="5" stroke-linecap="round" stroke-linejoin="round" stroke-miterlimit="10" d="
			M85.676,130.292l-0.705,1.375l-0.378,0.062l0.472-1.337L85.676,130.292L85.676,130.292z M85.851,135.75
			c0.107-0.412,0.159-0.866,0.159-1.348c-0.01-0.433-0.059-0.783-0.151-1.046c-0.154-0.409-0.4-0.589-0.738-0.53
			c-0.291,0.045-0.511,0.263-0.641,0.655c-0.116,0.392-0.187,0.842-0.18,1.362c0.009,0.496,0.092,0.897,0.234,1.213
			c0.135,0.312,0.358,0.443,0.664,0.395C85.517,136.394,85.744,136.166,85.851,135.75L85.851,135.75z M86.097,132.589
			c0.271,0.354,0.421,0.929,0.43,1.712c0.012,0.749-0.083,1.389-0.308,1.923c-0.218,0.53-0.577,0.832-1.059,0.912
			c-0.397,0.062-0.724-0.097-0.976-0.502c-0.25-0.402-0.383-0.96-0.4-1.702c-0.003-0.783,0.118-1.431,0.355-1.94
			c0.229-0.502,0.565-0.793,0.982-0.863C85.501,132.073,85.827,132.222,86.097,132.589L86.097,132.589z"/>
		
			<path fill="#005CAB" stroke="#FFFFFF" stroke-width="5" stroke-linecap="round" stroke-linejoin="round" stroke-miterlimit="10" d="
			M87.038,131.969l0.471-0.083l0.009,0.666c0.142-0.291,0.291-0.517,0.433-0.659c0.167-0.142,0.324-0.232,0.523-0.26
			c0.417-0.069,0.708,0.122,0.859,0.558c0.092,0.239,0.133,0.6,0.149,1.067l0.061,3.015l-0.515,0.076l-0.057-2.956
			c0-0.284-0.038-0.509-0.095-0.672c-0.083-0.284-0.26-0.399-0.489-0.368c-0.112,0.018-0.208,0.059-0.288,0.101
			c-0.128,0.09-0.241,0.239-0.341,0.44c-0.08,0.177-0.137,0.343-0.166,0.513c-0.009,0.169-0.026,0.402-0.009,0.714l0.038,2.453
			l-0.496,0.08L87.038,131.969L87.038,131.969z"/>
		
			<path fill="#005CAB" stroke="#FFFFFF" stroke-width="5" stroke-linecap="round" stroke-linejoin="round" stroke-miterlimit="10" d="
			M27.731,141.436l0.475-0.069l0.017,0.811c0.042-0.169,0.125-0.371,0.267-0.62c0.154-0.253,0.326-0.392,0.515-0.423h0.061
			c0,0,0.048,0,0.104,0l0.012,0.825c-0.026-0.003-0.05-0.003-0.05-0.003c-0.05,0-0.074,0-0.104,0.003
			c-0.253,0.042-0.445,0.201-0.575,0.475c-0.121,0.28-0.178,0.589-0.178,0.921l0.057,2.696l-0.494,0.08L27.731,141.436
			L27.731,141.436z"/>
		
			<path fill="#005CAB" stroke="#FFFFFF" stroke-width="5" stroke-linecap="round" stroke-linejoin="round" stroke-miterlimit="10" d="
			M31.279,141.914c-0.166-0.26-0.348-0.371-0.577-0.329c-0.373,0.052-0.596,0.35-0.705,0.891c-0.071,0.294-0.101,0.665-0.082,1.105
			c0.01,0.53,0.09,0.921,0.218,1.174c0.151,0.25,0.331,0.36,0.554,0.326c0.354-0.055,0.602-0.343,0.733-0.88
			c0.073-0.305,0.114-0.645,0.103-1.033C31.517,142.59,31.43,142.164,31.279,141.914L31.279,141.914z M31.189,141.076
			c0.101,0.09,0.199,0.222,0.305,0.405l-0.012-0.6l0.449-0.066l0.087,4.255c0.012,0.6-0.019,1.084-0.137,1.441
			c-0.191,0.669-0.567,1.05-1.14,1.133c-0.317,0.062-0.581-0.01-0.814-0.201c-0.206-0.197-0.345-0.526-0.386-0.998l0.516-0.09
			c0.021,0.208,0.078,0.36,0.168,0.464c0.099,0.159,0.274,0.218,0.517,0.18c0.373-0.059,0.615-0.309,0.731-0.766
			c0.064-0.25,0.083-0.714,0.064-1.355c-0.092,0.26-0.204,0.454-0.346,0.592c-0.125,0.142-0.313,0.226-0.546,0.267
			c-0.317,0.048-0.596-0.083-0.846-0.409c-0.258-0.329-0.383-0.901-0.391-1.732c-0.021-0.79,0.086-1.417,0.317-1.896
			c0.237-0.481,0.523-0.752,0.866-0.8C30.818,140.864,31.02,140.923,31.189,141.076L31.189,141.076z"/>
	</g>
	<g>
		<path fill="#FFFFFF" d="M26.229,62.689l63.43-12.832l-1.717,49.805v4.162c0,0-1.845,5.146-11.634,5.891l-51.101,7.959
			L26.229,62.689L26.229,62.689z"/>
		<path fill-rule="evenodd" clip-rule="evenodd" fill="#005CAB" d="M23.441,120.704l59.176-9.48c4.865-1.057,6.79-2.335,8.686-7.838
			c0,9.748,0,14.855,0,14.855c-0.092,4.653-1.27,8.469-6.541,9.664c-7.227,1.133-61.321,9.893-61.321,9.893V120.704L23.441,120.704z
			"/>
		<path fill="#005CAB" d="M33.396,100.537c-0.679,0.118-1.225,0.485-1.661,1.102c-0.426,0.61-0.634,1.379-0.645,2.284
			c0,0.908,0.211,1.598,0.622,2.051c0.447,0.458,1.021,0.631,1.722,0.506c0.745-0.121,1.336-0.495,1.804-1.109
			c0.458-0.634,0.678-1.379,0.678-2.256c0.01-0.904-0.22-1.59-0.678-2.055C34.796,100.571,34.164,100.401,33.396,100.537
			L33.396,100.537z M67.496,95.408c-0.392-0.298-0.852-0.398-1.365-0.312c-0.733,0.121-1.278,0.561-1.679,1.313
			c-0.613,1.178-0.922,3.015-0.925,5.523c-0.012,1.792,0.126,3.216,0.379,4.252c0.192,0.811,0.483,1.348,0.866,1.639
			c0.379,0.27,0.818,0.374,1.292,0.291c0.458-0.08,0.893-0.322,1.265-0.724c0.392-0.409,0.683-1.088,0.908-2.034
			c0.293-1.244,0.426-2.796,0.438-4.633c0.005-1.407-0.088-2.571-0.288-3.482C68.189,96.309,67.898,95.699,67.496,95.408
			L67.496,95.408z M90.766,49.633l-10.085,2.031c0.729,0.097,1.405,0.267,2.005,0.541c1.474,0.655,2.699,1.757,3.664,3.323
			c0.979,1.549,1.679,3.333,2.1,5.357c0.426,2.02,0.634,4.168,0.631,6.438c-0.014,3.486-0.494,6.674-1.414,9.574
			c-0.925,2.907-2.32,5.222-4.207,6.93c-1.866,1.719-4.073,2.796-6.598,3.237c-3.597,0.603-6.433-0.295-8.474-2.703
			c-2.382-2.81-3.557-7.048-3.536-12.683c0.016-3.032,0.412-6.019,1.193-8.94c0.78-2.925,2.109-5.361,3.977-7.298
			c0.856-0.887,1.812-1.615,2.866-2.197L59.462,55.96c0.057,0.035,0.137,0.066,0.204,0.104c0.877,0.558,1.582,1.237,2.125,2.065
			c0.549,0.818,0.979,1.667,1.275,2.564c0.31,0.891,0.555,1.947,0.731,3.188l-8.885,1.518c-0.211-0.967-0.603-1.639-1.194-2.034
			c-0.568-0.402-1.405-0.516-2.497-0.336c-1.054,0.194-1.88,0.589-2.433,1.202c-0.426,0.472-0.632,1.019-0.641,1.664
			c0,0.534,0.154,0.942,0.462,1.223c0.458,0.402,1.499,0.707,3.169,0.915l3.637,0.45c3.353,0.402,5.708,1.4,7.059,2.987
			c1.348,1.577,2.034,3.556,2.027,5.936c-0.012,1.906-0.371,3.708-1.078,5.402c-0.705,1.67-1.568,3.049-2.592,4.127
			c-1.034,1.078-2.361,2.027-3.986,2.821c-1.629,0.821-3.337,1.382-5.141,1.688c-1.963,0.339-3.812,0.346-5.538,0.021
			c-1.719-0.326-3.148-0.977-4.276-1.937c-1.105-0.967-1.955-2.166-2.522-3.59c-0.407-1.012-0.678-2.301-0.832-3.856l8.998-1.539
			c0.199,1.063,0.651,1.83,1.341,2.301c0.693,0.464,1.75,0.575,3.197,0.329c1.267-0.215,2.166-0.62,2.715-1.223
			c0.409-0.454,0.612-1.029,0.629-1.702c0-0.7-0.199-1.233-0.566-1.59c-0.362-0.367-1.391-0.655-3.067-0.856l-3.257-0.426
			c-1.707-0.197-3.308-0.617-4.791-1.227c-1.499-0.62-2.618-1.556-3.365-2.81c-0.767-1.248-1.133-2.866-1.133-4.827
			c0.009-1.944,0.366-3.718,1.043-5.343c0.639-1.5,1.469-2.765,2.486-3.826l-6.222,1.251L36.434,93.11l-9.351,1.591l0.116-32.212
			l-3.363,0.679l-0.045,54.587c0,0,1.409-0.201,3.753-0.534c-0.196-0.225-0.377-0.485-0.554-0.755
			c-0.378-0.617-0.653-1.41-0.825-2.37l5.003-1.223c0.163,0.534,0.413,0.925,0.762,1.154c0.342,0.229,0.802,0.291,1.379,0.205
			c0.481-0.09,0.896-0.267,1.22-0.541c0.347-0.284,0.632-0.669,0.884-1.147c0.253-0.485,0.424-1.026,0.541-1.629
			c0.123-0.596,0.187-1.334,0.192-2.204c-1.196,1.258-2.551,2.023-4.084,2.287c-1.164,0.188-2.24,0.09-3.24-0.301
			c-0.982-0.405-1.74-1.116-2.266-2.11c-0.52-1.008-0.787-2.231-0.787-3.697c0.012-1.188,0.187-2.329,0.549-3.406
			c0.359-1.099,0.889-2.044,1.582-2.828c0.702-0.8,1.506-1.435,2.399-1.889c0.915-0.443,1.853-0.766,2.835-0.932
			c1.469-0.253,2.727-0.215,3.756,0.132c1.029,0.336,1.891,0.96,2.613,1.892c0.728,0.925,1.254,2.058,1.566,3.396
			c0.329,1.334,0.49,2.865,0.483,4.602c-0.012,2.53-0.385,4.727-1.1,6.587c-0.471,1.223-1.104,2.27-1.857,3.198
			c1.982-0.288,4.087-0.589,6.241-0.908c-0.189-0.173-0.373-0.354-0.546-0.555c-1.533-1.84-2.313-4.591-2.301-8.261
			c0.022-1.975,0.272-3.926,0.78-5.829c0.52-1.906,1.374-3.482,2.59-4.747c1.228-1.279,2.788-2.072,4.687-2.398
			c1.416-0.243,2.609-0.146,3.569,0.291c0.958,0.426,1.755,1.15,2.384,2.162c0.641,1.012,1.09,2.169,1.362,3.486
			c0.279,1.324,0.421,2.724,0.421,4.2c-0.016,2.263-0.32,4.345-0.923,6.234c-0.509,1.607-1.268,2.924-2.233,3.978
			c2.312-0.34,4.599-0.69,6.821-1.022c-0.333-0.243-0.648-0.53-0.927-0.87c-1.56-1.833-2.316-4.591-2.313-8.258
			c0.008-1.975,0.284-3.909,0.792-5.825c0.501-1.906,1.358-3.486,2.587-4.751c1.209-1.271,2.783-2.076,4.678-2.398
			c1.415-0.239,2.602-0.146,3.571,0.288c0.953,0.43,1.745,1.154,2.377,2.166c0.634,1.012,1.091,2.172,1.367,3.493
			c0.273,1.32,0.421,2.71,0.409,4.2c-0.005,2.256-0.309,4.335-0.925,6.22c-0.566,1.798-1.417,3.236-2.55,4.335
			c4.411-0.704,7.906-1.303,9.741-1.691l0.052-11.844l-4.189,0.721l0.005-4.456c0.882-0.167,1.641-0.43,2.297-0.78
			c0.664-0.346,1.175-0.728,1.533-1.147c0.368-0.416,0.688-0.904,0.955-1.476c0.374-0.804,0.622-1.604,0.741-2.388l4.087-0.7
			l-0.059,19.561c3.758-3.115,5.141-8.49,5.283-14.45L90.766,49.633L90.766,49.633z M74.929,78.865
			c0.585,0.419,1.246,0.568,1.961,0.447c0.721-0.125,1.381-0.496,1.972-1.123c0.591-0.617,1.048-1.667,1.382-3.112
			c0.437-1.919,0.667-4.293,0.679-7.117c0.007-2.166-0.142-3.947-0.454-5.351c-0.299-1.428-0.745-2.367-1.367-2.817
			c-0.608-0.451-1.291-0.613-2.1-0.482c-1.112,0.201-1.966,0.866-2.566,2.013c-0.929,1.806-1.409,4.64-1.416,8.483
			c-0.016,2.762,0.184,4.941,0.579,6.546C73.894,77.583,74.328,78.421,74.929,78.865L74.929,78.865z M51.279,98.173
			c-0.395-0.292-0.844-0.399-1.369-0.309c-0.717,0.125-1.284,0.562-1.667,1.306c-0.6,1.182-0.923,3.029-0.929,5.527
			c-0.008,1.798,0.111,3.215,0.378,4.259c0.192,0.804,0.485,1.351,0.863,1.632c0.388,0.284,0.821,0.374,1.284,0.301
			c0.471-0.08,0.893-0.326,1.279-0.731c0.392-0.412,0.688-1.084,0.913-2.023c0.282-1.262,0.43-2.804,0.433-4.64
			c0-1.414-0.094-2.575-0.305-3.489C51.972,99.074,51.684,98.471,51.279,98.173L51.279,98.173z"/>
		<path fill-rule="evenodd" clip-rule="evenodd" fill="#FFFFFF" d="M26.3,136.474l5.194-15.413l4.843-0.832l5.205,13.656
			l-4.746,0.797l-0.558-1.798l-4.744,0.8l-0.539,2L26.3,136.474L26.3,136.474z M33.868,125.018l-1.485,5.534l3.03-0.516
			L33.868,125.018L33.868,125.018z"/>
		<path fill-rule="evenodd" clip-rule="evenodd" fill="#FFFFFF" d="M56.009,122.447l-4.517,0.769
			c-0.071-0.721-0.327-1.23-0.778-1.559c-0.433-0.329-0.979-0.437-1.655-0.326c-0.851,0.142-1.524,0.585-2.067,1.331
			c-0.523,0.742-0.79,1.854-0.79,3.32c0,1.012,0.116,1.76,0.338,2.242c0.229,0.489,0.542,0.832,0.946,1.019
			c0.398,0.19,0.902,0.239,1.516,0.128c0.733-0.132,1.308-0.423,1.749-0.897c0.43-0.478,0.693-1.123,0.768-1.934l4.581-0.783
			c-0.09,0.922-0.282,1.708-0.535,2.367c-0.251,0.666-0.7,1.341-1.313,2.062c-0.599,0.717-1.325,1.32-2.178,1.812
			c-0.851,0.475-1.812,0.804-2.926,0.995c-1.111,0.19-2.143,0.198-3.077,0.024c-0.929-0.17-1.717-0.499-2.365-0.995
			c-0.622-0.496-1.129-1.099-1.492-1.823c-0.516-1.005-0.759-2.166-0.759-3.489c0-1.133,0.184-2.221,0.56-3.254
			c0.357-1.036,0.859-1.944,1.499-2.71c0.641-0.766,1.356-1.386,2.133-1.854c0.998-0.583,2.103-0.981,3.311-1.185
			c1.053-0.18,2.037-0.198,2.959-0.035c0.912,0.156,1.665,0.488,2.273,0.994c0.587,0.502,1.041,1.112,1.358,1.851
			C55.775,121.037,55.926,121.681,56.009,122.447L56.009,122.447z"/>
		<path fill-rule="evenodd" clip-rule="evenodd" fill="#FFFFFF" d="M70.794,119.928l-4.489,0.776
			c-0.092-0.717-0.35-1.23-0.795-1.559c-0.433-0.336-0.979-0.451-1.663-0.326c-0.84,0.135-1.523,0.582-2.065,1.324
			c-0.52,0.748-0.787,1.854-0.787,3.312c0,1.022,0.116,1.764,0.336,2.249c0.229,0.488,0.546,0.835,0.946,1.025
			c0.405,0.184,0.904,0.226,1.52,0.128c0.734-0.128,1.308-0.43,1.751-0.904c0.424-0.475,0.683-1.119,0.766-1.927l4.59-0.787
			c-0.109,0.922-0.279,1.712-0.541,2.37c-0.269,0.659-0.702,1.345-1.312,2.072c-0.613,0.71-1.331,1.31-2.185,1.798
			c-0.852,0.468-1.811,0.808-2.926,0.995c-1.109,0.187-2.138,0.194-3.081,0.024c-0.936-0.17-1.71-0.502-2.351-0.995
			c-0.643-0.492-1.133-1.105-1.492-1.819c-0.518-1.001-0.764-2.159-0.764-3.493c0-1.133,0.18-2.208,0.551-3.254
			c0.371-1.026,0.861-1.937,1.516-2.707c0.629-0.772,1.346-1.389,2.133-1.854c0.991-0.593,2.086-0.995,3.295-1.196
			c1.05-0.177,2.038-0.18,2.958-0.024c0.922,0.149,1.683,0.485,2.273,0.991c0.592,0.502,1.043,1.119,1.367,1.851
			C70.571,118.528,70.713,119.176,70.794,119.928L70.794,119.928z"/>
		<polygon fill-rule="evenodd" clip-rule="evenodd" fill="#FFFFFF" points="71.812,128.743 71.812,114.207 77.578,113.226 
			80.144,121.857 82.668,112.363 88.443,111.382 88.443,125.905 84.127,126.64 84.127,118.493 81.781,127.038 78.456,127.606 
			76.095,119.848 76.095,128.008 71.812,128.743 		"/>
		<polygon fill-rule="evenodd" clip-rule="evenodd" fill="#ED1C24" points="23.845,52.769 90.899,39.75 90.899,46.41 23.845,59.439 
			23.845,52.769 		"/>
		<polygon fill-rule="evenodd" clip-rule="evenodd" fill="#FFE100" points="23.845,54.938 90.899,41.913 90.899,44.366 
			23.845,57.398 23.845,54.938 		"/>
		<polygon fill="#005CAB" points="54.893,8.747 52.017,6.956 53.817,4.083 56.683,5.881 54.893,8.747 		"/>
		<path fill="#005CAB" d="M62.806,29.331l-1.033-4.855c3.342-0.055,5.906-2.651,5.906-5.849c0-3.226-2.616-5.849-5.853-5.849
			c-0.941,0-1.798,0.25-2.578,0.641c-0.409,0.222-0.807,0.589-1.27,0.953c-0.563,0.458-1.237,1.449-1.492,1.857l-0.305,0.014
			l-0.291-0.263c-0.425-0.392-0.65-0.509-0.922-0.62c-0.577-0.26-1.386-0.464-2.369-0.697c-0.159-0.014-0.305-0.038-0.468-0.038
			c-3.24,0-5.847,2.609-5.847,5.842c0,3.226,2.607,5.842,5.847,5.842l0.376-0.01l1.279,6.019c-1.729,2.076-4.34,3.389-7.248,3.389
			c-5.205,0-9.408-4.207-9.408-9.408c0-3.756,2.179-6.989,5.355-8.503c1.161-4.234,5.047-7.343,9.645-7.343
			c1.118,0,2.192,0.194,3.209,0.527c1.748-1.473,4.033-2.367,6.485-2.367c3.115,0,5.92,1.435,7.751,3.68
			c4.55,0.666,8.044,4.581,8.044,9.318c0,5.205-4.203,9.422-9.408,9.422C66.189,31.028,64.335,30.412,62.806,29.331L62.806,29.331z
			 M71.763,17.42c0.048,0.395,0.083,0.793,0.083,1.206c0,3.521-1.842,6.625-4.583,8.407c0.303,0.052,0.62,0.08,0.951,0.08
			c3.023,0,5.489-2.467,5.489-5.503C73.704,19.937,72.945,18.418,71.763,17.42L71.763,17.42z M42.366,22.708
			c-0.825,0.96-1.325,2.204-1.325,3.59c0,3.032,2.471,5.499,5.499,5.499c1.466,0,2.779-0.564,3.77-1.483
			C46.381,29.587,43.257,26.572,42.366,22.708L42.366,22.708z"/>
		<path fill-rule="evenodd" clip-rule="evenodd" fill="#005CAB" d="M26.349,45.655c0.3,0.232,0.459,0.53,0.49,0.884l-0.565,0.111
			c-0.059-0.267-0.184-0.464-0.376-0.585c-0.199-0.128-0.464-0.156-0.814-0.087c-0.417,0.08-0.755,0.294-1.022,0.645
			c-0.262,0.343-0.386,0.821-0.386,1.428c0,0.506,0.116,0.901,0.333,1.168c0.258,0.253,0.601,0.353,1.065,0.267
			c0.433-0.086,0.755-0.309,0.976-0.686c0.116-0.194,0.216-0.44,0.27-0.731l0.572-0.107c-0.052,0.461-0.225,0.87-0.5,1.23
			c-0.354,0.44-0.802,0.714-1.383,0.818c-0.507,0.093-0.925,0.021-1.267-0.211c-0.441-0.326-0.662-0.891-0.662-1.729
			c0-0.624,0.17-1.178,0.502-1.656c0.36-0.502,0.859-0.821,1.502-0.942C25.619,45.364,26.049,45.419,26.349,45.655L26.349,45.655z"
			/>
		<path fill-rule="evenodd" clip-rule="evenodd" fill="#005CAB" d="M29.822,47.221l-0.653-1.774l-0.691,2.034L29.822,47.221
			L29.822,47.221z M28.873,44.868l0.655-0.125l1.544,3.999l-0.624,0.125l-0.43-1.203l-1.7,0.315l-0.469,1.369l-0.596,0.118
			L28.873,44.868L28.873,44.868z"/>
		<polygon fill-rule="evenodd" clip-rule="evenodd" fill="#005CAB" points="31.629,44.338 32.222,44.23 32.222,48.008 
			34.396,47.609 34.396,48.112 31.629,48.628 31.629,44.338 		"/>
		<polygon fill-rule="evenodd" clip-rule="evenodd" fill="#005CAB" points="35.117,43.683 35.708,43.569 35.708,47.862 
			35.117,47.973 35.117,43.683 		"/>
		<path fill-rule="evenodd" clip-rule="evenodd" fill="#005CAB" d="M38.33,46.871c0.208-0.042,0.362-0.09,0.487-0.156
			c0.222-0.122,0.405-0.305,0.553-0.555c0.118-0.184,0.192-0.426,0.256-0.707c0.019-0.163,0.036-0.315,0.036-0.454
			c0-0.53-0.104-0.929-0.32-1.182c-0.205-0.256-0.546-0.34-1.012-0.25l-1.038,0.194v3.306L38.33,46.871L38.33,46.871z
			 M36.699,43.378l1.746-0.333c0.593-0.107,1.042,0.014,1.376,0.368c0.294,0.326,0.437,0.783,0.437,1.375
			c0,0.454-0.08,0.88-0.255,1.282c-0.303,0.71-0.83,1.129-1.564,1.271l-1.739,0.336V43.378L36.699,43.378z"/>
		<path fill-rule="evenodd" clip-rule="evenodd" fill="#005CAB" d="M43.229,44.674l-0.651-1.778l-0.691,2.027L43.229,44.674
			L43.229,44.674z M42.273,42.318l0.66-0.121l1.566,3.999l-0.638,0.118l-0.45-1.199l-1.684,0.319l-0.466,1.372l-0.599,0.111
			L42.273,42.318L42.273,42.318z"/>
		<path fill-rule="evenodd" clip-rule="evenodd" fill="#005CAB" d="M46.701,45.288c0.196-0.045,0.359-0.09,0.48-0.163
			c0.222-0.121,0.413-0.298,0.553-0.544c0.118-0.194,0.201-0.43,0.251-0.71c0.028-0.173,0.033-0.326,0.033-0.457
			c0-0.537-0.101-0.925-0.307-1.182c-0.218-0.26-0.546-0.333-1.026-0.246l-1.024,0.194v3.299L46.701,45.288L46.701,45.288z
			 M45.078,41.788l1.733-0.333c0.592-0.111,1.055,0.014,1.375,0.374c0.298,0.326,0.44,0.776,0.44,1.376
			c0,0.45-0.09,0.87-0.263,1.278c-0.298,0.714-0.825,1.13-1.556,1.272l-1.729,0.329V41.788L45.078,41.788z"/>
		<path fill-rule="evenodd" clip-rule="evenodd" fill="#005CAB" d="M54.164,40.377c0.3,0.229,0.462,0.52,0.496,0.884l-0.568,0.104
			c-0.061-0.26-0.199-0.454-0.386-0.589c-0.188-0.125-0.461-0.152-0.808-0.083c-0.421,0.08-0.764,0.294-1.029,0.648
			c-0.254,0.343-0.392,0.814-0.392,1.431c0,0.499,0.125,0.891,0.359,1.154c0.237,0.274,0.587,0.364,1.048,0.274
			c0.443-0.087,0.759-0.302,0.982-0.683c0.126-0.194,0.209-0.44,0.269-0.728l0.566-0.111c-0.052,0.461-0.213,0.877-0.504,1.23
			c-0.338,0.43-0.797,0.704-1.37,0.821c-0.508,0.09-0.931,0.018-1.262-0.222c-0.456-0.312-0.681-0.891-0.681-1.719
			c0-0.634,0.18-1.185,0.507-1.656c0.359-0.509,0.867-0.818,1.506-0.95C53.432,40.086,53.866,40.138,54.164,40.377L54.164,40.377z"
			/>
		<polygon fill-rule="evenodd" clip-rule="evenodd" fill="#005CAB" points="55.492,39.812 58.62,39.213 58.62,39.74 56.054,40.232 
			56.054,41.535 58.427,41.088 58.427,41.587 56.054,42.03 56.054,43.493 58.67,42.99 58.67,43.496 55.492,44.106 55.492,39.812 		
			"/>
		<path fill-rule="evenodd" clip-rule="evenodd" fill="#005CAB" d="M61.447,40.647c0.275-0.045,0.477-0.149,0.646-0.277
			c0.154-0.149,0.237-0.364,0.237-0.648c0-0.298-0.104-0.492-0.333-0.562c-0.111-0.038-0.275-0.038-0.475,0l-1.42,0.274v1.476
			L61.447,40.647L61.447,40.647z M59.519,39.047l1.992-0.378c0.333-0.062,0.6-0.062,0.802-0.014
			c0.414,0.114,0.617,0.412,0.617,0.904c0,0.263-0.061,0.475-0.173,0.662c-0.097,0.18-0.241,0.346-0.444,0.475
			c0.173,0.035,0.293,0.097,0.379,0.201c0.088,0.094,0.139,0.267,0.151,0.513l0.012,0.575c0,0.152,0.026,0.277,0.033,0.35
			c0.042,0.135,0.106,0.211,0.196,0.232v0.101l-0.719,0.135c-0.009-0.035-0.026-0.08-0.035-0.135c-0.018-0.062-0.03-0.17-0.03-0.336
			l-0.036-0.703c-0.021-0.284-0.125-0.444-0.313-0.513c-0.107-0.027-0.286-0.024-0.52,0.024l-1.329,0.25v1.84l-0.584,0.107V39.047
			L59.519,39.047z"/>
		<polygon fill-rule="evenodd" clip-rule="evenodd" fill="#005CAB" points="66.813,37.661 66.813,38.173 65.372,38.447 
			65.372,42.231 64.781,42.342 64.781,38.558 63.334,38.829 63.334,38.323 66.813,37.661 		"/>
		<polygon fill-rule="evenodd" clip-rule="evenodd" fill="#005CAB" points="67.51,37.536 68.088,37.429 68.088,41.715 67.51,41.829 
			67.51,37.536 		"/>
		<polygon fill-rule="evenodd" clip-rule="evenodd" fill="#005CAB" points="69.118,37.224 72.096,36.659 72.096,37.189 
			69.691,37.65 69.691,38.95 71.812,38.544 71.812,39.057 69.691,39.456 69.691,41.41 69.118,41.514 69.118,37.224 		"/>
		<polygon fill-rule="evenodd" clip-rule="evenodd" fill="#005CAB" points="72.879,36.517 73.466,36.403 73.466,40.693 
			72.879,40.807 72.879,36.517 		"/>
		<path fill-rule="evenodd" clip-rule="evenodd" fill="#005CAB" d="M77.507,35.945c0.305,0.229,0.471,0.523,0.5,0.887l-0.566,0.107
			c-0.062-0.267-0.192-0.464-0.397-0.596c-0.182-0.121-0.449-0.156-0.792-0.086c-0.419,0.086-0.773,0.294-1.033,0.641
			c-0.258,0.346-0.383,0.828-0.383,1.445c0,0.506,0.112,0.887,0.35,1.161c0.234,0.257,0.587,0.354,1.047,0.26
			c0.433-0.08,0.753-0.298,0.979-0.672c0.125-0.197,0.203-0.443,0.265-0.734l0.567-0.107c-0.049,0.447-0.217,0.866-0.508,1.23
			c-0.341,0.43-0.792,0.7-1.367,0.814c-0.504,0.086-0.915,0.024-1.261-0.211c-0.449-0.322-0.679-0.894-0.679-1.726
			c0-0.634,0.17-1.189,0.513-1.653c0.362-0.516,0.866-0.825,1.499-0.953C76.786,35.654,77.212,35.713,77.507,35.945L77.507,35.945z"
			/>
		<path fill-rule="evenodd" clip-rule="evenodd" fill="#005CAB" d="M80.986,37.512l-0.659-1.778l-0.686,2.031L80.986,37.512
			L80.986,37.512z M80.022,35.148l0.658-0.118l1.556,4.002l-0.631,0.111l-0.438-1.202l-1.694,0.326l-0.468,1.372l-0.603,0.122
			L80.022,35.148L80.022,35.148z"/>
		<path fill-rule="evenodd" clip-rule="evenodd" fill="#005CAB" d="M84.451,38.111c0.192-0.031,0.35-0.087,0.479-0.149
			c0.222-0.128,0.417-0.305,0.572-0.544c0.092-0.201,0.182-0.437,0.234-0.714c0.031-0.166,0.042-0.322,0.042-0.464
			c0-0.533-0.101-0.921-0.317-1.178c-0.21-0.257-0.541-0.34-1.016-0.246l-1.043,0.19v3.309L84.451,38.111L84.451,38.111z
			 M82.817,34.618l1.743-0.322c0.591-0.114,1.053,0.007,1.374,0.367c0.3,0.322,0.433,0.773,0.433,1.366
			c0,0.45-0.083,0.887-0.246,1.285c-0.312,0.71-0.83,1.133-1.564,1.269l-1.74,0.333V34.618L82.817,34.618z"/>
		<path fill-rule="evenodd" clip-rule="evenodd" fill="#005CAB" d="M89.354,35.921l-0.655-1.774l-0.689,2.027L89.354,35.921
			L89.354,35.921z M88.387,33.568l0.671-0.128l1.554,3.999l-0.641,0.121l-0.428-1.202l-1.701,0.315l-0.466,1.383l-0.596,0.114
			L88.387,33.568L88.387,33.568z"/>
		<path fill="#005CAB" d="M26.364,144.943c0.209-0.586,0.301-1.23,0.284-1.944c-0.009-0.762-0.149-1.348-0.409-1.777
			c-0.253-0.413-0.606-0.593-1.033-0.527c-0.424,0.076-0.753,0.354-1.012,0.849c-0.263,0.502-0.383,1.199-0.358,2.093
			c0.012,0.71,0.14,1.296,0.374,1.747c0.243,0.454,0.617,0.645,1.126,0.558C25.815,145.864,26.165,145.535,26.364,144.943
			L26.364,144.943z M26.764,140.771c0.293,0.527,0.444,1.23,0.451,2.121c0.016,0.96-0.125,1.781-0.407,2.471
			c-0.36,0.801-0.857,1.265-1.521,1.369c-0.638,0.093-1.121-0.149-1.496-0.745c-0.324-0.579-0.492-1.355-0.53-2.322
			c-0.012-0.87,0.112-1.632,0.362-2.284c0.343-0.863,0.842-1.341,1.535-1.452C25.874,139.811,26.406,140.098,26.764,140.771
			L26.764,140.771z"/>
		<path fill="#005CAB" d="M33.256,144.555c0.102,0.114,0.232,0.159,0.374,0.135c0.175-0.035,0.341-0.122,0.508-0.277
			c0.267-0.256,0.4-0.624,0.383-1.116l-0.003-0.624c-0.062,0.066-0.133,0.135-0.225,0.191c-0.095,0.055-0.187,0.1-0.288,0.135
			l-0.3,0.101c-0.17,0.083-0.309,0.156-0.395,0.243c-0.159,0.17-0.227,0.398-0.222,0.707
			C33.088,144.274,33.151,144.44,33.256,144.555L33.256,144.555z M34.263,142.254c0.109-0.045,0.184-0.125,0.225-0.264
			c0.021-0.076,0.029-0.166,0.029-0.312c-0.009-0.264-0.071-0.458-0.205-0.558c-0.116-0.101-0.288-0.135-0.511-0.094
			c-0.264,0.042-0.444,0.184-0.546,0.416c-0.052,0.142-0.097,0.322-0.105,0.572l-0.47,0.073c-0.009-0.575,0.113-0.995,0.333-1.261
			c0.225-0.26,0.475-0.419,0.789-0.461c0.343-0.062,0.622,0,0.863,0.173c0.211,0.177,0.315,0.481,0.336,0.929l0.045,2.709
			c0,0.073,0.009,0.132,0.042,0.18c0.008,0.049,0.067,0.069,0.13,0.056c0.021-0.007,0.045-0.01,0.069-0.024
			c0,0,0.052-0.01,0.1-0.031v0.586c-0.074,0.055-0.131,0.08-0.178,0.1c-0.037,0.011-0.092,0.024-0.163,0.028
			c-0.169,0.028-0.299-0.045-0.374-0.222c-0.042-0.094-0.075-0.236-0.092-0.419c-0.104,0.226-0.25,0.433-0.421,0.617
			c-0.188,0.18-0.406,0.291-0.624,0.333c-0.279,0.038-0.509-0.056-0.689-0.291c-0.173-0.236-0.274-0.555-0.274-0.939
			c-0.008-0.454,0.068-0.79,0.229-1.06c0.169-0.267,0.404-0.451,0.674-0.547L34.263,142.254L34.263,142.254z"/>
		<path fill="#005CAB" d="M35.73,140.164l0.466-0.076l0.012,0.659c0.128-0.295,0.283-0.51,0.437-0.659
			c0.159-0.139,0.326-0.229,0.516-0.256c0.417-0.069,0.717,0.118,0.866,0.558c0.083,0.239,0.139,0.596,0.151,1.07l0.05,3.011
			l-0.499,0.077l-0.068-2.953c0-0.291-0.033-0.513-0.086-0.676c-0.105-0.277-0.263-0.402-0.492-0.371
			c-0.112,0.024-0.211,0.059-0.279,0.104c-0.151,0.086-0.267,0.243-0.359,0.443c-0.086,0.173-0.142,0.34-0.15,0.502
			c-0.024,0.177-0.024,0.409-0.024,0.725l0.033,2.453l-0.491,0.076L35.73,140.164L35.73,140.164z"/>
		<path fill="#005CAB" d="M38.816,139.689l0.504-0.083l0.104,4.671l-0.516,0.08L38.816,139.689L38.816,139.689z M38.782,137.929
			l0.513-0.076l0.014,0.891l-0.513,0.08L38.782,137.929L38.782,137.929z"/>
		<path fill="#005CAB" d="M40.379,142.649c0.021,0.256,0.066,0.45,0.125,0.582c0.142,0.232,0.371,0.329,0.691,0.281
			c0.182-0.031,0.347-0.128,0.487-0.274c0.142-0.149,0.204-0.364,0.192-0.624c0-0.205-0.05-0.343-0.178-0.433
			c-0.075-0.052-0.213-0.104-0.421-0.153l-0.404-0.093c-0.275-0.059-0.451-0.139-0.584-0.243c-0.222-0.177-0.326-0.458-0.35-0.828
			c0-0.447,0.104-0.825,0.283-1.126c0.208-0.305,0.48-0.488,0.825-0.547c0.442-0.076,0.788,0.08,0.987,0.471
			c0.128,0.243,0.199,0.513,0.199,0.811l-0.466,0.076c-0.016-0.17-0.069-0.326-0.133-0.464c-0.113-0.18-0.338-0.253-0.612-0.208
			c-0.187,0.035-0.338,0.111-0.43,0.239c-0.104,0.139-0.146,0.291-0.146,0.475c0,0.205,0.076,0.354,0.201,0.458
			c0.083,0.059,0.199,0.101,0.346,0.139l0.331,0.073c0.373,0.083,0.613,0.173,0.743,0.284c0.196,0.173,0.3,0.468,0.3,0.904
			c0.012,0.416-0.088,0.79-0.27,1.133c-0.205,0.329-0.501,0.526-0.927,0.599c-0.44,0.066-0.749-0.031-0.953-0.326
			c-0.188-0.291-0.3-0.665-0.317-1.126L40.379,142.649L40.379,142.649z"/>
		<path fill="#005CAB" d="M42.777,139.031l0.497-0.073l0.016,0.668c0.122-0.256,0.222-0.437,0.317-0.558
			c0.158-0.201,0.338-0.326,0.546-0.364c0.241-0.031,0.437,0.027,0.575,0.194c0.086,0.094,0.163,0.236,0.229,0.437
			c0.107-0.281,0.239-0.481,0.379-0.638c0.149-0.131,0.309-0.225,0.499-0.256c0.404-0.062,0.667,0.125,0.83,0.558
			c0.078,0.232,0.128,0.561,0.138,0.96l0.058,3.129l-0.525,0.094l-0.059-3.268c-0.003-0.312-0.045-0.523-0.151-0.624
			c-0.102-0.101-0.227-0.142-0.377-0.111c-0.188,0.028-0.357,0.159-0.492,0.385c-0.137,0.239-0.205,0.589-0.192,1.078l0.056,2.727
			l-0.501,0.08l-0.066-3.06c-0.009-0.315-0.042-0.551-0.088-0.687c-0.071-0.208-0.215-0.291-0.428-0.263
			c-0.175,0.031-0.35,0.17-0.501,0.433c-0.149,0.25-0.216,0.676-0.201,1.289l0.042,2.481l-0.498,0.08L42.777,139.031L42.777,139.031
			z"/>
		<path fill="#005CAB" d="M49.342,141.585c0.118-0.416,0.177-0.866,0.163-1.348c-0.012-0.433-0.057-0.793-0.163-1.046
			c-0.141-0.409-0.386-0.585-0.716-0.534c-0.3,0.042-0.52,0.267-0.658,0.655c-0.116,0.392-0.178,0.842-0.17,1.362
			c0.019,0.506,0.087,0.908,0.237,1.216c0.142,0.312,0.354,0.444,0.655,0.395C49.018,142.233,49.243,141.997,49.342,141.585
			L49.342,141.585z M49.602,138.421c0.267,0.36,0.407,0.929,0.424,1.711c0.009,0.749-0.095,1.39-0.308,1.923
			c-0.225,0.534-0.572,0.835-1.057,0.912c-0.411,0.062-0.743-0.104-0.968-0.496c-0.267-0.398-0.386-0.963-0.398-1.702
			c-0.021-0.79,0.097-1.435,0.341-1.944c0.237-0.502,0.566-0.793,0.991-0.863C49.002,137.912,49.332,138.054,49.602,138.421
			L49.602,138.421z"/>
		<path fill="#005CAB" d="M52.637,141.134c0.139,0.322,0.352,0.451,0.648,0.406c0.232-0.042,0.419-0.226,0.553-0.555
			c0.154-0.336,0.208-0.804,0.208-1.396c-0.016-0.589-0.107-1.015-0.258-1.275c-0.16-0.26-0.355-0.378-0.57-0.35
			c-0.26,0.052-0.459,0.239-0.599,0.562c-0.154,0.336-0.218,0.79-0.207,1.379C52.422,140.407,52.495,140.823,52.637,141.134
			L52.637,141.134z M53.684,137.44c0.066,0.076,0.182,0.211,0.309,0.413l-0.054-2.367l0.469-0.076l0.142,6.456l-0.459,0.069
			l-0.016-0.662c-0.107,0.319-0.237,0.551-0.392,0.7c-0.158,0.142-0.338,0.235-0.534,0.281c-0.324,0.048-0.617-0.125-0.866-0.527
			c-0.25-0.405-0.388-0.96-0.4-1.694c-0.016-0.683,0.088-1.289,0.302-1.823c0.208-0.537,0.516-0.846,0.923-0.912
			C53.333,137.271,53.517,137.316,53.684,137.44L53.684,137.44z"/>
		<path fill="#005CAB" d="M57.19,138.706c-0.042-0.333-0.087-0.603-0.167-0.79c-0.142-0.354-0.367-0.51-0.674-0.461
			c-0.251,0.038-0.424,0.197-0.575,0.481c-0.154,0.284-0.222,0.634-0.222,1.033L57.19,138.706L57.19,138.706z M56.961,136.9
			c0.199,0.118,0.347,0.298,0.463,0.537c0.112,0.222,0.175,0.485,0.216,0.79c0.037,0.215,0.054,0.562,0.059,1.029l-2.146,0.347
			c0.014,0.475,0.097,0.849,0.237,1.112c0.135,0.27,0.343,0.377,0.617,0.333c0.26-0.038,0.452-0.208,0.61-0.509
			c0.083-0.167,0.132-0.36,0.173-0.579l0.487-0.08c-0.012,0.177-0.057,0.378-0.128,0.6c-0.061,0.222-0.133,0.416-0.225,0.558
			c-0.133,0.26-0.329,0.45-0.549,0.561c-0.107,0.069-0.25,0.118-0.404,0.135c-0.358,0.062-0.67-0.097-0.937-0.485
			c-0.258-0.385-0.4-0.953-0.416-1.729c-0.017-0.749,0.103-1.382,0.34-1.892c0.254-0.513,0.583-0.794,1.001-0.867
			C56.562,136.723,56.77,136.779,56.961,136.9L56.961,136.9z"/>
		<path fill="#005CAB" d="M62.641,134.585c0.294,0.381,0.466,0.842,0.511,1.389l-0.546,0.083c-0.067-0.402-0.192-0.71-0.371-0.925
			c-0.188-0.215-0.445-0.294-0.763-0.25c-0.392,0.066-0.708,0.333-0.93,0.821c-0.236,0.485-0.343,1.182-0.319,2.107
			c0.012,0.755,0.133,1.351,0.357,1.777c0.23,0.44,0.568,0.624,0.993,0.548c0.392-0.059,0.704-0.354,0.894-0.88
			c0.109-0.284,0.173-0.634,0.225-1.061l0.536-0.093c-0.047,0.686-0.189,1.286-0.433,1.777c-0.309,0.6-0.747,0.946-1.272,1.04
			c-0.475,0.08-0.875-0.093-1.192-0.492c-0.424-0.53-0.662-1.421-0.683-2.675c-0.009-0.946,0.125-1.743,0.419-2.405
			c0.331-0.721,0.779-1.119,1.389-1.216C61.965,134.052,62.366,134.194,62.641,134.585L62.641,134.585z"/>
		<path fill="#005CAB" d="M65.81,137.323c-0.024-0.333-0.075-0.6-0.149-0.783c-0.151-0.357-0.379-0.509-0.697-0.464
			c-0.225,0.042-0.407,0.198-0.554,0.482c-0.149,0.28-0.229,0.634-0.229,1.032L65.81,137.323L65.81,137.323z M65.597,135.524
			c0.196,0.132,0.359,0.301,0.468,0.53c0.087,0.218,0.167,0.488,0.211,0.804c0.038,0.205,0.045,0.547,0.062,1.019l-2.148,0.343
			c0.01,0.478,0.101,0.849,0.225,1.116c0.142,0.267,0.354,0.378,0.617,0.336c0.26-0.039,0.46-0.215,0.615-0.506
			c0.088-0.173,0.139-0.371,0.175-0.585l0.492-0.076c-0.008,0.173-0.05,0.371-0.13,0.592c-0.062,0.226-0.146,0.419-0.229,0.565
			c-0.146,0.26-0.333,0.44-0.558,0.562c-0.105,0.059-0.246,0.104-0.395,0.132c-0.362,0.062-0.679-0.101-0.937-0.489
			c-0.264-0.378-0.404-0.953-0.413-1.719c-0.029-0.755,0.095-1.386,0.348-1.899c0.248-0.509,0.568-0.797,0.979-0.866
			C65.198,135.348,65.389,135.393,65.597,135.524L65.597,135.524z"/>
		<path fill="#005CAB" d="M66.872,135.192l0.477-0.077l0.007,0.808c0.038-0.173,0.116-0.374,0.272-0.617
			c0.154-0.256,0.319-0.398,0.52-0.423h0.042c0.026,0,0.074,0,0.116,0l0.016,0.821h-0.083c0,0-0.048,0-0.075,0.003
			c-0.253,0.042-0.441,0.194-0.566,0.475c-0.128,0.284-0.19,0.589-0.178,0.915l0.05,2.699l-0.496,0.08L66.872,135.192
			L66.872,135.192z"/>
		<path fill="#005CAB" d="M68.753,133.577l0.501-0.076l0.035,1.3l0.47-0.077l0.012,0.652l-0.475,0.076l0.064,3.053
			c0,0.167,0.037,0.274,0.113,0.312c0.033,0.024,0.099,0.031,0.189,0.01c0,0,0.043,0,0.085-0.01c0,0,0.05-0.014,0.088-0.028
			l0.019,0.627c-0.057,0.031-0.122,0.066-0.182,0.087c-0.067,0.017-0.121,0.038-0.192,0.052c-0.237,0.035-0.398-0.035-0.478-0.208
			c-0.094-0.18-0.135-0.416-0.146-0.717l-0.061-3.101l-0.398,0.062l-0.009-0.645l0.392-0.062L68.753,133.577L68.753,133.577z"/>
		<path fill="#005CAB" d="M70.2,134.682l0.513-0.086l0.081,4.674l-0.507,0.076L70.2,134.682L70.2,134.682z M70.162,132.918
			l0.501-0.083l0.029,0.894l-0.508,0.08L70.162,132.918L70.162,132.918z"/>
		<path fill="#005CAB" d="M71.604,132.991c0.109-0.277,0.326-0.45,0.664-0.502c0.029-0.01,0.057-0.01,0.086-0.014
			c0.042,0,0.08,0,0.08,0l0.054,0.714c-0.05,0-0.092,0.003-0.092,0.003l-0.071,0.017c-0.17,0.021-0.262,0.094-0.279,0.225
			c-0.042,0.128-0.042,0.444-0.042,0.957l0.508-0.083l0.019,0.617l-0.509,0.087l0.086,4.043l-0.499,0.08l-0.067-4.051l-0.425,0.065
			v-0.62l0.413-0.062l-0.016-0.738C71.514,133.4,71.542,133.161,71.604,132.991L71.604,132.991z"/>
		<path fill="#005CAB" d="M72.912,134.242l0.507-0.083l0.088,4.667l-0.496,0.086L72.912,134.242L72.912,134.242z M72.879,132.479
			l0.511-0.076l0.029,0.897l-0.52,0.076L72.879,132.479L72.879,132.479z"/>
		<path fill="#005CAB" d="M76.079,133.976c0.208,0.218,0.339,0.637,0.398,1.258L76,135.31c-0.045-0.277-0.109-0.513-0.226-0.689
			c-0.109-0.17-0.27-0.236-0.513-0.205c-0.312,0.059-0.534,0.329-0.648,0.849c-0.08,0.326-0.126,0.721-0.126,1.192
			c0.009,0.468,0.083,0.853,0.216,1.154c0.134,0.301,0.333,0.44,0.6,0.392c0.211-0.038,0.376-0.163,0.475-0.374
			c0.135-0.222,0.201-0.513,0.246-0.863l0.48-0.073c-0.042,0.627-0.175,1.105-0.388,1.428c-0.213,0.322-0.495,0.509-0.838,0.572
			c-0.385,0.056-0.698-0.121-0.936-0.53c-0.243-0.412-0.371-0.963-0.376-1.622c-0.019-0.832,0.092-1.49,0.343-1.979
			c0.238-0.506,0.555-0.787,0.946-0.853C75.59,133.66,75.861,133.75,76.079,133.976L76.079,133.976z"/>
		<path fill="#005CAB" d="M77.507,137.482c0.104,0.107,0.234,0.156,0.383,0.135c0.167-0.028,0.329-0.114,0.497-0.27
			c0.269-0.256,0.411-0.631,0.392-1.116l-0.017-0.641c-0.05,0.083-0.134,0.142-0.23,0.197c-0.09,0.066-0.177,0.111-0.279,0.135
			l-0.298,0.111c-0.177,0.066-0.319,0.149-0.402,0.239c-0.147,0.169-0.224,0.402-0.215,0.693
			C77.337,137.194,77.397,137.364,77.507,137.482L77.507,137.482z M78.508,135.188c0.111-0.045,0.196-0.131,0.237-0.267
			c0.016-0.08,0.016-0.177,0.016-0.309c0-0.27-0.076-0.464-0.192-0.558c-0.125-0.097-0.298-0.135-0.525-0.097
			c-0.267,0.038-0.437,0.184-0.537,0.416c-0.066,0.135-0.103,0.326-0.109,0.572l-0.469,0.073c0-0.575,0.107-0.998,0.333-1.269
			c0.23-0.263,0.483-0.419,0.783-0.464c0.35-0.052,0.634,0.014,0.845,0.177c0.229,0.187,0.347,0.496,0.347,0.939l0.062,2.696
			c0,0.083,0.012,0.149,0.027,0.194c0.018,0.045,0.077,0.059,0.135,0.056c0.038-0.007,0.049-0.011,0.075-0.024
			c0.038-0.003,0.057-0.024,0.099-0.031l0.007,0.585c-0.08,0.045-0.135,0.073-0.18,0.087c-0.035,0.017-0.092,0.024-0.154,0.042
			c-0.188,0.028-0.301-0.045-0.379-0.225c-0.05-0.097-0.083-0.239-0.095-0.419c-0.086,0.222-0.243,0.43-0.43,0.603
			c-0.184,0.197-0.395,0.309-0.625,0.339c-0.27,0.045-0.499-0.045-0.674-0.288c-0.184-0.232-0.282-0.554-0.282-0.949
			c-0.014-0.433,0.069-0.783,0.223-1.046c0.18-0.271,0.397-0.454,0.679-0.544L78.508,135.188L78.508,135.188z"/>
		<path fill="#005CAB" d="M81.944,133.033c0.199,0.222,0.345,0.641,0.398,1.269l-0.487,0.073c-0.045-0.291-0.113-0.513-0.208-0.69
			c-0.12-0.18-0.288-0.242-0.528-0.204c-0.309,0.048-0.542,0.329-0.66,0.842c-0.09,0.333-0.116,0.728-0.102,1.203
			c0.008,0.461,0.074,0.849,0.211,1.15c0.139,0.298,0.317,0.433,0.599,0.388c0.199-0.031,0.36-0.163,0.48-0.371
			c0.122-0.222,0.201-0.509,0.243-0.863l0.466-0.08c-0.03,0.634-0.165,1.112-0.368,1.431c-0.22,0.322-0.504,0.509-0.853,0.568
			c-0.379,0.059-0.693-0.111-0.942-0.523c-0.232-0.409-0.364-0.953-0.376-1.635c0-0.821,0.092-1.469,0.352-1.972
			c0.232-0.502,0.549-0.776,0.944-0.849C81.443,132.725,81.717,132.811,81.944,133.033L81.944,133.033z"/>
		<path fill="#005CAB" d="M82.743,132.669l0.504-0.076l0.101,4.671l-0.504,0.076L82.743,132.669L82.743,132.669z M82.706,130.909
			l0.513-0.073l0.016,0.884l-0.508,0.076L82.706,130.909L82.706,130.909z"/>
		<path fill="#005CAB" d="M85.676,130.292l-0.705,1.375l-0.378,0.062l0.472-1.337L85.676,130.292L85.676,130.292z M85.851,135.75
			c0.107-0.412,0.159-0.866,0.159-1.348c-0.01-0.433-0.059-0.783-0.151-1.046c-0.154-0.409-0.4-0.589-0.738-0.53
			c-0.291,0.045-0.511,0.263-0.641,0.655c-0.116,0.392-0.187,0.842-0.18,1.362c0.009,0.496,0.092,0.897,0.234,1.213
			c0.135,0.312,0.358,0.443,0.664,0.395C85.517,136.394,85.744,136.166,85.851,135.75L85.851,135.75z M86.097,132.589
			c0.271,0.354,0.421,0.929,0.43,1.712c0.012,0.749-0.083,1.389-0.308,1.923c-0.218,0.53-0.577,0.832-1.059,0.912
			c-0.397,0.062-0.724-0.097-0.976-0.502c-0.25-0.402-0.383-0.96-0.4-1.702c-0.003-0.783,0.118-1.431,0.355-1.94
			c0.229-0.502,0.565-0.793,0.982-0.863C85.501,132.073,85.827,132.222,86.097,132.589L86.097,132.589z"/>
		<path fill="#005CAB" d="M87.038,131.969l0.471-0.083l0.009,0.666c0.142-0.291,0.291-0.517,0.433-0.659
			c0.167-0.142,0.324-0.232,0.523-0.26c0.417-0.069,0.708,0.122,0.859,0.558c0.092,0.239,0.133,0.6,0.149,1.067l0.061,3.015
			l-0.515,0.076l-0.057-2.956c0-0.284-0.038-0.509-0.095-0.672c-0.083-0.284-0.26-0.399-0.489-0.368
			c-0.112,0.018-0.208,0.059-0.288,0.101c-0.128,0.09-0.241,0.239-0.341,0.44c-0.08,0.177-0.137,0.343-0.166,0.513
			c-0.009,0.169-0.026,0.402-0.009,0.714l0.038,2.453l-0.496,0.08L87.038,131.969L87.038,131.969z"/>
		<path fill="#005CAB" d="M27.731,141.436l0.475-0.069l0.017,0.811c0.042-0.169,0.125-0.371,0.267-0.62
			c0.154-0.253,0.326-0.392,0.515-0.423h0.061c0,0,0.048,0,0.104,0l0.012,0.825c-0.026-0.003-0.05-0.003-0.05-0.003
			c-0.05,0-0.074,0-0.104,0.003c-0.253,0.042-0.445,0.201-0.575,0.475c-0.121,0.28-0.178,0.589-0.178,0.921l0.057,2.696l-0.494,0.08
			L27.731,141.436L27.731,141.436z"/>
		<path fill="#005CAB" d="M31.279,141.914c-0.166-0.26-0.348-0.371-0.577-0.329c-0.373,0.052-0.596,0.35-0.705,0.891
			c-0.071,0.294-0.101,0.665-0.082,1.105c0.01,0.53,0.09,0.921,0.218,1.174c0.151,0.25,0.331,0.36,0.554,0.326
			c0.354-0.055,0.602-0.343,0.733-0.88c0.073-0.305,0.114-0.645,0.103-1.033C31.517,142.59,31.43,142.164,31.279,141.914
			L31.279,141.914z M31.189,141.076c0.101,0.09,0.199,0.222,0.305,0.405l-0.012-0.6l0.449-0.066l0.087,4.255
			c0.012,0.6-0.019,1.084-0.137,1.441c-0.191,0.669-0.567,1.05-1.14,1.133c-0.317,0.062-0.581-0.01-0.814-0.201
			c-0.206-0.197-0.345-0.526-0.386-0.998l0.516-0.09c0.021,0.208,0.078,0.36,0.168,0.464c0.099,0.159,0.274,0.218,0.517,0.18
			c0.373-0.059,0.615-0.309,0.731-0.766c0.064-0.25,0.083-0.714,0.064-1.355c-0.092,0.26-0.204,0.454-0.346,0.592
			c-0.125,0.142-0.313,0.226-0.546,0.267c-0.317,0.048-0.596-0.083-0.846-0.409c-0.258-0.329-0.383-0.901-0.391-1.732
			c-0.021-0.79,0.086-1.417,0.317-1.896c0.237-0.481,0.523-0.752,0.866-0.8C30.818,140.864,31.02,140.923,31.189,141.076
			L31.189,141.076z"/>
	</g>
</g>
</svg>
