<?xml version="1.0" encoding="utf-8"?>
<!-- Generator: Adobe Illustrator 16.0.0, SVG Export Plug-In . SVG Version: 6.00 Build 0)  -->
<!DOCTYPE svg PUBLIC "-//W3C//DTD SVG 1.1//EN" "http://www.w3.org/Graphics/SVG/1.1/DTD/svg11.dtd">
<svg version="1.1" id="Layer_1" xmlns="http://www.w3.org/2000/svg" xmlns:xlink="http://www.w3.org/1999/xlink" x="0px" y="0px"
	 width="222.657px" height="54.5px" viewBox="0 0 222.657 54.5" enable-background="new 0 0 222.657 54.5" xml:space="preserve">
<g>
	<g>
		
			<path fill="#FFFFFF" stroke="#FFFFFF" stroke-width="7" stroke-linecap="round" stroke-linejoin="round" stroke-miterlimit="10" d="
			M65.155,14.775v3.983h-9.558v4.856h9.558V27.6h-9.558v8.918h-5.412V14.775H65.155z"/>
		
			<path fill="#FFFFFF" stroke="#FFFFFF" stroke-width="7" stroke-linecap="round" stroke-linejoin="round" stroke-miterlimit="10" d="
			M83.87,16.178v4.246c-2.887-1.297-5.184-1.944-6.896-1.944c-0.974,0-1.75,0.163-2.325,0.491c-0.575,0.325-0.866,0.758-0.866,1.299
			c0,0.414,0.208,0.809,0.624,1.182c0.415,0.373,1.428,0.855,3.035,1.448c1.607,0.591,2.896,1.142,3.86,1.649
			c0.963,0.51,1.795,1.225,2.495,2.148c0.699,0.924,1.053,2.09,1.053,3.502c0,2.012-0.766,3.613-2.294,4.808
			c-1.531,1.194-3.548,1.79-6.05,1.79c-2.696,0-5.309-0.7-7.842-2.102v-4.684c1.452,0.976,2.741,1.686,3.86,2.131
			c1.119,0.447,2.308,0.671,3.562,0.671c2.127,0,3.191-0.671,3.191-2.007c0-0.455-0.215-0.889-0.638-1.292
			c-0.427-0.403-1.449-0.896-3.077-1.478c-1.622-0.581-2.907-1.119-3.857-1.617c-0.949-0.499-1.771-1.209-2.46-2.135
			c-0.689-0.923-1.032-2.104-1.032-3.548c0-1.868,0.752-3.377,2.256-4.522c1.504-1.146,3.517-1.721,6.036-1.721
			C78.832,14.494,81.285,15.057,83.87,16.178z"/>
		
			<path fill="#FFFFFF" stroke="#FFFFFF" stroke-width="7" stroke-linecap="round" stroke-linejoin="round" stroke-miterlimit="10" d="
			M102.801,16.178v4.246c-2.883-1.297-5.181-1.944-6.893-1.944c-0.974,0-1.75,0.163-2.325,0.491
			c-0.575,0.325-0.866,0.758-0.866,1.299c0,0.414,0.208,0.809,0.624,1.182s1.428,0.855,3.035,1.448
			c1.608,0.591,2.894,1.142,3.86,1.649c0.963,0.51,1.795,1.225,2.495,2.148s1.053,2.09,1.053,3.502c0,2.012-0.769,3.613-2.297,4.808
			s-3.545,1.79-6.047,1.79c-2.696,0-5.312-0.7-7.845-2.102v-4.684c1.455,0.976,2.74,1.686,3.86,2.131
			c1.122,0.447,2.308,0.671,3.565,0.671c2.124,0,3.191-0.671,3.191-2.007c0-0.455-0.215-0.889-0.642-1.292
			c-0.426-0.403-1.448-0.896-3.073-1.478c-1.622-0.581-2.911-1.119-3.86-1.617c-0.949-0.499-1.768-1.209-2.457-2.135
			c-0.689-0.923-1.036-2.104-1.036-3.548c0-1.868,0.756-3.377,2.26-4.522c1.504-1.146,3.514-1.721,6.036-1.721
			C97.766,14.494,100.219,15.057,102.801,16.178z"/>
		
			<path fill="#FFFFFF" stroke="#FFFFFF" stroke-width="7" stroke-linecap="round" stroke-linejoin="round" stroke-miterlimit="10" d="
			M127.244,29.887v4.748c-2.717,1.441-5.565,2.162-8.545,2.162c-3.86,0-6.931-1.066-9.222-3.199c-2.287-2.133-3.43-4.759-3.43-7.881
			c0-3.124,1.205-5.775,3.617-7.953c2.415-2.18,5.565-3.27,9.456-3.27c3.102,0,5.725,0.639,7.873,1.915v4.839
			c-2.633-1.482-5.128-2.225-7.484-2.225c-2.314,0-4.207,0.621-5.673,1.861c-1.466,1.238-2.2,2.816-2.2,4.736
			c0,1.93,0.721,3.524,2.169,4.779c1.449,1.256,3.303,1.883,5.565,1.883c1.119,0,2.197-0.147,3.236-0.443
			C123.644,31.543,125.192,30.894,127.244,29.887z"/>
		
			<path fill="#FFFFFF" stroke="#FFFFFF" stroke-width="7" stroke-linecap="round" stroke-linejoin="round" stroke-miterlimit="10" d="
			M149.573,34.244c0.236,0,0.44,0.08,0.606,0.241c0.167,0.161,0.25,0.366,0.25,0.615v0.56c0,0.238-0.083,0.441-0.25,0.606
			c-0.166,0.166-0.37,0.251-0.606,0.251h-13.088c-0.239,0-0.439-0.086-0.6-0.258c-0.159-0.172-0.242-0.377-0.242-0.613
			c0.014-0.5,0.069-0.967,0.173-1.402c0.104-0.435,0.253-0.851,0.451-1.246c0.193-0.342,0.423-0.684,0.679-1.027
			c0.25-0.341,0.544-0.679,0.877-1.012c0.332-0.33,0.676-0.643,1.029-0.932c0.35-0.291,0.707-0.57,1.07-0.84
			c0.364-0.26,0.731-0.52,1.099-0.778c0.367-0.26,0.734-0.509,1.095-0.749c0.759-0.496,1.463-1.008,2.11-1.533
			c0.648-0.523,1.272-1.065,1.861-1.625c0.499-0.497,0.873-1.027,1.129-1.587c0.25-0.562,0.389-1.157,0.409-1.79
			c-0.007-0.613-0.114-1.157-0.318-1.633c-0.201-0.477-0.489-0.874-0.863-1.184c-0.884-0.666-1.999-0.996-3.361-0.996
			c-0.842,0.01-1.576,0.135-2.2,0.373c-0.631,0.24-1.126,0.581-1.49,1.026c-0.766,0.985-1.15,2.288-1.15,3.907
			c0,0.236-0.079,0.438-0.242,0.6c-0.159,0.16-0.36,0.24-0.596,0.24h-0.593c-0.239,0-0.44-0.08-0.6-0.24
			c-0.159-0.162-0.242-0.363-0.242-0.6c0.034-4.981,2.404-7.502,7.113-7.562c0.946,0,1.812,0.124,2.6,0.372
			c0.786,0.249,1.507,0.611,2.162,1.09c1.352,1.059,2.034,2.604,2.055,4.638c-0.021,0.883-0.208,1.725-0.568,2.528
			c-0.357,0.804-0.846,1.538-1.47,2.204c-0.603,0.621-1.254,1.229-1.954,1.82c-0.7,0.591-1.438,1.135-2.218,1.633h0.018
			c-1.493,0.996-2.835,1.986-4.017,2.973h0.015c-0.728,0.613-1.241,1.256-1.539,1.93H149.573z"/>
		
			<path fill="#FFFFFF" stroke="#FFFFFF" stroke-width="7" stroke-linecap="round" stroke-linejoin="round" stroke-miterlimit="10" d="
			M166.982,34.244c0.235,0,0.437,0.08,0.604,0.241c0.166,0.161,0.249,0.366,0.249,0.615v0.56c0,0.238-0.083,0.441-0.249,0.606
			c-0.167,0.166-0.368,0.251-0.604,0.251h-13.091c-0.239,0-0.438-0.086-0.597-0.258c-0.163-0.172-0.242-0.377-0.242-0.613
			c0.007-0.5,0.065-0.967,0.173-1.402c0.101-0.435,0.25-0.851,0.447-1.246c0.197-0.342,0.426-0.684,0.676-1.027
			c0.256-0.341,0.551-0.679,0.88-1.012c0.333-0.33,0.676-0.643,1.029-0.932c0.354-0.291,0.71-0.57,1.074-0.84
			c0.364-0.26,0.728-0.52,1.099-0.778c0.367-0.26,0.734-0.509,1.095-0.749c0.759-0.496,1.463-1.008,2.107-1.533
			c0.651-0.523,1.268-1.065,1.864-1.625c0.495-0.497,0.873-1.027,1.126-1.587c0.253-0.562,0.392-1.157,0.412-1.79
			c-0.011-0.613-0.118-1.157-0.318-1.633c-0.201-0.477-0.492-0.874-0.863-1.184c-0.884-0.666-2.006-0.996-3.364-0.996
			c-0.839,0.01-1.573,0.135-2.201,0.373c-0.627,0.24-1.122,0.581-1.486,1.026c-0.77,0.985-1.15,2.288-1.15,3.907
			c0,0.236-0.08,0.438-0.242,0.6c-0.16,0.16-0.36,0.24-0.6,0.24h-0.593c-0.235,0-0.437-0.08-0.596-0.24
			c-0.159-0.162-0.243-0.363-0.243-0.6c0.031-4.981,2.401-7.502,7.111-7.562c0.945,0,1.812,0.124,2.599,0.372
			c0.79,0.249,1.511,0.611,2.166,1.09c1.348,1.059,2.033,2.604,2.055,4.638c-0.021,0.883-0.212,1.725-0.568,2.528
			c-0.36,0.804-0.849,1.538-1.47,2.204c-0.603,0.621-1.254,1.229-1.954,1.82c-0.7,0.591-1.441,1.135-2.218,1.633h0.014
			c-1.493,0.996-2.834,1.986-4.013,2.973h0.015c-0.729,0.613-1.241,1.256-1.543,1.93H166.982z"/>
		
			<path fill="#FFFFFF" stroke="#FFFFFF" stroke-width="7" stroke-linecap="round" stroke-linejoin="round" stroke-miterlimit="10" d="
			M185.851,25.965c0.011,1.359-0.121,2.641-0.405,3.844c-0.277,1.205-0.7,2.326-1.258,3.361c-0.624,1.163-1.483,2.061-2.575,2.693
			c-1.095,0.634-2.418,0.97-3.964,1.012c-1.511-0.042-2.813-0.378-3.905-1.012c-1.088-0.633-1.944-1.525-2.567-2.678
			c-0.568-1.048-1.002-2.176-1.293-3.383c-0.287-1.21-0.43-2.488-0.419-3.838c-0.011-1.359,0.132-2.646,0.419-3.859
			c0.291-1.214,0.725-2.351,1.293-3.409c0.623-1.15,1.479-2.038,2.567-2.661c1.092-0.622,2.395-0.947,3.905-0.979
			c1.546,0.031,2.866,0.356,3.957,0.979c1.088,0.623,1.947,1.506,2.582,2.647c0.558,1.057,0.98,2.194,1.258,3.415
			C185.729,23.316,185.861,24.605,185.851,25.965z M183.595,25.965c0-0.498-0.027-1.024-0.083-1.578
			c-0.06-0.555-0.132-1.094-0.212-1.611c-0.107-0.51-0.238-0.997-0.398-1.465c-0.159-0.466-0.36-0.908-0.596-1.322
			c-0.873-1.732-2.433-2.625-4.671-2.676c-1.144,0.02-2.079,0.265-2.817,0.73h0.018c-0.374,0.25-0.714,0.535-1.012,0.855
			c-0.306,0.322-0.568,0.691-0.797,1.105c-0.236,0.404-0.434,0.838-0.59,1.3c-0.155,0.463-0.277,0.958-0.356,1.487
			c-0.232,1.017-0.343,2.073-0.343,3.174c0,1.006,0.11,2.033,0.343,3.08c0.079,0.52,0.204,1.012,0.363,1.479
			c0.16,0.468,0.36,0.919,0.6,1.354c0.437,0.83,1.029,1.473,1.774,1.931c0.385,0.269,0.808,0.466,1.278,0.591
			c0.465,0.125,0.984,0.188,1.553,0.188c0.582,0,1.108-0.062,1.58-0.188s0.891-0.322,1.255-0.591
			c0.395-0.239,0.737-0.519,1.032-0.833c0.298-0.317,0.558-0.684,0.79-1.098c0.246-0.426,0.45-0.876,0.603-1.354
			c0.16-0.476,0.284-0.97,0.392-1.479c0.08-0.518,0.152-1.036,0.212-1.555C183.567,26.971,183.595,26.463,183.595,25.965z"/>
		
			<path fill="#FFFFFF" stroke="#FFFFFF" stroke-width="7" stroke-linecap="round" stroke-linejoin="round" stroke-miterlimit="10" d="
			M203.26,25.965c0.011,1.359-0.125,2.641-0.405,3.844c-0.277,1.205-0.7,2.326-1.262,3.361c-0.624,1.163-1.483,2.061-2.574,2.693
			c-1.096,0.634-2.416,0.97-3.961,1.012c-1.518-0.042-2.817-0.378-3.909-1.012c-1.088-0.633-1.94-1.525-2.563-2.678
			c-0.572-1.048-1.005-2.176-1.293-3.383c-0.291-1.21-0.434-2.488-0.419-3.838c-0.015-1.359,0.128-2.646,0.419-3.859
			c0.288-1.214,0.721-2.351,1.293-3.409c0.623-1.15,1.476-2.038,2.563-2.661c1.092-0.622,2.392-0.947,3.909-0.979
			c1.545,0.031,2.862,0.356,3.95,0.979c1.092,0.623,1.954,1.506,2.585,2.647c0.562,1.057,0.984,2.194,1.262,3.415
			C203.135,23.316,203.271,24.605,203.26,25.965z M201.004,25.965c0-0.498-0.031-1.024-0.087-1.578
			c-0.059-0.555-0.128-1.094-0.211-1.611c-0.104-0.51-0.236-0.997-0.396-1.465c-0.163-0.466-0.36-0.908-0.6-1.322
			c-0.869-1.732-2.429-2.625-4.667-2.676c-1.144,0.02-2.079,0.265-2.821,0.73h0.018c-0.374,0.25-0.71,0.535-1.008,0.855
			c-0.306,0.322-0.568,0.691-0.798,1.105c-0.238,0.404-0.437,0.838-0.589,1.3c-0.159,0.463-0.277,0.958-0.36,1.487
			c-0.229,1.017-0.343,2.073-0.343,3.174c0,1.006,0.114,2.033,0.343,3.08c0.083,0.52,0.208,1.012,0.367,1.479
			c0.16,0.468,0.36,0.919,0.597,1.354c0.437,0.83,1.028,1.473,1.773,1.931c0.389,0.269,0.812,0.466,1.279,0.591
			s0.983,0.188,1.556,0.188c0.582,0,1.108-0.062,1.58-0.188c0.471-0.125,0.887-0.322,1.251-0.591
			c0.398-0.239,0.741-0.519,1.036-0.833c0.298-0.317,0.558-0.684,0.786-1.098c0.25-0.426,0.451-0.876,0.606-1.354
			c0.156-0.476,0.284-0.97,0.389-1.479c0.083-0.518,0.152-1.036,0.211-1.555C200.973,26.971,201.004,26.463,201.004,25.965z"/>
		
			<path fill="#FFFFFF" stroke="#FFFFFF" stroke-width="7" stroke-linecap="round" stroke-linejoin="round" stroke-miterlimit="10" d="
			M220.665,25.965c0.014,1.359-0.125,2.641-0.401,3.844c-0.284,1.205-0.7,2.326-1.262,3.361c-0.624,1.163-1.483,2.061-2.578,2.693
			c-1.095,0.634-2.412,0.97-3.957,1.012c-1.518-0.042-2.821-0.378-3.909-1.012c-1.088-0.633-1.947-1.525-2.567-2.678
			c-0.572-1.048-1.002-2.176-1.293-3.383c-0.291-1.21-0.43-2.488-0.419-3.838c-0.011-1.359,0.128-2.646,0.419-3.859
			c0.291-1.214,0.721-2.351,1.293-3.409c0.62-1.15,1.479-2.038,2.567-2.661c1.088-0.622,2.392-0.947,3.909-0.979
			c1.545,0.031,2.862,0.356,3.95,0.979c1.092,0.623,1.951,1.506,2.585,2.647c0.562,1.057,0.978,2.194,1.262,3.415
			C220.54,23.316,220.679,24.605,220.665,25.965z M218.413,25.965c0-0.498-0.031-1.024-0.09-1.578
			c-0.056-0.555-0.125-1.094-0.208-1.611c-0.104-0.51-0.236-0.997-0.396-1.465c-0.163-0.466-0.363-0.908-0.603-1.322
			c-0.874-1.732-2.426-2.625-4.668-2.676c-1.14,0.02-2.083,0.265-2.817,0.73h0.014c-0.37,0.25-0.706,0.535-1.012,0.855
			c-0.298,0.322-0.564,0.691-0.79,1.105c-0.242,0.404-0.437,0.838-0.592,1.3c-0.156,0.463-0.274,0.958-0.357,1.487
			c-0.229,1.017-0.343,2.073-0.343,3.174c0,1.006,0.114,2.033,0.343,3.08c0.083,0.52,0.201,1.012,0.364,1.479
			c0.162,0.468,0.36,0.919,0.6,1.354c0.437,0.83,1.025,1.473,1.773,1.931c0.385,0.269,0.812,0.466,1.275,0.591
			c0.468,0.125,0.987,0.188,1.56,0.188c0.578,0,1.105-0.062,1.58-0.188c0.471-0.125,0.887-0.322,1.251-0.591
			c0.392-0.239,0.738-0.519,1.036-0.833c0.291-0.317,0.554-0.684,0.783-1.098c0.249-0.426,0.45-0.876,0.609-1.354
			c0.152-0.476,0.284-0.97,0.389-1.479c0.083-0.518,0.152-1.036,0.208-1.555C218.382,26.971,218.413,26.463,218.413,25.965z"/>
	</g>
	<g>
		
			<path fill="#FFFFFF" stroke="#FFFFFF" stroke-width="7" stroke-linecap="round" stroke-linejoin="round" stroke-miterlimit="10" d="
			M37.794,11.535c-6.383-6.529-16.148-7.686-23.969-3.06c-9.131,5.397-11.391,17.558-5.95,26.318
			C8,35.002,8.683,34.805,8.604,34.541c-1.761-5.805-0.839-11.729,2.63-16.707c5.513-9.045,17.011-11.709,25.909-5.955
			C37.319,11.991,38.016,11.764,37.794,11.535z"/>
		<g>
			
				<path fill="#FFFFFF" stroke="#FFFFFF" stroke-width="7" stroke-linecap="round" stroke-linejoin="round" stroke-miterlimit="10" d="
				M38.667,8.876c-2.824-1.692-6.577-1.09-9.54-0.196c-0.023,0.006-0.038,0.014-0.052,0.021c-0.018,0.004-0.034,0.005-0.049,0.01
				c-7.104,2.475-15.149,9.262-14.543,17.519c0.018,0.224,0.703,0.014,0.759-0.159c1.663-5.375,5.96-9.504,10.839-12.074
				c4.907-2.586,13.466-3.385,14.683,3.678c0.038,0.226,0.71,0.022,0.755-0.158C42.326,14.117,41.862,10.789,38.667,8.876z"/>
		</g>
		
			<path fill="#FFFFFF" stroke="#FFFFFF" stroke-width="7" stroke-linecap="round" stroke-linejoin="round" stroke-miterlimit="10" d="
			M38.889,18.57c-0.533-0.631-0.693-0.812-1.258-1.411c-0.184-0.194-0.87-0.017-0.683,0.296c3.527,5.896,3.174,13.009-0.925,18.521
			c-2.457,3.301-6.311,5.308-10.31,5.953c-4.234,0.686-8.361-0.925-12.11-2.707c-0.235-0.111-0.85,0.078-0.565,0.395
			c5.648,6.328,15.636,7.887,22.579,2.609C43.123,36.523,44.606,26.096,38.889,18.57z"/>
		
			<path fill="#FFFFFF" stroke="#FFFFFF" stroke-width="7" stroke-linecap="round" stroke-linejoin="round" stroke-miterlimit="10" d="
			M34.263,25.079c-0.045-0.237-0.728-0.151-0.77,0.06c-0.835,4.242-3.42,7.77-6.629,10.572c-4.151,3.617-13.511,7.098-15.676-0.254
			c-0.076-0.26-0.749-0.144-0.776,0.109c-0.942,7.516,5.593,9.33,11.56,7.178c6.327-2.285,12.405-9.049,12.502-15.98
			C34.467,26.193,34.395,25.632,34.263,25.079z"/>
	</g>
</g>
<g>
	<g>
		<path fill="#36845B" d="M65.155,14.775v3.983h-9.558v4.856h9.558V27.6h-9.558v8.918h-5.412V14.775H65.155z"/>
		<path fill="#36845B" d="M83.87,16.178v4.246c-2.887-1.297-5.184-1.944-6.896-1.944c-0.974,0-1.75,0.163-2.325,0.491
			c-0.575,0.325-0.866,0.758-0.866,1.299c0,0.414,0.208,0.809,0.624,1.182c0.415,0.373,1.428,0.855,3.035,1.448
			c1.607,0.591,2.896,1.142,3.86,1.649c0.963,0.51,1.795,1.225,2.495,2.148c0.699,0.924,1.053,2.09,1.053,3.502
			c0,2.012-0.766,3.613-2.294,4.808c-1.531,1.194-3.548,1.79-6.05,1.79c-2.696,0-5.309-0.7-7.842-2.102v-4.684
			c1.452,0.976,2.741,1.686,3.86,2.131c1.119,0.447,2.308,0.671,3.562,0.671c2.127,0,3.191-0.671,3.191-2.007
			c0-0.455-0.215-0.889-0.638-1.292c-0.427-0.403-1.449-0.896-3.077-1.478c-1.622-0.581-2.907-1.119-3.857-1.617
			c-0.949-0.499-1.771-1.209-2.46-2.135c-0.689-0.923-1.032-2.104-1.032-3.548c0-1.868,0.752-3.377,2.256-4.522
			c1.504-1.146,3.517-1.721,6.036-1.721C78.832,14.494,81.285,15.057,83.87,16.178z"/>
		<path fill="#36845B" d="M102.801,16.178v4.246c-2.883-1.297-5.181-1.944-6.893-1.944c-0.974,0-1.75,0.163-2.325,0.491
			c-0.575,0.325-0.866,0.758-0.866,1.299c0,0.414,0.208,0.809,0.624,1.182s1.428,0.855,3.035,1.448
			c1.608,0.591,2.894,1.142,3.86,1.649c0.963,0.51,1.795,1.225,2.495,2.148s1.053,2.09,1.053,3.502c0,2.012-0.769,3.613-2.297,4.808
			s-3.545,1.79-6.047,1.79c-2.696,0-5.312-0.7-7.845-2.102v-4.684c1.455,0.976,2.74,1.686,3.86,2.131
			c1.122,0.447,2.308,0.671,3.565,0.671c2.124,0,3.191-0.671,3.191-2.007c0-0.455-0.215-0.889-0.642-1.292
			c-0.426-0.403-1.448-0.896-3.073-1.478c-1.622-0.581-2.911-1.119-3.86-1.617c-0.949-0.499-1.768-1.209-2.457-2.135
			c-0.689-0.923-1.036-2.104-1.036-3.548c0-1.868,0.756-3.377,2.26-4.522c1.504-1.146,3.514-1.721,6.036-1.721
			C97.766,14.494,100.219,15.057,102.801,16.178z"/>
		<path fill="#36845B" d="M127.244,29.887v4.748c-2.717,1.441-5.565,2.162-8.545,2.162c-3.86,0-6.931-1.066-9.222-3.199
			c-2.287-2.133-3.43-4.759-3.43-7.881c0-3.124,1.205-5.775,3.617-7.953c2.415-2.18,5.565-3.27,9.456-3.27
			c3.102,0,5.725,0.639,7.873,1.915v4.839c-2.633-1.482-5.128-2.225-7.484-2.225c-2.314,0-4.207,0.621-5.673,1.861
			c-1.466,1.238-2.2,2.816-2.2,4.736c0,1.93,0.721,3.524,2.169,4.779c1.449,1.256,3.303,1.883,5.565,1.883
			c1.119,0,2.197-0.147,3.236-0.443C123.644,31.543,125.192,30.894,127.244,29.887z"/>
		<path fill="#808285" d="M149.573,34.244c0.236,0,0.44,0.08,0.606,0.241c0.167,0.161,0.25,0.366,0.25,0.615v0.56
			c0,0.238-0.083,0.441-0.25,0.606c-0.166,0.166-0.37,0.251-0.606,0.251h-13.088c-0.239,0-0.439-0.086-0.6-0.258
			c-0.159-0.172-0.242-0.377-0.242-0.613c0.014-0.5,0.069-0.967,0.173-1.402c0.104-0.435,0.253-0.851,0.451-1.246
			c0.193-0.342,0.423-0.684,0.679-1.027c0.25-0.341,0.544-0.679,0.877-1.012c0.332-0.33,0.676-0.643,1.029-0.932
			c0.35-0.291,0.707-0.57,1.07-0.84c0.364-0.26,0.731-0.52,1.099-0.778c0.367-0.26,0.734-0.509,1.095-0.749
			c0.759-0.496,1.463-1.008,2.11-1.533c0.648-0.523,1.272-1.065,1.861-1.625c0.499-0.497,0.873-1.027,1.129-1.587
			c0.25-0.562,0.389-1.157,0.409-1.79c-0.007-0.613-0.114-1.157-0.318-1.633c-0.201-0.477-0.489-0.874-0.863-1.184
			c-0.884-0.666-1.999-0.996-3.361-0.996c-0.842,0.01-1.576,0.135-2.2,0.373c-0.631,0.24-1.126,0.581-1.49,1.026
			c-0.766,0.985-1.15,2.288-1.15,3.907c0,0.236-0.079,0.438-0.242,0.6c-0.159,0.16-0.36,0.24-0.596,0.24h-0.593
			c-0.239,0-0.44-0.08-0.6-0.24c-0.159-0.162-0.242-0.363-0.242-0.6c0.034-4.981,2.404-7.502,7.113-7.562
			c0.946,0,1.812,0.124,2.6,0.372c0.786,0.249,1.507,0.611,2.162,1.09c1.352,1.059,2.034,2.604,2.055,4.638
			c-0.021,0.883-0.208,1.725-0.568,2.528c-0.357,0.804-0.846,1.538-1.47,2.204c-0.603,0.621-1.254,1.229-1.954,1.82
			c-0.7,0.591-1.438,1.135-2.218,1.633h0.018c-1.493,0.996-2.835,1.986-4.017,2.973h0.015c-0.728,0.613-1.241,1.256-1.539,1.93
			H149.573z"/>
		<path fill="#808285" d="M166.982,34.244c0.235,0,0.437,0.08,0.604,0.241c0.166,0.161,0.249,0.366,0.249,0.615v0.56
			c0,0.238-0.083,0.441-0.249,0.606c-0.167,0.166-0.368,0.251-0.604,0.251h-13.091c-0.239,0-0.438-0.086-0.597-0.258
			c-0.163-0.172-0.242-0.377-0.242-0.613c0.007-0.5,0.065-0.967,0.173-1.402c0.101-0.435,0.25-0.851,0.447-1.246
			c0.197-0.342,0.426-0.684,0.676-1.027c0.256-0.341,0.551-0.679,0.88-1.012c0.333-0.33,0.676-0.643,1.029-0.932
			c0.354-0.291,0.71-0.57,1.074-0.84c0.364-0.26,0.728-0.52,1.099-0.778c0.367-0.26,0.734-0.509,1.095-0.749
			c0.759-0.496,1.463-1.008,2.107-1.533c0.651-0.523,1.268-1.065,1.864-1.625c0.495-0.497,0.873-1.027,1.126-1.587
			c0.253-0.562,0.392-1.157,0.412-1.79c-0.011-0.613-0.118-1.157-0.318-1.633c-0.201-0.477-0.492-0.874-0.863-1.184
			c-0.884-0.666-2.006-0.996-3.364-0.996c-0.839,0.01-1.573,0.135-2.201,0.373c-0.627,0.24-1.122,0.581-1.486,1.026
			c-0.77,0.985-1.15,2.288-1.15,3.907c0,0.236-0.08,0.438-0.242,0.6c-0.16,0.16-0.36,0.24-0.6,0.24h-0.593
			c-0.235,0-0.437-0.08-0.596-0.24c-0.159-0.162-0.243-0.363-0.243-0.6c0.031-4.981,2.401-7.502,7.111-7.562
			c0.945,0,1.812,0.124,2.599,0.372c0.79,0.249,1.511,0.611,2.166,1.09c1.348,1.059,2.033,2.604,2.055,4.638
			c-0.021,0.883-0.212,1.725-0.568,2.528c-0.36,0.804-0.849,1.538-1.47,2.204c-0.603,0.621-1.254,1.229-1.954,1.82
			c-0.7,0.591-1.441,1.135-2.218,1.633h0.014c-1.493,0.996-2.834,1.986-4.013,2.973h0.015c-0.729,0.613-1.241,1.256-1.543,1.93
			H166.982z"/>
		<path fill="#808285" d="M185.851,25.965c0.011,1.359-0.121,2.641-0.405,3.844c-0.277,1.205-0.7,2.326-1.258,3.361
			c-0.624,1.163-1.483,2.061-2.575,2.693c-1.095,0.634-2.418,0.97-3.964,1.012c-1.511-0.042-2.813-0.378-3.905-1.012
			c-1.088-0.633-1.944-1.525-2.567-2.678c-0.568-1.048-1.002-2.176-1.293-3.383c-0.287-1.21-0.43-2.488-0.419-3.838
			c-0.011-1.359,0.132-2.646,0.419-3.859c0.291-1.214,0.725-2.351,1.293-3.409c0.623-1.15,1.479-2.038,2.567-2.661
			c1.092-0.622,2.395-0.947,3.905-0.979c1.546,0.031,2.866,0.356,3.957,0.979c1.088,0.623,1.947,1.506,2.582,2.647
			c0.558,1.057,0.98,2.194,1.258,3.415C185.729,23.316,185.861,24.605,185.851,25.965z M183.595,25.965
			c0-0.498-0.027-1.024-0.083-1.578c-0.06-0.555-0.132-1.094-0.212-1.611c-0.107-0.51-0.238-0.997-0.398-1.465
			c-0.159-0.466-0.36-0.908-0.596-1.322c-0.873-1.732-2.433-2.625-4.671-2.676c-1.144,0.02-2.079,0.265-2.817,0.73h0.018
			c-0.374,0.25-0.714,0.535-1.012,0.855c-0.306,0.322-0.568,0.691-0.797,1.105c-0.236,0.404-0.434,0.838-0.59,1.3
			c-0.155,0.463-0.277,0.958-0.356,1.487c-0.232,1.017-0.343,2.073-0.343,3.174c0,1.006,0.11,2.033,0.343,3.08
			c0.079,0.52,0.204,1.012,0.363,1.479c0.16,0.468,0.36,0.919,0.6,1.354c0.437,0.83,1.029,1.473,1.774,1.931
			c0.385,0.269,0.808,0.466,1.278,0.591c0.465,0.125,0.984,0.188,1.553,0.188c0.582,0,1.108-0.062,1.58-0.188
			s0.891-0.322,1.255-0.591c0.395-0.239,0.737-0.519,1.032-0.833c0.298-0.317,0.558-0.684,0.79-1.098
			c0.246-0.426,0.45-0.876,0.603-1.354c0.16-0.476,0.284-0.97,0.392-1.479c0.08-0.518,0.152-1.036,0.212-1.555
			C183.567,26.971,183.595,26.463,183.595,25.965z"/>
		<path fill="#808285" d="M203.26,25.965c0.011,1.359-0.125,2.641-0.405,3.844c-0.277,1.205-0.7,2.326-1.262,3.361
			c-0.624,1.163-1.483,2.061-2.574,2.693c-1.096,0.634-2.416,0.97-3.961,1.012c-1.518-0.042-2.817-0.378-3.909-1.012
			c-1.088-0.633-1.94-1.525-2.563-2.678c-0.572-1.048-1.005-2.176-1.293-3.383c-0.291-1.21-0.434-2.488-0.419-3.838
			c-0.015-1.359,0.128-2.646,0.419-3.859c0.288-1.214,0.721-2.351,1.293-3.409c0.623-1.15,1.476-2.038,2.563-2.661
			c1.092-0.622,2.392-0.947,3.909-0.979c1.545,0.031,2.862,0.356,3.95,0.979c1.092,0.623,1.954,1.506,2.585,2.647
			c0.562,1.057,0.984,2.194,1.262,3.415C203.135,23.316,203.271,24.605,203.26,25.965z M201.004,25.965
			c0-0.498-0.031-1.024-0.087-1.578c-0.059-0.555-0.128-1.094-0.211-1.611c-0.104-0.51-0.236-0.997-0.396-1.465
			c-0.163-0.466-0.36-0.908-0.6-1.322c-0.869-1.732-2.429-2.625-4.667-2.676c-1.144,0.02-2.079,0.265-2.821,0.73h0.018
			c-0.374,0.25-0.71,0.535-1.008,0.855c-0.306,0.322-0.568,0.691-0.798,1.105c-0.238,0.404-0.437,0.838-0.589,1.3
			c-0.159,0.463-0.277,0.958-0.36,1.487c-0.229,1.017-0.343,2.073-0.343,3.174c0,1.006,0.114,2.033,0.343,3.08
			c0.083,0.52,0.208,1.012,0.367,1.479c0.16,0.468,0.36,0.919,0.597,1.354c0.437,0.83,1.028,1.473,1.773,1.931
			c0.389,0.269,0.812,0.466,1.279,0.591s0.983,0.188,1.556,0.188c0.582,0,1.108-0.062,1.58-0.188
			c0.471-0.125,0.887-0.322,1.251-0.591c0.398-0.239,0.741-0.519,1.036-0.833c0.298-0.317,0.558-0.684,0.786-1.098
			c0.25-0.426,0.451-0.876,0.606-1.354c0.156-0.476,0.284-0.97,0.389-1.479c0.083-0.518,0.152-1.036,0.211-1.555
			C200.973,26.971,201.004,26.463,201.004,25.965z"/>
		<path fill="#808285" d="M220.665,25.965c0.014,1.359-0.125,2.641-0.401,3.844c-0.284,1.205-0.7,2.326-1.262,3.361
			c-0.624,1.163-1.483,2.061-2.578,2.693c-1.095,0.634-2.412,0.97-3.957,1.012c-1.518-0.042-2.821-0.378-3.909-1.012
			c-1.088-0.633-1.947-1.525-2.567-2.678c-0.572-1.048-1.002-2.176-1.293-3.383c-0.291-1.21-0.43-2.488-0.419-3.838
			c-0.011-1.359,0.128-2.646,0.419-3.859c0.291-1.214,0.721-2.351,1.293-3.409c0.62-1.15,1.479-2.038,2.567-2.661
			c1.088-0.622,2.392-0.947,3.909-0.979c1.545,0.031,2.862,0.356,3.95,0.979c1.092,0.623,1.951,1.506,2.585,2.647
			c0.562,1.057,0.978,2.194,1.262,3.415C220.54,23.316,220.679,24.605,220.665,25.965z M218.413,25.965
			c0-0.498-0.031-1.024-0.09-1.578c-0.056-0.555-0.125-1.094-0.208-1.611c-0.104-0.51-0.236-0.997-0.396-1.465
			c-0.163-0.466-0.363-0.908-0.603-1.322c-0.874-1.732-2.426-2.625-4.668-2.676c-1.14,0.02-2.083,0.265-2.817,0.73h0.014
			c-0.37,0.25-0.706,0.535-1.012,0.855c-0.298,0.322-0.564,0.691-0.79,1.105c-0.242,0.404-0.437,0.838-0.592,1.3
			c-0.156,0.463-0.274,0.958-0.357,1.487c-0.229,1.017-0.343,2.073-0.343,3.174c0,1.006,0.114,2.033,0.343,3.08
			c0.083,0.52,0.201,1.012,0.364,1.479c0.162,0.468,0.36,0.919,0.6,1.354c0.437,0.83,1.025,1.473,1.773,1.931
			c0.385,0.269,0.812,0.466,1.275,0.591c0.468,0.125,0.987,0.188,1.56,0.188c0.578,0,1.105-0.062,1.58-0.188
			c0.471-0.125,0.887-0.322,1.251-0.591c0.392-0.239,0.738-0.519,1.036-0.833c0.291-0.317,0.554-0.684,0.783-1.098
			c0.249-0.426,0.45-0.876,0.609-1.354c0.152-0.476,0.284-0.97,0.389-1.479c0.083-0.518,0.152-1.036,0.208-1.555
			C218.382,26.971,218.413,26.463,218.413,25.965z"/>
	</g>
	<g>
		<path fill="#36845B" d="M37.794,11.535c-6.383-6.529-16.148-7.686-23.969-3.06c-9.131,5.397-11.391,17.558-5.95,26.318
			C8,35.002,8.683,34.805,8.604,34.541c-1.761-5.805-0.839-11.729,2.63-16.707c5.513-9.045,17.011-11.709,25.909-5.955
			C37.319,11.991,38.016,11.764,37.794,11.535z"/>
		<g>
			<path fill="#B0CDBA" d="M38.667,8.876c-2.824-1.692-6.577-1.09-9.54-0.196c-0.023,0.006-0.038,0.014-0.052,0.021
				c-0.018,0.004-0.034,0.005-0.049,0.01c-7.104,2.475-15.149,9.262-14.543,17.519c0.018,0.224,0.703,0.014,0.759-0.159
				c1.663-5.375,5.96-9.504,10.839-12.074c4.907-2.586,13.466-3.385,14.683,3.678c0.038,0.226,0.71,0.022,0.755-0.158
				C42.326,14.117,41.862,10.789,38.667,8.876z"/>
		</g>
		<path fill="#808285" d="M38.889,18.57c-0.533-0.631-0.693-0.812-1.258-1.411c-0.184-0.194-0.87-0.017-0.683,0.296
			c3.527,5.896,3.174,13.009-0.925,18.521c-2.457,3.301-6.311,5.308-10.31,5.953c-4.234,0.686-8.361-0.925-12.11-2.707
			c-0.235-0.111-0.85,0.078-0.565,0.395c5.648,6.328,15.636,7.887,22.579,2.609C43.123,36.523,44.606,26.096,38.889,18.57z"/>
		<path fill="#BCBEC0" d="M34.263,25.079c-0.045-0.237-0.728-0.151-0.77,0.06c-0.835,4.242-3.42,7.77-6.629,10.572
			c-4.151,3.617-13.511,7.098-15.676-0.254c-0.076-0.26-0.749-0.144-0.776,0.109c-0.942,7.516,5.593,9.33,11.56,7.178
			c6.327-2.285,12.405-9.049,12.502-15.98C34.467,26.193,34.395,25.632,34.263,25.079z"/>
	</g>
</g>
</svg>
